G04 #@! TF.GenerationSoftware,KiCad,Pcbnew,(5.1.2)-2*
G04 #@! TF.CreationDate,2020-01-01T19:17:51+08:00*
G04 #@! TF.ProjectId,redox-receiver,7265646f-782d-4726-9563-65697665722e,rev?*
G04 #@! TF.SameCoordinates,Original*
G04 #@! TF.FileFunction,Legend,Bot*
G04 #@! TF.FilePolarity,Positive*
%FSLAX46Y46*%
G04 Gerber Fmt 4.6, Leading zero omitted, Abs format (unit mm)*
G04 Created by KiCad (PCBNEW (5.1.2)-2) date 2020-01-01 19:17:51*
%MOMM*%
%LPD*%
G04 APERTURE LIST*
%ADD10C,0.300000*%
%ADD11C,0.120000*%
%ADD12C,0.150000*%
%ADD13C,0.100000*%
%ADD14C,0.152400*%
G04 APERTURE END LIST*
D10*
X148624285Y-145458571D02*
X148624285Y-143958571D01*
X148624285Y-145387142D02*
X148767142Y-145458571D01*
X149052857Y-145458571D01*
X149195714Y-145387142D01*
X149267142Y-145315714D01*
X149338571Y-145172857D01*
X149338571Y-144744285D01*
X149267142Y-144601428D01*
X149195714Y-144530000D01*
X149052857Y-144458571D01*
X148767142Y-144458571D01*
X148624285Y-144530000D01*
X147338571Y-145387142D02*
X147481428Y-145458571D01*
X147767142Y-145458571D01*
X147910000Y-145387142D01*
X147981428Y-145244285D01*
X147981428Y-144672857D01*
X147910000Y-144530000D01*
X147767142Y-144458571D01*
X147481428Y-144458571D01*
X147338571Y-144530000D01*
X147267142Y-144672857D01*
X147267142Y-144815714D01*
X147981428Y-144958571D01*
X146695714Y-145387142D02*
X146552857Y-145458571D01*
X146267142Y-145458571D01*
X146124285Y-145387142D01*
X146052857Y-145244285D01*
X146052857Y-145172857D01*
X146124285Y-145030000D01*
X146267142Y-144958571D01*
X146481428Y-144958571D01*
X146624285Y-144887142D01*
X146695714Y-144744285D01*
X146695714Y-144672857D01*
X146624285Y-144530000D01*
X146481428Y-144458571D01*
X146267142Y-144458571D01*
X146124285Y-144530000D01*
X145410000Y-145458571D02*
X145410000Y-144458571D01*
X145410000Y-143958571D02*
X145481428Y-144030000D01*
X145410000Y-144101428D01*
X145338571Y-144030000D01*
X145410000Y-143958571D01*
X145410000Y-144101428D01*
X144052857Y-144458571D02*
X144052857Y-145672857D01*
X144124285Y-145815714D01*
X144195714Y-145887142D01*
X144338571Y-145958571D01*
X144552857Y-145958571D01*
X144695714Y-145887142D01*
X144052857Y-145387142D02*
X144195714Y-145458571D01*
X144481428Y-145458571D01*
X144624285Y-145387142D01*
X144695714Y-145315714D01*
X144767142Y-145172857D01*
X144767142Y-144744285D01*
X144695714Y-144601428D01*
X144624285Y-144530000D01*
X144481428Y-144458571D01*
X144195714Y-144458571D01*
X144052857Y-144530000D01*
X143338571Y-144458571D02*
X143338571Y-145458571D01*
X143338571Y-144601428D02*
X143267142Y-144530000D01*
X143124285Y-144458571D01*
X142910000Y-144458571D01*
X142767142Y-144530000D01*
X142695714Y-144672857D01*
X142695714Y-145458571D01*
X141410000Y-145387142D02*
X141552857Y-145458571D01*
X141838571Y-145458571D01*
X141981428Y-145387142D01*
X142052857Y-145244285D01*
X142052857Y-144672857D01*
X141981428Y-144530000D01*
X141838571Y-144458571D01*
X141552857Y-144458571D01*
X141410000Y-144530000D01*
X141338571Y-144672857D01*
X141338571Y-144815714D01*
X142052857Y-144958571D01*
X140052857Y-145458571D02*
X140052857Y-143958571D01*
X140052857Y-145387142D02*
X140195714Y-145458571D01*
X140481428Y-145458571D01*
X140624285Y-145387142D01*
X140695714Y-145315714D01*
X140767142Y-145172857D01*
X140767142Y-144744285D01*
X140695714Y-144601428D01*
X140624285Y-144530000D01*
X140481428Y-144458571D01*
X140195714Y-144458571D01*
X140052857Y-144530000D01*
X138195714Y-145458571D02*
X138195714Y-143958571D01*
X138195714Y-144530000D02*
X138052857Y-144458571D01*
X137767142Y-144458571D01*
X137624285Y-144530000D01*
X137552857Y-144601428D01*
X137481428Y-144744285D01*
X137481428Y-145172857D01*
X137552857Y-145315714D01*
X137624285Y-145387142D01*
X137767142Y-145458571D01*
X138052857Y-145458571D01*
X138195714Y-145387142D01*
X136981428Y-144458571D02*
X136624285Y-145458571D01*
X136267142Y-144458571D02*
X136624285Y-145458571D01*
X136767142Y-145815714D01*
X136838571Y-145887142D01*
X136981428Y-145958571D01*
X134052857Y-144672857D02*
X134552857Y-144672857D01*
X134552857Y-145458571D02*
X134552857Y-143958571D01*
X133838571Y-143958571D01*
X132481428Y-145458571D02*
X133338571Y-145458571D01*
X132910000Y-145458571D02*
X132910000Y-143958571D01*
X133052857Y-144172857D01*
X133195714Y-144315714D01*
X133338571Y-144387142D01*
X131195714Y-144458571D02*
X131195714Y-145458571D01*
X131552857Y-143887142D02*
X131910000Y-144958571D01*
X130981428Y-144958571D01*
X129838571Y-145387142D02*
X129981428Y-145458571D01*
X130267142Y-145458571D01*
X130410000Y-145387142D01*
X130481428Y-145244285D01*
X130481428Y-144672857D01*
X130410000Y-144530000D01*
X130267142Y-144458571D01*
X129981428Y-144458571D01*
X129838571Y-144530000D01*
X129767142Y-144672857D01*
X129767142Y-144815714D01*
X130481428Y-144958571D01*
X128481428Y-145458571D02*
X128481428Y-144672857D01*
X128552857Y-144530000D01*
X128695714Y-144458571D01*
X128981428Y-144458571D01*
X129124285Y-144530000D01*
X128481428Y-145387142D02*
X128624285Y-145458571D01*
X128981428Y-145458571D01*
X129124285Y-145387142D01*
X129195714Y-145244285D01*
X129195714Y-145101428D01*
X129124285Y-144958571D01*
X128981428Y-144887142D01*
X128624285Y-144887142D01*
X128481428Y-144815714D01*
X127124285Y-144458571D02*
X127124285Y-145672857D01*
X127195714Y-145815714D01*
X127267142Y-145887142D01*
X127410000Y-145958571D01*
X127624285Y-145958571D01*
X127767142Y-145887142D01*
X127124285Y-145387142D02*
X127267142Y-145458571D01*
X127552857Y-145458571D01*
X127695714Y-145387142D01*
X127767142Y-145315714D01*
X127838571Y-145172857D01*
X127838571Y-144744285D01*
X127767142Y-144601428D01*
X127695714Y-144530000D01*
X127552857Y-144458571D01*
X127267142Y-144458571D01*
X127124285Y-144530000D01*
X126195714Y-145458571D02*
X126338571Y-145387142D01*
X126410000Y-145244285D01*
X126410000Y-143958571D01*
X125052857Y-145387142D02*
X125195714Y-145458571D01*
X125481428Y-145458571D01*
X125624285Y-145387142D01*
X125695714Y-145244285D01*
X125695714Y-144672857D01*
X125624285Y-144530000D01*
X125481428Y-144458571D01*
X125195714Y-144458571D01*
X125052857Y-144530000D01*
X124981428Y-144672857D01*
X124981428Y-144815714D01*
X125695714Y-144958571D01*
D11*
X111470000Y-95090000D02*
X111470000Y-100490000D01*
X106970000Y-95090000D02*
X111470000Y-95090000D01*
X106320000Y-61627936D02*
X106320000Y-62832064D01*
X104500000Y-61627936D02*
X104500000Y-62832064D01*
X81018748Y-97080000D02*
X81541252Y-97080000D01*
X81018748Y-98500000D02*
X81541252Y-98500000D01*
X81018748Y-93270000D02*
X81541252Y-93270000D01*
X81018748Y-94690000D02*
X81541252Y-94690000D01*
X90880000Y-63238748D02*
X90880000Y-63761252D01*
X89460000Y-63238748D02*
X89460000Y-63761252D01*
X87070000Y-63238748D02*
X87070000Y-63761252D01*
X85650000Y-63238748D02*
X85650000Y-63761252D01*
X83260000Y-63238748D02*
X83260000Y-63761252D01*
X81840000Y-63238748D02*
X81840000Y-63761252D01*
X79450000Y-63238748D02*
X79450000Y-63761252D01*
X78030000Y-63238748D02*
X78030000Y-63761252D01*
X142501252Y-137870000D02*
X141978748Y-137870000D01*
X142501252Y-136450000D02*
X141978748Y-136450000D01*
X142501252Y-142950000D02*
X141978748Y-142950000D01*
X142501252Y-141530000D02*
X141978748Y-141530000D01*
X122480000Y-63761252D02*
X122480000Y-63238748D01*
X123900000Y-63761252D02*
X123900000Y-63238748D01*
X130100000Y-63761252D02*
X130100000Y-63238748D01*
X131520000Y-63761252D02*
X131520000Y-63238748D01*
X126290000Y-63761252D02*
X126290000Y-63238748D01*
X127710000Y-63761252D02*
X127710000Y-63238748D01*
X133910000Y-63761252D02*
X133910000Y-63238748D01*
X135330000Y-63761252D02*
X135330000Y-63238748D01*
X81541252Y-102310000D02*
X81018748Y-102310000D01*
X81541252Y-100890000D02*
X81018748Y-100890000D01*
X109481252Y-93420000D02*
X108958748Y-93420000D01*
X109481252Y-92000000D02*
X108958748Y-92000000D01*
X108958748Y-102160000D02*
X109481252Y-102160000D01*
X108958748Y-103580000D02*
X109481252Y-103580000D01*
D12*
X90075000Y-102390000D02*
X88800000Y-102390000D01*
X100425000Y-102965000D02*
X99750000Y-102965000D01*
X100425000Y-92615000D02*
X99750000Y-92615000D01*
X90075000Y-92615000D02*
X90750000Y-92615000D01*
X90075000Y-102965000D02*
X90750000Y-102965000D01*
X90075000Y-92615000D02*
X90075000Y-93290000D01*
X100425000Y-92615000D02*
X100425000Y-93290000D01*
X100425000Y-102965000D02*
X100425000Y-102290000D01*
X90075000Y-102965000D02*
X90075000Y-102390000D01*
D11*
X98950000Y-63430000D02*
X98950000Y-60480000D01*
X102050000Y-61030000D02*
X102050000Y-63430000D01*
D12*
X92250000Y-77240000D02*
X92250000Y-76990000D01*
X92250000Y-76990000D02*
X98250000Y-76990000D01*
X98250000Y-76990000D02*
X98250000Y-77240000D01*
X98250000Y-80240000D02*
X98250000Y-80490000D01*
X98250000Y-80490000D02*
X92250000Y-80490000D01*
X92250000Y-80490000D02*
X92250000Y-80240000D01*
D13*
X123190000Y-129661920D02*
X123190000Y-144658080D01*
X123190000Y-144658080D02*
X103190040Y-144658080D01*
X103190040Y-144658080D02*
X103190040Y-129661920D01*
X103190040Y-129661920D02*
X123190000Y-129661920D01*
X130305000Y-142975000D02*
X130605000Y-142975000D01*
X130305000Y-142600000D02*
X130305000Y-142975000D01*
X130305000Y-136425000D02*
X130705000Y-136425000D01*
X130305000Y-136925000D02*
X130305000Y-136425000D01*
X133855000Y-142975000D02*
X133855000Y-142525000D01*
X133380000Y-142975000D02*
X133855000Y-142975000D01*
X133855000Y-136725000D02*
X134050000Y-136725000D01*
X133530000Y-136425000D02*
X133855000Y-136725000D01*
X133055000Y-136425000D02*
X133530000Y-136425000D01*
D11*
X91178748Y-142800000D02*
X91701252Y-142800000D01*
X91178748Y-144220000D02*
X91701252Y-144220000D01*
X91178748Y-138990000D02*
X91701252Y-138990000D01*
X91178748Y-140410000D02*
X91701252Y-140410000D01*
X91178748Y-135180000D02*
X91701252Y-135180000D01*
X91178748Y-136600000D02*
X91701252Y-136600000D01*
D12*
X149875000Y-119206000D02*
X149875000Y-120206000D01*
X148875000Y-119206000D02*
X149875000Y-119206000D01*
X149875000Y-133206000D02*
X148875000Y-133206000D01*
X149875000Y-132206000D02*
X149875000Y-133206000D01*
X135875000Y-133206000D02*
X135875000Y-132206000D01*
X136875000Y-133206000D02*
X135875000Y-133206000D01*
X135875000Y-119206000D02*
X136875000Y-119206000D01*
X135875000Y-120206000D02*
X135875000Y-119206000D01*
X130825000Y-119206000D02*
X130825000Y-120206000D01*
X129825000Y-119206000D02*
X130825000Y-119206000D01*
X130825000Y-133206000D02*
X129825000Y-133206000D01*
X130825000Y-132206000D02*
X130825000Y-133206000D01*
X116825000Y-133206000D02*
X116825000Y-132206000D01*
X117825000Y-133206000D02*
X116825000Y-133206000D01*
X116825000Y-119206000D02*
X117825000Y-119206000D01*
X116825000Y-120206000D02*
X116825000Y-119206000D01*
X111775000Y-119206000D02*
X111775000Y-120206000D01*
X110775000Y-119206000D02*
X111775000Y-119206000D01*
X111775000Y-133206000D02*
X110775000Y-133206000D01*
X111775000Y-132206000D02*
X111775000Y-133206000D01*
X97775000Y-133206000D02*
X97775000Y-132206000D01*
X98775000Y-133206000D02*
X97775000Y-133206000D01*
X97775000Y-119206000D02*
X98775000Y-119206000D01*
X97775000Y-120206000D02*
X97775000Y-119206000D01*
X92725000Y-119206000D02*
X92725000Y-120206000D01*
X91725000Y-119206000D02*
X92725000Y-119206000D01*
X92725000Y-133206000D02*
X91725000Y-133206000D01*
X92725000Y-132206000D02*
X92725000Y-133206000D01*
X78725000Y-133206000D02*
X78725000Y-132206000D01*
X79725000Y-133206000D02*
X78725000Y-133206000D01*
X78725000Y-119206000D02*
X79725000Y-119206000D01*
X78725000Y-120206000D02*
X78725000Y-119206000D01*
X135875000Y-114156000D02*
X135875000Y-113156000D01*
X136875000Y-114156000D02*
X135875000Y-114156000D01*
X135875000Y-100156000D02*
X136875000Y-100156000D01*
X135875000Y-101156000D02*
X135875000Y-100156000D01*
X149875000Y-100156000D02*
X149875000Y-101156000D01*
X148875000Y-100156000D02*
X149875000Y-100156000D01*
X149875000Y-114156000D02*
X148875000Y-114156000D01*
X149875000Y-113156000D02*
X149875000Y-114156000D01*
X116825000Y-114156000D02*
X116825000Y-113156000D01*
X117825000Y-114156000D02*
X116825000Y-114156000D01*
X116825000Y-100156000D02*
X117825000Y-100156000D01*
X116825000Y-101156000D02*
X116825000Y-100156000D01*
X130825000Y-100156000D02*
X130825000Y-101156000D01*
X129825000Y-100156000D02*
X130825000Y-100156000D01*
X130825000Y-114156000D02*
X129825000Y-114156000D01*
X130825000Y-113156000D02*
X130825000Y-114156000D01*
X97775000Y-114156000D02*
X97775000Y-113156000D01*
X98775000Y-114156000D02*
X97775000Y-114156000D01*
X97775000Y-100156000D02*
X98775000Y-100156000D01*
X97775000Y-101156000D02*
X97775000Y-100156000D01*
X111775000Y-100156000D02*
X111775000Y-101156000D01*
X110775000Y-100156000D02*
X111775000Y-100156000D01*
X111775000Y-114156000D02*
X110775000Y-114156000D01*
X111775000Y-113156000D02*
X111775000Y-114156000D01*
X78725000Y-114156000D02*
X78725000Y-113156000D01*
X79725000Y-114156000D02*
X78725000Y-114156000D01*
X78725000Y-100156000D02*
X79725000Y-100156000D01*
X78725000Y-101156000D02*
X78725000Y-100156000D01*
X92725000Y-100156000D02*
X92725000Y-101156000D01*
X91725000Y-100156000D02*
X92725000Y-100156000D01*
X92725000Y-114156000D02*
X91725000Y-114156000D01*
X92725000Y-113156000D02*
X92725000Y-114156000D01*
X149875000Y-81106200D02*
X149875000Y-82106200D01*
X148875000Y-81106200D02*
X149875000Y-81106200D01*
X149875000Y-95106200D02*
X148875000Y-95106200D01*
X149875000Y-94106200D02*
X149875000Y-95106200D01*
X135875000Y-95106200D02*
X135875000Y-94106200D01*
X136875000Y-95106200D02*
X135875000Y-95106200D01*
X135875000Y-81106200D02*
X136875000Y-81106200D01*
X135875000Y-82106200D02*
X135875000Y-81106200D01*
X130825000Y-81106200D02*
X130825000Y-82106200D01*
X129825000Y-81106200D02*
X130825000Y-81106200D01*
X130825000Y-95106200D02*
X129825000Y-95106200D01*
X130825000Y-94106200D02*
X130825000Y-95106200D01*
X116825000Y-95106200D02*
X116825000Y-94106200D01*
X117825000Y-95106200D02*
X116825000Y-95106200D01*
X116825000Y-81106200D02*
X117825000Y-81106200D01*
X116825000Y-82106200D02*
X116825000Y-81106200D01*
X111775000Y-81106200D02*
X111775000Y-82106200D01*
X110775000Y-81106200D02*
X111775000Y-81106200D01*
X111775000Y-95106200D02*
X110775000Y-95106200D01*
X111775000Y-94106200D02*
X111775000Y-95106200D01*
X97775000Y-95106200D02*
X97775000Y-94106200D01*
X98775000Y-95106200D02*
X97775000Y-95106200D01*
X97775000Y-81106200D02*
X98775000Y-81106200D01*
X97775000Y-82106200D02*
X97775000Y-81106200D01*
X92725000Y-81106200D02*
X92725000Y-82106200D01*
X91725000Y-81106200D02*
X92725000Y-81106200D01*
X92725000Y-95106200D02*
X91725000Y-95106200D01*
X92725000Y-94106200D02*
X92725000Y-95106200D01*
X78725000Y-95106200D02*
X78725000Y-94106200D01*
X79725000Y-95106200D02*
X78725000Y-95106200D01*
X78725000Y-81106200D02*
X79725000Y-81106200D01*
X78725000Y-82106200D02*
X78725000Y-81106200D01*
X135875000Y-76056200D02*
X135875000Y-75056200D01*
X136875000Y-76056200D02*
X135875000Y-76056200D01*
X135875000Y-62056200D02*
X136875000Y-62056200D01*
X135875000Y-63056200D02*
X135875000Y-62056200D01*
X149875000Y-62056200D02*
X149875000Y-63056200D01*
X148875000Y-62056200D02*
X149875000Y-62056200D01*
X149875000Y-76056200D02*
X148875000Y-76056200D01*
X149875000Y-75056200D02*
X149875000Y-76056200D01*
X116825000Y-76056200D02*
X116825000Y-75056200D01*
X117825000Y-76056200D02*
X116825000Y-76056200D01*
X116825000Y-62056200D02*
X117825000Y-62056200D01*
X116825000Y-63056200D02*
X116825000Y-62056200D01*
X130825000Y-62056200D02*
X130825000Y-63056200D01*
X129825000Y-62056200D02*
X130825000Y-62056200D01*
X130825000Y-76056200D02*
X129825000Y-76056200D01*
X130825000Y-75056200D02*
X130825000Y-76056200D01*
X97775000Y-76056200D02*
X97775000Y-75056200D01*
X98775000Y-76056200D02*
X97775000Y-76056200D01*
X97775000Y-62056200D02*
X98775000Y-62056200D01*
X97775000Y-63056200D02*
X97775000Y-62056200D01*
X111775000Y-62056200D02*
X111775000Y-63056200D01*
X110775000Y-62056200D02*
X111775000Y-62056200D01*
X111775000Y-76056200D02*
X110775000Y-76056200D01*
X111775000Y-75056200D02*
X111775000Y-76056200D01*
X78725000Y-76056200D02*
X78725000Y-75056200D01*
X79725000Y-76056200D02*
X78725000Y-76056200D01*
X78725000Y-62056200D02*
X79725000Y-62056200D01*
X78725000Y-63056200D02*
X78725000Y-62056200D01*
X92725000Y-62056200D02*
X92725000Y-63056200D01*
X91725000Y-62056200D02*
X92725000Y-62056200D01*
X92725000Y-76056200D02*
X91725000Y-76056200D01*
X92725000Y-75056200D02*
X92725000Y-76056200D01*
X133870000Y-133510000D02*
X135370000Y-133510000D01*
X133870000Y-128110000D02*
X133870000Y-133510000D01*
X135370000Y-128110000D02*
X133870000Y-128110000D01*
X135370000Y-133510000D02*
X135370000Y-128110000D01*
X134120000Y-131310000D02*
X134620000Y-130410000D01*
X135120000Y-131310000D02*
X134120000Y-131310000D01*
X134620000Y-130410000D02*
X135120000Y-131310000D01*
X135120000Y-130310000D02*
X134120000Y-130310000D01*
X131330000Y-133510000D02*
X132830000Y-133510000D01*
X131330000Y-128110000D02*
X131330000Y-133510000D01*
X132830000Y-128110000D02*
X131330000Y-128110000D01*
X132830000Y-133510000D02*
X132830000Y-128110000D01*
X131580000Y-131310000D02*
X132080000Y-130410000D01*
X132580000Y-131310000D02*
X131580000Y-131310000D01*
X132080000Y-130410000D02*
X132580000Y-131310000D01*
X132580000Y-130310000D02*
X131580000Y-130310000D01*
X95770000Y-133510000D02*
X97270000Y-133510000D01*
X95770000Y-128110000D02*
X95770000Y-133510000D01*
X97270000Y-128110000D02*
X95770000Y-128110000D01*
X97270000Y-133510000D02*
X97270000Y-128110000D01*
X96020000Y-131310000D02*
X96520000Y-130410000D01*
X97020000Y-131310000D02*
X96020000Y-131310000D01*
X96520000Y-130410000D02*
X97020000Y-131310000D01*
X97020000Y-130310000D02*
X96020000Y-130310000D01*
X93230000Y-133510000D02*
X94730000Y-133510000D01*
X93230000Y-128110000D02*
X93230000Y-133510000D01*
X94730000Y-128110000D02*
X93230000Y-128110000D01*
X94730000Y-133510000D02*
X94730000Y-128110000D01*
X93480000Y-131310000D02*
X93980000Y-130410000D01*
X94480000Y-131310000D02*
X93480000Y-131310000D01*
X93980000Y-130410000D02*
X94480000Y-131310000D01*
X94480000Y-130310000D02*
X93480000Y-130310000D01*
X145575000Y-117590000D02*
X145575000Y-116090000D01*
X140175000Y-117590000D02*
X145575000Y-117590000D01*
X140175000Y-116090000D02*
X140175000Y-117590000D01*
X145575000Y-116090000D02*
X140175000Y-116090000D01*
X143375000Y-117340000D02*
X142475000Y-116840000D01*
X143375000Y-116340000D02*
X143375000Y-117340000D01*
X142475000Y-116840000D02*
X143375000Y-116340000D01*
X142375000Y-116340000D02*
X142375000Y-117340000D01*
X126492000Y-117590000D02*
X126492000Y-116090000D01*
X121092000Y-117590000D02*
X126492000Y-117590000D01*
X121092000Y-116090000D02*
X121092000Y-117590000D01*
X126492000Y-116090000D02*
X121092000Y-116090000D01*
X124292000Y-117340000D02*
X123392000Y-116840000D01*
X124292000Y-116340000D02*
X124292000Y-117340000D01*
X123392000Y-116840000D02*
X124292000Y-116340000D01*
X123292000Y-116340000D02*
X123292000Y-117340000D01*
X107475000Y-117590000D02*
X107475000Y-116090000D01*
X102075000Y-117590000D02*
X107475000Y-117590000D01*
X102075000Y-116090000D02*
X102075000Y-117590000D01*
X107475000Y-116090000D02*
X102075000Y-116090000D01*
X105275000Y-117340000D02*
X104375000Y-116840000D01*
X105275000Y-116340000D02*
X105275000Y-117340000D01*
X104375000Y-116840000D02*
X105275000Y-116340000D01*
X104275000Y-116340000D02*
X104275000Y-117340000D01*
X88425000Y-117590000D02*
X88425000Y-116090000D01*
X83025000Y-117590000D02*
X88425000Y-117590000D01*
X83025000Y-116090000D02*
X83025000Y-117590000D01*
X88425000Y-116090000D02*
X83025000Y-116090000D01*
X86225000Y-117340000D02*
X85325000Y-116840000D01*
X86225000Y-116340000D02*
X86225000Y-117340000D01*
X85325000Y-116840000D02*
X86225000Y-116340000D01*
X85225000Y-116340000D02*
X85225000Y-117340000D01*
X133870000Y-95410000D02*
X135370000Y-95410000D01*
X133870000Y-90010000D02*
X133870000Y-95410000D01*
X135370000Y-90010000D02*
X133870000Y-90010000D01*
X135370000Y-95410000D02*
X135370000Y-90010000D01*
X134120000Y-93210000D02*
X134620000Y-92310000D01*
X135120000Y-93210000D02*
X134120000Y-93210000D01*
X134620000Y-92310000D02*
X135120000Y-93210000D01*
X135120000Y-92210000D02*
X134120000Y-92210000D01*
X131330000Y-95410000D02*
X132830000Y-95410000D01*
X131330000Y-90010000D02*
X131330000Y-95410000D01*
X132830000Y-90010000D02*
X131330000Y-90010000D01*
X132830000Y-95410000D02*
X132830000Y-90010000D01*
X131580000Y-93210000D02*
X132080000Y-92310000D01*
X132580000Y-93210000D02*
X131580000Y-93210000D01*
X132080000Y-92310000D02*
X132580000Y-93210000D01*
X132580000Y-92210000D02*
X131580000Y-92210000D01*
X107475000Y-79490000D02*
X107475000Y-77990000D01*
X102075000Y-79490000D02*
X107475000Y-79490000D01*
X102075000Y-77990000D02*
X102075000Y-79490000D01*
X107475000Y-77990000D02*
X102075000Y-77990000D01*
X105275000Y-79240000D02*
X104375000Y-78740000D01*
X105275000Y-78240000D02*
X105275000Y-79240000D01*
X104375000Y-78740000D02*
X105275000Y-78240000D01*
X104275000Y-78240000D02*
X104275000Y-79240000D01*
X88425000Y-79490000D02*
X88425000Y-77990000D01*
X83025000Y-79490000D02*
X88425000Y-79490000D01*
X83025000Y-77990000D02*
X83025000Y-79490000D01*
X88425000Y-77990000D02*
X83025000Y-77990000D01*
X86225000Y-79240000D02*
X85325000Y-78740000D01*
X86225000Y-78240000D02*
X86225000Y-79240000D01*
X85325000Y-78740000D02*
X86225000Y-78240000D01*
X85225000Y-78240000D02*
X85225000Y-79240000D01*
X145575000Y-79331200D02*
X145575000Y-77831200D01*
X140175000Y-79331200D02*
X145575000Y-79331200D01*
X140175000Y-77831200D02*
X140175000Y-79331200D01*
X145575000Y-77831200D02*
X140175000Y-77831200D01*
X143375000Y-79081200D02*
X142475000Y-78581200D01*
X143375000Y-78081200D02*
X143375000Y-79081200D01*
X142475000Y-78581200D02*
X143375000Y-78081200D01*
X142375000Y-78081200D02*
X142375000Y-79081200D01*
X126525000Y-79331200D02*
X126525000Y-77831200D01*
X121125000Y-79331200D02*
X126525000Y-79331200D01*
X121125000Y-77831200D02*
X121125000Y-79331200D01*
X126525000Y-77831200D02*
X121125000Y-77831200D01*
X124325000Y-79081200D02*
X123425000Y-78581200D01*
X124325000Y-78081200D02*
X124325000Y-79081200D01*
X123425000Y-78581200D02*
X124325000Y-78081200D01*
X123325000Y-78081200D02*
X123325000Y-79081200D01*
X95770000Y-67470000D02*
X97270000Y-67470000D01*
X95770000Y-62070000D02*
X95770000Y-67470000D01*
X97270000Y-62070000D02*
X95770000Y-62070000D01*
X97270000Y-67470000D02*
X97270000Y-62070000D01*
X96020000Y-65270000D02*
X96520000Y-64370000D01*
X97020000Y-65270000D02*
X96020000Y-65270000D01*
X96520000Y-64370000D02*
X97020000Y-65270000D01*
X97020000Y-64270000D02*
X96020000Y-64270000D01*
X93230000Y-67470000D02*
X94730000Y-67470000D01*
X93230000Y-62070000D02*
X93230000Y-67470000D01*
X94730000Y-62070000D02*
X93230000Y-62070000D01*
X94730000Y-67470000D02*
X94730000Y-62070000D01*
X93480000Y-65270000D02*
X93980000Y-64370000D01*
X94480000Y-65270000D02*
X93480000Y-65270000D01*
X93980000Y-64370000D02*
X94480000Y-65270000D01*
X94480000Y-64270000D02*
X93480000Y-64270000D01*
X105622380Y-96980476D02*
X106622380Y-97647142D01*
X105622380Y-97647142D02*
X106622380Y-96980476D01*
X106622380Y-98551904D02*
X106622380Y-97980476D01*
X106622380Y-98266190D02*
X105622380Y-98266190D01*
X105765238Y-98170952D01*
X105860476Y-98075714D01*
X105908095Y-97980476D01*
X103518571Y-61896666D02*
X103518571Y-61563333D01*
X104042380Y-61563333D02*
X103042380Y-61563333D01*
X103042380Y-62039523D01*
X104042380Y-62944285D02*
X104042380Y-62372857D01*
X104042380Y-62658571D02*
X103042380Y-62658571D01*
X103185238Y-62563333D01*
X103280476Y-62468095D01*
X103328095Y-62372857D01*
X81446666Y-99892380D02*
X81780000Y-99416190D01*
X82018095Y-99892380D02*
X82018095Y-98892380D01*
X81637142Y-98892380D01*
X81541904Y-98940000D01*
X81494285Y-98987619D01*
X81446666Y-99082857D01*
X81446666Y-99225714D01*
X81494285Y-99320952D01*
X81541904Y-99368571D01*
X81637142Y-99416190D01*
X82018095Y-99416190D01*
X80589523Y-98892380D02*
X80780000Y-98892380D01*
X80875238Y-98940000D01*
X80922857Y-98987619D01*
X81018095Y-99130476D01*
X81065714Y-99320952D01*
X81065714Y-99701904D01*
X81018095Y-99797142D01*
X80970476Y-99844761D01*
X80875238Y-99892380D01*
X80684761Y-99892380D01*
X80589523Y-99844761D01*
X80541904Y-99797142D01*
X80494285Y-99701904D01*
X80494285Y-99463809D01*
X80541904Y-99368571D01*
X80589523Y-99320952D01*
X80684761Y-99273333D01*
X80875238Y-99273333D01*
X80970476Y-99320952D01*
X81018095Y-99368571D01*
X81065714Y-99463809D01*
X81446666Y-96082380D02*
X81780000Y-95606190D01*
X82018095Y-96082380D02*
X82018095Y-95082380D01*
X81637142Y-95082380D01*
X81541904Y-95130000D01*
X81494285Y-95177619D01*
X81446666Y-95272857D01*
X81446666Y-95415714D01*
X81494285Y-95510952D01*
X81541904Y-95558571D01*
X81637142Y-95606190D01*
X82018095Y-95606190D01*
X80541904Y-95082380D02*
X81018095Y-95082380D01*
X81065714Y-95558571D01*
X81018095Y-95510952D01*
X80922857Y-95463333D01*
X80684761Y-95463333D01*
X80589523Y-95510952D01*
X80541904Y-95558571D01*
X80494285Y-95653809D01*
X80494285Y-95891904D01*
X80541904Y-95987142D01*
X80589523Y-96034761D01*
X80684761Y-96082380D01*
X80922857Y-96082380D01*
X81018095Y-96034761D01*
X81065714Y-95987142D01*
X88972380Y-63333333D02*
X88496190Y-63000000D01*
X88972380Y-62761904D02*
X87972380Y-62761904D01*
X87972380Y-63142857D01*
X88020000Y-63238095D01*
X88067619Y-63285714D01*
X88162857Y-63333333D01*
X88305714Y-63333333D01*
X88400952Y-63285714D01*
X88448571Y-63238095D01*
X88496190Y-63142857D01*
X88496190Y-62761904D01*
X88305714Y-64190476D02*
X88972380Y-64190476D01*
X87924761Y-63952380D02*
X88639047Y-63714285D01*
X88639047Y-64333333D01*
X85162380Y-63333333D02*
X84686190Y-63000000D01*
X85162380Y-62761904D02*
X84162380Y-62761904D01*
X84162380Y-63142857D01*
X84210000Y-63238095D01*
X84257619Y-63285714D01*
X84352857Y-63333333D01*
X84495714Y-63333333D01*
X84590952Y-63285714D01*
X84638571Y-63238095D01*
X84686190Y-63142857D01*
X84686190Y-62761904D01*
X84162380Y-63666666D02*
X84162380Y-64285714D01*
X84543333Y-63952380D01*
X84543333Y-64095238D01*
X84590952Y-64190476D01*
X84638571Y-64238095D01*
X84733809Y-64285714D01*
X84971904Y-64285714D01*
X85067142Y-64238095D01*
X85114761Y-64190476D01*
X85162380Y-64095238D01*
X85162380Y-63809523D01*
X85114761Y-63714285D01*
X85067142Y-63666666D01*
X81352380Y-63333333D02*
X80876190Y-63000000D01*
X81352380Y-62761904D02*
X80352380Y-62761904D01*
X80352380Y-63142857D01*
X80400000Y-63238095D01*
X80447619Y-63285714D01*
X80542857Y-63333333D01*
X80685714Y-63333333D01*
X80780952Y-63285714D01*
X80828571Y-63238095D01*
X80876190Y-63142857D01*
X80876190Y-62761904D01*
X80447619Y-63714285D02*
X80400000Y-63761904D01*
X80352380Y-63857142D01*
X80352380Y-64095238D01*
X80400000Y-64190476D01*
X80447619Y-64238095D01*
X80542857Y-64285714D01*
X80638095Y-64285714D01*
X80780952Y-64238095D01*
X81352380Y-63666666D01*
X81352380Y-64285714D01*
X77542380Y-63333333D02*
X77066190Y-63000000D01*
X77542380Y-62761904D02*
X76542380Y-62761904D01*
X76542380Y-63142857D01*
X76590000Y-63238095D01*
X76637619Y-63285714D01*
X76732857Y-63333333D01*
X76875714Y-63333333D01*
X76970952Y-63285714D01*
X77018571Y-63238095D01*
X77066190Y-63142857D01*
X77066190Y-62761904D01*
X77542380Y-64285714D02*
X77542380Y-63714285D01*
X77542380Y-64000000D02*
X76542380Y-64000000D01*
X76685238Y-63904761D01*
X76780476Y-63809523D01*
X76828095Y-63714285D01*
X142882857Y-135867142D02*
X142930476Y-135914761D01*
X143073333Y-135962380D01*
X143168571Y-135962380D01*
X143311428Y-135914761D01*
X143406666Y-135819523D01*
X143454285Y-135724285D01*
X143501904Y-135533809D01*
X143501904Y-135390952D01*
X143454285Y-135200476D01*
X143406666Y-135105238D01*
X143311428Y-135010000D01*
X143168571Y-134962380D01*
X143073333Y-134962380D01*
X142930476Y-135010000D01*
X142882857Y-135057619D01*
X141930476Y-135962380D02*
X142501904Y-135962380D01*
X142216190Y-135962380D02*
X142216190Y-134962380D01*
X142311428Y-135105238D01*
X142406666Y-135200476D01*
X142501904Y-135248095D01*
X141549523Y-135057619D02*
X141501904Y-135010000D01*
X141406666Y-134962380D01*
X141168571Y-134962380D01*
X141073333Y-135010000D01*
X141025714Y-135057619D01*
X140978095Y-135152857D01*
X140978095Y-135248095D01*
X141025714Y-135390952D01*
X141597142Y-135962380D01*
X140978095Y-135962380D01*
X142882857Y-140947142D02*
X142930476Y-140994761D01*
X143073333Y-141042380D01*
X143168571Y-141042380D01*
X143311428Y-140994761D01*
X143406666Y-140899523D01*
X143454285Y-140804285D01*
X143501904Y-140613809D01*
X143501904Y-140470952D01*
X143454285Y-140280476D01*
X143406666Y-140185238D01*
X143311428Y-140090000D01*
X143168571Y-140042380D01*
X143073333Y-140042380D01*
X142930476Y-140090000D01*
X142882857Y-140137619D01*
X141930476Y-141042380D02*
X142501904Y-141042380D01*
X142216190Y-141042380D02*
X142216190Y-140042380D01*
X142311428Y-140185238D01*
X142406666Y-140280476D01*
X142501904Y-140328095D01*
X140978095Y-141042380D02*
X141549523Y-141042380D01*
X141263809Y-141042380D02*
X141263809Y-140042380D01*
X141359047Y-140185238D01*
X141454285Y-140280476D01*
X141549523Y-140328095D01*
X125197142Y-63333333D02*
X125244761Y-63285714D01*
X125292380Y-63142857D01*
X125292380Y-63047619D01*
X125244761Y-62904761D01*
X125149523Y-62809523D01*
X125054285Y-62761904D01*
X124863809Y-62714285D01*
X124720952Y-62714285D01*
X124530476Y-62761904D01*
X124435238Y-62809523D01*
X124340000Y-62904761D01*
X124292380Y-63047619D01*
X124292380Y-63142857D01*
X124340000Y-63285714D01*
X124387619Y-63333333D01*
X124292380Y-63666666D02*
X124292380Y-64333333D01*
X125292380Y-63904761D01*
X132817142Y-63333333D02*
X132864761Y-63285714D01*
X132912380Y-63142857D01*
X132912380Y-63047619D01*
X132864761Y-62904761D01*
X132769523Y-62809523D01*
X132674285Y-62761904D01*
X132483809Y-62714285D01*
X132340952Y-62714285D01*
X132150476Y-62761904D01*
X132055238Y-62809523D01*
X131960000Y-62904761D01*
X131912380Y-63047619D01*
X131912380Y-63142857D01*
X131960000Y-63285714D01*
X132007619Y-63333333D01*
X131912380Y-64190476D02*
X131912380Y-64000000D01*
X131960000Y-63904761D01*
X132007619Y-63857142D01*
X132150476Y-63761904D01*
X132340952Y-63714285D01*
X132721904Y-63714285D01*
X132817142Y-63761904D01*
X132864761Y-63809523D01*
X132912380Y-63904761D01*
X132912380Y-64095238D01*
X132864761Y-64190476D01*
X132817142Y-64238095D01*
X132721904Y-64285714D01*
X132483809Y-64285714D01*
X132388571Y-64238095D01*
X132340952Y-64190476D01*
X132293333Y-64095238D01*
X132293333Y-63904761D01*
X132340952Y-63809523D01*
X132388571Y-63761904D01*
X132483809Y-63714285D01*
X129007142Y-63333333D02*
X129054761Y-63285714D01*
X129102380Y-63142857D01*
X129102380Y-63047619D01*
X129054761Y-62904761D01*
X128959523Y-62809523D01*
X128864285Y-62761904D01*
X128673809Y-62714285D01*
X128530952Y-62714285D01*
X128340476Y-62761904D01*
X128245238Y-62809523D01*
X128150000Y-62904761D01*
X128102380Y-63047619D01*
X128102380Y-63142857D01*
X128150000Y-63285714D01*
X128197619Y-63333333D01*
X128102380Y-64238095D02*
X128102380Y-63761904D01*
X128578571Y-63714285D01*
X128530952Y-63761904D01*
X128483333Y-63857142D01*
X128483333Y-64095238D01*
X128530952Y-64190476D01*
X128578571Y-64238095D01*
X128673809Y-64285714D01*
X128911904Y-64285714D01*
X129007142Y-64238095D01*
X129054761Y-64190476D01*
X129102380Y-64095238D01*
X129102380Y-63857142D01*
X129054761Y-63761904D01*
X129007142Y-63714285D01*
X136627142Y-63333333D02*
X136674761Y-63285714D01*
X136722380Y-63142857D01*
X136722380Y-63047619D01*
X136674761Y-62904761D01*
X136579523Y-62809523D01*
X136484285Y-62761904D01*
X136293809Y-62714285D01*
X136150952Y-62714285D01*
X135960476Y-62761904D01*
X135865238Y-62809523D01*
X135770000Y-62904761D01*
X135722380Y-63047619D01*
X135722380Y-63142857D01*
X135770000Y-63285714D01*
X135817619Y-63333333D01*
X136055714Y-64190476D02*
X136722380Y-64190476D01*
X135674761Y-63952380D02*
X136389047Y-63714285D01*
X136389047Y-64333333D01*
X81446666Y-100307142D02*
X81494285Y-100354761D01*
X81637142Y-100402380D01*
X81732380Y-100402380D01*
X81875238Y-100354761D01*
X81970476Y-100259523D01*
X82018095Y-100164285D01*
X82065714Y-99973809D01*
X82065714Y-99830952D01*
X82018095Y-99640476D01*
X81970476Y-99545238D01*
X81875238Y-99450000D01*
X81732380Y-99402380D01*
X81637142Y-99402380D01*
X81494285Y-99450000D01*
X81446666Y-99497619D01*
X81113333Y-99402380D02*
X80494285Y-99402380D01*
X80827619Y-99783333D01*
X80684761Y-99783333D01*
X80589523Y-99830952D01*
X80541904Y-99878571D01*
X80494285Y-99973809D01*
X80494285Y-100211904D01*
X80541904Y-100307142D01*
X80589523Y-100354761D01*
X80684761Y-100402380D01*
X80970476Y-100402380D01*
X81065714Y-100354761D01*
X81113333Y-100307142D01*
X109386666Y-91417142D02*
X109434285Y-91464761D01*
X109577142Y-91512380D01*
X109672380Y-91512380D01*
X109815238Y-91464761D01*
X109910476Y-91369523D01*
X109958095Y-91274285D01*
X110005714Y-91083809D01*
X110005714Y-90940952D01*
X109958095Y-90750476D01*
X109910476Y-90655238D01*
X109815238Y-90560000D01*
X109672380Y-90512380D01*
X109577142Y-90512380D01*
X109434285Y-90560000D01*
X109386666Y-90607619D01*
X109005714Y-90607619D02*
X108958095Y-90560000D01*
X108862857Y-90512380D01*
X108624761Y-90512380D01*
X108529523Y-90560000D01*
X108481904Y-90607619D01*
X108434285Y-90702857D01*
X108434285Y-90798095D01*
X108481904Y-90940952D01*
X109053333Y-91512380D01*
X108434285Y-91512380D01*
X109386666Y-104877142D02*
X109434285Y-104924761D01*
X109577142Y-104972380D01*
X109672380Y-104972380D01*
X109815238Y-104924761D01*
X109910476Y-104829523D01*
X109958095Y-104734285D01*
X110005714Y-104543809D01*
X110005714Y-104400952D01*
X109958095Y-104210476D01*
X109910476Y-104115238D01*
X109815238Y-104020000D01*
X109672380Y-103972380D01*
X109577142Y-103972380D01*
X109434285Y-104020000D01*
X109386666Y-104067619D01*
X108434285Y-104972380D02*
X109005714Y-104972380D01*
X108720000Y-104972380D02*
X108720000Y-103972380D01*
X108815238Y-104115238D01*
X108910476Y-104210476D01*
X109005714Y-104258095D01*
X96011904Y-104692380D02*
X96011904Y-105501904D01*
X95964285Y-105597142D01*
X95916666Y-105644761D01*
X95821428Y-105692380D01*
X95630952Y-105692380D01*
X95535714Y-105644761D01*
X95488095Y-105597142D01*
X95440476Y-105501904D01*
X95440476Y-104692380D01*
X94440476Y-105692380D02*
X95011904Y-105692380D01*
X94726190Y-105692380D02*
X94726190Y-104692380D01*
X94821428Y-104835238D01*
X94916666Y-104930476D01*
X95011904Y-104978095D01*
X98572380Y-61511904D02*
X97572380Y-61511904D01*
X97572380Y-61750000D01*
X97620000Y-61892857D01*
X97715238Y-61988095D01*
X97810476Y-62035714D01*
X98000952Y-62083333D01*
X98143809Y-62083333D01*
X98334285Y-62035714D01*
X98429523Y-61988095D01*
X98524761Y-61892857D01*
X98572380Y-61750000D01*
X98572380Y-61511904D01*
X97572380Y-62940476D02*
X97572380Y-62750000D01*
X97620000Y-62654761D01*
X97667619Y-62607142D01*
X97810476Y-62511904D01*
X98000952Y-62464285D01*
X98381904Y-62464285D01*
X98477142Y-62511904D01*
X98524761Y-62559523D01*
X98572380Y-62654761D01*
X98572380Y-62845238D01*
X98524761Y-62940476D01*
X98477142Y-62988095D01*
X98381904Y-63035714D01*
X98143809Y-63035714D01*
X98048571Y-62988095D01*
X98000952Y-62940476D01*
X97953333Y-62845238D01*
X97953333Y-62654761D01*
X98000952Y-62559523D01*
X98048571Y-62511904D01*
X98143809Y-62464285D01*
X96361095Y-79192380D02*
X96694428Y-78716190D01*
X96932523Y-79192380D02*
X96932523Y-78192380D01*
X96551571Y-78192380D01*
X96456333Y-78240000D01*
X96408714Y-78287619D01*
X96361095Y-78382857D01*
X96361095Y-78525714D01*
X96408714Y-78620952D01*
X96456333Y-78668571D01*
X96551571Y-78716190D01*
X96932523Y-78716190D01*
X95551571Y-79144761D02*
X95646809Y-79192380D01*
X95837285Y-79192380D01*
X95932523Y-79144761D01*
X95980142Y-79049523D01*
X95980142Y-78668571D01*
X95932523Y-78573333D01*
X95837285Y-78525714D01*
X95646809Y-78525714D01*
X95551571Y-78573333D01*
X95503952Y-78668571D01*
X95503952Y-78763809D01*
X95980142Y-78859047D01*
X95123000Y-79144761D02*
X95027761Y-79192380D01*
X94837285Y-79192380D01*
X94742047Y-79144761D01*
X94694428Y-79049523D01*
X94694428Y-79001904D01*
X94742047Y-78906666D01*
X94837285Y-78859047D01*
X94980142Y-78859047D01*
X95075380Y-78811428D01*
X95123000Y-78716190D01*
X95123000Y-78668571D01*
X95075380Y-78573333D01*
X94980142Y-78525714D01*
X94837285Y-78525714D01*
X94742047Y-78573333D01*
X93884904Y-79144761D02*
X93980142Y-79192380D01*
X94170619Y-79192380D01*
X94265857Y-79144761D01*
X94313476Y-79049523D01*
X94313476Y-78668571D01*
X94265857Y-78573333D01*
X94170619Y-78525714D01*
X93980142Y-78525714D01*
X93884904Y-78573333D01*
X93837285Y-78668571D01*
X93837285Y-78763809D01*
X94313476Y-78859047D01*
X93551571Y-78525714D02*
X93170619Y-78525714D01*
X93408714Y-78192380D02*
X93408714Y-79049523D01*
X93361095Y-79144761D01*
X93265857Y-79192380D01*
X93170619Y-79192380D01*
D14*
X109868571Y-136017142D02*
X110868571Y-136017142D01*
X109868571Y-135374285D02*
X110654285Y-135374285D01*
X110797142Y-135445714D01*
X110868571Y-135588571D01*
X110868571Y-135802857D01*
X110797142Y-135945714D01*
X110725714Y-136017142D01*
X110725714Y-137588571D02*
X110797142Y-137517142D01*
X110868571Y-137302857D01*
X110868571Y-137160000D01*
X110797142Y-136945714D01*
X110654285Y-136802857D01*
X110511428Y-136731428D01*
X110225714Y-136660000D01*
X110011428Y-136660000D01*
X109725714Y-136731428D01*
X109582857Y-136802857D01*
X109440000Y-136945714D01*
X109368571Y-137160000D01*
X109368571Y-137302857D01*
X109440000Y-137517142D01*
X109511428Y-137588571D01*
X110868571Y-139017142D02*
X110868571Y-138160000D01*
X110868571Y-138588571D02*
X109368571Y-138588571D01*
X109582857Y-138445714D01*
X109725714Y-138302857D01*
X109797142Y-138160000D01*
X106898285Y-132088571D02*
X107612571Y-132088571D01*
X106112571Y-131588571D02*
X106898285Y-132088571D01*
X106112571Y-132588571D01*
X106112571Y-133517142D02*
X107184000Y-133517142D01*
X107398285Y-133445714D01*
X107541142Y-133302857D01*
X107612571Y-133088571D01*
X107612571Y-132945714D01*
X107041142Y-134231428D02*
X107041142Y-135374285D01*
X107612571Y-136874285D02*
X107612571Y-136017142D01*
X107612571Y-136445714D02*
X106112571Y-136445714D01*
X106326857Y-136302857D01*
X106469714Y-136160000D01*
X106541142Y-136017142D01*
X106612571Y-138160000D02*
X107612571Y-138160000D01*
X106041142Y-137802857D02*
X107112571Y-137445714D01*
X107112571Y-138374285D01*
X106112571Y-139231428D02*
X106112571Y-139374285D01*
X106184000Y-139517142D01*
X106255428Y-139588571D01*
X106398285Y-139660000D01*
X106684000Y-139731428D01*
X107041142Y-139731428D01*
X107326857Y-139660000D01*
X107469714Y-139588571D01*
X107541142Y-139517142D01*
X107612571Y-139374285D01*
X107612571Y-139231428D01*
X107541142Y-139088571D01*
X107469714Y-139017142D01*
X107326857Y-138945714D01*
X107041142Y-138874285D01*
X106684000Y-138874285D01*
X106398285Y-138945714D01*
X106255428Y-139017142D01*
X106184000Y-139088571D01*
X106112571Y-139231428D01*
X107612571Y-141160000D02*
X107612571Y-140302857D01*
X107612571Y-140731428D02*
X106112571Y-140731428D01*
X106326857Y-140588571D01*
X106469714Y-140445714D01*
X106541142Y-140302857D01*
X106112571Y-142517142D02*
X106112571Y-141802857D01*
X106826857Y-141731428D01*
X106755428Y-141802857D01*
X106684000Y-141945714D01*
X106684000Y-142302857D01*
X106755428Y-142445714D01*
X106826857Y-142517142D01*
X106969714Y-142588571D01*
X107326857Y-142588571D01*
X107469714Y-142517142D01*
X107541142Y-142445714D01*
X107612571Y-142302857D01*
X107612571Y-141945714D01*
X107541142Y-141802857D01*
X107469714Y-141731428D01*
D12*
X116038095Y-66802380D02*
X116038095Y-67611904D01*
X115990476Y-67707142D01*
X115942857Y-67754761D01*
X115847619Y-67802380D01*
X115657142Y-67802380D01*
X115561904Y-67754761D01*
X115514285Y-67707142D01*
X115466666Y-67611904D01*
X115466666Y-66802380D01*
X115038095Y-67754761D02*
X114895238Y-67802380D01*
X114657142Y-67802380D01*
X114561904Y-67754761D01*
X114514285Y-67707142D01*
X114466666Y-67611904D01*
X114466666Y-67516666D01*
X114514285Y-67421428D01*
X114561904Y-67373809D01*
X114657142Y-67326190D01*
X114847619Y-67278571D01*
X114942857Y-67230952D01*
X114990476Y-67183333D01*
X115038095Y-67088095D01*
X115038095Y-66992857D01*
X114990476Y-66897619D01*
X114942857Y-66850000D01*
X114847619Y-66802380D01*
X114609523Y-66802380D01*
X114466666Y-66850000D01*
X113704761Y-67278571D02*
X113561904Y-67326190D01*
X113514285Y-67373809D01*
X113466666Y-67469047D01*
X113466666Y-67611904D01*
X113514285Y-67707142D01*
X113561904Y-67754761D01*
X113657142Y-67802380D01*
X114038095Y-67802380D01*
X114038095Y-66802380D01*
X113704761Y-66802380D01*
X113609523Y-66850000D01*
X113561904Y-66897619D01*
X113514285Y-66992857D01*
X113514285Y-67088095D01*
X113561904Y-67183333D01*
X113609523Y-67230952D01*
X113704761Y-67278571D01*
X114038095Y-67278571D01*
X112514285Y-67802380D02*
X113085714Y-67802380D01*
X112800000Y-67802380D02*
X112800000Y-66802380D01*
X112895238Y-66945238D01*
X112990476Y-67040476D01*
X113085714Y-67088095D01*
X131532380Y-136930142D02*
X132532380Y-137263476D01*
X131532380Y-137596809D01*
X132627619Y-137692047D02*
X132627619Y-138453952D01*
X132532380Y-139263476D02*
X132056190Y-138930142D01*
X132532380Y-138692047D02*
X131532380Y-138692047D01*
X131532380Y-139073000D01*
X131580000Y-139168238D01*
X131627619Y-139215857D01*
X131722857Y-139263476D01*
X131865714Y-139263476D01*
X131960952Y-139215857D01*
X132008571Y-139168238D01*
X132056190Y-139073000D01*
X132056190Y-138692047D01*
X132008571Y-139692047D02*
X132008571Y-140025380D01*
X132532380Y-140168238D02*
X132532380Y-139692047D01*
X131532380Y-139692047D01*
X131532380Y-140168238D01*
X131580000Y-141120619D02*
X131532380Y-141025380D01*
X131532380Y-140882523D01*
X131580000Y-140739666D01*
X131675238Y-140644428D01*
X131770476Y-140596809D01*
X131960952Y-140549190D01*
X132103809Y-140549190D01*
X132294285Y-140596809D01*
X132389523Y-140644428D01*
X132484761Y-140739666D01*
X132532380Y-140882523D01*
X132532380Y-140977761D01*
X132484761Y-141120619D01*
X132437142Y-141168238D01*
X132103809Y-141168238D01*
X132103809Y-140977761D01*
X132532380Y-142120619D02*
X132532380Y-141549190D01*
X132532380Y-141834904D02*
X131532380Y-141834904D01*
X131675238Y-141739666D01*
X131770476Y-141644428D01*
X131818095Y-141549190D01*
X100575119Y-140025357D02*
X101051309Y-140358690D01*
X100575119Y-140596785D02*
X101575119Y-140596785D01*
X101575119Y-140215833D01*
X101527500Y-140120595D01*
X101479880Y-140072976D01*
X101384642Y-140025357D01*
X101241785Y-140025357D01*
X101146547Y-140072976D01*
X101098928Y-140120595D01*
X101051309Y-140215833D01*
X101051309Y-140596785D01*
X100575119Y-139072976D02*
X100575119Y-139644404D01*
X100575119Y-139358690D02*
X101575119Y-139358690D01*
X101432261Y-139453928D01*
X101337023Y-139549166D01*
X101289404Y-139644404D01*
X101575119Y-138739642D02*
X101575119Y-138120595D01*
X101194166Y-138453928D01*
X101194166Y-138311071D01*
X101146547Y-138215833D01*
X101098928Y-138168214D01*
X101003690Y-138120595D01*
X100765595Y-138120595D01*
X100670357Y-138168214D01*
X100622738Y-138215833D01*
X100575119Y-138311071D01*
X100575119Y-138596785D01*
X100622738Y-138692023D01*
X100670357Y-138739642D01*
X92082857Y-141802380D02*
X92416190Y-141326190D01*
X92654285Y-141802380D02*
X92654285Y-140802380D01*
X92273333Y-140802380D01*
X92178095Y-140850000D01*
X92130476Y-140897619D01*
X92082857Y-140992857D01*
X92082857Y-141135714D01*
X92130476Y-141230952D01*
X92178095Y-141278571D01*
X92273333Y-141326190D01*
X92654285Y-141326190D01*
X91130476Y-141802380D02*
X91701904Y-141802380D01*
X91416190Y-141802380D02*
X91416190Y-140802380D01*
X91511428Y-140945238D01*
X91606666Y-141040476D01*
X91701904Y-141088095D01*
X90749523Y-140897619D02*
X90701904Y-140850000D01*
X90606666Y-140802380D01*
X90368571Y-140802380D01*
X90273333Y-140850000D01*
X90225714Y-140897619D01*
X90178095Y-140992857D01*
X90178095Y-141088095D01*
X90225714Y-141230952D01*
X90797142Y-141802380D01*
X90178095Y-141802380D01*
X92082857Y-137992380D02*
X92416190Y-137516190D01*
X92654285Y-137992380D02*
X92654285Y-136992380D01*
X92273333Y-136992380D01*
X92178095Y-137040000D01*
X92130476Y-137087619D01*
X92082857Y-137182857D01*
X92082857Y-137325714D01*
X92130476Y-137420952D01*
X92178095Y-137468571D01*
X92273333Y-137516190D01*
X92654285Y-137516190D01*
X91130476Y-137992380D02*
X91701904Y-137992380D01*
X91416190Y-137992380D02*
X91416190Y-136992380D01*
X91511428Y-137135238D01*
X91606666Y-137230476D01*
X91701904Y-137278095D01*
X90178095Y-137992380D02*
X90749523Y-137992380D01*
X90463809Y-137992380D02*
X90463809Y-136992380D01*
X90559047Y-137135238D01*
X90654285Y-137230476D01*
X90749523Y-137278095D01*
X144089285Y-134958380D02*
X144089285Y-133958380D01*
X143517857Y-134958380D02*
X143946428Y-134386952D01*
X143517857Y-133958380D02*
X144089285Y-134529809D01*
X143184523Y-133958380D02*
X142565476Y-133958380D01*
X142898809Y-134339333D01*
X142755952Y-134339333D01*
X142660714Y-134386952D01*
X142613095Y-134434571D01*
X142565476Y-134529809D01*
X142565476Y-134767904D01*
X142613095Y-134863142D01*
X142660714Y-134910761D01*
X142755952Y-134958380D01*
X143041666Y-134958380D01*
X143136904Y-134910761D01*
X143184523Y-134863142D01*
X141708333Y-134291714D02*
X141708333Y-134958380D01*
X141946428Y-133910761D02*
X142184523Y-134625047D01*
X141565476Y-134625047D01*
X125039285Y-134958380D02*
X125039285Y-133958380D01*
X124467857Y-134958380D02*
X124896428Y-134386952D01*
X124467857Y-133958380D02*
X125039285Y-134529809D01*
X124134523Y-133958380D02*
X123515476Y-133958380D01*
X123848809Y-134339333D01*
X123705952Y-134339333D01*
X123610714Y-134386952D01*
X123563095Y-134434571D01*
X123515476Y-134529809D01*
X123515476Y-134767904D01*
X123563095Y-134863142D01*
X123610714Y-134910761D01*
X123705952Y-134958380D01*
X123991666Y-134958380D01*
X124086904Y-134910761D01*
X124134523Y-134863142D01*
X123182142Y-133958380D02*
X122563095Y-133958380D01*
X122896428Y-134339333D01*
X122753571Y-134339333D01*
X122658333Y-134386952D01*
X122610714Y-134434571D01*
X122563095Y-134529809D01*
X122563095Y-134767904D01*
X122610714Y-134863142D01*
X122658333Y-134910761D01*
X122753571Y-134958380D01*
X123039285Y-134958380D01*
X123134523Y-134910761D01*
X123182142Y-134863142D01*
X105989285Y-134958380D02*
X105989285Y-133958380D01*
X105417857Y-134958380D02*
X105846428Y-134386952D01*
X105417857Y-133958380D02*
X105989285Y-134529809D01*
X105084523Y-133958380D02*
X104465476Y-133958380D01*
X104798809Y-134339333D01*
X104655952Y-134339333D01*
X104560714Y-134386952D01*
X104513095Y-134434571D01*
X104465476Y-134529809D01*
X104465476Y-134767904D01*
X104513095Y-134863142D01*
X104560714Y-134910761D01*
X104655952Y-134958380D01*
X104941666Y-134958380D01*
X105036904Y-134910761D01*
X105084523Y-134863142D01*
X104084523Y-134053619D02*
X104036904Y-134006000D01*
X103941666Y-133958380D01*
X103703571Y-133958380D01*
X103608333Y-134006000D01*
X103560714Y-134053619D01*
X103513095Y-134148857D01*
X103513095Y-134244095D01*
X103560714Y-134386952D01*
X104132142Y-134958380D01*
X103513095Y-134958380D01*
X86939285Y-134958380D02*
X86939285Y-133958380D01*
X86367857Y-134958380D02*
X86796428Y-134386952D01*
X86367857Y-133958380D02*
X86939285Y-134529809D01*
X86034523Y-133958380D02*
X85415476Y-133958380D01*
X85748809Y-134339333D01*
X85605952Y-134339333D01*
X85510714Y-134386952D01*
X85463095Y-134434571D01*
X85415476Y-134529809D01*
X85415476Y-134767904D01*
X85463095Y-134863142D01*
X85510714Y-134910761D01*
X85605952Y-134958380D01*
X85891666Y-134958380D01*
X85986904Y-134910761D01*
X86034523Y-134863142D01*
X84463095Y-134958380D02*
X85034523Y-134958380D01*
X84748809Y-134958380D02*
X84748809Y-133958380D01*
X84844047Y-134101238D01*
X84939285Y-134196476D01*
X85034523Y-134244095D01*
X144089285Y-99308380D02*
X144089285Y-98308380D01*
X143517857Y-99308380D02*
X143946428Y-98736952D01*
X143517857Y-98308380D02*
X144089285Y-98879809D01*
X143136904Y-98403619D02*
X143089285Y-98356000D01*
X142994047Y-98308380D01*
X142755952Y-98308380D01*
X142660714Y-98356000D01*
X142613095Y-98403619D01*
X142565476Y-98498857D01*
X142565476Y-98594095D01*
X142613095Y-98736952D01*
X143184523Y-99308380D01*
X142565476Y-99308380D01*
X141708333Y-98641714D02*
X141708333Y-99308380D01*
X141946428Y-98260761D02*
X142184523Y-98975047D01*
X141565476Y-98975047D01*
X125039285Y-99308380D02*
X125039285Y-98308380D01*
X124467857Y-99308380D02*
X124896428Y-98736952D01*
X124467857Y-98308380D02*
X125039285Y-98879809D01*
X124086904Y-98403619D02*
X124039285Y-98356000D01*
X123944047Y-98308380D01*
X123705952Y-98308380D01*
X123610714Y-98356000D01*
X123563095Y-98403619D01*
X123515476Y-98498857D01*
X123515476Y-98594095D01*
X123563095Y-98736952D01*
X124134523Y-99308380D01*
X123515476Y-99308380D01*
X123182142Y-98308380D02*
X122563095Y-98308380D01*
X122896428Y-98689333D01*
X122753571Y-98689333D01*
X122658333Y-98736952D01*
X122610714Y-98784571D01*
X122563095Y-98879809D01*
X122563095Y-99117904D01*
X122610714Y-99213142D01*
X122658333Y-99260761D01*
X122753571Y-99308380D01*
X123039285Y-99308380D01*
X123134523Y-99260761D01*
X123182142Y-99213142D01*
X105989285Y-99308380D02*
X105989285Y-98308380D01*
X105417857Y-99308380D02*
X105846428Y-98736952D01*
X105417857Y-98308380D02*
X105989285Y-98879809D01*
X105036904Y-98403619D02*
X104989285Y-98356000D01*
X104894047Y-98308380D01*
X104655952Y-98308380D01*
X104560714Y-98356000D01*
X104513095Y-98403619D01*
X104465476Y-98498857D01*
X104465476Y-98594095D01*
X104513095Y-98736952D01*
X105084523Y-99308380D01*
X104465476Y-99308380D01*
X104084523Y-98403619D02*
X104036904Y-98356000D01*
X103941666Y-98308380D01*
X103703571Y-98308380D01*
X103608333Y-98356000D01*
X103560714Y-98403619D01*
X103513095Y-98498857D01*
X103513095Y-98594095D01*
X103560714Y-98736952D01*
X104132142Y-99308380D01*
X103513095Y-99308380D01*
X86939285Y-99308380D02*
X86939285Y-98308380D01*
X86367857Y-99308380D02*
X86796428Y-98736952D01*
X86367857Y-98308380D02*
X86939285Y-98879809D01*
X85986904Y-98403619D02*
X85939285Y-98356000D01*
X85844047Y-98308380D01*
X85605952Y-98308380D01*
X85510714Y-98356000D01*
X85463095Y-98403619D01*
X85415476Y-98498857D01*
X85415476Y-98594095D01*
X85463095Y-98736952D01*
X86034523Y-99308380D01*
X85415476Y-99308380D01*
X84463095Y-99308380D02*
X85034523Y-99308380D01*
X84748809Y-99308380D02*
X84748809Y-98308380D01*
X84844047Y-98451238D01*
X84939285Y-98546476D01*
X85034523Y-98594095D01*
X144089285Y-96858580D02*
X144089285Y-95858580D01*
X143517857Y-96858580D02*
X143946428Y-96287152D01*
X143517857Y-95858580D02*
X144089285Y-96430009D01*
X142565476Y-96858580D02*
X143136904Y-96858580D01*
X142851190Y-96858580D02*
X142851190Y-95858580D01*
X142946428Y-96001438D01*
X143041666Y-96096676D01*
X143136904Y-96144295D01*
X141708333Y-96191914D02*
X141708333Y-96858580D01*
X141946428Y-95810961D02*
X142184523Y-96525247D01*
X141565476Y-96525247D01*
X125039285Y-96858580D02*
X125039285Y-95858580D01*
X124467857Y-96858580D02*
X124896428Y-96287152D01*
X124467857Y-95858580D02*
X125039285Y-96430009D01*
X123515476Y-96858580D02*
X124086904Y-96858580D01*
X123801190Y-96858580D02*
X123801190Y-95858580D01*
X123896428Y-96001438D01*
X123991666Y-96096676D01*
X124086904Y-96144295D01*
X123182142Y-95858580D02*
X122563095Y-95858580D01*
X122896428Y-96239533D01*
X122753571Y-96239533D01*
X122658333Y-96287152D01*
X122610714Y-96334771D01*
X122563095Y-96430009D01*
X122563095Y-96668104D01*
X122610714Y-96763342D01*
X122658333Y-96810961D01*
X122753571Y-96858580D01*
X123039285Y-96858580D01*
X123134523Y-96810961D01*
X123182142Y-96763342D01*
X105989285Y-96858580D02*
X105989285Y-95858580D01*
X105417857Y-96858580D02*
X105846428Y-96287152D01*
X105417857Y-95858580D02*
X105989285Y-96430009D01*
X104465476Y-96858580D02*
X105036904Y-96858580D01*
X104751190Y-96858580D02*
X104751190Y-95858580D01*
X104846428Y-96001438D01*
X104941666Y-96096676D01*
X105036904Y-96144295D01*
X104084523Y-95953819D02*
X104036904Y-95906200D01*
X103941666Y-95858580D01*
X103703571Y-95858580D01*
X103608333Y-95906200D01*
X103560714Y-95953819D01*
X103513095Y-96049057D01*
X103513095Y-96144295D01*
X103560714Y-96287152D01*
X104132142Y-96858580D01*
X103513095Y-96858580D01*
X86939285Y-96858580D02*
X86939285Y-95858580D01*
X86367857Y-96858580D02*
X86796428Y-96287152D01*
X86367857Y-95858580D02*
X86939285Y-96430009D01*
X85415476Y-96858580D02*
X85986904Y-96858580D01*
X85701190Y-96858580D02*
X85701190Y-95858580D01*
X85796428Y-96001438D01*
X85891666Y-96096676D01*
X85986904Y-96144295D01*
X84463095Y-96858580D02*
X85034523Y-96858580D01*
X84748809Y-96858580D02*
X84748809Y-95858580D01*
X84844047Y-96001438D01*
X84939285Y-96096676D01*
X85034523Y-96144295D01*
X143613095Y-61208580D02*
X143613095Y-60208580D01*
X143041666Y-61208580D02*
X143470238Y-60637152D01*
X143041666Y-60208580D02*
X143613095Y-60780009D01*
X142184523Y-60541914D02*
X142184523Y-61208580D01*
X142422619Y-60160961D02*
X142660714Y-60875247D01*
X142041666Y-60875247D01*
X124563095Y-61208580D02*
X124563095Y-60208580D01*
X123991666Y-61208580D02*
X124420238Y-60637152D01*
X123991666Y-60208580D02*
X124563095Y-60780009D01*
X123658333Y-60208580D02*
X123039285Y-60208580D01*
X123372619Y-60589533D01*
X123229761Y-60589533D01*
X123134523Y-60637152D01*
X123086904Y-60684771D01*
X123039285Y-60780009D01*
X123039285Y-61018104D01*
X123086904Y-61113342D01*
X123134523Y-61160961D01*
X123229761Y-61208580D01*
X123515476Y-61208580D01*
X123610714Y-61160961D01*
X123658333Y-61113342D01*
X105513095Y-61208580D02*
X105513095Y-60208580D01*
X104941666Y-61208580D02*
X105370238Y-60637152D01*
X104941666Y-60208580D02*
X105513095Y-60780009D01*
X104560714Y-60303819D02*
X104513095Y-60256200D01*
X104417857Y-60208580D01*
X104179761Y-60208580D01*
X104084523Y-60256200D01*
X104036904Y-60303819D01*
X103989285Y-60399057D01*
X103989285Y-60494295D01*
X104036904Y-60637152D01*
X104608333Y-61208580D01*
X103989285Y-61208580D01*
X86463095Y-61208580D02*
X86463095Y-60208580D01*
X85891666Y-61208580D02*
X86320238Y-60637152D01*
X85891666Y-60208580D02*
X86463095Y-60780009D01*
X84939285Y-61208580D02*
X85510714Y-61208580D01*
X85225000Y-61208580D02*
X85225000Y-60208580D01*
X85320238Y-60351438D01*
X85415476Y-60446676D01*
X85510714Y-60494295D01*
M02*
