M48
; DRILL file {KiCad (5.1.2)-2} date 2020/1/1 19:17:49
; FORMAT={-:-/ absolute / inch / decimal}
; #@! TF.CreationDate,2020-01-01T19:17:49+08:00
; #@! TF.GenerationSoftware,Kicad,Pcbnew,(5.1.2)-2
; #@! TF.FileFunction,Plated,1,2,PTH
FMAT,2
INCH
T1C0.0157
T2C0.0236
T3C0.0394
T4C0.0512
%
G90
G05
T1
X3.3051Y-3.0576
X3.325Y-2.5262
X3.4141Y-3.9211
X3.4515Y-3.8413
X3.4531Y-3.9445
X3.4542Y-3.9931
X3.4587Y-3.143
X3.4701Y-2.4596
X3.4981Y-4.5842
X3.5132Y-5.3304
X3.5576Y-4.0695
X3.5808Y-3.7632
X3.6089Y-3.7352
X3.6568Y-5.2199
X3.7Y-2.6695
X3.7522Y-5.0801
X3.7529Y-2.8574
X3.7572Y-2.4801
X3.7763Y-3.8321
X3.843Y-5.2199
X3.8436Y-2.6199
X3.8589Y-3.843
X3.8984Y-3.9145
X3.9118Y-3.8719
X3.9577Y-3.6284
X4.0043Y-3.0899
X4.0287Y-3.9445
X4.0306Y-3.7555
X4.041Y-3.8784
X4.0578Y-3.7049
X4.0587Y-4.643
X4.125Y-3.1158
X4.2345Y-2.538
X4.2443Y-4.5842
X4.4423Y-5.153
X4.5039Y-3.6141
X4.6054Y-4.1109
X4.6097Y-4.345
X4.8923Y-4.5866
X4.8954Y-3.078
X5.1573Y-3.7199
X5.1575Y-5.2197
X5.25Y-3.5801
X5.25Y-5.0801
X5.3425Y-5.2199
X5.3434Y-3.7199
X5.3547Y-3.1253
X5.4809Y-4.6168
X5.645Y-4.5842
X5.6949Y-3.0501
T3
X3.15Y-5.35
X3.15Y-5.45
X3.15Y-5.55
X3.15Y-5.65
X5.55Y-2.5
X5.65Y-2.5
X5.75Y-2.5
T4
X3.622Y-3.1
X3.878Y-3.1
T2
G00X4.3299Y-2.3406
M15
G01X4.3299Y-2.3642
M16
G05
G00X4.3299Y-2.4953
M15
G01X4.3299Y-2.5386
M16
G05
G00X4.6701Y-2.3406
M15
G01X4.6701Y-2.3642
M16
G05
G00X4.6701Y-2.4953
M15
G01X4.6701Y-2.5386
M16
G05
T0
M30
