G04 #@! TF.GenerationSoftware,KiCad,Pcbnew,(5.1.2)-2*
G04 #@! TF.CreationDate,2020-01-01T19:17:51+08:00*
G04 #@! TF.ProjectId,redox-receiver,7265646f-782d-4726-9563-65697665722e,rev?*
G04 #@! TF.SameCoordinates,Original*
G04 #@! TF.FileFunction,Paste,Bot*
G04 #@! TF.FilePolarity,Positive*
%FSLAX46Y46*%
G04 Gerber Fmt 4.6, Leading zero omitted, Abs format (unit mm)*
G04 Created by KiCad (PCBNEW (5.1.2)-2) date 2020-01-01 19:17:51*
%MOMM*%
%LPD*%
G04 APERTURE LIST*
%ADD10R,1.800000X2.100000*%
%ADD11C,0.100000*%
%ADD12C,1.425000*%
%ADD13C,1.150000*%
%ADD14R,0.550000X1.500000*%
%ADD15R,1.500000X0.550000*%
%ADD16R,1.000000X1.400000*%
%ADD17R,1.200000X1.400000*%
%ADD18R,0.698500X1.198880*%
%ADD19R,1.198880X0.698500*%
%ADD20R,0.600000X2.450000*%
%ADD21R,0.300000X2.450000*%
%ADD22R,2.200000X3.800000*%
%ADD23R,2.200000X1.500000*%
%ADD24R,2.550000X2.500000*%
%ADD25R,0.950000X1.300000*%
%ADD26R,1.300000X0.950000*%
G04 APERTURE END LIST*
D10*
X108070000Y-96340000D03*
X108070000Y-99240000D03*
X110370000Y-99240000D03*
X110370000Y-96340000D03*
D11*
G36*
X106059504Y-63006204D02*
G01*
X106083773Y-63009804D01*
X106107571Y-63015765D01*
X106130671Y-63024030D01*
X106152849Y-63034520D01*
X106173893Y-63047133D01*
X106193598Y-63061747D01*
X106211777Y-63078223D01*
X106228253Y-63096402D01*
X106242867Y-63116107D01*
X106255480Y-63137151D01*
X106265970Y-63159329D01*
X106274235Y-63182429D01*
X106280196Y-63206227D01*
X106283796Y-63230496D01*
X106285000Y-63255000D01*
X106285000Y-64180000D01*
X106283796Y-64204504D01*
X106280196Y-64228773D01*
X106274235Y-64252571D01*
X106265970Y-64275671D01*
X106255480Y-64297849D01*
X106242867Y-64318893D01*
X106228253Y-64338598D01*
X106211777Y-64356777D01*
X106193598Y-64373253D01*
X106173893Y-64387867D01*
X106152849Y-64400480D01*
X106130671Y-64410970D01*
X106107571Y-64419235D01*
X106083773Y-64425196D01*
X106059504Y-64428796D01*
X106035000Y-64430000D01*
X104785000Y-64430000D01*
X104760496Y-64428796D01*
X104736227Y-64425196D01*
X104712429Y-64419235D01*
X104689329Y-64410970D01*
X104667151Y-64400480D01*
X104646107Y-64387867D01*
X104626402Y-64373253D01*
X104608223Y-64356777D01*
X104591747Y-64338598D01*
X104577133Y-64318893D01*
X104564520Y-64297849D01*
X104554030Y-64275671D01*
X104545765Y-64252571D01*
X104539804Y-64228773D01*
X104536204Y-64204504D01*
X104535000Y-64180000D01*
X104535000Y-63255000D01*
X104536204Y-63230496D01*
X104539804Y-63206227D01*
X104545765Y-63182429D01*
X104554030Y-63159329D01*
X104564520Y-63137151D01*
X104577133Y-63116107D01*
X104591747Y-63096402D01*
X104608223Y-63078223D01*
X104626402Y-63061747D01*
X104646107Y-63047133D01*
X104667151Y-63034520D01*
X104689329Y-63024030D01*
X104712429Y-63015765D01*
X104736227Y-63009804D01*
X104760496Y-63006204D01*
X104785000Y-63005000D01*
X106035000Y-63005000D01*
X106059504Y-63006204D01*
X106059504Y-63006204D01*
G37*
D12*
X105410000Y-63717500D03*
D11*
G36*
X106059504Y-60031204D02*
G01*
X106083773Y-60034804D01*
X106107571Y-60040765D01*
X106130671Y-60049030D01*
X106152849Y-60059520D01*
X106173893Y-60072133D01*
X106193598Y-60086747D01*
X106211777Y-60103223D01*
X106228253Y-60121402D01*
X106242867Y-60141107D01*
X106255480Y-60162151D01*
X106265970Y-60184329D01*
X106274235Y-60207429D01*
X106280196Y-60231227D01*
X106283796Y-60255496D01*
X106285000Y-60280000D01*
X106285000Y-61205000D01*
X106283796Y-61229504D01*
X106280196Y-61253773D01*
X106274235Y-61277571D01*
X106265970Y-61300671D01*
X106255480Y-61322849D01*
X106242867Y-61343893D01*
X106228253Y-61363598D01*
X106211777Y-61381777D01*
X106193598Y-61398253D01*
X106173893Y-61412867D01*
X106152849Y-61425480D01*
X106130671Y-61435970D01*
X106107571Y-61444235D01*
X106083773Y-61450196D01*
X106059504Y-61453796D01*
X106035000Y-61455000D01*
X104785000Y-61455000D01*
X104760496Y-61453796D01*
X104736227Y-61450196D01*
X104712429Y-61444235D01*
X104689329Y-61435970D01*
X104667151Y-61425480D01*
X104646107Y-61412867D01*
X104626402Y-61398253D01*
X104608223Y-61381777D01*
X104591747Y-61363598D01*
X104577133Y-61343893D01*
X104564520Y-61322849D01*
X104554030Y-61300671D01*
X104545765Y-61277571D01*
X104539804Y-61253773D01*
X104536204Y-61229504D01*
X104535000Y-61205000D01*
X104535000Y-60280000D01*
X104536204Y-60255496D01*
X104539804Y-60231227D01*
X104545765Y-60207429D01*
X104554030Y-60184329D01*
X104564520Y-60162151D01*
X104577133Y-60141107D01*
X104591747Y-60121402D01*
X104608223Y-60103223D01*
X104626402Y-60086747D01*
X104646107Y-60072133D01*
X104667151Y-60059520D01*
X104689329Y-60049030D01*
X104712429Y-60040765D01*
X104736227Y-60034804D01*
X104760496Y-60031204D01*
X104785000Y-60030000D01*
X106035000Y-60030000D01*
X106059504Y-60031204D01*
X106059504Y-60031204D01*
G37*
D12*
X105410000Y-60742500D03*
D11*
G36*
X82654505Y-97091204D02*
G01*
X82678773Y-97094804D01*
X82702572Y-97100765D01*
X82725671Y-97109030D01*
X82747850Y-97119520D01*
X82768893Y-97132132D01*
X82788599Y-97146747D01*
X82806777Y-97163223D01*
X82823253Y-97181401D01*
X82837868Y-97201107D01*
X82850480Y-97222150D01*
X82860970Y-97244329D01*
X82869235Y-97267428D01*
X82875196Y-97291227D01*
X82878796Y-97315495D01*
X82880000Y-97339999D01*
X82880000Y-98240001D01*
X82878796Y-98264505D01*
X82875196Y-98288773D01*
X82869235Y-98312572D01*
X82860970Y-98335671D01*
X82850480Y-98357850D01*
X82837868Y-98378893D01*
X82823253Y-98398599D01*
X82806777Y-98416777D01*
X82788599Y-98433253D01*
X82768893Y-98447868D01*
X82747850Y-98460480D01*
X82725671Y-98470970D01*
X82702572Y-98479235D01*
X82678773Y-98485196D01*
X82654505Y-98488796D01*
X82630001Y-98490000D01*
X81979999Y-98490000D01*
X81955495Y-98488796D01*
X81931227Y-98485196D01*
X81907428Y-98479235D01*
X81884329Y-98470970D01*
X81862150Y-98460480D01*
X81841107Y-98447868D01*
X81821401Y-98433253D01*
X81803223Y-98416777D01*
X81786747Y-98398599D01*
X81772132Y-98378893D01*
X81759520Y-98357850D01*
X81749030Y-98335671D01*
X81740765Y-98312572D01*
X81734804Y-98288773D01*
X81731204Y-98264505D01*
X81730000Y-98240001D01*
X81730000Y-97339999D01*
X81731204Y-97315495D01*
X81734804Y-97291227D01*
X81740765Y-97267428D01*
X81749030Y-97244329D01*
X81759520Y-97222150D01*
X81772132Y-97201107D01*
X81786747Y-97181401D01*
X81803223Y-97163223D01*
X81821401Y-97146747D01*
X81841107Y-97132132D01*
X81862150Y-97119520D01*
X81884329Y-97109030D01*
X81907428Y-97100765D01*
X81931227Y-97094804D01*
X81955495Y-97091204D01*
X81979999Y-97090000D01*
X82630001Y-97090000D01*
X82654505Y-97091204D01*
X82654505Y-97091204D01*
G37*
D13*
X82305000Y-97790000D03*
D11*
G36*
X80604505Y-97091204D02*
G01*
X80628773Y-97094804D01*
X80652572Y-97100765D01*
X80675671Y-97109030D01*
X80697850Y-97119520D01*
X80718893Y-97132132D01*
X80738599Y-97146747D01*
X80756777Y-97163223D01*
X80773253Y-97181401D01*
X80787868Y-97201107D01*
X80800480Y-97222150D01*
X80810970Y-97244329D01*
X80819235Y-97267428D01*
X80825196Y-97291227D01*
X80828796Y-97315495D01*
X80830000Y-97339999D01*
X80830000Y-98240001D01*
X80828796Y-98264505D01*
X80825196Y-98288773D01*
X80819235Y-98312572D01*
X80810970Y-98335671D01*
X80800480Y-98357850D01*
X80787868Y-98378893D01*
X80773253Y-98398599D01*
X80756777Y-98416777D01*
X80738599Y-98433253D01*
X80718893Y-98447868D01*
X80697850Y-98460480D01*
X80675671Y-98470970D01*
X80652572Y-98479235D01*
X80628773Y-98485196D01*
X80604505Y-98488796D01*
X80580001Y-98490000D01*
X79929999Y-98490000D01*
X79905495Y-98488796D01*
X79881227Y-98485196D01*
X79857428Y-98479235D01*
X79834329Y-98470970D01*
X79812150Y-98460480D01*
X79791107Y-98447868D01*
X79771401Y-98433253D01*
X79753223Y-98416777D01*
X79736747Y-98398599D01*
X79722132Y-98378893D01*
X79709520Y-98357850D01*
X79699030Y-98335671D01*
X79690765Y-98312572D01*
X79684804Y-98288773D01*
X79681204Y-98264505D01*
X79680000Y-98240001D01*
X79680000Y-97339999D01*
X79681204Y-97315495D01*
X79684804Y-97291227D01*
X79690765Y-97267428D01*
X79699030Y-97244329D01*
X79709520Y-97222150D01*
X79722132Y-97201107D01*
X79736747Y-97181401D01*
X79753223Y-97163223D01*
X79771401Y-97146747D01*
X79791107Y-97132132D01*
X79812150Y-97119520D01*
X79834329Y-97109030D01*
X79857428Y-97100765D01*
X79881227Y-97094804D01*
X79905495Y-97091204D01*
X79929999Y-97090000D01*
X80580001Y-97090000D01*
X80604505Y-97091204D01*
X80604505Y-97091204D01*
G37*
D13*
X80255000Y-97790000D03*
D11*
G36*
X82654505Y-93281204D02*
G01*
X82678773Y-93284804D01*
X82702572Y-93290765D01*
X82725671Y-93299030D01*
X82747850Y-93309520D01*
X82768893Y-93322132D01*
X82788599Y-93336747D01*
X82806777Y-93353223D01*
X82823253Y-93371401D01*
X82837868Y-93391107D01*
X82850480Y-93412150D01*
X82860970Y-93434329D01*
X82869235Y-93457428D01*
X82875196Y-93481227D01*
X82878796Y-93505495D01*
X82880000Y-93529999D01*
X82880000Y-94430001D01*
X82878796Y-94454505D01*
X82875196Y-94478773D01*
X82869235Y-94502572D01*
X82860970Y-94525671D01*
X82850480Y-94547850D01*
X82837868Y-94568893D01*
X82823253Y-94588599D01*
X82806777Y-94606777D01*
X82788599Y-94623253D01*
X82768893Y-94637868D01*
X82747850Y-94650480D01*
X82725671Y-94660970D01*
X82702572Y-94669235D01*
X82678773Y-94675196D01*
X82654505Y-94678796D01*
X82630001Y-94680000D01*
X81979999Y-94680000D01*
X81955495Y-94678796D01*
X81931227Y-94675196D01*
X81907428Y-94669235D01*
X81884329Y-94660970D01*
X81862150Y-94650480D01*
X81841107Y-94637868D01*
X81821401Y-94623253D01*
X81803223Y-94606777D01*
X81786747Y-94588599D01*
X81772132Y-94568893D01*
X81759520Y-94547850D01*
X81749030Y-94525671D01*
X81740765Y-94502572D01*
X81734804Y-94478773D01*
X81731204Y-94454505D01*
X81730000Y-94430001D01*
X81730000Y-93529999D01*
X81731204Y-93505495D01*
X81734804Y-93481227D01*
X81740765Y-93457428D01*
X81749030Y-93434329D01*
X81759520Y-93412150D01*
X81772132Y-93391107D01*
X81786747Y-93371401D01*
X81803223Y-93353223D01*
X81821401Y-93336747D01*
X81841107Y-93322132D01*
X81862150Y-93309520D01*
X81884329Y-93299030D01*
X81907428Y-93290765D01*
X81931227Y-93284804D01*
X81955495Y-93281204D01*
X81979999Y-93280000D01*
X82630001Y-93280000D01*
X82654505Y-93281204D01*
X82654505Y-93281204D01*
G37*
D13*
X82305000Y-93980000D03*
D11*
G36*
X80604505Y-93281204D02*
G01*
X80628773Y-93284804D01*
X80652572Y-93290765D01*
X80675671Y-93299030D01*
X80697850Y-93309520D01*
X80718893Y-93322132D01*
X80738599Y-93336747D01*
X80756777Y-93353223D01*
X80773253Y-93371401D01*
X80787868Y-93391107D01*
X80800480Y-93412150D01*
X80810970Y-93434329D01*
X80819235Y-93457428D01*
X80825196Y-93481227D01*
X80828796Y-93505495D01*
X80830000Y-93529999D01*
X80830000Y-94430001D01*
X80828796Y-94454505D01*
X80825196Y-94478773D01*
X80819235Y-94502572D01*
X80810970Y-94525671D01*
X80800480Y-94547850D01*
X80787868Y-94568893D01*
X80773253Y-94588599D01*
X80756777Y-94606777D01*
X80738599Y-94623253D01*
X80718893Y-94637868D01*
X80697850Y-94650480D01*
X80675671Y-94660970D01*
X80652572Y-94669235D01*
X80628773Y-94675196D01*
X80604505Y-94678796D01*
X80580001Y-94680000D01*
X79929999Y-94680000D01*
X79905495Y-94678796D01*
X79881227Y-94675196D01*
X79857428Y-94669235D01*
X79834329Y-94660970D01*
X79812150Y-94650480D01*
X79791107Y-94637868D01*
X79771401Y-94623253D01*
X79753223Y-94606777D01*
X79736747Y-94588599D01*
X79722132Y-94568893D01*
X79709520Y-94547850D01*
X79699030Y-94525671D01*
X79690765Y-94502572D01*
X79684804Y-94478773D01*
X79681204Y-94454505D01*
X79680000Y-94430001D01*
X79680000Y-93529999D01*
X79681204Y-93505495D01*
X79684804Y-93481227D01*
X79690765Y-93457428D01*
X79699030Y-93434329D01*
X79709520Y-93412150D01*
X79722132Y-93391107D01*
X79736747Y-93371401D01*
X79753223Y-93353223D01*
X79771401Y-93336747D01*
X79791107Y-93322132D01*
X79812150Y-93309520D01*
X79834329Y-93299030D01*
X79857428Y-93290765D01*
X79881227Y-93284804D01*
X79905495Y-93281204D01*
X79929999Y-93280000D01*
X80580001Y-93280000D01*
X80604505Y-93281204D01*
X80604505Y-93281204D01*
G37*
D13*
X80255000Y-93980000D03*
D11*
G36*
X90644505Y-63951204D02*
G01*
X90668773Y-63954804D01*
X90692572Y-63960765D01*
X90715671Y-63969030D01*
X90737850Y-63979520D01*
X90758893Y-63992132D01*
X90778599Y-64006747D01*
X90796777Y-64023223D01*
X90813253Y-64041401D01*
X90827868Y-64061107D01*
X90840480Y-64082150D01*
X90850970Y-64104329D01*
X90859235Y-64127428D01*
X90865196Y-64151227D01*
X90868796Y-64175495D01*
X90870000Y-64199999D01*
X90870000Y-64850001D01*
X90868796Y-64874505D01*
X90865196Y-64898773D01*
X90859235Y-64922572D01*
X90850970Y-64945671D01*
X90840480Y-64967850D01*
X90827868Y-64988893D01*
X90813253Y-65008599D01*
X90796777Y-65026777D01*
X90778599Y-65043253D01*
X90758893Y-65057868D01*
X90737850Y-65070480D01*
X90715671Y-65080970D01*
X90692572Y-65089235D01*
X90668773Y-65095196D01*
X90644505Y-65098796D01*
X90620001Y-65100000D01*
X89719999Y-65100000D01*
X89695495Y-65098796D01*
X89671227Y-65095196D01*
X89647428Y-65089235D01*
X89624329Y-65080970D01*
X89602150Y-65070480D01*
X89581107Y-65057868D01*
X89561401Y-65043253D01*
X89543223Y-65026777D01*
X89526747Y-65008599D01*
X89512132Y-64988893D01*
X89499520Y-64967850D01*
X89489030Y-64945671D01*
X89480765Y-64922572D01*
X89474804Y-64898773D01*
X89471204Y-64874505D01*
X89470000Y-64850001D01*
X89470000Y-64199999D01*
X89471204Y-64175495D01*
X89474804Y-64151227D01*
X89480765Y-64127428D01*
X89489030Y-64104329D01*
X89499520Y-64082150D01*
X89512132Y-64061107D01*
X89526747Y-64041401D01*
X89543223Y-64023223D01*
X89561401Y-64006747D01*
X89581107Y-63992132D01*
X89602150Y-63979520D01*
X89624329Y-63969030D01*
X89647428Y-63960765D01*
X89671227Y-63954804D01*
X89695495Y-63951204D01*
X89719999Y-63950000D01*
X90620001Y-63950000D01*
X90644505Y-63951204D01*
X90644505Y-63951204D01*
G37*
D13*
X90170000Y-64525000D03*
D11*
G36*
X90644505Y-61901204D02*
G01*
X90668773Y-61904804D01*
X90692572Y-61910765D01*
X90715671Y-61919030D01*
X90737850Y-61929520D01*
X90758893Y-61942132D01*
X90778599Y-61956747D01*
X90796777Y-61973223D01*
X90813253Y-61991401D01*
X90827868Y-62011107D01*
X90840480Y-62032150D01*
X90850970Y-62054329D01*
X90859235Y-62077428D01*
X90865196Y-62101227D01*
X90868796Y-62125495D01*
X90870000Y-62149999D01*
X90870000Y-62800001D01*
X90868796Y-62824505D01*
X90865196Y-62848773D01*
X90859235Y-62872572D01*
X90850970Y-62895671D01*
X90840480Y-62917850D01*
X90827868Y-62938893D01*
X90813253Y-62958599D01*
X90796777Y-62976777D01*
X90778599Y-62993253D01*
X90758893Y-63007868D01*
X90737850Y-63020480D01*
X90715671Y-63030970D01*
X90692572Y-63039235D01*
X90668773Y-63045196D01*
X90644505Y-63048796D01*
X90620001Y-63050000D01*
X89719999Y-63050000D01*
X89695495Y-63048796D01*
X89671227Y-63045196D01*
X89647428Y-63039235D01*
X89624329Y-63030970D01*
X89602150Y-63020480D01*
X89581107Y-63007868D01*
X89561401Y-62993253D01*
X89543223Y-62976777D01*
X89526747Y-62958599D01*
X89512132Y-62938893D01*
X89499520Y-62917850D01*
X89489030Y-62895671D01*
X89480765Y-62872572D01*
X89474804Y-62848773D01*
X89471204Y-62824505D01*
X89470000Y-62800001D01*
X89470000Y-62149999D01*
X89471204Y-62125495D01*
X89474804Y-62101227D01*
X89480765Y-62077428D01*
X89489030Y-62054329D01*
X89499520Y-62032150D01*
X89512132Y-62011107D01*
X89526747Y-61991401D01*
X89543223Y-61973223D01*
X89561401Y-61956747D01*
X89581107Y-61942132D01*
X89602150Y-61929520D01*
X89624329Y-61919030D01*
X89647428Y-61910765D01*
X89671227Y-61904804D01*
X89695495Y-61901204D01*
X89719999Y-61900000D01*
X90620001Y-61900000D01*
X90644505Y-61901204D01*
X90644505Y-61901204D01*
G37*
D13*
X90170000Y-62475000D03*
D11*
G36*
X86834505Y-63951204D02*
G01*
X86858773Y-63954804D01*
X86882572Y-63960765D01*
X86905671Y-63969030D01*
X86927850Y-63979520D01*
X86948893Y-63992132D01*
X86968599Y-64006747D01*
X86986777Y-64023223D01*
X87003253Y-64041401D01*
X87017868Y-64061107D01*
X87030480Y-64082150D01*
X87040970Y-64104329D01*
X87049235Y-64127428D01*
X87055196Y-64151227D01*
X87058796Y-64175495D01*
X87060000Y-64199999D01*
X87060000Y-64850001D01*
X87058796Y-64874505D01*
X87055196Y-64898773D01*
X87049235Y-64922572D01*
X87040970Y-64945671D01*
X87030480Y-64967850D01*
X87017868Y-64988893D01*
X87003253Y-65008599D01*
X86986777Y-65026777D01*
X86968599Y-65043253D01*
X86948893Y-65057868D01*
X86927850Y-65070480D01*
X86905671Y-65080970D01*
X86882572Y-65089235D01*
X86858773Y-65095196D01*
X86834505Y-65098796D01*
X86810001Y-65100000D01*
X85909999Y-65100000D01*
X85885495Y-65098796D01*
X85861227Y-65095196D01*
X85837428Y-65089235D01*
X85814329Y-65080970D01*
X85792150Y-65070480D01*
X85771107Y-65057868D01*
X85751401Y-65043253D01*
X85733223Y-65026777D01*
X85716747Y-65008599D01*
X85702132Y-64988893D01*
X85689520Y-64967850D01*
X85679030Y-64945671D01*
X85670765Y-64922572D01*
X85664804Y-64898773D01*
X85661204Y-64874505D01*
X85660000Y-64850001D01*
X85660000Y-64199999D01*
X85661204Y-64175495D01*
X85664804Y-64151227D01*
X85670765Y-64127428D01*
X85679030Y-64104329D01*
X85689520Y-64082150D01*
X85702132Y-64061107D01*
X85716747Y-64041401D01*
X85733223Y-64023223D01*
X85751401Y-64006747D01*
X85771107Y-63992132D01*
X85792150Y-63979520D01*
X85814329Y-63969030D01*
X85837428Y-63960765D01*
X85861227Y-63954804D01*
X85885495Y-63951204D01*
X85909999Y-63950000D01*
X86810001Y-63950000D01*
X86834505Y-63951204D01*
X86834505Y-63951204D01*
G37*
D13*
X86360000Y-64525000D03*
D11*
G36*
X86834505Y-61901204D02*
G01*
X86858773Y-61904804D01*
X86882572Y-61910765D01*
X86905671Y-61919030D01*
X86927850Y-61929520D01*
X86948893Y-61942132D01*
X86968599Y-61956747D01*
X86986777Y-61973223D01*
X87003253Y-61991401D01*
X87017868Y-62011107D01*
X87030480Y-62032150D01*
X87040970Y-62054329D01*
X87049235Y-62077428D01*
X87055196Y-62101227D01*
X87058796Y-62125495D01*
X87060000Y-62149999D01*
X87060000Y-62800001D01*
X87058796Y-62824505D01*
X87055196Y-62848773D01*
X87049235Y-62872572D01*
X87040970Y-62895671D01*
X87030480Y-62917850D01*
X87017868Y-62938893D01*
X87003253Y-62958599D01*
X86986777Y-62976777D01*
X86968599Y-62993253D01*
X86948893Y-63007868D01*
X86927850Y-63020480D01*
X86905671Y-63030970D01*
X86882572Y-63039235D01*
X86858773Y-63045196D01*
X86834505Y-63048796D01*
X86810001Y-63050000D01*
X85909999Y-63050000D01*
X85885495Y-63048796D01*
X85861227Y-63045196D01*
X85837428Y-63039235D01*
X85814329Y-63030970D01*
X85792150Y-63020480D01*
X85771107Y-63007868D01*
X85751401Y-62993253D01*
X85733223Y-62976777D01*
X85716747Y-62958599D01*
X85702132Y-62938893D01*
X85689520Y-62917850D01*
X85679030Y-62895671D01*
X85670765Y-62872572D01*
X85664804Y-62848773D01*
X85661204Y-62824505D01*
X85660000Y-62800001D01*
X85660000Y-62149999D01*
X85661204Y-62125495D01*
X85664804Y-62101227D01*
X85670765Y-62077428D01*
X85679030Y-62054329D01*
X85689520Y-62032150D01*
X85702132Y-62011107D01*
X85716747Y-61991401D01*
X85733223Y-61973223D01*
X85751401Y-61956747D01*
X85771107Y-61942132D01*
X85792150Y-61929520D01*
X85814329Y-61919030D01*
X85837428Y-61910765D01*
X85861227Y-61904804D01*
X85885495Y-61901204D01*
X85909999Y-61900000D01*
X86810001Y-61900000D01*
X86834505Y-61901204D01*
X86834505Y-61901204D01*
G37*
D13*
X86360000Y-62475000D03*
D11*
G36*
X83024505Y-63951204D02*
G01*
X83048773Y-63954804D01*
X83072572Y-63960765D01*
X83095671Y-63969030D01*
X83117850Y-63979520D01*
X83138893Y-63992132D01*
X83158599Y-64006747D01*
X83176777Y-64023223D01*
X83193253Y-64041401D01*
X83207868Y-64061107D01*
X83220480Y-64082150D01*
X83230970Y-64104329D01*
X83239235Y-64127428D01*
X83245196Y-64151227D01*
X83248796Y-64175495D01*
X83250000Y-64199999D01*
X83250000Y-64850001D01*
X83248796Y-64874505D01*
X83245196Y-64898773D01*
X83239235Y-64922572D01*
X83230970Y-64945671D01*
X83220480Y-64967850D01*
X83207868Y-64988893D01*
X83193253Y-65008599D01*
X83176777Y-65026777D01*
X83158599Y-65043253D01*
X83138893Y-65057868D01*
X83117850Y-65070480D01*
X83095671Y-65080970D01*
X83072572Y-65089235D01*
X83048773Y-65095196D01*
X83024505Y-65098796D01*
X83000001Y-65100000D01*
X82099999Y-65100000D01*
X82075495Y-65098796D01*
X82051227Y-65095196D01*
X82027428Y-65089235D01*
X82004329Y-65080970D01*
X81982150Y-65070480D01*
X81961107Y-65057868D01*
X81941401Y-65043253D01*
X81923223Y-65026777D01*
X81906747Y-65008599D01*
X81892132Y-64988893D01*
X81879520Y-64967850D01*
X81869030Y-64945671D01*
X81860765Y-64922572D01*
X81854804Y-64898773D01*
X81851204Y-64874505D01*
X81850000Y-64850001D01*
X81850000Y-64199999D01*
X81851204Y-64175495D01*
X81854804Y-64151227D01*
X81860765Y-64127428D01*
X81869030Y-64104329D01*
X81879520Y-64082150D01*
X81892132Y-64061107D01*
X81906747Y-64041401D01*
X81923223Y-64023223D01*
X81941401Y-64006747D01*
X81961107Y-63992132D01*
X81982150Y-63979520D01*
X82004329Y-63969030D01*
X82027428Y-63960765D01*
X82051227Y-63954804D01*
X82075495Y-63951204D01*
X82099999Y-63950000D01*
X83000001Y-63950000D01*
X83024505Y-63951204D01*
X83024505Y-63951204D01*
G37*
D13*
X82550000Y-64525000D03*
D11*
G36*
X83024505Y-61901204D02*
G01*
X83048773Y-61904804D01*
X83072572Y-61910765D01*
X83095671Y-61919030D01*
X83117850Y-61929520D01*
X83138893Y-61942132D01*
X83158599Y-61956747D01*
X83176777Y-61973223D01*
X83193253Y-61991401D01*
X83207868Y-62011107D01*
X83220480Y-62032150D01*
X83230970Y-62054329D01*
X83239235Y-62077428D01*
X83245196Y-62101227D01*
X83248796Y-62125495D01*
X83250000Y-62149999D01*
X83250000Y-62800001D01*
X83248796Y-62824505D01*
X83245196Y-62848773D01*
X83239235Y-62872572D01*
X83230970Y-62895671D01*
X83220480Y-62917850D01*
X83207868Y-62938893D01*
X83193253Y-62958599D01*
X83176777Y-62976777D01*
X83158599Y-62993253D01*
X83138893Y-63007868D01*
X83117850Y-63020480D01*
X83095671Y-63030970D01*
X83072572Y-63039235D01*
X83048773Y-63045196D01*
X83024505Y-63048796D01*
X83000001Y-63050000D01*
X82099999Y-63050000D01*
X82075495Y-63048796D01*
X82051227Y-63045196D01*
X82027428Y-63039235D01*
X82004329Y-63030970D01*
X81982150Y-63020480D01*
X81961107Y-63007868D01*
X81941401Y-62993253D01*
X81923223Y-62976777D01*
X81906747Y-62958599D01*
X81892132Y-62938893D01*
X81879520Y-62917850D01*
X81869030Y-62895671D01*
X81860765Y-62872572D01*
X81854804Y-62848773D01*
X81851204Y-62824505D01*
X81850000Y-62800001D01*
X81850000Y-62149999D01*
X81851204Y-62125495D01*
X81854804Y-62101227D01*
X81860765Y-62077428D01*
X81869030Y-62054329D01*
X81879520Y-62032150D01*
X81892132Y-62011107D01*
X81906747Y-61991401D01*
X81923223Y-61973223D01*
X81941401Y-61956747D01*
X81961107Y-61942132D01*
X81982150Y-61929520D01*
X82004329Y-61919030D01*
X82027428Y-61910765D01*
X82051227Y-61904804D01*
X82075495Y-61901204D01*
X82099999Y-61900000D01*
X83000001Y-61900000D01*
X83024505Y-61901204D01*
X83024505Y-61901204D01*
G37*
D13*
X82550000Y-62475000D03*
D11*
G36*
X79214505Y-63951204D02*
G01*
X79238773Y-63954804D01*
X79262572Y-63960765D01*
X79285671Y-63969030D01*
X79307850Y-63979520D01*
X79328893Y-63992132D01*
X79348599Y-64006747D01*
X79366777Y-64023223D01*
X79383253Y-64041401D01*
X79397868Y-64061107D01*
X79410480Y-64082150D01*
X79420970Y-64104329D01*
X79429235Y-64127428D01*
X79435196Y-64151227D01*
X79438796Y-64175495D01*
X79440000Y-64199999D01*
X79440000Y-64850001D01*
X79438796Y-64874505D01*
X79435196Y-64898773D01*
X79429235Y-64922572D01*
X79420970Y-64945671D01*
X79410480Y-64967850D01*
X79397868Y-64988893D01*
X79383253Y-65008599D01*
X79366777Y-65026777D01*
X79348599Y-65043253D01*
X79328893Y-65057868D01*
X79307850Y-65070480D01*
X79285671Y-65080970D01*
X79262572Y-65089235D01*
X79238773Y-65095196D01*
X79214505Y-65098796D01*
X79190001Y-65100000D01*
X78289999Y-65100000D01*
X78265495Y-65098796D01*
X78241227Y-65095196D01*
X78217428Y-65089235D01*
X78194329Y-65080970D01*
X78172150Y-65070480D01*
X78151107Y-65057868D01*
X78131401Y-65043253D01*
X78113223Y-65026777D01*
X78096747Y-65008599D01*
X78082132Y-64988893D01*
X78069520Y-64967850D01*
X78059030Y-64945671D01*
X78050765Y-64922572D01*
X78044804Y-64898773D01*
X78041204Y-64874505D01*
X78040000Y-64850001D01*
X78040000Y-64199999D01*
X78041204Y-64175495D01*
X78044804Y-64151227D01*
X78050765Y-64127428D01*
X78059030Y-64104329D01*
X78069520Y-64082150D01*
X78082132Y-64061107D01*
X78096747Y-64041401D01*
X78113223Y-64023223D01*
X78131401Y-64006747D01*
X78151107Y-63992132D01*
X78172150Y-63979520D01*
X78194329Y-63969030D01*
X78217428Y-63960765D01*
X78241227Y-63954804D01*
X78265495Y-63951204D01*
X78289999Y-63950000D01*
X79190001Y-63950000D01*
X79214505Y-63951204D01*
X79214505Y-63951204D01*
G37*
D13*
X78740000Y-64525000D03*
D11*
G36*
X79214505Y-61901204D02*
G01*
X79238773Y-61904804D01*
X79262572Y-61910765D01*
X79285671Y-61919030D01*
X79307850Y-61929520D01*
X79328893Y-61942132D01*
X79348599Y-61956747D01*
X79366777Y-61973223D01*
X79383253Y-61991401D01*
X79397868Y-62011107D01*
X79410480Y-62032150D01*
X79420970Y-62054329D01*
X79429235Y-62077428D01*
X79435196Y-62101227D01*
X79438796Y-62125495D01*
X79440000Y-62149999D01*
X79440000Y-62800001D01*
X79438796Y-62824505D01*
X79435196Y-62848773D01*
X79429235Y-62872572D01*
X79420970Y-62895671D01*
X79410480Y-62917850D01*
X79397868Y-62938893D01*
X79383253Y-62958599D01*
X79366777Y-62976777D01*
X79348599Y-62993253D01*
X79328893Y-63007868D01*
X79307850Y-63020480D01*
X79285671Y-63030970D01*
X79262572Y-63039235D01*
X79238773Y-63045196D01*
X79214505Y-63048796D01*
X79190001Y-63050000D01*
X78289999Y-63050000D01*
X78265495Y-63048796D01*
X78241227Y-63045196D01*
X78217428Y-63039235D01*
X78194329Y-63030970D01*
X78172150Y-63020480D01*
X78151107Y-63007868D01*
X78131401Y-62993253D01*
X78113223Y-62976777D01*
X78096747Y-62958599D01*
X78082132Y-62938893D01*
X78069520Y-62917850D01*
X78059030Y-62895671D01*
X78050765Y-62872572D01*
X78044804Y-62848773D01*
X78041204Y-62824505D01*
X78040000Y-62800001D01*
X78040000Y-62149999D01*
X78041204Y-62125495D01*
X78044804Y-62101227D01*
X78050765Y-62077428D01*
X78059030Y-62054329D01*
X78069520Y-62032150D01*
X78082132Y-62011107D01*
X78096747Y-61991401D01*
X78113223Y-61973223D01*
X78131401Y-61956747D01*
X78151107Y-61942132D01*
X78172150Y-61929520D01*
X78194329Y-61919030D01*
X78217428Y-61910765D01*
X78241227Y-61904804D01*
X78265495Y-61901204D01*
X78289999Y-61900000D01*
X79190001Y-61900000D01*
X79214505Y-61901204D01*
X79214505Y-61901204D01*
G37*
D13*
X78740000Y-62475000D03*
D11*
G36*
X141564505Y-136461204D02*
G01*
X141588773Y-136464804D01*
X141612572Y-136470765D01*
X141635671Y-136479030D01*
X141657850Y-136489520D01*
X141678893Y-136502132D01*
X141698599Y-136516747D01*
X141716777Y-136533223D01*
X141733253Y-136551401D01*
X141747868Y-136571107D01*
X141760480Y-136592150D01*
X141770970Y-136614329D01*
X141779235Y-136637428D01*
X141785196Y-136661227D01*
X141788796Y-136685495D01*
X141790000Y-136709999D01*
X141790000Y-137610001D01*
X141788796Y-137634505D01*
X141785196Y-137658773D01*
X141779235Y-137682572D01*
X141770970Y-137705671D01*
X141760480Y-137727850D01*
X141747868Y-137748893D01*
X141733253Y-137768599D01*
X141716777Y-137786777D01*
X141698599Y-137803253D01*
X141678893Y-137817868D01*
X141657850Y-137830480D01*
X141635671Y-137840970D01*
X141612572Y-137849235D01*
X141588773Y-137855196D01*
X141564505Y-137858796D01*
X141540001Y-137860000D01*
X140889999Y-137860000D01*
X140865495Y-137858796D01*
X140841227Y-137855196D01*
X140817428Y-137849235D01*
X140794329Y-137840970D01*
X140772150Y-137830480D01*
X140751107Y-137817868D01*
X140731401Y-137803253D01*
X140713223Y-137786777D01*
X140696747Y-137768599D01*
X140682132Y-137748893D01*
X140669520Y-137727850D01*
X140659030Y-137705671D01*
X140650765Y-137682572D01*
X140644804Y-137658773D01*
X140641204Y-137634505D01*
X140640000Y-137610001D01*
X140640000Y-136709999D01*
X140641204Y-136685495D01*
X140644804Y-136661227D01*
X140650765Y-136637428D01*
X140659030Y-136614329D01*
X140669520Y-136592150D01*
X140682132Y-136571107D01*
X140696747Y-136551401D01*
X140713223Y-136533223D01*
X140731401Y-136516747D01*
X140751107Y-136502132D01*
X140772150Y-136489520D01*
X140794329Y-136479030D01*
X140817428Y-136470765D01*
X140841227Y-136464804D01*
X140865495Y-136461204D01*
X140889999Y-136460000D01*
X141540001Y-136460000D01*
X141564505Y-136461204D01*
X141564505Y-136461204D01*
G37*
D13*
X141215000Y-137160000D03*
D11*
G36*
X143614505Y-136461204D02*
G01*
X143638773Y-136464804D01*
X143662572Y-136470765D01*
X143685671Y-136479030D01*
X143707850Y-136489520D01*
X143728893Y-136502132D01*
X143748599Y-136516747D01*
X143766777Y-136533223D01*
X143783253Y-136551401D01*
X143797868Y-136571107D01*
X143810480Y-136592150D01*
X143820970Y-136614329D01*
X143829235Y-136637428D01*
X143835196Y-136661227D01*
X143838796Y-136685495D01*
X143840000Y-136709999D01*
X143840000Y-137610001D01*
X143838796Y-137634505D01*
X143835196Y-137658773D01*
X143829235Y-137682572D01*
X143820970Y-137705671D01*
X143810480Y-137727850D01*
X143797868Y-137748893D01*
X143783253Y-137768599D01*
X143766777Y-137786777D01*
X143748599Y-137803253D01*
X143728893Y-137817868D01*
X143707850Y-137830480D01*
X143685671Y-137840970D01*
X143662572Y-137849235D01*
X143638773Y-137855196D01*
X143614505Y-137858796D01*
X143590001Y-137860000D01*
X142939999Y-137860000D01*
X142915495Y-137858796D01*
X142891227Y-137855196D01*
X142867428Y-137849235D01*
X142844329Y-137840970D01*
X142822150Y-137830480D01*
X142801107Y-137817868D01*
X142781401Y-137803253D01*
X142763223Y-137786777D01*
X142746747Y-137768599D01*
X142732132Y-137748893D01*
X142719520Y-137727850D01*
X142709030Y-137705671D01*
X142700765Y-137682572D01*
X142694804Y-137658773D01*
X142691204Y-137634505D01*
X142690000Y-137610001D01*
X142690000Y-136709999D01*
X142691204Y-136685495D01*
X142694804Y-136661227D01*
X142700765Y-136637428D01*
X142709030Y-136614329D01*
X142719520Y-136592150D01*
X142732132Y-136571107D01*
X142746747Y-136551401D01*
X142763223Y-136533223D01*
X142781401Y-136516747D01*
X142801107Y-136502132D01*
X142822150Y-136489520D01*
X142844329Y-136479030D01*
X142867428Y-136470765D01*
X142891227Y-136464804D01*
X142915495Y-136461204D01*
X142939999Y-136460000D01*
X143590001Y-136460000D01*
X143614505Y-136461204D01*
X143614505Y-136461204D01*
G37*
D13*
X143265000Y-137160000D03*
D11*
G36*
X141564505Y-141541204D02*
G01*
X141588773Y-141544804D01*
X141612572Y-141550765D01*
X141635671Y-141559030D01*
X141657850Y-141569520D01*
X141678893Y-141582132D01*
X141698599Y-141596747D01*
X141716777Y-141613223D01*
X141733253Y-141631401D01*
X141747868Y-141651107D01*
X141760480Y-141672150D01*
X141770970Y-141694329D01*
X141779235Y-141717428D01*
X141785196Y-141741227D01*
X141788796Y-141765495D01*
X141790000Y-141789999D01*
X141790000Y-142690001D01*
X141788796Y-142714505D01*
X141785196Y-142738773D01*
X141779235Y-142762572D01*
X141770970Y-142785671D01*
X141760480Y-142807850D01*
X141747868Y-142828893D01*
X141733253Y-142848599D01*
X141716777Y-142866777D01*
X141698599Y-142883253D01*
X141678893Y-142897868D01*
X141657850Y-142910480D01*
X141635671Y-142920970D01*
X141612572Y-142929235D01*
X141588773Y-142935196D01*
X141564505Y-142938796D01*
X141540001Y-142940000D01*
X140889999Y-142940000D01*
X140865495Y-142938796D01*
X140841227Y-142935196D01*
X140817428Y-142929235D01*
X140794329Y-142920970D01*
X140772150Y-142910480D01*
X140751107Y-142897868D01*
X140731401Y-142883253D01*
X140713223Y-142866777D01*
X140696747Y-142848599D01*
X140682132Y-142828893D01*
X140669520Y-142807850D01*
X140659030Y-142785671D01*
X140650765Y-142762572D01*
X140644804Y-142738773D01*
X140641204Y-142714505D01*
X140640000Y-142690001D01*
X140640000Y-141789999D01*
X140641204Y-141765495D01*
X140644804Y-141741227D01*
X140650765Y-141717428D01*
X140659030Y-141694329D01*
X140669520Y-141672150D01*
X140682132Y-141651107D01*
X140696747Y-141631401D01*
X140713223Y-141613223D01*
X140731401Y-141596747D01*
X140751107Y-141582132D01*
X140772150Y-141569520D01*
X140794329Y-141559030D01*
X140817428Y-141550765D01*
X140841227Y-141544804D01*
X140865495Y-141541204D01*
X140889999Y-141540000D01*
X141540001Y-141540000D01*
X141564505Y-141541204D01*
X141564505Y-141541204D01*
G37*
D13*
X141215000Y-142240000D03*
D11*
G36*
X143614505Y-141541204D02*
G01*
X143638773Y-141544804D01*
X143662572Y-141550765D01*
X143685671Y-141559030D01*
X143707850Y-141569520D01*
X143728893Y-141582132D01*
X143748599Y-141596747D01*
X143766777Y-141613223D01*
X143783253Y-141631401D01*
X143797868Y-141651107D01*
X143810480Y-141672150D01*
X143820970Y-141694329D01*
X143829235Y-141717428D01*
X143835196Y-141741227D01*
X143838796Y-141765495D01*
X143840000Y-141789999D01*
X143840000Y-142690001D01*
X143838796Y-142714505D01*
X143835196Y-142738773D01*
X143829235Y-142762572D01*
X143820970Y-142785671D01*
X143810480Y-142807850D01*
X143797868Y-142828893D01*
X143783253Y-142848599D01*
X143766777Y-142866777D01*
X143748599Y-142883253D01*
X143728893Y-142897868D01*
X143707850Y-142910480D01*
X143685671Y-142920970D01*
X143662572Y-142929235D01*
X143638773Y-142935196D01*
X143614505Y-142938796D01*
X143590001Y-142940000D01*
X142939999Y-142940000D01*
X142915495Y-142938796D01*
X142891227Y-142935196D01*
X142867428Y-142929235D01*
X142844329Y-142920970D01*
X142822150Y-142910480D01*
X142801107Y-142897868D01*
X142781401Y-142883253D01*
X142763223Y-142866777D01*
X142746747Y-142848599D01*
X142732132Y-142828893D01*
X142719520Y-142807850D01*
X142709030Y-142785671D01*
X142700765Y-142762572D01*
X142694804Y-142738773D01*
X142691204Y-142714505D01*
X142690000Y-142690001D01*
X142690000Y-141789999D01*
X142691204Y-141765495D01*
X142694804Y-141741227D01*
X142700765Y-141717428D01*
X142709030Y-141694329D01*
X142719520Y-141672150D01*
X142732132Y-141651107D01*
X142746747Y-141631401D01*
X142763223Y-141613223D01*
X142781401Y-141596747D01*
X142801107Y-141582132D01*
X142822150Y-141569520D01*
X142844329Y-141559030D01*
X142867428Y-141550765D01*
X142891227Y-141544804D01*
X142915495Y-141541204D01*
X142939999Y-141540000D01*
X143590001Y-141540000D01*
X143614505Y-141541204D01*
X143614505Y-141541204D01*
G37*
D13*
X143265000Y-142240000D03*
D11*
G36*
X123664505Y-61901204D02*
G01*
X123688773Y-61904804D01*
X123712572Y-61910765D01*
X123735671Y-61919030D01*
X123757850Y-61929520D01*
X123778893Y-61942132D01*
X123798599Y-61956747D01*
X123816777Y-61973223D01*
X123833253Y-61991401D01*
X123847868Y-62011107D01*
X123860480Y-62032150D01*
X123870970Y-62054329D01*
X123879235Y-62077428D01*
X123885196Y-62101227D01*
X123888796Y-62125495D01*
X123890000Y-62149999D01*
X123890000Y-62800001D01*
X123888796Y-62824505D01*
X123885196Y-62848773D01*
X123879235Y-62872572D01*
X123870970Y-62895671D01*
X123860480Y-62917850D01*
X123847868Y-62938893D01*
X123833253Y-62958599D01*
X123816777Y-62976777D01*
X123798599Y-62993253D01*
X123778893Y-63007868D01*
X123757850Y-63020480D01*
X123735671Y-63030970D01*
X123712572Y-63039235D01*
X123688773Y-63045196D01*
X123664505Y-63048796D01*
X123640001Y-63050000D01*
X122739999Y-63050000D01*
X122715495Y-63048796D01*
X122691227Y-63045196D01*
X122667428Y-63039235D01*
X122644329Y-63030970D01*
X122622150Y-63020480D01*
X122601107Y-63007868D01*
X122581401Y-62993253D01*
X122563223Y-62976777D01*
X122546747Y-62958599D01*
X122532132Y-62938893D01*
X122519520Y-62917850D01*
X122509030Y-62895671D01*
X122500765Y-62872572D01*
X122494804Y-62848773D01*
X122491204Y-62824505D01*
X122490000Y-62800001D01*
X122490000Y-62149999D01*
X122491204Y-62125495D01*
X122494804Y-62101227D01*
X122500765Y-62077428D01*
X122509030Y-62054329D01*
X122519520Y-62032150D01*
X122532132Y-62011107D01*
X122546747Y-61991401D01*
X122563223Y-61973223D01*
X122581401Y-61956747D01*
X122601107Y-61942132D01*
X122622150Y-61929520D01*
X122644329Y-61919030D01*
X122667428Y-61910765D01*
X122691227Y-61904804D01*
X122715495Y-61901204D01*
X122739999Y-61900000D01*
X123640001Y-61900000D01*
X123664505Y-61901204D01*
X123664505Y-61901204D01*
G37*
D13*
X123190000Y-62475000D03*
D11*
G36*
X123664505Y-63951204D02*
G01*
X123688773Y-63954804D01*
X123712572Y-63960765D01*
X123735671Y-63969030D01*
X123757850Y-63979520D01*
X123778893Y-63992132D01*
X123798599Y-64006747D01*
X123816777Y-64023223D01*
X123833253Y-64041401D01*
X123847868Y-64061107D01*
X123860480Y-64082150D01*
X123870970Y-64104329D01*
X123879235Y-64127428D01*
X123885196Y-64151227D01*
X123888796Y-64175495D01*
X123890000Y-64199999D01*
X123890000Y-64850001D01*
X123888796Y-64874505D01*
X123885196Y-64898773D01*
X123879235Y-64922572D01*
X123870970Y-64945671D01*
X123860480Y-64967850D01*
X123847868Y-64988893D01*
X123833253Y-65008599D01*
X123816777Y-65026777D01*
X123798599Y-65043253D01*
X123778893Y-65057868D01*
X123757850Y-65070480D01*
X123735671Y-65080970D01*
X123712572Y-65089235D01*
X123688773Y-65095196D01*
X123664505Y-65098796D01*
X123640001Y-65100000D01*
X122739999Y-65100000D01*
X122715495Y-65098796D01*
X122691227Y-65095196D01*
X122667428Y-65089235D01*
X122644329Y-65080970D01*
X122622150Y-65070480D01*
X122601107Y-65057868D01*
X122581401Y-65043253D01*
X122563223Y-65026777D01*
X122546747Y-65008599D01*
X122532132Y-64988893D01*
X122519520Y-64967850D01*
X122509030Y-64945671D01*
X122500765Y-64922572D01*
X122494804Y-64898773D01*
X122491204Y-64874505D01*
X122490000Y-64850001D01*
X122490000Y-64199999D01*
X122491204Y-64175495D01*
X122494804Y-64151227D01*
X122500765Y-64127428D01*
X122509030Y-64104329D01*
X122519520Y-64082150D01*
X122532132Y-64061107D01*
X122546747Y-64041401D01*
X122563223Y-64023223D01*
X122581401Y-64006747D01*
X122601107Y-63992132D01*
X122622150Y-63979520D01*
X122644329Y-63969030D01*
X122667428Y-63960765D01*
X122691227Y-63954804D01*
X122715495Y-63951204D01*
X122739999Y-63950000D01*
X123640001Y-63950000D01*
X123664505Y-63951204D01*
X123664505Y-63951204D01*
G37*
D13*
X123190000Y-64525000D03*
D11*
G36*
X131284505Y-61901204D02*
G01*
X131308773Y-61904804D01*
X131332572Y-61910765D01*
X131355671Y-61919030D01*
X131377850Y-61929520D01*
X131398893Y-61942132D01*
X131418599Y-61956747D01*
X131436777Y-61973223D01*
X131453253Y-61991401D01*
X131467868Y-62011107D01*
X131480480Y-62032150D01*
X131490970Y-62054329D01*
X131499235Y-62077428D01*
X131505196Y-62101227D01*
X131508796Y-62125495D01*
X131510000Y-62149999D01*
X131510000Y-62800001D01*
X131508796Y-62824505D01*
X131505196Y-62848773D01*
X131499235Y-62872572D01*
X131490970Y-62895671D01*
X131480480Y-62917850D01*
X131467868Y-62938893D01*
X131453253Y-62958599D01*
X131436777Y-62976777D01*
X131418599Y-62993253D01*
X131398893Y-63007868D01*
X131377850Y-63020480D01*
X131355671Y-63030970D01*
X131332572Y-63039235D01*
X131308773Y-63045196D01*
X131284505Y-63048796D01*
X131260001Y-63050000D01*
X130359999Y-63050000D01*
X130335495Y-63048796D01*
X130311227Y-63045196D01*
X130287428Y-63039235D01*
X130264329Y-63030970D01*
X130242150Y-63020480D01*
X130221107Y-63007868D01*
X130201401Y-62993253D01*
X130183223Y-62976777D01*
X130166747Y-62958599D01*
X130152132Y-62938893D01*
X130139520Y-62917850D01*
X130129030Y-62895671D01*
X130120765Y-62872572D01*
X130114804Y-62848773D01*
X130111204Y-62824505D01*
X130110000Y-62800001D01*
X130110000Y-62149999D01*
X130111204Y-62125495D01*
X130114804Y-62101227D01*
X130120765Y-62077428D01*
X130129030Y-62054329D01*
X130139520Y-62032150D01*
X130152132Y-62011107D01*
X130166747Y-61991401D01*
X130183223Y-61973223D01*
X130201401Y-61956747D01*
X130221107Y-61942132D01*
X130242150Y-61929520D01*
X130264329Y-61919030D01*
X130287428Y-61910765D01*
X130311227Y-61904804D01*
X130335495Y-61901204D01*
X130359999Y-61900000D01*
X131260001Y-61900000D01*
X131284505Y-61901204D01*
X131284505Y-61901204D01*
G37*
D13*
X130810000Y-62475000D03*
D11*
G36*
X131284505Y-63951204D02*
G01*
X131308773Y-63954804D01*
X131332572Y-63960765D01*
X131355671Y-63969030D01*
X131377850Y-63979520D01*
X131398893Y-63992132D01*
X131418599Y-64006747D01*
X131436777Y-64023223D01*
X131453253Y-64041401D01*
X131467868Y-64061107D01*
X131480480Y-64082150D01*
X131490970Y-64104329D01*
X131499235Y-64127428D01*
X131505196Y-64151227D01*
X131508796Y-64175495D01*
X131510000Y-64199999D01*
X131510000Y-64850001D01*
X131508796Y-64874505D01*
X131505196Y-64898773D01*
X131499235Y-64922572D01*
X131490970Y-64945671D01*
X131480480Y-64967850D01*
X131467868Y-64988893D01*
X131453253Y-65008599D01*
X131436777Y-65026777D01*
X131418599Y-65043253D01*
X131398893Y-65057868D01*
X131377850Y-65070480D01*
X131355671Y-65080970D01*
X131332572Y-65089235D01*
X131308773Y-65095196D01*
X131284505Y-65098796D01*
X131260001Y-65100000D01*
X130359999Y-65100000D01*
X130335495Y-65098796D01*
X130311227Y-65095196D01*
X130287428Y-65089235D01*
X130264329Y-65080970D01*
X130242150Y-65070480D01*
X130221107Y-65057868D01*
X130201401Y-65043253D01*
X130183223Y-65026777D01*
X130166747Y-65008599D01*
X130152132Y-64988893D01*
X130139520Y-64967850D01*
X130129030Y-64945671D01*
X130120765Y-64922572D01*
X130114804Y-64898773D01*
X130111204Y-64874505D01*
X130110000Y-64850001D01*
X130110000Y-64199999D01*
X130111204Y-64175495D01*
X130114804Y-64151227D01*
X130120765Y-64127428D01*
X130129030Y-64104329D01*
X130139520Y-64082150D01*
X130152132Y-64061107D01*
X130166747Y-64041401D01*
X130183223Y-64023223D01*
X130201401Y-64006747D01*
X130221107Y-63992132D01*
X130242150Y-63979520D01*
X130264329Y-63969030D01*
X130287428Y-63960765D01*
X130311227Y-63954804D01*
X130335495Y-63951204D01*
X130359999Y-63950000D01*
X131260001Y-63950000D01*
X131284505Y-63951204D01*
X131284505Y-63951204D01*
G37*
D13*
X130810000Y-64525000D03*
D11*
G36*
X127474505Y-61901204D02*
G01*
X127498773Y-61904804D01*
X127522572Y-61910765D01*
X127545671Y-61919030D01*
X127567850Y-61929520D01*
X127588893Y-61942132D01*
X127608599Y-61956747D01*
X127626777Y-61973223D01*
X127643253Y-61991401D01*
X127657868Y-62011107D01*
X127670480Y-62032150D01*
X127680970Y-62054329D01*
X127689235Y-62077428D01*
X127695196Y-62101227D01*
X127698796Y-62125495D01*
X127700000Y-62149999D01*
X127700000Y-62800001D01*
X127698796Y-62824505D01*
X127695196Y-62848773D01*
X127689235Y-62872572D01*
X127680970Y-62895671D01*
X127670480Y-62917850D01*
X127657868Y-62938893D01*
X127643253Y-62958599D01*
X127626777Y-62976777D01*
X127608599Y-62993253D01*
X127588893Y-63007868D01*
X127567850Y-63020480D01*
X127545671Y-63030970D01*
X127522572Y-63039235D01*
X127498773Y-63045196D01*
X127474505Y-63048796D01*
X127450001Y-63050000D01*
X126549999Y-63050000D01*
X126525495Y-63048796D01*
X126501227Y-63045196D01*
X126477428Y-63039235D01*
X126454329Y-63030970D01*
X126432150Y-63020480D01*
X126411107Y-63007868D01*
X126391401Y-62993253D01*
X126373223Y-62976777D01*
X126356747Y-62958599D01*
X126342132Y-62938893D01*
X126329520Y-62917850D01*
X126319030Y-62895671D01*
X126310765Y-62872572D01*
X126304804Y-62848773D01*
X126301204Y-62824505D01*
X126300000Y-62800001D01*
X126300000Y-62149999D01*
X126301204Y-62125495D01*
X126304804Y-62101227D01*
X126310765Y-62077428D01*
X126319030Y-62054329D01*
X126329520Y-62032150D01*
X126342132Y-62011107D01*
X126356747Y-61991401D01*
X126373223Y-61973223D01*
X126391401Y-61956747D01*
X126411107Y-61942132D01*
X126432150Y-61929520D01*
X126454329Y-61919030D01*
X126477428Y-61910765D01*
X126501227Y-61904804D01*
X126525495Y-61901204D01*
X126549999Y-61900000D01*
X127450001Y-61900000D01*
X127474505Y-61901204D01*
X127474505Y-61901204D01*
G37*
D13*
X127000000Y-62475000D03*
D11*
G36*
X127474505Y-63951204D02*
G01*
X127498773Y-63954804D01*
X127522572Y-63960765D01*
X127545671Y-63969030D01*
X127567850Y-63979520D01*
X127588893Y-63992132D01*
X127608599Y-64006747D01*
X127626777Y-64023223D01*
X127643253Y-64041401D01*
X127657868Y-64061107D01*
X127670480Y-64082150D01*
X127680970Y-64104329D01*
X127689235Y-64127428D01*
X127695196Y-64151227D01*
X127698796Y-64175495D01*
X127700000Y-64199999D01*
X127700000Y-64850001D01*
X127698796Y-64874505D01*
X127695196Y-64898773D01*
X127689235Y-64922572D01*
X127680970Y-64945671D01*
X127670480Y-64967850D01*
X127657868Y-64988893D01*
X127643253Y-65008599D01*
X127626777Y-65026777D01*
X127608599Y-65043253D01*
X127588893Y-65057868D01*
X127567850Y-65070480D01*
X127545671Y-65080970D01*
X127522572Y-65089235D01*
X127498773Y-65095196D01*
X127474505Y-65098796D01*
X127450001Y-65100000D01*
X126549999Y-65100000D01*
X126525495Y-65098796D01*
X126501227Y-65095196D01*
X126477428Y-65089235D01*
X126454329Y-65080970D01*
X126432150Y-65070480D01*
X126411107Y-65057868D01*
X126391401Y-65043253D01*
X126373223Y-65026777D01*
X126356747Y-65008599D01*
X126342132Y-64988893D01*
X126329520Y-64967850D01*
X126319030Y-64945671D01*
X126310765Y-64922572D01*
X126304804Y-64898773D01*
X126301204Y-64874505D01*
X126300000Y-64850001D01*
X126300000Y-64199999D01*
X126301204Y-64175495D01*
X126304804Y-64151227D01*
X126310765Y-64127428D01*
X126319030Y-64104329D01*
X126329520Y-64082150D01*
X126342132Y-64061107D01*
X126356747Y-64041401D01*
X126373223Y-64023223D01*
X126391401Y-64006747D01*
X126411107Y-63992132D01*
X126432150Y-63979520D01*
X126454329Y-63969030D01*
X126477428Y-63960765D01*
X126501227Y-63954804D01*
X126525495Y-63951204D01*
X126549999Y-63950000D01*
X127450001Y-63950000D01*
X127474505Y-63951204D01*
X127474505Y-63951204D01*
G37*
D13*
X127000000Y-64525000D03*
D11*
G36*
X135094505Y-61901204D02*
G01*
X135118773Y-61904804D01*
X135142572Y-61910765D01*
X135165671Y-61919030D01*
X135187850Y-61929520D01*
X135208893Y-61942132D01*
X135228599Y-61956747D01*
X135246777Y-61973223D01*
X135263253Y-61991401D01*
X135277868Y-62011107D01*
X135290480Y-62032150D01*
X135300970Y-62054329D01*
X135309235Y-62077428D01*
X135315196Y-62101227D01*
X135318796Y-62125495D01*
X135320000Y-62149999D01*
X135320000Y-62800001D01*
X135318796Y-62824505D01*
X135315196Y-62848773D01*
X135309235Y-62872572D01*
X135300970Y-62895671D01*
X135290480Y-62917850D01*
X135277868Y-62938893D01*
X135263253Y-62958599D01*
X135246777Y-62976777D01*
X135228599Y-62993253D01*
X135208893Y-63007868D01*
X135187850Y-63020480D01*
X135165671Y-63030970D01*
X135142572Y-63039235D01*
X135118773Y-63045196D01*
X135094505Y-63048796D01*
X135070001Y-63050000D01*
X134169999Y-63050000D01*
X134145495Y-63048796D01*
X134121227Y-63045196D01*
X134097428Y-63039235D01*
X134074329Y-63030970D01*
X134052150Y-63020480D01*
X134031107Y-63007868D01*
X134011401Y-62993253D01*
X133993223Y-62976777D01*
X133976747Y-62958599D01*
X133962132Y-62938893D01*
X133949520Y-62917850D01*
X133939030Y-62895671D01*
X133930765Y-62872572D01*
X133924804Y-62848773D01*
X133921204Y-62824505D01*
X133920000Y-62800001D01*
X133920000Y-62149999D01*
X133921204Y-62125495D01*
X133924804Y-62101227D01*
X133930765Y-62077428D01*
X133939030Y-62054329D01*
X133949520Y-62032150D01*
X133962132Y-62011107D01*
X133976747Y-61991401D01*
X133993223Y-61973223D01*
X134011401Y-61956747D01*
X134031107Y-61942132D01*
X134052150Y-61929520D01*
X134074329Y-61919030D01*
X134097428Y-61910765D01*
X134121227Y-61904804D01*
X134145495Y-61901204D01*
X134169999Y-61900000D01*
X135070001Y-61900000D01*
X135094505Y-61901204D01*
X135094505Y-61901204D01*
G37*
D13*
X134620000Y-62475000D03*
D11*
G36*
X135094505Y-63951204D02*
G01*
X135118773Y-63954804D01*
X135142572Y-63960765D01*
X135165671Y-63969030D01*
X135187850Y-63979520D01*
X135208893Y-63992132D01*
X135228599Y-64006747D01*
X135246777Y-64023223D01*
X135263253Y-64041401D01*
X135277868Y-64061107D01*
X135290480Y-64082150D01*
X135300970Y-64104329D01*
X135309235Y-64127428D01*
X135315196Y-64151227D01*
X135318796Y-64175495D01*
X135320000Y-64199999D01*
X135320000Y-64850001D01*
X135318796Y-64874505D01*
X135315196Y-64898773D01*
X135309235Y-64922572D01*
X135300970Y-64945671D01*
X135290480Y-64967850D01*
X135277868Y-64988893D01*
X135263253Y-65008599D01*
X135246777Y-65026777D01*
X135228599Y-65043253D01*
X135208893Y-65057868D01*
X135187850Y-65070480D01*
X135165671Y-65080970D01*
X135142572Y-65089235D01*
X135118773Y-65095196D01*
X135094505Y-65098796D01*
X135070001Y-65100000D01*
X134169999Y-65100000D01*
X134145495Y-65098796D01*
X134121227Y-65095196D01*
X134097428Y-65089235D01*
X134074329Y-65080970D01*
X134052150Y-65070480D01*
X134031107Y-65057868D01*
X134011401Y-65043253D01*
X133993223Y-65026777D01*
X133976747Y-65008599D01*
X133962132Y-64988893D01*
X133949520Y-64967850D01*
X133939030Y-64945671D01*
X133930765Y-64922572D01*
X133924804Y-64898773D01*
X133921204Y-64874505D01*
X133920000Y-64850001D01*
X133920000Y-64199999D01*
X133921204Y-64175495D01*
X133924804Y-64151227D01*
X133930765Y-64127428D01*
X133939030Y-64104329D01*
X133949520Y-64082150D01*
X133962132Y-64061107D01*
X133976747Y-64041401D01*
X133993223Y-64023223D01*
X134011401Y-64006747D01*
X134031107Y-63992132D01*
X134052150Y-63979520D01*
X134074329Y-63969030D01*
X134097428Y-63960765D01*
X134121227Y-63954804D01*
X134145495Y-63951204D01*
X134169999Y-63950000D01*
X135070001Y-63950000D01*
X135094505Y-63951204D01*
X135094505Y-63951204D01*
G37*
D13*
X134620000Y-64525000D03*
D11*
G36*
X80604505Y-100901204D02*
G01*
X80628773Y-100904804D01*
X80652572Y-100910765D01*
X80675671Y-100919030D01*
X80697850Y-100929520D01*
X80718893Y-100942132D01*
X80738599Y-100956747D01*
X80756777Y-100973223D01*
X80773253Y-100991401D01*
X80787868Y-101011107D01*
X80800480Y-101032150D01*
X80810970Y-101054329D01*
X80819235Y-101077428D01*
X80825196Y-101101227D01*
X80828796Y-101125495D01*
X80830000Y-101149999D01*
X80830000Y-102050001D01*
X80828796Y-102074505D01*
X80825196Y-102098773D01*
X80819235Y-102122572D01*
X80810970Y-102145671D01*
X80800480Y-102167850D01*
X80787868Y-102188893D01*
X80773253Y-102208599D01*
X80756777Y-102226777D01*
X80738599Y-102243253D01*
X80718893Y-102257868D01*
X80697850Y-102270480D01*
X80675671Y-102280970D01*
X80652572Y-102289235D01*
X80628773Y-102295196D01*
X80604505Y-102298796D01*
X80580001Y-102300000D01*
X79929999Y-102300000D01*
X79905495Y-102298796D01*
X79881227Y-102295196D01*
X79857428Y-102289235D01*
X79834329Y-102280970D01*
X79812150Y-102270480D01*
X79791107Y-102257868D01*
X79771401Y-102243253D01*
X79753223Y-102226777D01*
X79736747Y-102208599D01*
X79722132Y-102188893D01*
X79709520Y-102167850D01*
X79699030Y-102145671D01*
X79690765Y-102122572D01*
X79684804Y-102098773D01*
X79681204Y-102074505D01*
X79680000Y-102050001D01*
X79680000Y-101149999D01*
X79681204Y-101125495D01*
X79684804Y-101101227D01*
X79690765Y-101077428D01*
X79699030Y-101054329D01*
X79709520Y-101032150D01*
X79722132Y-101011107D01*
X79736747Y-100991401D01*
X79753223Y-100973223D01*
X79771401Y-100956747D01*
X79791107Y-100942132D01*
X79812150Y-100929520D01*
X79834329Y-100919030D01*
X79857428Y-100910765D01*
X79881227Y-100904804D01*
X79905495Y-100901204D01*
X79929999Y-100900000D01*
X80580001Y-100900000D01*
X80604505Y-100901204D01*
X80604505Y-100901204D01*
G37*
D13*
X80255000Y-101600000D03*
D11*
G36*
X82654505Y-100901204D02*
G01*
X82678773Y-100904804D01*
X82702572Y-100910765D01*
X82725671Y-100919030D01*
X82747850Y-100929520D01*
X82768893Y-100942132D01*
X82788599Y-100956747D01*
X82806777Y-100973223D01*
X82823253Y-100991401D01*
X82837868Y-101011107D01*
X82850480Y-101032150D01*
X82860970Y-101054329D01*
X82869235Y-101077428D01*
X82875196Y-101101227D01*
X82878796Y-101125495D01*
X82880000Y-101149999D01*
X82880000Y-102050001D01*
X82878796Y-102074505D01*
X82875196Y-102098773D01*
X82869235Y-102122572D01*
X82860970Y-102145671D01*
X82850480Y-102167850D01*
X82837868Y-102188893D01*
X82823253Y-102208599D01*
X82806777Y-102226777D01*
X82788599Y-102243253D01*
X82768893Y-102257868D01*
X82747850Y-102270480D01*
X82725671Y-102280970D01*
X82702572Y-102289235D01*
X82678773Y-102295196D01*
X82654505Y-102298796D01*
X82630001Y-102300000D01*
X81979999Y-102300000D01*
X81955495Y-102298796D01*
X81931227Y-102295196D01*
X81907428Y-102289235D01*
X81884329Y-102280970D01*
X81862150Y-102270480D01*
X81841107Y-102257868D01*
X81821401Y-102243253D01*
X81803223Y-102226777D01*
X81786747Y-102208599D01*
X81772132Y-102188893D01*
X81759520Y-102167850D01*
X81749030Y-102145671D01*
X81740765Y-102122572D01*
X81734804Y-102098773D01*
X81731204Y-102074505D01*
X81730000Y-102050001D01*
X81730000Y-101149999D01*
X81731204Y-101125495D01*
X81734804Y-101101227D01*
X81740765Y-101077428D01*
X81749030Y-101054329D01*
X81759520Y-101032150D01*
X81772132Y-101011107D01*
X81786747Y-100991401D01*
X81803223Y-100973223D01*
X81821401Y-100956747D01*
X81841107Y-100942132D01*
X81862150Y-100929520D01*
X81884329Y-100919030D01*
X81907428Y-100910765D01*
X81931227Y-100904804D01*
X81955495Y-100901204D01*
X81979999Y-100900000D01*
X82630001Y-100900000D01*
X82654505Y-100901204D01*
X82654505Y-100901204D01*
G37*
D13*
X82305000Y-101600000D03*
D11*
G36*
X108544505Y-92011204D02*
G01*
X108568773Y-92014804D01*
X108592572Y-92020765D01*
X108615671Y-92029030D01*
X108637850Y-92039520D01*
X108658893Y-92052132D01*
X108678599Y-92066747D01*
X108696777Y-92083223D01*
X108713253Y-92101401D01*
X108727868Y-92121107D01*
X108740480Y-92142150D01*
X108750970Y-92164329D01*
X108759235Y-92187428D01*
X108765196Y-92211227D01*
X108768796Y-92235495D01*
X108770000Y-92259999D01*
X108770000Y-93160001D01*
X108768796Y-93184505D01*
X108765196Y-93208773D01*
X108759235Y-93232572D01*
X108750970Y-93255671D01*
X108740480Y-93277850D01*
X108727868Y-93298893D01*
X108713253Y-93318599D01*
X108696777Y-93336777D01*
X108678599Y-93353253D01*
X108658893Y-93367868D01*
X108637850Y-93380480D01*
X108615671Y-93390970D01*
X108592572Y-93399235D01*
X108568773Y-93405196D01*
X108544505Y-93408796D01*
X108520001Y-93410000D01*
X107869999Y-93410000D01*
X107845495Y-93408796D01*
X107821227Y-93405196D01*
X107797428Y-93399235D01*
X107774329Y-93390970D01*
X107752150Y-93380480D01*
X107731107Y-93367868D01*
X107711401Y-93353253D01*
X107693223Y-93336777D01*
X107676747Y-93318599D01*
X107662132Y-93298893D01*
X107649520Y-93277850D01*
X107639030Y-93255671D01*
X107630765Y-93232572D01*
X107624804Y-93208773D01*
X107621204Y-93184505D01*
X107620000Y-93160001D01*
X107620000Y-92259999D01*
X107621204Y-92235495D01*
X107624804Y-92211227D01*
X107630765Y-92187428D01*
X107639030Y-92164329D01*
X107649520Y-92142150D01*
X107662132Y-92121107D01*
X107676747Y-92101401D01*
X107693223Y-92083223D01*
X107711401Y-92066747D01*
X107731107Y-92052132D01*
X107752150Y-92039520D01*
X107774329Y-92029030D01*
X107797428Y-92020765D01*
X107821227Y-92014804D01*
X107845495Y-92011204D01*
X107869999Y-92010000D01*
X108520001Y-92010000D01*
X108544505Y-92011204D01*
X108544505Y-92011204D01*
G37*
D13*
X108195000Y-92710000D03*
D11*
G36*
X110594505Y-92011204D02*
G01*
X110618773Y-92014804D01*
X110642572Y-92020765D01*
X110665671Y-92029030D01*
X110687850Y-92039520D01*
X110708893Y-92052132D01*
X110728599Y-92066747D01*
X110746777Y-92083223D01*
X110763253Y-92101401D01*
X110777868Y-92121107D01*
X110790480Y-92142150D01*
X110800970Y-92164329D01*
X110809235Y-92187428D01*
X110815196Y-92211227D01*
X110818796Y-92235495D01*
X110820000Y-92259999D01*
X110820000Y-93160001D01*
X110818796Y-93184505D01*
X110815196Y-93208773D01*
X110809235Y-93232572D01*
X110800970Y-93255671D01*
X110790480Y-93277850D01*
X110777868Y-93298893D01*
X110763253Y-93318599D01*
X110746777Y-93336777D01*
X110728599Y-93353253D01*
X110708893Y-93367868D01*
X110687850Y-93380480D01*
X110665671Y-93390970D01*
X110642572Y-93399235D01*
X110618773Y-93405196D01*
X110594505Y-93408796D01*
X110570001Y-93410000D01*
X109919999Y-93410000D01*
X109895495Y-93408796D01*
X109871227Y-93405196D01*
X109847428Y-93399235D01*
X109824329Y-93390970D01*
X109802150Y-93380480D01*
X109781107Y-93367868D01*
X109761401Y-93353253D01*
X109743223Y-93336777D01*
X109726747Y-93318599D01*
X109712132Y-93298893D01*
X109699520Y-93277850D01*
X109689030Y-93255671D01*
X109680765Y-93232572D01*
X109674804Y-93208773D01*
X109671204Y-93184505D01*
X109670000Y-93160001D01*
X109670000Y-92259999D01*
X109671204Y-92235495D01*
X109674804Y-92211227D01*
X109680765Y-92187428D01*
X109689030Y-92164329D01*
X109699520Y-92142150D01*
X109712132Y-92121107D01*
X109726747Y-92101401D01*
X109743223Y-92083223D01*
X109761401Y-92066747D01*
X109781107Y-92052132D01*
X109802150Y-92039520D01*
X109824329Y-92029030D01*
X109847428Y-92020765D01*
X109871227Y-92014804D01*
X109895495Y-92011204D01*
X109919999Y-92010000D01*
X110570001Y-92010000D01*
X110594505Y-92011204D01*
X110594505Y-92011204D01*
G37*
D13*
X110245000Y-92710000D03*
D11*
G36*
X110594505Y-102171204D02*
G01*
X110618773Y-102174804D01*
X110642572Y-102180765D01*
X110665671Y-102189030D01*
X110687850Y-102199520D01*
X110708893Y-102212132D01*
X110728599Y-102226747D01*
X110746777Y-102243223D01*
X110763253Y-102261401D01*
X110777868Y-102281107D01*
X110790480Y-102302150D01*
X110800970Y-102324329D01*
X110809235Y-102347428D01*
X110815196Y-102371227D01*
X110818796Y-102395495D01*
X110820000Y-102419999D01*
X110820000Y-103320001D01*
X110818796Y-103344505D01*
X110815196Y-103368773D01*
X110809235Y-103392572D01*
X110800970Y-103415671D01*
X110790480Y-103437850D01*
X110777868Y-103458893D01*
X110763253Y-103478599D01*
X110746777Y-103496777D01*
X110728599Y-103513253D01*
X110708893Y-103527868D01*
X110687850Y-103540480D01*
X110665671Y-103550970D01*
X110642572Y-103559235D01*
X110618773Y-103565196D01*
X110594505Y-103568796D01*
X110570001Y-103570000D01*
X109919999Y-103570000D01*
X109895495Y-103568796D01*
X109871227Y-103565196D01*
X109847428Y-103559235D01*
X109824329Y-103550970D01*
X109802150Y-103540480D01*
X109781107Y-103527868D01*
X109761401Y-103513253D01*
X109743223Y-103496777D01*
X109726747Y-103478599D01*
X109712132Y-103458893D01*
X109699520Y-103437850D01*
X109689030Y-103415671D01*
X109680765Y-103392572D01*
X109674804Y-103368773D01*
X109671204Y-103344505D01*
X109670000Y-103320001D01*
X109670000Y-102419999D01*
X109671204Y-102395495D01*
X109674804Y-102371227D01*
X109680765Y-102347428D01*
X109689030Y-102324329D01*
X109699520Y-102302150D01*
X109712132Y-102281107D01*
X109726747Y-102261401D01*
X109743223Y-102243223D01*
X109761401Y-102226747D01*
X109781107Y-102212132D01*
X109802150Y-102199520D01*
X109824329Y-102189030D01*
X109847428Y-102180765D01*
X109871227Y-102174804D01*
X109895495Y-102171204D01*
X109919999Y-102170000D01*
X110570001Y-102170000D01*
X110594505Y-102171204D01*
X110594505Y-102171204D01*
G37*
D13*
X110245000Y-102870000D03*
D11*
G36*
X108544505Y-102171204D02*
G01*
X108568773Y-102174804D01*
X108592572Y-102180765D01*
X108615671Y-102189030D01*
X108637850Y-102199520D01*
X108658893Y-102212132D01*
X108678599Y-102226747D01*
X108696777Y-102243223D01*
X108713253Y-102261401D01*
X108727868Y-102281107D01*
X108740480Y-102302150D01*
X108750970Y-102324329D01*
X108759235Y-102347428D01*
X108765196Y-102371227D01*
X108768796Y-102395495D01*
X108770000Y-102419999D01*
X108770000Y-103320001D01*
X108768796Y-103344505D01*
X108765196Y-103368773D01*
X108759235Y-103392572D01*
X108750970Y-103415671D01*
X108740480Y-103437850D01*
X108727868Y-103458893D01*
X108713253Y-103478599D01*
X108696777Y-103496777D01*
X108678599Y-103513253D01*
X108658893Y-103527868D01*
X108637850Y-103540480D01*
X108615671Y-103550970D01*
X108592572Y-103559235D01*
X108568773Y-103565196D01*
X108544505Y-103568796D01*
X108520001Y-103570000D01*
X107869999Y-103570000D01*
X107845495Y-103568796D01*
X107821227Y-103565196D01*
X107797428Y-103559235D01*
X107774329Y-103550970D01*
X107752150Y-103540480D01*
X107731107Y-103527868D01*
X107711401Y-103513253D01*
X107693223Y-103496777D01*
X107676747Y-103478599D01*
X107662132Y-103458893D01*
X107649520Y-103437850D01*
X107639030Y-103415671D01*
X107630765Y-103392572D01*
X107624804Y-103368773D01*
X107621204Y-103344505D01*
X107620000Y-103320001D01*
X107620000Y-102419999D01*
X107621204Y-102395495D01*
X107624804Y-102371227D01*
X107630765Y-102347428D01*
X107639030Y-102324329D01*
X107649520Y-102302150D01*
X107662132Y-102281107D01*
X107676747Y-102261401D01*
X107693223Y-102243223D01*
X107711401Y-102226747D01*
X107731107Y-102212132D01*
X107752150Y-102199520D01*
X107774329Y-102189030D01*
X107797428Y-102180765D01*
X107821227Y-102174804D01*
X107845495Y-102171204D01*
X107869999Y-102170000D01*
X108520001Y-102170000D01*
X108544505Y-102171204D01*
X108544505Y-102171204D01*
G37*
D13*
X108195000Y-102870000D03*
D14*
X91250000Y-103490000D03*
X92050000Y-103490000D03*
X92850000Y-103490000D03*
X93650000Y-103490000D03*
X94450000Y-103490000D03*
X95250000Y-103490000D03*
X96050000Y-103490000D03*
X96850000Y-103490000D03*
X97650000Y-103490000D03*
X98450000Y-103490000D03*
X99250000Y-103490000D03*
D15*
X100950000Y-101790000D03*
X100950000Y-100990000D03*
X100950000Y-100190000D03*
X100950000Y-99390000D03*
X100950000Y-98590000D03*
X100950000Y-97790000D03*
X100950000Y-96990000D03*
X100950000Y-96190000D03*
X100950000Y-95390000D03*
X100950000Y-94590000D03*
X100950000Y-93790000D03*
D14*
X99250000Y-92090000D03*
X98450000Y-92090000D03*
X97650000Y-92090000D03*
X96850000Y-92090000D03*
X96050000Y-92090000D03*
X95250000Y-92090000D03*
X94450000Y-92090000D03*
X93650000Y-92090000D03*
X92850000Y-92090000D03*
X92050000Y-92090000D03*
X91250000Y-92090000D03*
D15*
X89550000Y-93790000D03*
X89550000Y-94590000D03*
X89550000Y-95390000D03*
X89550000Y-96190000D03*
X89550000Y-96990000D03*
X89550000Y-97790000D03*
X89550000Y-98590000D03*
X89550000Y-99390000D03*
X89550000Y-100190000D03*
X89550000Y-100990000D03*
X89550000Y-101790000D03*
D16*
X99550000Y-63330000D03*
X101450000Y-63330000D03*
X101450000Y-61130000D03*
D17*
X99730000Y-61130000D03*
D18*
X119740680Y-129661920D03*
X108742480Y-129661920D03*
D19*
X123190000Y-132212080D03*
X123190000Y-133311900D03*
X123190000Y-134411720D03*
X123190000Y-135511540D03*
X123190000Y-136611360D03*
X123190000Y-137708640D03*
X123190000Y-138808460D03*
X123190000Y-139908280D03*
X123190000Y-141008100D03*
X123190000Y-142107920D03*
X123190000Y-143207740D03*
D18*
X120840500Y-144658080D03*
X119740680Y-144658080D03*
X118640860Y-144658080D03*
X117541040Y-144658080D03*
X116441220Y-144658080D03*
X115341400Y-144658080D03*
X112041940Y-144658080D03*
X110942120Y-144658080D03*
X109842300Y-144658080D03*
X108742480Y-144658080D03*
X109842300Y-129661920D03*
X110942120Y-129661920D03*
X112041940Y-129661920D03*
X113141760Y-129661920D03*
X114241580Y-129661920D03*
X115341400Y-129661920D03*
X116441220Y-129661920D03*
X117541040Y-129661920D03*
X118640860Y-129661920D03*
D19*
X123190000Y-131112260D03*
D18*
X113141760Y-144658080D03*
X114241580Y-144658080D03*
X120840500Y-129661920D03*
D20*
X117525000Y-65345000D03*
X111075000Y-65345000D03*
X116750000Y-65345000D03*
X111850000Y-65345000D03*
D21*
X112550000Y-65345000D03*
X116050000Y-65345000D03*
X113050000Y-65345000D03*
X115550000Y-65345000D03*
X113550000Y-65345000D03*
X115050000Y-65345000D03*
X114550000Y-65345000D03*
X114050000Y-65345000D03*
D22*
X128930000Y-139700000D03*
D23*
X135230000Y-137400000D03*
X135230000Y-139700000D03*
X135230000Y-142000000D03*
D11*
G36*
X92814505Y-142811204D02*
G01*
X92838773Y-142814804D01*
X92862572Y-142820765D01*
X92885671Y-142829030D01*
X92907850Y-142839520D01*
X92928893Y-142852132D01*
X92948599Y-142866747D01*
X92966777Y-142883223D01*
X92983253Y-142901401D01*
X92997868Y-142921107D01*
X93010480Y-142942150D01*
X93020970Y-142964329D01*
X93029235Y-142987428D01*
X93035196Y-143011227D01*
X93038796Y-143035495D01*
X93040000Y-143059999D01*
X93040000Y-143960001D01*
X93038796Y-143984505D01*
X93035196Y-144008773D01*
X93029235Y-144032572D01*
X93020970Y-144055671D01*
X93010480Y-144077850D01*
X92997868Y-144098893D01*
X92983253Y-144118599D01*
X92966777Y-144136777D01*
X92948599Y-144153253D01*
X92928893Y-144167868D01*
X92907850Y-144180480D01*
X92885671Y-144190970D01*
X92862572Y-144199235D01*
X92838773Y-144205196D01*
X92814505Y-144208796D01*
X92790001Y-144210000D01*
X92139999Y-144210000D01*
X92115495Y-144208796D01*
X92091227Y-144205196D01*
X92067428Y-144199235D01*
X92044329Y-144190970D01*
X92022150Y-144180480D01*
X92001107Y-144167868D01*
X91981401Y-144153253D01*
X91963223Y-144136777D01*
X91946747Y-144118599D01*
X91932132Y-144098893D01*
X91919520Y-144077850D01*
X91909030Y-144055671D01*
X91900765Y-144032572D01*
X91894804Y-144008773D01*
X91891204Y-143984505D01*
X91890000Y-143960001D01*
X91890000Y-143059999D01*
X91891204Y-143035495D01*
X91894804Y-143011227D01*
X91900765Y-142987428D01*
X91909030Y-142964329D01*
X91919520Y-142942150D01*
X91932132Y-142921107D01*
X91946747Y-142901401D01*
X91963223Y-142883223D01*
X91981401Y-142866747D01*
X92001107Y-142852132D01*
X92022150Y-142839520D01*
X92044329Y-142829030D01*
X92067428Y-142820765D01*
X92091227Y-142814804D01*
X92115495Y-142811204D01*
X92139999Y-142810000D01*
X92790001Y-142810000D01*
X92814505Y-142811204D01*
X92814505Y-142811204D01*
G37*
D13*
X92465000Y-143510000D03*
D11*
G36*
X90764505Y-142811204D02*
G01*
X90788773Y-142814804D01*
X90812572Y-142820765D01*
X90835671Y-142829030D01*
X90857850Y-142839520D01*
X90878893Y-142852132D01*
X90898599Y-142866747D01*
X90916777Y-142883223D01*
X90933253Y-142901401D01*
X90947868Y-142921107D01*
X90960480Y-142942150D01*
X90970970Y-142964329D01*
X90979235Y-142987428D01*
X90985196Y-143011227D01*
X90988796Y-143035495D01*
X90990000Y-143059999D01*
X90990000Y-143960001D01*
X90988796Y-143984505D01*
X90985196Y-144008773D01*
X90979235Y-144032572D01*
X90970970Y-144055671D01*
X90960480Y-144077850D01*
X90947868Y-144098893D01*
X90933253Y-144118599D01*
X90916777Y-144136777D01*
X90898599Y-144153253D01*
X90878893Y-144167868D01*
X90857850Y-144180480D01*
X90835671Y-144190970D01*
X90812572Y-144199235D01*
X90788773Y-144205196D01*
X90764505Y-144208796D01*
X90740001Y-144210000D01*
X90089999Y-144210000D01*
X90065495Y-144208796D01*
X90041227Y-144205196D01*
X90017428Y-144199235D01*
X89994329Y-144190970D01*
X89972150Y-144180480D01*
X89951107Y-144167868D01*
X89931401Y-144153253D01*
X89913223Y-144136777D01*
X89896747Y-144118599D01*
X89882132Y-144098893D01*
X89869520Y-144077850D01*
X89859030Y-144055671D01*
X89850765Y-144032572D01*
X89844804Y-144008773D01*
X89841204Y-143984505D01*
X89840000Y-143960001D01*
X89840000Y-143059999D01*
X89841204Y-143035495D01*
X89844804Y-143011227D01*
X89850765Y-142987428D01*
X89859030Y-142964329D01*
X89869520Y-142942150D01*
X89882132Y-142921107D01*
X89896747Y-142901401D01*
X89913223Y-142883223D01*
X89931401Y-142866747D01*
X89951107Y-142852132D01*
X89972150Y-142839520D01*
X89994329Y-142829030D01*
X90017428Y-142820765D01*
X90041227Y-142814804D01*
X90065495Y-142811204D01*
X90089999Y-142810000D01*
X90740001Y-142810000D01*
X90764505Y-142811204D01*
X90764505Y-142811204D01*
G37*
D13*
X90415000Y-143510000D03*
D11*
G36*
X92814505Y-139001204D02*
G01*
X92838773Y-139004804D01*
X92862572Y-139010765D01*
X92885671Y-139019030D01*
X92907850Y-139029520D01*
X92928893Y-139042132D01*
X92948599Y-139056747D01*
X92966777Y-139073223D01*
X92983253Y-139091401D01*
X92997868Y-139111107D01*
X93010480Y-139132150D01*
X93020970Y-139154329D01*
X93029235Y-139177428D01*
X93035196Y-139201227D01*
X93038796Y-139225495D01*
X93040000Y-139249999D01*
X93040000Y-140150001D01*
X93038796Y-140174505D01*
X93035196Y-140198773D01*
X93029235Y-140222572D01*
X93020970Y-140245671D01*
X93010480Y-140267850D01*
X92997868Y-140288893D01*
X92983253Y-140308599D01*
X92966777Y-140326777D01*
X92948599Y-140343253D01*
X92928893Y-140357868D01*
X92907850Y-140370480D01*
X92885671Y-140380970D01*
X92862572Y-140389235D01*
X92838773Y-140395196D01*
X92814505Y-140398796D01*
X92790001Y-140400000D01*
X92139999Y-140400000D01*
X92115495Y-140398796D01*
X92091227Y-140395196D01*
X92067428Y-140389235D01*
X92044329Y-140380970D01*
X92022150Y-140370480D01*
X92001107Y-140357868D01*
X91981401Y-140343253D01*
X91963223Y-140326777D01*
X91946747Y-140308599D01*
X91932132Y-140288893D01*
X91919520Y-140267850D01*
X91909030Y-140245671D01*
X91900765Y-140222572D01*
X91894804Y-140198773D01*
X91891204Y-140174505D01*
X91890000Y-140150001D01*
X91890000Y-139249999D01*
X91891204Y-139225495D01*
X91894804Y-139201227D01*
X91900765Y-139177428D01*
X91909030Y-139154329D01*
X91919520Y-139132150D01*
X91932132Y-139111107D01*
X91946747Y-139091401D01*
X91963223Y-139073223D01*
X91981401Y-139056747D01*
X92001107Y-139042132D01*
X92022150Y-139029520D01*
X92044329Y-139019030D01*
X92067428Y-139010765D01*
X92091227Y-139004804D01*
X92115495Y-139001204D01*
X92139999Y-139000000D01*
X92790001Y-139000000D01*
X92814505Y-139001204D01*
X92814505Y-139001204D01*
G37*
D13*
X92465000Y-139700000D03*
D11*
G36*
X90764505Y-139001204D02*
G01*
X90788773Y-139004804D01*
X90812572Y-139010765D01*
X90835671Y-139019030D01*
X90857850Y-139029520D01*
X90878893Y-139042132D01*
X90898599Y-139056747D01*
X90916777Y-139073223D01*
X90933253Y-139091401D01*
X90947868Y-139111107D01*
X90960480Y-139132150D01*
X90970970Y-139154329D01*
X90979235Y-139177428D01*
X90985196Y-139201227D01*
X90988796Y-139225495D01*
X90990000Y-139249999D01*
X90990000Y-140150001D01*
X90988796Y-140174505D01*
X90985196Y-140198773D01*
X90979235Y-140222572D01*
X90970970Y-140245671D01*
X90960480Y-140267850D01*
X90947868Y-140288893D01*
X90933253Y-140308599D01*
X90916777Y-140326777D01*
X90898599Y-140343253D01*
X90878893Y-140357868D01*
X90857850Y-140370480D01*
X90835671Y-140380970D01*
X90812572Y-140389235D01*
X90788773Y-140395196D01*
X90764505Y-140398796D01*
X90740001Y-140400000D01*
X90089999Y-140400000D01*
X90065495Y-140398796D01*
X90041227Y-140395196D01*
X90017428Y-140389235D01*
X89994329Y-140380970D01*
X89972150Y-140370480D01*
X89951107Y-140357868D01*
X89931401Y-140343253D01*
X89913223Y-140326777D01*
X89896747Y-140308599D01*
X89882132Y-140288893D01*
X89869520Y-140267850D01*
X89859030Y-140245671D01*
X89850765Y-140222572D01*
X89844804Y-140198773D01*
X89841204Y-140174505D01*
X89840000Y-140150001D01*
X89840000Y-139249999D01*
X89841204Y-139225495D01*
X89844804Y-139201227D01*
X89850765Y-139177428D01*
X89859030Y-139154329D01*
X89869520Y-139132150D01*
X89882132Y-139111107D01*
X89896747Y-139091401D01*
X89913223Y-139073223D01*
X89931401Y-139056747D01*
X89951107Y-139042132D01*
X89972150Y-139029520D01*
X89994329Y-139019030D01*
X90017428Y-139010765D01*
X90041227Y-139004804D01*
X90065495Y-139001204D01*
X90089999Y-139000000D01*
X90740001Y-139000000D01*
X90764505Y-139001204D01*
X90764505Y-139001204D01*
G37*
D13*
X90415000Y-139700000D03*
D11*
G36*
X92814505Y-135191204D02*
G01*
X92838773Y-135194804D01*
X92862572Y-135200765D01*
X92885671Y-135209030D01*
X92907850Y-135219520D01*
X92928893Y-135232132D01*
X92948599Y-135246747D01*
X92966777Y-135263223D01*
X92983253Y-135281401D01*
X92997868Y-135301107D01*
X93010480Y-135322150D01*
X93020970Y-135344329D01*
X93029235Y-135367428D01*
X93035196Y-135391227D01*
X93038796Y-135415495D01*
X93040000Y-135439999D01*
X93040000Y-136340001D01*
X93038796Y-136364505D01*
X93035196Y-136388773D01*
X93029235Y-136412572D01*
X93020970Y-136435671D01*
X93010480Y-136457850D01*
X92997868Y-136478893D01*
X92983253Y-136498599D01*
X92966777Y-136516777D01*
X92948599Y-136533253D01*
X92928893Y-136547868D01*
X92907850Y-136560480D01*
X92885671Y-136570970D01*
X92862572Y-136579235D01*
X92838773Y-136585196D01*
X92814505Y-136588796D01*
X92790001Y-136590000D01*
X92139999Y-136590000D01*
X92115495Y-136588796D01*
X92091227Y-136585196D01*
X92067428Y-136579235D01*
X92044329Y-136570970D01*
X92022150Y-136560480D01*
X92001107Y-136547868D01*
X91981401Y-136533253D01*
X91963223Y-136516777D01*
X91946747Y-136498599D01*
X91932132Y-136478893D01*
X91919520Y-136457850D01*
X91909030Y-136435671D01*
X91900765Y-136412572D01*
X91894804Y-136388773D01*
X91891204Y-136364505D01*
X91890000Y-136340001D01*
X91890000Y-135439999D01*
X91891204Y-135415495D01*
X91894804Y-135391227D01*
X91900765Y-135367428D01*
X91909030Y-135344329D01*
X91919520Y-135322150D01*
X91932132Y-135301107D01*
X91946747Y-135281401D01*
X91963223Y-135263223D01*
X91981401Y-135246747D01*
X92001107Y-135232132D01*
X92022150Y-135219520D01*
X92044329Y-135209030D01*
X92067428Y-135200765D01*
X92091227Y-135194804D01*
X92115495Y-135191204D01*
X92139999Y-135190000D01*
X92790001Y-135190000D01*
X92814505Y-135191204D01*
X92814505Y-135191204D01*
G37*
D13*
X92465000Y-135890000D03*
D11*
G36*
X90764505Y-135191204D02*
G01*
X90788773Y-135194804D01*
X90812572Y-135200765D01*
X90835671Y-135209030D01*
X90857850Y-135219520D01*
X90878893Y-135232132D01*
X90898599Y-135246747D01*
X90916777Y-135263223D01*
X90933253Y-135281401D01*
X90947868Y-135301107D01*
X90960480Y-135322150D01*
X90970970Y-135344329D01*
X90979235Y-135367428D01*
X90985196Y-135391227D01*
X90988796Y-135415495D01*
X90990000Y-135439999D01*
X90990000Y-136340001D01*
X90988796Y-136364505D01*
X90985196Y-136388773D01*
X90979235Y-136412572D01*
X90970970Y-136435671D01*
X90960480Y-136457850D01*
X90947868Y-136478893D01*
X90933253Y-136498599D01*
X90916777Y-136516777D01*
X90898599Y-136533253D01*
X90878893Y-136547868D01*
X90857850Y-136560480D01*
X90835671Y-136570970D01*
X90812572Y-136579235D01*
X90788773Y-136585196D01*
X90764505Y-136588796D01*
X90740001Y-136590000D01*
X90089999Y-136590000D01*
X90065495Y-136588796D01*
X90041227Y-136585196D01*
X90017428Y-136579235D01*
X89994329Y-136570970D01*
X89972150Y-136560480D01*
X89951107Y-136547868D01*
X89931401Y-136533253D01*
X89913223Y-136516777D01*
X89896747Y-136498599D01*
X89882132Y-136478893D01*
X89869520Y-136457850D01*
X89859030Y-136435671D01*
X89850765Y-136412572D01*
X89844804Y-136388773D01*
X89841204Y-136364505D01*
X89840000Y-136340001D01*
X89840000Y-135439999D01*
X89841204Y-135415495D01*
X89844804Y-135391227D01*
X89850765Y-135367428D01*
X89859030Y-135344329D01*
X89869520Y-135322150D01*
X89882132Y-135301107D01*
X89896747Y-135281401D01*
X89913223Y-135263223D01*
X89931401Y-135246747D01*
X89951107Y-135232132D01*
X89972150Y-135219520D01*
X89994329Y-135209030D01*
X90017428Y-135200765D01*
X90041227Y-135194804D01*
X90065495Y-135191204D01*
X90089999Y-135190000D01*
X90740001Y-135190000D01*
X90764505Y-135191204D01*
X90764505Y-135191204D01*
G37*
D13*
X90415000Y-135890000D03*
D24*
X135315000Y-123666000D03*
X149165000Y-121126000D03*
X116265000Y-123666000D03*
X130115000Y-121126000D03*
X97215000Y-123666000D03*
X111065000Y-121126000D03*
X78165000Y-123666000D03*
X92015000Y-121126000D03*
X150435000Y-109696000D03*
X136585000Y-112236000D03*
X131385000Y-109696000D03*
X117535000Y-112236000D03*
X112335000Y-109696000D03*
X98485000Y-112236000D03*
X93285000Y-109696000D03*
X79435000Y-112236000D03*
X135315000Y-85566200D03*
X149165000Y-83026200D03*
X116265000Y-85566200D03*
X130115000Y-83026200D03*
X97215000Y-85566200D03*
X111065000Y-83026200D03*
X78165000Y-85566200D03*
X92015000Y-83026200D03*
X150435000Y-71596200D03*
X136585000Y-74136200D03*
X131385000Y-71596200D03*
X117535000Y-74136200D03*
X112335000Y-71596200D03*
X98485000Y-74136200D03*
X93285000Y-71596200D03*
X79435000Y-74136200D03*
D25*
X134620000Y-129035000D03*
X134620000Y-132585000D03*
X132080000Y-129035000D03*
X132080000Y-132585000D03*
X96520000Y-129035000D03*
X96520000Y-132585000D03*
X93980000Y-129035000D03*
X93980000Y-132585000D03*
D26*
X141100000Y-116840000D03*
X144650000Y-116840000D03*
X122017000Y-116840000D03*
X125567000Y-116840000D03*
X103000000Y-116840000D03*
X106550000Y-116840000D03*
X83950000Y-116840000D03*
X87500000Y-116840000D03*
D25*
X134620000Y-90935000D03*
X134620000Y-94485000D03*
X132080000Y-90935000D03*
X132080000Y-94485000D03*
D26*
X103000000Y-78740000D03*
X106550000Y-78740000D03*
X83950000Y-78740000D03*
X87500000Y-78740000D03*
X141100000Y-78581200D03*
X144650000Y-78581200D03*
X122050000Y-78581200D03*
X125600000Y-78581200D03*
D25*
X96520000Y-62995000D03*
X96520000Y-66545000D03*
X93980000Y-62995000D03*
X93980000Y-66545000D03*
M02*
