G04 #@! TF.GenerationSoftware,KiCad,Pcbnew,(5.1.2)-2*
G04 #@! TF.CreationDate,2020-01-16T13:47:14+08:00*
G04 #@! TF.ProjectId,wingxx-receiver-v3,77696e67-7878-42d7-9265-636569766572,rev?*
G04 #@! TF.SameCoordinates,Original*
G04 #@! TF.FileFunction,Copper,L1,Top*
G04 #@! TF.FilePolarity,Positive*
%FSLAX46Y46*%
G04 Gerber Fmt 4.6, Leading zero omitted, Abs format (unit mm)*
G04 Created by KiCad (PCBNEW (5.1.2)-2) date 2020-01-16 13:47:14*
%MOMM*%
%LPD*%
G04 APERTURE LIST*
%ADD10O,1.000000X2.100000*%
%ADD11O,1.000000X1.600000*%
%ADD12O,1.700000X1.700000*%
%ADD13R,1.700000X1.700000*%
%ADD14C,0.800000*%
%ADD15C,0.250000*%
%ADD16C,0.254000*%
G04 APERTURE END LIST*
D10*
X109980000Y-63930000D03*
X118620000Y-63930000D03*
D11*
X109980000Y-59750000D03*
X118620000Y-59750000D03*
D12*
X146050000Y-63500000D03*
X143510000Y-63500000D03*
D13*
X140970000Y-63500000D03*
D12*
X147320000Y-137160000D03*
X144780000Y-137160000D03*
X142240000Y-137160000D03*
D13*
X139700000Y-137160000D03*
D14*
X121768100Y-79929200D03*
X98261000Y-64472100D03*
X98649000Y-99068600D03*
X99139000Y-90607800D03*
X98038200Y-83121100D03*
X98600500Y-96664200D03*
X92980200Y-118368200D03*
X91980500Y-93858500D03*
X92454800Y-112463900D03*
X90098000Y-76196800D03*
X88186000Y-100149800D03*
X105631300Y-92244300D03*
X100504000Y-78686800D03*
X102425600Y-102876100D03*
X105596100Y-138318200D03*
X95305000Y-130927500D03*
X100346400Y-102760600D03*
X98422500Y-63247300D03*
X107197600Y-61519700D03*
X103748000Y-63744900D03*
X89474500Y-139945000D03*
X98200400Y-100563100D03*
X87930500Y-101790000D03*
X87298900Y-97345400D03*
X93538300Y-85431400D03*
X97866900Y-94375300D03*
X87671600Y-62799400D03*
X93008100Y-93594300D03*
X92307200Y-64311400D03*
X92929300Y-90678600D03*
D15*
X103240000Y-93387800D02*
X103658200Y-92969600D01*
X103658200Y-92969600D02*
X108727700Y-92969600D01*
X108727700Y-92969600D02*
X121768100Y-79929200D01*
X103240000Y-93387800D02*
X98518700Y-88666500D01*
X98518700Y-88666500D02*
X98518700Y-83666400D01*
X98518700Y-83666400D02*
X98776300Y-83408800D01*
X98776300Y-83408800D02*
X98776300Y-81863400D01*
X98776300Y-81863400D02*
X98261000Y-81348100D01*
X98261000Y-81348100D02*
X98261000Y-64472100D01*
X98649000Y-99068600D02*
X103240000Y-94477600D01*
X103240000Y-94477600D02*
X103240000Y-93387800D01*
X98600500Y-90607800D02*
X99139000Y-90607800D01*
X98600500Y-96664200D02*
X98600500Y-90607800D01*
X98600500Y-90607800D02*
X98038200Y-90045500D01*
X98038200Y-90045500D02*
X98038200Y-83121100D01*
X92980200Y-118368200D02*
X93180100Y-118168300D01*
X93180100Y-118168300D02*
X93180100Y-95058100D01*
X93180100Y-95058100D02*
X91980500Y-93858500D01*
X88186000Y-100149800D02*
X88186000Y-88925300D01*
X88186000Y-88925300D02*
X90098000Y-87013300D01*
X90098000Y-87013300D02*
X90098000Y-76196800D01*
X88186000Y-100149800D02*
X92454800Y-104418600D01*
X92454800Y-104418600D02*
X92454800Y-112463900D01*
X100504000Y-78686800D02*
X102791000Y-80973800D01*
X102791000Y-80973800D02*
X102791000Y-86764200D01*
X102791000Y-86764200D02*
X102405300Y-87149900D01*
X102405300Y-87149900D02*
X102405300Y-89018300D01*
X102405300Y-89018300D02*
X105631300Y-92244300D01*
X109980000Y-63930000D02*
X106598400Y-63930000D01*
X106598400Y-63930000D02*
X100409600Y-70118800D01*
X100409600Y-70118800D02*
X100409600Y-78592400D01*
X100409600Y-78592400D02*
X100504000Y-78686800D01*
X109980000Y-63930000D02*
X109980000Y-60875300D01*
X109980000Y-59750000D02*
X109980000Y-60875300D01*
X118620000Y-62319400D02*
X118620000Y-63930000D01*
X118620000Y-59750000D02*
X118620000Y-62319400D01*
X118620000Y-62319400D02*
X144061400Y-62319400D01*
X144061400Y-62319400D02*
X144874700Y-63132700D01*
X144874700Y-63132700D02*
X144874700Y-63500000D01*
X146050000Y-63500000D02*
X144874700Y-63500000D01*
X146050000Y-63500000D02*
X146050000Y-64675300D01*
X142240000Y-137160000D02*
X142240000Y-135984700D01*
X142240000Y-135984700D02*
X149133300Y-129091400D01*
X149133300Y-129091400D02*
X149133300Y-67758600D01*
X149133300Y-67758600D02*
X146050000Y-64675300D01*
X102425600Y-102876100D02*
X102425600Y-108223000D01*
X102425600Y-108223000D02*
X104749600Y-110547000D01*
X104749600Y-110547000D02*
X104749600Y-122219500D01*
X104749600Y-122219500D02*
X107131800Y-124601700D01*
X107131800Y-124601700D02*
X107131800Y-136782500D01*
X107131800Y-136782500D02*
X105596100Y-138318200D01*
X95305000Y-130927500D02*
X95305000Y-107802000D01*
X95305000Y-107802000D02*
X100346400Y-102760600D01*
X103748000Y-63744900D02*
X105973200Y-61519700D01*
X105973200Y-61519700D02*
X107197600Y-61519700D01*
X89474500Y-139945000D02*
X93777500Y-135642000D01*
X93777500Y-135642000D02*
X93777500Y-87622100D01*
X93777500Y-87622100D02*
X92813000Y-86657600D01*
X92813000Y-86657600D02*
X92813000Y-68845100D01*
X92813000Y-68845100D02*
X97913200Y-63744900D01*
X97913200Y-63744900D02*
X98422500Y-63744900D01*
X103748000Y-63744900D02*
X98422500Y-63744900D01*
X98422500Y-63744900D02*
X98422500Y-63247300D01*
X98200400Y-100563100D02*
X105343600Y-93419900D01*
X105343600Y-93419900D02*
X109579800Y-93419900D01*
X109579800Y-93419900D02*
X138324400Y-64675300D01*
X138324400Y-64675300D02*
X141967500Y-64675300D01*
X141967500Y-64675300D02*
X142334700Y-64308100D01*
X142334700Y-64308100D02*
X142334700Y-63500000D01*
X143510000Y-63500000D02*
X142334700Y-63500000D01*
X87930500Y-101790000D02*
X87298900Y-101158400D01*
X87298900Y-101158400D02*
X87298900Y-97345400D01*
X97866900Y-94375300D02*
X97866900Y-90685800D01*
X97866900Y-90685800D02*
X93538300Y-86357200D01*
X93538300Y-86357200D02*
X93538300Y-85431400D01*
X93008100Y-93594300D02*
X92137600Y-92723800D01*
X92137600Y-92723800D02*
X92137600Y-87371900D01*
X92137600Y-87371900D02*
X90828700Y-86063000D01*
X90828700Y-86063000D02*
X90828700Y-75655200D01*
X90828700Y-75655200D02*
X87682800Y-72509300D01*
X87682800Y-72509300D02*
X87682800Y-70734900D01*
X87682800Y-70734900D02*
X88047400Y-70370300D01*
X88047400Y-70370300D02*
X88047400Y-63175200D01*
X88047400Y-63175200D02*
X87671600Y-62799400D01*
X92929300Y-90678600D02*
X92929300Y-87410800D01*
X92929300Y-87410800D02*
X92307300Y-86788800D01*
X92307300Y-86788800D02*
X92307300Y-64311400D01*
X92307300Y-64311400D02*
X92307200Y-64311400D01*
D16*
G36*
X108845000Y-60177000D02*
G01*
X108891585Y-60395987D01*
X108979997Y-60601678D01*
X109106839Y-60786169D01*
X109267236Y-60942369D01*
X109455024Y-61064276D01*
X109678126Y-61144119D01*
X109853000Y-61017954D01*
X109853000Y-59877000D01*
X109833000Y-59877000D01*
X109833000Y-59817000D01*
X110127000Y-59817000D01*
X110127000Y-59877000D01*
X110107000Y-59877000D01*
X110107000Y-61017954D01*
X110281874Y-61144119D01*
X110504976Y-61064276D01*
X110692764Y-60942369D01*
X110853161Y-60786169D01*
X110980003Y-60601678D01*
X111068415Y-60395987D01*
X111115000Y-60177000D01*
X111115000Y-59817000D01*
X117485000Y-59817000D01*
X117485000Y-60177000D01*
X117531585Y-60395987D01*
X117619997Y-60601678D01*
X117746839Y-60786169D01*
X117907236Y-60942369D01*
X118095024Y-61064276D01*
X118318126Y-61144119D01*
X118493000Y-61017954D01*
X118493000Y-59877000D01*
X118473000Y-59877000D01*
X118473000Y-59817000D01*
X118767000Y-59817000D01*
X118767000Y-59877000D01*
X118747000Y-59877000D01*
X118747000Y-61017954D01*
X118921874Y-61144119D01*
X119144976Y-61064276D01*
X119332764Y-60942369D01*
X119493161Y-60786169D01*
X119620003Y-60601678D01*
X119708415Y-60395987D01*
X119755000Y-60177000D01*
X119755000Y-59817000D01*
X149807394Y-59817000D01*
X152273000Y-62282606D01*
X152273000Y-140917394D01*
X149807394Y-143383000D01*
X123317000Y-143383000D01*
X123317000Y-136310000D01*
X138211928Y-136310000D01*
X138211928Y-138010000D01*
X138224188Y-138134482D01*
X138260498Y-138254180D01*
X138319463Y-138364494D01*
X138398815Y-138461185D01*
X138495506Y-138540537D01*
X138605820Y-138599502D01*
X138725518Y-138635812D01*
X138850000Y-138648072D01*
X140550000Y-138648072D01*
X140674482Y-138635812D01*
X140794180Y-138599502D01*
X140904494Y-138540537D01*
X141001185Y-138461185D01*
X141080537Y-138364494D01*
X141139502Y-138254180D01*
X141163966Y-138173534D01*
X141239731Y-138257588D01*
X141473080Y-138431641D01*
X141735901Y-138556825D01*
X141883110Y-138601476D01*
X142113000Y-138480155D01*
X142113000Y-137287000D01*
X142093000Y-137287000D01*
X142093000Y-137033000D01*
X142113000Y-137033000D01*
X142113000Y-135839845D01*
X142367000Y-135839845D01*
X142367000Y-137033000D01*
X142387000Y-137033000D01*
X142387000Y-137287000D01*
X142367000Y-137287000D01*
X142367000Y-138480155D01*
X142596890Y-138601476D01*
X142744099Y-138556825D01*
X143006920Y-138431641D01*
X143240269Y-138257588D01*
X143435178Y-138041355D01*
X143504799Y-137924477D01*
X143539294Y-137989014D01*
X143724866Y-138215134D01*
X143950986Y-138400706D01*
X144208966Y-138538599D01*
X144488889Y-138623513D01*
X144707050Y-138645000D01*
X144852950Y-138645000D01*
X145071111Y-138623513D01*
X145351034Y-138538599D01*
X145609014Y-138400706D01*
X145835134Y-138215134D01*
X146020706Y-137989014D01*
X146050000Y-137934209D01*
X146079294Y-137989014D01*
X146264866Y-138215134D01*
X146490986Y-138400706D01*
X146748966Y-138538599D01*
X147028889Y-138623513D01*
X147247050Y-138645000D01*
X147392950Y-138645000D01*
X147611111Y-138623513D01*
X147891034Y-138538599D01*
X148149014Y-138400706D01*
X148375134Y-138215134D01*
X148560706Y-137989014D01*
X148698599Y-137731034D01*
X148783513Y-137451111D01*
X148812185Y-137160000D01*
X148783513Y-136868889D01*
X148698599Y-136588966D01*
X148560706Y-136330986D01*
X148375134Y-136104866D01*
X148149014Y-135919294D01*
X147891034Y-135781401D01*
X147611111Y-135696487D01*
X147392950Y-135675000D01*
X147247050Y-135675000D01*
X147028889Y-135696487D01*
X146748966Y-135781401D01*
X146490986Y-135919294D01*
X146264866Y-136104866D01*
X146079294Y-136330986D01*
X146050000Y-136385791D01*
X146020706Y-136330986D01*
X145835134Y-136104866D01*
X145609014Y-135919294D01*
X145351034Y-135781401D01*
X145071111Y-135696487D01*
X144852950Y-135675000D01*
X144707050Y-135675000D01*
X144488889Y-135696487D01*
X144208966Y-135781401D01*
X143950986Y-135919294D01*
X143724866Y-136104866D01*
X143539294Y-136330986D01*
X143504799Y-136395523D01*
X143435178Y-136278645D01*
X143240269Y-136062412D01*
X143006920Y-135888359D01*
X142744099Y-135763175D01*
X142596890Y-135718524D01*
X142367000Y-135839845D01*
X142113000Y-135839845D01*
X141883110Y-135718524D01*
X141735901Y-135763175D01*
X141473080Y-135888359D01*
X141239731Y-136062412D01*
X141163966Y-136146466D01*
X141139502Y-136065820D01*
X141080537Y-135955506D01*
X141001185Y-135858815D01*
X140904494Y-135779463D01*
X140794180Y-135720498D01*
X140674482Y-135684188D01*
X140550000Y-135671928D01*
X138850000Y-135671928D01*
X138725518Y-135684188D01*
X138605820Y-135720498D01*
X138495506Y-135779463D01*
X138398815Y-135858815D01*
X138319463Y-135955506D01*
X138260498Y-136065820D01*
X138224188Y-136185518D01*
X138211928Y-136310000D01*
X123317000Y-136310000D01*
X123317000Y-129540000D01*
X123314560Y-129515224D01*
X123307333Y-129491399D01*
X123295597Y-129469443D01*
X123279803Y-129450197D01*
X123260557Y-129434403D01*
X123238601Y-129422667D01*
X123214776Y-129415440D01*
X123190000Y-129413000D01*
X107891800Y-129413000D01*
X107891800Y-126059652D01*
X108369100Y-126059652D01*
X108369100Y-126352348D01*
X108426202Y-126639421D01*
X108538212Y-126909838D01*
X108700826Y-127153206D01*
X108907794Y-127360174D01*
X109151162Y-127522788D01*
X109421579Y-127634798D01*
X109708652Y-127691900D01*
X110001348Y-127691900D01*
X110288421Y-127634798D01*
X110558838Y-127522788D01*
X110802206Y-127360174D01*
X111009174Y-127153206D01*
X111171788Y-126909838D01*
X111283798Y-126639421D01*
X111340900Y-126352348D01*
X111340900Y-126059652D01*
X117259100Y-126059652D01*
X117259100Y-126352348D01*
X117316202Y-126639421D01*
X117428212Y-126909838D01*
X117590826Y-127153206D01*
X117797794Y-127360174D01*
X118041162Y-127522788D01*
X118311579Y-127634798D01*
X118598652Y-127691900D01*
X118891348Y-127691900D01*
X119178421Y-127634798D01*
X119448838Y-127522788D01*
X119692206Y-127360174D01*
X119899174Y-127153206D01*
X120061788Y-126909838D01*
X120173798Y-126639421D01*
X120230900Y-126352348D01*
X120230900Y-126059652D01*
X120179451Y-125801000D01*
X120225279Y-125801000D01*
X120637756Y-125718953D01*
X121026302Y-125558012D01*
X121332708Y-125353279D01*
X121297127Y-125439178D01*
X121196100Y-125947076D01*
X121196100Y-126464924D01*
X121297127Y-126972822D01*
X121495299Y-127451251D01*
X121783000Y-127881826D01*
X122149174Y-128248000D01*
X122579749Y-128535701D01*
X123058178Y-128733873D01*
X123566076Y-128834900D01*
X124083924Y-128834900D01*
X124591822Y-128733873D01*
X125070251Y-128535701D01*
X125500826Y-128248000D01*
X125867000Y-127881826D01*
X126154701Y-127451251D01*
X126352873Y-126972822D01*
X126453900Y-126464924D01*
X126453900Y-126059652D01*
X127419100Y-126059652D01*
X127419100Y-126352348D01*
X127476202Y-126639421D01*
X127588212Y-126909838D01*
X127750826Y-127153206D01*
X127957794Y-127360174D01*
X128201162Y-127522788D01*
X128471579Y-127634798D01*
X128758652Y-127691900D01*
X129051348Y-127691900D01*
X129338421Y-127634798D01*
X129608838Y-127522788D01*
X129852206Y-127360174D01*
X130059174Y-127153206D01*
X130221788Y-126909838D01*
X130333798Y-126639421D01*
X130390900Y-126352348D01*
X130390900Y-126059652D01*
X136309100Y-126059652D01*
X136309100Y-126352348D01*
X136366202Y-126639421D01*
X136478212Y-126909838D01*
X136640826Y-127153206D01*
X136847794Y-127360174D01*
X137091162Y-127522788D01*
X137361579Y-127634798D01*
X137648652Y-127691900D01*
X137941348Y-127691900D01*
X138228421Y-127634798D01*
X138498838Y-127522788D01*
X138742206Y-127360174D01*
X138949174Y-127153206D01*
X139111788Y-126909838D01*
X139223798Y-126639421D01*
X139280900Y-126352348D01*
X139280900Y-126059652D01*
X139229451Y-125801000D01*
X139275279Y-125801000D01*
X139687756Y-125718953D01*
X140076302Y-125558012D01*
X140382708Y-125353279D01*
X140347127Y-125439178D01*
X140246100Y-125947076D01*
X140246100Y-126464924D01*
X140347127Y-126972822D01*
X140545299Y-127451251D01*
X140833000Y-127881826D01*
X141199174Y-128248000D01*
X141629749Y-128535701D01*
X142108178Y-128733873D01*
X142616076Y-128834900D01*
X143133924Y-128834900D01*
X143641822Y-128733873D01*
X144120251Y-128535701D01*
X144550826Y-128248000D01*
X144917000Y-127881826D01*
X145204701Y-127451251D01*
X145402873Y-126972822D01*
X145503900Y-126464924D01*
X145503900Y-126059652D01*
X146469100Y-126059652D01*
X146469100Y-126352348D01*
X146526202Y-126639421D01*
X146638212Y-126909838D01*
X146800826Y-127153206D01*
X147007794Y-127360174D01*
X147251162Y-127522788D01*
X147521579Y-127634798D01*
X147808652Y-127691900D01*
X148101348Y-127691900D01*
X148388421Y-127634798D01*
X148658838Y-127522788D01*
X148902206Y-127360174D01*
X149109174Y-127153206D01*
X149271788Y-126909838D01*
X149383798Y-126639421D01*
X149440900Y-126352348D01*
X149440900Y-126059652D01*
X149383798Y-125772579D01*
X149271788Y-125502162D01*
X149109174Y-125258794D01*
X148902206Y-125051826D01*
X148658838Y-124889212D01*
X148388421Y-124777202D01*
X148101348Y-124720100D01*
X147808652Y-124720100D01*
X147521579Y-124777202D01*
X147251162Y-124889212D01*
X147007794Y-125051826D01*
X146800826Y-125258794D01*
X146638212Y-125502162D01*
X146526202Y-125772579D01*
X146469100Y-126059652D01*
X145503900Y-126059652D01*
X145503900Y-125947076D01*
X145402873Y-125439178D01*
X145204701Y-124960749D01*
X144917000Y-124530174D01*
X144550826Y-124164000D01*
X144120251Y-123876299D01*
X143641822Y-123678127D01*
X143133924Y-123577100D01*
X142616076Y-123577100D01*
X142108178Y-123678127D01*
X141629749Y-123876299D01*
X141199174Y-124164000D01*
X141128763Y-124234411D01*
X141200000Y-123876279D01*
X141200000Y-123455721D01*
X141117953Y-123043244D01*
X140957012Y-122654698D01*
X140723363Y-122305017D01*
X140425983Y-122007637D01*
X140076302Y-121773988D01*
X139687756Y-121613047D01*
X139275279Y-121531000D01*
X138854721Y-121531000D01*
X138442244Y-121613047D01*
X138053698Y-121773988D01*
X137704017Y-122007637D01*
X137406637Y-122305017D01*
X137172988Y-122654698D01*
X137012047Y-123043244D01*
X136930000Y-123455721D01*
X136930000Y-123876279D01*
X137012047Y-124288756D01*
X137172988Y-124677302D01*
X137266150Y-124816730D01*
X137091162Y-124889212D01*
X136847794Y-125051826D01*
X136640826Y-125258794D01*
X136478212Y-125502162D01*
X136366202Y-125772579D01*
X136309100Y-126059652D01*
X130390900Y-126059652D01*
X130333798Y-125772579D01*
X130221788Y-125502162D01*
X130059174Y-125258794D01*
X129852206Y-125051826D01*
X129608838Y-124889212D01*
X129338421Y-124777202D01*
X129051348Y-124720100D01*
X128758652Y-124720100D01*
X128471579Y-124777202D01*
X128201162Y-124889212D01*
X127957794Y-125051826D01*
X127750826Y-125258794D01*
X127588212Y-125502162D01*
X127476202Y-125772579D01*
X127419100Y-126059652D01*
X126453900Y-126059652D01*
X126453900Y-125947076D01*
X126352873Y-125439178D01*
X126154701Y-124960749D01*
X125867000Y-124530174D01*
X125500826Y-124164000D01*
X125070251Y-123876299D01*
X124591822Y-123678127D01*
X124083924Y-123577100D01*
X123566076Y-123577100D01*
X123058178Y-123678127D01*
X122579749Y-123876299D01*
X122149174Y-124164000D01*
X122078763Y-124234411D01*
X122150000Y-123876279D01*
X122150000Y-123455721D01*
X122067953Y-123043244D01*
X121907012Y-122654698D01*
X121673363Y-122305017D01*
X121375983Y-122007637D01*
X121026302Y-121773988D01*
X120637756Y-121613047D01*
X120225279Y-121531000D01*
X119804721Y-121531000D01*
X119392244Y-121613047D01*
X119003698Y-121773988D01*
X118654017Y-122007637D01*
X118356637Y-122305017D01*
X118122988Y-122654698D01*
X117962047Y-123043244D01*
X117880000Y-123455721D01*
X117880000Y-123876279D01*
X117962047Y-124288756D01*
X118122988Y-124677302D01*
X118216150Y-124816730D01*
X118041162Y-124889212D01*
X117797794Y-125051826D01*
X117590826Y-125258794D01*
X117428212Y-125502162D01*
X117316202Y-125772579D01*
X117259100Y-126059652D01*
X111340900Y-126059652D01*
X111283798Y-125772579D01*
X111171788Y-125502162D01*
X111009174Y-125258794D01*
X110802206Y-125051826D01*
X110558838Y-124889212D01*
X110288421Y-124777202D01*
X110001348Y-124720100D01*
X109708652Y-124720100D01*
X109421579Y-124777202D01*
X109151162Y-124889212D01*
X108907794Y-125051826D01*
X108700826Y-125258794D01*
X108538212Y-125502162D01*
X108426202Y-125772579D01*
X108369100Y-126059652D01*
X107891800Y-126059652D01*
X107891800Y-124639033D01*
X107895477Y-124601700D01*
X107880803Y-124452714D01*
X107837346Y-124309453D01*
X107766774Y-124177424D01*
X107695599Y-124090697D01*
X107671801Y-124061699D01*
X107642804Y-124037902D01*
X106806602Y-123201700D01*
X107104721Y-123261000D01*
X107525279Y-123261000D01*
X107937756Y-123178953D01*
X108326302Y-123018012D01*
X108675983Y-122784363D01*
X108973363Y-122486983D01*
X109207012Y-122137302D01*
X109367953Y-121748756D01*
X109450000Y-121336279D01*
X109450000Y-120915721D01*
X124230000Y-120915721D01*
X124230000Y-121336279D01*
X124312047Y-121748756D01*
X124472988Y-122137302D01*
X124706637Y-122486983D01*
X125004017Y-122784363D01*
X125353698Y-123018012D01*
X125742244Y-123178953D01*
X126154721Y-123261000D01*
X126575279Y-123261000D01*
X126987756Y-123178953D01*
X127376302Y-123018012D01*
X127725983Y-122784363D01*
X128023363Y-122486983D01*
X128257012Y-122137302D01*
X128417953Y-121748756D01*
X128500000Y-121336279D01*
X128500000Y-120915721D01*
X143280000Y-120915721D01*
X143280000Y-121336279D01*
X143362047Y-121748756D01*
X143522988Y-122137302D01*
X143756637Y-122486983D01*
X144054017Y-122784363D01*
X144403698Y-123018012D01*
X144792244Y-123178953D01*
X145204721Y-123261000D01*
X145625279Y-123261000D01*
X146037756Y-123178953D01*
X146426302Y-123018012D01*
X146775983Y-122784363D01*
X147073363Y-122486983D01*
X147307012Y-122137302D01*
X147467953Y-121748756D01*
X147550000Y-121336279D01*
X147550000Y-120915721D01*
X147467953Y-120503244D01*
X147307012Y-120114698D01*
X147073363Y-119765017D01*
X146775983Y-119467637D01*
X146426302Y-119233988D01*
X146037756Y-119073047D01*
X145625279Y-118991000D01*
X145204721Y-118991000D01*
X144792244Y-119073047D01*
X144403698Y-119233988D01*
X144054017Y-119467637D01*
X143756637Y-119765017D01*
X143522988Y-120114698D01*
X143362047Y-120503244D01*
X143280000Y-120915721D01*
X128500000Y-120915721D01*
X128417953Y-120503244D01*
X128257012Y-120114698D01*
X128023363Y-119765017D01*
X127725983Y-119467637D01*
X127376302Y-119233988D01*
X126987756Y-119073047D01*
X126575279Y-118991000D01*
X126154721Y-118991000D01*
X125742244Y-119073047D01*
X125353698Y-119233988D01*
X125004017Y-119467637D01*
X124706637Y-119765017D01*
X124472988Y-120114698D01*
X124312047Y-120503244D01*
X124230000Y-120915721D01*
X109450000Y-120915721D01*
X109367953Y-120503244D01*
X109207012Y-120114698D01*
X108973363Y-119765017D01*
X108675983Y-119467637D01*
X108326302Y-119233988D01*
X107937756Y-119073047D01*
X107525279Y-118991000D01*
X107104721Y-118991000D01*
X106692244Y-119073047D01*
X106303698Y-119233988D01*
X105954017Y-119467637D01*
X105656637Y-119765017D01*
X105509600Y-119985074D01*
X105509600Y-112025721D01*
X119150000Y-112025721D01*
X119150000Y-112446279D01*
X119232047Y-112858756D01*
X119392988Y-113247302D01*
X119626637Y-113596983D01*
X119924017Y-113894363D01*
X120273698Y-114128012D01*
X120662244Y-114288953D01*
X121074721Y-114371000D01*
X121495279Y-114371000D01*
X121907756Y-114288953D01*
X122296302Y-114128012D01*
X122645983Y-113894363D01*
X122943363Y-113596983D01*
X123177012Y-113247302D01*
X123337953Y-112858756D01*
X123420000Y-112446279D01*
X123420000Y-112025721D01*
X138200000Y-112025721D01*
X138200000Y-112446279D01*
X138282047Y-112858756D01*
X138442988Y-113247302D01*
X138676637Y-113596983D01*
X138974017Y-113894363D01*
X139323698Y-114128012D01*
X139712244Y-114288953D01*
X140124721Y-114371000D01*
X140545279Y-114371000D01*
X140957756Y-114288953D01*
X141346302Y-114128012D01*
X141695983Y-113894363D01*
X141993363Y-113596983D01*
X142227012Y-113247302D01*
X142387953Y-112858756D01*
X142470000Y-112446279D01*
X142470000Y-112025721D01*
X142387953Y-111613244D01*
X142227012Y-111224698D01*
X141993363Y-110875017D01*
X141695983Y-110577637D01*
X141346302Y-110343988D01*
X140957756Y-110183047D01*
X140545279Y-110101000D01*
X140124721Y-110101000D01*
X139712244Y-110183047D01*
X139323698Y-110343988D01*
X138974017Y-110577637D01*
X138676637Y-110875017D01*
X138442988Y-111224698D01*
X138282047Y-111613244D01*
X138200000Y-112025721D01*
X123420000Y-112025721D01*
X123337953Y-111613244D01*
X123177012Y-111224698D01*
X122943363Y-110875017D01*
X122645983Y-110577637D01*
X122296302Y-110343988D01*
X121907756Y-110183047D01*
X121495279Y-110101000D01*
X121074721Y-110101000D01*
X120662244Y-110183047D01*
X120273698Y-110343988D01*
X119924017Y-110577637D01*
X119626637Y-110875017D01*
X119392988Y-111224698D01*
X119232047Y-111613244D01*
X119150000Y-112025721D01*
X105509600Y-112025721D01*
X105509600Y-110584322D01*
X105513276Y-110546999D01*
X105509600Y-110509676D01*
X105509600Y-110509667D01*
X105498603Y-110398014D01*
X105455146Y-110254753D01*
X105384574Y-110122724D01*
X105289601Y-110006999D01*
X105260604Y-109983202D01*
X105057594Y-109780192D01*
X105541822Y-109683873D01*
X106020251Y-109485701D01*
X106450826Y-109198000D01*
X106521237Y-109127589D01*
X106450000Y-109485721D01*
X106450000Y-109906279D01*
X106532047Y-110318756D01*
X106692988Y-110707302D01*
X106926637Y-111056983D01*
X107224017Y-111354363D01*
X107573698Y-111588012D01*
X107962244Y-111748953D01*
X108374721Y-111831000D01*
X108795279Y-111831000D01*
X109207756Y-111748953D01*
X109596302Y-111588012D01*
X109945983Y-111354363D01*
X110243363Y-111056983D01*
X110477012Y-110707302D01*
X110637953Y-110318756D01*
X110720000Y-109906279D01*
X110720000Y-109485721D01*
X110637953Y-109073244D01*
X110477012Y-108684698D01*
X110383850Y-108545270D01*
X110558838Y-108472788D01*
X110802206Y-108310174D01*
X111009174Y-108103206D01*
X111171788Y-107859838D01*
X111283798Y-107589421D01*
X111340900Y-107302348D01*
X111340900Y-107009652D01*
X117259100Y-107009652D01*
X117259100Y-107302348D01*
X117316202Y-107589421D01*
X117428212Y-107859838D01*
X117590826Y-108103206D01*
X117797794Y-108310174D01*
X118041162Y-108472788D01*
X118311579Y-108584798D01*
X118598652Y-108641900D01*
X118891348Y-108641900D01*
X119178421Y-108584798D01*
X119448838Y-108472788D01*
X119692206Y-108310174D01*
X119899174Y-108103206D01*
X120061788Y-107859838D01*
X120173798Y-107589421D01*
X120230900Y-107302348D01*
X120230900Y-107009652D01*
X120208508Y-106897076D01*
X121196100Y-106897076D01*
X121196100Y-107414924D01*
X121297127Y-107922822D01*
X121495299Y-108401251D01*
X121783000Y-108831826D01*
X122149174Y-109198000D01*
X122579749Y-109485701D01*
X123058178Y-109683873D01*
X123566076Y-109784900D01*
X124083924Y-109784900D01*
X124591822Y-109683873D01*
X125070251Y-109485701D01*
X125500826Y-109198000D01*
X125571237Y-109127589D01*
X125500000Y-109485721D01*
X125500000Y-109906279D01*
X125582047Y-110318756D01*
X125742988Y-110707302D01*
X125976637Y-111056983D01*
X126274017Y-111354363D01*
X126623698Y-111588012D01*
X127012244Y-111748953D01*
X127424721Y-111831000D01*
X127845279Y-111831000D01*
X128257756Y-111748953D01*
X128646302Y-111588012D01*
X128995983Y-111354363D01*
X129293363Y-111056983D01*
X129527012Y-110707302D01*
X129687953Y-110318756D01*
X129770000Y-109906279D01*
X129770000Y-109485721D01*
X129687953Y-109073244D01*
X129527012Y-108684698D01*
X129433850Y-108545270D01*
X129608838Y-108472788D01*
X129852206Y-108310174D01*
X130059174Y-108103206D01*
X130221788Y-107859838D01*
X130333798Y-107589421D01*
X130390900Y-107302348D01*
X130390900Y-107009652D01*
X136309100Y-107009652D01*
X136309100Y-107302348D01*
X136366202Y-107589421D01*
X136478212Y-107859838D01*
X136640826Y-108103206D01*
X136847794Y-108310174D01*
X137091162Y-108472788D01*
X137361579Y-108584798D01*
X137648652Y-108641900D01*
X137941348Y-108641900D01*
X138228421Y-108584798D01*
X138498838Y-108472788D01*
X138742206Y-108310174D01*
X138949174Y-108103206D01*
X139111788Y-107859838D01*
X139223798Y-107589421D01*
X139280900Y-107302348D01*
X139280900Y-107009652D01*
X139258508Y-106897076D01*
X140246100Y-106897076D01*
X140246100Y-107414924D01*
X140347127Y-107922822D01*
X140545299Y-108401251D01*
X140833000Y-108831826D01*
X141199174Y-109198000D01*
X141629749Y-109485701D01*
X142108178Y-109683873D01*
X142616076Y-109784900D01*
X143133924Y-109784900D01*
X143641822Y-109683873D01*
X144120251Y-109485701D01*
X144550826Y-109198000D01*
X144621237Y-109127589D01*
X144550000Y-109485721D01*
X144550000Y-109906279D01*
X144632047Y-110318756D01*
X144792988Y-110707302D01*
X145026637Y-111056983D01*
X145324017Y-111354363D01*
X145673698Y-111588012D01*
X146062244Y-111748953D01*
X146474721Y-111831000D01*
X146895279Y-111831000D01*
X147307756Y-111748953D01*
X147696302Y-111588012D01*
X148045983Y-111354363D01*
X148343363Y-111056983D01*
X148577012Y-110707302D01*
X148737953Y-110318756D01*
X148820000Y-109906279D01*
X148820000Y-109485721D01*
X148737953Y-109073244D01*
X148577012Y-108684698D01*
X148483850Y-108545270D01*
X148658838Y-108472788D01*
X148902206Y-108310174D01*
X149109174Y-108103206D01*
X149271788Y-107859838D01*
X149383798Y-107589421D01*
X149440900Y-107302348D01*
X149440900Y-107009652D01*
X149383798Y-106722579D01*
X149271788Y-106452162D01*
X149109174Y-106208794D01*
X148902206Y-106001826D01*
X148658838Y-105839212D01*
X148388421Y-105727202D01*
X148101348Y-105670100D01*
X147808652Y-105670100D01*
X147521579Y-105727202D01*
X147251162Y-105839212D01*
X147007794Y-106001826D01*
X146800826Y-106208794D01*
X146638212Y-106452162D01*
X146526202Y-106722579D01*
X146469100Y-107009652D01*
X146469100Y-107302348D01*
X146520549Y-107561000D01*
X146474721Y-107561000D01*
X146062244Y-107643047D01*
X145673698Y-107803988D01*
X145367292Y-108008721D01*
X145402873Y-107922822D01*
X145503900Y-107414924D01*
X145503900Y-106897076D01*
X145402873Y-106389178D01*
X145204701Y-105910749D01*
X144917000Y-105480174D01*
X144550826Y-105114000D01*
X144120251Y-104826299D01*
X143641822Y-104628127D01*
X143133924Y-104527100D01*
X142616076Y-104527100D01*
X142108178Y-104628127D01*
X141629749Y-104826299D01*
X141199174Y-105114000D01*
X140833000Y-105480174D01*
X140545299Y-105910749D01*
X140347127Y-106389178D01*
X140246100Y-106897076D01*
X139258508Y-106897076D01*
X139223798Y-106722579D01*
X139111788Y-106452162D01*
X138949174Y-106208794D01*
X138742206Y-106001826D01*
X138498838Y-105839212D01*
X138228421Y-105727202D01*
X137941348Y-105670100D01*
X137648652Y-105670100D01*
X137361579Y-105727202D01*
X137091162Y-105839212D01*
X136847794Y-106001826D01*
X136640826Y-106208794D01*
X136478212Y-106452162D01*
X136366202Y-106722579D01*
X136309100Y-107009652D01*
X130390900Y-107009652D01*
X130333798Y-106722579D01*
X130221788Y-106452162D01*
X130059174Y-106208794D01*
X129852206Y-106001826D01*
X129608838Y-105839212D01*
X129338421Y-105727202D01*
X129051348Y-105670100D01*
X128758652Y-105670100D01*
X128471579Y-105727202D01*
X128201162Y-105839212D01*
X127957794Y-106001826D01*
X127750826Y-106208794D01*
X127588212Y-106452162D01*
X127476202Y-106722579D01*
X127419100Y-107009652D01*
X127419100Y-107302348D01*
X127470549Y-107561000D01*
X127424721Y-107561000D01*
X127012244Y-107643047D01*
X126623698Y-107803988D01*
X126317292Y-108008721D01*
X126352873Y-107922822D01*
X126453900Y-107414924D01*
X126453900Y-106897076D01*
X126352873Y-106389178D01*
X126154701Y-105910749D01*
X125867000Y-105480174D01*
X125500826Y-105114000D01*
X125070251Y-104826299D01*
X124591822Y-104628127D01*
X124083924Y-104527100D01*
X123566076Y-104527100D01*
X123058178Y-104628127D01*
X122579749Y-104826299D01*
X122149174Y-105114000D01*
X121783000Y-105480174D01*
X121495299Y-105910749D01*
X121297127Y-106389178D01*
X121196100Y-106897076D01*
X120208508Y-106897076D01*
X120173798Y-106722579D01*
X120061788Y-106452162D01*
X119899174Y-106208794D01*
X119692206Y-106001826D01*
X119448838Y-105839212D01*
X119178421Y-105727202D01*
X118891348Y-105670100D01*
X118598652Y-105670100D01*
X118311579Y-105727202D01*
X118041162Y-105839212D01*
X117797794Y-106001826D01*
X117590826Y-106208794D01*
X117428212Y-106452162D01*
X117316202Y-106722579D01*
X117259100Y-107009652D01*
X111340900Y-107009652D01*
X111283798Y-106722579D01*
X111171788Y-106452162D01*
X111009174Y-106208794D01*
X110802206Y-106001826D01*
X110558838Y-105839212D01*
X110288421Y-105727202D01*
X110001348Y-105670100D01*
X109708652Y-105670100D01*
X109421579Y-105727202D01*
X109151162Y-105839212D01*
X108907794Y-106001826D01*
X108700826Y-106208794D01*
X108538212Y-106452162D01*
X108426202Y-106722579D01*
X108369100Y-107009652D01*
X108369100Y-107302348D01*
X108420549Y-107561000D01*
X108374721Y-107561000D01*
X107962244Y-107643047D01*
X107573698Y-107803988D01*
X107267292Y-108008721D01*
X107302873Y-107922822D01*
X107403900Y-107414924D01*
X107403900Y-106897076D01*
X107302873Y-106389178D01*
X107104701Y-105910749D01*
X106817000Y-105480174D01*
X106450826Y-105114000D01*
X106020251Y-104826299D01*
X105541822Y-104628127D01*
X105033924Y-104527100D01*
X104516076Y-104527100D01*
X104008178Y-104628127D01*
X103529749Y-104826299D01*
X103185600Y-105056252D01*
X103185600Y-103579811D01*
X103229537Y-103535874D01*
X103342805Y-103366356D01*
X103420826Y-103177998D01*
X103460600Y-102978039D01*
X103460600Y-102774161D01*
X103420826Y-102574202D01*
X103342805Y-102385844D01*
X103229537Y-102216326D01*
X103085374Y-102072163D01*
X102915856Y-101958895D01*
X102727498Y-101880874D01*
X102527539Y-101841100D01*
X102323661Y-101841100D01*
X102123702Y-101880874D01*
X101935344Y-101958895D01*
X101765826Y-102072163D01*
X101621663Y-102216326D01*
X101508395Y-102385844D01*
X101430374Y-102574202D01*
X101390600Y-102774161D01*
X101390600Y-102978039D01*
X101430374Y-103177998D01*
X101508395Y-103366356D01*
X101621663Y-103535874D01*
X101665600Y-103579811D01*
X101665601Y-108185668D01*
X101661924Y-108223000D01*
X101676598Y-108371985D01*
X101720054Y-108515246D01*
X101790626Y-108647276D01*
X101821338Y-108684698D01*
X101885600Y-108763001D01*
X101914598Y-108786799D01*
X103989600Y-110861802D01*
X103989600Y-111019046D01*
X103893363Y-110875017D01*
X103595983Y-110577637D01*
X103246302Y-110343988D01*
X102857756Y-110183047D01*
X102445279Y-110101000D01*
X102024721Y-110101000D01*
X101612244Y-110183047D01*
X101223698Y-110343988D01*
X100874017Y-110577637D01*
X100576637Y-110875017D01*
X100342988Y-111224698D01*
X100182047Y-111613244D01*
X100100000Y-112025721D01*
X100100000Y-112446279D01*
X100182047Y-112858756D01*
X100342988Y-113247302D01*
X100576637Y-113596983D01*
X100874017Y-113894363D01*
X101223698Y-114128012D01*
X101612244Y-114288953D01*
X102024721Y-114371000D01*
X102445279Y-114371000D01*
X102857756Y-114288953D01*
X103246302Y-114128012D01*
X103595983Y-113894363D01*
X103893363Y-113596983D01*
X103989600Y-113452954D01*
X103989601Y-122182168D01*
X103985924Y-122219500D01*
X104000598Y-122368485D01*
X104044054Y-122511746D01*
X104114626Y-122643776D01*
X104123590Y-122654698D01*
X104209600Y-122759501D01*
X104238598Y-122783299D01*
X105032399Y-123577100D01*
X104516076Y-123577100D01*
X104008178Y-123678127D01*
X103529749Y-123876299D01*
X103099174Y-124164000D01*
X103028763Y-124234411D01*
X103100000Y-123876279D01*
X103100000Y-123455721D01*
X103017953Y-123043244D01*
X102857012Y-122654698D01*
X102623363Y-122305017D01*
X102325983Y-122007637D01*
X101976302Y-121773988D01*
X101587756Y-121613047D01*
X101175279Y-121531000D01*
X100754721Y-121531000D01*
X100342244Y-121613047D01*
X99953698Y-121773988D01*
X99604017Y-122007637D01*
X99306637Y-122305017D01*
X99072988Y-122654698D01*
X98912047Y-123043244D01*
X98830000Y-123455721D01*
X98830000Y-123876279D01*
X98912047Y-124288756D01*
X99072988Y-124677302D01*
X99166150Y-124816730D01*
X98991162Y-124889212D01*
X98747794Y-125051826D01*
X98540826Y-125258794D01*
X98378212Y-125502162D01*
X98266202Y-125772579D01*
X98209100Y-126059652D01*
X98209100Y-126352348D01*
X98266202Y-126639421D01*
X98378212Y-126909838D01*
X98540826Y-127153206D01*
X98747794Y-127360174D01*
X98991162Y-127522788D01*
X99261579Y-127634798D01*
X99548652Y-127691900D01*
X99841348Y-127691900D01*
X100128421Y-127634798D01*
X100398838Y-127522788D01*
X100642206Y-127360174D01*
X100849174Y-127153206D01*
X101011788Y-126909838D01*
X101123798Y-126639421D01*
X101180900Y-126352348D01*
X101180900Y-126059652D01*
X101129451Y-125801000D01*
X101175279Y-125801000D01*
X101587756Y-125718953D01*
X101976302Y-125558012D01*
X102282708Y-125353279D01*
X102247127Y-125439178D01*
X102146100Y-125947076D01*
X102146100Y-126464924D01*
X102247127Y-126972822D01*
X102445299Y-127451251D01*
X102733000Y-127881826D01*
X103099174Y-128248000D01*
X103529749Y-128535701D01*
X104008178Y-128733873D01*
X104516076Y-128834900D01*
X105033924Y-128834900D01*
X105541822Y-128733873D01*
X106020251Y-128535701D01*
X106371800Y-128300803D01*
X106371800Y-129413000D01*
X105410000Y-129413000D01*
X105385224Y-129415440D01*
X105361399Y-129422667D01*
X105339443Y-129434403D01*
X105320197Y-129450197D01*
X105304403Y-129469443D01*
X105292667Y-129491399D01*
X105285440Y-129515224D01*
X105283000Y-129540000D01*
X105283000Y-137327614D01*
X105105844Y-137400995D01*
X104936326Y-137514263D01*
X104792163Y-137658426D01*
X104678895Y-137827944D01*
X104600874Y-138016302D01*
X104561100Y-138216261D01*
X104561100Y-138420139D01*
X104600874Y-138620098D01*
X104678895Y-138808456D01*
X104792163Y-138977974D01*
X104936326Y-139122137D01*
X105105844Y-139235405D01*
X105283000Y-139308786D01*
X105283000Y-143383000D01*
X78792606Y-143383000D01*
X76327000Y-140917394D01*
X76327000Y-126059652D01*
X79159100Y-126059652D01*
X79159100Y-126352348D01*
X79216202Y-126639421D01*
X79328212Y-126909838D01*
X79490826Y-127153206D01*
X79697794Y-127360174D01*
X79941162Y-127522788D01*
X80211579Y-127634798D01*
X80498652Y-127691900D01*
X80791348Y-127691900D01*
X81078421Y-127634798D01*
X81348838Y-127522788D01*
X81592206Y-127360174D01*
X81799174Y-127153206D01*
X81961788Y-126909838D01*
X82073798Y-126639421D01*
X82130900Y-126352348D01*
X82130900Y-126059652D01*
X82079451Y-125801000D01*
X82125279Y-125801000D01*
X82537756Y-125718953D01*
X82926302Y-125558012D01*
X83232708Y-125353279D01*
X83197127Y-125439178D01*
X83096100Y-125947076D01*
X83096100Y-126464924D01*
X83197127Y-126972822D01*
X83395299Y-127451251D01*
X83683000Y-127881826D01*
X84049174Y-128248000D01*
X84479749Y-128535701D01*
X84958178Y-128733873D01*
X85466076Y-128834900D01*
X85983924Y-128834900D01*
X86491822Y-128733873D01*
X86970251Y-128535701D01*
X87400826Y-128248000D01*
X87767000Y-127881826D01*
X88054701Y-127451251D01*
X88252873Y-126972822D01*
X88353900Y-126464924D01*
X88353900Y-126059652D01*
X89319100Y-126059652D01*
X89319100Y-126352348D01*
X89376202Y-126639421D01*
X89488212Y-126909838D01*
X89650826Y-127153206D01*
X89857794Y-127360174D01*
X90101162Y-127522788D01*
X90371579Y-127634798D01*
X90658652Y-127691900D01*
X90951348Y-127691900D01*
X91238421Y-127634798D01*
X91508838Y-127522788D01*
X91752206Y-127360174D01*
X91959174Y-127153206D01*
X92121788Y-126909838D01*
X92233798Y-126639421D01*
X92290900Y-126352348D01*
X92290900Y-126059652D01*
X92233798Y-125772579D01*
X92121788Y-125502162D01*
X91959174Y-125258794D01*
X91752206Y-125051826D01*
X91508838Y-124889212D01*
X91238421Y-124777202D01*
X90951348Y-124720100D01*
X90658652Y-124720100D01*
X90371579Y-124777202D01*
X90101162Y-124889212D01*
X89857794Y-125051826D01*
X89650826Y-125258794D01*
X89488212Y-125502162D01*
X89376202Y-125772579D01*
X89319100Y-126059652D01*
X88353900Y-126059652D01*
X88353900Y-125947076D01*
X88252873Y-125439178D01*
X88054701Y-124960749D01*
X87767000Y-124530174D01*
X87400826Y-124164000D01*
X86970251Y-123876299D01*
X86491822Y-123678127D01*
X85983924Y-123577100D01*
X85466076Y-123577100D01*
X84958178Y-123678127D01*
X84479749Y-123876299D01*
X84049174Y-124164000D01*
X83978763Y-124234411D01*
X84050000Y-123876279D01*
X84050000Y-123455721D01*
X83967953Y-123043244D01*
X83807012Y-122654698D01*
X83573363Y-122305017D01*
X83275983Y-122007637D01*
X82926302Y-121773988D01*
X82537756Y-121613047D01*
X82125279Y-121531000D01*
X81704721Y-121531000D01*
X81292244Y-121613047D01*
X80903698Y-121773988D01*
X80554017Y-122007637D01*
X80256637Y-122305017D01*
X80022988Y-122654698D01*
X79862047Y-123043244D01*
X79780000Y-123455721D01*
X79780000Y-123876279D01*
X79862047Y-124288756D01*
X80022988Y-124677302D01*
X80116150Y-124816730D01*
X79941162Y-124889212D01*
X79697794Y-125051826D01*
X79490826Y-125258794D01*
X79328212Y-125502162D01*
X79216202Y-125772579D01*
X79159100Y-126059652D01*
X76327000Y-126059652D01*
X76327000Y-120915721D01*
X86130000Y-120915721D01*
X86130000Y-121336279D01*
X86212047Y-121748756D01*
X86372988Y-122137302D01*
X86606637Y-122486983D01*
X86904017Y-122784363D01*
X87253698Y-123018012D01*
X87642244Y-123178953D01*
X88054721Y-123261000D01*
X88475279Y-123261000D01*
X88887756Y-123178953D01*
X89276302Y-123018012D01*
X89625983Y-122784363D01*
X89923363Y-122486983D01*
X90157012Y-122137302D01*
X90317953Y-121748756D01*
X90400000Y-121336279D01*
X90400000Y-120915721D01*
X90317953Y-120503244D01*
X90157012Y-120114698D01*
X89923363Y-119765017D01*
X89625983Y-119467637D01*
X89276302Y-119233988D01*
X88887756Y-119073047D01*
X88475279Y-118991000D01*
X88054721Y-118991000D01*
X87642244Y-119073047D01*
X87253698Y-119233988D01*
X86904017Y-119467637D01*
X86606637Y-119765017D01*
X86372988Y-120114698D01*
X86212047Y-120503244D01*
X86130000Y-120915721D01*
X76327000Y-120915721D01*
X76327000Y-112025721D01*
X81050000Y-112025721D01*
X81050000Y-112446279D01*
X81132047Y-112858756D01*
X81292988Y-113247302D01*
X81526637Y-113596983D01*
X81824017Y-113894363D01*
X82173698Y-114128012D01*
X82562244Y-114288953D01*
X82974721Y-114371000D01*
X83395279Y-114371000D01*
X83807756Y-114288953D01*
X84196302Y-114128012D01*
X84545983Y-113894363D01*
X84843363Y-113596983D01*
X85077012Y-113247302D01*
X85237953Y-112858756D01*
X85320000Y-112446279D01*
X85320000Y-112025721D01*
X85237953Y-111613244D01*
X85077012Y-111224698D01*
X84843363Y-110875017D01*
X84545983Y-110577637D01*
X84196302Y-110343988D01*
X83807756Y-110183047D01*
X83395279Y-110101000D01*
X82974721Y-110101000D01*
X82562244Y-110183047D01*
X82173698Y-110343988D01*
X81824017Y-110577637D01*
X81526637Y-110875017D01*
X81292988Y-111224698D01*
X81132047Y-111613244D01*
X81050000Y-112025721D01*
X76327000Y-112025721D01*
X76327000Y-107009652D01*
X79159100Y-107009652D01*
X79159100Y-107302348D01*
X79216202Y-107589421D01*
X79328212Y-107859838D01*
X79490826Y-108103206D01*
X79697794Y-108310174D01*
X79941162Y-108472788D01*
X80211579Y-108584798D01*
X80498652Y-108641900D01*
X80791348Y-108641900D01*
X81078421Y-108584798D01*
X81348838Y-108472788D01*
X81592206Y-108310174D01*
X81799174Y-108103206D01*
X81961788Y-107859838D01*
X82073798Y-107589421D01*
X82130900Y-107302348D01*
X82130900Y-107009652D01*
X82073798Y-106722579D01*
X81961788Y-106452162D01*
X81799174Y-106208794D01*
X81592206Y-106001826D01*
X81348838Y-105839212D01*
X81078421Y-105727202D01*
X80791348Y-105670100D01*
X80498652Y-105670100D01*
X80211579Y-105727202D01*
X79941162Y-105839212D01*
X79697794Y-106001826D01*
X79490826Y-106208794D01*
X79328212Y-106452162D01*
X79216202Y-106722579D01*
X79159100Y-107009652D01*
X76327000Y-107009652D01*
X76327000Y-87959852D01*
X79159100Y-87959852D01*
X79159100Y-88252548D01*
X79216202Y-88539621D01*
X79328212Y-88810038D01*
X79490826Y-89053406D01*
X79697794Y-89260374D01*
X79941162Y-89422988D01*
X80211579Y-89534998D01*
X80498652Y-89592100D01*
X80791348Y-89592100D01*
X81078421Y-89534998D01*
X81348838Y-89422988D01*
X81592206Y-89260374D01*
X81799174Y-89053406D01*
X81961788Y-88810038D01*
X82073798Y-88539621D01*
X82130900Y-88252548D01*
X82130900Y-87959852D01*
X82079451Y-87701200D01*
X82125279Y-87701200D01*
X82537756Y-87619153D01*
X82926302Y-87458212D01*
X83232708Y-87253479D01*
X83197127Y-87339378D01*
X83096100Y-87847276D01*
X83096100Y-88365124D01*
X83197127Y-88873022D01*
X83395299Y-89351451D01*
X83683000Y-89782026D01*
X84049174Y-90148200D01*
X84479749Y-90435901D01*
X84958178Y-90634073D01*
X85466076Y-90735100D01*
X85983924Y-90735100D01*
X86491822Y-90634073D01*
X86970251Y-90435901D01*
X87400826Y-90148200D01*
X87426001Y-90123025D01*
X87426000Y-96315405D01*
X87400839Y-96310400D01*
X87196961Y-96310400D01*
X86997002Y-96350174D01*
X86808644Y-96428195D01*
X86639126Y-96541463D01*
X86494963Y-96685626D01*
X86381695Y-96855144D01*
X86303674Y-97043502D01*
X86263900Y-97243461D01*
X86263900Y-97447339D01*
X86303674Y-97647298D01*
X86381695Y-97835656D01*
X86494963Y-98005174D01*
X86538901Y-98049112D01*
X86538900Y-101121077D01*
X86535224Y-101158400D01*
X86538900Y-101195722D01*
X86538900Y-101195732D01*
X86549897Y-101307385D01*
X86593354Y-101450646D01*
X86663926Y-101582676D01*
X86703771Y-101631226D01*
X86758899Y-101698401D01*
X86787902Y-101722203D01*
X86895500Y-101829801D01*
X86895500Y-101891939D01*
X86935274Y-102091898D01*
X87013295Y-102280256D01*
X87126563Y-102449774D01*
X87270726Y-102593937D01*
X87440244Y-102707205D01*
X87628602Y-102785226D01*
X87828561Y-102825000D01*
X88032439Y-102825000D01*
X88232398Y-102785226D01*
X88420756Y-102707205D01*
X88590274Y-102593937D01*
X88734437Y-102449774D01*
X88847705Y-102280256D01*
X88925726Y-102091898D01*
X88946891Y-101985493D01*
X91694800Y-104733402D01*
X91694800Y-105963469D01*
X91508838Y-105839212D01*
X91238421Y-105727202D01*
X90951348Y-105670100D01*
X90658652Y-105670100D01*
X90371579Y-105727202D01*
X90101162Y-105839212D01*
X89857794Y-106001826D01*
X89650826Y-106208794D01*
X89488212Y-106452162D01*
X89376202Y-106722579D01*
X89319100Y-107009652D01*
X89319100Y-107302348D01*
X89370549Y-107561000D01*
X89324721Y-107561000D01*
X88912244Y-107643047D01*
X88523698Y-107803988D01*
X88217292Y-108008721D01*
X88252873Y-107922822D01*
X88353900Y-107414924D01*
X88353900Y-106897076D01*
X88252873Y-106389178D01*
X88054701Y-105910749D01*
X87767000Y-105480174D01*
X87400826Y-105114000D01*
X86970251Y-104826299D01*
X86491822Y-104628127D01*
X85983924Y-104527100D01*
X85466076Y-104527100D01*
X84958178Y-104628127D01*
X84479749Y-104826299D01*
X84049174Y-105114000D01*
X83683000Y-105480174D01*
X83395299Y-105910749D01*
X83197127Y-106389178D01*
X83096100Y-106897076D01*
X83096100Y-107414924D01*
X83197127Y-107922822D01*
X83395299Y-108401251D01*
X83683000Y-108831826D01*
X84049174Y-109198000D01*
X84479749Y-109485701D01*
X84958178Y-109683873D01*
X85466076Y-109784900D01*
X85983924Y-109784900D01*
X86491822Y-109683873D01*
X86970251Y-109485701D01*
X87400826Y-109198000D01*
X87471237Y-109127589D01*
X87400000Y-109485721D01*
X87400000Y-109906279D01*
X87482047Y-110318756D01*
X87642988Y-110707302D01*
X87876637Y-111056983D01*
X88174017Y-111354363D01*
X88523698Y-111588012D01*
X88912244Y-111748953D01*
X89324721Y-111831000D01*
X89745279Y-111831000D01*
X90157756Y-111748953D01*
X90546302Y-111588012D01*
X90895983Y-111354363D01*
X91193363Y-111056983D01*
X91427012Y-110707302D01*
X91587953Y-110318756D01*
X91670000Y-109906279D01*
X91670000Y-109485721D01*
X91587953Y-109073244D01*
X91427012Y-108684698D01*
X91333850Y-108545270D01*
X91508838Y-108472788D01*
X91694800Y-108348531D01*
X91694801Y-111760188D01*
X91650863Y-111804126D01*
X91537595Y-111973644D01*
X91459574Y-112162002D01*
X91419800Y-112361961D01*
X91419800Y-112565839D01*
X91459574Y-112765798D01*
X91537595Y-112954156D01*
X91650863Y-113123674D01*
X91795026Y-113267837D01*
X91964544Y-113381105D01*
X92152902Y-113459126D01*
X92352861Y-113498900D01*
X92420100Y-113498900D01*
X92420100Y-117497663D01*
X92320426Y-117564263D01*
X92176263Y-117708426D01*
X92062995Y-117877944D01*
X91984974Y-118066302D01*
X91945200Y-118266261D01*
X91945200Y-118470139D01*
X91984974Y-118670098D01*
X92062995Y-118858456D01*
X92176263Y-119027974D01*
X92320426Y-119172137D01*
X92489944Y-119285405D01*
X92678302Y-119363426D01*
X92878261Y-119403200D01*
X93017500Y-119403200D01*
X93017500Y-135327198D01*
X89434699Y-138910000D01*
X89372561Y-138910000D01*
X89172602Y-138949774D01*
X88984244Y-139027795D01*
X88814726Y-139141063D01*
X88670563Y-139285226D01*
X88557295Y-139454744D01*
X88479274Y-139643102D01*
X88439500Y-139843061D01*
X88439500Y-140046939D01*
X88479274Y-140246898D01*
X88557295Y-140435256D01*
X88670563Y-140604774D01*
X88814726Y-140748937D01*
X88984244Y-140862205D01*
X89172602Y-140940226D01*
X89372561Y-140980000D01*
X89576439Y-140980000D01*
X89776398Y-140940226D01*
X89964756Y-140862205D01*
X90134274Y-140748937D01*
X90278437Y-140604774D01*
X90391705Y-140435256D01*
X90469726Y-140246898D01*
X90509500Y-140046939D01*
X90509500Y-139984801D01*
X94288504Y-136205798D01*
X94317501Y-136182001D01*
X94380804Y-136104866D01*
X94412474Y-136066277D01*
X94483046Y-135934247D01*
X94487582Y-135919294D01*
X94526503Y-135790986D01*
X94537500Y-135679333D01*
X94537500Y-135679323D01*
X94541176Y-135642000D01*
X94537500Y-135604677D01*
X94537500Y-131623711D01*
X94645226Y-131731437D01*
X94814744Y-131844705D01*
X95003102Y-131922726D01*
X95203061Y-131962500D01*
X95406939Y-131962500D01*
X95606898Y-131922726D01*
X95795256Y-131844705D01*
X95964774Y-131731437D01*
X96108937Y-131587274D01*
X96222205Y-131417756D01*
X96300226Y-131229398D01*
X96340000Y-131029439D01*
X96340000Y-130825561D01*
X96300226Y-130625602D01*
X96222205Y-130437244D01*
X96108937Y-130267726D01*
X96065000Y-130223789D01*
X96065000Y-108116801D01*
X97172149Y-107009652D01*
X98209100Y-107009652D01*
X98209100Y-107302348D01*
X98266202Y-107589421D01*
X98378212Y-107859838D01*
X98540826Y-108103206D01*
X98747794Y-108310174D01*
X98991162Y-108472788D01*
X99261579Y-108584798D01*
X99548652Y-108641900D01*
X99841348Y-108641900D01*
X100128421Y-108584798D01*
X100398838Y-108472788D01*
X100642206Y-108310174D01*
X100849174Y-108103206D01*
X101011788Y-107859838D01*
X101123798Y-107589421D01*
X101180900Y-107302348D01*
X101180900Y-107009652D01*
X101123798Y-106722579D01*
X101011788Y-106452162D01*
X100849174Y-106208794D01*
X100642206Y-106001826D01*
X100398838Y-105839212D01*
X100128421Y-105727202D01*
X99841348Y-105670100D01*
X99548652Y-105670100D01*
X99261579Y-105727202D01*
X98991162Y-105839212D01*
X98747794Y-106001826D01*
X98540826Y-106208794D01*
X98378212Y-106452162D01*
X98266202Y-106722579D01*
X98209100Y-107009652D01*
X97172149Y-107009652D01*
X100386202Y-103795600D01*
X100448339Y-103795600D01*
X100648298Y-103755826D01*
X100836656Y-103677805D01*
X101006174Y-103564537D01*
X101150337Y-103420374D01*
X101263605Y-103250856D01*
X101341626Y-103062498D01*
X101381400Y-102862539D01*
X101381400Y-102658661D01*
X101341626Y-102458702D01*
X101263605Y-102270344D01*
X101150337Y-102100826D01*
X101006174Y-101956663D01*
X100836656Y-101843395D01*
X100648298Y-101765374D01*
X100448339Y-101725600D01*
X100244461Y-101725600D01*
X100044502Y-101765374D01*
X99856144Y-101843395D01*
X99686626Y-101956663D01*
X99542463Y-102100826D01*
X99429195Y-102270344D01*
X99351174Y-102458702D01*
X99311400Y-102658661D01*
X99311400Y-102720798D01*
X94793998Y-107238201D01*
X94765000Y-107261999D01*
X94741202Y-107290997D01*
X94741201Y-107290998D01*
X94670026Y-107377724D01*
X94599454Y-107509754D01*
X94575288Y-107589421D01*
X94559022Y-107643047D01*
X94555998Y-107653015D01*
X94541324Y-107802000D01*
X94545001Y-107839333D01*
X94545000Y-130223789D01*
X94537500Y-130231289D01*
X94537500Y-88431201D01*
X97106901Y-91000603D01*
X97106900Y-93671589D01*
X97062963Y-93715526D01*
X96949695Y-93885044D01*
X96871674Y-94073402D01*
X96831900Y-94273361D01*
X96831900Y-94477239D01*
X96871674Y-94677198D01*
X96949695Y-94865556D01*
X97062963Y-95035074D01*
X97207126Y-95179237D01*
X97376644Y-95292505D01*
X97565002Y-95370526D01*
X97764961Y-95410300D01*
X97840500Y-95410300D01*
X97840500Y-95960489D01*
X97796563Y-96004426D01*
X97683295Y-96173944D01*
X97605274Y-96362302D01*
X97565500Y-96562261D01*
X97565500Y-96766139D01*
X97605274Y-96966098D01*
X97683295Y-97154456D01*
X97796563Y-97323974D01*
X97940726Y-97468137D01*
X98110244Y-97581405D01*
X98298602Y-97659426D01*
X98498561Y-97699200D01*
X98702439Y-97699200D01*
X98902398Y-97659426D01*
X99040631Y-97602168D01*
X98609199Y-98033600D01*
X98547061Y-98033600D01*
X98347102Y-98073374D01*
X98158744Y-98151395D01*
X97989226Y-98264663D01*
X97845063Y-98408826D01*
X97731795Y-98578344D01*
X97653774Y-98766702D01*
X97614000Y-98966661D01*
X97614000Y-99170539D01*
X97653774Y-99370498D01*
X97731795Y-99558856D01*
X97772652Y-99620003D01*
X97710144Y-99645895D01*
X97540626Y-99759163D01*
X97396463Y-99903326D01*
X97283195Y-100072844D01*
X97205174Y-100261202D01*
X97165400Y-100461161D01*
X97165400Y-100665039D01*
X97205174Y-100864998D01*
X97283195Y-101053356D01*
X97396463Y-101222874D01*
X97540626Y-101367037D01*
X97710144Y-101480305D01*
X97898502Y-101558326D01*
X98098461Y-101598100D01*
X98302339Y-101598100D01*
X98502298Y-101558326D01*
X98690656Y-101480305D01*
X98860174Y-101367037D01*
X99004337Y-101222874D01*
X99117605Y-101053356D01*
X99195626Y-100864998D01*
X99235400Y-100665039D01*
X99235400Y-100602901D01*
X105658402Y-94179900D01*
X109542478Y-94179900D01*
X109579800Y-94183576D01*
X109617122Y-94179900D01*
X109617133Y-94179900D01*
X109728786Y-94168903D01*
X109872047Y-94125446D01*
X110004076Y-94054874D01*
X110119801Y-93959901D01*
X110143604Y-93930897D01*
X117949355Y-86125147D01*
X117962047Y-86188956D01*
X118122988Y-86577502D01*
X118216150Y-86716930D01*
X118041162Y-86789412D01*
X117797794Y-86952026D01*
X117590826Y-87158994D01*
X117428212Y-87402362D01*
X117316202Y-87672779D01*
X117259100Y-87959852D01*
X117259100Y-88252548D01*
X117316202Y-88539621D01*
X117428212Y-88810038D01*
X117590826Y-89053406D01*
X117797794Y-89260374D01*
X118041162Y-89422988D01*
X118311579Y-89534998D01*
X118598652Y-89592100D01*
X118891348Y-89592100D01*
X119178421Y-89534998D01*
X119448838Y-89422988D01*
X119692206Y-89260374D01*
X119899174Y-89053406D01*
X120061788Y-88810038D01*
X120173798Y-88539621D01*
X120230900Y-88252548D01*
X120230900Y-87959852D01*
X120179451Y-87701200D01*
X120225279Y-87701200D01*
X120637756Y-87619153D01*
X121026302Y-87458212D01*
X121332708Y-87253479D01*
X121297127Y-87339378D01*
X121196100Y-87847276D01*
X121196100Y-88365124D01*
X121297127Y-88873022D01*
X121495299Y-89351451D01*
X121783000Y-89782026D01*
X122149174Y-90148200D01*
X122579749Y-90435901D01*
X123058178Y-90634073D01*
X123566076Y-90735100D01*
X124083924Y-90735100D01*
X124591822Y-90634073D01*
X125070251Y-90435901D01*
X125500826Y-90148200D01*
X125867000Y-89782026D01*
X126154701Y-89351451D01*
X126352873Y-88873022D01*
X126453900Y-88365124D01*
X126453900Y-87959852D01*
X127419100Y-87959852D01*
X127419100Y-88252548D01*
X127476202Y-88539621D01*
X127588212Y-88810038D01*
X127750826Y-89053406D01*
X127957794Y-89260374D01*
X128201162Y-89422988D01*
X128471579Y-89534998D01*
X128758652Y-89592100D01*
X129051348Y-89592100D01*
X129338421Y-89534998D01*
X129608838Y-89422988D01*
X129852206Y-89260374D01*
X130059174Y-89053406D01*
X130221788Y-88810038D01*
X130333798Y-88539621D01*
X130390900Y-88252548D01*
X130390900Y-87959852D01*
X136309100Y-87959852D01*
X136309100Y-88252548D01*
X136366202Y-88539621D01*
X136478212Y-88810038D01*
X136640826Y-89053406D01*
X136847794Y-89260374D01*
X137091162Y-89422988D01*
X137361579Y-89534998D01*
X137648652Y-89592100D01*
X137941348Y-89592100D01*
X138228421Y-89534998D01*
X138498838Y-89422988D01*
X138742206Y-89260374D01*
X138949174Y-89053406D01*
X139111788Y-88810038D01*
X139223798Y-88539621D01*
X139280900Y-88252548D01*
X139280900Y-87959852D01*
X139229451Y-87701200D01*
X139275279Y-87701200D01*
X139687756Y-87619153D01*
X140076302Y-87458212D01*
X140382708Y-87253479D01*
X140347127Y-87339378D01*
X140246100Y-87847276D01*
X140246100Y-88365124D01*
X140347127Y-88873022D01*
X140545299Y-89351451D01*
X140833000Y-89782026D01*
X141199174Y-90148200D01*
X141629749Y-90435901D01*
X142108178Y-90634073D01*
X142616076Y-90735100D01*
X143133924Y-90735100D01*
X143641822Y-90634073D01*
X144120251Y-90435901D01*
X144550826Y-90148200D01*
X144917000Y-89782026D01*
X145204701Y-89351451D01*
X145402873Y-88873022D01*
X145503900Y-88365124D01*
X145503900Y-87959852D01*
X146469100Y-87959852D01*
X146469100Y-88252548D01*
X146526202Y-88539621D01*
X146638212Y-88810038D01*
X146800826Y-89053406D01*
X147007794Y-89260374D01*
X147251162Y-89422988D01*
X147521579Y-89534998D01*
X147808652Y-89592100D01*
X148101348Y-89592100D01*
X148388421Y-89534998D01*
X148658838Y-89422988D01*
X148902206Y-89260374D01*
X149109174Y-89053406D01*
X149271788Y-88810038D01*
X149383798Y-88539621D01*
X149440900Y-88252548D01*
X149440900Y-87959852D01*
X149383798Y-87672779D01*
X149271788Y-87402362D01*
X149109174Y-87158994D01*
X148902206Y-86952026D01*
X148658838Y-86789412D01*
X148388421Y-86677402D01*
X148101348Y-86620300D01*
X147808652Y-86620300D01*
X147521579Y-86677402D01*
X147251162Y-86789412D01*
X147007794Y-86952026D01*
X146800826Y-87158994D01*
X146638212Y-87402362D01*
X146526202Y-87672779D01*
X146469100Y-87959852D01*
X145503900Y-87959852D01*
X145503900Y-87847276D01*
X145402873Y-87339378D01*
X145204701Y-86860949D01*
X144917000Y-86430374D01*
X144550826Y-86064200D01*
X144120251Y-85776499D01*
X143641822Y-85578327D01*
X143133924Y-85477300D01*
X142616076Y-85477300D01*
X142108178Y-85578327D01*
X141629749Y-85776499D01*
X141199174Y-86064200D01*
X141128763Y-86134611D01*
X141200000Y-85776479D01*
X141200000Y-85355921D01*
X141117953Y-84943444D01*
X140957012Y-84554898D01*
X140723363Y-84205217D01*
X140425983Y-83907837D01*
X140076302Y-83674188D01*
X139687756Y-83513247D01*
X139275279Y-83431200D01*
X138854721Y-83431200D01*
X138442244Y-83513247D01*
X138053698Y-83674188D01*
X137704017Y-83907837D01*
X137406637Y-84205217D01*
X137172988Y-84554898D01*
X137012047Y-84943444D01*
X136930000Y-85355921D01*
X136930000Y-85776479D01*
X137012047Y-86188956D01*
X137172988Y-86577502D01*
X137266150Y-86716930D01*
X137091162Y-86789412D01*
X136847794Y-86952026D01*
X136640826Y-87158994D01*
X136478212Y-87402362D01*
X136366202Y-87672779D01*
X136309100Y-87959852D01*
X130390900Y-87959852D01*
X130333798Y-87672779D01*
X130221788Y-87402362D01*
X130059174Y-87158994D01*
X129852206Y-86952026D01*
X129608838Y-86789412D01*
X129338421Y-86677402D01*
X129051348Y-86620300D01*
X128758652Y-86620300D01*
X128471579Y-86677402D01*
X128201162Y-86789412D01*
X127957794Y-86952026D01*
X127750826Y-87158994D01*
X127588212Y-87402362D01*
X127476202Y-87672779D01*
X127419100Y-87959852D01*
X126453900Y-87959852D01*
X126453900Y-87847276D01*
X126352873Y-87339378D01*
X126154701Y-86860949D01*
X125867000Y-86430374D01*
X125500826Y-86064200D01*
X125070251Y-85776499D01*
X124591822Y-85578327D01*
X124083924Y-85477300D01*
X123566076Y-85477300D01*
X123058178Y-85578327D01*
X122579749Y-85776499D01*
X122149174Y-86064200D01*
X122078763Y-86134611D01*
X122150000Y-85776479D01*
X122150000Y-85355921D01*
X122067953Y-84943444D01*
X121907012Y-84554898D01*
X121673363Y-84205217D01*
X121375983Y-83907837D01*
X121026302Y-83674188D01*
X120637756Y-83513247D01*
X120573947Y-83500555D01*
X121258581Y-82815921D01*
X124230000Y-82815921D01*
X124230000Y-83236479D01*
X124312047Y-83648956D01*
X124472988Y-84037502D01*
X124706637Y-84387183D01*
X125004017Y-84684563D01*
X125353698Y-84918212D01*
X125742244Y-85079153D01*
X126154721Y-85161200D01*
X126575279Y-85161200D01*
X126987756Y-85079153D01*
X127376302Y-84918212D01*
X127725983Y-84684563D01*
X128023363Y-84387183D01*
X128257012Y-84037502D01*
X128417953Y-83648956D01*
X128500000Y-83236479D01*
X128500000Y-82815921D01*
X143280000Y-82815921D01*
X143280000Y-83236479D01*
X143362047Y-83648956D01*
X143522988Y-84037502D01*
X143756637Y-84387183D01*
X144054017Y-84684563D01*
X144403698Y-84918212D01*
X144792244Y-85079153D01*
X145204721Y-85161200D01*
X145625279Y-85161200D01*
X146037756Y-85079153D01*
X146426302Y-84918212D01*
X146775983Y-84684563D01*
X147073363Y-84387183D01*
X147307012Y-84037502D01*
X147467953Y-83648956D01*
X147550000Y-83236479D01*
X147550000Y-82815921D01*
X147467953Y-82403444D01*
X147307012Y-82014898D01*
X147073363Y-81665217D01*
X146775983Y-81367837D01*
X146426302Y-81134188D01*
X146037756Y-80973247D01*
X145625279Y-80891200D01*
X145204721Y-80891200D01*
X144792244Y-80973247D01*
X144403698Y-81134188D01*
X144054017Y-81367837D01*
X143756637Y-81665217D01*
X143522988Y-82014898D01*
X143362047Y-82403444D01*
X143280000Y-82815921D01*
X128500000Y-82815921D01*
X128417953Y-82403444D01*
X128257012Y-82014898D01*
X128023363Y-81665217D01*
X127725983Y-81367837D01*
X127376302Y-81134188D01*
X126987756Y-80973247D01*
X126575279Y-80891200D01*
X126154721Y-80891200D01*
X125742244Y-80973247D01*
X125353698Y-81134188D01*
X125004017Y-81367837D01*
X124706637Y-81665217D01*
X124472988Y-82014898D01*
X124312047Y-82403444D01*
X124230000Y-82815921D01*
X121258581Y-82815921D01*
X130148581Y-73925921D01*
X138200000Y-73925921D01*
X138200000Y-74346479D01*
X138282047Y-74758956D01*
X138442988Y-75147502D01*
X138676637Y-75497183D01*
X138974017Y-75794563D01*
X139323698Y-76028212D01*
X139712244Y-76189153D01*
X140124721Y-76271200D01*
X140545279Y-76271200D01*
X140957756Y-76189153D01*
X141346302Y-76028212D01*
X141695983Y-75794563D01*
X141993363Y-75497183D01*
X142227012Y-75147502D01*
X142387953Y-74758956D01*
X142470000Y-74346479D01*
X142470000Y-73925921D01*
X142387953Y-73513444D01*
X142227012Y-73124898D01*
X141993363Y-72775217D01*
X141695983Y-72477837D01*
X141346302Y-72244188D01*
X140957756Y-72083247D01*
X140545279Y-72001200D01*
X140124721Y-72001200D01*
X139712244Y-72083247D01*
X139323698Y-72244188D01*
X138974017Y-72477837D01*
X138676637Y-72775217D01*
X138442988Y-73124898D01*
X138282047Y-73513444D01*
X138200000Y-73925921D01*
X130148581Y-73925921D01*
X135164650Y-68909852D01*
X136309100Y-68909852D01*
X136309100Y-69202548D01*
X136366202Y-69489621D01*
X136478212Y-69760038D01*
X136640826Y-70003406D01*
X136847794Y-70210374D01*
X137091162Y-70372988D01*
X137361579Y-70484998D01*
X137648652Y-70542100D01*
X137941348Y-70542100D01*
X138228421Y-70484998D01*
X138498838Y-70372988D01*
X138742206Y-70210374D01*
X138949174Y-70003406D01*
X139111788Y-69760038D01*
X139223798Y-69489621D01*
X139280900Y-69202548D01*
X139280900Y-68909852D01*
X139258508Y-68797276D01*
X140246100Y-68797276D01*
X140246100Y-69315124D01*
X140347127Y-69823022D01*
X140545299Y-70301451D01*
X140833000Y-70732026D01*
X141199174Y-71098200D01*
X141629749Y-71385901D01*
X142108178Y-71584073D01*
X142616076Y-71685100D01*
X143133924Y-71685100D01*
X143641822Y-71584073D01*
X144120251Y-71385901D01*
X144550826Y-71098200D01*
X144621237Y-71027789D01*
X144550000Y-71385921D01*
X144550000Y-71806479D01*
X144632047Y-72218956D01*
X144792988Y-72607502D01*
X145026637Y-72957183D01*
X145324017Y-73254563D01*
X145673698Y-73488212D01*
X146062244Y-73649153D01*
X146474721Y-73731200D01*
X146895279Y-73731200D01*
X147307756Y-73649153D01*
X147696302Y-73488212D01*
X148045983Y-73254563D01*
X148343363Y-72957183D01*
X148577012Y-72607502D01*
X148737953Y-72218956D01*
X148820000Y-71806479D01*
X148820000Y-71385921D01*
X148737953Y-70973444D01*
X148577012Y-70584898D01*
X148483850Y-70445470D01*
X148658838Y-70372988D01*
X148902206Y-70210374D01*
X149109174Y-70003406D01*
X149271788Y-69760038D01*
X149383798Y-69489621D01*
X149440900Y-69202548D01*
X149440900Y-68909852D01*
X149383798Y-68622779D01*
X149271788Y-68352362D01*
X149109174Y-68108994D01*
X148902206Y-67902026D01*
X148658838Y-67739412D01*
X148388421Y-67627402D01*
X148101348Y-67570300D01*
X147808652Y-67570300D01*
X147521579Y-67627402D01*
X147251162Y-67739412D01*
X147007794Y-67902026D01*
X146800826Y-68108994D01*
X146638212Y-68352362D01*
X146526202Y-68622779D01*
X146469100Y-68909852D01*
X146469100Y-69202548D01*
X146520549Y-69461200D01*
X146474721Y-69461200D01*
X146062244Y-69543247D01*
X145673698Y-69704188D01*
X145367292Y-69908921D01*
X145402873Y-69823022D01*
X145503900Y-69315124D01*
X145503900Y-68797276D01*
X145402873Y-68289378D01*
X145204701Y-67810949D01*
X144917000Y-67380374D01*
X144550826Y-67014200D01*
X144120251Y-66726499D01*
X143641822Y-66528327D01*
X143133924Y-66427300D01*
X142616076Y-66427300D01*
X142108178Y-66528327D01*
X141629749Y-66726499D01*
X141199174Y-67014200D01*
X140833000Y-67380374D01*
X140545299Y-67810949D01*
X140347127Y-68289378D01*
X140246100Y-68797276D01*
X139258508Y-68797276D01*
X139223798Y-68622779D01*
X139111788Y-68352362D01*
X138949174Y-68108994D01*
X138742206Y-67902026D01*
X138498838Y-67739412D01*
X138228421Y-67627402D01*
X137941348Y-67570300D01*
X137648652Y-67570300D01*
X137361579Y-67627402D01*
X137091162Y-67739412D01*
X136847794Y-67902026D01*
X136640826Y-68108994D01*
X136478212Y-68352362D01*
X136366202Y-68622779D01*
X136309100Y-68909852D01*
X135164650Y-68909852D01*
X138639202Y-65435300D01*
X141930178Y-65435300D01*
X141967500Y-65438976D01*
X142004822Y-65435300D01*
X142004833Y-65435300D01*
X142116486Y-65424303D01*
X142259747Y-65380846D01*
X142391776Y-65310274D01*
X142507501Y-65215301D01*
X142531304Y-65186297D01*
X142845698Y-64871903D01*
X142874701Y-64848101D01*
X142876899Y-64845423D01*
X142938966Y-64878599D01*
X143218889Y-64963513D01*
X143437050Y-64985000D01*
X143582950Y-64985000D01*
X143801111Y-64963513D01*
X144081034Y-64878599D01*
X144339014Y-64740706D01*
X144565134Y-64555134D01*
X144750706Y-64329014D01*
X144785201Y-64264477D01*
X144854822Y-64381355D01*
X145049731Y-64597588D01*
X145283080Y-64771641D01*
X145545901Y-64896825D01*
X145693110Y-64941476D01*
X145923000Y-64820155D01*
X145923000Y-63627000D01*
X146177000Y-63627000D01*
X146177000Y-64820155D01*
X146406890Y-64941476D01*
X146554099Y-64896825D01*
X146816920Y-64771641D01*
X147050269Y-64597588D01*
X147245178Y-64381355D01*
X147394157Y-64131252D01*
X147491481Y-63856891D01*
X147370814Y-63627000D01*
X146177000Y-63627000D01*
X145923000Y-63627000D01*
X145903000Y-63627000D01*
X145903000Y-63373000D01*
X145923000Y-63373000D01*
X145923000Y-62179845D01*
X146177000Y-62179845D01*
X146177000Y-63373000D01*
X147370814Y-63373000D01*
X147491481Y-63143109D01*
X147394157Y-62868748D01*
X147245178Y-62618645D01*
X147050269Y-62402412D01*
X146816920Y-62228359D01*
X146554099Y-62103175D01*
X146406890Y-62058524D01*
X146177000Y-62179845D01*
X145923000Y-62179845D01*
X145693110Y-62058524D01*
X145545901Y-62103175D01*
X145283080Y-62228359D01*
X145049731Y-62402412D01*
X144854822Y-62618645D01*
X144785201Y-62735523D01*
X144750706Y-62670986D01*
X144565134Y-62444866D01*
X144339014Y-62259294D01*
X144081034Y-62121401D01*
X143801111Y-62036487D01*
X143582950Y-62015000D01*
X143437050Y-62015000D01*
X143218889Y-62036487D01*
X142938966Y-62121401D01*
X142680986Y-62259294D01*
X142454866Y-62444866D01*
X142430393Y-62474687D01*
X142409502Y-62405820D01*
X142350537Y-62295506D01*
X142271185Y-62198815D01*
X142174494Y-62119463D01*
X142064180Y-62060498D01*
X141944482Y-62024188D01*
X141820000Y-62011928D01*
X140120000Y-62011928D01*
X139995518Y-62024188D01*
X139875820Y-62060498D01*
X139765506Y-62119463D01*
X139668815Y-62198815D01*
X139589463Y-62295506D01*
X139530498Y-62405820D01*
X139494188Y-62525518D01*
X139481928Y-62650000D01*
X139481928Y-63915300D01*
X138361722Y-63915300D01*
X138324399Y-63911624D01*
X138287076Y-63915300D01*
X138287067Y-63915300D01*
X138175414Y-63926297D01*
X138032153Y-63969754D01*
X137900124Y-64040326D01*
X137784399Y-64135299D01*
X137760601Y-64164297D01*
X129675233Y-72249666D01*
X129687953Y-72218956D01*
X129770000Y-71806479D01*
X129770000Y-71385921D01*
X129687953Y-70973444D01*
X129527012Y-70584898D01*
X129433850Y-70445470D01*
X129608838Y-70372988D01*
X129852206Y-70210374D01*
X130059174Y-70003406D01*
X130221788Y-69760038D01*
X130333798Y-69489621D01*
X130390900Y-69202548D01*
X130390900Y-68909852D01*
X130333798Y-68622779D01*
X130221788Y-68352362D01*
X130059174Y-68108994D01*
X129852206Y-67902026D01*
X129608838Y-67739412D01*
X129338421Y-67627402D01*
X129051348Y-67570300D01*
X128758652Y-67570300D01*
X128471579Y-67627402D01*
X128201162Y-67739412D01*
X127957794Y-67902026D01*
X127750826Y-68108994D01*
X127588212Y-68352362D01*
X127476202Y-68622779D01*
X127419100Y-68909852D01*
X127419100Y-69202548D01*
X127470549Y-69461200D01*
X127424721Y-69461200D01*
X127012244Y-69543247D01*
X126623698Y-69704188D01*
X126317292Y-69908921D01*
X126352873Y-69823022D01*
X126453900Y-69315124D01*
X126453900Y-68797276D01*
X126352873Y-68289378D01*
X126154701Y-67810949D01*
X125867000Y-67380374D01*
X125500826Y-67014200D01*
X125070251Y-66726499D01*
X124591822Y-66528327D01*
X124083924Y-66427300D01*
X123566076Y-66427300D01*
X123058178Y-66528327D01*
X122579749Y-66726499D01*
X122149174Y-67014200D01*
X121783000Y-67380374D01*
X121495299Y-67810949D01*
X121297127Y-68289378D01*
X121196100Y-68797276D01*
X121196100Y-69315124D01*
X121297127Y-69823022D01*
X121495299Y-70301451D01*
X121783000Y-70732026D01*
X122149174Y-71098200D01*
X122579749Y-71385901D01*
X123058178Y-71584073D01*
X123566076Y-71685100D01*
X124083924Y-71685100D01*
X124591822Y-71584073D01*
X125070251Y-71385901D01*
X125500826Y-71098200D01*
X125571237Y-71027789D01*
X125500000Y-71385921D01*
X125500000Y-71806479D01*
X125582047Y-72218956D01*
X125742988Y-72607502D01*
X125976637Y-72957183D01*
X126274017Y-73254563D01*
X126623698Y-73488212D01*
X127012244Y-73649153D01*
X127424721Y-73731200D01*
X127845279Y-73731200D01*
X128257756Y-73649153D01*
X128288466Y-73636433D01*
X122605457Y-79319442D01*
X122572037Y-79269426D01*
X122427874Y-79125263D01*
X122258356Y-79011995D01*
X122069998Y-78933974D01*
X121870039Y-78894200D01*
X121666161Y-78894200D01*
X121466202Y-78933974D01*
X121277844Y-79011995D01*
X121108326Y-79125263D01*
X120964163Y-79269426D01*
X120850895Y-79438944D01*
X120772874Y-79627302D01*
X120733100Y-79827261D01*
X120733100Y-79889398D01*
X108412899Y-92209600D01*
X103695522Y-92209600D01*
X103658199Y-92205924D01*
X103620876Y-92209600D01*
X103620867Y-92209600D01*
X103509214Y-92220597D01*
X103365953Y-92264054D01*
X103251978Y-92324976D01*
X100364297Y-89437295D01*
X100398838Y-89422988D01*
X100642206Y-89260374D01*
X100849174Y-89053406D01*
X101011788Y-88810038D01*
X101123798Y-88539621D01*
X101180900Y-88252548D01*
X101180900Y-87959852D01*
X101129451Y-87701200D01*
X101175279Y-87701200D01*
X101587756Y-87619153D01*
X101976302Y-87458212D01*
X102282708Y-87253479D01*
X102247127Y-87339378D01*
X102146100Y-87847276D01*
X102146100Y-88365124D01*
X102247127Y-88873022D01*
X102445299Y-89351451D01*
X102733000Y-89782026D01*
X103099174Y-90148200D01*
X103529749Y-90435901D01*
X104008178Y-90634073D01*
X104516076Y-90735100D01*
X105033924Y-90735100D01*
X105541822Y-90634073D01*
X106020251Y-90435901D01*
X106450826Y-90148200D01*
X106817000Y-89782026D01*
X107104701Y-89351451D01*
X107302873Y-88873022D01*
X107403900Y-88365124D01*
X107403900Y-87959852D01*
X108369100Y-87959852D01*
X108369100Y-88252548D01*
X108426202Y-88539621D01*
X108538212Y-88810038D01*
X108700826Y-89053406D01*
X108907794Y-89260374D01*
X109151162Y-89422988D01*
X109421579Y-89534998D01*
X109708652Y-89592100D01*
X110001348Y-89592100D01*
X110288421Y-89534998D01*
X110558838Y-89422988D01*
X110802206Y-89260374D01*
X111009174Y-89053406D01*
X111171788Y-88810038D01*
X111283798Y-88539621D01*
X111340900Y-88252548D01*
X111340900Y-87959852D01*
X111283798Y-87672779D01*
X111171788Y-87402362D01*
X111009174Y-87158994D01*
X110802206Y-86952026D01*
X110558838Y-86789412D01*
X110288421Y-86677402D01*
X110001348Y-86620300D01*
X109708652Y-86620300D01*
X109421579Y-86677402D01*
X109151162Y-86789412D01*
X108907794Y-86952026D01*
X108700826Y-87158994D01*
X108538212Y-87402362D01*
X108426202Y-87672779D01*
X108369100Y-87959852D01*
X107403900Y-87959852D01*
X107403900Y-87847276D01*
X107302873Y-87339378D01*
X107104701Y-86860949D01*
X106817000Y-86430374D01*
X106450826Y-86064200D01*
X106020251Y-85776499D01*
X105541822Y-85578327D01*
X105033924Y-85477300D01*
X104516076Y-85477300D01*
X104008178Y-85578327D01*
X103529749Y-85776499D01*
X103099174Y-86064200D01*
X103028763Y-86134611D01*
X103100000Y-85776479D01*
X103100000Y-85355921D01*
X103017953Y-84943444D01*
X102857012Y-84554898D01*
X102623363Y-84205217D01*
X102325983Y-83907837D01*
X101976302Y-83674188D01*
X101587756Y-83513247D01*
X101175279Y-83431200D01*
X100754721Y-83431200D01*
X100342244Y-83513247D01*
X99953698Y-83674188D01*
X99604017Y-83907837D01*
X99306637Y-84205217D01*
X99278700Y-84247028D01*
X99278700Y-83981202D01*
X99287303Y-83972599D01*
X99316301Y-83948801D01*
X99411274Y-83833076D01*
X99481846Y-83701047D01*
X99525303Y-83557786D01*
X99536300Y-83446133D01*
X99536300Y-83446124D01*
X99539976Y-83408801D01*
X99536300Y-83371478D01*
X99536300Y-82815921D01*
X105180000Y-82815921D01*
X105180000Y-83236479D01*
X105262047Y-83648956D01*
X105422988Y-84037502D01*
X105656637Y-84387183D01*
X105954017Y-84684563D01*
X106303698Y-84918212D01*
X106692244Y-85079153D01*
X107104721Y-85161200D01*
X107525279Y-85161200D01*
X107937756Y-85079153D01*
X108326302Y-84918212D01*
X108675983Y-84684563D01*
X108973363Y-84387183D01*
X109207012Y-84037502D01*
X109367953Y-83648956D01*
X109450000Y-83236479D01*
X109450000Y-82815921D01*
X109367953Y-82403444D01*
X109207012Y-82014898D01*
X108973363Y-81665217D01*
X108675983Y-81367837D01*
X108326302Y-81134188D01*
X107937756Y-80973247D01*
X107525279Y-80891200D01*
X107104721Y-80891200D01*
X106692244Y-80973247D01*
X106303698Y-81134188D01*
X105954017Y-81367837D01*
X105656637Y-81665217D01*
X105422988Y-82014898D01*
X105262047Y-82403444D01*
X105180000Y-82815921D01*
X99536300Y-82815921D01*
X99536300Y-81900722D01*
X99539976Y-81863399D01*
X99536300Y-81826076D01*
X99536300Y-81826067D01*
X99525303Y-81714414D01*
X99481846Y-81571153D01*
X99411274Y-81439124D01*
X99316301Y-81323399D01*
X99287302Y-81299600D01*
X99021000Y-81033299D01*
X99021000Y-73925921D01*
X100100000Y-73925921D01*
X100100000Y-74346479D01*
X100182047Y-74758956D01*
X100342988Y-75147502D01*
X100576637Y-75497183D01*
X100874017Y-75794563D01*
X101223698Y-76028212D01*
X101612244Y-76189153D01*
X102024721Y-76271200D01*
X102445279Y-76271200D01*
X102857756Y-76189153D01*
X103246302Y-76028212D01*
X103595983Y-75794563D01*
X103893363Y-75497183D01*
X104127012Y-75147502D01*
X104287953Y-74758956D01*
X104370000Y-74346479D01*
X104370000Y-73925921D01*
X119150000Y-73925921D01*
X119150000Y-74346479D01*
X119232047Y-74758956D01*
X119392988Y-75147502D01*
X119626637Y-75497183D01*
X119924017Y-75794563D01*
X120273698Y-76028212D01*
X120662244Y-76189153D01*
X121074721Y-76271200D01*
X121495279Y-76271200D01*
X121907756Y-76189153D01*
X122296302Y-76028212D01*
X122645983Y-75794563D01*
X122943363Y-75497183D01*
X123177012Y-75147502D01*
X123337953Y-74758956D01*
X123420000Y-74346479D01*
X123420000Y-73925921D01*
X123337953Y-73513444D01*
X123177012Y-73124898D01*
X122943363Y-72775217D01*
X122645983Y-72477837D01*
X122296302Y-72244188D01*
X121907756Y-72083247D01*
X121495279Y-72001200D01*
X121074721Y-72001200D01*
X120662244Y-72083247D01*
X120273698Y-72244188D01*
X119924017Y-72477837D01*
X119626637Y-72775217D01*
X119392988Y-73124898D01*
X119232047Y-73513444D01*
X119150000Y-73925921D01*
X104370000Y-73925921D01*
X104287953Y-73513444D01*
X104127012Y-73124898D01*
X103893363Y-72775217D01*
X103595983Y-72477837D01*
X103246302Y-72244188D01*
X102857756Y-72083247D01*
X102445279Y-72001200D01*
X102024721Y-72001200D01*
X101612244Y-72083247D01*
X101223698Y-72244188D01*
X100874017Y-72477837D01*
X100576637Y-72775217D01*
X100342988Y-73124898D01*
X100182047Y-73513444D01*
X100100000Y-73925921D01*
X99021000Y-73925921D01*
X99021000Y-70385347D01*
X99261579Y-70484998D01*
X99548652Y-70542100D01*
X99841348Y-70542100D01*
X100128421Y-70484998D01*
X100398838Y-70372988D01*
X100642206Y-70210374D01*
X100849174Y-70003406D01*
X101011788Y-69760038D01*
X101123798Y-69489621D01*
X101180900Y-69202548D01*
X101180900Y-68909852D01*
X101158508Y-68797276D01*
X102146100Y-68797276D01*
X102146100Y-69315124D01*
X102247127Y-69823022D01*
X102445299Y-70301451D01*
X102733000Y-70732026D01*
X103099174Y-71098200D01*
X103529749Y-71385901D01*
X104008178Y-71584073D01*
X104516076Y-71685100D01*
X105033924Y-71685100D01*
X105541822Y-71584073D01*
X106020251Y-71385901D01*
X106450826Y-71098200D01*
X106521237Y-71027789D01*
X106450000Y-71385921D01*
X106450000Y-71806479D01*
X106532047Y-72218956D01*
X106692988Y-72607502D01*
X106926637Y-72957183D01*
X107224017Y-73254563D01*
X107573698Y-73488212D01*
X107962244Y-73649153D01*
X108374721Y-73731200D01*
X108795279Y-73731200D01*
X109207756Y-73649153D01*
X109596302Y-73488212D01*
X109945983Y-73254563D01*
X110243363Y-72957183D01*
X110477012Y-72607502D01*
X110637953Y-72218956D01*
X110720000Y-71806479D01*
X110720000Y-71385921D01*
X110637953Y-70973444D01*
X110477012Y-70584898D01*
X110383850Y-70445470D01*
X110558838Y-70372988D01*
X110802206Y-70210374D01*
X111009174Y-70003406D01*
X111171788Y-69760038D01*
X111283798Y-69489621D01*
X111340900Y-69202548D01*
X111340900Y-68909852D01*
X117259100Y-68909852D01*
X117259100Y-69202548D01*
X117316202Y-69489621D01*
X117428212Y-69760038D01*
X117590826Y-70003406D01*
X117797794Y-70210374D01*
X118041162Y-70372988D01*
X118311579Y-70484998D01*
X118598652Y-70542100D01*
X118891348Y-70542100D01*
X119178421Y-70484998D01*
X119448838Y-70372988D01*
X119692206Y-70210374D01*
X119899174Y-70003406D01*
X120061788Y-69760038D01*
X120173798Y-69489621D01*
X120230900Y-69202548D01*
X120230900Y-68909852D01*
X120173798Y-68622779D01*
X120061788Y-68352362D01*
X119899174Y-68108994D01*
X119692206Y-67902026D01*
X119448838Y-67739412D01*
X119178421Y-67627402D01*
X118891348Y-67570300D01*
X118598652Y-67570300D01*
X118311579Y-67627402D01*
X118041162Y-67739412D01*
X117797794Y-67902026D01*
X117590826Y-68108994D01*
X117428212Y-68352362D01*
X117316202Y-68622779D01*
X117259100Y-68909852D01*
X111340900Y-68909852D01*
X111283798Y-68622779D01*
X111171788Y-68352362D01*
X111009174Y-68108994D01*
X110802206Y-67902026D01*
X110558838Y-67739412D01*
X110288421Y-67627402D01*
X110001348Y-67570300D01*
X109708652Y-67570300D01*
X109421579Y-67627402D01*
X109151162Y-67739412D01*
X108907794Y-67902026D01*
X108700826Y-68108994D01*
X108538212Y-68352362D01*
X108426202Y-68622779D01*
X108369100Y-68909852D01*
X108369100Y-69202548D01*
X108420549Y-69461200D01*
X108374721Y-69461200D01*
X107962244Y-69543247D01*
X107573698Y-69704188D01*
X107267292Y-69908921D01*
X107302873Y-69823022D01*
X107403900Y-69315124D01*
X107403900Y-68797276D01*
X107302873Y-68289378D01*
X107104701Y-67810949D01*
X106817000Y-67380374D01*
X106450826Y-67014200D01*
X106020251Y-66726499D01*
X105541822Y-66528327D01*
X105033924Y-66427300D01*
X104516076Y-66427300D01*
X104008178Y-66528327D01*
X103529749Y-66726499D01*
X103099174Y-67014200D01*
X102733000Y-67380374D01*
X102445299Y-67810949D01*
X102247127Y-68289378D01*
X102146100Y-68797276D01*
X101158508Y-68797276D01*
X101123798Y-68622779D01*
X101011788Y-68352362D01*
X100849174Y-68108994D01*
X100642206Y-67902026D01*
X100398838Y-67739412D01*
X100128421Y-67627402D01*
X99841348Y-67570300D01*
X99548652Y-67570300D01*
X99261579Y-67627402D01*
X99021000Y-67727053D01*
X99021000Y-65175811D01*
X99064937Y-65131874D01*
X99178205Y-64962356D01*
X99256226Y-64773998D01*
X99296000Y-64574039D01*
X99296000Y-64504900D01*
X103044289Y-64504900D01*
X103088226Y-64548837D01*
X103257744Y-64662105D01*
X103446102Y-64740126D01*
X103646061Y-64779900D01*
X103849939Y-64779900D01*
X104049898Y-64740126D01*
X104238256Y-64662105D01*
X104407774Y-64548837D01*
X104551937Y-64404674D01*
X104665205Y-64235156D01*
X104739000Y-64057000D01*
X108845000Y-64057000D01*
X108845000Y-64607000D01*
X108891585Y-64825987D01*
X108979997Y-65031678D01*
X109106839Y-65216169D01*
X109267236Y-65372369D01*
X109455024Y-65494276D01*
X109678126Y-65574119D01*
X109853000Y-65447954D01*
X109853000Y-64057000D01*
X108845000Y-64057000D01*
X104739000Y-64057000D01*
X104743226Y-64046798D01*
X104783000Y-63846839D01*
X104783000Y-63784701D01*
X105314701Y-63253000D01*
X108845000Y-63253000D01*
X108845000Y-63803000D01*
X109853000Y-63803000D01*
X109853000Y-62412046D01*
X110107000Y-62412046D01*
X110107000Y-63803000D01*
X110127000Y-63803000D01*
X110127000Y-64057000D01*
X110107000Y-64057000D01*
X110107000Y-65447954D01*
X110281874Y-65574119D01*
X110504976Y-65494276D01*
X110692764Y-65372369D01*
X110853161Y-65216169D01*
X110980003Y-65031678D01*
X111068415Y-64825987D01*
X111115000Y-64607000D01*
X111115000Y-64316904D01*
X111129978Y-64323108D01*
X111315448Y-64360000D01*
X111504552Y-64360000D01*
X111690022Y-64323108D01*
X111864731Y-64250741D01*
X112021964Y-64145681D01*
X112155681Y-64011964D01*
X112260741Y-63854731D01*
X112333108Y-63680022D01*
X112370000Y-63494552D01*
X112370000Y-63305448D01*
X116230000Y-63305448D01*
X116230000Y-63494552D01*
X116266892Y-63680022D01*
X116339259Y-63854731D01*
X116444319Y-64011964D01*
X116578036Y-64145681D01*
X116735269Y-64250741D01*
X116909978Y-64323108D01*
X117095448Y-64360000D01*
X117284552Y-64360000D01*
X117470022Y-64323108D01*
X117485000Y-64316904D01*
X117485000Y-64607000D01*
X117531585Y-64825987D01*
X117619997Y-65031678D01*
X117746839Y-65216169D01*
X117907236Y-65372369D01*
X118095024Y-65494276D01*
X118318126Y-65574119D01*
X118493000Y-65447954D01*
X118493000Y-64057000D01*
X118747000Y-64057000D01*
X118747000Y-65447954D01*
X118921874Y-65574119D01*
X119144976Y-65494276D01*
X119332764Y-65372369D01*
X119493161Y-65216169D01*
X119620003Y-65031678D01*
X119708415Y-64825987D01*
X119755000Y-64607000D01*
X119755000Y-64057000D01*
X118747000Y-64057000D01*
X118493000Y-64057000D01*
X118473000Y-64057000D01*
X118473000Y-63803000D01*
X118493000Y-63803000D01*
X118493000Y-62412046D01*
X118747000Y-62412046D01*
X118747000Y-63803000D01*
X119755000Y-63803000D01*
X119755000Y-63253000D01*
X119708415Y-63034013D01*
X119620003Y-62828322D01*
X119493161Y-62643831D01*
X119332764Y-62487631D01*
X119144976Y-62365724D01*
X118921874Y-62285881D01*
X118747000Y-62412046D01*
X118493000Y-62412046D01*
X118318126Y-62285881D01*
X118095024Y-62365724D01*
X117907236Y-62487631D01*
X117762884Y-62628206D01*
X117644731Y-62549259D01*
X117470022Y-62476892D01*
X117284552Y-62440000D01*
X117095448Y-62440000D01*
X116909978Y-62476892D01*
X116735269Y-62549259D01*
X116578036Y-62654319D01*
X116444319Y-62788036D01*
X116339259Y-62945269D01*
X116266892Y-63119978D01*
X116230000Y-63305448D01*
X112370000Y-63305448D01*
X112333108Y-63119978D01*
X112260741Y-62945269D01*
X112155681Y-62788036D01*
X112021964Y-62654319D01*
X111864731Y-62549259D01*
X111690022Y-62476892D01*
X111504552Y-62440000D01*
X111315448Y-62440000D01*
X111129978Y-62476892D01*
X110955269Y-62549259D01*
X110837116Y-62628206D01*
X110692764Y-62487631D01*
X110504976Y-62365724D01*
X110281874Y-62285881D01*
X110107000Y-62412046D01*
X109853000Y-62412046D01*
X109678126Y-62285881D01*
X109455024Y-62365724D01*
X109267236Y-62487631D01*
X109106839Y-62643831D01*
X108979997Y-62828322D01*
X108891585Y-63034013D01*
X108845000Y-63253000D01*
X105314701Y-63253000D01*
X106288002Y-62279700D01*
X106493889Y-62279700D01*
X106537826Y-62323637D01*
X106707344Y-62436905D01*
X106895702Y-62514926D01*
X107095661Y-62554700D01*
X107299539Y-62554700D01*
X107499498Y-62514926D01*
X107687856Y-62436905D01*
X107857374Y-62323637D01*
X108001537Y-62179474D01*
X108114805Y-62009956D01*
X108192826Y-61821598D01*
X108232600Y-61621639D01*
X108232600Y-61417761D01*
X108192826Y-61217802D01*
X108114805Y-61029444D01*
X108001537Y-60859926D01*
X107857374Y-60715763D01*
X107687856Y-60602495D01*
X107499498Y-60524474D01*
X107299539Y-60484700D01*
X107095661Y-60484700D01*
X106895702Y-60524474D01*
X106707344Y-60602495D01*
X106537826Y-60715763D01*
X106493889Y-60759700D01*
X106010522Y-60759700D01*
X105973199Y-60756024D01*
X105935877Y-60759700D01*
X105935867Y-60759700D01*
X105824214Y-60770697D01*
X105680953Y-60814154D01*
X105548923Y-60884726D01*
X105478686Y-60942369D01*
X105433199Y-60979699D01*
X105409401Y-61008697D01*
X103708199Y-62709900D01*
X103646061Y-62709900D01*
X103446102Y-62749674D01*
X103257744Y-62827695D01*
X103088226Y-62940963D01*
X103044289Y-62984900D01*
X99425583Y-62984900D01*
X99417726Y-62945402D01*
X99339705Y-62757044D01*
X99226437Y-62587526D01*
X99082274Y-62443363D01*
X98912756Y-62330095D01*
X98724398Y-62252074D01*
X98524439Y-62212300D01*
X98320561Y-62212300D01*
X98120602Y-62252074D01*
X97932244Y-62330095D01*
X97762726Y-62443363D01*
X97618563Y-62587526D01*
X97505295Y-62757044D01*
X97427274Y-62945402D01*
X97387500Y-63145361D01*
X97387500Y-63193162D01*
X97373199Y-63204899D01*
X97349401Y-63233897D01*
X93067300Y-67515999D01*
X93067300Y-65015011D01*
X93111137Y-64971174D01*
X93224405Y-64801656D01*
X93302426Y-64613298D01*
X93342200Y-64413339D01*
X93342200Y-64209461D01*
X93302426Y-64009502D01*
X93224405Y-63821144D01*
X93111137Y-63651626D01*
X92966974Y-63507463D01*
X92797456Y-63394195D01*
X92609098Y-63316174D01*
X92409139Y-63276400D01*
X92205261Y-63276400D01*
X92005302Y-63316174D01*
X91816944Y-63394195D01*
X91647426Y-63507463D01*
X91503263Y-63651626D01*
X91389995Y-63821144D01*
X91311974Y-64009502D01*
X91272200Y-64209461D01*
X91272200Y-64413339D01*
X91311974Y-64613298D01*
X91389995Y-64801656D01*
X91503263Y-64971174D01*
X91547301Y-65015212D01*
X91547301Y-67765112D01*
X91508838Y-67739412D01*
X91238421Y-67627402D01*
X90951348Y-67570300D01*
X90658652Y-67570300D01*
X90371579Y-67627402D01*
X90101162Y-67739412D01*
X89857794Y-67902026D01*
X89650826Y-68108994D01*
X89488212Y-68352362D01*
X89376202Y-68622779D01*
X89319100Y-68909852D01*
X89319100Y-69202548D01*
X89370549Y-69461200D01*
X89324721Y-69461200D01*
X88912244Y-69543247D01*
X88807400Y-69586675D01*
X88807400Y-63212522D01*
X88811076Y-63175199D01*
X88807400Y-63137876D01*
X88807400Y-63137867D01*
X88796403Y-63026214D01*
X88752946Y-62882953D01*
X88706600Y-62796247D01*
X88706600Y-62697461D01*
X88666826Y-62497502D01*
X88588805Y-62309144D01*
X88475537Y-62139626D01*
X88331374Y-61995463D01*
X88161856Y-61882195D01*
X87973498Y-61804174D01*
X87773539Y-61764400D01*
X87569661Y-61764400D01*
X87369702Y-61804174D01*
X87181344Y-61882195D01*
X87011826Y-61995463D01*
X86867663Y-62139626D01*
X86754395Y-62309144D01*
X86676374Y-62497502D01*
X86636600Y-62697461D01*
X86636600Y-62901339D01*
X86676374Y-63101298D01*
X86754395Y-63289656D01*
X86867663Y-63459174D01*
X87011826Y-63603337D01*
X87181344Y-63716605D01*
X87287401Y-63760536D01*
X87287400Y-66938411D01*
X86970251Y-66726499D01*
X86491822Y-66528327D01*
X85983924Y-66427300D01*
X85466076Y-66427300D01*
X84958178Y-66528327D01*
X84479749Y-66726499D01*
X84049174Y-67014200D01*
X83683000Y-67380374D01*
X83395299Y-67810949D01*
X83197127Y-68289378D01*
X83096100Y-68797276D01*
X83096100Y-69315124D01*
X83197127Y-69823022D01*
X83395299Y-70301451D01*
X83683000Y-70732026D01*
X84049174Y-71098200D01*
X84479749Y-71385901D01*
X84958178Y-71584073D01*
X85466076Y-71685100D01*
X85983924Y-71685100D01*
X86491822Y-71584073D01*
X86922801Y-71405556D01*
X86922800Y-72471977D01*
X86919124Y-72509300D01*
X86922800Y-72546622D01*
X86922800Y-72546632D01*
X86933797Y-72658285D01*
X86977254Y-72801546D01*
X87047826Y-72933576D01*
X87067200Y-72957183D01*
X87142799Y-73049301D01*
X87171803Y-73073104D01*
X89470198Y-75371500D01*
X89438226Y-75392863D01*
X89294063Y-75537026D01*
X89180795Y-75706544D01*
X89102774Y-75894902D01*
X89063000Y-76094861D01*
X89063000Y-76298739D01*
X89102774Y-76498698D01*
X89180795Y-76687056D01*
X89294063Y-76856574D01*
X89338001Y-76900512D01*
X89338001Y-81175414D01*
X89276302Y-81134188D01*
X88887756Y-80973247D01*
X88475279Y-80891200D01*
X88054721Y-80891200D01*
X87642244Y-80973247D01*
X87253698Y-81134188D01*
X86904017Y-81367837D01*
X86606637Y-81665217D01*
X86372988Y-82014898D01*
X86212047Y-82403444D01*
X86130000Y-82815921D01*
X86130000Y-83236479D01*
X86212047Y-83648956D01*
X86372988Y-84037502D01*
X86606637Y-84387183D01*
X86904017Y-84684563D01*
X87253698Y-84918212D01*
X87642244Y-85079153D01*
X88054721Y-85161200D01*
X88475279Y-85161200D01*
X88887756Y-85079153D01*
X89276302Y-84918212D01*
X89338000Y-84876987D01*
X89338000Y-86698498D01*
X88326578Y-87709920D01*
X88252873Y-87339378D01*
X88054701Y-86860949D01*
X87767000Y-86430374D01*
X87400826Y-86064200D01*
X86970251Y-85776499D01*
X86491822Y-85578327D01*
X85983924Y-85477300D01*
X85466076Y-85477300D01*
X84958178Y-85578327D01*
X84479749Y-85776499D01*
X84049174Y-86064200D01*
X83978763Y-86134611D01*
X84050000Y-85776479D01*
X84050000Y-85355921D01*
X83967953Y-84943444D01*
X83807012Y-84554898D01*
X83573363Y-84205217D01*
X83275983Y-83907837D01*
X82926302Y-83674188D01*
X82537756Y-83513247D01*
X82125279Y-83431200D01*
X81704721Y-83431200D01*
X81292244Y-83513247D01*
X80903698Y-83674188D01*
X80554017Y-83907837D01*
X80256637Y-84205217D01*
X80022988Y-84554898D01*
X79862047Y-84943444D01*
X79780000Y-85355921D01*
X79780000Y-85776479D01*
X79862047Y-86188956D01*
X80022988Y-86577502D01*
X80116150Y-86716930D01*
X79941162Y-86789412D01*
X79697794Y-86952026D01*
X79490826Y-87158994D01*
X79328212Y-87402362D01*
X79216202Y-87672779D01*
X79159100Y-87959852D01*
X76327000Y-87959852D01*
X76327000Y-73925921D01*
X81050000Y-73925921D01*
X81050000Y-74346479D01*
X81132047Y-74758956D01*
X81292988Y-75147502D01*
X81526637Y-75497183D01*
X81824017Y-75794563D01*
X82173698Y-76028212D01*
X82562244Y-76189153D01*
X82974721Y-76271200D01*
X83395279Y-76271200D01*
X83807756Y-76189153D01*
X84196302Y-76028212D01*
X84545983Y-75794563D01*
X84843363Y-75497183D01*
X85077012Y-75147502D01*
X85237953Y-74758956D01*
X85320000Y-74346479D01*
X85320000Y-73925921D01*
X85237953Y-73513444D01*
X85077012Y-73124898D01*
X84843363Y-72775217D01*
X84545983Y-72477837D01*
X84196302Y-72244188D01*
X83807756Y-72083247D01*
X83395279Y-72001200D01*
X82974721Y-72001200D01*
X82562244Y-72083247D01*
X82173698Y-72244188D01*
X81824017Y-72477837D01*
X81526637Y-72775217D01*
X81292988Y-73124898D01*
X81132047Y-73513444D01*
X81050000Y-73925921D01*
X76327000Y-73925921D01*
X76327000Y-68909852D01*
X79159100Y-68909852D01*
X79159100Y-69202548D01*
X79216202Y-69489621D01*
X79328212Y-69760038D01*
X79490826Y-70003406D01*
X79697794Y-70210374D01*
X79941162Y-70372988D01*
X80211579Y-70484998D01*
X80498652Y-70542100D01*
X80791348Y-70542100D01*
X81078421Y-70484998D01*
X81348838Y-70372988D01*
X81592206Y-70210374D01*
X81799174Y-70003406D01*
X81961788Y-69760038D01*
X82073798Y-69489621D01*
X82130900Y-69202548D01*
X82130900Y-68909852D01*
X82073798Y-68622779D01*
X81961788Y-68352362D01*
X81799174Y-68108994D01*
X81592206Y-67902026D01*
X81348838Y-67739412D01*
X81078421Y-67627402D01*
X80791348Y-67570300D01*
X80498652Y-67570300D01*
X80211579Y-67627402D01*
X79941162Y-67739412D01*
X79697794Y-67902026D01*
X79490826Y-68108994D01*
X79328212Y-68352362D01*
X79216202Y-68622779D01*
X79159100Y-68909852D01*
X76327000Y-68909852D01*
X76327000Y-62282606D01*
X78792606Y-59817000D01*
X108845000Y-59817000D01*
X108845000Y-60177000D01*
X108845000Y-60177000D01*
G37*
X108845000Y-60177000D02*
X108891585Y-60395987D01*
X108979997Y-60601678D01*
X109106839Y-60786169D01*
X109267236Y-60942369D01*
X109455024Y-61064276D01*
X109678126Y-61144119D01*
X109853000Y-61017954D01*
X109853000Y-59877000D01*
X109833000Y-59877000D01*
X109833000Y-59817000D01*
X110127000Y-59817000D01*
X110127000Y-59877000D01*
X110107000Y-59877000D01*
X110107000Y-61017954D01*
X110281874Y-61144119D01*
X110504976Y-61064276D01*
X110692764Y-60942369D01*
X110853161Y-60786169D01*
X110980003Y-60601678D01*
X111068415Y-60395987D01*
X111115000Y-60177000D01*
X111115000Y-59817000D01*
X117485000Y-59817000D01*
X117485000Y-60177000D01*
X117531585Y-60395987D01*
X117619997Y-60601678D01*
X117746839Y-60786169D01*
X117907236Y-60942369D01*
X118095024Y-61064276D01*
X118318126Y-61144119D01*
X118493000Y-61017954D01*
X118493000Y-59877000D01*
X118473000Y-59877000D01*
X118473000Y-59817000D01*
X118767000Y-59817000D01*
X118767000Y-59877000D01*
X118747000Y-59877000D01*
X118747000Y-61017954D01*
X118921874Y-61144119D01*
X119144976Y-61064276D01*
X119332764Y-60942369D01*
X119493161Y-60786169D01*
X119620003Y-60601678D01*
X119708415Y-60395987D01*
X119755000Y-60177000D01*
X119755000Y-59817000D01*
X149807394Y-59817000D01*
X152273000Y-62282606D01*
X152273000Y-140917394D01*
X149807394Y-143383000D01*
X123317000Y-143383000D01*
X123317000Y-136310000D01*
X138211928Y-136310000D01*
X138211928Y-138010000D01*
X138224188Y-138134482D01*
X138260498Y-138254180D01*
X138319463Y-138364494D01*
X138398815Y-138461185D01*
X138495506Y-138540537D01*
X138605820Y-138599502D01*
X138725518Y-138635812D01*
X138850000Y-138648072D01*
X140550000Y-138648072D01*
X140674482Y-138635812D01*
X140794180Y-138599502D01*
X140904494Y-138540537D01*
X141001185Y-138461185D01*
X141080537Y-138364494D01*
X141139502Y-138254180D01*
X141163966Y-138173534D01*
X141239731Y-138257588D01*
X141473080Y-138431641D01*
X141735901Y-138556825D01*
X141883110Y-138601476D01*
X142113000Y-138480155D01*
X142113000Y-137287000D01*
X142093000Y-137287000D01*
X142093000Y-137033000D01*
X142113000Y-137033000D01*
X142113000Y-135839845D01*
X142367000Y-135839845D01*
X142367000Y-137033000D01*
X142387000Y-137033000D01*
X142387000Y-137287000D01*
X142367000Y-137287000D01*
X142367000Y-138480155D01*
X142596890Y-138601476D01*
X142744099Y-138556825D01*
X143006920Y-138431641D01*
X143240269Y-138257588D01*
X143435178Y-138041355D01*
X143504799Y-137924477D01*
X143539294Y-137989014D01*
X143724866Y-138215134D01*
X143950986Y-138400706D01*
X144208966Y-138538599D01*
X144488889Y-138623513D01*
X144707050Y-138645000D01*
X144852950Y-138645000D01*
X145071111Y-138623513D01*
X145351034Y-138538599D01*
X145609014Y-138400706D01*
X145835134Y-138215134D01*
X146020706Y-137989014D01*
X146050000Y-137934209D01*
X146079294Y-137989014D01*
X146264866Y-138215134D01*
X146490986Y-138400706D01*
X146748966Y-138538599D01*
X147028889Y-138623513D01*
X147247050Y-138645000D01*
X147392950Y-138645000D01*
X147611111Y-138623513D01*
X147891034Y-138538599D01*
X148149014Y-138400706D01*
X148375134Y-138215134D01*
X148560706Y-137989014D01*
X148698599Y-137731034D01*
X148783513Y-137451111D01*
X148812185Y-137160000D01*
X148783513Y-136868889D01*
X148698599Y-136588966D01*
X148560706Y-136330986D01*
X148375134Y-136104866D01*
X148149014Y-135919294D01*
X147891034Y-135781401D01*
X147611111Y-135696487D01*
X147392950Y-135675000D01*
X147247050Y-135675000D01*
X147028889Y-135696487D01*
X146748966Y-135781401D01*
X146490986Y-135919294D01*
X146264866Y-136104866D01*
X146079294Y-136330986D01*
X146050000Y-136385791D01*
X146020706Y-136330986D01*
X145835134Y-136104866D01*
X145609014Y-135919294D01*
X145351034Y-135781401D01*
X145071111Y-135696487D01*
X144852950Y-135675000D01*
X144707050Y-135675000D01*
X144488889Y-135696487D01*
X144208966Y-135781401D01*
X143950986Y-135919294D01*
X143724866Y-136104866D01*
X143539294Y-136330986D01*
X143504799Y-136395523D01*
X143435178Y-136278645D01*
X143240269Y-136062412D01*
X143006920Y-135888359D01*
X142744099Y-135763175D01*
X142596890Y-135718524D01*
X142367000Y-135839845D01*
X142113000Y-135839845D01*
X141883110Y-135718524D01*
X141735901Y-135763175D01*
X141473080Y-135888359D01*
X141239731Y-136062412D01*
X141163966Y-136146466D01*
X141139502Y-136065820D01*
X141080537Y-135955506D01*
X141001185Y-135858815D01*
X140904494Y-135779463D01*
X140794180Y-135720498D01*
X140674482Y-135684188D01*
X140550000Y-135671928D01*
X138850000Y-135671928D01*
X138725518Y-135684188D01*
X138605820Y-135720498D01*
X138495506Y-135779463D01*
X138398815Y-135858815D01*
X138319463Y-135955506D01*
X138260498Y-136065820D01*
X138224188Y-136185518D01*
X138211928Y-136310000D01*
X123317000Y-136310000D01*
X123317000Y-129540000D01*
X123314560Y-129515224D01*
X123307333Y-129491399D01*
X123295597Y-129469443D01*
X123279803Y-129450197D01*
X123260557Y-129434403D01*
X123238601Y-129422667D01*
X123214776Y-129415440D01*
X123190000Y-129413000D01*
X107891800Y-129413000D01*
X107891800Y-126059652D01*
X108369100Y-126059652D01*
X108369100Y-126352348D01*
X108426202Y-126639421D01*
X108538212Y-126909838D01*
X108700826Y-127153206D01*
X108907794Y-127360174D01*
X109151162Y-127522788D01*
X109421579Y-127634798D01*
X109708652Y-127691900D01*
X110001348Y-127691900D01*
X110288421Y-127634798D01*
X110558838Y-127522788D01*
X110802206Y-127360174D01*
X111009174Y-127153206D01*
X111171788Y-126909838D01*
X111283798Y-126639421D01*
X111340900Y-126352348D01*
X111340900Y-126059652D01*
X117259100Y-126059652D01*
X117259100Y-126352348D01*
X117316202Y-126639421D01*
X117428212Y-126909838D01*
X117590826Y-127153206D01*
X117797794Y-127360174D01*
X118041162Y-127522788D01*
X118311579Y-127634798D01*
X118598652Y-127691900D01*
X118891348Y-127691900D01*
X119178421Y-127634798D01*
X119448838Y-127522788D01*
X119692206Y-127360174D01*
X119899174Y-127153206D01*
X120061788Y-126909838D01*
X120173798Y-126639421D01*
X120230900Y-126352348D01*
X120230900Y-126059652D01*
X120179451Y-125801000D01*
X120225279Y-125801000D01*
X120637756Y-125718953D01*
X121026302Y-125558012D01*
X121332708Y-125353279D01*
X121297127Y-125439178D01*
X121196100Y-125947076D01*
X121196100Y-126464924D01*
X121297127Y-126972822D01*
X121495299Y-127451251D01*
X121783000Y-127881826D01*
X122149174Y-128248000D01*
X122579749Y-128535701D01*
X123058178Y-128733873D01*
X123566076Y-128834900D01*
X124083924Y-128834900D01*
X124591822Y-128733873D01*
X125070251Y-128535701D01*
X125500826Y-128248000D01*
X125867000Y-127881826D01*
X126154701Y-127451251D01*
X126352873Y-126972822D01*
X126453900Y-126464924D01*
X126453900Y-126059652D01*
X127419100Y-126059652D01*
X127419100Y-126352348D01*
X127476202Y-126639421D01*
X127588212Y-126909838D01*
X127750826Y-127153206D01*
X127957794Y-127360174D01*
X128201162Y-127522788D01*
X128471579Y-127634798D01*
X128758652Y-127691900D01*
X129051348Y-127691900D01*
X129338421Y-127634798D01*
X129608838Y-127522788D01*
X129852206Y-127360174D01*
X130059174Y-127153206D01*
X130221788Y-126909838D01*
X130333798Y-126639421D01*
X130390900Y-126352348D01*
X130390900Y-126059652D01*
X136309100Y-126059652D01*
X136309100Y-126352348D01*
X136366202Y-126639421D01*
X136478212Y-126909838D01*
X136640826Y-127153206D01*
X136847794Y-127360174D01*
X137091162Y-127522788D01*
X137361579Y-127634798D01*
X137648652Y-127691900D01*
X137941348Y-127691900D01*
X138228421Y-127634798D01*
X138498838Y-127522788D01*
X138742206Y-127360174D01*
X138949174Y-127153206D01*
X139111788Y-126909838D01*
X139223798Y-126639421D01*
X139280900Y-126352348D01*
X139280900Y-126059652D01*
X139229451Y-125801000D01*
X139275279Y-125801000D01*
X139687756Y-125718953D01*
X140076302Y-125558012D01*
X140382708Y-125353279D01*
X140347127Y-125439178D01*
X140246100Y-125947076D01*
X140246100Y-126464924D01*
X140347127Y-126972822D01*
X140545299Y-127451251D01*
X140833000Y-127881826D01*
X141199174Y-128248000D01*
X141629749Y-128535701D01*
X142108178Y-128733873D01*
X142616076Y-128834900D01*
X143133924Y-128834900D01*
X143641822Y-128733873D01*
X144120251Y-128535701D01*
X144550826Y-128248000D01*
X144917000Y-127881826D01*
X145204701Y-127451251D01*
X145402873Y-126972822D01*
X145503900Y-126464924D01*
X145503900Y-126059652D01*
X146469100Y-126059652D01*
X146469100Y-126352348D01*
X146526202Y-126639421D01*
X146638212Y-126909838D01*
X146800826Y-127153206D01*
X147007794Y-127360174D01*
X147251162Y-127522788D01*
X147521579Y-127634798D01*
X147808652Y-127691900D01*
X148101348Y-127691900D01*
X148388421Y-127634798D01*
X148658838Y-127522788D01*
X148902206Y-127360174D01*
X149109174Y-127153206D01*
X149271788Y-126909838D01*
X149383798Y-126639421D01*
X149440900Y-126352348D01*
X149440900Y-126059652D01*
X149383798Y-125772579D01*
X149271788Y-125502162D01*
X149109174Y-125258794D01*
X148902206Y-125051826D01*
X148658838Y-124889212D01*
X148388421Y-124777202D01*
X148101348Y-124720100D01*
X147808652Y-124720100D01*
X147521579Y-124777202D01*
X147251162Y-124889212D01*
X147007794Y-125051826D01*
X146800826Y-125258794D01*
X146638212Y-125502162D01*
X146526202Y-125772579D01*
X146469100Y-126059652D01*
X145503900Y-126059652D01*
X145503900Y-125947076D01*
X145402873Y-125439178D01*
X145204701Y-124960749D01*
X144917000Y-124530174D01*
X144550826Y-124164000D01*
X144120251Y-123876299D01*
X143641822Y-123678127D01*
X143133924Y-123577100D01*
X142616076Y-123577100D01*
X142108178Y-123678127D01*
X141629749Y-123876299D01*
X141199174Y-124164000D01*
X141128763Y-124234411D01*
X141200000Y-123876279D01*
X141200000Y-123455721D01*
X141117953Y-123043244D01*
X140957012Y-122654698D01*
X140723363Y-122305017D01*
X140425983Y-122007637D01*
X140076302Y-121773988D01*
X139687756Y-121613047D01*
X139275279Y-121531000D01*
X138854721Y-121531000D01*
X138442244Y-121613047D01*
X138053698Y-121773988D01*
X137704017Y-122007637D01*
X137406637Y-122305017D01*
X137172988Y-122654698D01*
X137012047Y-123043244D01*
X136930000Y-123455721D01*
X136930000Y-123876279D01*
X137012047Y-124288756D01*
X137172988Y-124677302D01*
X137266150Y-124816730D01*
X137091162Y-124889212D01*
X136847794Y-125051826D01*
X136640826Y-125258794D01*
X136478212Y-125502162D01*
X136366202Y-125772579D01*
X136309100Y-126059652D01*
X130390900Y-126059652D01*
X130333798Y-125772579D01*
X130221788Y-125502162D01*
X130059174Y-125258794D01*
X129852206Y-125051826D01*
X129608838Y-124889212D01*
X129338421Y-124777202D01*
X129051348Y-124720100D01*
X128758652Y-124720100D01*
X128471579Y-124777202D01*
X128201162Y-124889212D01*
X127957794Y-125051826D01*
X127750826Y-125258794D01*
X127588212Y-125502162D01*
X127476202Y-125772579D01*
X127419100Y-126059652D01*
X126453900Y-126059652D01*
X126453900Y-125947076D01*
X126352873Y-125439178D01*
X126154701Y-124960749D01*
X125867000Y-124530174D01*
X125500826Y-124164000D01*
X125070251Y-123876299D01*
X124591822Y-123678127D01*
X124083924Y-123577100D01*
X123566076Y-123577100D01*
X123058178Y-123678127D01*
X122579749Y-123876299D01*
X122149174Y-124164000D01*
X122078763Y-124234411D01*
X122150000Y-123876279D01*
X122150000Y-123455721D01*
X122067953Y-123043244D01*
X121907012Y-122654698D01*
X121673363Y-122305017D01*
X121375983Y-122007637D01*
X121026302Y-121773988D01*
X120637756Y-121613047D01*
X120225279Y-121531000D01*
X119804721Y-121531000D01*
X119392244Y-121613047D01*
X119003698Y-121773988D01*
X118654017Y-122007637D01*
X118356637Y-122305017D01*
X118122988Y-122654698D01*
X117962047Y-123043244D01*
X117880000Y-123455721D01*
X117880000Y-123876279D01*
X117962047Y-124288756D01*
X118122988Y-124677302D01*
X118216150Y-124816730D01*
X118041162Y-124889212D01*
X117797794Y-125051826D01*
X117590826Y-125258794D01*
X117428212Y-125502162D01*
X117316202Y-125772579D01*
X117259100Y-126059652D01*
X111340900Y-126059652D01*
X111283798Y-125772579D01*
X111171788Y-125502162D01*
X111009174Y-125258794D01*
X110802206Y-125051826D01*
X110558838Y-124889212D01*
X110288421Y-124777202D01*
X110001348Y-124720100D01*
X109708652Y-124720100D01*
X109421579Y-124777202D01*
X109151162Y-124889212D01*
X108907794Y-125051826D01*
X108700826Y-125258794D01*
X108538212Y-125502162D01*
X108426202Y-125772579D01*
X108369100Y-126059652D01*
X107891800Y-126059652D01*
X107891800Y-124639033D01*
X107895477Y-124601700D01*
X107880803Y-124452714D01*
X107837346Y-124309453D01*
X107766774Y-124177424D01*
X107695599Y-124090697D01*
X107671801Y-124061699D01*
X107642804Y-124037902D01*
X106806602Y-123201700D01*
X107104721Y-123261000D01*
X107525279Y-123261000D01*
X107937756Y-123178953D01*
X108326302Y-123018012D01*
X108675983Y-122784363D01*
X108973363Y-122486983D01*
X109207012Y-122137302D01*
X109367953Y-121748756D01*
X109450000Y-121336279D01*
X109450000Y-120915721D01*
X124230000Y-120915721D01*
X124230000Y-121336279D01*
X124312047Y-121748756D01*
X124472988Y-122137302D01*
X124706637Y-122486983D01*
X125004017Y-122784363D01*
X125353698Y-123018012D01*
X125742244Y-123178953D01*
X126154721Y-123261000D01*
X126575279Y-123261000D01*
X126987756Y-123178953D01*
X127376302Y-123018012D01*
X127725983Y-122784363D01*
X128023363Y-122486983D01*
X128257012Y-122137302D01*
X128417953Y-121748756D01*
X128500000Y-121336279D01*
X128500000Y-120915721D01*
X143280000Y-120915721D01*
X143280000Y-121336279D01*
X143362047Y-121748756D01*
X143522988Y-122137302D01*
X143756637Y-122486983D01*
X144054017Y-122784363D01*
X144403698Y-123018012D01*
X144792244Y-123178953D01*
X145204721Y-123261000D01*
X145625279Y-123261000D01*
X146037756Y-123178953D01*
X146426302Y-123018012D01*
X146775983Y-122784363D01*
X147073363Y-122486983D01*
X147307012Y-122137302D01*
X147467953Y-121748756D01*
X147550000Y-121336279D01*
X147550000Y-120915721D01*
X147467953Y-120503244D01*
X147307012Y-120114698D01*
X147073363Y-119765017D01*
X146775983Y-119467637D01*
X146426302Y-119233988D01*
X146037756Y-119073047D01*
X145625279Y-118991000D01*
X145204721Y-118991000D01*
X144792244Y-119073047D01*
X144403698Y-119233988D01*
X144054017Y-119467637D01*
X143756637Y-119765017D01*
X143522988Y-120114698D01*
X143362047Y-120503244D01*
X143280000Y-120915721D01*
X128500000Y-120915721D01*
X128417953Y-120503244D01*
X128257012Y-120114698D01*
X128023363Y-119765017D01*
X127725983Y-119467637D01*
X127376302Y-119233988D01*
X126987756Y-119073047D01*
X126575279Y-118991000D01*
X126154721Y-118991000D01*
X125742244Y-119073047D01*
X125353698Y-119233988D01*
X125004017Y-119467637D01*
X124706637Y-119765017D01*
X124472988Y-120114698D01*
X124312047Y-120503244D01*
X124230000Y-120915721D01*
X109450000Y-120915721D01*
X109367953Y-120503244D01*
X109207012Y-120114698D01*
X108973363Y-119765017D01*
X108675983Y-119467637D01*
X108326302Y-119233988D01*
X107937756Y-119073047D01*
X107525279Y-118991000D01*
X107104721Y-118991000D01*
X106692244Y-119073047D01*
X106303698Y-119233988D01*
X105954017Y-119467637D01*
X105656637Y-119765017D01*
X105509600Y-119985074D01*
X105509600Y-112025721D01*
X119150000Y-112025721D01*
X119150000Y-112446279D01*
X119232047Y-112858756D01*
X119392988Y-113247302D01*
X119626637Y-113596983D01*
X119924017Y-113894363D01*
X120273698Y-114128012D01*
X120662244Y-114288953D01*
X121074721Y-114371000D01*
X121495279Y-114371000D01*
X121907756Y-114288953D01*
X122296302Y-114128012D01*
X122645983Y-113894363D01*
X122943363Y-113596983D01*
X123177012Y-113247302D01*
X123337953Y-112858756D01*
X123420000Y-112446279D01*
X123420000Y-112025721D01*
X138200000Y-112025721D01*
X138200000Y-112446279D01*
X138282047Y-112858756D01*
X138442988Y-113247302D01*
X138676637Y-113596983D01*
X138974017Y-113894363D01*
X139323698Y-114128012D01*
X139712244Y-114288953D01*
X140124721Y-114371000D01*
X140545279Y-114371000D01*
X140957756Y-114288953D01*
X141346302Y-114128012D01*
X141695983Y-113894363D01*
X141993363Y-113596983D01*
X142227012Y-113247302D01*
X142387953Y-112858756D01*
X142470000Y-112446279D01*
X142470000Y-112025721D01*
X142387953Y-111613244D01*
X142227012Y-111224698D01*
X141993363Y-110875017D01*
X141695983Y-110577637D01*
X141346302Y-110343988D01*
X140957756Y-110183047D01*
X140545279Y-110101000D01*
X140124721Y-110101000D01*
X139712244Y-110183047D01*
X139323698Y-110343988D01*
X138974017Y-110577637D01*
X138676637Y-110875017D01*
X138442988Y-111224698D01*
X138282047Y-111613244D01*
X138200000Y-112025721D01*
X123420000Y-112025721D01*
X123337953Y-111613244D01*
X123177012Y-111224698D01*
X122943363Y-110875017D01*
X122645983Y-110577637D01*
X122296302Y-110343988D01*
X121907756Y-110183047D01*
X121495279Y-110101000D01*
X121074721Y-110101000D01*
X120662244Y-110183047D01*
X120273698Y-110343988D01*
X119924017Y-110577637D01*
X119626637Y-110875017D01*
X119392988Y-111224698D01*
X119232047Y-111613244D01*
X119150000Y-112025721D01*
X105509600Y-112025721D01*
X105509600Y-110584322D01*
X105513276Y-110546999D01*
X105509600Y-110509676D01*
X105509600Y-110509667D01*
X105498603Y-110398014D01*
X105455146Y-110254753D01*
X105384574Y-110122724D01*
X105289601Y-110006999D01*
X105260604Y-109983202D01*
X105057594Y-109780192D01*
X105541822Y-109683873D01*
X106020251Y-109485701D01*
X106450826Y-109198000D01*
X106521237Y-109127589D01*
X106450000Y-109485721D01*
X106450000Y-109906279D01*
X106532047Y-110318756D01*
X106692988Y-110707302D01*
X106926637Y-111056983D01*
X107224017Y-111354363D01*
X107573698Y-111588012D01*
X107962244Y-111748953D01*
X108374721Y-111831000D01*
X108795279Y-111831000D01*
X109207756Y-111748953D01*
X109596302Y-111588012D01*
X109945983Y-111354363D01*
X110243363Y-111056983D01*
X110477012Y-110707302D01*
X110637953Y-110318756D01*
X110720000Y-109906279D01*
X110720000Y-109485721D01*
X110637953Y-109073244D01*
X110477012Y-108684698D01*
X110383850Y-108545270D01*
X110558838Y-108472788D01*
X110802206Y-108310174D01*
X111009174Y-108103206D01*
X111171788Y-107859838D01*
X111283798Y-107589421D01*
X111340900Y-107302348D01*
X111340900Y-107009652D01*
X117259100Y-107009652D01*
X117259100Y-107302348D01*
X117316202Y-107589421D01*
X117428212Y-107859838D01*
X117590826Y-108103206D01*
X117797794Y-108310174D01*
X118041162Y-108472788D01*
X118311579Y-108584798D01*
X118598652Y-108641900D01*
X118891348Y-108641900D01*
X119178421Y-108584798D01*
X119448838Y-108472788D01*
X119692206Y-108310174D01*
X119899174Y-108103206D01*
X120061788Y-107859838D01*
X120173798Y-107589421D01*
X120230900Y-107302348D01*
X120230900Y-107009652D01*
X120208508Y-106897076D01*
X121196100Y-106897076D01*
X121196100Y-107414924D01*
X121297127Y-107922822D01*
X121495299Y-108401251D01*
X121783000Y-108831826D01*
X122149174Y-109198000D01*
X122579749Y-109485701D01*
X123058178Y-109683873D01*
X123566076Y-109784900D01*
X124083924Y-109784900D01*
X124591822Y-109683873D01*
X125070251Y-109485701D01*
X125500826Y-109198000D01*
X125571237Y-109127589D01*
X125500000Y-109485721D01*
X125500000Y-109906279D01*
X125582047Y-110318756D01*
X125742988Y-110707302D01*
X125976637Y-111056983D01*
X126274017Y-111354363D01*
X126623698Y-111588012D01*
X127012244Y-111748953D01*
X127424721Y-111831000D01*
X127845279Y-111831000D01*
X128257756Y-111748953D01*
X128646302Y-111588012D01*
X128995983Y-111354363D01*
X129293363Y-111056983D01*
X129527012Y-110707302D01*
X129687953Y-110318756D01*
X129770000Y-109906279D01*
X129770000Y-109485721D01*
X129687953Y-109073244D01*
X129527012Y-108684698D01*
X129433850Y-108545270D01*
X129608838Y-108472788D01*
X129852206Y-108310174D01*
X130059174Y-108103206D01*
X130221788Y-107859838D01*
X130333798Y-107589421D01*
X130390900Y-107302348D01*
X130390900Y-107009652D01*
X136309100Y-107009652D01*
X136309100Y-107302348D01*
X136366202Y-107589421D01*
X136478212Y-107859838D01*
X136640826Y-108103206D01*
X136847794Y-108310174D01*
X137091162Y-108472788D01*
X137361579Y-108584798D01*
X137648652Y-108641900D01*
X137941348Y-108641900D01*
X138228421Y-108584798D01*
X138498838Y-108472788D01*
X138742206Y-108310174D01*
X138949174Y-108103206D01*
X139111788Y-107859838D01*
X139223798Y-107589421D01*
X139280900Y-107302348D01*
X139280900Y-107009652D01*
X139258508Y-106897076D01*
X140246100Y-106897076D01*
X140246100Y-107414924D01*
X140347127Y-107922822D01*
X140545299Y-108401251D01*
X140833000Y-108831826D01*
X141199174Y-109198000D01*
X141629749Y-109485701D01*
X142108178Y-109683873D01*
X142616076Y-109784900D01*
X143133924Y-109784900D01*
X143641822Y-109683873D01*
X144120251Y-109485701D01*
X144550826Y-109198000D01*
X144621237Y-109127589D01*
X144550000Y-109485721D01*
X144550000Y-109906279D01*
X144632047Y-110318756D01*
X144792988Y-110707302D01*
X145026637Y-111056983D01*
X145324017Y-111354363D01*
X145673698Y-111588012D01*
X146062244Y-111748953D01*
X146474721Y-111831000D01*
X146895279Y-111831000D01*
X147307756Y-111748953D01*
X147696302Y-111588012D01*
X148045983Y-111354363D01*
X148343363Y-111056983D01*
X148577012Y-110707302D01*
X148737953Y-110318756D01*
X148820000Y-109906279D01*
X148820000Y-109485721D01*
X148737953Y-109073244D01*
X148577012Y-108684698D01*
X148483850Y-108545270D01*
X148658838Y-108472788D01*
X148902206Y-108310174D01*
X149109174Y-108103206D01*
X149271788Y-107859838D01*
X149383798Y-107589421D01*
X149440900Y-107302348D01*
X149440900Y-107009652D01*
X149383798Y-106722579D01*
X149271788Y-106452162D01*
X149109174Y-106208794D01*
X148902206Y-106001826D01*
X148658838Y-105839212D01*
X148388421Y-105727202D01*
X148101348Y-105670100D01*
X147808652Y-105670100D01*
X147521579Y-105727202D01*
X147251162Y-105839212D01*
X147007794Y-106001826D01*
X146800826Y-106208794D01*
X146638212Y-106452162D01*
X146526202Y-106722579D01*
X146469100Y-107009652D01*
X146469100Y-107302348D01*
X146520549Y-107561000D01*
X146474721Y-107561000D01*
X146062244Y-107643047D01*
X145673698Y-107803988D01*
X145367292Y-108008721D01*
X145402873Y-107922822D01*
X145503900Y-107414924D01*
X145503900Y-106897076D01*
X145402873Y-106389178D01*
X145204701Y-105910749D01*
X144917000Y-105480174D01*
X144550826Y-105114000D01*
X144120251Y-104826299D01*
X143641822Y-104628127D01*
X143133924Y-104527100D01*
X142616076Y-104527100D01*
X142108178Y-104628127D01*
X141629749Y-104826299D01*
X141199174Y-105114000D01*
X140833000Y-105480174D01*
X140545299Y-105910749D01*
X140347127Y-106389178D01*
X140246100Y-106897076D01*
X139258508Y-106897076D01*
X139223798Y-106722579D01*
X139111788Y-106452162D01*
X138949174Y-106208794D01*
X138742206Y-106001826D01*
X138498838Y-105839212D01*
X138228421Y-105727202D01*
X137941348Y-105670100D01*
X137648652Y-105670100D01*
X137361579Y-105727202D01*
X137091162Y-105839212D01*
X136847794Y-106001826D01*
X136640826Y-106208794D01*
X136478212Y-106452162D01*
X136366202Y-106722579D01*
X136309100Y-107009652D01*
X130390900Y-107009652D01*
X130333798Y-106722579D01*
X130221788Y-106452162D01*
X130059174Y-106208794D01*
X129852206Y-106001826D01*
X129608838Y-105839212D01*
X129338421Y-105727202D01*
X129051348Y-105670100D01*
X128758652Y-105670100D01*
X128471579Y-105727202D01*
X128201162Y-105839212D01*
X127957794Y-106001826D01*
X127750826Y-106208794D01*
X127588212Y-106452162D01*
X127476202Y-106722579D01*
X127419100Y-107009652D01*
X127419100Y-107302348D01*
X127470549Y-107561000D01*
X127424721Y-107561000D01*
X127012244Y-107643047D01*
X126623698Y-107803988D01*
X126317292Y-108008721D01*
X126352873Y-107922822D01*
X126453900Y-107414924D01*
X126453900Y-106897076D01*
X126352873Y-106389178D01*
X126154701Y-105910749D01*
X125867000Y-105480174D01*
X125500826Y-105114000D01*
X125070251Y-104826299D01*
X124591822Y-104628127D01*
X124083924Y-104527100D01*
X123566076Y-104527100D01*
X123058178Y-104628127D01*
X122579749Y-104826299D01*
X122149174Y-105114000D01*
X121783000Y-105480174D01*
X121495299Y-105910749D01*
X121297127Y-106389178D01*
X121196100Y-106897076D01*
X120208508Y-106897076D01*
X120173798Y-106722579D01*
X120061788Y-106452162D01*
X119899174Y-106208794D01*
X119692206Y-106001826D01*
X119448838Y-105839212D01*
X119178421Y-105727202D01*
X118891348Y-105670100D01*
X118598652Y-105670100D01*
X118311579Y-105727202D01*
X118041162Y-105839212D01*
X117797794Y-106001826D01*
X117590826Y-106208794D01*
X117428212Y-106452162D01*
X117316202Y-106722579D01*
X117259100Y-107009652D01*
X111340900Y-107009652D01*
X111283798Y-106722579D01*
X111171788Y-106452162D01*
X111009174Y-106208794D01*
X110802206Y-106001826D01*
X110558838Y-105839212D01*
X110288421Y-105727202D01*
X110001348Y-105670100D01*
X109708652Y-105670100D01*
X109421579Y-105727202D01*
X109151162Y-105839212D01*
X108907794Y-106001826D01*
X108700826Y-106208794D01*
X108538212Y-106452162D01*
X108426202Y-106722579D01*
X108369100Y-107009652D01*
X108369100Y-107302348D01*
X108420549Y-107561000D01*
X108374721Y-107561000D01*
X107962244Y-107643047D01*
X107573698Y-107803988D01*
X107267292Y-108008721D01*
X107302873Y-107922822D01*
X107403900Y-107414924D01*
X107403900Y-106897076D01*
X107302873Y-106389178D01*
X107104701Y-105910749D01*
X106817000Y-105480174D01*
X106450826Y-105114000D01*
X106020251Y-104826299D01*
X105541822Y-104628127D01*
X105033924Y-104527100D01*
X104516076Y-104527100D01*
X104008178Y-104628127D01*
X103529749Y-104826299D01*
X103185600Y-105056252D01*
X103185600Y-103579811D01*
X103229537Y-103535874D01*
X103342805Y-103366356D01*
X103420826Y-103177998D01*
X103460600Y-102978039D01*
X103460600Y-102774161D01*
X103420826Y-102574202D01*
X103342805Y-102385844D01*
X103229537Y-102216326D01*
X103085374Y-102072163D01*
X102915856Y-101958895D01*
X102727498Y-101880874D01*
X102527539Y-101841100D01*
X102323661Y-101841100D01*
X102123702Y-101880874D01*
X101935344Y-101958895D01*
X101765826Y-102072163D01*
X101621663Y-102216326D01*
X101508395Y-102385844D01*
X101430374Y-102574202D01*
X101390600Y-102774161D01*
X101390600Y-102978039D01*
X101430374Y-103177998D01*
X101508395Y-103366356D01*
X101621663Y-103535874D01*
X101665600Y-103579811D01*
X101665601Y-108185668D01*
X101661924Y-108223000D01*
X101676598Y-108371985D01*
X101720054Y-108515246D01*
X101790626Y-108647276D01*
X101821338Y-108684698D01*
X101885600Y-108763001D01*
X101914598Y-108786799D01*
X103989600Y-110861802D01*
X103989600Y-111019046D01*
X103893363Y-110875017D01*
X103595983Y-110577637D01*
X103246302Y-110343988D01*
X102857756Y-110183047D01*
X102445279Y-110101000D01*
X102024721Y-110101000D01*
X101612244Y-110183047D01*
X101223698Y-110343988D01*
X100874017Y-110577637D01*
X100576637Y-110875017D01*
X100342988Y-111224698D01*
X100182047Y-111613244D01*
X100100000Y-112025721D01*
X100100000Y-112446279D01*
X100182047Y-112858756D01*
X100342988Y-113247302D01*
X100576637Y-113596983D01*
X100874017Y-113894363D01*
X101223698Y-114128012D01*
X101612244Y-114288953D01*
X102024721Y-114371000D01*
X102445279Y-114371000D01*
X102857756Y-114288953D01*
X103246302Y-114128012D01*
X103595983Y-113894363D01*
X103893363Y-113596983D01*
X103989600Y-113452954D01*
X103989601Y-122182168D01*
X103985924Y-122219500D01*
X104000598Y-122368485D01*
X104044054Y-122511746D01*
X104114626Y-122643776D01*
X104123590Y-122654698D01*
X104209600Y-122759501D01*
X104238598Y-122783299D01*
X105032399Y-123577100D01*
X104516076Y-123577100D01*
X104008178Y-123678127D01*
X103529749Y-123876299D01*
X103099174Y-124164000D01*
X103028763Y-124234411D01*
X103100000Y-123876279D01*
X103100000Y-123455721D01*
X103017953Y-123043244D01*
X102857012Y-122654698D01*
X102623363Y-122305017D01*
X102325983Y-122007637D01*
X101976302Y-121773988D01*
X101587756Y-121613047D01*
X101175279Y-121531000D01*
X100754721Y-121531000D01*
X100342244Y-121613047D01*
X99953698Y-121773988D01*
X99604017Y-122007637D01*
X99306637Y-122305017D01*
X99072988Y-122654698D01*
X98912047Y-123043244D01*
X98830000Y-123455721D01*
X98830000Y-123876279D01*
X98912047Y-124288756D01*
X99072988Y-124677302D01*
X99166150Y-124816730D01*
X98991162Y-124889212D01*
X98747794Y-125051826D01*
X98540826Y-125258794D01*
X98378212Y-125502162D01*
X98266202Y-125772579D01*
X98209100Y-126059652D01*
X98209100Y-126352348D01*
X98266202Y-126639421D01*
X98378212Y-126909838D01*
X98540826Y-127153206D01*
X98747794Y-127360174D01*
X98991162Y-127522788D01*
X99261579Y-127634798D01*
X99548652Y-127691900D01*
X99841348Y-127691900D01*
X100128421Y-127634798D01*
X100398838Y-127522788D01*
X100642206Y-127360174D01*
X100849174Y-127153206D01*
X101011788Y-126909838D01*
X101123798Y-126639421D01*
X101180900Y-126352348D01*
X101180900Y-126059652D01*
X101129451Y-125801000D01*
X101175279Y-125801000D01*
X101587756Y-125718953D01*
X101976302Y-125558012D01*
X102282708Y-125353279D01*
X102247127Y-125439178D01*
X102146100Y-125947076D01*
X102146100Y-126464924D01*
X102247127Y-126972822D01*
X102445299Y-127451251D01*
X102733000Y-127881826D01*
X103099174Y-128248000D01*
X103529749Y-128535701D01*
X104008178Y-128733873D01*
X104516076Y-128834900D01*
X105033924Y-128834900D01*
X105541822Y-128733873D01*
X106020251Y-128535701D01*
X106371800Y-128300803D01*
X106371800Y-129413000D01*
X105410000Y-129413000D01*
X105385224Y-129415440D01*
X105361399Y-129422667D01*
X105339443Y-129434403D01*
X105320197Y-129450197D01*
X105304403Y-129469443D01*
X105292667Y-129491399D01*
X105285440Y-129515224D01*
X105283000Y-129540000D01*
X105283000Y-137327614D01*
X105105844Y-137400995D01*
X104936326Y-137514263D01*
X104792163Y-137658426D01*
X104678895Y-137827944D01*
X104600874Y-138016302D01*
X104561100Y-138216261D01*
X104561100Y-138420139D01*
X104600874Y-138620098D01*
X104678895Y-138808456D01*
X104792163Y-138977974D01*
X104936326Y-139122137D01*
X105105844Y-139235405D01*
X105283000Y-139308786D01*
X105283000Y-143383000D01*
X78792606Y-143383000D01*
X76327000Y-140917394D01*
X76327000Y-126059652D01*
X79159100Y-126059652D01*
X79159100Y-126352348D01*
X79216202Y-126639421D01*
X79328212Y-126909838D01*
X79490826Y-127153206D01*
X79697794Y-127360174D01*
X79941162Y-127522788D01*
X80211579Y-127634798D01*
X80498652Y-127691900D01*
X80791348Y-127691900D01*
X81078421Y-127634798D01*
X81348838Y-127522788D01*
X81592206Y-127360174D01*
X81799174Y-127153206D01*
X81961788Y-126909838D01*
X82073798Y-126639421D01*
X82130900Y-126352348D01*
X82130900Y-126059652D01*
X82079451Y-125801000D01*
X82125279Y-125801000D01*
X82537756Y-125718953D01*
X82926302Y-125558012D01*
X83232708Y-125353279D01*
X83197127Y-125439178D01*
X83096100Y-125947076D01*
X83096100Y-126464924D01*
X83197127Y-126972822D01*
X83395299Y-127451251D01*
X83683000Y-127881826D01*
X84049174Y-128248000D01*
X84479749Y-128535701D01*
X84958178Y-128733873D01*
X85466076Y-128834900D01*
X85983924Y-128834900D01*
X86491822Y-128733873D01*
X86970251Y-128535701D01*
X87400826Y-128248000D01*
X87767000Y-127881826D01*
X88054701Y-127451251D01*
X88252873Y-126972822D01*
X88353900Y-126464924D01*
X88353900Y-126059652D01*
X89319100Y-126059652D01*
X89319100Y-126352348D01*
X89376202Y-126639421D01*
X89488212Y-126909838D01*
X89650826Y-127153206D01*
X89857794Y-127360174D01*
X90101162Y-127522788D01*
X90371579Y-127634798D01*
X90658652Y-127691900D01*
X90951348Y-127691900D01*
X91238421Y-127634798D01*
X91508838Y-127522788D01*
X91752206Y-127360174D01*
X91959174Y-127153206D01*
X92121788Y-126909838D01*
X92233798Y-126639421D01*
X92290900Y-126352348D01*
X92290900Y-126059652D01*
X92233798Y-125772579D01*
X92121788Y-125502162D01*
X91959174Y-125258794D01*
X91752206Y-125051826D01*
X91508838Y-124889212D01*
X91238421Y-124777202D01*
X90951348Y-124720100D01*
X90658652Y-124720100D01*
X90371579Y-124777202D01*
X90101162Y-124889212D01*
X89857794Y-125051826D01*
X89650826Y-125258794D01*
X89488212Y-125502162D01*
X89376202Y-125772579D01*
X89319100Y-126059652D01*
X88353900Y-126059652D01*
X88353900Y-125947076D01*
X88252873Y-125439178D01*
X88054701Y-124960749D01*
X87767000Y-124530174D01*
X87400826Y-124164000D01*
X86970251Y-123876299D01*
X86491822Y-123678127D01*
X85983924Y-123577100D01*
X85466076Y-123577100D01*
X84958178Y-123678127D01*
X84479749Y-123876299D01*
X84049174Y-124164000D01*
X83978763Y-124234411D01*
X84050000Y-123876279D01*
X84050000Y-123455721D01*
X83967953Y-123043244D01*
X83807012Y-122654698D01*
X83573363Y-122305017D01*
X83275983Y-122007637D01*
X82926302Y-121773988D01*
X82537756Y-121613047D01*
X82125279Y-121531000D01*
X81704721Y-121531000D01*
X81292244Y-121613047D01*
X80903698Y-121773988D01*
X80554017Y-122007637D01*
X80256637Y-122305017D01*
X80022988Y-122654698D01*
X79862047Y-123043244D01*
X79780000Y-123455721D01*
X79780000Y-123876279D01*
X79862047Y-124288756D01*
X80022988Y-124677302D01*
X80116150Y-124816730D01*
X79941162Y-124889212D01*
X79697794Y-125051826D01*
X79490826Y-125258794D01*
X79328212Y-125502162D01*
X79216202Y-125772579D01*
X79159100Y-126059652D01*
X76327000Y-126059652D01*
X76327000Y-120915721D01*
X86130000Y-120915721D01*
X86130000Y-121336279D01*
X86212047Y-121748756D01*
X86372988Y-122137302D01*
X86606637Y-122486983D01*
X86904017Y-122784363D01*
X87253698Y-123018012D01*
X87642244Y-123178953D01*
X88054721Y-123261000D01*
X88475279Y-123261000D01*
X88887756Y-123178953D01*
X89276302Y-123018012D01*
X89625983Y-122784363D01*
X89923363Y-122486983D01*
X90157012Y-122137302D01*
X90317953Y-121748756D01*
X90400000Y-121336279D01*
X90400000Y-120915721D01*
X90317953Y-120503244D01*
X90157012Y-120114698D01*
X89923363Y-119765017D01*
X89625983Y-119467637D01*
X89276302Y-119233988D01*
X88887756Y-119073047D01*
X88475279Y-118991000D01*
X88054721Y-118991000D01*
X87642244Y-119073047D01*
X87253698Y-119233988D01*
X86904017Y-119467637D01*
X86606637Y-119765017D01*
X86372988Y-120114698D01*
X86212047Y-120503244D01*
X86130000Y-120915721D01*
X76327000Y-120915721D01*
X76327000Y-112025721D01*
X81050000Y-112025721D01*
X81050000Y-112446279D01*
X81132047Y-112858756D01*
X81292988Y-113247302D01*
X81526637Y-113596983D01*
X81824017Y-113894363D01*
X82173698Y-114128012D01*
X82562244Y-114288953D01*
X82974721Y-114371000D01*
X83395279Y-114371000D01*
X83807756Y-114288953D01*
X84196302Y-114128012D01*
X84545983Y-113894363D01*
X84843363Y-113596983D01*
X85077012Y-113247302D01*
X85237953Y-112858756D01*
X85320000Y-112446279D01*
X85320000Y-112025721D01*
X85237953Y-111613244D01*
X85077012Y-111224698D01*
X84843363Y-110875017D01*
X84545983Y-110577637D01*
X84196302Y-110343988D01*
X83807756Y-110183047D01*
X83395279Y-110101000D01*
X82974721Y-110101000D01*
X82562244Y-110183047D01*
X82173698Y-110343988D01*
X81824017Y-110577637D01*
X81526637Y-110875017D01*
X81292988Y-111224698D01*
X81132047Y-111613244D01*
X81050000Y-112025721D01*
X76327000Y-112025721D01*
X76327000Y-107009652D01*
X79159100Y-107009652D01*
X79159100Y-107302348D01*
X79216202Y-107589421D01*
X79328212Y-107859838D01*
X79490826Y-108103206D01*
X79697794Y-108310174D01*
X79941162Y-108472788D01*
X80211579Y-108584798D01*
X80498652Y-108641900D01*
X80791348Y-108641900D01*
X81078421Y-108584798D01*
X81348838Y-108472788D01*
X81592206Y-108310174D01*
X81799174Y-108103206D01*
X81961788Y-107859838D01*
X82073798Y-107589421D01*
X82130900Y-107302348D01*
X82130900Y-107009652D01*
X82073798Y-106722579D01*
X81961788Y-106452162D01*
X81799174Y-106208794D01*
X81592206Y-106001826D01*
X81348838Y-105839212D01*
X81078421Y-105727202D01*
X80791348Y-105670100D01*
X80498652Y-105670100D01*
X80211579Y-105727202D01*
X79941162Y-105839212D01*
X79697794Y-106001826D01*
X79490826Y-106208794D01*
X79328212Y-106452162D01*
X79216202Y-106722579D01*
X79159100Y-107009652D01*
X76327000Y-107009652D01*
X76327000Y-87959852D01*
X79159100Y-87959852D01*
X79159100Y-88252548D01*
X79216202Y-88539621D01*
X79328212Y-88810038D01*
X79490826Y-89053406D01*
X79697794Y-89260374D01*
X79941162Y-89422988D01*
X80211579Y-89534998D01*
X80498652Y-89592100D01*
X80791348Y-89592100D01*
X81078421Y-89534998D01*
X81348838Y-89422988D01*
X81592206Y-89260374D01*
X81799174Y-89053406D01*
X81961788Y-88810038D01*
X82073798Y-88539621D01*
X82130900Y-88252548D01*
X82130900Y-87959852D01*
X82079451Y-87701200D01*
X82125279Y-87701200D01*
X82537756Y-87619153D01*
X82926302Y-87458212D01*
X83232708Y-87253479D01*
X83197127Y-87339378D01*
X83096100Y-87847276D01*
X83096100Y-88365124D01*
X83197127Y-88873022D01*
X83395299Y-89351451D01*
X83683000Y-89782026D01*
X84049174Y-90148200D01*
X84479749Y-90435901D01*
X84958178Y-90634073D01*
X85466076Y-90735100D01*
X85983924Y-90735100D01*
X86491822Y-90634073D01*
X86970251Y-90435901D01*
X87400826Y-90148200D01*
X87426001Y-90123025D01*
X87426000Y-96315405D01*
X87400839Y-96310400D01*
X87196961Y-96310400D01*
X86997002Y-96350174D01*
X86808644Y-96428195D01*
X86639126Y-96541463D01*
X86494963Y-96685626D01*
X86381695Y-96855144D01*
X86303674Y-97043502D01*
X86263900Y-97243461D01*
X86263900Y-97447339D01*
X86303674Y-97647298D01*
X86381695Y-97835656D01*
X86494963Y-98005174D01*
X86538901Y-98049112D01*
X86538900Y-101121077D01*
X86535224Y-101158400D01*
X86538900Y-101195722D01*
X86538900Y-101195732D01*
X86549897Y-101307385D01*
X86593354Y-101450646D01*
X86663926Y-101582676D01*
X86703771Y-101631226D01*
X86758899Y-101698401D01*
X86787902Y-101722203D01*
X86895500Y-101829801D01*
X86895500Y-101891939D01*
X86935274Y-102091898D01*
X87013295Y-102280256D01*
X87126563Y-102449774D01*
X87270726Y-102593937D01*
X87440244Y-102707205D01*
X87628602Y-102785226D01*
X87828561Y-102825000D01*
X88032439Y-102825000D01*
X88232398Y-102785226D01*
X88420756Y-102707205D01*
X88590274Y-102593937D01*
X88734437Y-102449774D01*
X88847705Y-102280256D01*
X88925726Y-102091898D01*
X88946891Y-101985493D01*
X91694800Y-104733402D01*
X91694800Y-105963469D01*
X91508838Y-105839212D01*
X91238421Y-105727202D01*
X90951348Y-105670100D01*
X90658652Y-105670100D01*
X90371579Y-105727202D01*
X90101162Y-105839212D01*
X89857794Y-106001826D01*
X89650826Y-106208794D01*
X89488212Y-106452162D01*
X89376202Y-106722579D01*
X89319100Y-107009652D01*
X89319100Y-107302348D01*
X89370549Y-107561000D01*
X89324721Y-107561000D01*
X88912244Y-107643047D01*
X88523698Y-107803988D01*
X88217292Y-108008721D01*
X88252873Y-107922822D01*
X88353900Y-107414924D01*
X88353900Y-106897076D01*
X88252873Y-106389178D01*
X88054701Y-105910749D01*
X87767000Y-105480174D01*
X87400826Y-105114000D01*
X86970251Y-104826299D01*
X86491822Y-104628127D01*
X85983924Y-104527100D01*
X85466076Y-104527100D01*
X84958178Y-104628127D01*
X84479749Y-104826299D01*
X84049174Y-105114000D01*
X83683000Y-105480174D01*
X83395299Y-105910749D01*
X83197127Y-106389178D01*
X83096100Y-106897076D01*
X83096100Y-107414924D01*
X83197127Y-107922822D01*
X83395299Y-108401251D01*
X83683000Y-108831826D01*
X84049174Y-109198000D01*
X84479749Y-109485701D01*
X84958178Y-109683873D01*
X85466076Y-109784900D01*
X85983924Y-109784900D01*
X86491822Y-109683873D01*
X86970251Y-109485701D01*
X87400826Y-109198000D01*
X87471237Y-109127589D01*
X87400000Y-109485721D01*
X87400000Y-109906279D01*
X87482047Y-110318756D01*
X87642988Y-110707302D01*
X87876637Y-111056983D01*
X88174017Y-111354363D01*
X88523698Y-111588012D01*
X88912244Y-111748953D01*
X89324721Y-111831000D01*
X89745279Y-111831000D01*
X90157756Y-111748953D01*
X90546302Y-111588012D01*
X90895983Y-111354363D01*
X91193363Y-111056983D01*
X91427012Y-110707302D01*
X91587953Y-110318756D01*
X91670000Y-109906279D01*
X91670000Y-109485721D01*
X91587953Y-109073244D01*
X91427012Y-108684698D01*
X91333850Y-108545270D01*
X91508838Y-108472788D01*
X91694800Y-108348531D01*
X91694801Y-111760188D01*
X91650863Y-111804126D01*
X91537595Y-111973644D01*
X91459574Y-112162002D01*
X91419800Y-112361961D01*
X91419800Y-112565839D01*
X91459574Y-112765798D01*
X91537595Y-112954156D01*
X91650863Y-113123674D01*
X91795026Y-113267837D01*
X91964544Y-113381105D01*
X92152902Y-113459126D01*
X92352861Y-113498900D01*
X92420100Y-113498900D01*
X92420100Y-117497663D01*
X92320426Y-117564263D01*
X92176263Y-117708426D01*
X92062995Y-117877944D01*
X91984974Y-118066302D01*
X91945200Y-118266261D01*
X91945200Y-118470139D01*
X91984974Y-118670098D01*
X92062995Y-118858456D01*
X92176263Y-119027974D01*
X92320426Y-119172137D01*
X92489944Y-119285405D01*
X92678302Y-119363426D01*
X92878261Y-119403200D01*
X93017500Y-119403200D01*
X93017500Y-135327198D01*
X89434699Y-138910000D01*
X89372561Y-138910000D01*
X89172602Y-138949774D01*
X88984244Y-139027795D01*
X88814726Y-139141063D01*
X88670563Y-139285226D01*
X88557295Y-139454744D01*
X88479274Y-139643102D01*
X88439500Y-139843061D01*
X88439500Y-140046939D01*
X88479274Y-140246898D01*
X88557295Y-140435256D01*
X88670563Y-140604774D01*
X88814726Y-140748937D01*
X88984244Y-140862205D01*
X89172602Y-140940226D01*
X89372561Y-140980000D01*
X89576439Y-140980000D01*
X89776398Y-140940226D01*
X89964756Y-140862205D01*
X90134274Y-140748937D01*
X90278437Y-140604774D01*
X90391705Y-140435256D01*
X90469726Y-140246898D01*
X90509500Y-140046939D01*
X90509500Y-139984801D01*
X94288504Y-136205798D01*
X94317501Y-136182001D01*
X94380804Y-136104866D01*
X94412474Y-136066277D01*
X94483046Y-135934247D01*
X94487582Y-135919294D01*
X94526503Y-135790986D01*
X94537500Y-135679333D01*
X94537500Y-135679323D01*
X94541176Y-135642000D01*
X94537500Y-135604677D01*
X94537500Y-131623711D01*
X94645226Y-131731437D01*
X94814744Y-131844705D01*
X95003102Y-131922726D01*
X95203061Y-131962500D01*
X95406939Y-131962500D01*
X95606898Y-131922726D01*
X95795256Y-131844705D01*
X95964774Y-131731437D01*
X96108937Y-131587274D01*
X96222205Y-131417756D01*
X96300226Y-131229398D01*
X96340000Y-131029439D01*
X96340000Y-130825561D01*
X96300226Y-130625602D01*
X96222205Y-130437244D01*
X96108937Y-130267726D01*
X96065000Y-130223789D01*
X96065000Y-108116801D01*
X97172149Y-107009652D01*
X98209100Y-107009652D01*
X98209100Y-107302348D01*
X98266202Y-107589421D01*
X98378212Y-107859838D01*
X98540826Y-108103206D01*
X98747794Y-108310174D01*
X98991162Y-108472788D01*
X99261579Y-108584798D01*
X99548652Y-108641900D01*
X99841348Y-108641900D01*
X100128421Y-108584798D01*
X100398838Y-108472788D01*
X100642206Y-108310174D01*
X100849174Y-108103206D01*
X101011788Y-107859838D01*
X101123798Y-107589421D01*
X101180900Y-107302348D01*
X101180900Y-107009652D01*
X101123798Y-106722579D01*
X101011788Y-106452162D01*
X100849174Y-106208794D01*
X100642206Y-106001826D01*
X100398838Y-105839212D01*
X100128421Y-105727202D01*
X99841348Y-105670100D01*
X99548652Y-105670100D01*
X99261579Y-105727202D01*
X98991162Y-105839212D01*
X98747794Y-106001826D01*
X98540826Y-106208794D01*
X98378212Y-106452162D01*
X98266202Y-106722579D01*
X98209100Y-107009652D01*
X97172149Y-107009652D01*
X100386202Y-103795600D01*
X100448339Y-103795600D01*
X100648298Y-103755826D01*
X100836656Y-103677805D01*
X101006174Y-103564537D01*
X101150337Y-103420374D01*
X101263605Y-103250856D01*
X101341626Y-103062498D01*
X101381400Y-102862539D01*
X101381400Y-102658661D01*
X101341626Y-102458702D01*
X101263605Y-102270344D01*
X101150337Y-102100826D01*
X101006174Y-101956663D01*
X100836656Y-101843395D01*
X100648298Y-101765374D01*
X100448339Y-101725600D01*
X100244461Y-101725600D01*
X100044502Y-101765374D01*
X99856144Y-101843395D01*
X99686626Y-101956663D01*
X99542463Y-102100826D01*
X99429195Y-102270344D01*
X99351174Y-102458702D01*
X99311400Y-102658661D01*
X99311400Y-102720798D01*
X94793998Y-107238201D01*
X94765000Y-107261999D01*
X94741202Y-107290997D01*
X94741201Y-107290998D01*
X94670026Y-107377724D01*
X94599454Y-107509754D01*
X94575288Y-107589421D01*
X94559022Y-107643047D01*
X94555998Y-107653015D01*
X94541324Y-107802000D01*
X94545001Y-107839333D01*
X94545000Y-130223789D01*
X94537500Y-130231289D01*
X94537500Y-88431201D01*
X97106901Y-91000603D01*
X97106900Y-93671589D01*
X97062963Y-93715526D01*
X96949695Y-93885044D01*
X96871674Y-94073402D01*
X96831900Y-94273361D01*
X96831900Y-94477239D01*
X96871674Y-94677198D01*
X96949695Y-94865556D01*
X97062963Y-95035074D01*
X97207126Y-95179237D01*
X97376644Y-95292505D01*
X97565002Y-95370526D01*
X97764961Y-95410300D01*
X97840500Y-95410300D01*
X97840500Y-95960489D01*
X97796563Y-96004426D01*
X97683295Y-96173944D01*
X97605274Y-96362302D01*
X97565500Y-96562261D01*
X97565500Y-96766139D01*
X97605274Y-96966098D01*
X97683295Y-97154456D01*
X97796563Y-97323974D01*
X97940726Y-97468137D01*
X98110244Y-97581405D01*
X98298602Y-97659426D01*
X98498561Y-97699200D01*
X98702439Y-97699200D01*
X98902398Y-97659426D01*
X99040631Y-97602168D01*
X98609199Y-98033600D01*
X98547061Y-98033600D01*
X98347102Y-98073374D01*
X98158744Y-98151395D01*
X97989226Y-98264663D01*
X97845063Y-98408826D01*
X97731795Y-98578344D01*
X97653774Y-98766702D01*
X97614000Y-98966661D01*
X97614000Y-99170539D01*
X97653774Y-99370498D01*
X97731795Y-99558856D01*
X97772652Y-99620003D01*
X97710144Y-99645895D01*
X97540626Y-99759163D01*
X97396463Y-99903326D01*
X97283195Y-100072844D01*
X97205174Y-100261202D01*
X97165400Y-100461161D01*
X97165400Y-100665039D01*
X97205174Y-100864998D01*
X97283195Y-101053356D01*
X97396463Y-101222874D01*
X97540626Y-101367037D01*
X97710144Y-101480305D01*
X97898502Y-101558326D01*
X98098461Y-101598100D01*
X98302339Y-101598100D01*
X98502298Y-101558326D01*
X98690656Y-101480305D01*
X98860174Y-101367037D01*
X99004337Y-101222874D01*
X99117605Y-101053356D01*
X99195626Y-100864998D01*
X99235400Y-100665039D01*
X99235400Y-100602901D01*
X105658402Y-94179900D01*
X109542478Y-94179900D01*
X109579800Y-94183576D01*
X109617122Y-94179900D01*
X109617133Y-94179900D01*
X109728786Y-94168903D01*
X109872047Y-94125446D01*
X110004076Y-94054874D01*
X110119801Y-93959901D01*
X110143604Y-93930897D01*
X117949355Y-86125147D01*
X117962047Y-86188956D01*
X118122988Y-86577502D01*
X118216150Y-86716930D01*
X118041162Y-86789412D01*
X117797794Y-86952026D01*
X117590826Y-87158994D01*
X117428212Y-87402362D01*
X117316202Y-87672779D01*
X117259100Y-87959852D01*
X117259100Y-88252548D01*
X117316202Y-88539621D01*
X117428212Y-88810038D01*
X117590826Y-89053406D01*
X117797794Y-89260374D01*
X118041162Y-89422988D01*
X118311579Y-89534998D01*
X118598652Y-89592100D01*
X118891348Y-89592100D01*
X119178421Y-89534998D01*
X119448838Y-89422988D01*
X119692206Y-89260374D01*
X119899174Y-89053406D01*
X120061788Y-88810038D01*
X120173798Y-88539621D01*
X120230900Y-88252548D01*
X120230900Y-87959852D01*
X120179451Y-87701200D01*
X120225279Y-87701200D01*
X120637756Y-87619153D01*
X121026302Y-87458212D01*
X121332708Y-87253479D01*
X121297127Y-87339378D01*
X121196100Y-87847276D01*
X121196100Y-88365124D01*
X121297127Y-88873022D01*
X121495299Y-89351451D01*
X121783000Y-89782026D01*
X122149174Y-90148200D01*
X122579749Y-90435901D01*
X123058178Y-90634073D01*
X123566076Y-90735100D01*
X124083924Y-90735100D01*
X124591822Y-90634073D01*
X125070251Y-90435901D01*
X125500826Y-90148200D01*
X125867000Y-89782026D01*
X126154701Y-89351451D01*
X126352873Y-88873022D01*
X126453900Y-88365124D01*
X126453900Y-87959852D01*
X127419100Y-87959852D01*
X127419100Y-88252548D01*
X127476202Y-88539621D01*
X127588212Y-88810038D01*
X127750826Y-89053406D01*
X127957794Y-89260374D01*
X128201162Y-89422988D01*
X128471579Y-89534998D01*
X128758652Y-89592100D01*
X129051348Y-89592100D01*
X129338421Y-89534998D01*
X129608838Y-89422988D01*
X129852206Y-89260374D01*
X130059174Y-89053406D01*
X130221788Y-88810038D01*
X130333798Y-88539621D01*
X130390900Y-88252548D01*
X130390900Y-87959852D01*
X136309100Y-87959852D01*
X136309100Y-88252548D01*
X136366202Y-88539621D01*
X136478212Y-88810038D01*
X136640826Y-89053406D01*
X136847794Y-89260374D01*
X137091162Y-89422988D01*
X137361579Y-89534998D01*
X137648652Y-89592100D01*
X137941348Y-89592100D01*
X138228421Y-89534998D01*
X138498838Y-89422988D01*
X138742206Y-89260374D01*
X138949174Y-89053406D01*
X139111788Y-88810038D01*
X139223798Y-88539621D01*
X139280900Y-88252548D01*
X139280900Y-87959852D01*
X139229451Y-87701200D01*
X139275279Y-87701200D01*
X139687756Y-87619153D01*
X140076302Y-87458212D01*
X140382708Y-87253479D01*
X140347127Y-87339378D01*
X140246100Y-87847276D01*
X140246100Y-88365124D01*
X140347127Y-88873022D01*
X140545299Y-89351451D01*
X140833000Y-89782026D01*
X141199174Y-90148200D01*
X141629749Y-90435901D01*
X142108178Y-90634073D01*
X142616076Y-90735100D01*
X143133924Y-90735100D01*
X143641822Y-90634073D01*
X144120251Y-90435901D01*
X144550826Y-90148200D01*
X144917000Y-89782026D01*
X145204701Y-89351451D01*
X145402873Y-88873022D01*
X145503900Y-88365124D01*
X145503900Y-87959852D01*
X146469100Y-87959852D01*
X146469100Y-88252548D01*
X146526202Y-88539621D01*
X146638212Y-88810038D01*
X146800826Y-89053406D01*
X147007794Y-89260374D01*
X147251162Y-89422988D01*
X147521579Y-89534998D01*
X147808652Y-89592100D01*
X148101348Y-89592100D01*
X148388421Y-89534998D01*
X148658838Y-89422988D01*
X148902206Y-89260374D01*
X149109174Y-89053406D01*
X149271788Y-88810038D01*
X149383798Y-88539621D01*
X149440900Y-88252548D01*
X149440900Y-87959852D01*
X149383798Y-87672779D01*
X149271788Y-87402362D01*
X149109174Y-87158994D01*
X148902206Y-86952026D01*
X148658838Y-86789412D01*
X148388421Y-86677402D01*
X148101348Y-86620300D01*
X147808652Y-86620300D01*
X147521579Y-86677402D01*
X147251162Y-86789412D01*
X147007794Y-86952026D01*
X146800826Y-87158994D01*
X146638212Y-87402362D01*
X146526202Y-87672779D01*
X146469100Y-87959852D01*
X145503900Y-87959852D01*
X145503900Y-87847276D01*
X145402873Y-87339378D01*
X145204701Y-86860949D01*
X144917000Y-86430374D01*
X144550826Y-86064200D01*
X144120251Y-85776499D01*
X143641822Y-85578327D01*
X143133924Y-85477300D01*
X142616076Y-85477300D01*
X142108178Y-85578327D01*
X141629749Y-85776499D01*
X141199174Y-86064200D01*
X141128763Y-86134611D01*
X141200000Y-85776479D01*
X141200000Y-85355921D01*
X141117953Y-84943444D01*
X140957012Y-84554898D01*
X140723363Y-84205217D01*
X140425983Y-83907837D01*
X140076302Y-83674188D01*
X139687756Y-83513247D01*
X139275279Y-83431200D01*
X138854721Y-83431200D01*
X138442244Y-83513247D01*
X138053698Y-83674188D01*
X137704017Y-83907837D01*
X137406637Y-84205217D01*
X137172988Y-84554898D01*
X137012047Y-84943444D01*
X136930000Y-85355921D01*
X136930000Y-85776479D01*
X137012047Y-86188956D01*
X137172988Y-86577502D01*
X137266150Y-86716930D01*
X137091162Y-86789412D01*
X136847794Y-86952026D01*
X136640826Y-87158994D01*
X136478212Y-87402362D01*
X136366202Y-87672779D01*
X136309100Y-87959852D01*
X130390900Y-87959852D01*
X130333798Y-87672779D01*
X130221788Y-87402362D01*
X130059174Y-87158994D01*
X129852206Y-86952026D01*
X129608838Y-86789412D01*
X129338421Y-86677402D01*
X129051348Y-86620300D01*
X128758652Y-86620300D01*
X128471579Y-86677402D01*
X128201162Y-86789412D01*
X127957794Y-86952026D01*
X127750826Y-87158994D01*
X127588212Y-87402362D01*
X127476202Y-87672779D01*
X127419100Y-87959852D01*
X126453900Y-87959852D01*
X126453900Y-87847276D01*
X126352873Y-87339378D01*
X126154701Y-86860949D01*
X125867000Y-86430374D01*
X125500826Y-86064200D01*
X125070251Y-85776499D01*
X124591822Y-85578327D01*
X124083924Y-85477300D01*
X123566076Y-85477300D01*
X123058178Y-85578327D01*
X122579749Y-85776499D01*
X122149174Y-86064200D01*
X122078763Y-86134611D01*
X122150000Y-85776479D01*
X122150000Y-85355921D01*
X122067953Y-84943444D01*
X121907012Y-84554898D01*
X121673363Y-84205217D01*
X121375983Y-83907837D01*
X121026302Y-83674188D01*
X120637756Y-83513247D01*
X120573947Y-83500555D01*
X121258581Y-82815921D01*
X124230000Y-82815921D01*
X124230000Y-83236479D01*
X124312047Y-83648956D01*
X124472988Y-84037502D01*
X124706637Y-84387183D01*
X125004017Y-84684563D01*
X125353698Y-84918212D01*
X125742244Y-85079153D01*
X126154721Y-85161200D01*
X126575279Y-85161200D01*
X126987756Y-85079153D01*
X127376302Y-84918212D01*
X127725983Y-84684563D01*
X128023363Y-84387183D01*
X128257012Y-84037502D01*
X128417953Y-83648956D01*
X128500000Y-83236479D01*
X128500000Y-82815921D01*
X143280000Y-82815921D01*
X143280000Y-83236479D01*
X143362047Y-83648956D01*
X143522988Y-84037502D01*
X143756637Y-84387183D01*
X144054017Y-84684563D01*
X144403698Y-84918212D01*
X144792244Y-85079153D01*
X145204721Y-85161200D01*
X145625279Y-85161200D01*
X146037756Y-85079153D01*
X146426302Y-84918212D01*
X146775983Y-84684563D01*
X147073363Y-84387183D01*
X147307012Y-84037502D01*
X147467953Y-83648956D01*
X147550000Y-83236479D01*
X147550000Y-82815921D01*
X147467953Y-82403444D01*
X147307012Y-82014898D01*
X147073363Y-81665217D01*
X146775983Y-81367837D01*
X146426302Y-81134188D01*
X146037756Y-80973247D01*
X145625279Y-80891200D01*
X145204721Y-80891200D01*
X144792244Y-80973247D01*
X144403698Y-81134188D01*
X144054017Y-81367837D01*
X143756637Y-81665217D01*
X143522988Y-82014898D01*
X143362047Y-82403444D01*
X143280000Y-82815921D01*
X128500000Y-82815921D01*
X128417953Y-82403444D01*
X128257012Y-82014898D01*
X128023363Y-81665217D01*
X127725983Y-81367837D01*
X127376302Y-81134188D01*
X126987756Y-80973247D01*
X126575279Y-80891200D01*
X126154721Y-80891200D01*
X125742244Y-80973247D01*
X125353698Y-81134188D01*
X125004017Y-81367837D01*
X124706637Y-81665217D01*
X124472988Y-82014898D01*
X124312047Y-82403444D01*
X124230000Y-82815921D01*
X121258581Y-82815921D01*
X130148581Y-73925921D01*
X138200000Y-73925921D01*
X138200000Y-74346479D01*
X138282047Y-74758956D01*
X138442988Y-75147502D01*
X138676637Y-75497183D01*
X138974017Y-75794563D01*
X139323698Y-76028212D01*
X139712244Y-76189153D01*
X140124721Y-76271200D01*
X140545279Y-76271200D01*
X140957756Y-76189153D01*
X141346302Y-76028212D01*
X141695983Y-75794563D01*
X141993363Y-75497183D01*
X142227012Y-75147502D01*
X142387953Y-74758956D01*
X142470000Y-74346479D01*
X142470000Y-73925921D01*
X142387953Y-73513444D01*
X142227012Y-73124898D01*
X141993363Y-72775217D01*
X141695983Y-72477837D01*
X141346302Y-72244188D01*
X140957756Y-72083247D01*
X140545279Y-72001200D01*
X140124721Y-72001200D01*
X139712244Y-72083247D01*
X139323698Y-72244188D01*
X138974017Y-72477837D01*
X138676637Y-72775217D01*
X138442988Y-73124898D01*
X138282047Y-73513444D01*
X138200000Y-73925921D01*
X130148581Y-73925921D01*
X135164650Y-68909852D01*
X136309100Y-68909852D01*
X136309100Y-69202548D01*
X136366202Y-69489621D01*
X136478212Y-69760038D01*
X136640826Y-70003406D01*
X136847794Y-70210374D01*
X137091162Y-70372988D01*
X137361579Y-70484998D01*
X137648652Y-70542100D01*
X137941348Y-70542100D01*
X138228421Y-70484998D01*
X138498838Y-70372988D01*
X138742206Y-70210374D01*
X138949174Y-70003406D01*
X139111788Y-69760038D01*
X139223798Y-69489621D01*
X139280900Y-69202548D01*
X139280900Y-68909852D01*
X139258508Y-68797276D01*
X140246100Y-68797276D01*
X140246100Y-69315124D01*
X140347127Y-69823022D01*
X140545299Y-70301451D01*
X140833000Y-70732026D01*
X141199174Y-71098200D01*
X141629749Y-71385901D01*
X142108178Y-71584073D01*
X142616076Y-71685100D01*
X143133924Y-71685100D01*
X143641822Y-71584073D01*
X144120251Y-71385901D01*
X144550826Y-71098200D01*
X144621237Y-71027789D01*
X144550000Y-71385921D01*
X144550000Y-71806479D01*
X144632047Y-72218956D01*
X144792988Y-72607502D01*
X145026637Y-72957183D01*
X145324017Y-73254563D01*
X145673698Y-73488212D01*
X146062244Y-73649153D01*
X146474721Y-73731200D01*
X146895279Y-73731200D01*
X147307756Y-73649153D01*
X147696302Y-73488212D01*
X148045983Y-73254563D01*
X148343363Y-72957183D01*
X148577012Y-72607502D01*
X148737953Y-72218956D01*
X148820000Y-71806479D01*
X148820000Y-71385921D01*
X148737953Y-70973444D01*
X148577012Y-70584898D01*
X148483850Y-70445470D01*
X148658838Y-70372988D01*
X148902206Y-70210374D01*
X149109174Y-70003406D01*
X149271788Y-69760038D01*
X149383798Y-69489621D01*
X149440900Y-69202548D01*
X149440900Y-68909852D01*
X149383798Y-68622779D01*
X149271788Y-68352362D01*
X149109174Y-68108994D01*
X148902206Y-67902026D01*
X148658838Y-67739412D01*
X148388421Y-67627402D01*
X148101348Y-67570300D01*
X147808652Y-67570300D01*
X147521579Y-67627402D01*
X147251162Y-67739412D01*
X147007794Y-67902026D01*
X146800826Y-68108994D01*
X146638212Y-68352362D01*
X146526202Y-68622779D01*
X146469100Y-68909852D01*
X146469100Y-69202548D01*
X146520549Y-69461200D01*
X146474721Y-69461200D01*
X146062244Y-69543247D01*
X145673698Y-69704188D01*
X145367292Y-69908921D01*
X145402873Y-69823022D01*
X145503900Y-69315124D01*
X145503900Y-68797276D01*
X145402873Y-68289378D01*
X145204701Y-67810949D01*
X144917000Y-67380374D01*
X144550826Y-67014200D01*
X144120251Y-66726499D01*
X143641822Y-66528327D01*
X143133924Y-66427300D01*
X142616076Y-66427300D01*
X142108178Y-66528327D01*
X141629749Y-66726499D01*
X141199174Y-67014200D01*
X140833000Y-67380374D01*
X140545299Y-67810949D01*
X140347127Y-68289378D01*
X140246100Y-68797276D01*
X139258508Y-68797276D01*
X139223798Y-68622779D01*
X139111788Y-68352362D01*
X138949174Y-68108994D01*
X138742206Y-67902026D01*
X138498838Y-67739412D01*
X138228421Y-67627402D01*
X137941348Y-67570300D01*
X137648652Y-67570300D01*
X137361579Y-67627402D01*
X137091162Y-67739412D01*
X136847794Y-67902026D01*
X136640826Y-68108994D01*
X136478212Y-68352362D01*
X136366202Y-68622779D01*
X136309100Y-68909852D01*
X135164650Y-68909852D01*
X138639202Y-65435300D01*
X141930178Y-65435300D01*
X141967500Y-65438976D01*
X142004822Y-65435300D01*
X142004833Y-65435300D01*
X142116486Y-65424303D01*
X142259747Y-65380846D01*
X142391776Y-65310274D01*
X142507501Y-65215301D01*
X142531304Y-65186297D01*
X142845698Y-64871903D01*
X142874701Y-64848101D01*
X142876899Y-64845423D01*
X142938966Y-64878599D01*
X143218889Y-64963513D01*
X143437050Y-64985000D01*
X143582950Y-64985000D01*
X143801111Y-64963513D01*
X144081034Y-64878599D01*
X144339014Y-64740706D01*
X144565134Y-64555134D01*
X144750706Y-64329014D01*
X144785201Y-64264477D01*
X144854822Y-64381355D01*
X145049731Y-64597588D01*
X145283080Y-64771641D01*
X145545901Y-64896825D01*
X145693110Y-64941476D01*
X145923000Y-64820155D01*
X145923000Y-63627000D01*
X146177000Y-63627000D01*
X146177000Y-64820155D01*
X146406890Y-64941476D01*
X146554099Y-64896825D01*
X146816920Y-64771641D01*
X147050269Y-64597588D01*
X147245178Y-64381355D01*
X147394157Y-64131252D01*
X147491481Y-63856891D01*
X147370814Y-63627000D01*
X146177000Y-63627000D01*
X145923000Y-63627000D01*
X145903000Y-63627000D01*
X145903000Y-63373000D01*
X145923000Y-63373000D01*
X145923000Y-62179845D01*
X146177000Y-62179845D01*
X146177000Y-63373000D01*
X147370814Y-63373000D01*
X147491481Y-63143109D01*
X147394157Y-62868748D01*
X147245178Y-62618645D01*
X147050269Y-62402412D01*
X146816920Y-62228359D01*
X146554099Y-62103175D01*
X146406890Y-62058524D01*
X146177000Y-62179845D01*
X145923000Y-62179845D01*
X145693110Y-62058524D01*
X145545901Y-62103175D01*
X145283080Y-62228359D01*
X145049731Y-62402412D01*
X144854822Y-62618645D01*
X144785201Y-62735523D01*
X144750706Y-62670986D01*
X144565134Y-62444866D01*
X144339014Y-62259294D01*
X144081034Y-62121401D01*
X143801111Y-62036487D01*
X143582950Y-62015000D01*
X143437050Y-62015000D01*
X143218889Y-62036487D01*
X142938966Y-62121401D01*
X142680986Y-62259294D01*
X142454866Y-62444866D01*
X142430393Y-62474687D01*
X142409502Y-62405820D01*
X142350537Y-62295506D01*
X142271185Y-62198815D01*
X142174494Y-62119463D01*
X142064180Y-62060498D01*
X141944482Y-62024188D01*
X141820000Y-62011928D01*
X140120000Y-62011928D01*
X139995518Y-62024188D01*
X139875820Y-62060498D01*
X139765506Y-62119463D01*
X139668815Y-62198815D01*
X139589463Y-62295506D01*
X139530498Y-62405820D01*
X139494188Y-62525518D01*
X139481928Y-62650000D01*
X139481928Y-63915300D01*
X138361722Y-63915300D01*
X138324399Y-63911624D01*
X138287076Y-63915300D01*
X138287067Y-63915300D01*
X138175414Y-63926297D01*
X138032153Y-63969754D01*
X137900124Y-64040326D01*
X137784399Y-64135299D01*
X137760601Y-64164297D01*
X129675233Y-72249666D01*
X129687953Y-72218956D01*
X129770000Y-71806479D01*
X129770000Y-71385921D01*
X129687953Y-70973444D01*
X129527012Y-70584898D01*
X129433850Y-70445470D01*
X129608838Y-70372988D01*
X129852206Y-70210374D01*
X130059174Y-70003406D01*
X130221788Y-69760038D01*
X130333798Y-69489621D01*
X130390900Y-69202548D01*
X130390900Y-68909852D01*
X130333798Y-68622779D01*
X130221788Y-68352362D01*
X130059174Y-68108994D01*
X129852206Y-67902026D01*
X129608838Y-67739412D01*
X129338421Y-67627402D01*
X129051348Y-67570300D01*
X128758652Y-67570300D01*
X128471579Y-67627402D01*
X128201162Y-67739412D01*
X127957794Y-67902026D01*
X127750826Y-68108994D01*
X127588212Y-68352362D01*
X127476202Y-68622779D01*
X127419100Y-68909852D01*
X127419100Y-69202548D01*
X127470549Y-69461200D01*
X127424721Y-69461200D01*
X127012244Y-69543247D01*
X126623698Y-69704188D01*
X126317292Y-69908921D01*
X126352873Y-69823022D01*
X126453900Y-69315124D01*
X126453900Y-68797276D01*
X126352873Y-68289378D01*
X126154701Y-67810949D01*
X125867000Y-67380374D01*
X125500826Y-67014200D01*
X125070251Y-66726499D01*
X124591822Y-66528327D01*
X124083924Y-66427300D01*
X123566076Y-66427300D01*
X123058178Y-66528327D01*
X122579749Y-66726499D01*
X122149174Y-67014200D01*
X121783000Y-67380374D01*
X121495299Y-67810949D01*
X121297127Y-68289378D01*
X121196100Y-68797276D01*
X121196100Y-69315124D01*
X121297127Y-69823022D01*
X121495299Y-70301451D01*
X121783000Y-70732026D01*
X122149174Y-71098200D01*
X122579749Y-71385901D01*
X123058178Y-71584073D01*
X123566076Y-71685100D01*
X124083924Y-71685100D01*
X124591822Y-71584073D01*
X125070251Y-71385901D01*
X125500826Y-71098200D01*
X125571237Y-71027789D01*
X125500000Y-71385921D01*
X125500000Y-71806479D01*
X125582047Y-72218956D01*
X125742988Y-72607502D01*
X125976637Y-72957183D01*
X126274017Y-73254563D01*
X126623698Y-73488212D01*
X127012244Y-73649153D01*
X127424721Y-73731200D01*
X127845279Y-73731200D01*
X128257756Y-73649153D01*
X128288466Y-73636433D01*
X122605457Y-79319442D01*
X122572037Y-79269426D01*
X122427874Y-79125263D01*
X122258356Y-79011995D01*
X122069998Y-78933974D01*
X121870039Y-78894200D01*
X121666161Y-78894200D01*
X121466202Y-78933974D01*
X121277844Y-79011995D01*
X121108326Y-79125263D01*
X120964163Y-79269426D01*
X120850895Y-79438944D01*
X120772874Y-79627302D01*
X120733100Y-79827261D01*
X120733100Y-79889398D01*
X108412899Y-92209600D01*
X103695522Y-92209600D01*
X103658199Y-92205924D01*
X103620876Y-92209600D01*
X103620867Y-92209600D01*
X103509214Y-92220597D01*
X103365953Y-92264054D01*
X103251978Y-92324976D01*
X100364297Y-89437295D01*
X100398838Y-89422988D01*
X100642206Y-89260374D01*
X100849174Y-89053406D01*
X101011788Y-88810038D01*
X101123798Y-88539621D01*
X101180900Y-88252548D01*
X101180900Y-87959852D01*
X101129451Y-87701200D01*
X101175279Y-87701200D01*
X101587756Y-87619153D01*
X101976302Y-87458212D01*
X102282708Y-87253479D01*
X102247127Y-87339378D01*
X102146100Y-87847276D01*
X102146100Y-88365124D01*
X102247127Y-88873022D01*
X102445299Y-89351451D01*
X102733000Y-89782026D01*
X103099174Y-90148200D01*
X103529749Y-90435901D01*
X104008178Y-90634073D01*
X104516076Y-90735100D01*
X105033924Y-90735100D01*
X105541822Y-90634073D01*
X106020251Y-90435901D01*
X106450826Y-90148200D01*
X106817000Y-89782026D01*
X107104701Y-89351451D01*
X107302873Y-88873022D01*
X107403900Y-88365124D01*
X107403900Y-87959852D01*
X108369100Y-87959852D01*
X108369100Y-88252548D01*
X108426202Y-88539621D01*
X108538212Y-88810038D01*
X108700826Y-89053406D01*
X108907794Y-89260374D01*
X109151162Y-89422988D01*
X109421579Y-89534998D01*
X109708652Y-89592100D01*
X110001348Y-89592100D01*
X110288421Y-89534998D01*
X110558838Y-89422988D01*
X110802206Y-89260374D01*
X111009174Y-89053406D01*
X111171788Y-88810038D01*
X111283798Y-88539621D01*
X111340900Y-88252548D01*
X111340900Y-87959852D01*
X111283798Y-87672779D01*
X111171788Y-87402362D01*
X111009174Y-87158994D01*
X110802206Y-86952026D01*
X110558838Y-86789412D01*
X110288421Y-86677402D01*
X110001348Y-86620300D01*
X109708652Y-86620300D01*
X109421579Y-86677402D01*
X109151162Y-86789412D01*
X108907794Y-86952026D01*
X108700826Y-87158994D01*
X108538212Y-87402362D01*
X108426202Y-87672779D01*
X108369100Y-87959852D01*
X107403900Y-87959852D01*
X107403900Y-87847276D01*
X107302873Y-87339378D01*
X107104701Y-86860949D01*
X106817000Y-86430374D01*
X106450826Y-86064200D01*
X106020251Y-85776499D01*
X105541822Y-85578327D01*
X105033924Y-85477300D01*
X104516076Y-85477300D01*
X104008178Y-85578327D01*
X103529749Y-85776499D01*
X103099174Y-86064200D01*
X103028763Y-86134611D01*
X103100000Y-85776479D01*
X103100000Y-85355921D01*
X103017953Y-84943444D01*
X102857012Y-84554898D01*
X102623363Y-84205217D01*
X102325983Y-83907837D01*
X101976302Y-83674188D01*
X101587756Y-83513247D01*
X101175279Y-83431200D01*
X100754721Y-83431200D01*
X100342244Y-83513247D01*
X99953698Y-83674188D01*
X99604017Y-83907837D01*
X99306637Y-84205217D01*
X99278700Y-84247028D01*
X99278700Y-83981202D01*
X99287303Y-83972599D01*
X99316301Y-83948801D01*
X99411274Y-83833076D01*
X99481846Y-83701047D01*
X99525303Y-83557786D01*
X99536300Y-83446133D01*
X99536300Y-83446124D01*
X99539976Y-83408801D01*
X99536300Y-83371478D01*
X99536300Y-82815921D01*
X105180000Y-82815921D01*
X105180000Y-83236479D01*
X105262047Y-83648956D01*
X105422988Y-84037502D01*
X105656637Y-84387183D01*
X105954017Y-84684563D01*
X106303698Y-84918212D01*
X106692244Y-85079153D01*
X107104721Y-85161200D01*
X107525279Y-85161200D01*
X107937756Y-85079153D01*
X108326302Y-84918212D01*
X108675983Y-84684563D01*
X108973363Y-84387183D01*
X109207012Y-84037502D01*
X109367953Y-83648956D01*
X109450000Y-83236479D01*
X109450000Y-82815921D01*
X109367953Y-82403444D01*
X109207012Y-82014898D01*
X108973363Y-81665217D01*
X108675983Y-81367837D01*
X108326302Y-81134188D01*
X107937756Y-80973247D01*
X107525279Y-80891200D01*
X107104721Y-80891200D01*
X106692244Y-80973247D01*
X106303698Y-81134188D01*
X105954017Y-81367837D01*
X105656637Y-81665217D01*
X105422988Y-82014898D01*
X105262047Y-82403444D01*
X105180000Y-82815921D01*
X99536300Y-82815921D01*
X99536300Y-81900722D01*
X99539976Y-81863399D01*
X99536300Y-81826076D01*
X99536300Y-81826067D01*
X99525303Y-81714414D01*
X99481846Y-81571153D01*
X99411274Y-81439124D01*
X99316301Y-81323399D01*
X99287302Y-81299600D01*
X99021000Y-81033299D01*
X99021000Y-73925921D01*
X100100000Y-73925921D01*
X100100000Y-74346479D01*
X100182047Y-74758956D01*
X100342988Y-75147502D01*
X100576637Y-75497183D01*
X100874017Y-75794563D01*
X101223698Y-76028212D01*
X101612244Y-76189153D01*
X102024721Y-76271200D01*
X102445279Y-76271200D01*
X102857756Y-76189153D01*
X103246302Y-76028212D01*
X103595983Y-75794563D01*
X103893363Y-75497183D01*
X104127012Y-75147502D01*
X104287953Y-74758956D01*
X104370000Y-74346479D01*
X104370000Y-73925921D01*
X119150000Y-73925921D01*
X119150000Y-74346479D01*
X119232047Y-74758956D01*
X119392988Y-75147502D01*
X119626637Y-75497183D01*
X119924017Y-75794563D01*
X120273698Y-76028212D01*
X120662244Y-76189153D01*
X121074721Y-76271200D01*
X121495279Y-76271200D01*
X121907756Y-76189153D01*
X122296302Y-76028212D01*
X122645983Y-75794563D01*
X122943363Y-75497183D01*
X123177012Y-75147502D01*
X123337953Y-74758956D01*
X123420000Y-74346479D01*
X123420000Y-73925921D01*
X123337953Y-73513444D01*
X123177012Y-73124898D01*
X122943363Y-72775217D01*
X122645983Y-72477837D01*
X122296302Y-72244188D01*
X121907756Y-72083247D01*
X121495279Y-72001200D01*
X121074721Y-72001200D01*
X120662244Y-72083247D01*
X120273698Y-72244188D01*
X119924017Y-72477837D01*
X119626637Y-72775217D01*
X119392988Y-73124898D01*
X119232047Y-73513444D01*
X119150000Y-73925921D01*
X104370000Y-73925921D01*
X104287953Y-73513444D01*
X104127012Y-73124898D01*
X103893363Y-72775217D01*
X103595983Y-72477837D01*
X103246302Y-72244188D01*
X102857756Y-72083247D01*
X102445279Y-72001200D01*
X102024721Y-72001200D01*
X101612244Y-72083247D01*
X101223698Y-72244188D01*
X100874017Y-72477837D01*
X100576637Y-72775217D01*
X100342988Y-73124898D01*
X100182047Y-73513444D01*
X100100000Y-73925921D01*
X99021000Y-73925921D01*
X99021000Y-70385347D01*
X99261579Y-70484998D01*
X99548652Y-70542100D01*
X99841348Y-70542100D01*
X100128421Y-70484998D01*
X100398838Y-70372988D01*
X100642206Y-70210374D01*
X100849174Y-70003406D01*
X101011788Y-69760038D01*
X101123798Y-69489621D01*
X101180900Y-69202548D01*
X101180900Y-68909852D01*
X101158508Y-68797276D01*
X102146100Y-68797276D01*
X102146100Y-69315124D01*
X102247127Y-69823022D01*
X102445299Y-70301451D01*
X102733000Y-70732026D01*
X103099174Y-71098200D01*
X103529749Y-71385901D01*
X104008178Y-71584073D01*
X104516076Y-71685100D01*
X105033924Y-71685100D01*
X105541822Y-71584073D01*
X106020251Y-71385901D01*
X106450826Y-71098200D01*
X106521237Y-71027789D01*
X106450000Y-71385921D01*
X106450000Y-71806479D01*
X106532047Y-72218956D01*
X106692988Y-72607502D01*
X106926637Y-72957183D01*
X107224017Y-73254563D01*
X107573698Y-73488212D01*
X107962244Y-73649153D01*
X108374721Y-73731200D01*
X108795279Y-73731200D01*
X109207756Y-73649153D01*
X109596302Y-73488212D01*
X109945983Y-73254563D01*
X110243363Y-72957183D01*
X110477012Y-72607502D01*
X110637953Y-72218956D01*
X110720000Y-71806479D01*
X110720000Y-71385921D01*
X110637953Y-70973444D01*
X110477012Y-70584898D01*
X110383850Y-70445470D01*
X110558838Y-70372988D01*
X110802206Y-70210374D01*
X111009174Y-70003406D01*
X111171788Y-69760038D01*
X111283798Y-69489621D01*
X111340900Y-69202548D01*
X111340900Y-68909852D01*
X117259100Y-68909852D01*
X117259100Y-69202548D01*
X117316202Y-69489621D01*
X117428212Y-69760038D01*
X117590826Y-70003406D01*
X117797794Y-70210374D01*
X118041162Y-70372988D01*
X118311579Y-70484998D01*
X118598652Y-70542100D01*
X118891348Y-70542100D01*
X119178421Y-70484998D01*
X119448838Y-70372988D01*
X119692206Y-70210374D01*
X119899174Y-70003406D01*
X120061788Y-69760038D01*
X120173798Y-69489621D01*
X120230900Y-69202548D01*
X120230900Y-68909852D01*
X120173798Y-68622779D01*
X120061788Y-68352362D01*
X119899174Y-68108994D01*
X119692206Y-67902026D01*
X119448838Y-67739412D01*
X119178421Y-67627402D01*
X118891348Y-67570300D01*
X118598652Y-67570300D01*
X118311579Y-67627402D01*
X118041162Y-67739412D01*
X117797794Y-67902026D01*
X117590826Y-68108994D01*
X117428212Y-68352362D01*
X117316202Y-68622779D01*
X117259100Y-68909852D01*
X111340900Y-68909852D01*
X111283798Y-68622779D01*
X111171788Y-68352362D01*
X111009174Y-68108994D01*
X110802206Y-67902026D01*
X110558838Y-67739412D01*
X110288421Y-67627402D01*
X110001348Y-67570300D01*
X109708652Y-67570300D01*
X109421579Y-67627402D01*
X109151162Y-67739412D01*
X108907794Y-67902026D01*
X108700826Y-68108994D01*
X108538212Y-68352362D01*
X108426202Y-68622779D01*
X108369100Y-68909852D01*
X108369100Y-69202548D01*
X108420549Y-69461200D01*
X108374721Y-69461200D01*
X107962244Y-69543247D01*
X107573698Y-69704188D01*
X107267292Y-69908921D01*
X107302873Y-69823022D01*
X107403900Y-69315124D01*
X107403900Y-68797276D01*
X107302873Y-68289378D01*
X107104701Y-67810949D01*
X106817000Y-67380374D01*
X106450826Y-67014200D01*
X106020251Y-66726499D01*
X105541822Y-66528327D01*
X105033924Y-66427300D01*
X104516076Y-66427300D01*
X104008178Y-66528327D01*
X103529749Y-66726499D01*
X103099174Y-67014200D01*
X102733000Y-67380374D01*
X102445299Y-67810949D01*
X102247127Y-68289378D01*
X102146100Y-68797276D01*
X101158508Y-68797276D01*
X101123798Y-68622779D01*
X101011788Y-68352362D01*
X100849174Y-68108994D01*
X100642206Y-67902026D01*
X100398838Y-67739412D01*
X100128421Y-67627402D01*
X99841348Y-67570300D01*
X99548652Y-67570300D01*
X99261579Y-67627402D01*
X99021000Y-67727053D01*
X99021000Y-65175811D01*
X99064937Y-65131874D01*
X99178205Y-64962356D01*
X99256226Y-64773998D01*
X99296000Y-64574039D01*
X99296000Y-64504900D01*
X103044289Y-64504900D01*
X103088226Y-64548837D01*
X103257744Y-64662105D01*
X103446102Y-64740126D01*
X103646061Y-64779900D01*
X103849939Y-64779900D01*
X104049898Y-64740126D01*
X104238256Y-64662105D01*
X104407774Y-64548837D01*
X104551937Y-64404674D01*
X104665205Y-64235156D01*
X104739000Y-64057000D01*
X108845000Y-64057000D01*
X108845000Y-64607000D01*
X108891585Y-64825987D01*
X108979997Y-65031678D01*
X109106839Y-65216169D01*
X109267236Y-65372369D01*
X109455024Y-65494276D01*
X109678126Y-65574119D01*
X109853000Y-65447954D01*
X109853000Y-64057000D01*
X108845000Y-64057000D01*
X104739000Y-64057000D01*
X104743226Y-64046798D01*
X104783000Y-63846839D01*
X104783000Y-63784701D01*
X105314701Y-63253000D01*
X108845000Y-63253000D01*
X108845000Y-63803000D01*
X109853000Y-63803000D01*
X109853000Y-62412046D01*
X110107000Y-62412046D01*
X110107000Y-63803000D01*
X110127000Y-63803000D01*
X110127000Y-64057000D01*
X110107000Y-64057000D01*
X110107000Y-65447954D01*
X110281874Y-65574119D01*
X110504976Y-65494276D01*
X110692764Y-65372369D01*
X110853161Y-65216169D01*
X110980003Y-65031678D01*
X111068415Y-64825987D01*
X111115000Y-64607000D01*
X111115000Y-64316904D01*
X111129978Y-64323108D01*
X111315448Y-64360000D01*
X111504552Y-64360000D01*
X111690022Y-64323108D01*
X111864731Y-64250741D01*
X112021964Y-64145681D01*
X112155681Y-64011964D01*
X112260741Y-63854731D01*
X112333108Y-63680022D01*
X112370000Y-63494552D01*
X112370000Y-63305448D01*
X116230000Y-63305448D01*
X116230000Y-63494552D01*
X116266892Y-63680022D01*
X116339259Y-63854731D01*
X116444319Y-64011964D01*
X116578036Y-64145681D01*
X116735269Y-64250741D01*
X116909978Y-64323108D01*
X117095448Y-64360000D01*
X117284552Y-64360000D01*
X117470022Y-64323108D01*
X117485000Y-64316904D01*
X117485000Y-64607000D01*
X117531585Y-64825987D01*
X117619997Y-65031678D01*
X117746839Y-65216169D01*
X117907236Y-65372369D01*
X118095024Y-65494276D01*
X118318126Y-65574119D01*
X118493000Y-65447954D01*
X118493000Y-64057000D01*
X118747000Y-64057000D01*
X118747000Y-65447954D01*
X118921874Y-65574119D01*
X119144976Y-65494276D01*
X119332764Y-65372369D01*
X119493161Y-65216169D01*
X119620003Y-65031678D01*
X119708415Y-64825987D01*
X119755000Y-64607000D01*
X119755000Y-64057000D01*
X118747000Y-64057000D01*
X118493000Y-64057000D01*
X118473000Y-64057000D01*
X118473000Y-63803000D01*
X118493000Y-63803000D01*
X118493000Y-62412046D01*
X118747000Y-62412046D01*
X118747000Y-63803000D01*
X119755000Y-63803000D01*
X119755000Y-63253000D01*
X119708415Y-63034013D01*
X119620003Y-62828322D01*
X119493161Y-62643831D01*
X119332764Y-62487631D01*
X119144976Y-62365724D01*
X118921874Y-62285881D01*
X118747000Y-62412046D01*
X118493000Y-62412046D01*
X118318126Y-62285881D01*
X118095024Y-62365724D01*
X117907236Y-62487631D01*
X117762884Y-62628206D01*
X117644731Y-62549259D01*
X117470022Y-62476892D01*
X117284552Y-62440000D01*
X117095448Y-62440000D01*
X116909978Y-62476892D01*
X116735269Y-62549259D01*
X116578036Y-62654319D01*
X116444319Y-62788036D01*
X116339259Y-62945269D01*
X116266892Y-63119978D01*
X116230000Y-63305448D01*
X112370000Y-63305448D01*
X112333108Y-63119978D01*
X112260741Y-62945269D01*
X112155681Y-62788036D01*
X112021964Y-62654319D01*
X111864731Y-62549259D01*
X111690022Y-62476892D01*
X111504552Y-62440000D01*
X111315448Y-62440000D01*
X111129978Y-62476892D01*
X110955269Y-62549259D01*
X110837116Y-62628206D01*
X110692764Y-62487631D01*
X110504976Y-62365724D01*
X110281874Y-62285881D01*
X110107000Y-62412046D01*
X109853000Y-62412046D01*
X109678126Y-62285881D01*
X109455024Y-62365724D01*
X109267236Y-62487631D01*
X109106839Y-62643831D01*
X108979997Y-62828322D01*
X108891585Y-63034013D01*
X108845000Y-63253000D01*
X105314701Y-63253000D01*
X106288002Y-62279700D01*
X106493889Y-62279700D01*
X106537826Y-62323637D01*
X106707344Y-62436905D01*
X106895702Y-62514926D01*
X107095661Y-62554700D01*
X107299539Y-62554700D01*
X107499498Y-62514926D01*
X107687856Y-62436905D01*
X107857374Y-62323637D01*
X108001537Y-62179474D01*
X108114805Y-62009956D01*
X108192826Y-61821598D01*
X108232600Y-61621639D01*
X108232600Y-61417761D01*
X108192826Y-61217802D01*
X108114805Y-61029444D01*
X108001537Y-60859926D01*
X107857374Y-60715763D01*
X107687856Y-60602495D01*
X107499498Y-60524474D01*
X107299539Y-60484700D01*
X107095661Y-60484700D01*
X106895702Y-60524474D01*
X106707344Y-60602495D01*
X106537826Y-60715763D01*
X106493889Y-60759700D01*
X106010522Y-60759700D01*
X105973199Y-60756024D01*
X105935877Y-60759700D01*
X105935867Y-60759700D01*
X105824214Y-60770697D01*
X105680953Y-60814154D01*
X105548923Y-60884726D01*
X105478686Y-60942369D01*
X105433199Y-60979699D01*
X105409401Y-61008697D01*
X103708199Y-62709900D01*
X103646061Y-62709900D01*
X103446102Y-62749674D01*
X103257744Y-62827695D01*
X103088226Y-62940963D01*
X103044289Y-62984900D01*
X99425583Y-62984900D01*
X99417726Y-62945402D01*
X99339705Y-62757044D01*
X99226437Y-62587526D01*
X99082274Y-62443363D01*
X98912756Y-62330095D01*
X98724398Y-62252074D01*
X98524439Y-62212300D01*
X98320561Y-62212300D01*
X98120602Y-62252074D01*
X97932244Y-62330095D01*
X97762726Y-62443363D01*
X97618563Y-62587526D01*
X97505295Y-62757044D01*
X97427274Y-62945402D01*
X97387500Y-63145361D01*
X97387500Y-63193162D01*
X97373199Y-63204899D01*
X97349401Y-63233897D01*
X93067300Y-67515999D01*
X93067300Y-65015011D01*
X93111137Y-64971174D01*
X93224405Y-64801656D01*
X93302426Y-64613298D01*
X93342200Y-64413339D01*
X93342200Y-64209461D01*
X93302426Y-64009502D01*
X93224405Y-63821144D01*
X93111137Y-63651626D01*
X92966974Y-63507463D01*
X92797456Y-63394195D01*
X92609098Y-63316174D01*
X92409139Y-63276400D01*
X92205261Y-63276400D01*
X92005302Y-63316174D01*
X91816944Y-63394195D01*
X91647426Y-63507463D01*
X91503263Y-63651626D01*
X91389995Y-63821144D01*
X91311974Y-64009502D01*
X91272200Y-64209461D01*
X91272200Y-64413339D01*
X91311974Y-64613298D01*
X91389995Y-64801656D01*
X91503263Y-64971174D01*
X91547301Y-65015212D01*
X91547301Y-67765112D01*
X91508838Y-67739412D01*
X91238421Y-67627402D01*
X90951348Y-67570300D01*
X90658652Y-67570300D01*
X90371579Y-67627402D01*
X90101162Y-67739412D01*
X89857794Y-67902026D01*
X89650826Y-68108994D01*
X89488212Y-68352362D01*
X89376202Y-68622779D01*
X89319100Y-68909852D01*
X89319100Y-69202548D01*
X89370549Y-69461200D01*
X89324721Y-69461200D01*
X88912244Y-69543247D01*
X88807400Y-69586675D01*
X88807400Y-63212522D01*
X88811076Y-63175199D01*
X88807400Y-63137876D01*
X88807400Y-63137867D01*
X88796403Y-63026214D01*
X88752946Y-62882953D01*
X88706600Y-62796247D01*
X88706600Y-62697461D01*
X88666826Y-62497502D01*
X88588805Y-62309144D01*
X88475537Y-62139626D01*
X88331374Y-61995463D01*
X88161856Y-61882195D01*
X87973498Y-61804174D01*
X87773539Y-61764400D01*
X87569661Y-61764400D01*
X87369702Y-61804174D01*
X87181344Y-61882195D01*
X87011826Y-61995463D01*
X86867663Y-62139626D01*
X86754395Y-62309144D01*
X86676374Y-62497502D01*
X86636600Y-62697461D01*
X86636600Y-62901339D01*
X86676374Y-63101298D01*
X86754395Y-63289656D01*
X86867663Y-63459174D01*
X87011826Y-63603337D01*
X87181344Y-63716605D01*
X87287401Y-63760536D01*
X87287400Y-66938411D01*
X86970251Y-66726499D01*
X86491822Y-66528327D01*
X85983924Y-66427300D01*
X85466076Y-66427300D01*
X84958178Y-66528327D01*
X84479749Y-66726499D01*
X84049174Y-67014200D01*
X83683000Y-67380374D01*
X83395299Y-67810949D01*
X83197127Y-68289378D01*
X83096100Y-68797276D01*
X83096100Y-69315124D01*
X83197127Y-69823022D01*
X83395299Y-70301451D01*
X83683000Y-70732026D01*
X84049174Y-71098200D01*
X84479749Y-71385901D01*
X84958178Y-71584073D01*
X85466076Y-71685100D01*
X85983924Y-71685100D01*
X86491822Y-71584073D01*
X86922801Y-71405556D01*
X86922800Y-72471977D01*
X86919124Y-72509300D01*
X86922800Y-72546622D01*
X86922800Y-72546632D01*
X86933797Y-72658285D01*
X86977254Y-72801546D01*
X87047826Y-72933576D01*
X87067200Y-72957183D01*
X87142799Y-73049301D01*
X87171803Y-73073104D01*
X89470198Y-75371500D01*
X89438226Y-75392863D01*
X89294063Y-75537026D01*
X89180795Y-75706544D01*
X89102774Y-75894902D01*
X89063000Y-76094861D01*
X89063000Y-76298739D01*
X89102774Y-76498698D01*
X89180795Y-76687056D01*
X89294063Y-76856574D01*
X89338001Y-76900512D01*
X89338001Y-81175414D01*
X89276302Y-81134188D01*
X88887756Y-80973247D01*
X88475279Y-80891200D01*
X88054721Y-80891200D01*
X87642244Y-80973247D01*
X87253698Y-81134188D01*
X86904017Y-81367837D01*
X86606637Y-81665217D01*
X86372988Y-82014898D01*
X86212047Y-82403444D01*
X86130000Y-82815921D01*
X86130000Y-83236479D01*
X86212047Y-83648956D01*
X86372988Y-84037502D01*
X86606637Y-84387183D01*
X86904017Y-84684563D01*
X87253698Y-84918212D01*
X87642244Y-85079153D01*
X88054721Y-85161200D01*
X88475279Y-85161200D01*
X88887756Y-85079153D01*
X89276302Y-84918212D01*
X89338000Y-84876987D01*
X89338000Y-86698498D01*
X88326578Y-87709920D01*
X88252873Y-87339378D01*
X88054701Y-86860949D01*
X87767000Y-86430374D01*
X87400826Y-86064200D01*
X86970251Y-85776499D01*
X86491822Y-85578327D01*
X85983924Y-85477300D01*
X85466076Y-85477300D01*
X84958178Y-85578327D01*
X84479749Y-85776499D01*
X84049174Y-86064200D01*
X83978763Y-86134611D01*
X84050000Y-85776479D01*
X84050000Y-85355921D01*
X83967953Y-84943444D01*
X83807012Y-84554898D01*
X83573363Y-84205217D01*
X83275983Y-83907837D01*
X82926302Y-83674188D01*
X82537756Y-83513247D01*
X82125279Y-83431200D01*
X81704721Y-83431200D01*
X81292244Y-83513247D01*
X80903698Y-83674188D01*
X80554017Y-83907837D01*
X80256637Y-84205217D01*
X80022988Y-84554898D01*
X79862047Y-84943444D01*
X79780000Y-85355921D01*
X79780000Y-85776479D01*
X79862047Y-86188956D01*
X80022988Y-86577502D01*
X80116150Y-86716930D01*
X79941162Y-86789412D01*
X79697794Y-86952026D01*
X79490826Y-87158994D01*
X79328212Y-87402362D01*
X79216202Y-87672779D01*
X79159100Y-87959852D01*
X76327000Y-87959852D01*
X76327000Y-73925921D01*
X81050000Y-73925921D01*
X81050000Y-74346479D01*
X81132047Y-74758956D01*
X81292988Y-75147502D01*
X81526637Y-75497183D01*
X81824017Y-75794563D01*
X82173698Y-76028212D01*
X82562244Y-76189153D01*
X82974721Y-76271200D01*
X83395279Y-76271200D01*
X83807756Y-76189153D01*
X84196302Y-76028212D01*
X84545983Y-75794563D01*
X84843363Y-75497183D01*
X85077012Y-75147502D01*
X85237953Y-74758956D01*
X85320000Y-74346479D01*
X85320000Y-73925921D01*
X85237953Y-73513444D01*
X85077012Y-73124898D01*
X84843363Y-72775217D01*
X84545983Y-72477837D01*
X84196302Y-72244188D01*
X83807756Y-72083247D01*
X83395279Y-72001200D01*
X82974721Y-72001200D01*
X82562244Y-72083247D01*
X82173698Y-72244188D01*
X81824017Y-72477837D01*
X81526637Y-72775217D01*
X81292988Y-73124898D01*
X81132047Y-73513444D01*
X81050000Y-73925921D01*
X76327000Y-73925921D01*
X76327000Y-68909852D01*
X79159100Y-68909852D01*
X79159100Y-69202548D01*
X79216202Y-69489621D01*
X79328212Y-69760038D01*
X79490826Y-70003406D01*
X79697794Y-70210374D01*
X79941162Y-70372988D01*
X80211579Y-70484998D01*
X80498652Y-70542100D01*
X80791348Y-70542100D01*
X81078421Y-70484998D01*
X81348838Y-70372988D01*
X81592206Y-70210374D01*
X81799174Y-70003406D01*
X81961788Y-69760038D01*
X82073798Y-69489621D01*
X82130900Y-69202548D01*
X82130900Y-68909852D01*
X82073798Y-68622779D01*
X81961788Y-68352362D01*
X81799174Y-68108994D01*
X81592206Y-67902026D01*
X81348838Y-67739412D01*
X81078421Y-67627402D01*
X80791348Y-67570300D01*
X80498652Y-67570300D01*
X80211579Y-67627402D01*
X79941162Y-67739412D01*
X79697794Y-67902026D01*
X79490826Y-68108994D01*
X79328212Y-68352362D01*
X79216202Y-68622779D01*
X79159100Y-68909852D01*
X76327000Y-68909852D01*
X76327000Y-62282606D01*
X78792606Y-59817000D01*
X108845000Y-59817000D01*
X108845000Y-60177000D01*
M02*
