%TF.GenerationSoftware,KiCad,Pcbnew,(5.1.2)-2*%
%TF.CreationDate,2020-03-24T23:19:36+08:00*%
%TF.ProjectId,wingxx-receiver-v4,77696e67-7878-42d7-9265-636569766572,rev?*%
%TF.SameCoordinates,Original*%
%TF.FileFunction,Paste,Bot*%
%TF.FilePolarity,Positive*%
%FSLAX46Y46*%
G04 Gerber Fmt 4.6, Leading zero omitted, Abs format (unit mm)*
G04 Created by KiCad (PCBNEW (5.1.2)-2) date 2020-03-24 23:19:36*
%MOMM*%
%LPD*%
G04 APERTURE LIST*
%ADD10R,0.900000X0.600000*%
%ADD11C,0.350000*%
%ADD12C,1.150000*%
%ADD13R,1.300000X0.950000*%
%ADD14R,0.698500X1.198880*%
%ADD15R,1.198880X0.698500*%
%ADD16R,1.500000X1.500000*%
%ADD17R,1.800000X2.100000*%
%ADD18C,1.425000*%
%ADD19R,1.500000X0.550000*%
%ADD20R,0.550000X1.500000*%
%ADD21R,1.000000X1.400000*%
%ADD22R,1.200000X1.400000*%
%ADD23R,0.600000X2.450000*%
%ADD24R,0.300000X2.450000*%
%ADD25R,2.550000X2.500000*%
G04 APERTURE END LIST*
D10*
X125727000Y-62325200D03*
X128527000Y-63275200D03*
X128527000Y-61375200D03*
D11*
G36*
X135645505Y-63309204D02*
G01*
X135669773Y-63312804D01*
X135693572Y-63318765D01*
X135716671Y-63327030D01*
X135738850Y-63337520D01*
X135759893Y-63350132D01*
X135779599Y-63364747D01*
X135797777Y-63381223D01*
X135814253Y-63399401D01*
X135828868Y-63419107D01*
X135841480Y-63440150D01*
X135851970Y-63462329D01*
X135860235Y-63485428D01*
X135866196Y-63509227D01*
X135869796Y-63533495D01*
X135871000Y-63557999D01*
X135871000Y-64458001D01*
X135869796Y-64482505D01*
X135866196Y-64506773D01*
X135860235Y-64530572D01*
X135851970Y-64553671D01*
X135841480Y-64575850D01*
X135828868Y-64596893D01*
X135814253Y-64616599D01*
X135797777Y-64634777D01*
X135779599Y-64651253D01*
X135759893Y-64665868D01*
X135738850Y-64678480D01*
X135716671Y-64688970D01*
X135693572Y-64697235D01*
X135669773Y-64703196D01*
X135645505Y-64706796D01*
X135621001Y-64708000D01*
X134970999Y-64708000D01*
X134946495Y-64706796D01*
X134922227Y-64703196D01*
X134898428Y-64697235D01*
X134875329Y-64688970D01*
X134853150Y-64678480D01*
X134832107Y-64665868D01*
X134812401Y-64651253D01*
X134794223Y-64634777D01*
X134777747Y-64616599D01*
X134763132Y-64596893D01*
X134750520Y-64575850D01*
X134740030Y-64553671D01*
X134731765Y-64530572D01*
X134725804Y-64506773D01*
X134722204Y-64482505D01*
X134721000Y-64458001D01*
X134721000Y-63557999D01*
X134722204Y-63533495D01*
X134725804Y-63509227D01*
X134731765Y-63485428D01*
X134740030Y-63462329D01*
X134750520Y-63440150D01*
X134763132Y-63419107D01*
X134777747Y-63399401D01*
X134794223Y-63381223D01*
X134812401Y-63364747D01*
X134832107Y-63350132D01*
X134853150Y-63337520D01*
X134875329Y-63327030D01*
X134898428Y-63318765D01*
X134922227Y-63312804D01*
X134946495Y-63309204D01*
X134970999Y-63308000D01*
X135621001Y-63308000D01*
X135645505Y-63309204D01*
X135645505Y-63309204D01*
G37*
D12*
X135296000Y-64008000D03*
D11*
G36*
X133595505Y-63309204D02*
G01*
X133619773Y-63312804D01*
X133643572Y-63318765D01*
X133666671Y-63327030D01*
X133688850Y-63337520D01*
X133709893Y-63350132D01*
X133729599Y-63364747D01*
X133747777Y-63381223D01*
X133764253Y-63399401D01*
X133778868Y-63419107D01*
X133791480Y-63440150D01*
X133801970Y-63462329D01*
X133810235Y-63485428D01*
X133816196Y-63509227D01*
X133819796Y-63533495D01*
X133821000Y-63557999D01*
X133821000Y-64458001D01*
X133819796Y-64482505D01*
X133816196Y-64506773D01*
X133810235Y-64530572D01*
X133801970Y-64553671D01*
X133791480Y-64575850D01*
X133778868Y-64596893D01*
X133764253Y-64616599D01*
X133747777Y-64634777D01*
X133729599Y-64651253D01*
X133709893Y-64665868D01*
X133688850Y-64678480D01*
X133666671Y-64688970D01*
X133643572Y-64697235D01*
X133619773Y-64703196D01*
X133595505Y-64706796D01*
X133571001Y-64708000D01*
X132920999Y-64708000D01*
X132896495Y-64706796D01*
X132872227Y-64703196D01*
X132848428Y-64697235D01*
X132825329Y-64688970D01*
X132803150Y-64678480D01*
X132782107Y-64665868D01*
X132762401Y-64651253D01*
X132744223Y-64634777D01*
X132727747Y-64616599D01*
X132713132Y-64596893D01*
X132700520Y-64575850D01*
X132690030Y-64553671D01*
X132681765Y-64530572D01*
X132675804Y-64506773D01*
X132672204Y-64482505D01*
X132671000Y-64458001D01*
X132671000Y-63557999D01*
X132672204Y-63533495D01*
X132675804Y-63509227D01*
X132681765Y-63485428D01*
X132690030Y-63462329D01*
X132700520Y-63440150D01*
X132713132Y-63419107D01*
X132727747Y-63399401D01*
X132744223Y-63381223D01*
X132762401Y-63364747D01*
X132782107Y-63350132D01*
X132803150Y-63337520D01*
X132825329Y-63327030D01*
X132848428Y-63318765D01*
X132872227Y-63312804D01*
X132896495Y-63309204D01*
X132920999Y-63308000D01*
X133571001Y-63308000D01*
X133595505Y-63309204D01*
X133595505Y-63309204D01*
G37*
D12*
X133246000Y-64008000D03*
D11*
G36*
X135645505Y-60388204D02*
G01*
X135669773Y-60391804D01*
X135693572Y-60397765D01*
X135716671Y-60406030D01*
X135738850Y-60416520D01*
X135759893Y-60429132D01*
X135779599Y-60443747D01*
X135797777Y-60460223D01*
X135814253Y-60478401D01*
X135828868Y-60498107D01*
X135841480Y-60519150D01*
X135851970Y-60541329D01*
X135860235Y-60564428D01*
X135866196Y-60588227D01*
X135869796Y-60612495D01*
X135871000Y-60636999D01*
X135871000Y-61537001D01*
X135869796Y-61561505D01*
X135866196Y-61585773D01*
X135860235Y-61609572D01*
X135851970Y-61632671D01*
X135841480Y-61654850D01*
X135828868Y-61675893D01*
X135814253Y-61695599D01*
X135797777Y-61713777D01*
X135779599Y-61730253D01*
X135759893Y-61744868D01*
X135738850Y-61757480D01*
X135716671Y-61767970D01*
X135693572Y-61776235D01*
X135669773Y-61782196D01*
X135645505Y-61785796D01*
X135621001Y-61787000D01*
X134970999Y-61787000D01*
X134946495Y-61785796D01*
X134922227Y-61782196D01*
X134898428Y-61776235D01*
X134875329Y-61767970D01*
X134853150Y-61757480D01*
X134832107Y-61744868D01*
X134812401Y-61730253D01*
X134794223Y-61713777D01*
X134777747Y-61695599D01*
X134763132Y-61675893D01*
X134750520Y-61654850D01*
X134740030Y-61632671D01*
X134731765Y-61609572D01*
X134725804Y-61585773D01*
X134722204Y-61561505D01*
X134721000Y-61537001D01*
X134721000Y-60636999D01*
X134722204Y-60612495D01*
X134725804Y-60588227D01*
X134731765Y-60564428D01*
X134740030Y-60541329D01*
X134750520Y-60519150D01*
X134763132Y-60498107D01*
X134777747Y-60478401D01*
X134794223Y-60460223D01*
X134812401Y-60443747D01*
X134832107Y-60429132D01*
X134853150Y-60416520D01*
X134875329Y-60406030D01*
X134898428Y-60397765D01*
X134922227Y-60391804D01*
X134946495Y-60388204D01*
X134970999Y-60387000D01*
X135621001Y-60387000D01*
X135645505Y-60388204D01*
X135645505Y-60388204D01*
G37*
D12*
X135296000Y-61087000D03*
D11*
G36*
X133595505Y-60388204D02*
G01*
X133619773Y-60391804D01*
X133643572Y-60397765D01*
X133666671Y-60406030D01*
X133688850Y-60416520D01*
X133709893Y-60429132D01*
X133729599Y-60443747D01*
X133747777Y-60460223D01*
X133764253Y-60478401D01*
X133778868Y-60498107D01*
X133791480Y-60519150D01*
X133801970Y-60541329D01*
X133810235Y-60564428D01*
X133816196Y-60588227D01*
X133819796Y-60612495D01*
X133821000Y-60636999D01*
X133821000Y-61537001D01*
X133819796Y-61561505D01*
X133816196Y-61585773D01*
X133810235Y-61609572D01*
X133801970Y-61632671D01*
X133791480Y-61654850D01*
X133778868Y-61675893D01*
X133764253Y-61695599D01*
X133747777Y-61713777D01*
X133729599Y-61730253D01*
X133709893Y-61744868D01*
X133688850Y-61757480D01*
X133666671Y-61767970D01*
X133643572Y-61776235D01*
X133619773Y-61782196D01*
X133595505Y-61785796D01*
X133571001Y-61787000D01*
X132920999Y-61787000D01*
X132896495Y-61785796D01*
X132872227Y-61782196D01*
X132848428Y-61776235D01*
X132825329Y-61767970D01*
X132803150Y-61757480D01*
X132782107Y-61744868D01*
X132762401Y-61730253D01*
X132744223Y-61713777D01*
X132727747Y-61695599D01*
X132713132Y-61675893D01*
X132700520Y-61654850D01*
X132690030Y-61632671D01*
X132681765Y-61609572D01*
X132675804Y-61585773D01*
X132672204Y-61561505D01*
X132671000Y-61537001D01*
X132671000Y-60636999D01*
X132672204Y-60612495D01*
X132675804Y-60588227D01*
X132681765Y-60564428D01*
X132690030Y-60541329D01*
X132700520Y-60519150D01*
X132713132Y-60498107D01*
X132727747Y-60478401D01*
X132744223Y-60460223D01*
X132762401Y-60443747D01*
X132782107Y-60429132D01*
X132803150Y-60416520D01*
X132825329Y-60406030D01*
X132848428Y-60397765D01*
X132872227Y-60391804D01*
X132896495Y-60388204D01*
X132920999Y-60387000D01*
X133571001Y-60387000D01*
X133595505Y-60388204D01*
X133595505Y-60388204D01*
G37*
D12*
X133246000Y-61087000D03*
D13*
X144777000Y-117856000D03*
X141227000Y-117856000D03*
X125473000Y-117856000D03*
X121923000Y-117856000D03*
X106677000Y-117856000D03*
X103127000Y-117856000D03*
X87373000Y-117856000D03*
X83823000Y-117856000D03*
X144777000Y-115570000D03*
X141227000Y-115570000D03*
X125473000Y-115570000D03*
X121923000Y-115570000D03*
X106677000Y-115570000D03*
X103127000Y-115570000D03*
X87373000Y-115570000D03*
X83823000Y-115570000D03*
X144777000Y-79756000D03*
X141227000Y-79756000D03*
X125727000Y-79756000D03*
X122177000Y-79756000D03*
X106423000Y-79756000D03*
X102873000Y-79756000D03*
X87627000Y-79756000D03*
X84077000Y-79756000D03*
X144777000Y-77470000D03*
X141227000Y-77470000D03*
X125727000Y-77470000D03*
X122177000Y-77470000D03*
X106423000Y-77470000D03*
X102873000Y-77470000D03*
X87627000Y-77470000D03*
X84077000Y-77470000D03*
D14*
X107188000Y-146558000D03*
X114808000Y-129032000D03*
X116078000Y-129032000D03*
D15*
X105410000Y-144780000D03*
D14*
X109728000Y-146558000D03*
X110998000Y-146558000D03*
X112268000Y-146558000D03*
X113538000Y-146558000D03*
X114808000Y-146558000D03*
X116078000Y-146558000D03*
X117348000Y-146558000D03*
X118618000Y-146558000D03*
X119888000Y-146558000D03*
X121158000Y-129032000D03*
X119888000Y-129032000D03*
X118618000Y-129032000D03*
X117348000Y-129032000D03*
X113538000Y-129032000D03*
X112268000Y-129032000D03*
X110998000Y-129032000D03*
X109728000Y-129032000D03*
X108458000Y-129032000D03*
X107188000Y-129032000D03*
D15*
X105410000Y-130810000D03*
X105410000Y-132080000D03*
X105410000Y-133350000D03*
X105410000Y-134620000D03*
X105410000Y-135890000D03*
X105410000Y-137160000D03*
X105410000Y-138430000D03*
X105410000Y-139700000D03*
X105410000Y-140970000D03*
X105410000Y-142240000D03*
X105410000Y-143510000D03*
D14*
X121158000Y-146558000D03*
X108458000Y-146558000D03*
D16*
X99150000Y-78740000D03*
X91350000Y-78740000D03*
D17*
X109735000Y-99240000D03*
X109735000Y-96340000D03*
X107435000Y-96340000D03*
X107435000Y-99240000D03*
D11*
G36*
X106059504Y-63006204D02*
G01*
X106083773Y-63009804D01*
X106107571Y-63015765D01*
X106130671Y-63024030D01*
X106152849Y-63034520D01*
X106173893Y-63047133D01*
X106193598Y-63061747D01*
X106211777Y-63078223D01*
X106228253Y-63096402D01*
X106242867Y-63116107D01*
X106255480Y-63137151D01*
X106265970Y-63159329D01*
X106274235Y-63182429D01*
X106280196Y-63206227D01*
X106283796Y-63230496D01*
X106285000Y-63255000D01*
X106285000Y-64180000D01*
X106283796Y-64204504D01*
X106280196Y-64228773D01*
X106274235Y-64252571D01*
X106265970Y-64275671D01*
X106255480Y-64297849D01*
X106242867Y-64318893D01*
X106228253Y-64338598D01*
X106211777Y-64356777D01*
X106193598Y-64373253D01*
X106173893Y-64387867D01*
X106152849Y-64400480D01*
X106130671Y-64410970D01*
X106107571Y-64419235D01*
X106083773Y-64425196D01*
X106059504Y-64428796D01*
X106035000Y-64430000D01*
X104785000Y-64430000D01*
X104760496Y-64428796D01*
X104736227Y-64425196D01*
X104712429Y-64419235D01*
X104689329Y-64410970D01*
X104667151Y-64400480D01*
X104646107Y-64387867D01*
X104626402Y-64373253D01*
X104608223Y-64356777D01*
X104591747Y-64338598D01*
X104577133Y-64318893D01*
X104564520Y-64297849D01*
X104554030Y-64275671D01*
X104545765Y-64252571D01*
X104539804Y-64228773D01*
X104536204Y-64204504D01*
X104535000Y-64180000D01*
X104535000Y-63255000D01*
X104536204Y-63230496D01*
X104539804Y-63206227D01*
X104545765Y-63182429D01*
X104554030Y-63159329D01*
X104564520Y-63137151D01*
X104577133Y-63116107D01*
X104591747Y-63096402D01*
X104608223Y-63078223D01*
X104626402Y-63061747D01*
X104646107Y-63047133D01*
X104667151Y-63034520D01*
X104689329Y-63024030D01*
X104712429Y-63015765D01*
X104736227Y-63009804D01*
X104760496Y-63006204D01*
X104785000Y-63005000D01*
X106035000Y-63005000D01*
X106059504Y-63006204D01*
X106059504Y-63006204D01*
G37*
D18*
X105410000Y-63717500D03*
D11*
G36*
X106059504Y-60031204D02*
G01*
X106083773Y-60034804D01*
X106107571Y-60040765D01*
X106130671Y-60049030D01*
X106152849Y-60059520D01*
X106173893Y-60072133D01*
X106193598Y-60086747D01*
X106211777Y-60103223D01*
X106228253Y-60121402D01*
X106242867Y-60141107D01*
X106255480Y-60162151D01*
X106265970Y-60184329D01*
X106274235Y-60207429D01*
X106280196Y-60231227D01*
X106283796Y-60255496D01*
X106285000Y-60280000D01*
X106285000Y-61205000D01*
X106283796Y-61229504D01*
X106280196Y-61253773D01*
X106274235Y-61277571D01*
X106265970Y-61300671D01*
X106255480Y-61322849D01*
X106242867Y-61343893D01*
X106228253Y-61363598D01*
X106211777Y-61381777D01*
X106193598Y-61398253D01*
X106173893Y-61412867D01*
X106152849Y-61425480D01*
X106130671Y-61435970D01*
X106107571Y-61444235D01*
X106083773Y-61450196D01*
X106059504Y-61453796D01*
X106035000Y-61455000D01*
X104785000Y-61455000D01*
X104760496Y-61453796D01*
X104736227Y-61450196D01*
X104712429Y-61444235D01*
X104689329Y-61435970D01*
X104667151Y-61425480D01*
X104646107Y-61412867D01*
X104626402Y-61398253D01*
X104608223Y-61381777D01*
X104591747Y-61363598D01*
X104577133Y-61343893D01*
X104564520Y-61322849D01*
X104554030Y-61300671D01*
X104545765Y-61277571D01*
X104539804Y-61253773D01*
X104536204Y-61229504D01*
X104535000Y-61205000D01*
X104535000Y-60280000D01*
X104536204Y-60255496D01*
X104539804Y-60231227D01*
X104545765Y-60207429D01*
X104554030Y-60184329D01*
X104564520Y-60162151D01*
X104577133Y-60141107D01*
X104591747Y-60121402D01*
X104608223Y-60103223D01*
X104626402Y-60086747D01*
X104646107Y-60072133D01*
X104667151Y-60059520D01*
X104689329Y-60049030D01*
X104712429Y-60040765D01*
X104736227Y-60034804D01*
X104760496Y-60031204D01*
X104785000Y-60030000D01*
X106035000Y-60030000D01*
X106059504Y-60031204D01*
X106059504Y-60031204D01*
G37*
D18*
X105410000Y-60742500D03*
D11*
G36*
X117434505Y-100266204D02*
G01*
X117458773Y-100269804D01*
X117482572Y-100275765D01*
X117505671Y-100284030D01*
X117527850Y-100294520D01*
X117548893Y-100307132D01*
X117568599Y-100321747D01*
X117586777Y-100338223D01*
X117603253Y-100356401D01*
X117617868Y-100376107D01*
X117630480Y-100397150D01*
X117640970Y-100419329D01*
X117649235Y-100442428D01*
X117655196Y-100466227D01*
X117658796Y-100490495D01*
X117660000Y-100514999D01*
X117660000Y-101415001D01*
X117658796Y-101439505D01*
X117655196Y-101463773D01*
X117649235Y-101487572D01*
X117640970Y-101510671D01*
X117630480Y-101532850D01*
X117617868Y-101553893D01*
X117603253Y-101573599D01*
X117586777Y-101591777D01*
X117568599Y-101608253D01*
X117548893Y-101622868D01*
X117527850Y-101635480D01*
X117505671Y-101645970D01*
X117482572Y-101654235D01*
X117458773Y-101660196D01*
X117434505Y-101663796D01*
X117410001Y-101665000D01*
X116759999Y-101665000D01*
X116735495Y-101663796D01*
X116711227Y-101660196D01*
X116687428Y-101654235D01*
X116664329Y-101645970D01*
X116642150Y-101635480D01*
X116621107Y-101622868D01*
X116601401Y-101608253D01*
X116583223Y-101591777D01*
X116566747Y-101573599D01*
X116552132Y-101553893D01*
X116539520Y-101532850D01*
X116529030Y-101510671D01*
X116520765Y-101487572D01*
X116514804Y-101463773D01*
X116511204Y-101439505D01*
X116510000Y-101415001D01*
X116510000Y-100514999D01*
X116511204Y-100490495D01*
X116514804Y-100466227D01*
X116520765Y-100442428D01*
X116529030Y-100419329D01*
X116539520Y-100397150D01*
X116552132Y-100376107D01*
X116566747Y-100356401D01*
X116583223Y-100338223D01*
X116601401Y-100321747D01*
X116621107Y-100307132D01*
X116642150Y-100294520D01*
X116664329Y-100284030D01*
X116687428Y-100275765D01*
X116711227Y-100269804D01*
X116735495Y-100266204D01*
X116759999Y-100265000D01*
X117410001Y-100265000D01*
X117434505Y-100266204D01*
X117434505Y-100266204D01*
G37*
D12*
X117085000Y-100965000D03*
D11*
G36*
X119484505Y-100266204D02*
G01*
X119508773Y-100269804D01*
X119532572Y-100275765D01*
X119555671Y-100284030D01*
X119577850Y-100294520D01*
X119598893Y-100307132D01*
X119618599Y-100321747D01*
X119636777Y-100338223D01*
X119653253Y-100356401D01*
X119667868Y-100376107D01*
X119680480Y-100397150D01*
X119690970Y-100419329D01*
X119699235Y-100442428D01*
X119705196Y-100466227D01*
X119708796Y-100490495D01*
X119710000Y-100514999D01*
X119710000Y-101415001D01*
X119708796Y-101439505D01*
X119705196Y-101463773D01*
X119699235Y-101487572D01*
X119690970Y-101510671D01*
X119680480Y-101532850D01*
X119667868Y-101553893D01*
X119653253Y-101573599D01*
X119636777Y-101591777D01*
X119618599Y-101608253D01*
X119598893Y-101622868D01*
X119577850Y-101635480D01*
X119555671Y-101645970D01*
X119532572Y-101654235D01*
X119508773Y-101660196D01*
X119484505Y-101663796D01*
X119460001Y-101665000D01*
X118809999Y-101665000D01*
X118785495Y-101663796D01*
X118761227Y-101660196D01*
X118737428Y-101654235D01*
X118714329Y-101645970D01*
X118692150Y-101635480D01*
X118671107Y-101622868D01*
X118651401Y-101608253D01*
X118633223Y-101591777D01*
X118616747Y-101573599D01*
X118602132Y-101553893D01*
X118589520Y-101532850D01*
X118579030Y-101510671D01*
X118570765Y-101487572D01*
X118564804Y-101463773D01*
X118561204Y-101439505D01*
X118560000Y-101415001D01*
X118560000Y-100514999D01*
X118561204Y-100490495D01*
X118564804Y-100466227D01*
X118570765Y-100442428D01*
X118579030Y-100419329D01*
X118589520Y-100397150D01*
X118602132Y-100376107D01*
X118616747Y-100356401D01*
X118633223Y-100338223D01*
X118651401Y-100321747D01*
X118671107Y-100307132D01*
X118692150Y-100294520D01*
X118714329Y-100284030D01*
X118737428Y-100275765D01*
X118761227Y-100269804D01*
X118785495Y-100266204D01*
X118809999Y-100265000D01*
X119460001Y-100265000D01*
X119484505Y-100266204D01*
X119484505Y-100266204D01*
G37*
D12*
X119135000Y-100965000D03*
D11*
G36*
X119484505Y-97091204D02*
G01*
X119508773Y-97094804D01*
X119532572Y-97100765D01*
X119555671Y-97109030D01*
X119577850Y-97119520D01*
X119598893Y-97132132D01*
X119618599Y-97146747D01*
X119636777Y-97163223D01*
X119653253Y-97181401D01*
X119667868Y-97201107D01*
X119680480Y-97222150D01*
X119690970Y-97244329D01*
X119699235Y-97267428D01*
X119705196Y-97291227D01*
X119708796Y-97315495D01*
X119710000Y-97339999D01*
X119710000Y-98240001D01*
X119708796Y-98264505D01*
X119705196Y-98288773D01*
X119699235Y-98312572D01*
X119690970Y-98335671D01*
X119680480Y-98357850D01*
X119667868Y-98378893D01*
X119653253Y-98398599D01*
X119636777Y-98416777D01*
X119618599Y-98433253D01*
X119598893Y-98447868D01*
X119577850Y-98460480D01*
X119555671Y-98470970D01*
X119532572Y-98479235D01*
X119508773Y-98485196D01*
X119484505Y-98488796D01*
X119460001Y-98490000D01*
X118809999Y-98490000D01*
X118785495Y-98488796D01*
X118761227Y-98485196D01*
X118737428Y-98479235D01*
X118714329Y-98470970D01*
X118692150Y-98460480D01*
X118671107Y-98447868D01*
X118651401Y-98433253D01*
X118633223Y-98416777D01*
X118616747Y-98398599D01*
X118602132Y-98378893D01*
X118589520Y-98357850D01*
X118579030Y-98335671D01*
X118570765Y-98312572D01*
X118564804Y-98288773D01*
X118561204Y-98264505D01*
X118560000Y-98240001D01*
X118560000Y-97339999D01*
X118561204Y-97315495D01*
X118564804Y-97291227D01*
X118570765Y-97267428D01*
X118579030Y-97244329D01*
X118589520Y-97222150D01*
X118602132Y-97201107D01*
X118616747Y-97181401D01*
X118633223Y-97163223D01*
X118651401Y-97146747D01*
X118671107Y-97132132D01*
X118692150Y-97119520D01*
X118714329Y-97109030D01*
X118737428Y-97100765D01*
X118761227Y-97094804D01*
X118785495Y-97091204D01*
X118809999Y-97090000D01*
X119460001Y-97090000D01*
X119484505Y-97091204D01*
X119484505Y-97091204D01*
G37*
D12*
X119135000Y-97790000D03*
D11*
G36*
X117434505Y-97091204D02*
G01*
X117458773Y-97094804D01*
X117482572Y-97100765D01*
X117505671Y-97109030D01*
X117527850Y-97119520D01*
X117548893Y-97132132D01*
X117568599Y-97146747D01*
X117586777Y-97163223D01*
X117603253Y-97181401D01*
X117617868Y-97201107D01*
X117630480Y-97222150D01*
X117640970Y-97244329D01*
X117649235Y-97267428D01*
X117655196Y-97291227D01*
X117658796Y-97315495D01*
X117660000Y-97339999D01*
X117660000Y-98240001D01*
X117658796Y-98264505D01*
X117655196Y-98288773D01*
X117649235Y-98312572D01*
X117640970Y-98335671D01*
X117630480Y-98357850D01*
X117617868Y-98378893D01*
X117603253Y-98398599D01*
X117586777Y-98416777D01*
X117568599Y-98433253D01*
X117548893Y-98447868D01*
X117527850Y-98460480D01*
X117505671Y-98470970D01*
X117482572Y-98479235D01*
X117458773Y-98485196D01*
X117434505Y-98488796D01*
X117410001Y-98490000D01*
X116759999Y-98490000D01*
X116735495Y-98488796D01*
X116711227Y-98485196D01*
X116687428Y-98479235D01*
X116664329Y-98470970D01*
X116642150Y-98460480D01*
X116621107Y-98447868D01*
X116601401Y-98433253D01*
X116583223Y-98416777D01*
X116566747Y-98398599D01*
X116552132Y-98378893D01*
X116539520Y-98357850D01*
X116529030Y-98335671D01*
X116520765Y-98312572D01*
X116514804Y-98288773D01*
X116511204Y-98264505D01*
X116510000Y-98240001D01*
X116510000Y-97339999D01*
X116511204Y-97315495D01*
X116514804Y-97291227D01*
X116520765Y-97267428D01*
X116529030Y-97244329D01*
X116539520Y-97222150D01*
X116552132Y-97201107D01*
X116566747Y-97181401D01*
X116583223Y-97163223D01*
X116601401Y-97146747D01*
X116621107Y-97132132D01*
X116642150Y-97119520D01*
X116664329Y-97109030D01*
X116687428Y-97100765D01*
X116711227Y-97094804D01*
X116735495Y-97091204D01*
X116759999Y-97090000D01*
X117410001Y-97090000D01*
X117434505Y-97091204D01*
X117434505Y-97091204D01*
G37*
D12*
X117085000Y-97790000D03*
D11*
G36*
X90644505Y-63951204D02*
G01*
X90668773Y-63954804D01*
X90692572Y-63960765D01*
X90715671Y-63969030D01*
X90737850Y-63979520D01*
X90758893Y-63992132D01*
X90778599Y-64006747D01*
X90796777Y-64023223D01*
X90813253Y-64041401D01*
X90827868Y-64061107D01*
X90840480Y-64082150D01*
X90850970Y-64104329D01*
X90859235Y-64127428D01*
X90865196Y-64151227D01*
X90868796Y-64175495D01*
X90870000Y-64199999D01*
X90870000Y-64850001D01*
X90868796Y-64874505D01*
X90865196Y-64898773D01*
X90859235Y-64922572D01*
X90850970Y-64945671D01*
X90840480Y-64967850D01*
X90827868Y-64988893D01*
X90813253Y-65008599D01*
X90796777Y-65026777D01*
X90778599Y-65043253D01*
X90758893Y-65057868D01*
X90737850Y-65070480D01*
X90715671Y-65080970D01*
X90692572Y-65089235D01*
X90668773Y-65095196D01*
X90644505Y-65098796D01*
X90620001Y-65100000D01*
X89719999Y-65100000D01*
X89695495Y-65098796D01*
X89671227Y-65095196D01*
X89647428Y-65089235D01*
X89624329Y-65080970D01*
X89602150Y-65070480D01*
X89581107Y-65057868D01*
X89561401Y-65043253D01*
X89543223Y-65026777D01*
X89526747Y-65008599D01*
X89512132Y-64988893D01*
X89499520Y-64967850D01*
X89489030Y-64945671D01*
X89480765Y-64922572D01*
X89474804Y-64898773D01*
X89471204Y-64874505D01*
X89470000Y-64850001D01*
X89470000Y-64199999D01*
X89471204Y-64175495D01*
X89474804Y-64151227D01*
X89480765Y-64127428D01*
X89489030Y-64104329D01*
X89499520Y-64082150D01*
X89512132Y-64061107D01*
X89526747Y-64041401D01*
X89543223Y-64023223D01*
X89561401Y-64006747D01*
X89581107Y-63992132D01*
X89602150Y-63979520D01*
X89624329Y-63969030D01*
X89647428Y-63960765D01*
X89671227Y-63954804D01*
X89695495Y-63951204D01*
X89719999Y-63950000D01*
X90620001Y-63950000D01*
X90644505Y-63951204D01*
X90644505Y-63951204D01*
G37*
D12*
X90170000Y-64525000D03*
D11*
G36*
X90644505Y-61901204D02*
G01*
X90668773Y-61904804D01*
X90692572Y-61910765D01*
X90715671Y-61919030D01*
X90737850Y-61929520D01*
X90758893Y-61942132D01*
X90778599Y-61956747D01*
X90796777Y-61973223D01*
X90813253Y-61991401D01*
X90827868Y-62011107D01*
X90840480Y-62032150D01*
X90850970Y-62054329D01*
X90859235Y-62077428D01*
X90865196Y-62101227D01*
X90868796Y-62125495D01*
X90870000Y-62149999D01*
X90870000Y-62800001D01*
X90868796Y-62824505D01*
X90865196Y-62848773D01*
X90859235Y-62872572D01*
X90850970Y-62895671D01*
X90840480Y-62917850D01*
X90827868Y-62938893D01*
X90813253Y-62958599D01*
X90796777Y-62976777D01*
X90778599Y-62993253D01*
X90758893Y-63007868D01*
X90737850Y-63020480D01*
X90715671Y-63030970D01*
X90692572Y-63039235D01*
X90668773Y-63045196D01*
X90644505Y-63048796D01*
X90620001Y-63050000D01*
X89719999Y-63050000D01*
X89695495Y-63048796D01*
X89671227Y-63045196D01*
X89647428Y-63039235D01*
X89624329Y-63030970D01*
X89602150Y-63020480D01*
X89581107Y-63007868D01*
X89561401Y-62993253D01*
X89543223Y-62976777D01*
X89526747Y-62958599D01*
X89512132Y-62938893D01*
X89499520Y-62917850D01*
X89489030Y-62895671D01*
X89480765Y-62872572D01*
X89474804Y-62848773D01*
X89471204Y-62824505D01*
X89470000Y-62800001D01*
X89470000Y-62149999D01*
X89471204Y-62125495D01*
X89474804Y-62101227D01*
X89480765Y-62077428D01*
X89489030Y-62054329D01*
X89499520Y-62032150D01*
X89512132Y-62011107D01*
X89526747Y-61991401D01*
X89543223Y-61973223D01*
X89561401Y-61956747D01*
X89581107Y-61942132D01*
X89602150Y-61929520D01*
X89624329Y-61919030D01*
X89647428Y-61910765D01*
X89671227Y-61904804D01*
X89695495Y-61901204D01*
X89719999Y-61900000D01*
X90620001Y-61900000D01*
X90644505Y-61901204D01*
X90644505Y-61901204D01*
G37*
D12*
X90170000Y-62475000D03*
D11*
G36*
X86834505Y-63951204D02*
G01*
X86858773Y-63954804D01*
X86882572Y-63960765D01*
X86905671Y-63969030D01*
X86927850Y-63979520D01*
X86948893Y-63992132D01*
X86968599Y-64006747D01*
X86986777Y-64023223D01*
X87003253Y-64041401D01*
X87017868Y-64061107D01*
X87030480Y-64082150D01*
X87040970Y-64104329D01*
X87049235Y-64127428D01*
X87055196Y-64151227D01*
X87058796Y-64175495D01*
X87060000Y-64199999D01*
X87060000Y-64850001D01*
X87058796Y-64874505D01*
X87055196Y-64898773D01*
X87049235Y-64922572D01*
X87040970Y-64945671D01*
X87030480Y-64967850D01*
X87017868Y-64988893D01*
X87003253Y-65008599D01*
X86986777Y-65026777D01*
X86968599Y-65043253D01*
X86948893Y-65057868D01*
X86927850Y-65070480D01*
X86905671Y-65080970D01*
X86882572Y-65089235D01*
X86858773Y-65095196D01*
X86834505Y-65098796D01*
X86810001Y-65100000D01*
X85909999Y-65100000D01*
X85885495Y-65098796D01*
X85861227Y-65095196D01*
X85837428Y-65089235D01*
X85814329Y-65080970D01*
X85792150Y-65070480D01*
X85771107Y-65057868D01*
X85751401Y-65043253D01*
X85733223Y-65026777D01*
X85716747Y-65008599D01*
X85702132Y-64988893D01*
X85689520Y-64967850D01*
X85679030Y-64945671D01*
X85670765Y-64922572D01*
X85664804Y-64898773D01*
X85661204Y-64874505D01*
X85660000Y-64850001D01*
X85660000Y-64199999D01*
X85661204Y-64175495D01*
X85664804Y-64151227D01*
X85670765Y-64127428D01*
X85679030Y-64104329D01*
X85689520Y-64082150D01*
X85702132Y-64061107D01*
X85716747Y-64041401D01*
X85733223Y-64023223D01*
X85751401Y-64006747D01*
X85771107Y-63992132D01*
X85792150Y-63979520D01*
X85814329Y-63969030D01*
X85837428Y-63960765D01*
X85861227Y-63954804D01*
X85885495Y-63951204D01*
X85909999Y-63950000D01*
X86810001Y-63950000D01*
X86834505Y-63951204D01*
X86834505Y-63951204D01*
G37*
D12*
X86360000Y-64525000D03*
D11*
G36*
X86834505Y-61901204D02*
G01*
X86858773Y-61904804D01*
X86882572Y-61910765D01*
X86905671Y-61919030D01*
X86927850Y-61929520D01*
X86948893Y-61942132D01*
X86968599Y-61956747D01*
X86986777Y-61973223D01*
X87003253Y-61991401D01*
X87017868Y-62011107D01*
X87030480Y-62032150D01*
X87040970Y-62054329D01*
X87049235Y-62077428D01*
X87055196Y-62101227D01*
X87058796Y-62125495D01*
X87060000Y-62149999D01*
X87060000Y-62800001D01*
X87058796Y-62824505D01*
X87055196Y-62848773D01*
X87049235Y-62872572D01*
X87040970Y-62895671D01*
X87030480Y-62917850D01*
X87017868Y-62938893D01*
X87003253Y-62958599D01*
X86986777Y-62976777D01*
X86968599Y-62993253D01*
X86948893Y-63007868D01*
X86927850Y-63020480D01*
X86905671Y-63030970D01*
X86882572Y-63039235D01*
X86858773Y-63045196D01*
X86834505Y-63048796D01*
X86810001Y-63050000D01*
X85909999Y-63050000D01*
X85885495Y-63048796D01*
X85861227Y-63045196D01*
X85837428Y-63039235D01*
X85814329Y-63030970D01*
X85792150Y-63020480D01*
X85771107Y-63007868D01*
X85751401Y-62993253D01*
X85733223Y-62976777D01*
X85716747Y-62958599D01*
X85702132Y-62938893D01*
X85689520Y-62917850D01*
X85679030Y-62895671D01*
X85670765Y-62872572D01*
X85664804Y-62848773D01*
X85661204Y-62824505D01*
X85660000Y-62800001D01*
X85660000Y-62149999D01*
X85661204Y-62125495D01*
X85664804Y-62101227D01*
X85670765Y-62077428D01*
X85679030Y-62054329D01*
X85689520Y-62032150D01*
X85702132Y-62011107D01*
X85716747Y-61991401D01*
X85733223Y-61973223D01*
X85751401Y-61956747D01*
X85771107Y-61942132D01*
X85792150Y-61929520D01*
X85814329Y-61919030D01*
X85837428Y-61910765D01*
X85861227Y-61904804D01*
X85885495Y-61901204D01*
X85909999Y-61900000D01*
X86810001Y-61900000D01*
X86834505Y-61901204D01*
X86834505Y-61901204D01*
G37*
D12*
X86360000Y-62475000D03*
D11*
G36*
X83024505Y-63951204D02*
G01*
X83048773Y-63954804D01*
X83072572Y-63960765D01*
X83095671Y-63969030D01*
X83117850Y-63979520D01*
X83138893Y-63992132D01*
X83158599Y-64006747D01*
X83176777Y-64023223D01*
X83193253Y-64041401D01*
X83207868Y-64061107D01*
X83220480Y-64082150D01*
X83230970Y-64104329D01*
X83239235Y-64127428D01*
X83245196Y-64151227D01*
X83248796Y-64175495D01*
X83250000Y-64199999D01*
X83250000Y-64850001D01*
X83248796Y-64874505D01*
X83245196Y-64898773D01*
X83239235Y-64922572D01*
X83230970Y-64945671D01*
X83220480Y-64967850D01*
X83207868Y-64988893D01*
X83193253Y-65008599D01*
X83176777Y-65026777D01*
X83158599Y-65043253D01*
X83138893Y-65057868D01*
X83117850Y-65070480D01*
X83095671Y-65080970D01*
X83072572Y-65089235D01*
X83048773Y-65095196D01*
X83024505Y-65098796D01*
X83000001Y-65100000D01*
X82099999Y-65100000D01*
X82075495Y-65098796D01*
X82051227Y-65095196D01*
X82027428Y-65089235D01*
X82004329Y-65080970D01*
X81982150Y-65070480D01*
X81961107Y-65057868D01*
X81941401Y-65043253D01*
X81923223Y-65026777D01*
X81906747Y-65008599D01*
X81892132Y-64988893D01*
X81879520Y-64967850D01*
X81869030Y-64945671D01*
X81860765Y-64922572D01*
X81854804Y-64898773D01*
X81851204Y-64874505D01*
X81850000Y-64850001D01*
X81850000Y-64199999D01*
X81851204Y-64175495D01*
X81854804Y-64151227D01*
X81860765Y-64127428D01*
X81869030Y-64104329D01*
X81879520Y-64082150D01*
X81892132Y-64061107D01*
X81906747Y-64041401D01*
X81923223Y-64023223D01*
X81941401Y-64006747D01*
X81961107Y-63992132D01*
X81982150Y-63979520D01*
X82004329Y-63969030D01*
X82027428Y-63960765D01*
X82051227Y-63954804D01*
X82075495Y-63951204D01*
X82099999Y-63950000D01*
X83000001Y-63950000D01*
X83024505Y-63951204D01*
X83024505Y-63951204D01*
G37*
D12*
X82550000Y-64525000D03*
D11*
G36*
X83024505Y-61901204D02*
G01*
X83048773Y-61904804D01*
X83072572Y-61910765D01*
X83095671Y-61919030D01*
X83117850Y-61929520D01*
X83138893Y-61942132D01*
X83158599Y-61956747D01*
X83176777Y-61973223D01*
X83193253Y-61991401D01*
X83207868Y-62011107D01*
X83220480Y-62032150D01*
X83230970Y-62054329D01*
X83239235Y-62077428D01*
X83245196Y-62101227D01*
X83248796Y-62125495D01*
X83250000Y-62149999D01*
X83250000Y-62800001D01*
X83248796Y-62824505D01*
X83245196Y-62848773D01*
X83239235Y-62872572D01*
X83230970Y-62895671D01*
X83220480Y-62917850D01*
X83207868Y-62938893D01*
X83193253Y-62958599D01*
X83176777Y-62976777D01*
X83158599Y-62993253D01*
X83138893Y-63007868D01*
X83117850Y-63020480D01*
X83095671Y-63030970D01*
X83072572Y-63039235D01*
X83048773Y-63045196D01*
X83024505Y-63048796D01*
X83000001Y-63050000D01*
X82099999Y-63050000D01*
X82075495Y-63048796D01*
X82051227Y-63045196D01*
X82027428Y-63039235D01*
X82004329Y-63030970D01*
X81982150Y-63020480D01*
X81961107Y-63007868D01*
X81941401Y-62993253D01*
X81923223Y-62976777D01*
X81906747Y-62958599D01*
X81892132Y-62938893D01*
X81879520Y-62917850D01*
X81869030Y-62895671D01*
X81860765Y-62872572D01*
X81854804Y-62848773D01*
X81851204Y-62824505D01*
X81850000Y-62800001D01*
X81850000Y-62149999D01*
X81851204Y-62125495D01*
X81854804Y-62101227D01*
X81860765Y-62077428D01*
X81869030Y-62054329D01*
X81879520Y-62032150D01*
X81892132Y-62011107D01*
X81906747Y-61991401D01*
X81923223Y-61973223D01*
X81941401Y-61956747D01*
X81961107Y-61942132D01*
X81982150Y-61929520D01*
X82004329Y-61919030D01*
X82027428Y-61910765D01*
X82051227Y-61904804D01*
X82075495Y-61901204D01*
X82099999Y-61900000D01*
X83000001Y-61900000D01*
X83024505Y-61901204D01*
X83024505Y-61901204D01*
G37*
D12*
X82550000Y-62475000D03*
D11*
G36*
X79214505Y-63951204D02*
G01*
X79238773Y-63954804D01*
X79262572Y-63960765D01*
X79285671Y-63969030D01*
X79307850Y-63979520D01*
X79328893Y-63992132D01*
X79348599Y-64006747D01*
X79366777Y-64023223D01*
X79383253Y-64041401D01*
X79397868Y-64061107D01*
X79410480Y-64082150D01*
X79420970Y-64104329D01*
X79429235Y-64127428D01*
X79435196Y-64151227D01*
X79438796Y-64175495D01*
X79440000Y-64199999D01*
X79440000Y-64850001D01*
X79438796Y-64874505D01*
X79435196Y-64898773D01*
X79429235Y-64922572D01*
X79420970Y-64945671D01*
X79410480Y-64967850D01*
X79397868Y-64988893D01*
X79383253Y-65008599D01*
X79366777Y-65026777D01*
X79348599Y-65043253D01*
X79328893Y-65057868D01*
X79307850Y-65070480D01*
X79285671Y-65080970D01*
X79262572Y-65089235D01*
X79238773Y-65095196D01*
X79214505Y-65098796D01*
X79190001Y-65100000D01*
X78289999Y-65100000D01*
X78265495Y-65098796D01*
X78241227Y-65095196D01*
X78217428Y-65089235D01*
X78194329Y-65080970D01*
X78172150Y-65070480D01*
X78151107Y-65057868D01*
X78131401Y-65043253D01*
X78113223Y-65026777D01*
X78096747Y-65008599D01*
X78082132Y-64988893D01*
X78069520Y-64967850D01*
X78059030Y-64945671D01*
X78050765Y-64922572D01*
X78044804Y-64898773D01*
X78041204Y-64874505D01*
X78040000Y-64850001D01*
X78040000Y-64199999D01*
X78041204Y-64175495D01*
X78044804Y-64151227D01*
X78050765Y-64127428D01*
X78059030Y-64104329D01*
X78069520Y-64082150D01*
X78082132Y-64061107D01*
X78096747Y-64041401D01*
X78113223Y-64023223D01*
X78131401Y-64006747D01*
X78151107Y-63992132D01*
X78172150Y-63979520D01*
X78194329Y-63969030D01*
X78217428Y-63960765D01*
X78241227Y-63954804D01*
X78265495Y-63951204D01*
X78289999Y-63950000D01*
X79190001Y-63950000D01*
X79214505Y-63951204D01*
X79214505Y-63951204D01*
G37*
D12*
X78740000Y-64525000D03*
D11*
G36*
X79214505Y-61901204D02*
G01*
X79238773Y-61904804D01*
X79262572Y-61910765D01*
X79285671Y-61919030D01*
X79307850Y-61929520D01*
X79328893Y-61942132D01*
X79348599Y-61956747D01*
X79366777Y-61973223D01*
X79383253Y-61991401D01*
X79397868Y-62011107D01*
X79410480Y-62032150D01*
X79420970Y-62054329D01*
X79429235Y-62077428D01*
X79435196Y-62101227D01*
X79438796Y-62125495D01*
X79440000Y-62149999D01*
X79440000Y-62800001D01*
X79438796Y-62824505D01*
X79435196Y-62848773D01*
X79429235Y-62872572D01*
X79420970Y-62895671D01*
X79410480Y-62917850D01*
X79397868Y-62938893D01*
X79383253Y-62958599D01*
X79366777Y-62976777D01*
X79348599Y-62993253D01*
X79328893Y-63007868D01*
X79307850Y-63020480D01*
X79285671Y-63030970D01*
X79262572Y-63039235D01*
X79238773Y-63045196D01*
X79214505Y-63048796D01*
X79190001Y-63050000D01*
X78289999Y-63050000D01*
X78265495Y-63048796D01*
X78241227Y-63045196D01*
X78217428Y-63039235D01*
X78194329Y-63030970D01*
X78172150Y-63020480D01*
X78151107Y-63007868D01*
X78131401Y-62993253D01*
X78113223Y-62976777D01*
X78096747Y-62958599D01*
X78082132Y-62938893D01*
X78069520Y-62917850D01*
X78059030Y-62895671D01*
X78050765Y-62872572D01*
X78044804Y-62848773D01*
X78041204Y-62824505D01*
X78040000Y-62800001D01*
X78040000Y-62149999D01*
X78041204Y-62125495D01*
X78044804Y-62101227D01*
X78050765Y-62077428D01*
X78059030Y-62054329D01*
X78069520Y-62032150D01*
X78082132Y-62011107D01*
X78096747Y-61991401D01*
X78113223Y-61973223D01*
X78131401Y-61956747D01*
X78151107Y-61942132D01*
X78172150Y-61929520D01*
X78194329Y-61919030D01*
X78217428Y-61910765D01*
X78241227Y-61904804D01*
X78265495Y-61901204D01*
X78289999Y-61900000D01*
X79190001Y-61900000D01*
X79214505Y-61901204D01*
X79214505Y-61901204D01*
G37*
D12*
X78740000Y-62475000D03*
D11*
G36*
X86834505Y-100781204D02*
G01*
X86858773Y-100784804D01*
X86882572Y-100790765D01*
X86905671Y-100799030D01*
X86927850Y-100809520D01*
X86948893Y-100822132D01*
X86968599Y-100836747D01*
X86986777Y-100853223D01*
X87003253Y-100871401D01*
X87017868Y-100891107D01*
X87030480Y-100912150D01*
X87040970Y-100934329D01*
X87049235Y-100957428D01*
X87055196Y-100981227D01*
X87058796Y-101005495D01*
X87060000Y-101029999D01*
X87060000Y-101680001D01*
X87058796Y-101704505D01*
X87055196Y-101728773D01*
X87049235Y-101752572D01*
X87040970Y-101775671D01*
X87030480Y-101797850D01*
X87017868Y-101818893D01*
X87003253Y-101838599D01*
X86986777Y-101856777D01*
X86968599Y-101873253D01*
X86948893Y-101887868D01*
X86927850Y-101900480D01*
X86905671Y-101910970D01*
X86882572Y-101919235D01*
X86858773Y-101925196D01*
X86834505Y-101928796D01*
X86810001Y-101930000D01*
X85909999Y-101930000D01*
X85885495Y-101928796D01*
X85861227Y-101925196D01*
X85837428Y-101919235D01*
X85814329Y-101910970D01*
X85792150Y-101900480D01*
X85771107Y-101887868D01*
X85751401Y-101873253D01*
X85733223Y-101856777D01*
X85716747Y-101838599D01*
X85702132Y-101818893D01*
X85689520Y-101797850D01*
X85679030Y-101775671D01*
X85670765Y-101752572D01*
X85664804Y-101728773D01*
X85661204Y-101704505D01*
X85660000Y-101680001D01*
X85660000Y-101029999D01*
X85661204Y-101005495D01*
X85664804Y-100981227D01*
X85670765Y-100957428D01*
X85679030Y-100934329D01*
X85689520Y-100912150D01*
X85702132Y-100891107D01*
X85716747Y-100871401D01*
X85733223Y-100853223D01*
X85751401Y-100836747D01*
X85771107Y-100822132D01*
X85792150Y-100809520D01*
X85814329Y-100799030D01*
X85837428Y-100790765D01*
X85861227Y-100784804D01*
X85885495Y-100781204D01*
X85909999Y-100780000D01*
X86810001Y-100780000D01*
X86834505Y-100781204D01*
X86834505Y-100781204D01*
G37*
D12*
X86360000Y-101355000D03*
D11*
G36*
X86834505Y-98731204D02*
G01*
X86858773Y-98734804D01*
X86882572Y-98740765D01*
X86905671Y-98749030D01*
X86927850Y-98759520D01*
X86948893Y-98772132D01*
X86968599Y-98786747D01*
X86986777Y-98803223D01*
X87003253Y-98821401D01*
X87017868Y-98841107D01*
X87030480Y-98862150D01*
X87040970Y-98884329D01*
X87049235Y-98907428D01*
X87055196Y-98931227D01*
X87058796Y-98955495D01*
X87060000Y-98979999D01*
X87060000Y-99630001D01*
X87058796Y-99654505D01*
X87055196Y-99678773D01*
X87049235Y-99702572D01*
X87040970Y-99725671D01*
X87030480Y-99747850D01*
X87017868Y-99768893D01*
X87003253Y-99788599D01*
X86986777Y-99806777D01*
X86968599Y-99823253D01*
X86948893Y-99837868D01*
X86927850Y-99850480D01*
X86905671Y-99860970D01*
X86882572Y-99869235D01*
X86858773Y-99875196D01*
X86834505Y-99878796D01*
X86810001Y-99880000D01*
X85909999Y-99880000D01*
X85885495Y-99878796D01*
X85861227Y-99875196D01*
X85837428Y-99869235D01*
X85814329Y-99860970D01*
X85792150Y-99850480D01*
X85771107Y-99837868D01*
X85751401Y-99823253D01*
X85733223Y-99806777D01*
X85716747Y-99788599D01*
X85702132Y-99768893D01*
X85689520Y-99747850D01*
X85679030Y-99725671D01*
X85670765Y-99702572D01*
X85664804Y-99678773D01*
X85661204Y-99654505D01*
X85660000Y-99630001D01*
X85660000Y-98979999D01*
X85661204Y-98955495D01*
X85664804Y-98931227D01*
X85670765Y-98907428D01*
X85679030Y-98884329D01*
X85689520Y-98862150D01*
X85702132Y-98841107D01*
X85716747Y-98821401D01*
X85733223Y-98803223D01*
X85751401Y-98786747D01*
X85771107Y-98772132D01*
X85792150Y-98759520D01*
X85814329Y-98749030D01*
X85837428Y-98740765D01*
X85861227Y-98734804D01*
X85885495Y-98731204D01*
X85909999Y-98730000D01*
X86810001Y-98730000D01*
X86834505Y-98731204D01*
X86834505Y-98731204D01*
G37*
D12*
X86360000Y-99305000D03*
D11*
G36*
X86834505Y-95701204D02*
G01*
X86858773Y-95704804D01*
X86882572Y-95710765D01*
X86905671Y-95719030D01*
X86927850Y-95729520D01*
X86948893Y-95742132D01*
X86968599Y-95756747D01*
X86986777Y-95773223D01*
X87003253Y-95791401D01*
X87017868Y-95811107D01*
X87030480Y-95832150D01*
X87040970Y-95854329D01*
X87049235Y-95877428D01*
X87055196Y-95901227D01*
X87058796Y-95925495D01*
X87060000Y-95949999D01*
X87060000Y-96600001D01*
X87058796Y-96624505D01*
X87055196Y-96648773D01*
X87049235Y-96672572D01*
X87040970Y-96695671D01*
X87030480Y-96717850D01*
X87017868Y-96738893D01*
X87003253Y-96758599D01*
X86986777Y-96776777D01*
X86968599Y-96793253D01*
X86948893Y-96807868D01*
X86927850Y-96820480D01*
X86905671Y-96830970D01*
X86882572Y-96839235D01*
X86858773Y-96845196D01*
X86834505Y-96848796D01*
X86810001Y-96850000D01*
X85909999Y-96850000D01*
X85885495Y-96848796D01*
X85861227Y-96845196D01*
X85837428Y-96839235D01*
X85814329Y-96830970D01*
X85792150Y-96820480D01*
X85771107Y-96807868D01*
X85751401Y-96793253D01*
X85733223Y-96776777D01*
X85716747Y-96758599D01*
X85702132Y-96738893D01*
X85689520Y-96717850D01*
X85679030Y-96695671D01*
X85670765Y-96672572D01*
X85664804Y-96648773D01*
X85661204Y-96624505D01*
X85660000Y-96600001D01*
X85660000Y-95949999D01*
X85661204Y-95925495D01*
X85664804Y-95901227D01*
X85670765Y-95877428D01*
X85679030Y-95854329D01*
X85689520Y-95832150D01*
X85702132Y-95811107D01*
X85716747Y-95791401D01*
X85733223Y-95773223D01*
X85751401Y-95756747D01*
X85771107Y-95742132D01*
X85792150Y-95729520D01*
X85814329Y-95719030D01*
X85837428Y-95710765D01*
X85861227Y-95704804D01*
X85885495Y-95701204D01*
X85909999Y-95700000D01*
X86810001Y-95700000D01*
X86834505Y-95701204D01*
X86834505Y-95701204D01*
G37*
D12*
X86360000Y-96275000D03*
D11*
G36*
X86834505Y-93651204D02*
G01*
X86858773Y-93654804D01*
X86882572Y-93660765D01*
X86905671Y-93669030D01*
X86927850Y-93679520D01*
X86948893Y-93692132D01*
X86968599Y-93706747D01*
X86986777Y-93723223D01*
X87003253Y-93741401D01*
X87017868Y-93761107D01*
X87030480Y-93782150D01*
X87040970Y-93804329D01*
X87049235Y-93827428D01*
X87055196Y-93851227D01*
X87058796Y-93875495D01*
X87060000Y-93899999D01*
X87060000Y-94550001D01*
X87058796Y-94574505D01*
X87055196Y-94598773D01*
X87049235Y-94622572D01*
X87040970Y-94645671D01*
X87030480Y-94667850D01*
X87017868Y-94688893D01*
X87003253Y-94708599D01*
X86986777Y-94726777D01*
X86968599Y-94743253D01*
X86948893Y-94757868D01*
X86927850Y-94770480D01*
X86905671Y-94780970D01*
X86882572Y-94789235D01*
X86858773Y-94795196D01*
X86834505Y-94798796D01*
X86810001Y-94800000D01*
X85909999Y-94800000D01*
X85885495Y-94798796D01*
X85861227Y-94795196D01*
X85837428Y-94789235D01*
X85814329Y-94780970D01*
X85792150Y-94770480D01*
X85771107Y-94757868D01*
X85751401Y-94743253D01*
X85733223Y-94726777D01*
X85716747Y-94708599D01*
X85702132Y-94688893D01*
X85689520Y-94667850D01*
X85679030Y-94645671D01*
X85670765Y-94622572D01*
X85664804Y-94598773D01*
X85661204Y-94574505D01*
X85660000Y-94550001D01*
X85660000Y-93899999D01*
X85661204Y-93875495D01*
X85664804Y-93851227D01*
X85670765Y-93827428D01*
X85679030Y-93804329D01*
X85689520Y-93782150D01*
X85702132Y-93761107D01*
X85716747Y-93741401D01*
X85733223Y-93723223D01*
X85751401Y-93706747D01*
X85771107Y-93692132D01*
X85792150Y-93679520D01*
X85814329Y-93669030D01*
X85837428Y-93660765D01*
X85861227Y-93654804D01*
X85885495Y-93651204D01*
X85909999Y-93650000D01*
X86810001Y-93650000D01*
X86834505Y-93651204D01*
X86834505Y-93651204D01*
G37*
D12*
X86360000Y-94225000D03*
D11*
G36*
X96624505Y-105981204D02*
G01*
X96648773Y-105984804D01*
X96672572Y-105990765D01*
X96695671Y-105999030D01*
X96717850Y-106009520D01*
X96738893Y-106022132D01*
X96758599Y-106036747D01*
X96776777Y-106053223D01*
X96793253Y-106071401D01*
X96807868Y-106091107D01*
X96820480Y-106112150D01*
X96830970Y-106134329D01*
X96839235Y-106157428D01*
X96845196Y-106181227D01*
X96848796Y-106205495D01*
X96850000Y-106229999D01*
X96850000Y-107130001D01*
X96848796Y-107154505D01*
X96845196Y-107178773D01*
X96839235Y-107202572D01*
X96830970Y-107225671D01*
X96820480Y-107247850D01*
X96807868Y-107268893D01*
X96793253Y-107288599D01*
X96776777Y-107306777D01*
X96758599Y-107323253D01*
X96738893Y-107337868D01*
X96717850Y-107350480D01*
X96695671Y-107360970D01*
X96672572Y-107369235D01*
X96648773Y-107375196D01*
X96624505Y-107378796D01*
X96600001Y-107380000D01*
X95949999Y-107380000D01*
X95925495Y-107378796D01*
X95901227Y-107375196D01*
X95877428Y-107369235D01*
X95854329Y-107360970D01*
X95832150Y-107350480D01*
X95811107Y-107337868D01*
X95791401Y-107323253D01*
X95773223Y-107306777D01*
X95756747Y-107288599D01*
X95742132Y-107268893D01*
X95729520Y-107247850D01*
X95719030Y-107225671D01*
X95710765Y-107202572D01*
X95704804Y-107178773D01*
X95701204Y-107154505D01*
X95700000Y-107130001D01*
X95700000Y-106229999D01*
X95701204Y-106205495D01*
X95704804Y-106181227D01*
X95710765Y-106157428D01*
X95719030Y-106134329D01*
X95729520Y-106112150D01*
X95742132Y-106091107D01*
X95756747Y-106071401D01*
X95773223Y-106053223D01*
X95791401Y-106036747D01*
X95811107Y-106022132D01*
X95832150Y-106009520D01*
X95854329Y-105999030D01*
X95877428Y-105990765D01*
X95901227Y-105984804D01*
X95925495Y-105981204D01*
X95949999Y-105980000D01*
X96600001Y-105980000D01*
X96624505Y-105981204D01*
X96624505Y-105981204D01*
G37*
D12*
X96275000Y-106680000D03*
D11*
G36*
X94574505Y-105981204D02*
G01*
X94598773Y-105984804D01*
X94622572Y-105990765D01*
X94645671Y-105999030D01*
X94667850Y-106009520D01*
X94688893Y-106022132D01*
X94708599Y-106036747D01*
X94726777Y-106053223D01*
X94743253Y-106071401D01*
X94757868Y-106091107D01*
X94770480Y-106112150D01*
X94780970Y-106134329D01*
X94789235Y-106157428D01*
X94795196Y-106181227D01*
X94798796Y-106205495D01*
X94800000Y-106229999D01*
X94800000Y-107130001D01*
X94798796Y-107154505D01*
X94795196Y-107178773D01*
X94789235Y-107202572D01*
X94780970Y-107225671D01*
X94770480Y-107247850D01*
X94757868Y-107268893D01*
X94743253Y-107288599D01*
X94726777Y-107306777D01*
X94708599Y-107323253D01*
X94688893Y-107337868D01*
X94667850Y-107350480D01*
X94645671Y-107360970D01*
X94622572Y-107369235D01*
X94598773Y-107375196D01*
X94574505Y-107378796D01*
X94550001Y-107380000D01*
X93899999Y-107380000D01*
X93875495Y-107378796D01*
X93851227Y-107375196D01*
X93827428Y-107369235D01*
X93804329Y-107360970D01*
X93782150Y-107350480D01*
X93761107Y-107337868D01*
X93741401Y-107323253D01*
X93723223Y-107306777D01*
X93706747Y-107288599D01*
X93692132Y-107268893D01*
X93679520Y-107247850D01*
X93669030Y-107225671D01*
X93660765Y-107202572D01*
X93654804Y-107178773D01*
X93651204Y-107154505D01*
X93650000Y-107130001D01*
X93650000Y-106229999D01*
X93651204Y-106205495D01*
X93654804Y-106181227D01*
X93660765Y-106157428D01*
X93669030Y-106134329D01*
X93679520Y-106112150D01*
X93692132Y-106091107D01*
X93706747Y-106071401D01*
X93723223Y-106053223D01*
X93741401Y-106036747D01*
X93761107Y-106022132D01*
X93782150Y-106009520D01*
X93804329Y-105999030D01*
X93827428Y-105990765D01*
X93851227Y-105984804D01*
X93875495Y-105981204D01*
X93899999Y-105980000D01*
X94550001Y-105980000D01*
X94574505Y-105981204D01*
X94574505Y-105981204D01*
G37*
D12*
X94225000Y-106680000D03*
D11*
G36*
X94574505Y-88201204D02*
G01*
X94598773Y-88204804D01*
X94622572Y-88210765D01*
X94645671Y-88219030D01*
X94667850Y-88229520D01*
X94688893Y-88242132D01*
X94708599Y-88256747D01*
X94726777Y-88273223D01*
X94743253Y-88291401D01*
X94757868Y-88311107D01*
X94770480Y-88332150D01*
X94780970Y-88354329D01*
X94789235Y-88377428D01*
X94795196Y-88401227D01*
X94798796Y-88425495D01*
X94800000Y-88449999D01*
X94800000Y-89350001D01*
X94798796Y-89374505D01*
X94795196Y-89398773D01*
X94789235Y-89422572D01*
X94780970Y-89445671D01*
X94770480Y-89467850D01*
X94757868Y-89488893D01*
X94743253Y-89508599D01*
X94726777Y-89526777D01*
X94708599Y-89543253D01*
X94688893Y-89557868D01*
X94667850Y-89570480D01*
X94645671Y-89580970D01*
X94622572Y-89589235D01*
X94598773Y-89595196D01*
X94574505Y-89598796D01*
X94550001Y-89600000D01*
X93899999Y-89600000D01*
X93875495Y-89598796D01*
X93851227Y-89595196D01*
X93827428Y-89589235D01*
X93804329Y-89580970D01*
X93782150Y-89570480D01*
X93761107Y-89557868D01*
X93741401Y-89543253D01*
X93723223Y-89526777D01*
X93706747Y-89508599D01*
X93692132Y-89488893D01*
X93679520Y-89467850D01*
X93669030Y-89445671D01*
X93660765Y-89422572D01*
X93654804Y-89398773D01*
X93651204Y-89374505D01*
X93650000Y-89350001D01*
X93650000Y-88449999D01*
X93651204Y-88425495D01*
X93654804Y-88401227D01*
X93660765Y-88377428D01*
X93669030Y-88354329D01*
X93679520Y-88332150D01*
X93692132Y-88311107D01*
X93706747Y-88291401D01*
X93723223Y-88273223D01*
X93741401Y-88256747D01*
X93761107Y-88242132D01*
X93782150Y-88229520D01*
X93804329Y-88219030D01*
X93827428Y-88210765D01*
X93851227Y-88204804D01*
X93875495Y-88201204D01*
X93899999Y-88200000D01*
X94550001Y-88200000D01*
X94574505Y-88201204D01*
X94574505Y-88201204D01*
G37*
D12*
X94225000Y-88900000D03*
D11*
G36*
X96624505Y-88201204D02*
G01*
X96648773Y-88204804D01*
X96672572Y-88210765D01*
X96695671Y-88219030D01*
X96717850Y-88229520D01*
X96738893Y-88242132D01*
X96758599Y-88256747D01*
X96776777Y-88273223D01*
X96793253Y-88291401D01*
X96807868Y-88311107D01*
X96820480Y-88332150D01*
X96830970Y-88354329D01*
X96839235Y-88377428D01*
X96845196Y-88401227D01*
X96848796Y-88425495D01*
X96850000Y-88449999D01*
X96850000Y-89350001D01*
X96848796Y-89374505D01*
X96845196Y-89398773D01*
X96839235Y-89422572D01*
X96830970Y-89445671D01*
X96820480Y-89467850D01*
X96807868Y-89488893D01*
X96793253Y-89508599D01*
X96776777Y-89526777D01*
X96758599Y-89543253D01*
X96738893Y-89557868D01*
X96717850Y-89570480D01*
X96695671Y-89580970D01*
X96672572Y-89589235D01*
X96648773Y-89595196D01*
X96624505Y-89598796D01*
X96600001Y-89600000D01*
X95949999Y-89600000D01*
X95925495Y-89598796D01*
X95901227Y-89595196D01*
X95877428Y-89589235D01*
X95854329Y-89580970D01*
X95832150Y-89570480D01*
X95811107Y-89557868D01*
X95791401Y-89543253D01*
X95773223Y-89526777D01*
X95756747Y-89508599D01*
X95742132Y-89488893D01*
X95729520Y-89467850D01*
X95719030Y-89445671D01*
X95710765Y-89422572D01*
X95704804Y-89398773D01*
X95701204Y-89374505D01*
X95700000Y-89350001D01*
X95700000Y-88449999D01*
X95701204Y-88425495D01*
X95704804Y-88401227D01*
X95710765Y-88377428D01*
X95719030Y-88354329D01*
X95729520Y-88332150D01*
X95742132Y-88311107D01*
X95756747Y-88291401D01*
X95773223Y-88273223D01*
X95791401Y-88256747D01*
X95811107Y-88242132D01*
X95832150Y-88229520D01*
X95854329Y-88219030D01*
X95877428Y-88210765D01*
X95901227Y-88204804D01*
X95925495Y-88201204D01*
X95949999Y-88200000D01*
X96600001Y-88200000D01*
X96624505Y-88201204D01*
X96624505Y-88201204D01*
G37*
D12*
X96275000Y-88900000D03*
D11*
G36*
X117434505Y-93916204D02*
G01*
X117458773Y-93919804D01*
X117482572Y-93925765D01*
X117505671Y-93934030D01*
X117527850Y-93944520D01*
X117548893Y-93957132D01*
X117568599Y-93971747D01*
X117586777Y-93988223D01*
X117603253Y-94006401D01*
X117617868Y-94026107D01*
X117630480Y-94047150D01*
X117640970Y-94069329D01*
X117649235Y-94092428D01*
X117655196Y-94116227D01*
X117658796Y-94140495D01*
X117660000Y-94164999D01*
X117660000Y-95065001D01*
X117658796Y-95089505D01*
X117655196Y-95113773D01*
X117649235Y-95137572D01*
X117640970Y-95160671D01*
X117630480Y-95182850D01*
X117617868Y-95203893D01*
X117603253Y-95223599D01*
X117586777Y-95241777D01*
X117568599Y-95258253D01*
X117548893Y-95272868D01*
X117527850Y-95285480D01*
X117505671Y-95295970D01*
X117482572Y-95304235D01*
X117458773Y-95310196D01*
X117434505Y-95313796D01*
X117410001Y-95315000D01*
X116759999Y-95315000D01*
X116735495Y-95313796D01*
X116711227Y-95310196D01*
X116687428Y-95304235D01*
X116664329Y-95295970D01*
X116642150Y-95285480D01*
X116621107Y-95272868D01*
X116601401Y-95258253D01*
X116583223Y-95241777D01*
X116566747Y-95223599D01*
X116552132Y-95203893D01*
X116539520Y-95182850D01*
X116529030Y-95160671D01*
X116520765Y-95137572D01*
X116514804Y-95113773D01*
X116511204Y-95089505D01*
X116510000Y-95065001D01*
X116510000Y-94164999D01*
X116511204Y-94140495D01*
X116514804Y-94116227D01*
X116520765Y-94092428D01*
X116529030Y-94069329D01*
X116539520Y-94047150D01*
X116552132Y-94026107D01*
X116566747Y-94006401D01*
X116583223Y-93988223D01*
X116601401Y-93971747D01*
X116621107Y-93957132D01*
X116642150Y-93944520D01*
X116664329Y-93934030D01*
X116687428Y-93925765D01*
X116711227Y-93919804D01*
X116735495Y-93916204D01*
X116759999Y-93915000D01*
X117410001Y-93915000D01*
X117434505Y-93916204D01*
X117434505Y-93916204D01*
G37*
D12*
X117085000Y-94615000D03*
D11*
G36*
X119484505Y-93916204D02*
G01*
X119508773Y-93919804D01*
X119532572Y-93925765D01*
X119555671Y-93934030D01*
X119577850Y-93944520D01*
X119598893Y-93957132D01*
X119618599Y-93971747D01*
X119636777Y-93988223D01*
X119653253Y-94006401D01*
X119667868Y-94026107D01*
X119680480Y-94047150D01*
X119690970Y-94069329D01*
X119699235Y-94092428D01*
X119705196Y-94116227D01*
X119708796Y-94140495D01*
X119710000Y-94164999D01*
X119710000Y-95065001D01*
X119708796Y-95089505D01*
X119705196Y-95113773D01*
X119699235Y-95137572D01*
X119690970Y-95160671D01*
X119680480Y-95182850D01*
X119667868Y-95203893D01*
X119653253Y-95223599D01*
X119636777Y-95241777D01*
X119618599Y-95258253D01*
X119598893Y-95272868D01*
X119577850Y-95285480D01*
X119555671Y-95295970D01*
X119532572Y-95304235D01*
X119508773Y-95310196D01*
X119484505Y-95313796D01*
X119460001Y-95315000D01*
X118809999Y-95315000D01*
X118785495Y-95313796D01*
X118761227Y-95310196D01*
X118737428Y-95304235D01*
X118714329Y-95295970D01*
X118692150Y-95285480D01*
X118671107Y-95272868D01*
X118651401Y-95258253D01*
X118633223Y-95241777D01*
X118616747Y-95223599D01*
X118602132Y-95203893D01*
X118589520Y-95182850D01*
X118579030Y-95160671D01*
X118570765Y-95137572D01*
X118564804Y-95113773D01*
X118561204Y-95089505D01*
X118560000Y-95065001D01*
X118560000Y-94164999D01*
X118561204Y-94140495D01*
X118564804Y-94116227D01*
X118570765Y-94092428D01*
X118579030Y-94069329D01*
X118589520Y-94047150D01*
X118602132Y-94026107D01*
X118616747Y-94006401D01*
X118633223Y-93988223D01*
X118651401Y-93971747D01*
X118671107Y-93957132D01*
X118692150Y-93944520D01*
X118714329Y-93934030D01*
X118737428Y-93925765D01*
X118761227Y-93919804D01*
X118785495Y-93916204D01*
X118809999Y-93915000D01*
X119460001Y-93915000D01*
X119484505Y-93916204D01*
X119484505Y-93916204D01*
G37*
D12*
X119135000Y-94615000D03*
D11*
G36*
X109959505Y-101536204D02*
G01*
X109983773Y-101539804D01*
X110007572Y-101545765D01*
X110030671Y-101554030D01*
X110052850Y-101564520D01*
X110073893Y-101577132D01*
X110093599Y-101591747D01*
X110111777Y-101608223D01*
X110128253Y-101626401D01*
X110142868Y-101646107D01*
X110155480Y-101667150D01*
X110165970Y-101689329D01*
X110174235Y-101712428D01*
X110180196Y-101736227D01*
X110183796Y-101760495D01*
X110185000Y-101784999D01*
X110185000Y-102685001D01*
X110183796Y-102709505D01*
X110180196Y-102733773D01*
X110174235Y-102757572D01*
X110165970Y-102780671D01*
X110155480Y-102802850D01*
X110142868Y-102823893D01*
X110128253Y-102843599D01*
X110111777Y-102861777D01*
X110093599Y-102878253D01*
X110073893Y-102892868D01*
X110052850Y-102905480D01*
X110030671Y-102915970D01*
X110007572Y-102924235D01*
X109983773Y-102930196D01*
X109959505Y-102933796D01*
X109935001Y-102935000D01*
X109284999Y-102935000D01*
X109260495Y-102933796D01*
X109236227Y-102930196D01*
X109212428Y-102924235D01*
X109189329Y-102915970D01*
X109167150Y-102905480D01*
X109146107Y-102892868D01*
X109126401Y-102878253D01*
X109108223Y-102861777D01*
X109091747Y-102843599D01*
X109077132Y-102823893D01*
X109064520Y-102802850D01*
X109054030Y-102780671D01*
X109045765Y-102757572D01*
X109039804Y-102733773D01*
X109036204Y-102709505D01*
X109035000Y-102685001D01*
X109035000Y-101784999D01*
X109036204Y-101760495D01*
X109039804Y-101736227D01*
X109045765Y-101712428D01*
X109054030Y-101689329D01*
X109064520Y-101667150D01*
X109077132Y-101646107D01*
X109091747Y-101626401D01*
X109108223Y-101608223D01*
X109126401Y-101591747D01*
X109146107Y-101577132D01*
X109167150Y-101564520D01*
X109189329Y-101554030D01*
X109212428Y-101545765D01*
X109236227Y-101539804D01*
X109260495Y-101536204D01*
X109284999Y-101535000D01*
X109935001Y-101535000D01*
X109959505Y-101536204D01*
X109959505Y-101536204D01*
G37*
D12*
X109610000Y-102235000D03*
D11*
G36*
X107909505Y-101536204D02*
G01*
X107933773Y-101539804D01*
X107957572Y-101545765D01*
X107980671Y-101554030D01*
X108002850Y-101564520D01*
X108023893Y-101577132D01*
X108043599Y-101591747D01*
X108061777Y-101608223D01*
X108078253Y-101626401D01*
X108092868Y-101646107D01*
X108105480Y-101667150D01*
X108115970Y-101689329D01*
X108124235Y-101712428D01*
X108130196Y-101736227D01*
X108133796Y-101760495D01*
X108135000Y-101784999D01*
X108135000Y-102685001D01*
X108133796Y-102709505D01*
X108130196Y-102733773D01*
X108124235Y-102757572D01*
X108115970Y-102780671D01*
X108105480Y-102802850D01*
X108092868Y-102823893D01*
X108078253Y-102843599D01*
X108061777Y-102861777D01*
X108043599Y-102878253D01*
X108023893Y-102892868D01*
X108002850Y-102905480D01*
X107980671Y-102915970D01*
X107957572Y-102924235D01*
X107933773Y-102930196D01*
X107909505Y-102933796D01*
X107885001Y-102935000D01*
X107234999Y-102935000D01*
X107210495Y-102933796D01*
X107186227Y-102930196D01*
X107162428Y-102924235D01*
X107139329Y-102915970D01*
X107117150Y-102905480D01*
X107096107Y-102892868D01*
X107076401Y-102878253D01*
X107058223Y-102861777D01*
X107041747Y-102843599D01*
X107027132Y-102823893D01*
X107014520Y-102802850D01*
X107004030Y-102780671D01*
X106995765Y-102757572D01*
X106989804Y-102733773D01*
X106986204Y-102709505D01*
X106985000Y-102685001D01*
X106985000Y-101784999D01*
X106986204Y-101760495D01*
X106989804Y-101736227D01*
X106995765Y-101712428D01*
X107004030Y-101689329D01*
X107014520Y-101667150D01*
X107027132Y-101646107D01*
X107041747Y-101626401D01*
X107058223Y-101608223D01*
X107076401Y-101591747D01*
X107096107Y-101577132D01*
X107117150Y-101564520D01*
X107139329Y-101554030D01*
X107162428Y-101545765D01*
X107186227Y-101539804D01*
X107210495Y-101536204D01*
X107234999Y-101535000D01*
X107885001Y-101535000D01*
X107909505Y-101536204D01*
X107909505Y-101536204D01*
G37*
D12*
X107560000Y-102235000D03*
D11*
G36*
X109959505Y-92646204D02*
G01*
X109983773Y-92649804D01*
X110007572Y-92655765D01*
X110030671Y-92664030D01*
X110052850Y-92674520D01*
X110073893Y-92687132D01*
X110093599Y-92701747D01*
X110111777Y-92718223D01*
X110128253Y-92736401D01*
X110142868Y-92756107D01*
X110155480Y-92777150D01*
X110165970Y-92799329D01*
X110174235Y-92822428D01*
X110180196Y-92846227D01*
X110183796Y-92870495D01*
X110185000Y-92894999D01*
X110185000Y-93795001D01*
X110183796Y-93819505D01*
X110180196Y-93843773D01*
X110174235Y-93867572D01*
X110165970Y-93890671D01*
X110155480Y-93912850D01*
X110142868Y-93933893D01*
X110128253Y-93953599D01*
X110111777Y-93971777D01*
X110093599Y-93988253D01*
X110073893Y-94002868D01*
X110052850Y-94015480D01*
X110030671Y-94025970D01*
X110007572Y-94034235D01*
X109983773Y-94040196D01*
X109959505Y-94043796D01*
X109935001Y-94045000D01*
X109284999Y-94045000D01*
X109260495Y-94043796D01*
X109236227Y-94040196D01*
X109212428Y-94034235D01*
X109189329Y-94025970D01*
X109167150Y-94015480D01*
X109146107Y-94002868D01*
X109126401Y-93988253D01*
X109108223Y-93971777D01*
X109091747Y-93953599D01*
X109077132Y-93933893D01*
X109064520Y-93912850D01*
X109054030Y-93890671D01*
X109045765Y-93867572D01*
X109039804Y-93843773D01*
X109036204Y-93819505D01*
X109035000Y-93795001D01*
X109035000Y-92894999D01*
X109036204Y-92870495D01*
X109039804Y-92846227D01*
X109045765Y-92822428D01*
X109054030Y-92799329D01*
X109064520Y-92777150D01*
X109077132Y-92756107D01*
X109091747Y-92736401D01*
X109108223Y-92718223D01*
X109126401Y-92701747D01*
X109146107Y-92687132D01*
X109167150Y-92674520D01*
X109189329Y-92664030D01*
X109212428Y-92655765D01*
X109236227Y-92649804D01*
X109260495Y-92646204D01*
X109284999Y-92645000D01*
X109935001Y-92645000D01*
X109959505Y-92646204D01*
X109959505Y-92646204D01*
G37*
D12*
X109610000Y-93345000D03*
D11*
G36*
X107909505Y-92646204D02*
G01*
X107933773Y-92649804D01*
X107957572Y-92655765D01*
X107980671Y-92664030D01*
X108002850Y-92674520D01*
X108023893Y-92687132D01*
X108043599Y-92701747D01*
X108061777Y-92718223D01*
X108078253Y-92736401D01*
X108092868Y-92756107D01*
X108105480Y-92777150D01*
X108115970Y-92799329D01*
X108124235Y-92822428D01*
X108130196Y-92846227D01*
X108133796Y-92870495D01*
X108135000Y-92894999D01*
X108135000Y-93795001D01*
X108133796Y-93819505D01*
X108130196Y-93843773D01*
X108124235Y-93867572D01*
X108115970Y-93890671D01*
X108105480Y-93912850D01*
X108092868Y-93933893D01*
X108078253Y-93953599D01*
X108061777Y-93971777D01*
X108043599Y-93988253D01*
X108023893Y-94002868D01*
X108002850Y-94015480D01*
X107980671Y-94025970D01*
X107957572Y-94034235D01*
X107933773Y-94040196D01*
X107909505Y-94043796D01*
X107885001Y-94045000D01*
X107234999Y-94045000D01*
X107210495Y-94043796D01*
X107186227Y-94040196D01*
X107162428Y-94034235D01*
X107139329Y-94025970D01*
X107117150Y-94015480D01*
X107096107Y-94002868D01*
X107076401Y-93988253D01*
X107058223Y-93971777D01*
X107041747Y-93953599D01*
X107027132Y-93933893D01*
X107014520Y-93912850D01*
X107004030Y-93890671D01*
X106995765Y-93867572D01*
X106989804Y-93843773D01*
X106986204Y-93819505D01*
X106985000Y-93795001D01*
X106985000Y-92894999D01*
X106986204Y-92870495D01*
X106989804Y-92846227D01*
X106995765Y-92822428D01*
X107004030Y-92799329D01*
X107014520Y-92777150D01*
X107027132Y-92756107D01*
X107041747Y-92736401D01*
X107058223Y-92718223D01*
X107076401Y-92701747D01*
X107096107Y-92687132D01*
X107117150Y-92674520D01*
X107139329Y-92664030D01*
X107162428Y-92655765D01*
X107186227Y-92649804D01*
X107210495Y-92646204D01*
X107234999Y-92645000D01*
X107885001Y-92645000D01*
X107909505Y-92646204D01*
X107909505Y-92646204D01*
G37*
D12*
X107560000Y-93345000D03*
D19*
X89550000Y-93790000D03*
X89550000Y-94590000D03*
X89550000Y-95390000D03*
X89550000Y-96190000D03*
X89550000Y-96990000D03*
X89550000Y-97790000D03*
X89550000Y-98590000D03*
X89550000Y-99390000D03*
X89550000Y-100190000D03*
X89550000Y-100990000D03*
X89550000Y-101790000D03*
D20*
X91250000Y-103490000D03*
X92050000Y-103490000D03*
X92850000Y-103490000D03*
X93650000Y-103490000D03*
X94450000Y-103490000D03*
X95250000Y-103490000D03*
X96050000Y-103490000D03*
X96850000Y-103490000D03*
X97650000Y-103490000D03*
X98450000Y-103490000D03*
X99250000Y-103490000D03*
D19*
X100950000Y-101790000D03*
X100950000Y-100990000D03*
X100950000Y-100190000D03*
X100950000Y-99390000D03*
X100950000Y-98590000D03*
X100950000Y-97790000D03*
X100950000Y-96990000D03*
X100950000Y-96190000D03*
X100950000Y-95390000D03*
X100950000Y-94590000D03*
X100950000Y-93790000D03*
D20*
X99250000Y-92090000D03*
X98450000Y-92090000D03*
X97650000Y-92090000D03*
X96850000Y-92090000D03*
X96050000Y-92090000D03*
X95250000Y-92090000D03*
X94450000Y-92090000D03*
X93650000Y-92090000D03*
X92850000Y-92090000D03*
X92050000Y-92090000D03*
X91250000Y-92090000D03*
D21*
X99550000Y-63330000D03*
X101450000Y-63330000D03*
X101450000Y-61130000D03*
D22*
X99730000Y-61130000D03*
D23*
X117525000Y-65345000D03*
X111075000Y-65345000D03*
X116750000Y-65345000D03*
X111850000Y-65345000D03*
D24*
X112550000Y-65345000D03*
X116050000Y-65345000D03*
X113050000Y-65345000D03*
X115550000Y-65345000D03*
X113550000Y-65345000D03*
X115050000Y-65345000D03*
X114550000Y-65345000D03*
X114050000Y-65345000D03*
D11*
G36*
X98003505Y-132651204D02*
G01*
X98027773Y-132654804D01*
X98051572Y-132660765D01*
X98074671Y-132669030D01*
X98096850Y-132679520D01*
X98117893Y-132692132D01*
X98137599Y-132706747D01*
X98155777Y-132723223D01*
X98172253Y-132741401D01*
X98186868Y-132761107D01*
X98199480Y-132782150D01*
X98209970Y-132804329D01*
X98218235Y-132827428D01*
X98224196Y-132851227D01*
X98227796Y-132875495D01*
X98229000Y-132899999D01*
X98229000Y-133800001D01*
X98227796Y-133824505D01*
X98224196Y-133848773D01*
X98218235Y-133872572D01*
X98209970Y-133895671D01*
X98199480Y-133917850D01*
X98186868Y-133938893D01*
X98172253Y-133958599D01*
X98155777Y-133976777D01*
X98137599Y-133993253D01*
X98117893Y-134007868D01*
X98096850Y-134020480D01*
X98074671Y-134030970D01*
X98051572Y-134039235D01*
X98027773Y-134045196D01*
X98003505Y-134048796D01*
X97979001Y-134050000D01*
X97328999Y-134050000D01*
X97304495Y-134048796D01*
X97280227Y-134045196D01*
X97256428Y-134039235D01*
X97233329Y-134030970D01*
X97211150Y-134020480D01*
X97190107Y-134007868D01*
X97170401Y-133993253D01*
X97152223Y-133976777D01*
X97135747Y-133958599D01*
X97121132Y-133938893D01*
X97108520Y-133917850D01*
X97098030Y-133895671D01*
X97089765Y-133872572D01*
X97083804Y-133848773D01*
X97080204Y-133824505D01*
X97079000Y-133800001D01*
X97079000Y-132899999D01*
X97080204Y-132875495D01*
X97083804Y-132851227D01*
X97089765Y-132827428D01*
X97098030Y-132804329D01*
X97108520Y-132782150D01*
X97121132Y-132761107D01*
X97135747Y-132741401D01*
X97152223Y-132723223D01*
X97170401Y-132706747D01*
X97190107Y-132692132D01*
X97211150Y-132679520D01*
X97233329Y-132669030D01*
X97256428Y-132660765D01*
X97280227Y-132654804D01*
X97304495Y-132651204D01*
X97328999Y-132650000D01*
X97979001Y-132650000D01*
X98003505Y-132651204D01*
X98003505Y-132651204D01*
G37*
D12*
X97654000Y-133350000D03*
D11*
G36*
X100053505Y-132651204D02*
G01*
X100077773Y-132654804D01*
X100101572Y-132660765D01*
X100124671Y-132669030D01*
X100146850Y-132679520D01*
X100167893Y-132692132D01*
X100187599Y-132706747D01*
X100205777Y-132723223D01*
X100222253Y-132741401D01*
X100236868Y-132761107D01*
X100249480Y-132782150D01*
X100259970Y-132804329D01*
X100268235Y-132827428D01*
X100274196Y-132851227D01*
X100277796Y-132875495D01*
X100279000Y-132899999D01*
X100279000Y-133800001D01*
X100277796Y-133824505D01*
X100274196Y-133848773D01*
X100268235Y-133872572D01*
X100259970Y-133895671D01*
X100249480Y-133917850D01*
X100236868Y-133938893D01*
X100222253Y-133958599D01*
X100205777Y-133976777D01*
X100187599Y-133993253D01*
X100167893Y-134007868D01*
X100146850Y-134020480D01*
X100124671Y-134030970D01*
X100101572Y-134039235D01*
X100077773Y-134045196D01*
X100053505Y-134048796D01*
X100029001Y-134050000D01*
X99378999Y-134050000D01*
X99354495Y-134048796D01*
X99330227Y-134045196D01*
X99306428Y-134039235D01*
X99283329Y-134030970D01*
X99261150Y-134020480D01*
X99240107Y-134007868D01*
X99220401Y-133993253D01*
X99202223Y-133976777D01*
X99185747Y-133958599D01*
X99171132Y-133938893D01*
X99158520Y-133917850D01*
X99148030Y-133895671D01*
X99139765Y-133872572D01*
X99133804Y-133848773D01*
X99130204Y-133824505D01*
X99129000Y-133800001D01*
X99129000Y-132899999D01*
X99130204Y-132875495D01*
X99133804Y-132851227D01*
X99139765Y-132827428D01*
X99148030Y-132804329D01*
X99158520Y-132782150D01*
X99171132Y-132761107D01*
X99185747Y-132741401D01*
X99202223Y-132723223D01*
X99220401Y-132706747D01*
X99240107Y-132692132D01*
X99261150Y-132679520D01*
X99283329Y-132669030D01*
X99306428Y-132660765D01*
X99330227Y-132654804D01*
X99354495Y-132651204D01*
X99378999Y-132650000D01*
X100029001Y-132650000D01*
X100053505Y-132651204D01*
X100053505Y-132651204D01*
G37*
D12*
X99704000Y-133350000D03*
D11*
G36*
X98003505Y-136461204D02*
G01*
X98027773Y-136464804D01*
X98051572Y-136470765D01*
X98074671Y-136479030D01*
X98096850Y-136489520D01*
X98117893Y-136502132D01*
X98137599Y-136516747D01*
X98155777Y-136533223D01*
X98172253Y-136551401D01*
X98186868Y-136571107D01*
X98199480Y-136592150D01*
X98209970Y-136614329D01*
X98218235Y-136637428D01*
X98224196Y-136661227D01*
X98227796Y-136685495D01*
X98229000Y-136709999D01*
X98229000Y-137610001D01*
X98227796Y-137634505D01*
X98224196Y-137658773D01*
X98218235Y-137682572D01*
X98209970Y-137705671D01*
X98199480Y-137727850D01*
X98186868Y-137748893D01*
X98172253Y-137768599D01*
X98155777Y-137786777D01*
X98137599Y-137803253D01*
X98117893Y-137817868D01*
X98096850Y-137830480D01*
X98074671Y-137840970D01*
X98051572Y-137849235D01*
X98027773Y-137855196D01*
X98003505Y-137858796D01*
X97979001Y-137860000D01*
X97328999Y-137860000D01*
X97304495Y-137858796D01*
X97280227Y-137855196D01*
X97256428Y-137849235D01*
X97233329Y-137840970D01*
X97211150Y-137830480D01*
X97190107Y-137817868D01*
X97170401Y-137803253D01*
X97152223Y-137786777D01*
X97135747Y-137768599D01*
X97121132Y-137748893D01*
X97108520Y-137727850D01*
X97098030Y-137705671D01*
X97089765Y-137682572D01*
X97083804Y-137658773D01*
X97080204Y-137634505D01*
X97079000Y-137610001D01*
X97079000Y-136709999D01*
X97080204Y-136685495D01*
X97083804Y-136661227D01*
X97089765Y-136637428D01*
X97098030Y-136614329D01*
X97108520Y-136592150D01*
X97121132Y-136571107D01*
X97135747Y-136551401D01*
X97152223Y-136533223D01*
X97170401Y-136516747D01*
X97190107Y-136502132D01*
X97211150Y-136489520D01*
X97233329Y-136479030D01*
X97256428Y-136470765D01*
X97280227Y-136464804D01*
X97304495Y-136461204D01*
X97328999Y-136460000D01*
X97979001Y-136460000D01*
X98003505Y-136461204D01*
X98003505Y-136461204D01*
G37*
D12*
X97654000Y-137160000D03*
D11*
G36*
X100053505Y-136461204D02*
G01*
X100077773Y-136464804D01*
X100101572Y-136470765D01*
X100124671Y-136479030D01*
X100146850Y-136489520D01*
X100167893Y-136502132D01*
X100187599Y-136516747D01*
X100205777Y-136533223D01*
X100222253Y-136551401D01*
X100236868Y-136571107D01*
X100249480Y-136592150D01*
X100259970Y-136614329D01*
X100268235Y-136637428D01*
X100274196Y-136661227D01*
X100277796Y-136685495D01*
X100279000Y-136709999D01*
X100279000Y-137610001D01*
X100277796Y-137634505D01*
X100274196Y-137658773D01*
X100268235Y-137682572D01*
X100259970Y-137705671D01*
X100249480Y-137727850D01*
X100236868Y-137748893D01*
X100222253Y-137768599D01*
X100205777Y-137786777D01*
X100187599Y-137803253D01*
X100167893Y-137817868D01*
X100146850Y-137830480D01*
X100124671Y-137840970D01*
X100101572Y-137849235D01*
X100077773Y-137855196D01*
X100053505Y-137858796D01*
X100029001Y-137860000D01*
X99378999Y-137860000D01*
X99354495Y-137858796D01*
X99330227Y-137855196D01*
X99306428Y-137849235D01*
X99283329Y-137840970D01*
X99261150Y-137830480D01*
X99240107Y-137817868D01*
X99220401Y-137803253D01*
X99202223Y-137786777D01*
X99185747Y-137768599D01*
X99171132Y-137748893D01*
X99158520Y-137727850D01*
X99148030Y-137705671D01*
X99139765Y-137682572D01*
X99133804Y-137658773D01*
X99130204Y-137634505D01*
X99129000Y-137610001D01*
X99129000Y-136709999D01*
X99130204Y-136685495D01*
X99133804Y-136661227D01*
X99139765Y-136637428D01*
X99148030Y-136614329D01*
X99158520Y-136592150D01*
X99171132Y-136571107D01*
X99185747Y-136551401D01*
X99202223Y-136533223D01*
X99220401Y-136516747D01*
X99240107Y-136502132D01*
X99261150Y-136489520D01*
X99283329Y-136479030D01*
X99306428Y-136470765D01*
X99330227Y-136464804D01*
X99354495Y-136461204D01*
X99378999Y-136460000D01*
X100029001Y-136460000D01*
X100053505Y-136461204D01*
X100053505Y-136461204D01*
G37*
D12*
X99704000Y-137160000D03*
D11*
G36*
X98003505Y-140271204D02*
G01*
X98027773Y-140274804D01*
X98051572Y-140280765D01*
X98074671Y-140289030D01*
X98096850Y-140299520D01*
X98117893Y-140312132D01*
X98137599Y-140326747D01*
X98155777Y-140343223D01*
X98172253Y-140361401D01*
X98186868Y-140381107D01*
X98199480Y-140402150D01*
X98209970Y-140424329D01*
X98218235Y-140447428D01*
X98224196Y-140471227D01*
X98227796Y-140495495D01*
X98229000Y-140519999D01*
X98229000Y-141420001D01*
X98227796Y-141444505D01*
X98224196Y-141468773D01*
X98218235Y-141492572D01*
X98209970Y-141515671D01*
X98199480Y-141537850D01*
X98186868Y-141558893D01*
X98172253Y-141578599D01*
X98155777Y-141596777D01*
X98137599Y-141613253D01*
X98117893Y-141627868D01*
X98096850Y-141640480D01*
X98074671Y-141650970D01*
X98051572Y-141659235D01*
X98027773Y-141665196D01*
X98003505Y-141668796D01*
X97979001Y-141670000D01*
X97328999Y-141670000D01*
X97304495Y-141668796D01*
X97280227Y-141665196D01*
X97256428Y-141659235D01*
X97233329Y-141650970D01*
X97211150Y-141640480D01*
X97190107Y-141627868D01*
X97170401Y-141613253D01*
X97152223Y-141596777D01*
X97135747Y-141578599D01*
X97121132Y-141558893D01*
X97108520Y-141537850D01*
X97098030Y-141515671D01*
X97089765Y-141492572D01*
X97083804Y-141468773D01*
X97080204Y-141444505D01*
X97079000Y-141420001D01*
X97079000Y-140519999D01*
X97080204Y-140495495D01*
X97083804Y-140471227D01*
X97089765Y-140447428D01*
X97098030Y-140424329D01*
X97108520Y-140402150D01*
X97121132Y-140381107D01*
X97135747Y-140361401D01*
X97152223Y-140343223D01*
X97170401Y-140326747D01*
X97190107Y-140312132D01*
X97211150Y-140299520D01*
X97233329Y-140289030D01*
X97256428Y-140280765D01*
X97280227Y-140274804D01*
X97304495Y-140271204D01*
X97328999Y-140270000D01*
X97979001Y-140270000D01*
X98003505Y-140271204D01*
X98003505Y-140271204D01*
G37*
D12*
X97654000Y-140970000D03*
D11*
G36*
X100053505Y-140271204D02*
G01*
X100077773Y-140274804D01*
X100101572Y-140280765D01*
X100124671Y-140289030D01*
X100146850Y-140299520D01*
X100167893Y-140312132D01*
X100187599Y-140326747D01*
X100205777Y-140343223D01*
X100222253Y-140361401D01*
X100236868Y-140381107D01*
X100249480Y-140402150D01*
X100259970Y-140424329D01*
X100268235Y-140447428D01*
X100274196Y-140471227D01*
X100277796Y-140495495D01*
X100279000Y-140519999D01*
X100279000Y-141420001D01*
X100277796Y-141444505D01*
X100274196Y-141468773D01*
X100268235Y-141492572D01*
X100259970Y-141515671D01*
X100249480Y-141537850D01*
X100236868Y-141558893D01*
X100222253Y-141578599D01*
X100205777Y-141596777D01*
X100187599Y-141613253D01*
X100167893Y-141627868D01*
X100146850Y-141640480D01*
X100124671Y-141650970D01*
X100101572Y-141659235D01*
X100077773Y-141665196D01*
X100053505Y-141668796D01*
X100029001Y-141670000D01*
X99378999Y-141670000D01*
X99354495Y-141668796D01*
X99330227Y-141665196D01*
X99306428Y-141659235D01*
X99283329Y-141650970D01*
X99261150Y-141640480D01*
X99240107Y-141627868D01*
X99220401Y-141613253D01*
X99202223Y-141596777D01*
X99185747Y-141578599D01*
X99171132Y-141558893D01*
X99158520Y-141537850D01*
X99148030Y-141515671D01*
X99139765Y-141492572D01*
X99133804Y-141468773D01*
X99130204Y-141444505D01*
X99129000Y-141420001D01*
X99129000Y-140519999D01*
X99130204Y-140495495D01*
X99133804Y-140471227D01*
X99139765Y-140447428D01*
X99148030Y-140424329D01*
X99158520Y-140402150D01*
X99171132Y-140381107D01*
X99185747Y-140361401D01*
X99202223Y-140343223D01*
X99220401Y-140326747D01*
X99240107Y-140312132D01*
X99261150Y-140299520D01*
X99283329Y-140289030D01*
X99306428Y-140280765D01*
X99330227Y-140274804D01*
X99354495Y-140271204D01*
X99378999Y-140270000D01*
X100029001Y-140270000D01*
X100053505Y-140271204D01*
X100053505Y-140271204D01*
G37*
D12*
X99704000Y-140970000D03*
D25*
X135315000Y-123666000D03*
X149165000Y-121126000D03*
X116265000Y-123666000D03*
X130115000Y-121126000D03*
X97215000Y-123666000D03*
X111065000Y-121126000D03*
X78165000Y-123666000D03*
X92015000Y-121126000D03*
X150435000Y-109696000D03*
X136585000Y-112236000D03*
X131385000Y-109696000D03*
X117535000Y-112236000D03*
X112335000Y-109696000D03*
X98485000Y-112236000D03*
X93285000Y-109696000D03*
X79435000Y-112236000D03*
X135315000Y-85566200D03*
X149165000Y-83026200D03*
X116265000Y-85566200D03*
X130115000Y-83026200D03*
X97215000Y-85566200D03*
X111065000Y-83026200D03*
X78165000Y-85566200D03*
X92015000Y-83026200D03*
X150435000Y-71596200D03*
X136585000Y-74136200D03*
X131385000Y-71596200D03*
X117535000Y-74136200D03*
X112335000Y-71596200D03*
X98485000Y-74136200D03*
X93285000Y-71596200D03*
X79435000Y-74136200D03*
M02*
