M48
; DRILL file {KiCad (5.1.2)-2} date 2020/1/16 13:47:13
; FORMAT={-:-/ absolute / inch / decimal}
; #@! TF.CreationDate,2020-01-16T13:47:13+08:00
; #@! TF.GenerationSoftware,Kicad,Pcbnew,(5.1.2)-2
; #@! TF.FileFunction,NonPlated,1,2,NPTH
FMAT,2
INCH
T1C0.0256
T2C0.0670
T3C0.1181
T4C0.1570
%
G90
G05
T1
X4.3862Y-2.4961
X4.6138Y-2.4961
T2
X5.425Y-2.7187
X5.825Y-2.7187
X3.925Y-3.4687
X4.325Y-3.4687
X4.675Y-4.2187
X5.075Y-4.2187
X3.925Y-4.2187
X4.325Y-4.2187
X4.675Y-3.4687
X5.075Y-3.4687
X3.175Y-3.4687
X3.575Y-3.4687
X3.925Y-2.7187
X4.325Y-2.7187
X5.425Y-4.2187
X5.825Y-4.2187
X3.175Y-4.2187
X3.575Y-4.2187
X5.425Y-4.9687
X5.825Y-4.9687
X4.675Y-4.9687
X5.075Y-4.9687
X3.925Y-4.9687
X4.325Y-4.9687
X5.425Y-3.4687
X5.825Y-3.4687
X4.675Y-2.7187
X5.075Y-2.7187
X3.175Y-4.9687
X3.575Y-4.9687
X3.175Y-2.7187
X3.575Y-2.7187
T3
X3.975Y-3.3687
X4.225Y-3.2687
X4.775Y-4.4187
X5.025Y-4.3187
X4.025Y-4.4187
X4.275Y-4.3187
X4.725Y-3.3687
X4.975Y-3.2687
X3.225Y-3.3687
X3.475Y-3.2687
X4.025Y-2.9187
X4.275Y-2.8187
X5.525Y-4.4187
X5.775Y-4.3187
X3.275Y-4.4187
X3.525Y-4.3187
X5.475Y-4.8687
X5.725Y-4.7687
X4.725Y-4.8687
X4.975Y-4.7687
X3.975Y-4.8687
X4.225Y-4.7687
X5.475Y-3.3687
X5.725Y-3.2687
X4.775Y-2.9187
X5.025Y-2.8187
X3.225Y-4.8687
X3.475Y-4.7687
X3.275Y-2.9187
X3.525Y-2.8187
X5.525Y-2.9187
X5.775Y-2.8187
T4
X4.125Y-4.9687
X5.625Y-3.4687
X4.875Y-2.7187
X3.375Y-4.9687
X3.375Y-2.7187
X5.625Y-2.7187
X4.125Y-3.4687
X4.875Y-4.2187
X4.125Y-4.2187
X4.875Y-3.4687
X3.375Y-3.4687
X4.125Y-2.7187
X5.625Y-4.2187
X3.375Y-4.2187
X5.625Y-4.9687
X4.875Y-4.9687
T0
M30
