M48
; DRILL file {KiCad (5.1.2)-2} date 2020/1/16 13:47:13
; FORMAT={-:-/ absolute / inch / decimal}
; #@! TF.CreationDate,2020-01-16T13:47:13+08:00
; #@! TF.GenerationSoftware,Kicad,Pcbnew,(5.1.2)-2
; #@! TF.FileFunction,Plated,1,2,PTH
FMAT,2
INCH
T1C0.0157
T2C0.0236
T3C0.0394
%
G90
G05
T1
X3.437Y-3.8325
X3.4516Y-2.4724
X3.4618Y-4.0075
X3.4719Y-3.9429
X3.5226Y-5.5096
X3.5472Y-2.9999
X3.6213Y-3.6952
X3.6341Y-2.5319
X3.64Y-4.4277
X3.6586Y-3.57
X3.6606Y-4.6602
X3.6617Y-3.6848
X3.6826Y-3.3634
X3.7522Y-5.1546
X3.853Y-3.7156
X3.8598Y-3.2725
X3.8662Y-3.9592
X3.8685Y-2.5383
X3.8749Y-2.4901
X3.8819Y-3.8057
X3.8838Y-3.9003
X3.9031Y-3.5672
X3.9506Y-4.0457
X3.9569Y-3.0979
X4.0325Y-4.0502
X4.0846Y-2.5096
X4.1573Y-5.4456
X4.1587Y-3.6317
X4.2204Y-2.422
X4.794Y-3.1468
T3
X5.5Y-5.4
X5.6Y-5.4
X5.7Y-5.4
X5.8Y-5.4
X5.55Y-2.5
X5.65Y-2.5
X5.75Y-2.5
T2
G00X4.3299Y-2.3406
M15
G01X4.3299Y-2.3642
M16
G05
G00X4.3299Y-2.4953
M15
G01X4.3299Y-2.5386
M16
G05
G00X4.6701Y-2.3406
M15
G01X4.6701Y-2.3642
M16
G05
G00X4.6701Y-2.4953
M15
G01X4.6701Y-2.5386
M16
G05
T0
M30
