M48
; DRILL file {KiCad (5.1.2)-2} date 2020/1/27 星期一 11:03:49
; FORMAT={-:-/ absolute / metric / decimal}
; #@! TF.CreationDate,2020-01-27T11:03:49+08:00
; #@! TF.GenerationSoftware,Kicad,Pcbnew,(5.1.2)-2
; #@! TF.FileFunction,Plated,1,2,PTH
FMAT,2
METRIC
T1C0.400
T2C0.600
T3C1.000
%
G90
G05
T1
X85.174Y-100.122
X88.265Y-62.873
X90.908Y-96.19
X91.459Y-97.062
X92.349Y-94.124
X92.909Y-97.79
X92.952Y-62.873
X92.952Y-89.948
X93.588Y-98.933
X93.607Y-90.734
X93.7Y-118.566
X94.632Y-98.64
X95.223Y-90.727
X95.955Y-87.444
X96.934Y-109.497
X96.959Y-97.823
X96.997Y-95.39
X97.97Y-98.11
X98.101Y-99.111
X98.21Y-83.243
X98.419Y-63.34
X98.855Y-97.58
X99.115Y-142.55
X100.168Y-102.715
X101.727Y-102.731
X104.008Y-78.879
X108.024Y-63.717
X110.804Y-103.061
X112.394Y-68.087
X116.273Y-90.286
X116.645Y-145.276
X116.889Y-109.018
T3
X140.97Y-63.5
X143.51Y-63.5
X146.05Y-63.5
X80.518Y-133.604
X80.518Y-136.144
X80.518Y-138.684
X80.518Y-141.224
X90.17Y-135.636
X92.71Y-135.636
X95.25Y-135.636
X97.79Y-135.636
T2
G00X109.98Y-59.45
M15
G01X109.98Y-60.05
M16
G05
G00X109.98Y-63.38
M15
G01X109.98Y-64.48
M16
G05
G00X118.62Y-59.45
M15
G01X118.62Y-60.05
M16
G05
G00X118.62Y-63.38
M15
G01X118.62Y-64.48
M16
G05
T0
M30
