%TF.GenerationSoftware,KiCad,Pcbnew,(5.1.2)-2*%
%TF.CreationDate,2020-03-24T23:19:36+08:00*%
%TF.ProjectId,wingxx-receiver-v4,77696e67-7878-42d7-9265-636569766572,rev?*%
%TF.SameCoordinates,Original*%
%TF.FileFunction,Legend,Bot*%
%TF.FilePolarity,Positive*%
%FSLAX46Y46*%
G04 Gerber Fmt 4.6, Leading zero omitted, Abs format (unit mm)*
G04 Created by KiCad (PCBNEW (5.1.2)-2) date 2020-03-24 23:19:36*
%MOMM*%
%LPD*%
G04 APERTURE LIST*
%ADD10C,0.300000*%
%ADD11C,0.200000*%
%ADD12C,0.120000*%
%ADD13C,0.150000*%
%ADD14C,0.100000*%
%ADD15C,0.254000*%
%ADD16C,0.152400*%
G04 APERTURE END LIST*
D10*
X102396285Y-146728571D02*
X102396285Y-145228571D01*
X102396285Y-146657142D02*
X102539142Y-146728571D01*
X102824857Y-146728571D01*
X102967714Y-146657142D01*
X103039142Y-146585714D01*
X103110571Y-146442857D01*
X103110571Y-146014285D01*
X103039142Y-145871428D01*
X102967714Y-145800000D01*
X102824857Y-145728571D01*
X102539142Y-145728571D01*
X102396285Y-145800000D01*
X101110571Y-146657142D02*
X101253428Y-146728571D01*
X101539142Y-146728571D01*
X101682000Y-146657142D01*
X101753428Y-146514285D01*
X101753428Y-145942857D01*
X101682000Y-145800000D01*
X101539142Y-145728571D01*
X101253428Y-145728571D01*
X101110571Y-145800000D01*
X101039142Y-145942857D01*
X101039142Y-146085714D01*
X101753428Y-146228571D01*
X100467714Y-146657142D02*
X100324857Y-146728571D01*
X100039142Y-146728571D01*
X99896285Y-146657142D01*
X99824857Y-146514285D01*
X99824857Y-146442857D01*
X99896285Y-146300000D01*
X100039142Y-146228571D01*
X100253428Y-146228571D01*
X100396285Y-146157142D01*
X100467714Y-146014285D01*
X100467714Y-145942857D01*
X100396285Y-145800000D01*
X100253428Y-145728571D01*
X100039142Y-145728571D01*
X99896285Y-145800000D01*
X99182000Y-146728571D02*
X99182000Y-145728571D01*
X99182000Y-145228571D02*
X99253428Y-145300000D01*
X99182000Y-145371428D01*
X99110571Y-145300000D01*
X99182000Y-145228571D01*
X99182000Y-145371428D01*
X97824857Y-145728571D02*
X97824857Y-146942857D01*
X97896285Y-147085714D01*
X97967714Y-147157142D01*
X98110571Y-147228571D01*
X98324857Y-147228571D01*
X98467714Y-147157142D01*
X97824857Y-146657142D02*
X97967714Y-146728571D01*
X98253428Y-146728571D01*
X98396285Y-146657142D01*
X98467714Y-146585714D01*
X98539142Y-146442857D01*
X98539142Y-146014285D01*
X98467714Y-145871428D01*
X98396285Y-145800000D01*
X98253428Y-145728571D01*
X97967714Y-145728571D01*
X97824857Y-145800000D01*
X97110571Y-145728571D02*
X97110571Y-146728571D01*
X97110571Y-145871428D02*
X97039142Y-145800000D01*
X96896285Y-145728571D01*
X96682000Y-145728571D01*
X96539142Y-145800000D01*
X96467714Y-145942857D01*
X96467714Y-146728571D01*
X95182000Y-146657142D02*
X95324857Y-146728571D01*
X95610571Y-146728571D01*
X95753428Y-146657142D01*
X95824857Y-146514285D01*
X95824857Y-145942857D01*
X95753428Y-145800000D01*
X95610571Y-145728571D01*
X95324857Y-145728571D01*
X95182000Y-145800000D01*
X95110571Y-145942857D01*
X95110571Y-146085714D01*
X95824857Y-146228571D01*
X93824857Y-146728571D02*
X93824857Y-145228571D01*
X93824857Y-146657142D02*
X93967714Y-146728571D01*
X94253428Y-146728571D01*
X94396285Y-146657142D01*
X94467714Y-146585714D01*
X94539142Y-146442857D01*
X94539142Y-146014285D01*
X94467714Y-145871428D01*
X94396285Y-145800000D01*
X94253428Y-145728571D01*
X93967714Y-145728571D01*
X93824857Y-145800000D01*
X91967714Y-146728571D02*
X91967714Y-145228571D01*
X91967714Y-145800000D02*
X91824857Y-145728571D01*
X91539142Y-145728571D01*
X91396285Y-145800000D01*
X91324857Y-145871428D01*
X91253428Y-146014285D01*
X91253428Y-146442857D01*
X91324857Y-146585714D01*
X91396285Y-146657142D01*
X91539142Y-146728571D01*
X91824857Y-146728571D01*
X91967714Y-146657142D01*
X90753428Y-145728571D02*
X90396285Y-146728571D01*
X90039142Y-145728571D02*
X90396285Y-146728571D01*
X90539142Y-147085714D01*
X90610571Y-147157142D01*
X90753428Y-147228571D01*
X87824857Y-145942857D02*
X88324857Y-145942857D01*
X88324857Y-146728571D02*
X88324857Y-145228571D01*
X87610571Y-145228571D01*
X86253428Y-146728571D02*
X87110571Y-146728571D01*
X86682000Y-146728571D02*
X86682000Y-145228571D01*
X86824857Y-145442857D01*
X86967714Y-145585714D01*
X87110571Y-145657142D01*
X84967714Y-145728571D02*
X84967714Y-146728571D01*
X85324857Y-145157142D02*
X85682000Y-146228571D01*
X84753428Y-146228571D01*
X83610571Y-146657142D02*
X83753428Y-146728571D01*
X84039142Y-146728571D01*
X84182000Y-146657142D01*
X84253428Y-146514285D01*
X84253428Y-145942857D01*
X84182000Y-145800000D01*
X84039142Y-145728571D01*
X83753428Y-145728571D01*
X83610571Y-145800000D01*
X83539142Y-145942857D01*
X83539142Y-146085714D01*
X84253428Y-146228571D01*
X82253428Y-146728571D02*
X82253428Y-145942857D01*
X82324857Y-145800000D01*
X82467714Y-145728571D01*
X82753428Y-145728571D01*
X82896285Y-145800000D01*
X82253428Y-146657142D02*
X82396285Y-146728571D01*
X82753428Y-146728571D01*
X82896285Y-146657142D01*
X82967714Y-146514285D01*
X82967714Y-146371428D01*
X82896285Y-146228571D01*
X82753428Y-146157142D01*
X82396285Y-146157142D01*
X82253428Y-146085714D01*
X80896285Y-145728571D02*
X80896285Y-146942857D01*
X80967714Y-147085714D01*
X81039142Y-147157142D01*
X81182000Y-147228571D01*
X81396285Y-147228571D01*
X81539142Y-147157142D01*
X80896285Y-146657142D02*
X81039142Y-146728571D01*
X81324857Y-146728571D01*
X81467714Y-146657142D01*
X81539142Y-146585714D01*
X81610571Y-146442857D01*
X81610571Y-146014285D01*
X81539142Y-145871428D01*
X81467714Y-145800000D01*
X81324857Y-145728571D01*
X81039142Y-145728571D01*
X80896285Y-145800000D01*
X79967714Y-146728571D02*
X80110571Y-146657142D01*
X80182000Y-146514285D01*
X80182000Y-145228571D01*
X78824857Y-146657142D02*
X78967714Y-146728571D01*
X79253428Y-146728571D01*
X79396285Y-146657142D01*
X79467714Y-146514285D01*
X79467714Y-145942857D01*
X79396285Y-145800000D01*
X79253428Y-145728571D01*
X78967714Y-145728571D01*
X78824857Y-145800000D01*
X78753428Y-145942857D01*
X78753428Y-146085714D01*
X79467714Y-146228571D01*
D11*
X128977000Y-60825200D02*
X128077000Y-60825200D01*
X127727000Y-63775200D02*
X127727000Y-60875200D01*
X126527000Y-63775200D02*
X127727000Y-63775200D01*
X126527000Y-60875200D02*
X126527000Y-63775200D01*
X127727000Y-60875200D02*
X126527000Y-60875200D01*
D12*
X134009748Y-63298000D02*
X134532252Y-63298000D01*
X134009748Y-64718000D02*
X134532252Y-64718000D01*
X134009748Y-60377000D02*
X134532252Y-60377000D01*
X134009748Y-61797000D02*
X134532252Y-61797000D01*
D13*
X140302000Y-117106000D02*
X145702000Y-117106000D01*
X145702000Y-118606000D02*
X140302000Y-118606000D01*
X140302000Y-118606000D02*
X140302000Y-117106000D01*
X145702000Y-118606000D02*
X145702000Y-117106000D01*
X143502000Y-118356000D02*
X143502000Y-117356000D01*
X143502000Y-117356000D02*
X142602000Y-117856000D01*
X142602000Y-117856000D02*
X143502000Y-118356000D01*
X142502000Y-118356000D02*
X142502000Y-117356000D01*
X120998000Y-117106000D02*
X126398000Y-117106000D01*
X126398000Y-118606000D02*
X120998000Y-118606000D01*
X120998000Y-118606000D02*
X120998000Y-117106000D01*
X126398000Y-118606000D02*
X126398000Y-117106000D01*
X124198000Y-118356000D02*
X124198000Y-117356000D01*
X124198000Y-117356000D02*
X123298000Y-117856000D01*
X123298000Y-117856000D02*
X124198000Y-118356000D01*
X123198000Y-118356000D02*
X123198000Y-117356000D01*
X102202000Y-117106000D02*
X107602000Y-117106000D01*
X107602000Y-118606000D02*
X102202000Y-118606000D01*
X102202000Y-118606000D02*
X102202000Y-117106000D01*
X107602000Y-118606000D02*
X107602000Y-117106000D01*
X105402000Y-118356000D02*
X105402000Y-117356000D01*
X105402000Y-117356000D02*
X104502000Y-117856000D01*
X104502000Y-117856000D02*
X105402000Y-118356000D01*
X104402000Y-118356000D02*
X104402000Y-117356000D01*
X82898000Y-117106000D02*
X88298000Y-117106000D01*
X88298000Y-118606000D02*
X82898000Y-118606000D01*
X82898000Y-118606000D02*
X82898000Y-117106000D01*
X88298000Y-118606000D02*
X88298000Y-117106000D01*
X86098000Y-118356000D02*
X86098000Y-117356000D01*
X86098000Y-117356000D02*
X85198000Y-117856000D01*
X85198000Y-117856000D02*
X86098000Y-118356000D01*
X85098000Y-118356000D02*
X85098000Y-117356000D01*
X140302000Y-114820000D02*
X145702000Y-114820000D01*
X145702000Y-116320000D02*
X140302000Y-116320000D01*
X140302000Y-116320000D02*
X140302000Y-114820000D01*
X145702000Y-116320000D02*
X145702000Y-114820000D01*
X143502000Y-116070000D02*
X143502000Y-115070000D01*
X143502000Y-115070000D02*
X142602000Y-115570000D01*
X142602000Y-115570000D02*
X143502000Y-116070000D01*
X142502000Y-116070000D02*
X142502000Y-115070000D01*
X120998000Y-114820000D02*
X126398000Y-114820000D01*
X126398000Y-116320000D02*
X120998000Y-116320000D01*
X120998000Y-116320000D02*
X120998000Y-114820000D01*
X126398000Y-116320000D02*
X126398000Y-114820000D01*
X124198000Y-116070000D02*
X124198000Y-115070000D01*
X124198000Y-115070000D02*
X123298000Y-115570000D01*
X123298000Y-115570000D02*
X124198000Y-116070000D01*
X123198000Y-116070000D02*
X123198000Y-115070000D01*
X102202000Y-114820000D02*
X107602000Y-114820000D01*
X107602000Y-116320000D02*
X102202000Y-116320000D01*
X102202000Y-116320000D02*
X102202000Y-114820000D01*
X107602000Y-116320000D02*
X107602000Y-114820000D01*
X105402000Y-116070000D02*
X105402000Y-115070000D01*
X105402000Y-115070000D02*
X104502000Y-115570000D01*
X104502000Y-115570000D02*
X105402000Y-116070000D01*
X104402000Y-116070000D02*
X104402000Y-115070000D01*
X82898000Y-114820000D02*
X88298000Y-114820000D01*
X88298000Y-116320000D02*
X82898000Y-116320000D01*
X82898000Y-116320000D02*
X82898000Y-114820000D01*
X88298000Y-116320000D02*
X88298000Y-114820000D01*
X86098000Y-116070000D02*
X86098000Y-115070000D01*
X86098000Y-115070000D02*
X85198000Y-115570000D01*
X85198000Y-115570000D02*
X86098000Y-116070000D01*
X85098000Y-116070000D02*
X85098000Y-115070000D01*
X140302000Y-79006000D02*
X145702000Y-79006000D01*
X145702000Y-80506000D02*
X140302000Y-80506000D01*
X140302000Y-80506000D02*
X140302000Y-79006000D01*
X145702000Y-80506000D02*
X145702000Y-79006000D01*
X143502000Y-80256000D02*
X143502000Y-79256000D01*
X143502000Y-79256000D02*
X142602000Y-79756000D01*
X142602000Y-79756000D02*
X143502000Y-80256000D01*
X142502000Y-80256000D02*
X142502000Y-79256000D01*
X121252000Y-79006000D02*
X126652000Y-79006000D01*
X126652000Y-80506000D02*
X121252000Y-80506000D01*
X121252000Y-80506000D02*
X121252000Y-79006000D01*
X126652000Y-80506000D02*
X126652000Y-79006000D01*
X124452000Y-80256000D02*
X124452000Y-79256000D01*
X124452000Y-79256000D02*
X123552000Y-79756000D01*
X123552000Y-79756000D02*
X124452000Y-80256000D01*
X123452000Y-80256000D02*
X123452000Y-79256000D01*
X101948000Y-79006000D02*
X107348000Y-79006000D01*
X107348000Y-80506000D02*
X101948000Y-80506000D01*
X101948000Y-80506000D02*
X101948000Y-79006000D01*
X107348000Y-80506000D02*
X107348000Y-79006000D01*
X105148000Y-80256000D02*
X105148000Y-79256000D01*
X105148000Y-79256000D02*
X104248000Y-79756000D01*
X104248000Y-79756000D02*
X105148000Y-80256000D01*
X104148000Y-80256000D02*
X104148000Y-79256000D01*
X83152000Y-79006000D02*
X88552000Y-79006000D01*
X88552000Y-80506000D02*
X83152000Y-80506000D01*
X83152000Y-80506000D02*
X83152000Y-79006000D01*
X88552000Y-80506000D02*
X88552000Y-79006000D01*
X86352000Y-80256000D02*
X86352000Y-79256000D01*
X86352000Y-79256000D02*
X85452000Y-79756000D01*
X85452000Y-79756000D02*
X86352000Y-80256000D01*
X85352000Y-80256000D02*
X85352000Y-79256000D01*
X140302000Y-76720000D02*
X145702000Y-76720000D01*
X145702000Y-78220000D02*
X140302000Y-78220000D01*
X140302000Y-78220000D02*
X140302000Y-76720000D01*
X145702000Y-78220000D02*
X145702000Y-76720000D01*
X143502000Y-77970000D02*
X143502000Y-76970000D01*
X143502000Y-76970000D02*
X142602000Y-77470000D01*
X142602000Y-77470000D02*
X143502000Y-77970000D01*
X142502000Y-77970000D02*
X142502000Y-76970000D01*
X121252000Y-76720000D02*
X126652000Y-76720000D01*
X126652000Y-78220000D02*
X121252000Y-78220000D01*
X121252000Y-78220000D02*
X121252000Y-76720000D01*
X126652000Y-78220000D02*
X126652000Y-76720000D01*
X124452000Y-77970000D02*
X124452000Y-76970000D01*
X124452000Y-76970000D02*
X123552000Y-77470000D01*
X123552000Y-77470000D02*
X124452000Y-77970000D01*
X123452000Y-77970000D02*
X123452000Y-76970000D01*
X101948000Y-76720000D02*
X107348000Y-76720000D01*
X107348000Y-78220000D02*
X101948000Y-78220000D01*
X101948000Y-78220000D02*
X101948000Y-76720000D01*
X107348000Y-78220000D02*
X107348000Y-76720000D01*
X105148000Y-77970000D02*
X105148000Y-76970000D01*
X105148000Y-76970000D02*
X104248000Y-77470000D01*
X104248000Y-77470000D02*
X105148000Y-77970000D01*
X104148000Y-77970000D02*
X104148000Y-76970000D01*
X83152000Y-76720000D02*
X88552000Y-76720000D01*
X88552000Y-78220000D02*
X83152000Y-78220000D01*
X83152000Y-78220000D02*
X83152000Y-76720000D01*
X88552000Y-78220000D02*
X88552000Y-76720000D01*
X86352000Y-77970000D02*
X86352000Y-76970000D01*
X86352000Y-76970000D02*
X85452000Y-77470000D01*
X85452000Y-77470000D02*
X86352000Y-77970000D01*
X85352000Y-77970000D02*
X85352000Y-76970000D01*
D14*
X128397000Y-129032000D02*
X128397000Y-146558000D01*
X134112000Y-146558000D02*
X105410000Y-146558000D01*
X134112000Y-129032000D02*
X134112000Y-146558000D01*
X105410000Y-129032000D02*
X134112000Y-129032000D01*
X105410000Y-146558000D02*
X105410000Y-129032000D01*
D12*
X92190000Y-76890000D02*
X92190000Y-80590000D01*
X98310000Y-76890000D02*
X92190000Y-76890000D01*
X98310000Y-80590000D02*
X98310000Y-76890000D01*
X92190000Y-80590000D02*
X98310000Y-80590000D01*
X106335000Y-100490000D02*
X106335000Y-95090000D01*
X110835000Y-100490000D02*
X106335000Y-100490000D01*
X106320000Y-61627936D02*
X106320000Y-62832064D01*
X104500000Y-61627936D02*
X104500000Y-62832064D01*
X118371252Y-101675000D02*
X117848748Y-101675000D01*
X118371252Y-100255000D02*
X117848748Y-100255000D01*
X117848748Y-97080000D02*
X118371252Y-97080000D01*
X117848748Y-98500000D02*
X118371252Y-98500000D01*
X90880000Y-63238748D02*
X90880000Y-63761252D01*
X89460000Y-63238748D02*
X89460000Y-63761252D01*
X87070000Y-63238748D02*
X87070000Y-63761252D01*
X85650000Y-63238748D02*
X85650000Y-63761252D01*
X83260000Y-63238748D02*
X83260000Y-63761252D01*
X81840000Y-63238748D02*
X81840000Y-63761252D01*
X79450000Y-63238748D02*
X79450000Y-63761252D01*
X78030000Y-63238748D02*
X78030000Y-63761252D01*
X87070000Y-100068748D02*
X87070000Y-100591252D01*
X85650000Y-100068748D02*
X85650000Y-100591252D01*
X87070000Y-94988748D02*
X87070000Y-95511252D01*
X85650000Y-94988748D02*
X85650000Y-95511252D01*
X94988748Y-105970000D02*
X95511252Y-105970000D01*
X94988748Y-107390000D02*
X95511252Y-107390000D01*
X95511252Y-89610000D02*
X94988748Y-89610000D01*
X95511252Y-88190000D02*
X94988748Y-88190000D01*
X118371252Y-95325000D02*
X117848748Y-95325000D01*
X118371252Y-93905000D02*
X117848748Y-93905000D01*
X108323748Y-101525000D02*
X108846252Y-101525000D01*
X108323748Y-102945000D02*
X108846252Y-102945000D01*
X108323748Y-92635000D02*
X108846252Y-92635000D01*
X108323748Y-94055000D02*
X108846252Y-94055000D01*
D13*
X90650000Y-92615000D02*
X90650000Y-91340000D01*
X90075000Y-102965000D02*
X90075000Y-102290000D01*
X100425000Y-102965000D02*
X100425000Y-102290000D01*
X100425000Y-92615000D02*
X100425000Y-93290000D01*
X90075000Y-92615000D02*
X90075000Y-93290000D01*
X100425000Y-92615000D02*
X99750000Y-92615000D01*
X100425000Y-102965000D02*
X99750000Y-102965000D01*
X90075000Y-102965000D02*
X90750000Y-102965000D01*
X90075000Y-92615000D02*
X90650000Y-92615000D01*
D12*
X98950000Y-63430000D02*
X98950000Y-60480000D01*
X102050000Y-61030000D02*
X102050000Y-63430000D01*
X98940252Y-134060000D02*
X98417748Y-134060000D01*
X98940252Y-132640000D02*
X98417748Y-132640000D01*
X98940252Y-137870000D02*
X98417748Y-137870000D01*
X98940252Y-136450000D02*
X98417748Y-136450000D01*
X98940252Y-141680000D02*
X98417748Y-141680000D01*
X98940252Y-140260000D02*
X98417748Y-140260000D01*
D13*
X149875000Y-119206000D02*
X149875000Y-120206000D01*
X148875000Y-119206000D02*
X149875000Y-119206000D01*
X149875000Y-133206000D02*
X148875000Y-133206000D01*
X149875000Y-132206000D02*
X149875000Y-133206000D01*
X135875000Y-133206000D02*
X135875000Y-132206000D01*
X136875000Y-133206000D02*
X135875000Y-133206000D01*
X135875000Y-119206000D02*
X136875000Y-119206000D01*
X135875000Y-120206000D02*
X135875000Y-119206000D01*
X130825000Y-119206000D02*
X130825000Y-120206000D01*
X129825000Y-119206000D02*
X130825000Y-119206000D01*
X130825000Y-133206000D02*
X129825000Y-133206000D01*
X130825000Y-132206000D02*
X130825000Y-133206000D01*
X116825000Y-133206000D02*
X116825000Y-132206000D01*
X117825000Y-133206000D02*
X116825000Y-133206000D01*
X116825000Y-119206000D02*
X117825000Y-119206000D01*
X116825000Y-120206000D02*
X116825000Y-119206000D01*
X111775000Y-119206000D02*
X111775000Y-120206000D01*
X110775000Y-119206000D02*
X111775000Y-119206000D01*
X111775000Y-133206000D02*
X110775000Y-133206000D01*
X111775000Y-132206000D02*
X111775000Y-133206000D01*
X97775000Y-133206000D02*
X97775000Y-132206000D01*
X98775000Y-133206000D02*
X97775000Y-133206000D01*
X97775000Y-119206000D02*
X98775000Y-119206000D01*
X97775000Y-120206000D02*
X97775000Y-119206000D01*
X92725000Y-119206000D02*
X92725000Y-120206000D01*
X91725000Y-119206000D02*
X92725000Y-119206000D01*
X92725000Y-133206000D02*
X91725000Y-133206000D01*
X92725000Y-132206000D02*
X92725000Y-133206000D01*
X78725000Y-133206000D02*
X78725000Y-132206000D01*
X79725000Y-133206000D02*
X78725000Y-133206000D01*
X78725000Y-119206000D02*
X79725000Y-119206000D01*
X78725000Y-120206000D02*
X78725000Y-119206000D01*
X135875000Y-114156000D02*
X135875000Y-113156000D01*
X136875000Y-114156000D02*
X135875000Y-114156000D01*
X135875000Y-100156000D02*
X136875000Y-100156000D01*
X135875000Y-101156000D02*
X135875000Y-100156000D01*
X149875000Y-100156000D02*
X149875000Y-101156000D01*
X148875000Y-100156000D02*
X149875000Y-100156000D01*
X149875000Y-114156000D02*
X148875000Y-114156000D01*
X149875000Y-113156000D02*
X149875000Y-114156000D01*
X116825000Y-114156000D02*
X116825000Y-113156000D01*
X117825000Y-114156000D02*
X116825000Y-114156000D01*
X116825000Y-100156000D02*
X117825000Y-100156000D01*
X116825000Y-101156000D02*
X116825000Y-100156000D01*
X130825000Y-100156000D02*
X130825000Y-101156000D01*
X129825000Y-100156000D02*
X130825000Y-100156000D01*
X130825000Y-114156000D02*
X129825000Y-114156000D01*
X130825000Y-113156000D02*
X130825000Y-114156000D01*
X97775000Y-114156000D02*
X97775000Y-113156000D01*
X98775000Y-114156000D02*
X97775000Y-114156000D01*
X97775000Y-100156000D02*
X98775000Y-100156000D01*
X97775000Y-101156000D02*
X97775000Y-100156000D01*
X111775000Y-100156000D02*
X111775000Y-101156000D01*
X110775000Y-100156000D02*
X111775000Y-100156000D01*
X111775000Y-114156000D02*
X110775000Y-114156000D01*
X111775000Y-113156000D02*
X111775000Y-114156000D01*
X78725000Y-114156000D02*
X78725000Y-113156000D01*
X79725000Y-114156000D02*
X78725000Y-114156000D01*
X78725000Y-100156000D02*
X79725000Y-100156000D01*
X78725000Y-101156000D02*
X78725000Y-100156000D01*
X92725000Y-100156000D02*
X92725000Y-101156000D01*
X91725000Y-100156000D02*
X92725000Y-100156000D01*
X92725000Y-114156000D02*
X91725000Y-114156000D01*
X92725000Y-113156000D02*
X92725000Y-114156000D01*
X149875000Y-81106200D02*
X149875000Y-82106200D01*
X148875000Y-81106200D02*
X149875000Y-81106200D01*
X149875000Y-95106200D02*
X148875000Y-95106200D01*
X149875000Y-94106200D02*
X149875000Y-95106200D01*
X135875000Y-95106200D02*
X135875000Y-94106200D01*
X136875000Y-95106200D02*
X135875000Y-95106200D01*
X135875000Y-81106200D02*
X136875000Y-81106200D01*
X135875000Y-82106200D02*
X135875000Y-81106200D01*
X130825000Y-81106200D02*
X130825000Y-82106200D01*
X129825000Y-81106200D02*
X130825000Y-81106200D01*
X130825000Y-95106200D02*
X129825000Y-95106200D01*
X130825000Y-94106200D02*
X130825000Y-95106200D01*
X116825000Y-95106200D02*
X116825000Y-94106200D01*
X117825000Y-95106200D02*
X116825000Y-95106200D01*
X116825000Y-81106200D02*
X117825000Y-81106200D01*
X116825000Y-82106200D02*
X116825000Y-81106200D01*
X111775000Y-81106200D02*
X111775000Y-82106200D01*
X110775000Y-81106200D02*
X111775000Y-81106200D01*
X111775000Y-95106200D02*
X110775000Y-95106200D01*
X111775000Y-94106200D02*
X111775000Y-95106200D01*
X97775000Y-95106200D02*
X97775000Y-94106200D01*
X98775000Y-95106200D02*
X97775000Y-95106200D01*
X97775000Y-81106200D02*
X98775000Y-81106200D01*
X97775000Y-82106200D02*
X97775000Y-81106200D01*
X92725000Y-81106200D02*
X92725000Y-82106200D01*
X91725000Y-81106200D02*
X92725000Y-81106200D01*
X92725000Y-95106200D02*
X91725000Y-95106200D01*
X92725000Y-94106200D02*
X92725000Y-95106200D01*
X78725000Y-95106200D02*
X78725000Y-94106200D01*
X79725000Y-95106200D02*
X78725000Y-95106200D01*
X78725000Y-81106200D02*
X79725000Y-81106200D01*
X78725000Y-82106200D02*
X78725000Y-81106200D01*
X135875000Y-76056200D02*
X135875000Y-75056200D01*
X136875000Y-76056200D02*
X135875000Y-76056200D01*
X135875000Y-62056200D02*
X136875000Y-62056200D01*
X135875000Y-63056200D02*
X135875000Y-62056200D01*
X149875000Y-62056200D02*
X149875000Y-63056200D01*
X148875000Y-62056200D02*
X149875000Y-62056200D01*
X149875000Y-76056200D02*
X148875000Y-76056200D01*
X149875000Y-75056200D02*
X149875000Y-76056200D01*
X116825000Y-76056200D02*
X116825000Y-75056200D01*
X117825000Y-76056200D02*
X116825000Y-76056200D01*
X116825000Y-62056200D02*
X117825000Y-62056200D01*
X116825000Y-63056200D02*
X116825000Y-62056200D01*
X130825000Y-62056200D02*
X130825000Y-63056200D01*
X129825000Y-62056200D02*
X130825000Y-62056200D01*
X130825000Y-76056200D02*
X129825000Y-76056200D01*
X130825000Y-75056200D02*
X130825000Y-76056200D01*
X97775000Y-76056200D02*
X97775000Y-75056200D01*
X98775000Y-76056200D02*
X97775000Y-76056200D01*
X97775000Y-62056200D02*
X98775000Y-62056200D01*
X97775000Y-63056200D02*
X97775000Y-62056200D01*
X111775000Y-62056200D02*
X111775000Y-63056200D01*
X110775000Y-62056200D02*
X111775000Y-62056200D01*
X111775000Y-76056200D02*
X110775000Y-76056200D01*
X111775000Y-75056200D02*
X111775000Y-76056200D01*
X78725000Y-76056200D02*
X78725000Y-75056200D01*
X79725000Y-76056200D02*
X78725000Y-76056200D01*
X78725000Y-62056200D02*
X79725000Y-62056200D01*
X78725000Y-63056200D02*
X78725000Y-62056200D01*
X92725000Y-62056200D02*
X92725000Y-63056200D01*
X91725000Y-62056200D02*
X92725000Y-62056200D01*
X92725000Y-76056200D02*
X91725000Y-76056200D01*
X92725000Y-75056200D02*
X92725000Y-76056200D01*
D15*
X128366761Y-62899723D02*
X128366761Y-61629723D01*
X127036285Y-62778771D02*
X127096761Y-62839247D01*
X127278190Y-62899723D01*
X127399142Y-62899723D01*
X127580571Y-62839247D01*
X127701523Y-62718295D01*
X127762000Y-62597342D01*
X127822476Y-62355438D01*
X127822476Y-62174009D01*
X127762000Y-61932104D01*
X127701523Y-61811152D01*
X127580571Y-61690200D01*
X127399142Y-61629723D01*
X127278190Y-61629723D01*
X127096761Y-61690200D01*
X127036285Y-61750676D01*
X126552476Y-61750676D02*
X126492000Y-61690200D01*
X126371047Y-61629723D01*
X126068666Y-61629723D01*
X125947714Y-61690200D01*
X125887238Y-61750676D01*
X125826761Y-61871628D01*
X125826761Y-61992580D01*
X125887238Y-62174009D01*
X126612952Y-62899723D01*
X125826761Y-62899723D01*
D13*
X134913857Y-66015142D02*
X134961476Y-66062761D01*
X135104333Y-66110380D01*
X135199571Y-66110380D01*
X135342428Y-66062761D01*
X135437666Y-65967523D01*
X135485285Y-65872285D01*
X135532904Y-65681809D01*
X135532904Y-65538952D01*
X135485285Y-65348476D01*
X135437666Y-65253238D01*
X135342428Y-65158000D01*
X135199571Y-65110380D01*
X135104333Y-65110380D01*
X134961476Y-65158000D01*
X134913857Y-65205619D01*
X133961476Y-66110380D02*
X134532904Y-66110380D01*
X134247190Y-66110380D02*
X134247190Y-65110380D01*
X134342428Y-65253238D01*
X134437666Y-65348476D01*
X134532904Y-65396095D01*
X133580523Y-65205619D02*
X133532904Y-65158000D01*
X133437666Y-65110380D01*
X133199571Y-65110380D01*
X133104333Y-65158000D01*
X133056714Y-65205619D01*
X133009095Y-65300857D01*
X133009095Y-65396095D01*
X133056714Y-65538952D01*
X133628142Y-66110380D01*
X133009095Y-66110380D01*
X134913857Y-63094142D02*
X134961476Y-63141761D01*
X135104333Y-63189380D01*
X135199571Y-63189380D01*
X135342428Y-63141761D01*
X135437666Y-63046523D01*
X135485285Y-62951285D01*
X135532904Y-62760809D01*
X135532904Y-62617952D01*
X135485285Y-62427476D01*
X135437666Y-62332238D01*
X135342428Y-62237000D01*
X135199571Y-62189380D01*
X135104333Y-62189380D01*
X134961476Y-62237000D01*
X134913857Y-62284619D01*
X133961476Y-63189380D02*
X134532904Y-63189380D01*
X134247190Y-63189380D02*
X134247190Y-62189380D01*
X134342428Y-62332238D01*
X134437666Y-62427476D01*
X134532904Y-62475095D01*
X133009095Y-63189380D02*
X133580523Y-63189380D01*
X133294809Y-63189380D02*
X133294809Y-62189380D01*
X133390047Y-62332238D01*
X133485285Y-62427476D01*
X133580523Y-62475095D01*
D16*
X116121542Y-135948057D02*
X117408476Y-135948057D01*
X116305390Y-135948057D02*
X116213466Y-136039980D01*
X116121542Y-136223828D01*
X116121542Y-136499600D01*
X116213466Y-136683447D01*
X116397314Y-136775371D01*
X117408476Y-136775371D01*
X117408476Y-137694609D02*
X116121542Y-137694609D01*
X116489238Y-137694609D02*
X116305390Y-137786533D01*
X116213466Y-137878457D01*
X116121542Y-138062304D01*
X116121542Y-138246152D01*
X116121542Y-138613847D02*
X116121542Y-139349238D01*
X117408476Y-138889619D02*
X115753847Y-138889619D01*
X115570000Y-138981542D01*
X115478076Y-139165390D01*
X115478076Y-139349238D01*
X117408476Y-141003866D02*
X117408476Y-139900780D01*
X117408476Y-140452323D02*
X115478076Y-140452323D01*
X115753847Y-140268476D01*
X115937695Y-140084628D01*
X116029619Y-139900780D01*
X122036114Y-128364342D02*
X122036114Y-129007809D01*
X123047276Y-129283580D02*
X123047276Y-128364342D01*
X121116876Y-128364342D01*
X121116876Y-129283580D01*
X121116876Y-129927047D02*
X121116876Y-131213980D01*
X123047276Y-130386666D01*
X121116876Y-131765523D02*
X121116876Y-132960533D01*
X121852266Y-132317066D01*
X121852266Y-132592838D01*
X121944190Y-132776685D01*
X122036114Y-132868609D01*
X122219961Y-132960533D01*
X122679580Y-132960533D01*
X122863428Y-132868609D01*
X122955352Y-132776685D01*
X123047276Y-132592838D01*
X123047276Y-132041295D01*
X122955352Y-131857447D01*
X122863428Y-131765523D01*
X122311885Y-133787847D02*
X122311885Y-135258628D01*
X121760342Y-136177866D02*
X123047276Y-136177866D01*
X121944190Y-136177866D02*
X121852266Y-136269790D01*
X121760342Y-136453638D01*
X121760342Y-136729409D01*
X121852266Y-136913257D01*
X122036114Y-137005180D01*
X123047276Y-137005180D01*
X123047276Y-137924419D02*
X121760342Y-137924419D01*
X122128038Y-137924419D02*
X121944190Y-138016342D01*
X121852266Y-138108266D01*
X121760342Y-138292114D01*
X121760342Y-138475961D01*
X121760342Y-138843657D02*
X121760342Y-139579047D01*
X123047276Y-139119428D02*
X121392647Y-139119428D01*
X121208800Y-139211352D01*
X121116876Y-139395200D01*
X121116876Y-139579047D01*
X121116876Y-141141752D02*
X121116876Y-140222514D01*
X122036114Y-140130590D01*
X121944190Y-140222514D01*
X121852266Y-140406361D01*
X121852266Y-140865980D01*
X121944190Y-141049828D01*
X122036114Y-141141752D01*
X122219961Y-141233676D01*
X122679580Y-141233676D01*
X122863428Y-141141752D01*
X122955352Y-141049828D01*
X123047276Y-140865980D01*
X123047276Y-140406361D01*
X122955352Y-140222514D01*
X122863428Y-140130590D01*
X123047276Y-143072152D02*
X123047276Y-141969066D01*
X123047276Y-142520609D02*
X121116876Y-142520609D01*
X121392647Y-142336761D01*
X121576495Y-142152914D01*
X121668419Y-141969066D01*
X121944190Y-144175238D02*
X121852266Y-143991390D01*
X121760342Y-143899466D01*
X121576495Y-143807542D01*
X121484571Y-143807542D01*
X121300723Y-143899466D01*
X121208800Y-143991390D01*
X121116876Y-144175238D01*
X121116876Y-144542933D01*
X121208800Y-144726780D01*
X121300723Y-144818704D01*
X121484571Y-144910628D01*
X121576495Y-144910628D01*
X121760342Y-144818704D01*
X121852266Y-144726780D01*
X121944190Y-144542933D01*
X121944190Y-144175238D01*
X122036114Y-143991390D01*
X122128038Y-143899466D01*
X122311885Y-143807542D01*
X122679580Y-143807542D01*
X122863428Y-143899466D01*
X122955352Y-143991390D01*
X123047276Y-144175238D01*
X123047276Y-144542933D01*
X122955352Y-144726780D01*
X122863428Y-144818704D01*
X122679580Y-144910628D01*
X122311885Y-144910628D01*
X122128038Y-144818704D01*
X122036114Y-144726780D01*
X121944190Y-144542933D01*
X121300723Y-145646019D02*
X121208800Y-145737942D01*
X121116876Y-145921790D01*
X121116876Y-146381409D01*
X121208800Y-146565257D01*
X121300723Y-146657180D01*
X121484571Y-146749104D01*
X121668419Y-146749104D01*
X121944190Y-146657180D01*
X123047276Y-145554095D01*
X123047276Y-146749104D01*
X121300723Y-147484495D02*
X121208800Y-147576419D01*
X121116876Y-147760266D01*
X121116876Y-148219885D01*
X121208800Y-148403733D01*
X121300723Y-148495657D01*
X121484571Y-148587580D01*
X121668419Y-148587580D01*
X121944190Y-148495657D01*
X123047276Y-147392571D01*
X123047276Y-148587580D01*
D13*
X97178571Y-81792380D02*
X97511904Y-81316190D01*
X97750000Y-81792380D02*
X97750000Y-80792380D01*
X97369047Y-80792380D01*
X97273809Y-80840000D01*
X97226190Y-80887619D01*
X97178571Y-80982857D01*
X97178571Y-81125714D01*
X97226190Y-81220952D01*
X97273809Y-81268571D01*
X97369047Y-81316190D01*
X97750000Y-81316190D01*
X96750000Y-81268571D02*
X96416666Y-81268571D01*
X96273809Y-81792380D02*
X96750000Y-81792380D01*
X96750000Y-80792380D01*
X96273809Y-80792380D01*
X95892857Y-81744761D02*
X95750000Y-81792380D01*
X95511904Y-81792380D01*
X95416666Y-81744761D01*
X95369047Y-81697142D01*
X95321428Y-81601904D01*
X95321428Y-81506666D01*
X95369047Y-81411428D01*
X95416666Y-81363809D01*
X95511904Y-81316190D01*
X95702380Y-81268571D01*
X95797619Y-81220952D01*
X95845238Y-81173333D01*
X95892857Y-81078095D01*
X95892857Y-80982857D01*
X95845238Y-80887619D01*
X95797619Y-80840000D01*
X95702380Y-80792380D01*
X95464285Y-80792380D01*
X95321428Y-80840000D01*
X94892857Y-81268571D02*
X94559523Y-81268571D01*
X94416666Y-81792380D02*
X94892857Y-81792380D01*
X94892857Y-80792380D01*
X94416666Y-80792380D01*
X94130952Y-80792380D02*
X93559523Y-80792380D01*
X93845238Y-81792380D02*
X93845238Y-80792380D01*
X92702380Y-81792380D02*
X93273809Y-81792380D01*
X92988095Y-81792380D02*
X92988095Y-80792380D01*
X93083333Y-80935238D01*
X93178571Y-81030476D01*
X93273809Y-81078095D01*
X111087380Y-96980476D02*
X112087380Y-97647142D01*
X111087380Y-97647142D02*
X112087380Y-96980476D01*
X112087380Y-98551904D02*
X112087380Y-97980476D01*
X112087380Y-98266190D02*
X111087380Y-98266190D01*
X111230238Y-98170952D01*
X111325476Y-98075714D01*
X111373095Y-97980476D01*
X103518571Y-61896666D02*
X103518571Y-61563333D01*
X104042380Y-61563333D02*
X103042380Y-61563333D01*
X103042380Y-62039523D01*
X104042380Y-62944285D02*
X104042380Y-62372857D01*
X104042380Y-62658571D02*
X103042380Y-62658571D01*
X103185238Y-62563333D01*
X103280476Y-62468095D01*
X103328095Y-62372857D01*
X118276666Y-99767380D02*
X118610000Y-99291190D01*
X118848095Y-99767380D02*
X118848095Y-98767380D01*
X118467142Y-98767380D01*
X118371904Y-98815000D01*
X118324285Y-98862619D01*
X118276666Y-98957857D01*
X118276666Y-99100714D01*
X118324285Y-99195952D01*
X118371904Y-99243571D01*
X118467142Y-99291190D01*
X118848095Y-99291190D01*
X117419523Y-98767380D02*
X117610000Y-98767380D01*
X117705238Y-98815000D01*
X117752857Y-98862619D01*
X117848095Y-99005476D01*
X117895714Y-99195952D01*
X117895714Y-99576904D01*
X117848095Y-99672142D01*
X117800476Y-99719761D01*
X117705238Y-99767380D01*
X117514761Y-99767380D01*
X117419523Y-99719761D01*
X117371904Y-99672142D01*
X117324285Y-99576904D01*
X117324285Y-99338809D01*
X117371904Y-99243571D01*
X117419523Y-99195952D01*
X117514761Y-99148333D01*
X117705238Y-99148333D01*
X117800476Y-99195952D01*
X117848095Y-99243571D01*
X117895714Y-99338809D01*
X118276666Y-99892380D02*
X118610000Y-99416190D01*
X118848095Y-99892380D02*
X118848095Y-98892380D01*
X118467142Y-98892380D01*
X118371904Y-98940000D01*
X118324285Y-98987619D01*
X118276666Y-99082857D01*
X118276666Y-99225714D01*
X118324285Y-99320952D01*
X118371904Y-99368571D01*
X118467142Y-99416190D01*
X118848095Y-99416190D01*
X117371904Y-98892380D02*
X117848095Y-98892380D01*
X117895714Y-99368571D01*
X117848095Y-99320952D01*
X117752857Y-99273333D01*
X117514761Y-99273333D01*
X117419523Y-99320952D01*
X117371904Y-99368571D01*
X117324285Y-99463809D01*
X117324285Y-99701904D01*
X117371904Y-99797142D01*
X117419523Y-99844761D01*
X117514761Y-99892380D01*
X117752857Y-99892380D01*
X117848095Y-99844761D01*
X117895714Y-99797142D01*
X88972380Y-63333333D02*
X88496190Y-63000000D01*
X88972380Y-62761904D02*
X87972380Y-62761904D01*
X87972380Y-63142857D01*
X88020000Y-63238095D01*
X88067619Y-63285714D01*
X88162857Y-63333333D01*
X88305714Y-63333333D01*
X88400952Y-63285714D01*
X88448571Y-63238095D01*
X88496190Y-63142857D01*
X88496190Y-62761904D01*
X88305714Y-64190476D02*
X88972380Y-64190476D01*
X87924761Y-63952380D02*
X88639047Y-63714285D01*
X88639047Y-64333333D01*
X85162380Y-63333333D02*
X84686190Y-63000000D01*
X85162380Y-62761904D02*
X84162380Y-62761904D01*
X84162380Y-63142857D01*
X84210000Y-63238095D01*
X84257619Y-63285714D01*
X84352857Y-63333333D01*
X84495714Y-63333333D01*
X84590952Y-63285714D01*
X84638571Y-63238095D01*
X84686190Y-63142857D01*
X84686190Y-62761904D01*
X84162380Y-63666666D02*
X84162380Y-64285714D01*
X84543333Y-63952380D01*
X84543333Y-64095238D01*
X84590952Y-64190476D01*
X84638571Y-64238095D01*
X84733809Y-64285714D01*
X84971904Y-64285714D01*
X85067142Y-64238095D01*
X85114761Y-64190476D01*
X85162380Y-64095238D01*
X85162380Y-63809523D01*
X85114761Y-63714285D01*
X85067142Y-63666666D01*
X81352380Y-63333333D02*
X80876190Y-63000000D01*
X81352380Y-62761904D02*
X80352380Y-62761904D01*
X80352380Y-63142857D01*
X80400000Y-63238095D01*
X80447619Y-63285714D01*
X80542857Y-63333333D01*
X80685714Y-63333333D01*
X80780952Y-63285714D01*
X80828571Y-63238095D01*
X80876190Y-63142857D01*
X80876190Y-62761904D01*
X80447619Y-63714285D02*
X80400000Y-63761904D01*
X80352380Y-63857142D01*
X80352380Y-64095238D01*
X80400000Y-64190476D01*
X80447619Y-64238095D01*
X80542857Y-64285714D01*
X80638095Y-64285714D01*
X80780952Y-64238095D01*
X81352380Y-63666666D01*
X81352380Y-64285714D01*
X77542380Y-63333333D02*
X77066190Y-63000000D01*
X77542380Y-62761904D02*
X76542380Y-62761904D01*
X76542380Y-63142857D01*
X76590000Y-63238095D01*
X76637619Y-63285714D01*
X76732857Y-63333333D01*
X76875714Y-63333333D01*
X76970952Y-63285714D01*
X77018571Y-63238095D01*
X77066190Y-63142857D01*
X77066190Y-62761904D01*
X77542380Y-64285714D02*
X77542380Y-63714285D01*
X77542380Y-64000000D02*
X76542380Y-64000000D01*
X76685238Y-63904761D01*
X76780476Y-63809523D01*
X76828095Y-63714285D01*
X85067142Y-100163333D02*
X85114761Y-100115714D01*
X85162380Y-99972857D01*
X85162380Y-99877619D01*
X85114761Y-99734761D01*
X85019523Y-99639523D01*
X84924285Y-99591904D01*
X84733809Y-99544285D01*
X84590952Y-99544285D01*
X84400476Y-99591904D01*
X84305238Y-99639523D01*
X84210000Y-99734761D01*
X84162380Y-99877619D01*
X84162380Y-99972857D01*
X84210000Y-100115714D01*
X84257619Y-100163333D01*
X84162380Y-100496666D02*
X84162380Y-101163333D01*
X85162380Y-100734761D01*
X85067142Y-95083333D02*
X85114761Y-95035714D01*
X85162380Y-94892857D01*
X85162380Y-94797619D01*
X85114761Y-94654761D01*
X85019523Y-94559523D01*
X84924285Y-94511904D01*
X84733809Y-94464285D01*
X84590952Y-94464285D01*
X84400476Y-94511904D01*
X84305238Y-94559523D01*
X84210000Y-94654761D01*
X84162380Y-94797619D01*
X84162380Y-94892857D01*
X84210000Y-95035714D01*
X84257619Y-95083333D01*
X84162380Y-95940476D02*
X84162380Y-95750000D01*
X84210000Y-95654761D01*
X84257619Y-95607142D01*
X84400476Y-95511904D01*
X84590952Y-95464285D01*
X84971904Y-95464285D01*
X85067142Y-95511904D01*
X85114761Y-95559523D01*
X85162380Y-95654761D01*
X85162380Y-95845238D01*
X85114761Y-95940476D01*
X85067142Y-95988095D01*
X84971904Y-96035714D01*
X84733809Y-96035714D01*
X84638571Y-95988095D01*
X84590952Y-95940476D01*
X84543333Y-95845238D01*
X84543333Y-95654761D01*
X84590952Y-95559523D01*
X84638571Y-95511904D01*
X84733809Y-95464285D01*
X95416666Y-108687142D02*
X95464285Y-108734761D01*
X95607142Y-108782380D01*
X95702380Y-108782380D01*
X95845238Y-108734761D01*
X95940476Y-108639523D01*
X95988095Y-108544285D01*
X96035714Y-108353809D01*
X96035714Y-108210952D01*
X95988095Y-108020476D01*
X95940476Y-107925238D01*
X95845238Y-107830000D01*
X95702380Y-107782380D01*
X95607142Y-107782380D01*
X95464285Y-107830000D01*
X95416666Y-107877619D01*
X94511904Y-107782380D02*
X94988095Y-107782380D01*
X95035714Y-108258571D01*
X94988095Y-108210952D01*
X94892857Y-108163333D01*
X94654761Y-108163333D01*
X94559523Y-108210952D01*
X94511904Y-108258571D01*
X94464285Y-108353809D01*
X94464285Y-108591904D01*
X94511904Y-108687142D01*
X94559523Y-108734761D01*
X94654761Y-108782380D01*
X94892857Y-108782380D01*
X94988095Y-108734761D01*
X95035714Y-108687142D01*
X95416666Y-87607142D02*
X95464285Y-87654761D01*
X95607142Y-87702380D01*
X95702380Y-87702380D01*
X95845238Y-87654761D01*
X95940476Y-87559523D01*
X95988095Y-87464285D01*
X96035714Y-87273809D01*
X96035714Y-87130952D01*
X95988095Y-86940476D01*
X95940476Y-86845238D01*
X95845238Y-86750000D01*
X95702380Y-86702380D01*
X95607142Y-86702380D01*
X95464285Y-86750000D01*
X95416666Y-86797619D01*
X94559523Y-87035714D02*
X94559523Y-87702380D01*
X94797619Y-86654761D02*
X95035714Y-87369047D01*
X94416666Y-87369047D01*
X118276666Y-93322142D02*
X118324285Y-93369761D01*
X118467142Y-93417380D01*
X118562380Y-93417380D01*
X118705238Y-93369761D01*
X118800476Y-93274523D01*
X118848095Y-93179285D01*
X118895714Y-92988809D01*
X118895714Y-92845952D01*
X118848095Y-92655476D01*
X118800476Y-92560238D01*
X118705238Y-92465000D01*
X118562380Y-92417380D01*
X118467142Y-92417380D01*
X118324285Y-92465000D01*
X118276666Y-92512619D01*
X117943333Y-92417380D02*
X117324285Y-92417380D01*
X117657619Y-92798333D01*
X117514761Y-92798333D01*
X117419523Y-92845952D01*
X117371904Y-92893571D01*
X117324285Y-92988809D01*
X117324285Y-93226904D01*
X117371904Y-93322142D01*
X117419523Y-93369761D01*
X117514761Y-93417380D01*
X117800476Y-93417380D01*
X117895714Y-93369761D01*
X117943333Y-93322142D01*
X108751666Y-104242142D02*
X108799285Y-104289761D01*
X108942142Y-104337380D01*
X109037380Y-104337380D01*
X109180238Y-104289761D01*
X109275476Y-104194523D01*
X109323095Y-104099285D01*
X109370714Y-103908809D01*
X109370714Y-103765952D01*
X109323095Y-103575476D01*
X109275476Y-103480238D01*
X109180238Y-103385000D01*
X109037380Y-103337380D01*
X108942142Y-103337380D01*
X108799285Y-103385000D01*
X108751666Y-103432619D01*
X108370714Y-103432619D02*
X108323095Y-103385000D01*
X108227857Y-103337380D01*
X107989761Y-103337380D01*
X107894523Y-103385000D01*
X107846904Y-103432619D01*
X107799285Y-103527857D01*
X107799285Y-103623095D01*
X107846904Y-103765952D01*
X108418333Y-104337380D01*
X107799285Y-104337380D01*
X108751666Y-95352142D02*
X108799285Y-95399761D01*
X108942142Y-95447380D01*
X109037380Y-95447380D01*
X109180238Y-95399761D01*
X109275476Y-95304523D01*
X109323095Y-95209285D01*
X109370714Y-95018809D01*
X109370714Y-94875952D01*
X109323095Y-94685476D01*
X109275476Y-94590238D01*
X109180238Y-94495000D01*
X109037380Y-94447380D01*
X108942142Y-94447380D01*
X108799285Y-94495000D01*
X108751666Y-94542619D01*
X107799285Y-95447380D02*
X108370714Y-95447380D01*
X108085000Y-95447380D02*
X108085000Y-94447380D01*
X108180238Y-94590238D01*
X108275476Y-94685476D01*
X108370714Y-94733095D01*
X87252380Y-97028095D02*
X88061904Y-97028095D01*
X88157142Y-97075714D01*
X88204761Y-97123333D01*
X88252380Y-97218571D01*
X88252380Y-97409047D01*
X88204761Y-97504285D01*
X88157142Y-97551904D01*
X88061904Y-97599523D01*
X87252380Y-97599523D01*
X88252380Y-98599523D02*
X88252380Y-98028095D01*
X88252380Y-98313809D02*
X87252380Y-98313809D01*
X87395238Y-98218571D01*
X87490476Y-98123333D01*
X87538095Y-98028095D01*
X98572380Y-61511904D02*
X97572380Y-61511904D01*
X97572380Y-61750000D01*
X97620000Y-61892857D01*
X97715238Y-61988095D01*
X97810476Y-62035714D01*
X98000952Y-62083333D01*
X98143809Y-62083333D01*
X98334285Y-62035714D01*
X98429523Y-61988095D01*
X98524761Y-61892857D01*
X98572380Y-61750000D01*
X98572380Y-61511904D01*
X97572380Y-62940476D02*
X97572380Y-62750000D01*
X97620000Y-62654761D01*
X97667619Y-62607142D01*
X97810476Y-62511904D01*
X98000952Y-62464285D01*
X98381904Y-62464285D01*
X98477142Y-62511904D01*
X98524761Y-62559523D01*
X98572380Y-62654761D01*
X98572380Y-62845238D01*
X98524761Y-62940476D01*
X98477142Y-62988095D01*
X98381904Y-63035714D01*
X98143809Y-63035714D01*
X98048571Y-62988095D01*
X98000952Y-62940476D01*
X97953333Y-62845238D01*
X97953333Y-62654761D01*
X98000952Y-62559523D01*
X98048571Y-62511904D01*
X98143809Y-62464285D01*
X116038095Y-66802380D02*
X116038095Y-67611904D01*
X115990476Y-67707142D01*
X115942857Y-67754761D01*
X115847619Y-67802380D01*
X115657142Y-67802380D01*
X115561904Y-67754761D01*
X115514285Y-67707142D01*
X115466666Y-67611904D01*
X115466666Y-66802380D01*
X115038095Y-67754761D02*
X114895238Y-67802380D01*
X114657142Y-67802380D01*
X114561904Y-67754761D01*
X114514285Y-67707142D01*
X114466666Y-67611904D01*
X114466666Y-67516666D01*
X114514285Y-67421428D01*
X114561904Y-67373809D01*
X114657142Y-67326190D01*
X114847619Y-67278571D01*
X114942857Y-67230952D01*
X114990476Y-67183333D01*
X115038095Y-67088095D01*
X115038095Y-66992857D01*
X114990476Y-66897619D01*
X114942857Y-66850000D01*
X114847619Y-66802380D01*
X114609523Y-66802380D01*
X114466666Y-66850000D01*
X113704761Y-67278571D02*
X113561904Y-67326190D01*
X113514285Y-67373809D01*
X113466666Y-67469047D01*
X113466666Y-67611904D01*
X113514285Y-67707142D01*
X113561904Y-67754761D01*
X113657142Y-67802380D01*
X114038095Y-67802380D01*
X114038095Y-66802380D01*
X113704761Y-66802380D01*
X113609523Y-66850000D01*
X113561904Y-66897619D01*
X113514285Y-66992857D01*
X113514285Y-67088095D01*
X113561904Y-67183333D01*
X113609523Y-67230952D01*
X113704761Y-67278571D01*
X114038095Y-67278571D01*
X112514285Y-67802380D02*
X113085714Y-67802380D01*
X112800000Y-67802380D02*
X112800000Y-66802380D01*
X112895238Y-66945238D01*
X112990476Y-67040476D01*
X113085714Y-67088095D01*
X89543880Y-136834642D02*
X89067690Y-136501309D01*
X89543880Y-136263214D02*
X88543880Y-136263214D01*
X88543880Y-136644166D01*
X88591500Y-136739404D01*
X88639119Y-136787023D01*
X88734357Y-136834642D01*
X88877214Y-136834642D01*
X88972452Y-136787023D01*
X89020071Y-136739404D01*
X89067690Y-136644166D01*
X89067690Y-136263214D01*
X89543880Y-137787023D02*
X89543880Y-137215595D01*
X89543880Y-137501309D02*
X88543880Y-137501309D01*
X88686738Y-137406071D01*
X88781976Y-137310833D01*
X88829595Y-137215595D01*
X88543880Y-138120357D02*
X88543880Y-138739404D01*
X88924833Y-138406071D01*
X88924833Y-138548928D01*
X88972452Y-138644166D01*
X89020071Y-138691785D01*
X89115309Y-138739404D01*
X89353404Y-138739404D01*
X89448642Y-138691785D01*
X89496261Y-138644166D01*
X89543880Y-138548928D01*
X89543880Y-138263214D01*
X89496261Y-138167976D01*
X89448642Y-138120357D01*
X99321857Y-135962380D02*
X99655190Y-135486190D01*
X99893285Y-135962380D02*
X99893285Y-134962380D01*
X99512333Y-134962380D01*
X99417095Y-135010000D01*
X99369476Y-135057619D01*
X99321857Y-135152857D01*
X99321857Y-135295714D01*
X99369476Y-135390952D01*
X99417095Y-135438571D01*
X99512333Y-135486190D01*
X99893285Y-135486190D01*
X98369476Y-135962380D02*
X98940904Y-135962380D01*
X98655190Y-135962380D02*
X98655190Y-134962380D01*
X98750428Y-135105238D01*
X98845666Y-135200476D01*
X98940904Y-135248095D01*
X97988523Y-135057619D02*
X97940904Y-135010000D01*
X97845666Y-134962380D01*
X97607571Y-134962380D01*
X97512333Y-135010000D01*
X97464714Y-135057619D01*
X97417095Y-135152857D01*
X97417095Y-135248095D01*
X97464714Y-135390952D01*
X98036142Y-135962380D01*
X97417095Y-135962380D01*
X99321857Y-139772380D02*
X99655190Y-139296190D01*
X99893285Y-139772380D02*
X99893285Y-138772380D01*
X99512333Y-138772380D01*
X99417095Y-138820000D01*
X99369476Y-138867619D01*
X99321857Y-138962857D01*
X99321857Y-139105714D01*
X99369476Y-139200952D01*
X99417095Y-139248571D01*
X99512333Y-139296190D01*
X99893285Y-139296190D01*
X98369476Y-139772380D02*
X98940904Y-139772380D01*
X98655190Y-139772380D02*
X98655190Y-138772380D01*
X98750428Y-138915238D01*
X98845666Y-139010476D01*
X98940904Y-139058095D01*
X97417095Y-139772380D02*
X97988523Y-139772380D01*
X97702809Y-139772380D02*
X97702809Y-138772380D01*
X97798047Y-138915238D01*
X97893285Y-139010476D01*
X97988523Y-139058095D01*
X144089285Y-134958380D02*
X144089285Y-133958380D01*
X143517857Y-134958380D02*
X143946428Y-134386952D01*
X143517857Y-133958380D02*
X144089285Y-134529809D01*
X143184523Y-133958380D02*
X142565476Y-133958380D01*
X142898809Y-134339333D01*
X142755952Y-134339333D01*
X142660714Y-134386952D01*
X142613095Y-134434571D01*
X142565476Y-134529809D01*
X142565476Y-134767904D01*
X142613095Y-134863142D01*
X142660714Y-134910761D01*
X142755952Y-134958380D01*
X143041666Y-134958380D01*
X143136904Y-134910761D01*
X143184523Y-134863142D01*
X141708333Y-134291714D02*
X141708333Y-134958380D01*
X141946428Y-133910761D02*
X142184523Y-134625047D01*
X141565476Y-134625047D01*
X125039285Y-134958380D02*
X125039285Y-133958380D01*
X124467857Y-134958380D02*
X124896428Y-134386952D01*
X124467857Y-133958380D02*
X125039285Y-134529809D01*
X124134523Y-133958380D02*
X123515476Y-133958380D01*
X123848809Y-134339333D01*
X123705952Y-134339333D01*
X123610714Y-134386952D01*
X123563095Y-134434571D01*
X123515476Y-134529809D01*
X123515476Y-134767904D01*
X123563095Y-134863142D01*
X123610714Y-134910761D01*
X123705952Y-134958380D01*
X123991666Y-134958380D01*
X124086904Y-134910761D01*
X124134523Y-134863142D01*
X123182142Y-133958380D02*
X122563095Y-133958380D01*
X122896428Y-134339333D01*
X122753571Y-134339333D01*
X122658333Y-134386952D01*
X122610714Y-134434571D01*
X122563095Y-134529809D01*
X122563095Y-134767904D01*
X122610714Y-134863142D01*
X122658333Y-134910761D01*
X122753571Y-134958380D01*
X123039285Y-134958380D01*
X123134523Y-134910761D01*
X123182142Y-134863142D01*
X105989285Y-134958380D02*
X105989285Y-133958380D01*
X105417857Y-134958380D02*
X105846428Y-134386952D01*
X105417857Y-133958380D02*
X105989285Y-134529809D01*
X105084523Y-133958380D02*
X104465476Y-133958380D01*
X104798809Y-134339333D01*
X104655952Y-134339333D01*
X104560714Y-134386952D01*
X104513095Y-134434571D01*
X104465476Y-134529809D01*
X104465476Y-134767904D01*
X104513095Y-134863142D01*
X104560714Y-134910761D01*
X104655952Y-134958380D01*
X104941666Y-134958380D01*
X105036904Y-134910761D01*
X105084523Y-134863142D01*
X104084523Y-134053619D02*
X104036904Y-134006000D01*
X103941666Y-133958380D01*
X103703571Y-133958380D01*
X103608333Y-134006000D01*
X103560714Y-134053619D01*
X103513095Y-134148857D01*
X103513095Y-134244095D01*
X103560714Y-134386952D01*
X104132142Y-134958380D01*
X103513095Y-134958380D01*
X86939285Y-134958380D02*
X86939285Y-133958380D01*
X86367857Y-134958380D02*
X86796428Y-134386952D01*
X86367857Y-133958380D02*
X86939285Y-134529809D01*
X86034523Y-133958380D02*
X85415476Y-133958380D01*
X85748809Y-134339333D01*
X85605952Y-134339333D01*
X85510714Y-134386952D01*
X85463095Y-134434571D01*
X85415476Y-134529809D01*
X85415476Y-134767904D01*
X85463095Y-134863142D01*
X85510714Y-134910761D01*
X85605952Y-134958380D01*
X85891666Y-134958380D01*
X85986904Y-134910761D01*
X86034523Y-134863142D01*
X84463095Y-134958380D02*
X85034523Y-134958380D01*
X84748809Y-134958380D02*
X84748809Y-133958380D01*
X84844047Y-134101238D01*
X84939285Y-134196476D01*
X85034523Y-134244095D01*
X144089285Y-99308380D02*
X144089285Y-98308380D01*
X143517857Y-99308380D02*
X143946428Y-98736952D01*
X143517857Y-98308380D02*
X144089285Y-98879809D01*
X143136904Y-98403619D02*
X143089285Y-98356000D01*
X142994047Y-98308380D01*
X142755952Y-98308380D01*
X142660714Y-98356000D01*
X142613095Y-98403619D01*
X142565476Y-98498857D01*
X142565476Y-98594095D01*
X142613095Y-98736952D01*
X143184523Y-99308380D01*
X142565476Y-99308380D01*
X141708333Y-98641714D02*
X141708333Y-99308380D01*
X141946428Y-98260761D02*
X142184523Y-98975047D01*
X141565476Y-98975047D01*
X125039285Y-99308380D02*
X125039285Y-98308380D01*
X124467857Y-99308380D02*
X124896428Y-98736952D01*
X124467857Y-98308380D02*
X125039285Y-98879809D01*
X124086904Y-98403619D02*
X124039285Y-98356000D01*
X123944047Y-98308380D01*
X123705952Y-98308380D01*
X123610714Y-98356000D01*
X123563095Y-98403619D01*
X123515476Y-98498857D01*
X123515476Y-98594095D01*
X123563095Y-98736952D01*
X124134523Y-99308380D01*
X123515476Y-99308380D01*
X123182142Y-98308380D02*
X122563095Y-98308380D01*
X122896428Y-98689333D01*
X122753571Y-98689333D01*
X122658333Y-98736952D01*
X122610714Y-98784571D01*
X122563095Y-98879809D01*
X122563095Y-99117904D01*
X122610714Y-99213142D01*
X122658333Y-99260761D01*
X122753571Y-99308380D01*
X123039285Y-99308380D01*
X123134523Y-99260761D01*
X123182142Y-99213142D01*
X105989285Y-99308380D02*
X105989285Y-98308380D01*
X105417857Y-99308380D02*
X105846428Y-98736952D01*
X105417857Y-98308380D02*
X105989285Y-98879809D01*
X105036904Y-98403619D02*
X104989285Y-98356000D01*
X104894047Y-98308380D01*
X104655952Y-98308380D01*
X104560714Y-98356000D01*
X104513095Y-98403619D01*
X104465476Y-98498857D01*
X104465476Y-98594095D01*
X104513095Y-98736952D01*
X105084523Y-99308380D01*
X104465476Y-99308380D01*
X104084523Y-98403619D02*
X104036904Y-98356000D01*
X103941666Y-98308380D01*
X103703571Y-98308380D01*
X103608333Y-98356000D01*
X103560714Y-98403619D01*
X103513095Y-98498857D01*
X103513095Y-98594095D01*
X103560714Y-98736952D01*
X104132142Y-99308380D01*
X103513095Y-99308380D01*
X86939285Y-99308380D02*
X86939285Y-98308380D01*
X86367857Y-99308380D02*
X86796428Y-98736952D01*
X86367857Y-98308380D02*
X86939285Y-98879809D01*
X85986904Y-98403619D02*
X85939285Y-98356000D01*
X85844047Y-98308380D01*
X85605952Y-98308380D01*
X85510714Y-98356000D01*
X85463095Y-98403619D01*
X85415476Y-98498857D01*
X85415476Y-98594095D01*
X85463095Y-98736952D01*
X86034523Y-99308380D01*
X85415476Y-99308380D01*
X84463095Y-99308380D02*
X85034523Y-99308380D01*
X84748809Y-99308380D02*
X84748809Y-98308380D01*
X84844047Y-98451238D01*
X84939285Y-98546476D01*
X85034523Y-98594095D01*
X144089285Y-96858580D02*
X144089285Y-95858580D01*
X143517857Y-96858580D02*
X143946428Y-96287152D01*
X143517857Y-95858580D02*
X144089285Y-96430009D01*
X142565476Y-96858580D02*
X143136904Y-96858580D01*
X142851190Y-96858580D02*
X142851190Y-95858580D01*
X142946428Y-96001438D01*
X143041666Y-96096676D01*
X143136904Y-96144295D01*
X141708333Y-96191914D02*
X141708333Y-96858580D01*
X141946428Y-95810961D02*
X142184523Y-96525247D01*
X141565476Y-96525247D01*
X125039285Y-96858580D02*
X125039285Y-95858580D01*
X124467857Y-96858580D02*
X124896428Y-96287152D01*
X124467857Y-95858580D02*
X125039285Y-96430009D01*
X123515476Y-96858580D02*
X124086904Y-96858580D01*
X123801190Y-96858580D02*
X123801190Y-95858580D01*
X123896428Y-96001438D01*
X123991666Y-96096676D01*
X124086904Y-96144295D01*
X123182142Y-95858580D02*
X122563095Y-95858580D01*
X122896428Y-96239533D01*
X122753571Y-96239533D01*
X122658333Y-96287152D01*
X122610714Y-96334771D01*
X122563095Y-96430009D01*
X122563095Y-96668104D01*
X122610714Y-96763342D01*
X122658333Y-96810961D01*
X122753571Y-96858580D01*
X123039285Y-96858580D01*
X123134523Y-96810961D01*
X123182142Y-96763342D01*
X105989285Y-96858580D02*
X105989285Y-95858580D01*
X105417857Y-96858580D02*
X105846428Y-96287152D01*
X105417857Y-95858580D02*
X105989285Y-96430009D01*
X104465476Y-96858580D02*
X105036904Y-96858580D01*
X104751190Y-96858580D02*
X104751190Y-95858580D01*
X104846428Y-96001438D01*
X104941666Y-96096676D01*
X105036904Y-96144295D01*
X104084523Y-95953819D02*
X104036904Y-95906200D01*
X103941666Y-95858580D01*
X103703571Y-95858580D01*
X103608333Y-95906200D01*
X103560714Y-95953819D01*
X103513095Y-96049057D01*
X103513095Y-96144295D01*
X103560714Y-96287152D01*
X104132142Y-96858580D01*
X103513095Y-96858580D01*
X86939285Y-96858580D02*
X86939285Y-95858580D01*
X86367857Y-96858580D02*
X86796428Y-96287152D01*
X86367857Y-95858580D02*
X86939285Y-96430009D01*
X85415476Y-96858580D02*
X85986904Y-96858580D01*
X85701190Y-96858580D02*
X85701190Y-95858580D01*
X85796428Y-96001438D01*
X85891666Y-96096676D01*
X85986904Y-96144295D01*
X84463095Y-96858580D02*
X85034523Y-96858580D01*
X84748809Y-96858580D02*
X84748809Y-95858580D01*
X84844047Y-96001438D01*
X84939285Y-96096676D01*
X85034523Y-96144295D01*
X143613095Y-61208580D02*
X143613095Y-60208580D01*
X143041666Y-61208580D02*
X143470238Y-60637152D01*
X143041666Y-60208580D02*
X143613095Y-60780009D01*
X142184523Y-60541914D02*
X142184523Y-61208580D01*
X142422619Y-60160961D02*
X142660714Y-60875247D01*
X142041666Y-60875247D01*
X124563095Y-61208580D02*
X124563095Y-60208580D01*
X123991666Y-61208580D02*
X124420238Y-60637152D01*
X123991666Y-60208580D02*
X124563095Y-60780009D01*
X123658333Y-60208580D02*
X123039285Y-60208580D01*
X123372619Y-60589533D01*
X123229761Y-60589533D01*
X123134523Y-60637152D01*
X123086904Y-60684771D01*
X123039285Y-60780009D01*
X123039285Y-61018104D01*
X123086904Y-61113342D01*
X123134523Y-61160961D01*
X123229761Y-61208580D01*
X123515476Y-61208580D01*
X123610714Y-61160961D01*
X123658333Y-61113342D01*
X105513095Y-61208580D02*
X105513095Y-60208580D01*
X104941666Y-61208580D02*
X105370238Y-60637152D01*
X104941666Y-60208580D02*
X105513095Y-60780009D01*
X104560714Y-60303819D02*
X104513095Y-60256200D01*
X104417857Y-60208580D01*
X104179761Y-60208580D01*
X104084523Y-60256200D01*
X104036904Y-60303819D01*
X103989285Y-60399057D01*
X103989285Y-60494295D01*
X104036904Y-60637152D01*
X104608333Y-61208580D01*
X103989285Y-61208580D01*
X86463095Y-61208580D02*
X86463095Y-60208580D01*
X85891666Y-61208580D02*
X86320238Y-60637152D01*
X85891666Y-60208580D02*
X86463095Y-60780009D01*
X84939285Y-61208580D02*
X85510714Y-61208580D01*
X85225000Y-61208580D02*
X85225000Y-60208580D01*
X85320238Y-60351438D01*
X85415476Y-60446676D01*
X85510714Y-60494295D01*
M02*
