M48
; DRILL file {KiCad (5.1.2)-2} date 2020/3/24 23:19:37
; FORMAT={-:-/ absolute / metric / decimal}
; #@! TF.CreationDate,2020-03-24T23:19:37+08:00
; #@! TF.GenerationSoftware,Kicad,Pcbnew,(5.1.2)-2
; #@! TF.FileFunction,Plated,1,2,PTH
FMAT,2
METRIC
T1C0.400
T2C0.600
T3C1.000
%
G90
G05
T1
X84.308Y-101.033
X85.033Y-99.463
X85.058Y-96.455
X88.198Y-100.99
X88.428Y-62.874
X91.574Y-97.53
X91.964Y-94.98
X92.325Y-101.894
X92.775Y-93.521
X92.827Y-106.151
X92.889Y-62.874
X92.889Y-90.72
X94.45Y-93.557
X94.875Y-87.02
X94.923Y-105.397
X95.31Y-94.59
X95.6Y-81.857
X96.088Y-90.258
X96.088Y-97.608
X96.86Y-100.876
X97.035Y-63.703
X97.035Y-66.204
X97.556Y-105.136
X97.632Y-97.633
X101.736Y-115.617
X102.908Y-59.909
X102.987Y-62.608
X104.151Y-78.27
X104.527Y-79.806
X105.402Y-117.856
X106.629Y-132.998
X110.795Y-101.894
X114.534Y-79.806
X117.253Y-89.303
X117.253Y-110.21
X117.845Y-117.798
X120.424Y-115.27
X130.1Y-65.508
T3
X76.835Y-93.98
X76.835Y-96.52
X76.835Y-99.06
X76.835Y-101.6
X81.28Y-145.415
X83.82Y-145.415
X86.36Y-145.415
X93.345Y-145.415
X95.885Y-145.415
X98.425Y-145.415
X100.965Y-145.415
T2
G00X109.98Y-59.45
M15
G01X109.98Y-60.05
M16
G05
G00X109.98Y-63.38
M15
G01X109.98Y-64.48
M16
G05
G00X118.62Y-59.45
M15
G01X118.62Y-60.05
M16
G05
G00X118.62Y-63.38
M15
G01X118.62Y-64.48
M16
G05
T0
M30
