M48
; DRILL file {KiCad (5.1.2)-2} date 2020/3/24 23:19:37
; FORMAT={-:-/ absolute / metric / decimal}
; #@! TF.CreationDate,2020-03-24T23:19:37+08:00
; #@! TF.GenerationSoftware,Kicad,Pcbnew,(5.1.2)-2
; #@! TF.FileFunction,NonPlated,1,2,NPTH
FMAT,2
METRIC
T1C0.650
T2C1.702
T3C3.000
T4C3.988
%
G90
G05
T1
X111.41Y-63.4
X117.19Y-63.4
T2
X80.645Y-69.056
X90.805Y-69.056
X99.695Y-107.156
X109.855Y-107.156
X118.745Y-126.206
X128.905Y-126.206
X137.795Y-107.156
X147.955Y-107.156
X99.695Y-126.206
X109.855Y-126.206
X80.645Y-126.206
X90.805Y-126.206
X118.745Y-107.156
X128.905Y-107.156
X99.695Y-88.106
X109.855Y-88.106
X80.645Y-88.106
X90.805Y-88.106
X80.645Y-107.156
X90.805Y-107.156
X118.745Y-69.056
X128.905Y-69.056
X99.695Y-69.056
X109.855Y-69.056
X137.795Y-126.206
X147.955Y-126.206
X137.795Y-88.106
X147.955Y-88.106
X118.745Y-88.106
X128.905Y-88.106
X137.795Y-69.056
X147.955Y-69.056
T3
X102.235Y-112.236
X108.585Y-109.696
X120.015Y-123.666
X126.365Y-121.126
X140.335Y-112.236
X146.685Y-109.696
X100.965Y-123.666
X107.315Y-121.126
X81.915Y-123.666
X88.265Y-121.126
X121.285Y-112.236
X127.635Y-109.696
X100.965Y-85.566
X107.315Y-83.026
X81.915Y-85.566
X88.265Y-83.026
X83.185Y-112.236
X89.535Y-109.696
X121.285Y-74.136
X127.635Y-71.596
X102.235Y-74.136
X108.585Y-71.596
X139.065Y-123.666
X145.415Y-121.126
X139.065Y-85.566
X145.415Y-83.026
X120.015Y-85.566
X126.365Y-83.026
X140.335Y-74.136
X146.685Y-71.596
X83.185Y-74.136
X89.535Y-71.596
T4
X85.725Y-126.206
X123.825Y-107.156
X104.775Y-88.106
X85.725Y-88.106
X85.725Y-107.156
X123.825Y-69.056
X104.775Y-69.056
X142.875Y-126.206
X142.875Y-88.106
X123.825Y-88.106
X142.875Y-69.056
X85.725Y-69.056
X104.775Y-107.156
X123.825Y-126.206
X142.875Y-107.156
X104.775Y-126.206
T0
M30
