G04 #@! TF.GenerationSoftware,KiCad,Pcbnew,(5.1.2)-2*
G04 #@! TF.CreationDate,2020-01-16T13:47:14+08:00*
G04 #@! TF.ProjectId,wingxx-receiver-v3,77696e67-7878-42d7-9265-636569766572,rev?*
G04 #@! TF.SameCoordinates,Original*
G04 #@! TF.FileFunction,Legend,Top*
G04 #@! TF.FilePolarity,Positive*
%FSLAX46Y46*%
G04 Gerber Fmt 4.6, Leading zero omitted, Abs format (unit mm)*
G04 Created by KiCad (PCBNEW (5.1.2)-2) date 2020-01-16 13:47:14*
%MOMM*%
%LPD*%
G04 APERTURE LIST*
%ADD10C,0.120000*%
%ADD11C,0.150000*%
G04 APERTURE END LIST*
D10*
X139640000Y-64830000D02*
X139640000Y-63500000D01*
X140970000Y-64830000D02*
X139640000Y-64830000D01*
X142240000Y-64830000D02*
X142240000Y-62170000D01*
X142240000Y-62170000D02*
X147380000Y-62170000D01*
X142240000Y-64830000D02*
X147380000Y-64830000D01*
X147380000Y-64830000D02*
X147380000Y-62170000D01*
X138370000Y-138490000D02*
X138370000Y-137160000D01*
X139700000Y-138490000D02*
X138370000Y-138490000D01*
X140970000Y-138490000D02*
X140970000Y-135830000D01*
X140970000Y-135830000D02*
X148650000Y-135830000D01*
X140970000Y-138490000D02*
X148650000Y-138490000D01*
X148650000Y-138490000D02*
X148650000Y-135830000D01*
D11*
X138997142Y-71928571D02*
X139044761Y-71976190D01*
X139092380Y-72119047D01*
X139092380Y-72214285D01*
X139044761Y-72357142D01*
X138949523Y-72452380D01*
X138854285Y-72500000D01*
X138663809Y-72547619D01*
X138520952Y-72547619D01*
X138330476Y-72500000D01*
X138235238Y-72452380D01*
X138140000Y-72357142D01*
X138092380Y-72214285D01*
X138092380Y-72119047D01*
X138140000Y-71976190D01*
X138187619Y-71928571D01*
X139092380Y-71357142D02*
X139044761Y-71452380D01*
X138997142Y-71500000D01*
X138901904Y-71547619D01*
X138616190Y-71547619D01*
X138520952Y-71500000D01*
X138473333Y-71452380D01*
X138425714Y-71357142D01*
X138425714Y-71214285D01*
X138473333Y-71119047D01*
X138520952Y-71071428D01*
X138616190Y-71023809D01*
X138901904Y-71023809D01*
X138997142Y-71071428D01*
X139044761Y-71119047D01*
X139092380Y-71214285D01*
X139092380Y-71357142D01*
X138425714Y-70595238D02*
X139092380Y-70595238D01*
X138520952Y-70595238D02*
X138473333Y-70547619D01*
X138425714Y-70452380D01*
X138425714Y-70309523D01*
X138473333Y-70214285D01*
X138568571Y-70166666D01*
X139092380Y-70166666D01*
X138425714Y-69690476D02*
X139092380Y-69690476D01*
X138520952Y-69690476D02*
X138473333Y-69642857D01*
X138425714Y-69547619D01*
X138425714Y-69404761D01*
X138473333Y-69309523D01*
X138568571Y-69261904D01*
X139092380Y-69261904D01*
X138568571Y-68452380D02*
X138568571Y-68785714D01*
X139092380Y-68785714D02*
X138092380Y-68785714D01*
X138092380Y-68309523D01*
X139044761Y-67547619D02*
X139092380Y-67642857D01*
X139092380Y-67833333D01*
X139044761Y-67928571D01*
X138949523Y-67976190D01*
X138568571Y-67976190D01*
X138473333Y-67928571D01*
X138425714Y-67833333D01*
X138425714Y-67642857D01*
X138473333Y-67547619D01*
X138568571Y-67500000D01*
X138663809Y-67500000D01*
X138759047Y-67976190D01*
X139092380Y-67071428D02*
X138425714Y-67071428D01*
X138520952Y-67071428D02*
X138473333Y-67023809D01*
X138425714Y-66928571D01*
X138425714Y-66785714D01*
X138473333Y-66690476D01*
X138568571Y-66642857D01*
X139092380Y-66642857D01*
X138568571Y-66642857D02*
X138473333Y-66595238D01*
X138425714Y-66500000D01*
X138425714Y-66357142D01*
X138473333Y-66261904D01*
X138568571Y-66214285D01*
X139092380Y-66214285D01*
X139092380Y-65309523D02*
X138568571Y-65309523D01*
X138473333Y-65357142D01*
X138425714Y-65452380D01*
X138425714Y-65642857D01*
X138473333Y-65738095D01*
X139044761Y-65309523D02*
X139092380Y-65404761D01*
X139092380Y-65642857D01*
X139044761Y-65738095D01*
X138949523Y-65785714D01*
X138854285Y-65785714D01*
X138759047Y-65738095D01*
X138711428Y-65642857D01*
X138711428Y-65404761D01*
X138663809Y-65309523D01*
X139092380Y-64690476D02*
X139044761Y-64785714D01*
X138949523Y-64833333D01*
X138092380Y-64833333D01*
X139044761Y-63928571D02*
X139092380Y-64023809D01*
X139092380Y-64214285D01*
X139044761Y-64309523D01*
X138949523Y-64357142D01*
X138568571Y-64357142D01*
X138473333Y-64309523D01*
X138425714Y-64214285D01*
X138425714Y-64023809D01*
X138473333Y-63928571D01*
X138568571Y-63880952D01*
X138663809Y-63880952D01*
X138759047Y-64357142D01*
X139187619Y-63690476D02*
X139187619Y-62928571D01*
X138092380Y-62690476D02*
X138901904Y-62690476D01*
X138997142Y-62642857D01*
X139044761Y-62595238D01*
X139092380Y-62500000D01*
X139092380Y-62309523D01*
X139044761Y-62214285D01*
X138997142Y-62166666D01*
X138901904Y-62119047D01*
X138092380Y-62119047D01*
X138425714Y-61642857D02*
X139092380Y-61642857D01*
X138520952Y-61642857D02*
X138473333Y-61595238D01*
X138425714Y-61500000D01*
X138425714Y-61357142D01*
X138473333Y-61261904D01*
X138568571Y-61214285D01*
X139092380Y-61214285D01*
X139092380Y-60309523D02*
X138092380Y-60309523D01*
X139044761Y-60309523D02*
X139092380Y-60404761D01*
X139092380Y-60595238D01*
X139044761Y-60690476D01*
X138997142Y-60738095D01*
X138901904Y-60785714D01*
X138616190Y-60785714D01*
X138520952Y-60738095D01*
X138473333Y-60690476D01*
X138425714Y-60595238D01*
X138425714Y-60404761D01*
X138473333Y-60309523D01*
X139044761Y-59452380D02*
X139092380Y-59547619D01*
X139092380Y-59738095D01*
X139044761Y-59833333D01*
X138949523Y-59880952D01*
X138568571Y-59880952D01*
X138473333Y-59833333D01*
X138425714Y-59738095D01*
X138425714Y-59547619D01*
X138473333Y-59452380D01*
X138568571Y-59404761D01*
X138663809Y-59404761D01*
X138759047Y-59880952D01*
X139092380Y-58976190D02*
X138425714Y-58976190D01*
X138616190Y-58976190D02*
X138520952Y-58928571D01*
X138473333Y-58880952D01*
X138425714Y-58785714D01*
X138425714Y-58690476D01*
X138425714Y-57928571D02*
X139235238Y-57928571D01*
X139330476Y-57976190D01*
X139378095Y-58023809D01*
X139425714Y-58119047D01*
X139425714Y-58261904D01*
X139378095Y-58357142D01*
X139044761Y-57928571D02*
X139092380Y-58023809D01*
X139092380Y-58214285D01*
X139044761Y-58309523D01*
X138997142Y-58357142D01*
X138901904Y-58404761D01*
X138616190Y-58404761D01*
X138520952Y-58357142D01*
X138473333Y-58309523D01*
X138425714Y-58214285D01*
X138425714Y-58023809D01*
X138473333Y-57928571D01*
X139092380Y-57309523D02*
X139044761Y-57404761D01*
X138949523Y-57452380D01*
X138092380Y-57452380D01*
X139092380Y-56785714D02*
X139044761Y-56880952D01*
X138997142Y-56928571D01*
X138901904Y-56976190D01*
X138616190Y-56976190D01*
X138520952Y-56928571D01*
X138473333Y-56880952D01*
X138425714Y-56785714D01*
X138425714Y-56642857D01*
X138473333Y-56547619D01*
X138520952Y-56500000D01*
X138616190Y-56452380D01*
X138901904Y-56452380D01*
X138997142Y-56500000D01*
X139044761Y-56547619D01*
X139092380Y-56642857D01*
X139092380Y-56785714D01*
X138425714Y-56119047D02*
X139092380Y-55928571D01*
X138616190Y-55738095D01*
X139092380Y-55547619D01*
X138425714Y-55357142D01*
X139092380Y-54452380D02*
X139092380Y-55023809D01*
X139092380Y-54738095D02*
X138092380Y-54738095D01*
X138235238Y-54833333D01*
X138330476Y-54928571D01*
X138378095Y-55023809D01*
X137822380Y-143160000D02*
X136822380Y-143160000D01*
X136822380Y-142779047D01*
X136870000Y-142683809D01*
X136917619Y-142636190D01*
X137012857Y-142588571D01*
X137155714Y-142588571D01*
X137250952Y-142636190D01*
X137298571Y-142683809D01*
X137346190Y-142779047D01*
X137346190Y-143160000D01*
X137822380Y-141588571D02*
X137346190Y-141921904D01*
X137822380Y-142160000D02*
X136822380Y-142160000D01*
X136822380Y-141779047D01*
X136870000Y-141683809D01*
X136917619Y-141636190D01*
X137012857Y-141588571D01*
X137155714Y-141588571D01*
X137250952Y-141636190D01*
X137298571Y-141683809D01*
X137346190Y-141779047D01*
X137346190Y-142160000D01*
X136822380Y-140969523D02*
X136822380Y-140779047D01*
X136870000Y-140683809D01*
X136965238Y-140588571D01*
X137155714Y-140540952D01*
X137489047Y-140540952D01*
X137679523Y-140588571D01*
X137774761Y-140683809D01*
X137822380Y-140779047D01*
X137822380Y-140969523D01*
X137774761Y-141064761D01*
X137679523Y-141160000D01*
X137489047Y-141207619D01*
X137155714Y-141207619D01*
X136965238Y-141160000D01*
X136870000Y-141064761D01*
X136822380Y-140969523D01*
X136870000Y-139588571D02*
X136822380Y-139683809D01*
X136822380Y-139826666D01*
X136870000Y-139969523D01*
X136965238Y-140064761D01*
X137060476Y-140112380D01*
X137250952Y-140160000D01*
X137393809Y-140160000D01*
X137584285Y-140112380D01*
X137679523Y-140064761D01*
X137774761Y-139969523D01*
X137822380Y-139826666D01*
X137822380Y-139731428D01*
X137774761Y-139588571D01*
X137727142Y-139540952D01*
X137393809Y-139540952D01*
X137393809Y-139731428D01*
X137822380Y-138540952D02*
X137346190Y-138874285D01*
X137822380Y-139112380D02*
X136822380Y-139112380D01*
X136822380Y-138731428D01*
X136870000Y-138636190D01*
X136917619Y-138588571D01*
X137012857Y-138540952D01*
X137155714Y-138540952D01*
X137250952Y-138588571D01*
X137298571Y-138636190D01*
X137346190Y-138731428D01*
X137346190Y-139112380D01*
X137917619Y-138350476D02*
X137917619Y-137588571D01*
X137822380Y-137350476D02*
X136822380Y-137350476D01*
X137298571Y-137350476D02*
X137298571Y-136779047D01*
X137822380Y-136779047D02*
X136822380Y-136779047D01*
X137298571Y-136302857D02*
X137298571Y-135969523D01*
X137822380Y-135826666D02*
X137822380Y-136302857D01*
X136822380Y-136302857D01*
X136822380Y-135826666D01*
X137536666Y-135445714D02*
X137536666Y-134969523D01*
X137822380Y-135540952D02*
X136822380Y-135207619D01*
X137822380Y-134874285D01*
X137822380Y-134540952D02*
X136822380Y-134540952D01*
X136822380Y-134302857D01*
X136870000Y-134160000D01*
X136965238Y-134064761D01*
X137060476Y-134017142D01*
X137250952Y-133969523D01*
X137393809Y-133969523D01*
X137584285Y-134017142D01*
X137679523Y-134064761D01*
X137774761Y-134160000D01*
X137822380Y-134302857D01*
X137822380Y-134540952D01*
X137298571Y-133540952D02*
X137298571Y-133207619D01*
X137822380Y-133064761D02*
X137822380Y-133540952D01*
X136822380Y-133540952D01*
X136822380Y-133064761D01*
X137822380Y-132064761D02*
X137346190Y-132398095D01*
X137822380Y-132636190D02*
X136822380Y-132636190D01*
X136822380Y-132255238D01*
X136870000Y-132160000D01*
X136917619Y-132112380D01*
X137012857Y-132064761D01*
X137155714Y-132064761D01*
X137250952Y-132112380D01*
X137298571Y-132160000D01*
X137346190Y-132255238D01*
X137346190Y-132636190D01*
X137822380Y-131112380D02*
X137822380Y-131683809D01*
X137822380Y-131398095D02*
X136822380Y-131398095D01*
X136965238Y-131493333D01*
X137060476Y-131588571D01*
X137108095Y-131683809D01*
M02*
