G04 #@! TF.GenerationSoftware,KiCad,Pcbnew,(5.1.2)-2*
G04 #@! TF.CreationDate,2020-01-09T21:44:13+08:00*
G04 #@! TF.ProjectId,wingxx-receiver,77696e67-7878-42d7-9265-636569766572,rev?*
G04 #@! TF.SameCoordinates,Original*
G04 #@! TF.FileFunction,Soldermask,Bot*
G04 #@! TF.FilePolarity,Negative*
%FSLAX46Y46*%
G04 Gerber Fmt 4.6, Leading zero omitted, Abs format (unit mm)*
G04 Created by KiCad (PCBNEW (5.1.2)-2) date 2020-01-09 21:44:13*
%MOMM*%
%LPD*%
G04 APERTURE LIST*
%ADD10R,1.500000X1.500000*%
%ADD11R,1.800000X2.100000*%
%ADD12C,0.100000*%
%ADD13C,1.425000*%
%ADD14C,1.150000*%
%ADD15R,1.500000X0.550000*%
%ADD16R,0.550000X1.500000*%
%ADD17R,1.000000X1.400000*%
%ADD18R,1.200000X1.400000*%
%ADD19R,0.698500X1.198880*%
%ADD20R,1.198880X0.698500*%
%ADD21R,0.600000X2.450000*%
%ADD22R,0.300000X2.450000*%
%ADD23C,0.650000*%
%ADD24R,2.200000X3.800000*%
%ADD25R,2.200000X1.500000*%
%ADD26O,1.700000X1.700000*%
%ADD27R,1.700000X1.700000*%
%ADD28R,2.550000X2.500000*%
%ADD29C,1.701800*%
%ADD30C,3.987800*%
%ADD31C,3.000000*%
%ADD32R,0.950000X1.300000*%
%ADD33R,1.300000X0.950000*%
G04 APERTURE END LIST*
D10*
X85725000Y-143600000D03*
X85725000Y-135800000D03*
D11*
X109735000Y-99240000D03*
X109735000Y-96340000D03*
X107435000Y-96340000D03*
X107435000Y-99240000D03*
D12*
G36*
X106059504Y-63006204D02*
G01*
X106083773Y-63009804D01*
X106107571Y-63015765D01*
X106130671Y-63024030D01*
X106152849Y-63034520D01*
X106173893Y-63047133D01*
X106193598Y-63061747D01*
X106211777Y-63078223D01*
X106228253Y-63096402D01*
X106242867Y-63116107D01*
X106255480Y-63137151D01*
X106265970Y-63159329D01*
X106274235Y-63182429D01*
X106280196Y-63206227D01*
X106283796Y-63230496D01*
X106285000Y-63255000D01*
X106285000Y-64180000D01*
X106283796Y-64204504D01*
X106280196Y-64228773D01*
X106274235Y-64252571D01*
X106265970Y-64275671D01*
X106255480Y-64297849D01*
X106242867Y-64318893D01*
X106228253Y-64338598D01*
X106211777Y-64356777D01*
X106193598Y-64373253D01*
X106173893Y-64387867D01*
X106152849Y-64400480D01*
X106130671Y-64410970D01*
X106107571Y-64419235D01*
X106083773Y-64425196D01*
X106059504Y-64428796D01*
X106035000Y-64430000D01*
X104785000Y-64430000D01*
X104760496Y-64428796D01*
X104736227Y-64425196D01*
X104712429Y-64419235D01*
X104689329Y-64410970D01*
X104667151Y-64400480D01*
X104646107Y-64387867D01*
X104626402Y-64373253D01*
X104608223Y-64356777D01*
X104591747Y-64338598D01*
X104577133Y-64318893D01*
X104564520Y-64297849D01*
X104554030Y-64275671D01*
X104545765Y-64252571D01*
X104539804Y-64228773D01*
X104536204Y-64204504D01*
X104535000Y-64180000D01*
X104535000Y-63255000D01*
X104536204Y-63230496D01*
X104539804Y-63206227D01*
X104545765Y-63182429D01*
X104554030Y-63159329D01*
X104564520Y-63137151D01*
X104577133Y-63116107D01*
X104591747Y-63096402D01*
X104608223Y-63078223D01*
X104626402Y-63061747D01*
X104646107Y-63047133D01*
X104667151Y-63034520D01*
X104689329Y-63024030D01*
X104712429Y-63015765D01*
X104736227Y-63009804D01*
X104760496Y-63006204D01*
X104785000Y-63005000D01*
X106035000Y-63005000D01*
X106059504Y-63006204D01*
X106059504Y-63006204D01*
G37*
D13*
X105410000Y-63717500D03*
D12*
G36*
X106059504Y-60031204D02*
G01*
X106083773Y-60034804D01*
X106107571Y-60040765D01*
X106130671Y-60049030D01*
X106152849Y-60059520D01*
X106173893Y-60072133D01*
X106193598Y-60086747D01*
X106211777Y-60103223D01*
X106228253Y-60121402D01*
X106242867Y-60141107D01*
X106255480Y-60162151D01*
X106265970Y-60184329D01*
X106274235Y-60207429D01*
X106280196Y-60231227D01*
X106283796Y-60255496D01*
X106285000Y-60280000D01*
X106285000Y-61205000D01*
X106283796Y-61229504D01*
X106280196Y-61253773D01*
X106274235Y-61277571D01*
X106265970Y-61300671D01*
X106255480Y-61322849D01*
X106242867Y-61343893D01*
X106228253Y-61363598D01*
X106211777Y-61381777D01*
X106193598Y-61398253D01*
X106173893Y-61412867D01*
X106152849Y-61425480D01*
X106130671Y-61435970D01*
X106107571Y-61444235D01*
X106083773Y-61450196D01*
X106059504Y-61453796D01*
X106035000Y-61455000D01*
X104785000Y-61455000D01*
X104760496Y-61453796D01*
X104736227Y-61450196D01*
X104712429Y-61444235D01*
X104689329Y-61435970D01*
X104667151Y-61425480D01*
X104646107Y-61412867D01*
X104626402Y-61398253D01*
X104608223Y-61381777D01*
X104591747Y-61363598D01*
X104577133Y-61343893D01*
X104564520Y-61322849D01*
X104554030Y-61300671D01*
X104545765Y-61277571D01*
X104539804Y-61253773D01*
X104536204Y-61229504D01*
X104535000Y-61205000D01*
X104535000Y-60280000D01*
X104536204Y-60255496D01*
X104539804Y-60231227D01*
X104545765Y-60207429D01*
X104554030Y-60184329D01*
X104564520Y-60162151D01*
X104577133Y-60141107D01*
X104591747Y-60121402D01*
X104608223Y-60103223D01*
X104626402Y-60086747D01*
X104646107Y-60072133D01*
X104667151Y-60059520D01*
X104689329Y-60049030D01*
X104712429Y-60040765D01*
X104736227Y-60034804D01*
X104760496Y-60031204D01*
X104785000Y-60030000D01*
X106035000Y-60030000D01*
X106059504Y-60031204D01*
X106059504Y-60031204D01*
G37*
D13*
X105410000Y-60742500D03*
D12*
G36*
X79969505Y-97091204D02*
G01*
X79993773Y-97094804D01*
X80017572Y-97100765D01*
X80040671Y-97109030D01*
X80062850Y-97119520D01*
X80083893Y-97132132D01*
X80103599Y-97146747D01*
X80121777Y-97163223D01*
X80138253Y-97181401D01*
X80152868Y-97201107D01*
X80165480Y-97222150D01*
X80175970Y-97244329D01*
X80184235Y-97267428D01*
X80190196Y-97291227D01*
X80193796Y-97315495D01*
X80195000Y-97339999D01*
X80195000Y-98240001D01*
X80193796Y-98264505D01*
X80190196Y-98288773D01*
X80184235Y-98312572D01*
X80175970Y-98335671D01*
X80165480Y-98357850D01*
X80152868Y-98378893D01*
X80138253Y-98398599D01*
X80121777Y-98416777D01*
X80103599Y-98433253D01*
X80083893Y-98447868D01*
X80062850Y-98460480D01*
X80040671Y-98470970D01*
X80017572Y-98479235D01*
X79993773Y-98485196D01*
X79969505Y-98488796D01*
X79945001Y-98490000D01*
X79294999Y-98490000D01*
X79270495Y-98488796D01*
X79246227Y-98485196D01*
X79222428Y-98479235D01*
X79199329Y-98470970D01*
X79177150Y-98460480D01*
X79156107Y-98447868D01*
X79136401Y-98433253D01*
X79118223Y-98416777D01*
X79101747Y-98398599D01*
X79087132Y-98378893D01*
X79074520Y-98357850D01*
X79064030Y-98335671D01*
X79055765Y-98312572D01*
X79049804Y-98288773D01*
X79046204Y-98264505D01*
X79045000Y-98240001D01*
X79045000Y-97339999D01*
X79046204Y-97315495D01*
X79049804Y-97291227D01*
X79055765Y-97267428D01*
X79064030Y-97244329D01*
X79074520Y-97222150D01*
X79087132Y-97201107D01*
X79101747Y-97181401D01*
X79118223Y-97163223D01*
X79136401Y-97146747D01*
X79156107Y-97132132D01*
X79177150Y-97119520D01*
X79199329Y-97109030D01*
X79222428Y-97100765D01*
X79246227Y-97094804D01*
X79270495Y-97091204D01*
X79294999Y-97090000D01*
X79945001Y-97090000D01*
X79969505Y-97091204D01*
X79969505Y-97091204D01*
G37*
D14*
X79620000Y-97790000D03*
D12*
G36*
X82019505Y-97091204D02*
G01*
X82043773Y-97094804D01*
X82067572Y-97100765D01*
X82090671Y-97109030D01*
X82112850Y-97119520D01*
X82133893Y-97132132D01*
X82153599Y-97146747D01*
X82171777Y-97163223D01*
X82188253Y-97181401D01*
X82202868Y-97201107D01*
X82215480Y-97222150D01*
X82225970Y-97244329D01*
X82234235Y-97267428D01*
X82240196Y-97291227D01*
X82243796Y-97315495D01*
X82245000Y-97339999D01*
X82245000Y-98240001D01*
X82243796Y-98264505D01*
X82240196Y-98288773D01*
X82234235Y-98312572D01*
X82225970Y-98335671D01*
X82215480Y-98357850D01*
X82202868Y-98378893D01*
X82188253Y-98398599D01*
X82171777Y-98416777D01*
X82153599Y-98433253D01*
X82133893Y-98447868D01*
X82112850Y-98460480D01*
X82090671Y-98470970D01*
X82067572Y-98479235D01*
X82043773Y-98485196D01*
X82019505Y-98488796D01*
X81995001Y-98490000D01*
X81344999Y-98490000D01*
X81320495Y-98488796D01*
X81296227Y-98485196D01*
X81272428Y-98479235D01*
X81249329Y-98470970D01*
X81227150Y-98460480D01*
X81206107Y-98447868D01*
X81186401Y-98433253D01*
X81168223Y-98416777D01*
X81151747Y-98398599D01*
X81137132Y-98378893D01*
X81124520Y-98357850D01*
X81114030Y-98335671D01*
X81105765Y-98312572D01*
X81099804Y-98288773D01*
X81096204Y-98264505D01*
X81095000Y-98240001D01*
X81095000Y-97339999D01*
X81096204Y-97315495D01*
X81099804Y-97291227D01*
X81105765Y-97267428D01*
X81114030Y-97244329D01*
X81124520Y-97222150D01*
X81137132Y-97201107D01*
X81151747Y-97181401D01*
X81168223Y-97163223D01*
X81186401Y-97146747D01*
X81206107Y-97132132D01*
X81227150Y-97119520D01*
X81249329Y-97109030D01*
X81272428Y-97100765D01*
X81296227Y-97094804D01*
X81320495Y-97091204D01*
X81344999Y-97090000D01*
X81995001Y-97090000D01*
X82019505Y-97091204D01*
X82019505Y-97091204D01*
G37*
D14*
X81670000Y-97790000D03*
D12*
G36*
X82019505Y-92646204D02*
G01*
X82043773Y-92649804D01*
X82067572Y-92655765D01*
X82090671Y-92664030D01*
X82112850Y-92674520D01*
X82133893Y-92687132D01*
X82153599Y-92701747D01*
X82171777Y-92718223D01*
X82188253Y-92736401D01*
X82202868Y-92756107D01*
X82215480Y-92777150D01*
X82225970Y-92799329D01*
X82234235Y-92822428D01*
X82240196Y-92846227D01*
X82243796Y-92870495D01*
X82245000Y-92894999D01*
X82245000Y-93795001D01*
X82243796Y-93819505D01*
X82240196Y-93843773D01*
X82234235Y-93867572D01*
X82225970Y-93890671D01*
X82215480Y-93912850D01*
X82202868Y-93933893D01*
X82188253Y-93953599D01*
X82171777Y-93971777D01*
X82153599Y-93988253D01*
X82133893Y-94002868D01*
X82112850Y-94015480D01*
X82090671Y-94025970D01*
X82067572Y-94034235D01*
X82043773Y-94040196D01*
X82019505Y-94043796D01*
X81995001Y-94045000D01*
X81344999Y-94045000D01*
X81320495Y-94043796D01*
X81296227Y-94040196D01*
X81272428Y-94034235D01*
X81249329Y-94025970D01*
X81227150Y-94015480D01*
X81206107Y-94002868D01*
X81186401Y-93988253D01*
X81168223Y-93971777D01*
X81151747Y-93953599D01*
X81137132Y-93933893D01*
X81124520Y-93912850D01*
X81114030Y-93890671D01*
X81105765Y-93867572D01*
X81099804Y-93843773D01*
X81096204Y-93819505D01*
X81095000Y-93795001D01*
X81095000Y-92894999D01*
X81096204Y-92870495D01*
X81099804Y-92846227D01*
X81105765Y-92822428D01*
X81114030Y-92799329D01*
X81124520Y-92777150D01*
X81137132Y-92756107D01*
X81151747Y-92736401D01*
X81168223Y-92718223D01*
X81186401Y-92701747D01*
X81206107Y-92687132D01*
X81227150Y-92674520D01*
X81249329Y-92664030D01*
X81272428Y-92655765D01*
X81296227Y-92649804D01*
X81320495Y-92646204D01*
X81344999Y-92645000D01*
X81995001Y-92645000D01*
X82019505Y-92646204D01*
X82019505Y-92646204D01*
G37*
D14*
X81670000Y-93345000D03*
D12*
G36*
X79969505Y-92646204D02*
G01*
X79993773Y-92649804D01*
X80017572Y-92655765D01*
X80040671Y-92664030D01*
X80062850Y-92674520D01*
X80083893Y-92687132D01*
X80103599Y-92701747D01*
X80121777Y-92718223D01*
X80138253Y-92736401D01*
X80152868Y-92756107D01*
X80165480Y-92777150D01*
X80175970Y-92799329D01*
X80184235Y-92822428D01*
X80190196Y-92846227D01*
X80193796Y-92870495D01*
X80195000Y-92894999D01*
X80195000Y-93795001D01*
X80193796Y-93819505D01*
X80190196Y-93843773D01*
X80184235Y-93867572D01*
X80175970Y-93890671D01*
X80165480Y-93912850D01*
X80152868Y-93933893D01*
X80138253Y-93953599D01*
X80121777Y-93971777D01*
X80103599Y-93988253D01*
X80083893Y-94002868D01*
X80062850Y-94015480D01*
X80040671Y-94025970D01*
X80017572Y-94034235D01*
X79993773Y-94040196D01*
X79969505Y-94043796D01*
X79945001Y-94045000D01*
X79294999Y-94045000D01*
X79270495Y-94043796D01*
X79246227Y-94040196D01*
X79222428Y-94034235D01*
X79199329Y-94025970D01*
X79177150Y-94015480D01*
X79156107Y-94002868D01*
X79136401Y-93988253D01*
X79118223Y-93971777D01*
X79101747Y-93953599D01*
X79087132Y-93933893D01*
X79074520Y-93912850D01*
X79064030Y-93890671D01*
X79055765Y-93867572D01*
X79049804Y-93843773D01*
X79046204Y-93819505D01*
X79045000Y-93795001D01*
X79045000Y-92894999D01*
X79046204Y-92870495D01*
X79049804Y-92846227D01*
X79055765Y-92822428D01*
X79064030Y-92799329D01*
X79074520Y-92777150D01*
X79087132Y-92756107D01*
X79101747Y-92736401D01*
X79118223Y-92718223D01*
X79136401Y-92701747D01*
X79156107Y-92687132D01*
X79177150Y-92674520D01*
X79199329Y-92664030D01*
X79222428Y-92655765D01*
X79246227Y-92649804D01*
X79270495Y-92646204D01*
X79294999Y-92645000D01*
X79945001Y-92645000D01*
X79969505Y-92646204D01*
X79969505Y-92646204D01*
G37*
D14*
X79620000Y-93345000D03*
D12*
G36*
X90644505Y-63951204D02*
G01*
X90668773Y-63954804D01*
X90692572Y-63960765D01*
X90715671Y-63969030D01*
X90737850Y-63979520D01*
X90758893Y-63992132D01*
X90778599Y-64006747D01*
X90796777Y-64023223D01*
X90813253Y-64041401D01*
X90827868Y-64061107D01*
X90840480Y-64082150D01*
X90850970Y-64104329D01*
X90859235Y-64127428D01*
X90865196Y-64151227D01*
X90868796Y-64175495D01*
X90870000Y-64199999D01*
X90870000Y-64850001D01*
X90868796Y-64874505D01*
X90865196Y-64898773D01*
X90859235Y-64922572D01*
X90850970Y-64945671D01*
X90840480Y-64967850D01*
X90827868Y-64988893D01*
X90813253Y-65008599D01*
X90796777Y-65026777D01*
X90778599Y-65043253D01*
X90758893Y-65057868D01*
X90737850Y-65070480D01*
X90715671Y-65080970D01*
X90692572Y-65089235D01*
X90668773Y-65095196D01*
X90644505Y-65098796D01*
X90620001Y-65100000D01*
X89719999Y-65100000D01*
X89695495Y-65098796D01*
X89671227Y-65095196D01*
X89647428Y-65089235D01*
X89624329Y-65080970D01*
X89602150Y-65070480D01*
X89581107Y-65057868D01*
X89561401Y-65043253D01*
X89543223Y-65026777D01*
X89526747Y-65008599D01*
X89512132Y-64988893D01*
X89499520Y-64967850D01*
X89489030Y-64945671D01*
X89480765Y-64922572D01*
X89474804Y-64898773D01*
X89471204Y-64874505D01*
X89470000Y-64850001D01*
X89470000Y-64199999D01*
X89471204Y-64175495D01*
X89474804Y-64151227D01*
X89480765Y-64127428D01*
X89489030Y-64104329D01*
X89499520Y-64082150D01*
X89512132Y-64061107D01*
X89526747Y-64041401D01*
X89543223Y-64023223D01*
X89561401Y-64006747D01*
X89581107Y-63992132D01*
X89602150Y-63979520D01*
X89624329Y-63969030D01*
X89647428Y-63960765D01*
X89671227Y-63954804D01*
X89695495Y-63951204D01*
X89719999Y-63950000D01*
X90620001Y-63950000D01*
X90644505Y-63951204D01*
X90644505Y-63951204D01*
G37*
D14*
X90170000Y-64525000D03*
D12*
G36*
X90644505Y-61901204D02*
G01*
X90668773Y-61904804D01*
X90692572Y-61910765D01*
X90715671Y-61919030D01*
X90737850Y-61929520D01*
X90758893Y-61942132D01*
X90778599Y-61956747D01*
X90796777Y-61973223D01*
X90813253Y-61991401D01*
X90827868Y-62011107D01*
X90840480Y-62032150D01*
X90850970Y-62054329D01*
X90859235Y-62077428D01*
X90865196Y-62101227D01*
X90868796Y-62125495D01*
X90870000Y-62149999D01*
X90870000Y-62800001D01*
X90868796Y-62824505D01*
X90865196Y-62848773D01*
X90859235Y-62872572D01*
X90850970Y-62895671D01*
X90840480Y-62917850D01*
X90827868Y-62938893D01*
X90813253Y-62958599D01*
X90796777Y-62976777D01*
X90778599Y-62993253D01*
X90758893Y-63007868D01*
X90737850Y-63020480D01*
X90715671Y-63030970D01*
X90692572Y-63039235D01*
X90668773Y-63045196D01*
X90644505Y-63048796D01*
X90620001Y-63050000D01*
X89719999Y-63050000D01*
X89695495Y-63048796D01*
X89671227Y-63045196D01*
X89647428Y-63039235D01*
X89624329Y-63030970D01*
X89602150Y-63020480D01*
X89581107Y-63007868D01*
X89561401Y-62993253D01*
X89543223Y-62976777D01*
X89526747Y-62958599D01*
X89512132Y-62938893D01*
X89499520Y-62917850D01*
X89489030Y-62895671D01*
X89480765Y-62872572D01*
X89474804Y-62848773D01*
X89471204Y-62824505D01*
X89470000Y-62800001D01*
X89470000Y-62149999D01*
X89471204Y-62125495D01*
X89474804Y-62101227D01*
X89480765Y-62077428D01*
X89489030Y-62054329D01*
X89499520Y-62032150D01*
X89512132Y-62011107D01*
X89526747Y-61991401D01*
X89543223Y-61973223D01*
X89561401Y-61956747D01*
X89581107Y-61942132D01*
X89602150Y-61929520D01*
X89624329Y-61919030D01*
X89647428Y-61910765D01*
X89671227Y-61904804D01*
X89695495Y-61901204D01*
X89719999Y-61900000D01*
X90620001Y-61900000D01*
X90644505Y-61901204D01*
X90644505Y-61901204D01*
G37*
D14*
X90170000Y-62475000D03*
D12*
G36*
X86834505Y-63951204D02*
G01*
X86858773Y-63954804D01*
X86882572Y-63960765D01*
X86905671Y-63969030D01*
X86927850Y-63979520D01*
X86948893Y-63992132D01*
X86968599Y-64006747D01*
X86986777Y-64023223D01*
X87003253Y-64041401D01*
X87017868Y-64061107D01*
X87030480Y-64082150D01*
X87040970Y-64104329D01*
X87049235Y-64127428D01*
X87055196Y-64151227D01*
X87058796Y-64175495D01*
X87060000Y-64199999D01*
X87060000Y-64850001D01*
X87058796Y-64874505D01*
X87055196Y-64898773D01*
X87049235Y-64922572D01*
X87040970Y-64945671D01*
X87030480Y-64967850D01*
X87017868Y-64988893D01*
X87003253Y-65008599D01*
X86986777Y-65026777D01*
X86968599Y-65043253D01*
X86948893Y-65057868D01*
X86927850Y-65070480D01*
X86905671Y-65080970D01*
X86882572Y-65089235D01*
X86858773Y-65095196D01*
X86834505Y-65098796D01*
X86810001Y-65100000D01*
X85909999Y-65100000D01*
X85885495Y-65098796D01*
X85861227Y-65095196D01*
X85837428Y-65089235D01*
X85814329Y-65080970D01*
X85792150Y-65070480D01*
X85771107Y-65057868D01*
X85751401Y-65043253D01*
X85733223Y-65026777D01*
X85716747Y-65008599D01*
X85702132Y-64988893D01*
X85689520Y-64967850D01*
X85679030Y-64945671D01*
X85670765Y-64922572D01*
X85664804Y-64898773D01*
X85661204Y-64874505D01*
X85660000Y-64850001D01*
X85660000Y-64199999D01*
X85661204Y-64175495D01*
X85664804Y-64151227D01*
X85670765Y-64127428D01*
X85679030Y-64104329D01*
X85689520Y-64082150D01*
X85702132Y-64061107D01*
X85716747Y-64041401D01*
X85733223Y-64023223D01*
X85751401Y-64006747D01*
X85771107Y-63992132D01*
X85792150Y-63979520D01*
X85814329Y-63969030D01*
X85837428Y-63960765D01*
X85861227Y-63954804D01*
X85885495Y-63951204D01*
X85909999Y-63950000D01*
X86810001Y-63950000D01*
X86834505Y-63951204D01*
X86834505Y-63951204D01*
G37*
D14*
X86360000Y-64525000D03*
D12*
G36*
X86834505Y-61901204D02*
G01*
X86858773Y-61904804D01*
X86882572Y-61910765D01*
X86905671Y-61919030D01*
X86927850Y-61929520D01*
X86948893Y-61942132D01*
X86968599Y-61956747D01*
X86986777Y-61973223D01*
X87003253Y-61991401D01*
X87017868Y-62011107D01*
X87030480Y-62032150D01*
X87040970Y-62054329D01*
X87049235Y-62077428D01*
X87055196Y-62101227D01*
X87058796Y-62125495D01*
X87060000Y-62149999D01*
X87060000Y-62800001D01*
X87058796Y-62824505D01*
X87055196Y-62848773D01*
X87049235Y-62872572D01*
X87040970Y-62895671D01*
X87030480Y-62917850D01*
X87017868Y-62938893D01*
X87003253Y-62958599D01*
X86986777Y-62976777D01*
X86968599Y-62993253D01*
X86948893Y-63007868D01*
X86927850Y-63020480D01*
X86905671Y-63030970D01*
X86882572Y-63039235D01*
X86858773Y-63045196D01*
X86834505Y-63048796D01*
X86810001Y-63050000D01*
X85909999Y-63050000D01*
X85885495Y-63048796D01*
X85861227Y-63045196D01*
X85837428Y-63039235D01*
X85814329Y-63030970D01*
X85792150Y-63020480D01*
X85771107Y-63007868D01*
X85751401Y-62993253D01*
X85733223Y-62976777D01*
X85716747Y-62958599D01*
X85702132Y-62938893D01*
X85689520Y-62917850D01*
X85679030Y-62895671D01*
X85670765Y-62872572D01*
X85664804Y-62848773D01*
X85661204Y-62824505D01*
X85660000Y-62800001D01*
X85660000Y-62149999D01*
X85661204Y-62125495D01*
X85664804Y-62101227D01*
X85670765Y-62077428D01*
X85679030Y-62054329D01*
X85689520Y-62032150D01*
X85702132Y-62011107D01*
X85716747Y-61991401D01*
X85733223Y-61973223D01*
X85751401Y-61956747D01*
X85771107Y-61942132D01*
X85792150Y-61929520D01*
X85814329Y-61919030D01*
X85837428Y-61910765D01*
X85861227Y-61904804D01*
X85885495Y-61901204D01*
X85909999Y-61900000D01*
X86810001Y-61900000D01*
X86834505Y-61901204D01*
X86834505Y-61901204D01*
G37*
D14*
X86360000Y-62475000D03*
D12*
G36*
X83024505Y-63951204D02*
G01*
X83048773Y-63954804D01*
X83072572Y-63960765D01*
X83095671Y-63969030D01*
X83117850Y-63979520D01*
X83138893Y-63992132D01*
X83158599Y-64006747D01*
X83176777Y-64023223D01*
X83193253Y-64041401D01*
X83207868Y-64061107D01*
X83220480Y-64082150D01*
X83230970Y-64104329D01*
X83239235Y-64127428D01*
X83245196Y-64151227D01*
X83248796Y-64175495D01*
X83250000Y-64199999D01*
X83250000Y-64850001D01*
X83248796Y-64874505D01*
X83245196Y-64898773D01*
X83239235Y-64922572D01*
X83230970Y-64945671D01*
X83220480Y-64967850D01*
X83207868Y-64988893D01*
X83193253Y-65008599D01*
X83176777Y-65026777D01*
X83158599Y-65043253D01*
X83138893Y-65057868D01*
X83117850Y-65070480D01*
X83095671Y-65080970D01*
X83072572Y-65089235D01*
X83048773Y-65095196D01*
X83024505Y-65098796D01*
X83000001Y-65100000D01*
X82099999Y-65100000D01*
X82075495Y-65098796D01*
X82051227Y-65095196D01*
X82027428Y-65089235D01*
X82004329Y-65080970D01*
X81982150Y-65070480D01*
X81961107Y-65057868D01*
X81941401Y-65043253D01*
X81923223Y-65026777D01*
X81906747Y-65008599D01*
X81892132Y-64988893D01*
X81879520Y-64967850D01*
X81869030Y-64945671D01*
X81860765Y-64922572D01*
X81854804Y-64898773D01*
X81851204Y-64874505D01*
X81850000Y-64850001D01*
X81850000Y-64199999D01*
X81851204Y-64175495D01*
X81854804Y-64151227D01*
X81860765Y-64127428D01*
X81869030Y-64104329D01*
X81879520Y-64082150D01*
X81892132Y-64061107D01*
X81906747Y-64041401D01*
X81923223Y-64023223D01*
X81941401Y-64006747D01*
X81961107Y-63992132D01*
X81982150Y-63979520D01*
X82004329Y-63969030D01*
X82027428Y-63960765D01*
X82051227Y-63954804D01*
X82075495Y-63951204D01*
X82099999Y-63950000D01*
X83000001Y-63950000D01*
X83024505Y-63951204D01*
X83024505Y-63951204D01*
G37*
D14*
X82550000Y-64525000D03*
D12*
G36*
X83024505Y-61901204D02*
G01*
X83048773Y-61904804D01*
X83072572Y-61910765D01*
X83095671Y-61919030D01*
X83117850Y-61929520D01*
X83138893Y-61942132D01*
X83158599Y-61956747D01*
X83176777Y-61973223D01*
X83193253Y-61991401D01*
X83207868Y-62011107D01*
X83220480Y-62032150D01*
X83230970Y-62054329D01*
X83239235Y-62077428D01*
X83245196Y-62101227D01*
X83248796Y-62125495D01*
X83250000Y-62149999D01*
X83250000Y-62800001D01*
X83248796Y-62824505D01*
X83245196Y-62848773D01*
X83239235Y-62872572D01*
X83230970Y-62895671D01*
X83220480Y-62917850D01*
X83207868Y-62938893D01*
X83193253Y-62958599D01*
X83176777Y-62976777D01*
X83158599Y-62993253D01*
X83138893Y-63007868D01*
X83117850Y-63020480D01*
X83095671Y-63030970D01*
X83072572Y-63039235D01*
X83048773Y-63045196D01*
X83024505Y-63048796D01*
X83000001Y-63050000D01*
X82099999Y-63050000D01*
X82075495Y-63048796D01*
X82051227Y-63045196D01*
X82027428Y-63039235D01*
X82004329Y-63030970D01*
X81982150Y-63020480D01*
X81961107Y-63007868D01*
X81941401Y-62993253D01*
X81923223Y-62976777D01*
X81906747Y-62958599D01*
X81892132Y-62938893D01*
X81879520Y-62917850D01*
X81869030Y-62895671D01*
X81860765Y-62872572D01*
X81854804Y-62848773D01*
X81851204Y-62824505D01*
X81850000Y-62800001D01*
X81850000Y-62149999D01*
X81851204Y-62125495D01*
X81854804Y-62101227D01*
X81860765Y-62077428D01*
X81869030Y-62054329D01*
X81879520Y-62032150D01*
X81892132Y-62011107D01*
X81906747Y-61991401D01*
X81923223Y-61973223D01*
X81941401Y-61956747D01*
X81961107Y-61942132D01*
X81982150Y-61929520D01*
X82004329Y-61919030D01*
X82027428Y-61910765D01*
X82051227Y-61904804D01*
X82075495Y-61901204D01*
X82099999Y-61900000D01*
X83000001Y-61900000D01*
X83024505Y-61901204D01*
X83024505Y-61901204D01*
G37*
D14*
X82550000Y-62475000D03*
D12*
G36*
X79214505Y-63951204D02*
G01*
X79238773Y-63954804D01*
X79262572Y-63960765D01*
X79285671Y-63969030D01*
X79307850Y-63979520D01*
X79328893Y-63992132D01*
X79348599Y-64006747D01*
X79366777Y-64023223D01*
X79383253Y-64041401D01*
X79397868Y-64061107D01*
X79410480Y-64082150D01*
X79420970Y-64104329D01*
X79429235Y-64127428D01*
X79435196Y-64151227D01*
X79438796Y-64175495D01*
X79440000Y-64199999D01*
X79440000Y-64850001D01*
X79438796Y-64874505D01*
X79435196Y-64898773D01*
X79429235Y-64922572D01*
X79420970Y-64945671D01*
X79410480Y-64967850D01*
X79397868Y-64988893D01*
X79383253Y-65008599D01*
X79366777Y-65026777D01*
X79348599Y-65043253D01*
X79328893Y-65057868D01*
X79307850Y-65070480D01*
X79285671Y-65080970D01*
X79262572Y-65089235D01*
X79238773Y-65095196D01*
X79214505Y-65098796D01*
X79190001Y-65100000D01*
X78289999Y-65100000D01*
X78265495Y-65098796D01*
X78241227Y-65095196D01*
X78217428Y-65089235D01*
X78194329Y-65080970D01*
X78172150Y-65070480D01*
X78151107Y-65057868D01*
X78131401Y-65043253D01*
X78113223Y-65026777D01*
X78096747Y-65008599D01*
X78082132Y-64988893D01*
X78069520Y-64967850D01*
X78059030Y-64945671D01*
X78050765Y-64922572D01*
X78044804Y-64898773D01*
X78041204Y-64874505D01*
X78040000Y-64850001D01*
X78040000Y-64199999D01*
X78041204Y-64175495D01*
X78044804Y-64151227D01*
X78050765Y-64127428D01*
X78059030Y-64104329D01*
X78069520Y-64082150D01*
X78082132Y-64061107D01*
X78096747Y-64041401D01*
X78113223Y-64023223D01*
X78131401Y-64006747D01*
X78151107Y-63992132D01*
X78172150Y-63979520D01*
X78194329Y-63969030D01*
X78217428Y-63960765D01*
X78241227Y-63954804D01*
X78265495Y-63951204D01*
X78289999Y-63950000D01*
X79190001Y-63950000D01*
X79214505Y-63951204D01*
X79214505Y-63951204D01*
G37*
D14*
X78740000Y-64525000D03*
D12*
G36*
X79214505Y-61901204D02*
G01*
X79238773Y-61904804D01*
X79262572Y-61910765D01*
X79285671Y-61919030D01*
X79307850Y-61929520D01*
X79328893Y-61942132D01*
X79348599Y-61956747D01*
X79366777Y-61973223D01*
X79383253Y-61991401D01*
X79397868Y-62011107D01*
X79410480Y-62032150D01*
X79420970Y-62054329D01*
X79429235Y-62077428D01*
X79435196Y-62101227D01*
X79438796Y-62125495D01*
X79440000Y-62149999D01*
X79440000Y-62800001D01*
X79438796Y-62824505D01*
X79435196Y-62848773D01*
X79429235Y-62872572D01*
X79420970Y-62895671D01*
X79410480Y-62917850D01*
X79397868Y-62938893D01*
X79383253Y-62958599D01*
X79366777Y-62976777D01*
X79348599Y-62993253D01*
X79328893Y-63007868D01*
X79307850Y-63020480D01*
X79285671Y-63030970D01*
X79262572Y-63039235D01*
X79238773Y-63045196D01*
X79214505Y-63048796D01*
X79190001Y-63050000D01*
X78289999Y-63050000D01*
X78265495Y-63048796D01*
X78241227Y-63045196D01*
X78217428Y-63039235D01*
X78194329Y-63030970D01*
X78172150Y-63020480D01*
X78151107Y-63007868D01*
X78131401Y-62993253D01*
X78113223Y-62976777D01*
X78096747Y-62958599D01*
X78082132Y-62938893D01*
X78069520Y-62917850D01*
X78059030Y-62895671D01*
X78050765Y-62872572D01*
X78044804Y-62848773D01*
X78041204Y-62824505D01*
X78040000Y-62800001D01*
X78040000Y-62149999D01*
X78041204Y-62125495D01*
X78044804Y-62101227D01*
X78050765Y-62077428D01*
X78059030Y-62054329D01*
X78069520Y-62032150D01*
X78082132Y-62011107D01*
X78096747Y-61991401D01*
X78113223Y-61973223D01*
X78131401Y-61956747D01*
X78151107Y-61942132D01*
X78172150Y-61929520D01*
X78194329Y-61919030D01*
X78217428Y-61910765D01*
X78241227Y-61904804D01*
X78265495Y-61901204D01*
X78289999Y-61900000D01*
X79190001Y-61900000D01*
X79214505Y-61901204D01*
X79214505Y-61901204D01*
G37*
D14*
X78740000Y-62475000D03*
D12*
G36*
X141564505Y-136461204D02*
G01*
X141588773Y-136464804D01*
X141612572Y-136470765D01*
X141635671Y-136479030D01*
X141657850Y-136489520D01*
X141678893Y-136502132D01*
X141698599Y-136516747D01*
X141716777Y-136533223D01*
X141733253Y-136551401D01*
X141747868Y-136571107D01*
X141760480Y-136592150D01*
X141770970Y-136614329D01*
X141779235Y-136637428D01*
X141785196Y-136661227D01*
X141788796Y-136685495D01*
X141790000Y-136709999D01*
X141790000Y-137610001D01*
X141788796Y-137634505D01*
X141785196Y-137658773D01*
X141779235Y-137682572D01*
X141770970Y-137705671D01*
X141760480Y-137727850D01*
X141747868Y-137748893D01*
X141733253Y-137768599D01*
X141716777Y-137786777D01*
X141698599Y-137803253D01*
X141678893Y-137817868D01*
X141657850Y-137830480D01*
X141635671Y-137840970D01*
X141612572Y-137849235D01*
X141588773Y-137855196D01*
X141564505Y-137858796D01*
X141540001Y-137860000D01*
X140889999Y-137860000D01*
X140865495Y-137858796D01*
X140841227Y-137855196D01*
X140817428Y-137849235D01*
X140794329Y-137840970D01*
X140772150Y-137830480D01*
X140751107Y-137817868D01*
X140731401Y-137803253D01*
X140713223Y-137786777D01*
X140696747Y-137768599D01*
X140682132Y-137748893D01*
X140669520Y-137727850D01*
X140659030Y-137705671D01*
X140650765Y-137682572D01*
X140644804Y-137658773D01*
X140641204Y-137634505D01*
X140640000Y-137610001D01*
X140640000Y-136709999D01*
X140641204Y-136685495D01*
X140644804Y-136661227D01*
X140650765Y-136637428D01*
X140659030Y-136614329D01*
X140669520Y-136592150D01*
X140682132Y-136571107D01*
X140696747Y-136551401D01*
X140713223Y-136533223D01*
X140731401Y-136516747D01*
X140751107Y-136502132D01*
X140772150Y-136489520D01*
X140794329Y-136479030D01*
X140817428Y-136470765D01*
X140841227Y-136464804D01*
X140865495Y-136461204D01*
X140889999Y-136460000D01*
X141540001Y-136460000D01*
X141564505Y-136461204D01*
X141564505Y-136461204D01*
G37*
D14*
X141215000Y-137160000D03*
D12*
G36*
X143614505Y-136461204D02*
G01*
X143638773Y-136464804D01*
X143662572Y-136470765D01*
X143685671Y-136479030D01*
X143707850Y-136489520D01*
X143728893Y-136502132D01*
X143748599Y-136516747D01*
X143766777Y-136533223D01*
X143783253Y-136551401D01*
X143797868Y-136571107D01*
X143810480Y-136592150D01*
X143820970Y-136614329D01*
X143829235Y-136637428D01*
X143835196Y-136661227D01*
X143838796Y-136685495D01*
X143840000Y-136709999D01*
X143840000Y-137610001D01*
X143838796Y-137634505D01*
X143835196Y-137658773D01*
X143829235Y-137682572D01*
X143820970Y-137705671D01*
X143810480Y-137727850D01*
X143797868Y-137748893D01*
X143783253Y-137768599D01*
X143766777Y-137786777D01*
X143748599Y-137803253D01*
X143728893Y-137817868D01*
X143707850Y-137830480D01*
X143685671Y-137840970D01*
X143662572Y-137849235D01*
X143638773Y-137855196D01*
X143614505Y-137858796D01*
X143590001Y-137860000D01*
X142939999Y-137860000D01*
X142915495Y-137858796D01*
X142891227Y-137855196D01*
X142867428Y-137849235D01*
X142844329Y-137840970D01*
X142822150Y-137830480D01*
X142801107Y-137817868D01*
X142781401Y-137803253D01*
X142763223Y-137786777D01*
X142746747Y-137768599D01*
X142732132Y-137748893D01*
X142719520Y-137727850D01*
X142709030Y-137705671D01*
X142700765Y-137682572D01*
X142694804Y-137658773D01*
X142691204Y-137634505D01*
X142690000Y-137610001D01*
X142690000Y-136709999D01*
X142691204Y-136685495D01*
X142694804Y-136661227D01*
X142700765Y-136637428D01*
X142709030Y-136614329D01*
X142719520Y-136592150D01*
X142732132Y-136571107D01*
X142746747Y-136551401D01*
X142763223Y-136533223D01*
X142781401Y-136516747D01*
X142801107Y-136502132D01*
X142822150Y-136489520D01*
X142844329Y-136479030D01*
X142867428Y-136470765D01*
X142891227Y-136464804D01*
X142915495Y-136461204D01*
X142939999Y-136460000D01*
X143590001Y-136460000D01*
X143614505Y-136461204D01*
X143614505Y-136461204D01*
G37*
D14*
X143265000Y-137160000D03*
D12*
G36*
X141564505Y-141541204D02*
G01*
X141588773Y-141544804D01*
X141612572Y-141550765D01*
X141635671Y-141559030D01*
X141657850Y-141569520D01*
X141678893Y-141582132D01*
X141698599Y-141596747D01*
X141716777Y-141613223D01*
X141733253Y-141631401D01*
X141747868Y-141651107D01*
X141760480Y-141672150D01*
X141770970Y-141694329D01*
X141779235Y-141717428D01*
X141785196Y-141741227D01*
X141788796Y-141765495D01*
X141790000Y-141789999D01*
X141790000Y-142690001D01*
X141788796Y-142714505D01*
X141785196Y-142738773D01*
X141779235Y-142762572D01*
X141770970Y-142785671D01*
X141760480Y-142807850D01*
X141747868Y-142828893D01*
X141733253Y-142848599D01*
X141716777Y-142866777D01*
X141698599Y-142883253D01*
X141678893Y-142897868D01*
X141657850Y-142910480D01*
X141635671Y-142920970D01*
X141612572Y-142929235D01*
X141588773Y-142935196D01*
X141564505Y-142938796D01*
X141540001Y-142940000D01*
X140889999Y-142940000D01*
X140865495Y-142938796D01*
X140841227Y-142935196D01*
X140817428Y-142929235D01*
X140794329Y-142920970D01*
X140772150Y-142910480D01*
X140751107Y-142897868D01*
X140731401Y-142883253D01*
X140713223Y-142866777D01*
X140696747Y-142848599D01*
X140682132Y-142828893D01*
X140669520Y-142807850D01*
X140659030Y-142785671D01*
X140650765Y-142762572D01*
X140644804Y-142738773D01*
X140641204Y-142714505D01*
X140640000Y-142690001D01*
X140640000Y-141789999D01*
X140641204Y-141765495D01*
X140644804Y-141741227D01*
X140650765Y-141717428D01*
X140659030Y-141694329D01*
X140669520Y-141672150D01*
X140682132Y-141651107D01*
X140696747Y-141631401D01*
X140713223Y-141613223D01*
X140731401Y-141596747D01*
X140751107Y-141582132D01*
X140772150Y-141569520D01*
X140794329Y-141559030D01*
X140817428Y-141550765D01*
X140841227Y-141544804D01*
X140865495Y-141541204D01*
X140889999Y-141540000D01*
X141540001Y-141540000D01*
X141564505Y-141541204D01*
X141564505Y-141541204D01*
G37*
D14*
X141215000Y-142240000D03*
D12*
G36*
X143614505Y-141541204D02*
G01*
X143638773Y-141544804D01*
X143662572Y-141550765D01*
X143685671Y-141559030D01*
X143707850Y-141569520D01*
X143728893Y-141582132D01*
X143748599Y-141596747D01*
X143766777Y-141613223D01*
X143783253Y-141631401D01*
X143797868Y-141651107D01*
X143810480Y-141672150D01*
X143820970Y-141694329D01*
X143829235Y-141717428D01*
X143835196Y-141741227D01*
X143838796Y-141765495D01*
X143840000Y-141789999D01*
X143840000Y-142690001D01*
X143838796Y-142714505D01*
X143835196Y-142738773D01*
X143829235Y-142762572D01*
X143820970Y-142785671D01*
X143810480Y-142807850D01*
X143797868Y-142828893D01*
X143783253Y-142848599D01*
X143766777Y-142866777D01*
X143748599Y-142883253D01*
X143728893Y-142897868D01*
X143707850Y-142910480D01*
X143685671Y-142920970D01*
X143662572Y-142929235D01*
X143638773Y-142935196D01*
X143614505Y-142938796D01*
X143590001Y-142940000D01*
X142939999Y-142940000D01*
X142915495Y-142938796D01*
X142891227Y-142935196D01*
X142867428Y-142929235D01*
X142844329Y-142920970D01*
X142822150Y-142910480D01*
X142801107Y-142897868D01*
X142781401Y-142883253D01*
X142763223Y-142866777D01*
X142746747Y-142848599D01*
X142732132Y-142828893D01*
X142719520Y-142807850D01*
X142709030Y-142785671D01*
X142700765Y-142762572D01*
X142694804Y-142738773D01*
X142691204Y-142714505D01*
X142690000Y-142690001D01*
X142690000Y-141789999D01*
X142691204Y-141765495D01*
X142694804Y-141741227D01*
X142700765Y-141717428D01*
X142709030Y-141694329D01*
X142719520Y-141672150D01*
X142732132Y-141651107D01*
X142746747Y-141631401D01*
X142763223Y-141613223D01*
X142781401Y-141596747D01*
X142801107Y-141582132D01*
X142822150Y-141569520D01*
X142844329Y-141559030D01*
X142867428Y-141550765D01*
X142891227Y-141544804D01*
X142915495Y-141541204D01*
X142939999Y-141540000D01*
X143590001Y-141540000D01*
X143614505Y-141541204D01*
X143614505Y-141541204D01*
G37*
D14*
X143265000Y-142240000D03*
D12*
G36*
X86834505Y-100781204D02*
G01*
X86858773Y-100784804D01*
X86882572Y-100790765D01*
X86905671Y-100799030D01*
X86927850Y-100809520D01*
X86948893Y-100822132D01*
X86968599Y-100836747D01*
X86986777Y-100853223D01*
X87003253Y-100871401D01*
X87017868Y-100891107D01*
X87030480Y-100912150D01*
X87040970Y-100934329D01*
X87049235Y-100957428D01*
X87055196Y-100981227D01*
X87058796Y-101005495D01*
X87060000Y-101029999D01*
X87060000Y-101680001D01*
X87058796Y-101704505D01*
X87055196Y-101728773D01*
X87049235Y-101752572D01*
X87040970Y-101775671D01*
X87030480Y-101797850D01*
X87017868Y-101818893D01*
X87003253Y-101838599D01*
X86986777Y-101856777D01*
X86968599Y-101873253D01*
X86948893Y-101887868D01*
X86927850Y-101900480D01*
X86905671Y-101910970D01*
X86882572Y-101919235D01*
X86858773Y-101925196D01*
X86834505Y-101928796D01*
X86810001Y-101930000D01*
X85909999Y-101930000D01*
X85885495Y-101928796D01*
X85861227Y-101925196D01*
X85837428Y-101919235D01*
X85814329Y-101910970D01*
X85792150Y-101900480D01*
X85771107Y-101887868D01*
X85751401Y-101873253D01*
X85733223Y-101856777D01*
X85716747Y-101838599D01*
X85702132Y-101818893D01*
X85689520Y-101797850D01*
X85679030Y-101775671D01*
X85670765Y-101752572D01*
X85664804Y-101728773D01*
X85661204Y-101704505D01*
X85660000Y-101680001D01*
X85660000Y-101029999D01*
X85661204Y-101005495D01*
X85664804Y-100981227D01*
X85670765Y-100957428D01*
X85679030Y-100934329D01*
X85689520Y-100912150D01*
X85702132Y-100891107D01*
X85716747Y-100871401D01*
X85733223Y-100853223D01*
X85751401Y-100836747D01*
X85771107Y-100822132D01*
X85792150Y-100809520D01*
X85814329Y-100799030D01*
X85837428Y-100790765D01*
X85861227Y-100784804D01*
X85885495Y-100781204D01*
X85909999Y-100780000D01*
X86810001Y-100780000D01*
X86834505Y-100781204D01*
X86834505Y-100781204D01*
G37*
D14*
X86360000Y-101355000D03*
D12*
G36*
X86834505Y-98731204D02*
G01*
X86858773Y-98734804D01*
X86882572Y-98740765D01*
X86905671Y-98749030D01*
X86927850Y-98759520D01*
X86948893Y-98772132D01*
X86968599Y-98786747D01*
X86986777Y-98803223D01*
X87003253Y-98821401D01*
X87017868Y-98841107D01*
X87030480Y-98862150D01*
X87040970Y-98884329D01*
X87049235Y-98907428D01*
X87055196Y-98931227D01*
X87058796Y-98955495D01*
X87060000Y-98979999D01*
X87060000Y-99630001D01*
X87058796Y-99654505D01*
X87055196Y-99678773D01*
X87049235Y-99702572D01*
X87040970Y-99725671D01*
X87030480Y-99747850D01*
X87017868Y-99768893D01*
X87003253Y-99788599D01*
X86986777Y-99806777D01*
X86968599Y-99823253D01*
X86948893Y-99837868D01*
X86927850Y-99850480D01*
X86905671Y-99860970D01*
X86882572Y-99869235D01*
X86858773Y-99875196D01*
X86834505Y-99878796D01*
X86810001Y-99880000D01*
X85909999Y-99880000D01*
X85885495Y-99878796D01*
X85861227Y-99875196D01*
X85837428Y-99869235D01*
X85814329Y-99860970D01*
X85792150Y-99850480D01*
X85771107Y-99837868D01*
X85751401Y-99823253D01*
X85733223Y-99806777D01*
X85716747Y-99788599D01*
X85702132Y-99768893D01*
X85689520Y-99747850D01*
X85679030Y-99725671D01*
X85670765Y-99702572D01*
X85664804Y-99678773D01*
X85661204Y-99654505D01*
X85660000Y-99630001D01*
X85660000Y-98979999D01*
X85661204Y-98955495D01*
X85664804Y-98931227D01*
X85670765Y-98907428D01*
X85679030Y-98884329D01*
X85689520Y-98862150D01*
X85702132Y-98841107D01*
X85716747Y-98821401D01*
X85733223Y-98803223D01*
X85751401Y-98786747D01*
X85771107Y-98772132D01*
X85792150Y-98759520D01*
X85814329Y-98749030D01*
X85837428Y-98740765D01*
X85861227Y-98734804D01*
X85885495Y-98731204D01*
X85909999Y-98730000D01*
X86810001Y-98730000D01*
X86834505Y-98731204D01*
X86834505Y-98731204D01*
G37*
D14*
X86360000Y-99305000D03*
D12*
G36*
X86834505Y-95701204D02*
G01*
X86858773Y-95704804D01*
X86882572Y-95710765D01*
X86905671Y-95719030D01*
X86927850Y-95729520D01*
X86948893Y-95742132D01*
X86968599Y-95756747D01*
X86986777Y-95773223D01*
X87003253Y-95791401D01*
X87017868Y-95811107D01*
X87030480Y-95832150D01*
X87040970Y-95854329D01*
X87049235Y-95877428D01*
X87055196Y-95901227D01*
X87058796Y-95925495D01*
X87060000Y-95949999D01*
X87060000Y-96600001D01*
X87058796Y-96624505D01*
X87055196Y-96648773D01*
X87049235Y-96672572D01*
X87040970Y-96695671D01*
X87030480Y-96717850D01*
X87017868Y-96738893D01*
X87003253Y-96758599D01*
X86986777Y-96776777D01*
X86968599Y-96793253D01*
X86948893Y-96807868D01*
X86927850Y-96820480D01*
X86905671Y-96830970D01*
X86882572Y-96839235D01*
X86858773Y-96845196D01*
X86834505Y-96848796D01*
X86810001Y-96850000D01*
X85909999Y-96850000D01*
X85885495Y-96848796D01*
X85861227Y-96845196D01*
X85837428Y-96839235D01*
X85814329Y-96830970D01*
X85792150Y-96820480D01*
X85771107Y-96807868D01*
X85751401Y-96793253D01*
X85733223Y-96776777D01*
X85716747Y-96758599D01*
X85702132Y-96738893D01*
X85689520Y-96717850D01*
X85679030Y-96695671D01*
X85670765Y-96672572D01*
X85664804Y-96648773D01*
X85661204Y-96624505D01*
X85660000Y-96600001D01*
X85660000Y-95949999D01*
X85661204Y-95925495D01*
X85664804Y-95901227D01*
X85670765Y-95877428D01*
X85679030Y-95854329D01*
X85689520Y-95832150D01*
X85702132Y-95811107D01*
X85716747Y-95791401D01*
X85733223Y-95773223D01*
X85751401Y-95756747D01*
X85771107Y-95742132D01*
X85792150Y-95729520D01*
X85814329Y-95719030D01*
X85837428Y-95710765D01*
X85861227Y-95704804D01*
X85885495Y-95701204D01*
X85909999Y-95700000D01*
X86810001Y-95700000D01*
X86834505Y-95701204D01*
X86834505Y-95701204D01*
G37*
D14*
X86360000Y-96275000D03*
D12*
G36*
X86834505Y-93651204D02*
G01*
X86858773Y-93654804D01*
X86882572Y-93660765D01*
X86905671Y-93669030D01*
X86927850Y-93679520D01*
X86948893Y-93692132D01*
X86968599Y-93706747D01*
X86986777Y-93723223D01*
X87003253Y-93741401D01*
X87017868Y-93761107D01*
X87030480Y-93782150D01*
X87040970Y-93804329D01*
X87049235Y-93827428D01*
X87055196Y-93851227D01*
X87058796Y-93875495D01*
X87060000Y-93899999D01*
X87060000Y-94550001D01*
X87058796Y-94574505D01*
X87055196Y-94598773D01*
X87049235Y-94622572D01*
X87040970Y-94645671D01*
X87030480Y-94667850D01*
X87017868Y-94688893D01*
X87003253Y-94708599D01*
X86986777Y-94726777D01*
X86968599Y-94743253D01*
X86948893Y-94757868D01*
X86927850Y-94770480D01*
X86905671Y-94780970D01*
X86882572Y-94789235D01*
X86858773Y-94795196D01*
X86834505Y-94798796D01*
X86810001Y-94800000D01*
X85909999Y-94800000D01*
X85885495Y-94798796D01*
X85861227Y-94795196D01*
X85837428Y-94789235D01*
X85814329Y-94780970D01*
X85792150Y-94770480D01*
X85771107Y-94757868D01*
X85751401Y-94743253D01*
X85733223Y-94726777D01*
X85716747Y-94708599D01*
X85702132Y-94688893D01*
X85689520Y-94667850D01*
X85679030Y-94645671D01*
X85670765Y-94622572D01*
X85664804Y-94598773D01*
X85661204Y-94574505D01*
X85660000Y-94550001D01*
X85660000Y-93899999D01*
X85661204Y-93875495D01*
X85664804Y-93851227D01*
X85670765Y-93827428D01*
X85679030Y-93804329D01*
X85689520Y-93782150D01*
X85702132Y-93761107D01*
X85716747Y-93741401D01*
X85733223Y-93723223D01*
X85751401Y-93706747D01*
X85771107Y-93692132D01*
X85792150Y-93679520D01*
X85814329Y-93669030D01*
X85837428Y-93660765D01*
X85861227Y-93654804D01*
X85885495Y-93651204D01*
X85909999Y-93650000D01*
X86810001Y-93650000D01*
X86834505Y-93651204D01*
X86834505Y-93651204D01*
G37*
D14*
X86360000Y-94225000D03*
D12*
G36*
X96624505Y-105981204D02*
G01*
X96648773Y-105984804D01*
X96672572Y-105990765D01*
X96695671Y-105999030D01*
X96717850Y-106009520D01*
X96738893Y-106022132D01*
X96758599Y-106036747D01*
X96776777Y-106053223D01*
X96793253Y-106071401D01*
X96807868Y-106091107D01*
X96820480Y-106112150D01*
X96830970Y-106134329D01*
X96839235Y-106157428D01*
X96845196Y-106181227D01*
X96848796Y-106205495D01*
X96850000Y-106229999D01*
X96850000Y-107130001D01*
X96848796Y-107154505D01*
X96845196Y-107178773D01*
X96839235Y-107202572D01*
X96830970Y-107225671D01*
X96820480Y-107247850D01*
X96807868Y-107268893D01*
X96793253Y-107288599D01*
X96776777Y-107306777D01*
X96758599Y-107323253D01*
X96738893Y-107337868D01*
X96717850Y-107350480D01*
X96695671Y-107360970D01*
X96672572Y-107369235D01*
X96648773Y-107375196D01*
X96624505Y-107378796D01*
X96600001Y-107380000D01*
X95949999Y-107380000D01*
X95925495Y-107378796D01*
X95901227Y-107375196D01*
X95877428Y-107369235D01*
X95854329Y-107360970D01*
X95832150Y-107350480D01*
X95811107Y-107337868D01*
X95791401Y-107323253D01*
X95773223Y-107306777D01*
X95756747Y-107288599D01*
X95742132Y-107268893D01*
X95729520Y-107247850D01*
X95719030Y-107225671D01*
X95710765Y-107202572D01*
X95704804Y-107178773D01*
X95701204Y-107154505D01*
X95700000Y-107130001D01*
X95700000Y-106229999D01*
X95701204Y-106205495D01*
X95704804Y-106181227D01*
X95710765Y-106157428D01*
X95719030Y-106134329D01*
X95729520Y-106112150D01*
X95742132Y-106091107D01*
X95756747Y-106071401D01*
X95773223Y-106053223D01*
X95791401Y-106036747D01*
X95811107Y-106022132D01*
X95832150Y-106009520D01*
X95854329Y-105999030D01*
X95877428Y-105990765D01*
X95901227Y-105984804D01*
X95925495Y-105981204D01*
X95949999Y-105980000D01*
X96600001Y-105980000D01*
X96624505Y-105981204D01*
X96624505Y-105981204D01*
G37*
D14*
X96275000Y-106680000D03*
D12*
G36*
X94574505Y-105981204D02*
G01*
X94598773Y-105984804D01*
X94622572Y-105990765D01*
X94645671Y-105999030D01*
X94667850Y-106009520D01*
X94688893Y-106022132D01*
X94708599Y-106036747D01*
X94726777Y-106053223D01*
X94743253Y-106071401D01*
X94757868Y-106091107D01*
X94770480Y-106112150D01*
X94780970Y-106134329D01*
X94789235Y-106157428D01*
X94795196Y-106181227D01*
X94798796Y-106205495D01*
X94800000Y-106229999D01*
X94800000Y-107130001D01*
X94798796Y-107154505D01*
X94795196Y-107178773D01*
X94789235Y-107202572D01*
X94780970Y-107225671D01*
X94770480Y-107247850D01*
X94757868Y-107268893D01*
X94743253Y-107288599D01*
X94726777Y-107306777D01*
X94708599Y-107323253D01*
X94688893Y-107337868D01*
X94667850Y-107350480D01*
X94645671Y-107360970D01*
X94622572Y-107369235D01*
X94598773Y-107375196D01*
X94574505Y-107378796D01*
X94550001Y-107380000D01*
X93899999Y-107380000D01*
X93875495Y-107378796D01*
X93851227Y-107375196D01*
X93827428Y-107369235D01*
X93804329Y-107360970D01*
X93782150Y-107350480D01*
X93761107Y-107337868D01*
X93741401Y-107323253D01*
X93723223Y-107306777D01*
X93706747Y-107288599D01*
X93692132Y-107268893D01*
X93679520Y-107247850D01*
X93669030Y-107225671D01*
X93660765Y-107202572D01*
X93654804Y-107178773D01*
X93651204Y-107154505D01*
X93650000Y-107130001D01*
X93650000Y-106229999D01*
X93651204Y-106205495D01*
X93654804Y-106181227D01*
X93660765Y-106157428D01*
X93669030Y-106134329D01*
X93679520Y-106112150D01*
X93692132Y-106091107D01*
X93706747Y-106071401D01*
X93723223Y-106053223D01*
X93741401Y-106036747D01*
X93761107Y-106022132D01*
X93782150Y-106009520D01*
X93804329Y-105999030D01*
X93827428Y-105990765D01*
X93851227Y-105984804D01*
X93875495Y-105981204D01*
X93899999Y-105980000D01*
X94550001Y-105980000D01*
X94574505Y-105981204D01*
X94574505Y-105981204D01*
G37*
D14*
X94225000Y-106680000D03*
D12*
G36*
X94574505Y-88201204D02*
G01*
X94598773Y-88204804D01*
X94622572Y-88210765D01*
X94645671Y-88219030D01*
X94667850Y-88229520D01*
X94688893Y-88242132D01*
X94708599Y-88256747D01*
X94726777Y-88273223D01*
X94743253Y-88291401D01*
X94757868Y-88311107D01*
X94770480Y-88332150D01*
X94780970Y-88354329D01*
X94789235Y-88377428D01*
X94795196Y-88401227D01*
X94798796Y-88425495D01*
X94800000Y-88449999D01*
X94800000Y-89350001D01*
X94798796Y-89374505D01*
X94795196Y-89398773D01*
X94789235Y-89422572D01*
X94780970Y-89445671D01*
X94770480Y-89467850D01*
X94757868Y-89488893D01*
X94743253Y-89508599D01*
X94726777Y-89526777D01*
X94708599Y-89543253D01*
X94688893Y-89557868D01*
X94667850Y-89570480D01*
X94645671Y-89580970D01*
X94622572Y-89589235D01*
X94598773Y-89595196D01*
X94574505Y-89598796D01*
X94550001Y-89600000D01*
X93899999Y-89600000D01*
X93875495Y-89598796D01*
X93851227Y-89595196D01*
X93827428Y-89589235D01*
X93804329Y-89580970D01*
X93782150Y-89570480D01*
X93761107Y-89557868D01*
X93741401Y-89543253D01*
X93723223Y-89526777D01*
X93706747Y-89508599D01*
X93692132Y-89488893D01*
X93679520Y-89467850D01*
X93669030Y-89445671D01*
X93660765Y-89422572D01*
X93654804Y-89398773D01*
X93651204Y-89374505D01*
X93650000Y-89350001D01*
X93650000Y-88449999D01*
X93651204Y-88425495D01*
X93654804Y-88401227D01*
X93660765Y-88377428D01*
X93669030Y-88354329D01*
X93679520Y-88332150D01*
X93692132Y-88311107D01*
X93706747Y-88291401D01*
X93723223Y-88273223D01*
X93741401Y-88256747D01*
X93761107Y-88242132D01*
X93782150Y-88229520D01*
X93804329Y-88219030D01*
X93827428Y-88210765D01*
X93851227Y-88204804D01*
X93875495Y-88201204D01*
X93899999Y-88200000D01*
X94550001Y-88200000D01*
X94574505Y-88201204D01*
X94574505Y-88201204D01*
G37*
D14*
X94225000Y-88900000D03*
D12*
G36*
X96624505Y-88201204D02*
G01*
X96648773Y-88204804D01*
X96672572Y-88210765D01*
X96695671Y-88219030D01*
X96717850Y-88229520D01*
X96738893Y-88242132D01*
X96758599Y-88256747D01*
X96776777Y-88273223D01*
X96793253Y-88291401D01*
X96807868Y-88311107D01*
X96820480Y-88332150D01*
X96830970Y-88354329D01*
X96839235Y-88377428D01*
X96845196Y-88401227D01*
X96848796Y-88425495D01*
X96850000Y-88449999D01*
X96850000Y-89350001D01*
X96848796Y-89374505D01*
X96845196Y-89398773D01*
X96839235Y-89422572D01*
X96830970Y-89445671D01*
X96820480Y-89467850D01*
X96807868Y-89488893D01*
X96793253Y-89508599D01*
X96776777Y-89526777D01*
X96758599Y-89543253D01*
X96738893Y-89557868D01*
X96717850Y-89570480D01*
X96695671Y-89580970D01*
X96672572Y-89589235D01*
X96648773Y-89595196D01*
X96624505Y-89598796D01*
X96600001Y-89600000D01*
X95949999Y-89600000D01*
X95925495Y-89598796D01*
X95901227Y-89595196D01*
X95877428Y-89589235D01*
X95854329Y-89580970D01*
X95832150Y-89570480D01*
X95811107Y-89557868D01*
X95791401Y-89543253D01*
X95773223Y-89526777D01*
X95756747Y-89508599D01*
X95742132Y-89488893D01*
X95729520Y-89467850D01*
X95719030Y-89445671D01*
X95710765Y-89422572D01*
X95704804Y-89398773D01*
X95701204Y-89374505D01*
X95700000Y-89350001D01*
X95700000Y-88449999D01*
X95701204Y-88425495D01*
X95704804Y-88401227D01*
X95710765Y-88377428D01*
X95719030Y-88354329D01*
X95729520Y-88332150D01*
X95742132Y-88311107D01*
X95756747Y-88291401D01*
X95773223Y-88273223D01*
X95791401Y-88256747D01*
X95811107Y-88242132D01*
X95832150Y-88229520D01*
X95854329Y-88219030D01*
X95877428Y-88210765D01*
X95901227Y-88204804D01*
X95925495Y-88201204D01*
X95949999Y-88200000D01*
X96600001Y-88200000D01*
X96624505Y-88201204D01*
X96624505Y-88201204D01*
G37*
D14*
X96275000Y-88900000D03*
D12*
G36*
X79969505Y-101536204D02*
G01*
X79993773Y-101539804D01*
X80017572Y-101545765D01*
X80040671Y-101554030D01*
X80062850Y-101564520D01*
X80083893Y-101577132D01*
X80103599Y-101591747D01*
X80121777Y-101608223D01*
X80138253Y-101626401D01*
X80152868Y-101646107D01*
X80165480Y-101667150D01*
X80175970Y-101689329D01*
X80184235Y-101712428D01*
X80190196Y-101736227D01*
X80193796Y-101760495D01*
X80195000Y-101784999D01*
X80195000Y-102685001D01*
X80193796Y-102709505D01*
X80190196Y-102733773D01*
X80184235Y-102757572D01*
X80175970Y-102780671D01*
X80165480Y-102802850D01*
X80152868Y-102823893D01*
X80138253Y-102843599D01*
X80121777Y-102861777D01*
X80103599Y-102878253D01*
X80083893Y-102892868D01*
X80062850Y-102905480D01*
X80040671Y-102915970D01*
X80017572Y-102924235D01*
X79993773Y-102930196D01*
X79969505Y-102933796D01*
X79945001Y-102935000D01*
X79294999Y-102935000D01*
X79270495Y-102933796D01*
X79246227Y-102930196D01*
X79222428Y-102924235D01*
X79199329Y-102915970D01*
X79177150Y-102905480D01*
X79156107Y-102892868D01*
X79136401Y-102878253D01*
X79118223Y-102861777D01*
X79101747Y-102843599D01*
X79087132Y-102823893D01*
X79074520Y-102802850D01*
X79064030Y-102780671D01*
X79055765Y-102757572D01*
X79049804Y-102733773D01*
X79046204Y-102709505D01*
X79045000Y-102685001D01*
X79045000Y-101784999D01*
X79046204Y-101760495D01*
X79049804Y-101736227D01*
X79055765Y-101712428D01*
X79064030Y-101689329D01*
X79074520Y-101667150D01*
X79087132Y-101646107D01*
X79101747Y-101626401D01*
X79118223Y-101608223D01*
X79136401Y-101591747D01*
X79156107Y-101577132D01*
X79177150Y-101564520D01*
X79199329Y-101554030D01*
X79222428Y-101545765D01*
X79246227Y-101539804D01*
X79270495Y-101536204D01*
X79294999Y-101535000D01*
X79945001Y-101535000D01*
X79969505Y-101536204D01*
X79969505Y-101536204D01*
G37*
D14*
X79620000Y-102235000D03*
D12*
G36*
X82019505Y-101536204D02*
G01*
X82043773Y-101539804D01*
X82067572Y-101545765D01*
X82090671Y-101554030D01*
X82112850Y-101564520D01*
X82133893Y-101577132D01*
X82153599Y-101591747D01*
X82171777Y-101608223D01*
X82188253Y-101626401D01*
X82202868Y-101646107D01*
X82215480Y-101667150D01*
X82225970Y-101689329D01*
X82234235Y-101712428D01*
X82240196Y-101736227D01*
X82243796Y-101760495D01*
X82245000Y-101784999D01*
X82245000Y-102685001D01*
X82243796Y-102709505D01*
X82240196Y-102733773D01*
X82234235Y-102757572D01*
X82225970Y-102780671D01*
X82215480Y-102802850D01*
X82202868Y-102823893D01*
X82188253Y-102843599D01*
X82171777Y-102861777D01*
X82153599Y-102878253D01*
X82133893Y-102892868D01*
X82112850Y-102905480D01*
X82090671Y-102915970D01*
X82067572Y-102924235D01*
X82043773Y-102930196D01*
X82019505Y-102933796D01*
X81995001Y-102935000D01*
X81344999Y-102935000D01*
X81320495Y-102933796D01*
X81296227Y-102930196D01*
X81272428Y-102924235D01*
X81249329Y-102915970D01*
X81227150Y-102905480D01*
X81206107Y-102892868D01*
X81186401Y-102878253D01*
X81168223Y-102861777D01*
X81151747Y-102843599D01*
X81137132Y-102823893D01*
X81124520Y-102802850D01*
X81114030Y-102780671D01*
X81105765Y-102757572D01*
X81099804Y-102733773D01*
X81096204Y-102709505D01*
X81095000Y-102685001D01*
X81095000Y-101784999D01*
X81096204Y-101760495D01*
X81099804Y-101736227D01*
X81105765Y-101712428D01*
X81114030Y-101689329D01*
X81124520Y-101667150D01*
X81137132Y-101646107D01*
X81151747Y-101626401D01*
X81168223Y-101608223D01*
X81186401Y-101591747D01*
X81206107Y-101577132D01*
X81227150Y-101564520D01*
X81249329Y-101554030D01*
X81272428Y-101545765D01*
X81296227Y-101539804D01*
X81320495Y-101536204D01*
X81344999Y-101535000D01*
X81995001Y-101535000D01*
X82019505Y-101536204D01*
X82019505Y-101536204D01*
G37*
D14*
X81670000Y-102235000D03*
D12*
G36*
X109959505Y-101536204D02*
G01*
X109983773Y-101539804D01*
X110007572Y-101545765D01*
X110030671Y-101554030D01*
X110052850Y-101564520D01*
X110073893Y-101577132D01*
X110093599Y-101591747D01*
X110111777Y-101608223D01*
X110128253Y-101626401D01*
X110142868Y-101646107D01*
X110155480Y-101667150D01*
X110165970Y-101689329D01*
X110174235Y-101712428D01*
X110180196Y-101736227D01*
X110183796Y-101760495D01*
X110185000Y-101784999D01*
X110185000Y-102685001D01*
X110183796Y-102709505D01*
X110180196Y-102733773D01*
X110174235Y-102757572D01*
X110165970Y-102780671D01*
X110155480Y-102802850D01*
X110142868Y-102823893D01*
X110128253Y-102843599D01*
X110111777Y-102861777D01*
X110093599Y-102878253D01*
X110073893Y-102892868D01*
X110052850Y-102905480D01*
X110030671Y-102915970D01*
X110007572Y-102924235D01*
X109983773Y-102930196D01*
X109959505Y-102933796D01*
X109935001Y-102935000D01*
X109284999Y-102935000D01*
X109260495Y-102933796D01*
X109236227Y-102930196D01*
X109212428Y-102924235D01*
X109189329Y-102915970D01*
X109167150Y-102905480D01*
X109146107Y-102892868D01*
X109126401Y-102878253D01*
X109108223Y-102861777D01*
X109091747Y-102843599D01*
X109077132Y-102823893D01*
X109064520Y-102802850D01*
X109054030Y-102780671D01*
X109045765Y-102757572D01*
X109039804Y-102733773D01*
X109036204Y-102709505D01*
X109035000Y-102685001D01*
X109035000Y-101784999D01*
X109036204Y-101760495D01*
X109039804Y-101736227D01*
X109045765Y-101712428D01*
X109054030Y-101689329D01*
X109064520Y-101667150D01*
X109077132Y-101646107D01*
X109091747Y-101626401D01*
X109108223Y-101608223D01*
X109126401Y-101591747D01*
X109146107Y-101577132D01*
X109167150Y-101564520D01*
X109189329Y-101554030D01*
X109212428Y-101545765D01*
X109236227Y-101539804D01*
X109260495Y-101536204D01*
X109284999Y-101535000D01*
X109935001Y-101535000D01*
X109959505Y-101536204D01*
X109959505Y-101536204D01*
G37*
D14*
X109610000Y-102235000D03*
D12*
G36*
X107909505Y-101536204D02*
G01*
X107933773Y-101539804D01*
X107957572Y-101545765D01*
X107980671Y-101554030D01*
X108002850Y-101564520D01*
X108023893Y-101577132D01*
X108043599Y-101591747D01*
X108061777Y-101608223D01*
X108078253Y-101626401D01*
X108092868Y-101646107D01*
X108105480Y-101667150D01*
X108115970Y-101689329D01*
X108124235Y-101712428D01*
X108130196Y-101736227D01*
X108133796Y-101760495D01*
X108135000Y-101784999D01*
X108135000Y-102685001D01*
X108133796Y-102709505D01*
X108130196Y-102733773D01*
X108124235Y-102757572D01*
X108115970Y-102780671D01*
X108105480Y-102802850D01*
X108092868Y-102823893D01*
X108078253Y-102843599D01*
X108061777Y-102861777D01*
X108043599Y-102878253D01*
X108023893Y-102892868D01*
X108002850Y-102905480D01*
X107980671Y-102915970D01*
X107957572Y-102924235D01*
X107933773Y-102930196D01*
X107909505Y-102933796D01*
X107885001Y-102935000D01*
X107234999Y-102935000D01*
X107210495Y-102933796D01*
X107186227Y-102930196D01*
X107162428Y-102924235D01*
X107139329Y-102915970D01*
X107117150Y-102905480D01*
X107096107Y-102892868D01*
X107076401Y-102878253D01*
X107058223Y-102861777D01*
X107041747Y-102843599D01*
X107027132Y-102823893D01*
X107014520Y-102802850D01*
X107004030Y-102780671D01*
X106995765Y-102757572D01*
X106989804Y-102733773D01*
X106986204Y-102709505D01*
X106985000Y-102685001D01*
X106985000Y-101784999D01*
X106986204Y-101760495D01*
X106989804Y-101736227D01*
X106995765Y-101712428D01*
X107004030Y-101689329D01*
X107014520Y-101667150D01*
X107027132Y-101646107D01*
X107041747Y-101626401D01*
X107058223Y-101608223D01*
X107076401Y-101591747D01*
X107096107Y-101577132D01*
X107117150Y-101564520D01*
X107139329Y-101554030D01*
X107162428Y-101545765D01*
X107186227Y-101539804D01*
X107210495Y-101536204D01*
X107234999Y-101535000D01*
X107885001Y-101535000D01*
X107909505Y-101536204D01*
X107909505Y-101536204D01*
G37*
D14*
X107560000Y-102235000D03*
D12*
G36*
X109959505Y-92646204D02*
G01*
X109983773Y-92649804D01*
X110007572Y-92655765D01*
X110030671Y-92664030D01*
X110052850Y-92674520D01*
X110073893Y-92687132D01*
X110093599Y-92701747D01*
X110111777Y-92718223D01*
X110128253Y-92736401D01*
X110142868Y-92756107D01*
X110155480Y-92777150D01*
X110165970Y-92799329D01*
X110174235Y-92822428D01*
X110180196Y-92846227D01*
X110183796Y-92870495D01*
X110185000Y-92894999D01*
X110185000Y-93795001D01*
X110183796Y-93819505D01*
X110180196Y-93843773D01*
X110174235Y-93867572D01*
X110165970Y-93890671D01*
X110155480Y-93912850D01*
X110142868Y-93933893D01*
X110128253Y-93953599D01*
X110111777Y-93971777D01*
X110093599Y-93988253D01*
X110073893Y-94002868D01*
X110052850Y-94015480D01*
X110030671Y-94025970D01*
X110007572Y-94034235D01*
X109983773Y-94040196D01*
X109959505Y-94043796D01*
X109935001Y-94045000D01*
X109284999Y-94045000D01*
X109260495Y-94043796D01*
X109236227Y-94040196D01*
X109212428Y-94034235D01*
X109189329Y-94025970D01*
X109167150Y-94015480D01*
X109146107Y-94002868D01*
X109126401Y-93988253D01*
X109108223Y-93971777D01*
X109091747Y-93953599D01*
X109077132Y-93933893D01*
X109064520Y-93912850D01*
X109054030Y-93890671D01*
X109045765Y-93867572D01*
X109039804Y-93843773D01*
X109036204Y-93819505D01*
X109035000Y-93795001D01*
X109035000Y-92894999D01*
X109036204Y-92870495D01*
X109039804Y-92846227D01*
X109045765Y-92822428D01*
X109054030Y-92799329D01*
X109064520Y-92777150D01*
X109077132Y-92756107D01*
X109091747Y-92736401D01*
X109108223Y-92718223D01*
X109126401Y-92701747D01*
X109146107Y-92687132D01*
X109167150Y-92674520D01*
X109189329Y-92664030D01*
X109212428Y-92655765D01*
X109236227Y-92649804D01*
X109260495Y-92646204D01*
X109284999Y-92645000D01*
X109935001Y-92645000D01*
X109959505Y-92646204D01*
X109959505Y-92646204D01*
G37*
D14*
X109610000Y-93345000D03*
D12*
G36*
X107909505Y-92646204D02*
G01*
X107933773Y-92649804D01*
X107957572Y-92655765D01*
X107980671Y-92664030D01*
X108002850Y-92674520D01*
X108023893Y-92687132D01*
X108043599Y-92701747D01*
X108061777Y-92718223D01*
X108078253Y-92736401D01*
X108092868Y-92756107D01*
X108105480Y-92777150D01*
X108115970Y-92799329D01*
X108124235Y-92822428D01*
X108130196Y-92846227D01*
X108133796Y-92870495D01*
X108135000Y-92894999D01*
X108135000Y-93795001D01*
X108133796Y-93819505D01*
X108130196Y-93843773D01*
X108124235Y-93867572D01*
X108115970Y-93890671D01*
X108105480Y-93912850D01*
X108092868Y-93933893D01*
X108078253Y-93953599D01*
X108061777Y-93971777D01*
X108043599Y-93988253D01*
X108023893Y-94002868D01*
X108002850Y-94015480D01*
X107980671Y-94025970D01*
X107957572Y-94034235D01*
X107933773Y-94040196D01*
X107909505Y-94043796D01*
X107885001Y-94045000D01*
X107234999Y-94045000D01*
X107210495Y-94043796D01*
X107186227Y-94040196D01*
X107162428Y-94034235D01*
X107139329Y-94025970D01*
X107117150Y-94015480D01*
X107096107Y-94002868D01*
X107076401Y-93988253D01*
X107058223Y-93971777D01*
X107041747Y-93953599D01*
X107027132Y-93933893D01*
X107014520Y-93912850D01*
X107004030Y-93890671D01*
X106995765Y-93867572D01*
X106989804Y-93843773D01*
X106986204Y-93819505D01*
X106985000Y-93795001D01*
X106985000Y-92894999D01*
X106986204Y-92870495D01*
X106989804Y-92846227D01*
X106995765Y-92822428D01*
X107004030Y-92799329D01*
X107014520Y-92777150D01*
X107027132Y-92756107D01*
X107041747Y-92736401D01*
X107058223Y-92718223D01*
X107076401Y-92701747D01*
X107096107Y-92687132D01*
X107117150Y-92674520D01*
X107139329Y-92664030D01*
X107162428Y-92655765D01*
X107186227Y-92649804D01*
X107210495Y-92646204D01*
X107234999Y-92645000D01*
X107885001Y-92645000D01*
X107909505Y-92646204D01*
X107909505Y-92646204D01*
G37*
D14*
X107560000Y-93345000D03*
D15*
X89550000Y-93790000D03*
X89550000Y-94590000D03*
X89550000Y-95390000D03*
X89550000Y-96190000D03*
X89550000Y-96990000D03*
X89550000Y-97790000D03*
X89550000Y-98590000D03*
X89550000Y-99390000D03*
X89550000Y-100190000D03*
X89550000Y-100990000D03*
X89550000Y-101790000D03*
D16*
X91250000Y-103490000D03*
X92050000Y-103490000D03*
X92850000Y-103490000D03*
X93650000Y-103490000D03*
X94450000Y-103490000D03*
X95250000Y-103490000D03*
X96050000Y-103490000D03*
X96850000Y-103490000D03*
X97650000Y-103490000D03*
X98450000Y-103490000D03*
X99250000Y-103490000D03*
D15*
X100950000Y-101790000D03*
X100950000Y-100990000D03*
X100950000Y-100190000D03*
X100950000Y-99390000D03*
X100950000Y-98590000D03*
X100950000Y-97790000D03*
X100950000Y-96990000D03*
X100950000Y-96190000D03*
X100950000Y-95390000D03*
X100950000Y-94590000D03*
X100950000Y-93790000D03*
D16*
X99250000Y-92090000D03*
X98450000Y-92090000D03*
X97650000Y-92090000D03*
X96850000Y-92090000D03*
X96050000Y-92090000D03*
X95250000Y-92090000D03*
X94450000Y-92090000D03*
X93650000Y-92090000D03*
X92850000Y-92090000D03*
X92050000Y-92090000D03*
X91250000Y-92090000D03*
D17*
X99550000Y-63330000D03*
X101450000Y-63330000D03*
X101450000Y-61130000D03*
D18*
X99730000Y-61130000D03*
D19*
X119740680Y-129661920D03*
X108742480Y-129661920D03*
D20*
X123190000Y-132212080D03*
X123190000Y-133311900D03*
X123190000Y-134411720D03*
X123190000Y-135511540D03*
X123190000Y-136611360D03*
X123190000Y-137708640D03*
X123190000Y-138808460D03*
X123190000Y-139908280D03*
X123190000Y-141008100D03*
X123190000Y-142107920D03*
X123190000Y-143207740D03*
D19*
X120840500Y-144658080D03*
X119740680Y-144658080D03*
X118640860Y-144658080D03*
X117541040Y-144658080D03*
X116441220Y-144658080D03*
X115341400Y-144658080D03*
X112041940Y-144658080D03*
X110942120Y-144658080D03*
X109842300Y-144658080D03*
X108742480Y-144658080D03*
X109842300Y-129661920D03*
X110942120Y-129661920D03*
X112041940Y-129661920D03*
X113141760Y-129661920D03*
X114241580Y-129661920D03*
X115341400Y-129661920D03*
X116441220Y-129661920D03*
X117541040Y-129661920D03*
X118640860Y-129661920D03*
D20*
X123190000Y-131112260D03*
D19*
X113141760Y-144658080D03*
X114241580Y-144658080D03*
X120840500Y-129661920D03*
D21*
X117525000Y-65345000D03*
X111075000Y-65345000D03*
X116750000Y-65345000D03*
X111850000Y-65345000D03*
D22*
X112550000Y-65345000D03*
X116050000Y-65345000D03*
X113050000Y-65345000D03*
X115550000Y-65345000D03*
X113550000Y-65345000D03*
X115050000Y-65345000D03*
X114550000Y-65345000D03*
X114050000Y-65345000D03*
D23*
X117190000Y-63400000D03*
X111410000Y-63400000D03*
D24*
X128930000Y-139700000D03*
D25*
X135230000Y-137400000D03*
X135230000Y-139700000D03*
X135230000Y-142000000D03*
D26*
X146050000Y-63500000D03*
X143510000Y-63500000D03*
D27*
X140970000Y-63500000D03*
D12*
G36*
X94084505Y-142811204D02*
G01*
X94108773Y-142814804D01*
X94132572Y-142820765D01*
X94155671Y-142829030D01*
X94177850Y-142839520D01*
X94198893Y-142852132D01*
X94218599Y-142866747D01*
X94236777Y-142883223D01*
X94253253Y-142901401D01*
X94267868Y-142921107D01*
X94280480Y-142942150D01*
X94290970Y-142964329D01*
X94299235Y-142987428D01*
X94305196Y-143011227D01*
X94308796Y-143035495D01*
X94310000Y-143059999D01*
X94310000Y-143960001D01*
X94308796Y-143984505D01*
X94305196Y-144008773D01*
X94299235Y-144032572D01*
X94290970Y-144055671D01*
X94280480Y-144077850D01*
X94267868Y-144098893D01*
X94253253Y-144118599D01*
X94236777Y-144136777D01*
X94218599Y-144153253D01*
X94198893Y-144167868D01*
X94177850Y-144180480D01*
X94155671Y-144190970D01*
X94132572Y-144199235D01*
X94108773Y-144205196D01*
X94084505Y-144208796D01*
X94060001Y-144210000D01*
X93409999Y-144210000D01*
X93385495Y-144208796D01*
X93361227Y-144205196D01*
X93337428Y-144199235D01*
X93314329Y-144190970D01*
X93292150Y-144180480D01*
X93271107Y-144167868D01*
X93251401Y-144153253D01*
X93233223Y-144136777D01*
X93216747Y-144118599D01*
X93202132Y-144098893D01*
X93189520Y-144077850D01*
X93179030Y-144055671D01*
X93170765Y-144032572D01*
X93164804Y-144008773D01*
X93161204Y-143984505D01*
X93160000Y-143960001D01*
X93160000Y-143059999D01*
X93161204Y-143035495D01*
X93164804Y-143011227D01*
X93170765Y-142987428D01*
X93179030Y-142964329D01*
X93189520Y-142942150D01*
X93202132Y-142921107D01*
X93216747Y-142901401D01*
X93233223Y-142883223D01*
X93251401Y-142866747D01*
X93271107Y-142852132D01*
X93292150Y-142839520D01*
X93314329Y-142829030D01*
X93337428Y-142820765D01*
X93361227Y-142814804D01*
X93385495Y-142811204D01*
X93409999Y-142810000D01*
X94060001Y-142810000D01*
X94084505Y-142811204D01*
X94084505Y-142811204D01*
G37*
D14*
X93735000Y-143510000D03*
D12*
G36*
X92034505Y-142811204D02*
G01*
X92058773Y-142814804D01*
X92082572Y-142820765D01*
X92105671Y-142829030D01*
X92127850Y-142839520D01*
X92148893Y-142852132D01*
X92168599Y-142866747D01*
X92186777Y-142883223D01*
X92203253Y-142901401D01*
X92217868Y-142921107D01*
X92230480Y-142942150D01*
X92240970Y-142964329D01*
X92249235Y-142987428D01*
X92255196Y-143011227D01*
X92258796Y-143035495D01*
X92260000Y-143059999D01*
X92260000Y-143960001D01*
X92258796Y-143984505D01*
X92255196Y-144008773D01*
X92249235Y-144032572D01*
X92240970Y-144055671D01*
X92230480Y-144077850D01*
X92217868Y-144098893D01*
X92203253Y-144118599D01*
X92186777Y-144136777D01*
X92168599Y-144153253D01*
X92148893Y-144167868D01*
X92127850Y-144180480D01*
X92105671Y-144190970D01*
X92082572Y-144199235D01*
X92058773Y-144205196D01*
X92034505Y-144208796D01*
X92010001Y-144210000D01*
X91359999Y-144210000D01*
X91335495Y-144208796D01*
X91311227Y-144205196D01*
X91287428Y-144199235D01*
X91264329Y-144190970D01*
X91242150Y-144180480D01*
X91221107Y-144167868D01*
X91201401Y-144153253D01*
X91183223Y-144136777D01*
X91166747Y-144118599D01*
X91152132Y-144098893D01*
X91139520Y-144077850D01*
X91129030Y-144055671D01*
X91120765Y-144032572D01*
X91114804Y-144008773D01*
X91111204Y-143984505D01*
X91110000Y-143960001D01*
X91110000Y-143059999D01*
X91111204Y-143035495D01*
X91114804Y-143011227D01*
X91120765Y-142987428D01*
X91129030Y-142964329D01*
X91139520Y-142942150D01*
X91152132Y-142921107D01*
X91166747Y-142901401D01*
X91183223Y-142883223D01*
X91201401Y-142866747D01*
X91221107Y-142852132D01*
X91242150Y-142839520D01*
X91264329Y-142829030D01*
X91287428Y-142820765D01*
X91311227Y-142814804D01*
X91335495Y-142811204D01*
X91359999Y-142810000D01*
X92010001Y-142810000D01*
X92034505Y-142811204D01*
X92034505Y-142811204D01*
G37*
D14*
X91685000Y-143510000D03*
D12*
G36*
X94084505Y-139001204D02*
G01*
X94108773Y-139004804D01*
X94132572Y-139010765D01*
X94155671Y-139019030D01*
X94177850Y-139029520D01*
X94198893Y-139042132D01*
X94218599Y-139056747D01*
X94236777Y-139073223D01*
X94253253Y-139091401D01*
X94267868Y-139111107D01*
X94280480Y-139132150D01*
X94290970Y-139154329D01*
X94299235Y-139177428D01*
X94305196Y-139201227D01*
X94308796Y-139225495D01*
X94310000Y-139249999D01*
X94310000Y-140150001D01*
X94308796Y-140174505D01*
X94305196Y-140198773D01*
X94299235Y-140222572D01*
X94290970Y-140245671D01*
X94280480Y-140267850D01*
X94267868Y-140288893D01*
X94253253Y-140308599D01*
X94236777Y-140326777D01*
X94218599Y-140343253D01*
X94198893Y-140357868D01*
X94177850Y-140370480D01*
X94155671Y-140380970D01*
X94132572Y-140389235D01*
X94108773Y-140395196D01*
X94084505Y-140398796D01*
X94060001Y-140400000D01*
X93409999Y-140400000D01*
X93385495Y-140398796D01*
X93361227Y-140395196D01*
X93337428Y-140389235D01*
X93314329Y-140380970D01*
X93292150Y-140370480D01*
X93271107Y-140357868D01*
X93251401Y-140343253D01*
X93233223Y-140326777D01*
X93216747Y-140308599D01*
X93202132Y-140288893D01*
X93189520Y-140267850D01*
X93179030Y-140245671D01*
X93170765Y-140222572D01*
X93164804Y-140198773D01*
X93161204Y-140174505D01*
X93160000Y-140150001D01*
X93160000Y-139249999D01*
X93161204Y-139225495D01*
X93164804Y-139201227D01*
X93170765Y-139177428D01*
X93179030Y-139154329D01*
X93189520Y-139132150D01*
X93202132Y-139111107D01*
X93216747Y-139091401D01*
X93233223Y-139073223D01*
X93251401Y-139056747D01*
X93271107Y-139042132D01*
X93292150Y-139029520D01*
X93314329Y-139019030D01*
X93337428Y-139010765D01*
X93361227Y-139004804D01*
X93385495Y-139001204D01*
X93409999Y-139000000D01*
X94060001Y-139000000D01*
X94084505Y-139001204D01*
X94084505Y-139001204D01*
G37*
D14*
X93735000Y-139700000D03*
D12*
G36*
X92034505Y-139001204D02*
G01*
X92058773Y-139004804D01*
X92082572Y-139010765D01*
X92105671Y-139019030D01*
X92127850Y-139029520D01*
X92148893Y-139042132D01*
X92168599Y-139056747D01*
X92186777Y-139073223D01*
X92203253Y-139091401D01*
X92217868Y-139111107D01*
X92230480Y-139132150D01*
X92240970Y-139154329D01*
X92249235Y-139177428D01*
X92255196Y-139201227D01*
X92258796Y-139225495D01*
X92260000Y-139249999D01*
X92260000Y-140150001D01*
X92258796Y-140174505D01*
X92255196Y-140198773D01*
X92249235Y-140222572D01*
X92240970Y-140245671D01*
X92230480Y-140267850D01*
X92217868Y-140288893D01*
X92203253Y-140308599D01*
X92186777Y-140326777D01*
X92168599Y-140343253D01*
X92148893Y-140357868D01*
X92127850Y-140370480D01*
X92105671Y-140380970D01*
X92082572Y-140389235D01*
X92058773Y-140395196D01*
X92034505Y-140398796D01*
X92010001Y-140400000D01*
X91359999Y-140400000D01*
X91335495Y-140398796D01*
X91311227Y-140395196D01*
X91287428Y-140389235D01*
X91264329Y-140380970D01*
X91242150Y-140370480D01*
X91221107Y-140357868D01*
X91201401Y-140343253D01*
X91183223Y-140326777D01*
X91166747Y-140308599D01*
X91152132Y-140288893D01*
X91139520Y-140267850D01*
X91129030Y-140245671D01*
X91120765Y-140222572D01*
X91114804Y-140198773D01*
X91111204Y-140174505D01*
X91110000Y-140150001D01*
X91110000Y-139249999D01*
X91111204Y-139225495D01*
X91114804Y-139201227D01*
X91120765Y-139177428D01*
X91129030Y-139154329D01*
X91139520Y-139132150D01*
X91152132Y-139111107D01*
X91166747Y-139091401D01*
X91183223Y-139073223D01*
X91201401Y-139056747D01*
X91221107Y-139042132D01*
X91242150Y-139029520D01*
X91264329Y-139019030D01*
X91287428Y-139010765D01*
X91311227Y-139004804D01*
X91335495Y-139001204D01*
X91359999Y-139000000D01*
X92010001Y-139000000D01*
X92034505Y-139001204D01*
X92034505Y-139001204D01*
G37*
D14*
X91685000Y-139700000D03*
D12*
G36*
X94084505Y-135191204D02*
G01*
X94108773Y-135194804D01*
X94132572Y-135200765D01*
X94155671Y-135209030D01*
X94177850Y-135219520D01*
X94198893Y-135232132D01*
X94218599Y-135246747D01*
X94236777Y-135263223D01*
X94253253Y-135281401D01*
X94267868Y-135301107D01*
X94280480Y-135322150D01*
X94290970Y-135344329D01*
X94299235Y-135367428D01*
X94305196Y-135391227D01*
X94308796Y-135415495D01*
X94310000Y-135439999D01*
X94310000Y-136340001D01*
X94308796Y-136364505D01*
X94305196Y-136388773D01*
X94299235Y-136412572D01*
X94290970Y-136435671D01*
X94280480Y-136457850D01*
X94267868Y-136478893D01*
X94253253Y-136498599D01*
X94236777Y-136516777D01*
X94218599Y-136533253D01*
X94198893Y-136547868D01*
X94177850Y-136560480D01*
X94155671Y-136570970D01*
X94132572Y-136579235D01*
X94108773Y-136585196D01*
X94084505Y-136588796D01*
X94060001Y-136590000D01*
X93409999Y-136590000D01*
X93385495Y-136588796D01*
X93361227Y-136585196D01*
X93337428Y-136579235D01*
X93314329Y-136570970D01*
X93292150Y-136560480D01*
X93271107Y-136547868D01*
X93251401Y-136533253D01*
X93233223Y-136516777D01*
X93216747Y-136498599D01*
X93202132Y-136478893D01*
X93189520Y-136457850D01*
X93179030Y-136435671D01*
X93170765Y-136412572D01*
X93164804Y-136388773D01*
X93161204Y-136364505D01*
X93160000Y-136340001D01*
X93160000Y-135439999D01*
X93161204Y-135415495D01*
X93164804Y-135391227D01*
X93170765Y-135367428D01*
X93179030Y-135344329D01*
X93189520Y-135322150D01*
X93202132Y-135301107D01*
X93216747Y-135281401D01*
X93233223Y-135263223D01*
X93251401Y-135246747D01*
X93271107Y-135232132D01*
X93292150Y-135219520D01*
X93314329Y-135209030D01*
X93337428Y-135200765D01*
X93361227Y-135194804D01*
X93385495Y-135191204D01*
X93409999Y-135190000D01*
X94060001Y-135190000D01*
X94084505Y-135191204D01*
X94084505Y-135191204D01*
G37*
D14*
X93735000Y-135890000D03*
D12*
G36*
X92034505Y-135191204D02*
G01*
X92058773Y-135194804D01*
X92082572Y-135200765D01*
X92105671Y-135209030D01*
X92127850Y-135219520D01*
X92148893Y-135232132D01*
X92168599Y-135246747D01*
X92186777Y-135263223D01*
X92203253Y-135281401D01*
X92217868Y-135301107D01*
X92230480Y-135322150D01*
X92240970Y-135344329D01*
X92249235Y-135367428D01*
X92255196Y-135391227D01*
X92258796Y-135415495D01*
X92260000Y-135439999D01*
X92260000Y-136340001D01*
X92258796Y-136364505D01*
X92255196Y-136388773D01*
X92249235Y-136412572D01*
X92240970Y-136435671D01*
X92230480Y-136457850D01*
X92217868Y-136478893D01*
X92203253Y-136498599D01*
X92186777Y-136516777D01*
X92168599Y-136533253D01*
X92148893Y-136547868D01*
X92127850Y-136560480D01*
X92105671Y-136570970D01*
X92082572Y-136579235D01*
X92058773Y-136585196D01*
X92034505Y-136588796D01*
X92010001Y-136590000D01*
X91359999Y-136590000D01*
X91335495Y-136588796D01*
X91311227Y-136585196D01*
X91287428Y-136579235D01*
X91264329Y-136570970D01*
X91242150Y-136560480D01*
X91221107Y-136547868D01*
X91201401Y-136533253D01*
X91183223Y-136516777D01*
X91166747Y-136498599D01*
X91152132Y-136478893D01*
X91139520Y-136457850D01*
X91129030Y-136435671D01*
X91120765Y-136412572D01*
X91114804Y-136388773D01*
X91111204Y-136364505D01*
X91110000Y-136340001D01*
X91110000Y-135439999D01*
X91111204Y-135415495D01*
X91114804Y-135391227D01*
X91120765Y-135367428D01*
X91129030Y-135344329D01*
X91139520Y-135322150D01*
X91152132Y-135301107D01*
X91166747Y-135281401D01*
X91183223Y-135263223D01*
X91201401Y-135246747D01*
X91221107Y-135232132D01*
X91242150Y-135219520D01*
X91264329Y-135209030D01*
X91287428Y-135200765D01*
X91311227Y-135194804D01*
X91335495Y-135191204D01*
X91359999Y-135190000D01*
X92010001Y-135190000D01*
X92034505Y-135191204D01*
X92034505Y-135191204D01*
G37*
D14*
X91685000Y-135890000D03*
D26*
X80010000Y-143510000D03*
X80010000Y-140970000D03*
X80010000Y-138430000D03*
D27*
X80010000Y-135890000D03*
D28*
X135315000Y-123666000D03*
D29*
X137795000Y-126206000D03*
X147955000Y-126206000D03*
D30*
X142875000Y-126206000D03*
D31*
X139065000Y-123666000D03*
X145415000Y-121126000D03*
D28*
X149165000Y-121126000D03*
X116265000Y-123666000D03*
D29*
X118745000Y-126206000D03*
X128905000Y-126206000D03*
D30*
X123825000Y-126206000D03*
D31*
X120015000Y-123666000D03*
X126365000Y-121126000D03*
D28*
X130115000Y-121126000D03*
X97215000Y-123666000D03*
D29*
X99695000Y-126206000D03*
X109855000Y-126206000D03*
D30*
X104775000Y-126206000D03*
D31*
X100965000Y-123666000D03*
X107315000Y-121126000D03*
D28*
X111065000Y-121126000D03*
X78165000Y-123666000D03*
D29*
X80645000Y-126206000D03*
X90805000Y-126206000D03*
D30*
X85725000Y-126206000D03*
D31*
X81915000Y-123666000D03*
X88265000Y-121126000D03*
D28*
X92015000Y-121126000D03*
X150435000Y-109696000D03*
D29*
X147955000Y-107156000D03*
X137795000Y-107156000D03*
D30*
X142875000Y-107156000D03*
D31*
X146685000Y-109696000D03*
X140335000Y-112236000D03*
D28*
X136585000Y-112236000D03*
X131385000Y-109696000D03*
D29*
X128905000Y-107156000D03*
X118745000Y-107156000D03*
D30*
X123825000Y-107156000D03*
D31*
X127635000Y-109696000D03*
X121285000Y-112236000D03*
D28*
X117535000Y-112236000D03*
X112335000Y-109696000D03*
D29*
X109855000Y-107156000D03*
X99695000Y-107156000D03*
D30*
X104775000Y-107156000D03*
D31*
X108585000Y-109696000D03*
X102235000Y-112236000D03*
D28*
X98485000Y-112236000D03*
X93285000Y-109696000D03*
D29*
X90805000Y-107156000D03*
X80645000Y-107156000D03*
D30*
X85725000Y-107156000D03*
D31*
X89535000Y-109696000D03*
X83185000Y-112236000D03*
D28*
X79435000Y-112236000D03*
X135315000Y-85566200D03*
D29*
X137795000Y-88106200D03*
X147955000Y-88106200D03*
D30*
X142875000Y-88106200D03*
D31*
X139065000Y-85566200D03*
X145415000Y-83026200D03*
D28*
X149165000Y-83026200D03*
X116265000Y-85566200D03*
D29*
X118745000Y-88106200D03*
X128905000Y-88106200D03*
D30*
X123825000Y-88106200D03*
D31*
X120015000Y-85566200D03*
X126365000Y-83026200D03*
D28*
X130115000Y-83026200D03*
X97215000Y-85566200D03*
D29*
X99695000Y-88106200D03*
X109855000Y-88106200D03*
D30*
X104775000Y-88106200D03*
D31*
X100965000Y-85566200D03*
X107315000Y-83026200D03*
D28*
X111065000Y-83026200D03*
X78165000Y-85566200D03*
D29*
X80645000Y-88106200D03*
X90805000Y-88106200D03*
D30*
X85725000Y-88106200D03*
D31*
X81915000Y-85566200D03*
X88265000Y-83026200D03*
D28*
X92015000Y-83026200D03*
X150435000Y-71596200D03*
D29*
X147955000Y-69056200D03*
X137795000Y-69056200D03*
D30*
X142875000Y-69056200D03*
D31*
X146685000Y-71596200D03*
X140335000Y-74136200D03*
D28*
X136585000Y-74136200D03*
X131385000Y-71596200D03*
D29*
X128905000Y-69056200D03*
X118745000Y-69056200D03*
D30*
X123825000Y-69056200D03*
D31*
X127635000Y-71596200D03*
X121285000Y-74136200D03*
D28*
X117535000Y-74136200D03*
X112335000Y-71596200D03*
D29*
X109855000Y-69056200D03*
X99695000Y-69056200D03*
D30*
X104775000Y-69056200D03*
D31*
X108585000Y-71596200D03*
X102235000Y-74136200D03*
D28*
X98485000Y-74136200D03*
X93285000Y-71596200D03*
D29*
X90805000Y-69056200D03*
X80645000Y-69056200D03*
D30*
X85725000Y-69056200D03*
D31*
X89535000Y-71596200D03*
X83185000Y-74136200D03*
D28*
X79435000Y-74136200D03*
D32*
X134620000Y-129035000D03*
X134620000Y-132585000D03*
X132080000Y-129035000D03*
X132080000Y-132585000D03*
X96520000Y-129035000D03*
X96520000Y-132585000D03*
X93980000Y-129035000D03*
X93980000Y-132585000D03*
D33*
X141100000Y-116840000D03*
X144650000Y-116840000D03*
X122017000Y-116840000D03*
X125567000Y-116840000D03*
X103000000Y-116840000D03*
X106550000Y-116840000D03*
X83950000Y-116840000D03*
X87500000Y-116840000D03*
D32*
X134620000Y-90935000D03*
X134620000Y-94485000D03*
X132080000Y-90935000D03*
X132080000Y-94485000D03*
D33*
X103000000Y-78740000D03*
X106550000Y-78740000D03*
X83950000Y-78740000D03*
X87500000Y-78740000D03*
X141100000Y-78581200D03*
X144650000Y-78581200D03*
X122050000Y-78581200D03*
X125600000Y-78581200D03*
D32*
X96520000Y-62995000D03*
X96520000Y-66545000D03*
X93980000Y-62995000D03*
X93980000Y-66545000D03*
M02*
