G04 #@! TF.GenerationSoftware,KiCad,Pcbnew,(5.1.2)-2*
G04 #@! TF.CreationDate,2020-01-09T21:44:13+08:00*
G04 #@! TF.ProjectId,wingxx-receiver,77696e67-7878-42d7-9265-636569766572,rev?*
G04 #@! TF.SameCoordinates,Original*
G04 #@! TF.FileFunction,Legend,Bot*
G04 #@! TF.FilePolarity,Positive*
%FSLAX46Y46*%
G04 Gerber Fmt 4.6, Leading zero omitted, Abs format (unit mm)*
G04 Created by KiCad (PCBNEW (5.1.2)-2) date 2020-01-09 21:44:13*
%MOMM*%
%LPD*%
G04 APERTURE LIST*
%ADD10C,0.300000*%
%ADD11C,0.120000*%
%ADD12C,0.150000*%
%ADD13C,0.100000*%
%ADD14C,0.152400*%
G04 APERTURE END LIST*
D10*
X148624285Y-145458571D02*
X148624285Y-143958571D01*
X148624285Y-145387142D02*
X148767142Y-145458571D01*
X149052857Y-145458571D01*
X149195714Y-145387142D01*
X149267142Y-145315714D01*
X149338571Y-145172857D01*
X149338571Y-144744285D01*
X149267142Y-144601428D01*
X149195714Y-144530000D01*
X149052857Y-144458571D01*
X148767142Y-144458571D01*
X148624285Y-144530000D01*
X147338571Y-145387142D02*
X147481428Y-145458571D01*
X147767142Y-145458571D01*
X147910000Y-145387142D01*
X147981428Y-145244285D01*
X147981428Y-144672857D01*
X147910000Y-144530000D01*
X147767142Y-144458571D01*
X147481428Y-144458571D01*
X147338571Y-144530000D01*
X147267142Y-144672857D01*
X147267142Y-144815714D01*
X147981428Y-144958571D01*
X146695714Y-145387142D02*
X146552857Y-145458571D01*
X146267142Y-145458571D01*
X146124285Y-145387142D01*
X146052857Y-145244285D01*
X146052857Y-145172857D01*
X146124285Y-145030000D01*
X146267142Y-144958571D01*
X146481428Y-144958571D01*
X146624285Y-144887142D01*
X146695714Y-144744285D01*
X146695714Y-144672857D01*
X146624285Y-144530000D01*
X146481428Y-144458571D01*
X146267142Y-144458571D01*
X146124285Y-144530000D01*
X145410000Y-145458571D02*
X145410000Y-144458571D01*
X145410000Y-143958571D02*
X145481428Y-144030000D01*
X145410000Y-144101428D01*
X145338571Y-144030000D01*
X145410000Y-143958571D01*
X145410000Y-144101428D01*
X144052857Y-144458571D02*
X144052857Y-145672857D01*
X144124285Y-145815714D01*
X144195714Y-145887142D01*
X144338571Y-145958571D01*
X144552857Y-145958571D01*
X144695714Y-145887142D01*
X144052857Y-145387142D02*
X144195714Y-145458571D01*
X144481428Y-145458571D01*
X144624285Y-145387142D01*
X144695714Y-145315714D01*
X144767142Y-145172857D01*
X144767142Y-144744285D01*
X144695714Y-144601428D01*
X144624285Y-144530000D01*
X144481428Y-144458571D01*
X144195714Y-144458571D01*
X144052857Y-144530000D01*
X143338571Y-144458571D02*
X143338571Y-145458571D01*
X143338571Y-144601428D02*
X143267142Y-144530000D01*
X143124285Y-144458571D01*
X142910000Y-144458571D01*
X142767142Y-144530000D01*
X142695714Y-144672857D01*
X142695714Y-145458571D01*
X141410000Y-145387142D02*
X141552857Y-145458571D01*
X141838571Y-145458571D01*
X141981428Y-145387142D01*
X142052857Y-145244285D01*
X142052857Y-144672857D01*
X141981428Y-144530000D01*
X141838571Y-144458571D01*
X141552857Y-144458571D01*
X141410000Y-144530000D01*
X141338571Y-144672857D01*
X141338571Y-144815714D01*
X142052857Y-144958571D01*
X140052857Y-145458571D02*
X140052857Y-143958571D01*
X140052857Y-145387142D02*
X140195714Y-145458571D01*
X140481428Y-145458571D01*
X140624285Y-145387142D01*
X140695714Y-145315714D01*
X140767142Y-145172857D01*
X140767142Y-144744285D01*
X140695714Y-144601428D01*
X140624285Y-144530000D01*
X140481428Y-144458571D01*
X140195714Y-144458571D01*
X140052857Y-144530000D01*
X138195714Y-145458571D02*
X138195714Y-143958571D01*
X138195714Y-144530000D02*
X138052857Y-144458571D01*
X137767142Y-144458571D01*
X137624285Y-144530000D01*
X137552857Y-144601428D01*
X137481428Y-144744285D01*
X137481428Y-145172857D01*
X137552857Y-145315714D01*
X137624285Y-145387142D01*
X137767142Y-145458571D01*
X138052857Y-145458571D01*
X138195714Y-145387142D01*
X136981428Y-144458571D02*
X136624285Y-145458571D01*
X136267142Y-144458571D02*
X136624285Y-145458571D01*
X136767142Y-145815714D01*
X136838571Y-145887142D01*
X136981428Y-145958571D01*
X134052857Y-144672857D02*
X134552857Y-144672857D01*
X134552857Y-145458571D02*
X134552857Y-143958571D01*
X133838571Y-143958571D01*
X132481428Y-145458571D02*
X133338571Y-145458571D01*
X132910000Y-145458571D02*
X132910000Y-143958571D01*
X133052857Y-144172857D01*
X133195714Y-144315714D01*
X133338571Y-144387142D01*
X131195714Y-144458571D02*
X131195714Y-145458571D01*
X131552857Y-143887142D02*
X131910000Y-144958571D01*
X130981428Y-144958571D01*
X129838571Y-145387142D02*
X129981428Y-145458571D01*
X130267142Y-145458571D01*
X130410000Y-145387142D01*
X130481428Y-145244285D01*
X130481428Y-144672857D01*
X130410000Y-144530000D01*
X130267142Y-144458571D01*
X129981428Y-144458571D01*
X129838571Y-144530000D01*
X129767142Y-144672857D01*
X129767142Y-144815714D01*
X130481428Y-144958571D01*
X128481428Y-145458571D02*
X128481428Y-144672857D01*
X128552857Y-144530000D01*
X128695714Y-144458571D01*
X128981428Y-144458571D01*
X129124285Y-144530000D01*
X128481428Y-145387142D02*
X128624285Y-145458571D01*
X128981428Y-145458571D01*
X129124285Y-145387142D01*
X129195714Y-145244285D01*
X129195714Y-145101428D01*
X129124285Y-144958571D01*
X128981428Y-144887142D01*
X128624285Y-144887142D01*
X128481428Y-144815714D01*
X127124285Y-144458571D02*
X127124285Y-145672857D01*
X127195714Y-145815714D01*
X127267142Y-145887142D01*
X127410000Y-145958571D01*
X127624285Y-145958571D01*
X127767142Y-145887142D01*
X127124285Y-145387142D02*
X127267142Y-145458571D01*
X127552857Y-145458571D01*
X127695714Y-145387142D01*
X127767142Y-145315714D01*
X127838571Y-145172857D01*
X127838571Y-144744285D01*
X127767142Y-144601428D01*
X127695714Y-144530000D01*
X127552857Y-144458571D01*
X127267142Y-144458571D01*
X127124285Y-144530000D01*
X126195714Y-145458571D02*
X126338571Y-145387142D01*
X126410000Y-145244285D01*
X126410000Y-143958571D01*
X125052857Y-145387142D02*
X125195714Y-145458571D01*
X125481428Y-145458571D01*
X125624285Y-145387142D01*
X125695714Y-145244285D01*
X125695714Y-144672857D01*
X125624285Y-144530000D01*
X125481428Y-144458571D01*
X125195714Y-144458571D01*
X125052857Y-144530000D01*
X124981428Y-144672857D01*
X124981428Y-144815714D01*
X125695714Y-144958571D01*
D11*
X87575000Y-136640000D02*
X83875000Y-136640000D01*
X87575000Y-142760000D02*
X87575000Y-136640000D01*
X83875000Y-142760000D02*
X87575000Y-142760000D01*
X83875000Y-136640000D02*
X83875000Y-142760000D01*
X106335000Y-100490000D02*
X106335000Y-95090000D01*
X110835000Y-100490000D02*
X106335000Y-100490000D01*
X106320000Y-61627936D02*
X106320000Y-62832064D01*
X104500000Y-61627936D02*
X104500000Y-62832064D01*
X80906252Y-98500000D02*
X80383748Y-98500000D01*
X80906252Y-97080000D02*
X80383748Y-97080000D01*
X80383748Y-92635000D02*
X80906252Y-92635000D01*
X80383748Y-94055000D02*
X80906252Y-94055000D01*
X90880000Y-63238748D02*
X90880000Y-63761252D01*
X89460000Y-63238748D02*
X89460000Y-63761252D01*
X87070000Y-63238748D02*
X87070000Y-63761252D01*
X85650000Y-63238748D02*
X85650000Y-63761252D01*
X83260000Y-63238748D02*
X83260000Y-63761252D01*
X81840000Y-63238748D02*
X81840000Y-63761252D01*
X79450000Y-63238748D02*
X79450000Y-63761252D01*
X78030000Y-63238748D02*
X78030000Y-63761252D01*
X142501252Y-137870000D02*
X141978748Y-137870000D01*
X142501252Y-136450000D02*
X141978748Y-136450000D01*
X142501252Y-142950000D02*
X141978748Y-142950000D01*
X142501252Y-141530000D02*
X141978748Y-141530000D01*
X87070000Y-100068748D02*
X87070000Y-100591252D01*
X85650000Y-100068748D02*
X85650000Y-100591252D01*
X87070000Y-94988748D02*
X87070000Y-95511252D01*
X85650000Y-94988748D02*
X85650000Y-95511252D01*
X94988748Y-105970000D02*
X95511252Y-105970000D01*
X94988748Y-107390000D02*
X95511252Y-107390000D01*
X95511252Y-89610000D02*
X94988748Y-89610000D01*
X95511252Y-88190000D02*
X94988748Y-88190000D01*
X80906252Y-102945000D02*
X80383748Y-102945000D01*
X80906252Y-101525000D02*
X80383748Y-101525000D01*
X108323748Y-101525000D02*
X108846252Y-101525000D01*
X108323748Y-102945000D02*
X108846252Y-102945000D01*
X108323748Y-92635000D02*
X108846252Y-92635000D01*
X108323748Y-94055000D02*
X108846252Y-94055000D01*
D12*
X90650000Y-92615000D02*
X90650000Y-91340000D01*
X90075000Y-102965000D02*
X90075000Y-102290000D01*
X100425000Y-102965000D02*
X100425000Y-102290000D01*
X100425000Y-92615000D02*
X100425000Y-93290000D01*
X90075000Y-92615000D02*
X90075000Y-93290000D01*
X100425000Y-92615000D02*
X99750000Y-92615000D01*
X100425000Y-102965000D02*
X99750000Y-102965000D01*
X90075000Y-102965000D02*
X90750000Y-102965000D01*
X90075000Y-92615000D02*
X90650000Y-92615000D01*
D11*
X98950000Y-63430000D02*
X98950000Y-60480000D01*
X102050000Y-61030000D02*
X102050000Y-63430000D01*
D13*
X123190000Y-129661920D02*
X123190000Y-144658080D01*
X123190000Y-144658080D02*
X103190040Y-144658080D01*
X103190040Y-144658080D02*
X103190040Y-129661920D01*
X103190040Y-129661920D02*
X123190000Y-129661920D01*
X130305000Y-142975000D02*
X130605000Y-142975000D01*
X130305000Y-142600000D02*
X130305000Y-142975000D01*
X130305000Y-136425000D02*
X130705000Y-136425000D01*
X130305000Y-136925000D02*
X130305000Y-136425000D01*
X133855000Y-142975000D02*
X133855000Y-142525000D01*
X133380000Y-142975000D02*
X133855000Y-142975000D01*
X133855000Y-136725000D02*
X134050000Y-136725000D01*
X133530000Y-136425000D02*
X133855000Y-136725000D01*
X133055000Y-136425000D02*
X133530000Y-136425000D01*
D11*
X92448748Y-142800000D02*
X92971252Y-142800000D01*
X92448748Y-144220000D02*
X92971252Y-144220000D01*
X92448748Y-138990000D02*
X92971252Y-138990000D01*
X92448748Y-140410000D02*
X92971252Y-140410000D01*
X92448748Y-135180000D02*
X92971252Y-135180000D01*
X92448748Y-136600000D02*
X92971252Y-136600000D01*
D12*
X149875000Y-119206000D02*
X149875000Y-120206000D01*
X148875000Y-119206000D02*
X149875000Y-119206000D01*
X149875000Y-133206000D02*
X148875000Y-133206000D01*
X149875000Y-132206000D02*
X149875000Y-133206000D01*
X135875000Y-133206000D02*
X135875000Y-132206000D01*
X136875000Y-133206000D02*
X135875000Y-133206000D01*
X135875000Y-119206000D02*
X136875000Y-119206000D01*
X135875000Y-120206000D02*
X135875000Y-119206000D01*
X130825000Y-119206000D02*
X130825000Y-120206000D01*
X129825000Y-119206000D02*
X130825000Y-119206000D01*
X130825000Y-133206000D02*
X129825000Y-133206000D01*
X130825000Y-132206000D02*
X130825000Y-133206000D01*
X116825000Y-133206000D02*
X116825000Y-132206000D01*
X117825000Y-133206000D02*
X116825000Y-133206000D01*
X116825000Y-119206000D02*
X117825000Y-119206000D01*
X116825000Y-120206000D02*
X116825000Y-119206000D01*
X111775000Y-119206000D02*
X111775000Y-120206000D01*
X110775000Y-119206000D02*
X111775000Y-119206000D01*
X111775000Y-133206000D02*
X110775000Y-133206000D01*
X111775000Y-132206000D02*
X111775000Y-133206000D01*
X97775000Y-133206000D02*
X97775000Y-132206000D01*
X98775000Y-133206000D02*
X97775000Y-133206000D01*
X97775000Y-119206000D02*
X98775000Y-119206000D01*
X97775000Y-120206000D02*
X97775000Y-119206000D01*
X92725000Y-119206000D02*
X92725000Y-120206000D01*
X91725000Y-119206000D02*
X92725000Y-119206000D01*
X92725000Y-133206000D02*
X91725000Y-133206000D01*
X92725000Y-132206000D02*
X92725000Y-133206000D01*
X78725000Y-133206000D02*
X78725000Y-132206000D01*
X79725000Y-133206000D02*
X78725000Y-133206000D01*
X78725000Y-119206000D02*
X79725000Y-119206000D01*
X78725000Y-120206000D02*
X78725000Y-119206000D01*
X135875000Y-114156000D02*
X135875000Y-113156000D01*
X136875000Y-114156000D02*
X135875000Y-114156000D01*
X135875000Y-100156000D02*
X136875000Y-100156000D01*
X135875000Y-101156000D02*
X135875000Y-100156000D01*
X149875000Y-100156000D02*
X149875000Y-101156000D01*
X148875000Y-100156000D02*
X149875000Y-100156000D01*
X149875000Y-114156000D02*
X148875000Y-114156000D01*
X149875000Y-113156000D02*
X149875000Y-114156000D01*
X116825000Y-114156000D02*
X116825000Y-113156000D01*
X117825000Y-114156000D02*
X116825000Y-114156000D01*
X116825000Y-100156000D02*
X117825000Y-100156000D01*
X116825000Y-101156000D02*
X116825000Y-100156000D01*
X130825000Y-100156000D02*
X130825000Y-101156000D01*
X129825000Y-100156000D02*
X130825000Y-100156000D01*
X130825000Y-114156000D02*
X129825000Y-114156000D01*
X130825000Y-113156000D02*
X130825000Y-114156000D01*
X97775000Y-114156000D02*
X97775000Y-113156000D01*
X98775000Y-114156000D02*
X97775000Y-114156000D01*
X97775000Y-100156000D02*
X98775000Y-100156000D01*
X97775000Y-101156000D02*
X97775000Y-100156000D01*
X111775000Y-100156000D02*
X111775000Y-101156000D01*
X110775000Y-100156000D02*
X111775000Y-100156000D01*
X111775000Y-114156000D02*
X110775000Y-114156000D01*
X111775000Y-113156000D02*
X111775000Y-114156000D01*
X78725000Y-114156000D02*
X78725000Y-113156000D01*
X79725000Y-114156000D02*
X78725000Y-114156000D01*
X78725000Y-100156000D02*
X79725000Y-100156000D01*
X78725000Y-101156000D02*
X78725000Y-100156000D01*
X92725000Y-100156000D02*
X92725000Y-101156000D01*
X91725000Y-100156000D02*
X92725000Y-100156000D01*
X92725000Y-114156000D02*
X91725000Y-114156000D01*
X92725000Y-113156000D02*
X92725000Y-114156000D01*
X149875000Y-81106200D02*
X149875000Y-82106200D01*
X148875000Y-81106200D02*
X149875000Y-81106200D01*
X149875000Y-95106200D02*
X148875000Y-95106200D01*
X149875000Y-94106200D02*
X149875000Y-95106200D01*
X135875000Y-95106200D02*
X135875000Y-94106200D01*
X136875000Y-95106200D02*
X135875000Y-95106200D01*
X135875000Y-81106200D02*
X136875000Y-81106200D01*
X135875000Y-82106200D02*
X135875000Y-81106200D01*
X130825000Y-81106200D02*
X130825000Y-82106200D01*
X129825000Y-81106200D02*
X130825000Y-81106200D01*
X130825000Y-95106200D02*
X129825000Y-95106200D01*
X130825000Y-94106200D02*
X130825000Y-95106200D01*
X116825000Y-95106200D02*
X116825000Y-94106200D01*
X117825000Y-95106200D02*
X116825000Y-95106200D01*
X116825000Y-81106200D02*
X117825000Y-81106200D01*
X116825000Y-82106200D02*
X116825000Y-81106200D01*
X111775000Y-81106200D02*
X111775000Y-82106200D01*
X110775000Y-81106200D02*
X111775000Y-81106200D01*
X111775000Y-95106200D02*
X110775000Y-95106200D01*
X111775000Y-94106200D02*
X111775000Y-95106200D01*
X97775000Y-95106200D02*
X97775000Y-94106200D01*
X98775000Y-95106200D02*
X97775000Y-95106200D01*
X97775000Y-81106200D02*
X98775000Y-81106200D01*
X97775000Y-82106200D02*
X97775000Y-81106200D01*
X92725000Y-81106200D02*
X92725000Y-82106200D01*
X91725000Y-81106200D02*
X92725000Y-81106200D01*
X92725000Y-95106200D02*
X91725000Y-95106200D01*
X92725000Y-94106200D02*
X92725000Y-95106200D01*
X78725000Y-95106200D02*
X78725000Y-94106200D01*
X79725000Y-95106200D02*
X78725000Y-95106200D01*
X78725000Y-81106200D02*
X79725000Y-81106200D01*
X78725000Y-82106200D02*
X78725000Y-81106200D01*
X135875000Y-76056200D02*
X135875000Y-75056200D01*
X136875000Y-76056200D02*
X135875000Y-76056200D01*
X135875000Y-62056200D02*
X136875000Y-62056200D01*
X135875000Y-63056200D02*
X135875000Y-62056200D01*
X149875000Y-62056200D02*
X149875000Y-63056200D01*
X148875000Y-62056200D02*
X149875000Y-62056200D01*
X149875000Y-76056200D02*
X148875000Y-76056200D01*
X149875000Y-75056200D02*
X149875000Y-76056200D01*
X116825000Y-76056200D02*
X116825000Y-75056200D01*
X117825000Y-76056200D02*
X116825000Y-76056200D01*
X116825000Y-62056200D02*
X117825000Y-62056200D01*
X116825000Y-63056200D02*
X116825000Y-62056200D01*
X130825000Y-62056200D02*
X130825000Y-63056200D01*
X129825000Y-62056200D02*
X130825000Y-62056200D01*
X130825000Y-76056200D02*
X129825000Y-76056200D01*
X130825000Y-75056200D02*
X130825000Y-76056200D01*
X97775000Y-76056200D02*
X97775000Y-75056200D01*
X98775000Y-76056200D02*
X97775000Y-76056200D01*
X97775000Y-62056200D02*
X98775000Y-62056200D01*
X97775000Y-63056200D02*
X97775000Y-62056200D01*
X111775000Y-62056200D02*
X111775000Y-63056200D01*
X110775000Y-62056200D02*
X111775000Y-62056200D01*
X111775000Y-76056200D02*
X110775000Y-76056200D01*
X111775000Y-75056200D02*
X111775000Y-76056200D01*
X78725000Y-76056200D02*
X78725000Y-75056200D01*
X79725000Y-76056200D02*
X78725000Y-76056200D01*
X78725000Y-62056200D02*
X79725000Y-62056200D01*
X78725000Y-63056200D02*
X78725000Y-62056200D01*
X92725000Y-62056200D02*
X92725000Y-63056200D01*
X91725000Y-62056200D02*
X92725000Y-62056200D01*
X92725000Y-76056200D02*
X91725000Y-76056200D01*
X92725000Y-75056200D02*
X92725000Y-76056200D01*
X133870000Y-133510000D02*
X135370000Y-133510000D01*
X133870000Y-128110000D02*
X133870000Y-133510000D01*
X135370000Y-128110000D02*
X133870000Y-128110000D01*
X135370000Y-133510000D02*
X135370000Y-128110000D01*
X134120000Y-131310000D02*
X134620000Y-130410000D01*
X135120000Y-131310000D02*
X134120000Y-131310000D01*
X134620000Y-130410000D02*
X135120000Y-131310000D01*
X135120000Y-130310000D02*
X134120000Y-130310000D01*
X131330000Y-133510000D02*
X132830000Y-133510000D01*
X131330000Y-128110000D02*
X131330000Y-133510000D01*
X132830000Y-128110000D02*
X131330000Y-128110000D01*
X132830000Y-133510000D02*
X132830000Y-128110000D01*
X131580000Y-131310000D02*
X132080000Y-130410000D01*
X132580000Y-131310000D02*
X131580000Y-131310000D01*
X132080000Y-130410000D02*
X132580000Y-131310000D01*
X132580000Y-130310000D02*
X131580000Y-130310000D01*
X95770000Y-133510000D02*
X97270000Y-133510000D01*
X95770000Y-128110000D02*
X95770000Y-133510000D01*
X97270000Y-128110000D02*
X95770000Y-128110000D01*
X97270000Y-133510000D02*
X97270000Y-128110000D01*
X96020000Y-131310000D02*
X96520000Y-130410000D01*
X97020000Y-131310000D02*
X96020000Y-131310000D01*
X96520000Y-130410000D02*
X97020000Y-131310000D01*
X97020000Y-130310000D02*
X96020000Y-130310000D01*
X93230000Y-133510000D02*
X94730000Y-133510000D01*
X93230000Y-128110000D02*
X93230000Y-133510000D01*
X94730000Y-128110000D02*
X93230000Y-128110000D01*
X94730000Y-133510000D02*
X94730000Y-128110000D01*
X93480000Y-131310000D02*
X93980000Y-130410000D01*
X94480000Y-131310000D02*
X93480000Y-131310000D01*
X93980000Y-130410000D02*
X94480000Y-131310000D01*
X94480000Y-130310000D02*
X93480000Y-130310000D01*
X145575000Y-117590000D02*
X145575000Y-116090000D01*
X140175000Y-117590000D02*
X145575000Y-117590000D01*
X140175000Y-116090000D02*
X140175000Y-117590000D01*
X145575000Y-116090000D02*
X140175000Y-116090000D01*
X143375000Y-117340000D02*
X142475000Y-116840000D01*
X143375000Y-116340000D02*
X143375000Y-117340000D01*
X142475000Y-116840000D02*
X143375000Y-116340000D01*
X142375000Y-116340000D02*
X142375000Y-117340000D01*
X126492000Y-117590000D02*
X126492000Y-116090000D01*
X121092000Y-117590000D02*
X126492000Y-117590000D01*
X121092000Y-116090000D02*
X121092000Y-117590000D01*
X126492000Y-116090000D02*
X121092000Y-116090000D01*
X124292000Y-117340000D02*
X123392000Y-116840000D01*
X124292000Y-116340000D02*
X124292000Y-117340000D01*
X123392000Y-116840000D02*
X124292000Y-116340000D01*
X123292000Y-116340000D02*
X123292000Y-117340000D01*
X107475000Y-117590000D02*
X107475000Y-116090000D01*
X102075000Y-117590000D02*
X107475000Y-117590000D01*
X102075000Y-116090000D02*
X102075000Y-117590000D01*
X107475000Y-116090000D02*
X102075000Y-116090000D01*
X105275000Y-117340000D02*
X104375000Y-116840000D01*
X105275000Y-116340000D02*
X105275000Y-117340000D01*
X104375000Y-116840000D02*
X105275000Y-116340000D01*
X104275000Y-116340000D02*
X104275000Y-117340000D01*
X88425000Y-117590000D02*
X88425000Y-116090000D01*
X83025000Y-117590000D02*
X88425000Y-117590000D01*
X83025000Y-116090000D02*
X83025000Y-117590000D01*
X88425000Y-116090000D02*
X83025000Y-116090000D01*
X86225000Y-117340000D02*
X85325000Y-116840000D01*
X86225000Y-116340000D02*
X86225000Y-117340000D01*
X85325000Y-116840000D02*
X86225000Y-116340000D01*
X85225000Y-116340000D02*
X85225000Y-117340000D01*
X133870000Y-95410000D02*
X135370000Y-95410000D01*
X133870000Y-90010000D02*
X133870000Y-95410000D01*
X135370000Y-90010000D02*
X133870000Y-90010000D01*
X135370000Y-95410000D02*
X135370000Y-90010000D01*
X134120000Y-93210000D02*
X134620000Y-92310000D01*
X135120000Y-93210000D02*
X134120000Y-93210000D01*
X134620000Y-92310000D02*
X135120000Y-93210000D01*
X135120000Y-92210000D02*
X134120000Y-92210000D01*
X131330000Y-95410000D02*
X132830000Y-95410000D01*
X131330000Y-90010000D02*
X131330000Y-95410000D01*
X132830000Y-90010000D02*
X131330000Y-90010000D01*
X132830000Y-95410000D02*
X132830000Y-90010000D01*
X131580000Y-93210000D02*
X132080000Y-92310000D01*
X132580000Y-93210000D02*
X131580000Y-93210000D01*
X132080000Y-92310000D02*
X132580000Y-93210000D01*
X132580000Y-92210000D02*
X131580000Y-92210000D01*
X107475000Y-79490000D02*
X107475000Y-77990000D01*
X102075000Y-79490000D02*
X107475000Y-79490000D01*
X102075000Y-77990000D02*
X102075000Y-79490000D01*
X107475000Y-77990000D02*
X102075000Y-77990000D01*
X105275000Y-79240000D02*
X104375000Y-78740000D01*
X105275000Y-78240000D02*
X105275000Y-79240000D01*
X104375000Y-78740000D02*
X105275000Y-78240000D01*
X104275000Y-78240000D02*
X104275000Y-79240000D01*
X88425000Y-79490000D02*
X88425000Y-77990000D01*
X83025000Y-79490000D02*
X88425000Y-79490000D01*
X83025000Y-77990000D02*
X83025000Y-79490000D01*
X88425000Y-77990000D02*
X83025000Y-77990000D01*
X86225000Y-79240000D02*
X85325000Y-78740000D01*
X86225000Y-78240000D02*
X86225000Y-79240000D01*
X85325000Y-78740000D02*
X86225000Y-78240000D01*
X85225000Y-78240000D02*
X85225000Y-79240000D01*
X145575000Y-79331200D02*
X145575000Y-77831200D01*
X140175000Y-79331200D02*
X145575000Y-79331200D01*
X140175000Y-77831200D02*
X140175000Y-79331200D01*
X145575000Y-77831200D02*
X140175000Y-77831200D01*
X143375000Y-79081200D02*
X142475000Y-78581200D01*
X143375000Y-78081200D02*
X143375000Y-79081200D01*
X142475000Y-78581200D02*
X143375000Y-78081200D01*
X142375000Y-78081200D02*
X142375000Y-79081200D01*
X126525000Y-79331200D02*
X126525000Y-77831200D01*
X121125000Y-79331200D02*
X126525000Y-79331200D01*
X121125000Y-77831200D02*
X121125000Y-79331200D01*
X126525000Y-77831200D02*
X121125000Y-77831200D01*
X124325000Y-79081200D02*
X123425000Y-78581200D01*
X124325000Y-78081200D02*
X124325000Y-79081200D01*
X123425000Y-78581200D02*
X124325000Y-78081200D01*
X123325000Y-78081200D02*
X123325000Y-79081200D01*
X95770000Y-67470000D02*
X97270000Y-67470000D01*
X95770000Y-62070000D02*
X95770000Y-67470000D01*
X97270000Y-62070000D02*
X95770000Y-62070000D01*
X97270000Y-67470000D02*
X97270000Y-62070000D01*
X96020000Y-65270000D02*
X96520000Y-64370000D01*
X97020000Y-65270000D02*
X96020000Y-65270000D01*
X96520000Y-64370000D02*
X97020000Y-65270000D01*
X97020000Y-64270000D02*
X96020000Y-64270000D01*
X93230000Y-67470000D02*
X94730000Y-67470000D01*
X93230000Y-62070000D02*
X93230000Y-67470000D01*
X94730000Y-62070000D02*
X93230000Y-62070000D01*
X94730000Y-67470000D02*
X94730000Y-62070000D01*
X93480000Y-65270000D02*
X93980000Y-64370000D01*
X94480000Y-65270000D02*
X93480000Y-65270000D01*
X93980000Y-64370000D02*
X94480000Y-65270000D01*
X94480000Y-64270000D02*
X93480000Y-64270000D01*
X83577380Y-137771428D02*
X83101190Y-137438095D01*
X83577380Y-137200000D02*
X82577380Y-137200000D01*
X82577380Y-137580952D01*
X82625000Y-137676190D01*
X82672619Y-137723809D01*
X82767857Y-137771428D01*
X82910714Y-137771428D01*
X83005952Y-137723809D01*
X83053571Y-137676190D01*
X83101190Y-137580952D01*
X83101190Y-137200000D01*
X83053571Y-138200000D02*
X83053571Y-138533333D01*
X83577380Y-138676190D02*
X83577380Y-138200000D01*
X82577380Y-138200000D01*
X82577380Y-138676190D01*
X83529761Y-139057142D02*
X83577380Y-139200000D01*
X83577380Y-139438095D01*
X83529761Y-139533333D01*
X83482142Y-139580952D01*
X83386904Y-139628571D01*
X83291666Y-139628571D01*
X83196428Y-139580952D01*
X83148809Y-139533333D01*
X83101190Y-139438095D01*
X83053571Y-139247619D01*
X83005952Y-139152380D01*
X82958333Y-139104761D01*
X82863095Y-139057142D01*
X82767857Y-139057142D01*
X82672619Y-139104761D01*
X82625000Y-139152380D01*
X82577380Y-139247619D01*
X82577380Y-139485714D01*
X82625000Y-139628571D01*
X83053571Y-140057142D02*
X83053571Y-140390476D01*
X83577380Y-140533333D02*
X83577380Y-140057142D01*
X82577380Y-140057142D01*
X82577380Y-140533333D01*
X82577380Y-140819047D02*
X82577380Y-141390476D01*
X83577380Y-141104761D02*
X82577380Y-141104761D01*
X83577380Y-142247619D02*
X83577380Y-141676190D01*
X83577380Y-141961904D02*
X82577380Y-141961904D01*
X82720238Y-141866666D01*
X82815476Y-141771428D01*
X82863095Y-141676190D01*
X111087380Y-96980476D02*
X112087380Y-97647142D01*
X111087380Y-97647142D02*
X112087380Y-96980476D01*
X112087380Y-98551904D02*
X112087380Y-97980476D01*
X112087380Y-98266190D02*
X111087380Y-98266190D01*
X111230238Y-98170952D01*
X111325476Y-98075714D01*
X111373095Y-97980476D01*
X103518571Y-61896666D02*
X103518571Y-61563333D01*
X104042380Y-61563333D02*
X103042380Y-61563333D01*
X103042380Y-62039523D01*
X104042380Y-62944285D02*
X104042380Y-62372857D01*
X104042380Y-62658571D02*
X103042380Y-62658571D01*
X103185238Y-62563333D01*
X103280476Y-62468095D01*
X103328095Y-62372857D01*
X80811666Y-96592380D02*
X81145000Y-96116190D01*
X81383095Y-96592380D02*
X81383095Y-95592380D01*
X81002142Y-95592380D01*
X80906904Y-95640000D01*
X80859285Y-95687619D01*
X80811666Y-95782857D01*
X80811666Y-95925714D01*
X80859285Y-96020952D01*
X80906904Y-96068571D01*
X81002142Y-96116190D01*
X81383095Y-96116190D01*
X79954523Y-95592380D02*
X80145000Y-95592380D01*
X80240238Y-95640000D01*
X80287857Y-95687619D01*
X80383095Y-95830476D01*
X80430714Y-96020952D01*
X80430714Y-96401904D01*
X80383095Y-96497142D01*
X80335476Y-96544761D01*
X80240238Y-96592380D01*
X80049761Y-96592380D01*
X79954523Y-96544761D01*
X79906904Y-96497142D01*
X79859285Y-96401904D01*
X79859285Y-96163809D01*
X79906904Y-96068571D01*
X79954523Y-96020952D01*
X80049761Y-95973333D01*
X80240238Y-95973333D01*
X80335476Y-96020952D01*
X80383095Y-96068571D01*
X80430714Y-96163809D01*
X80811666Y-95447380D02*
X81145000Y-94971190D01*
X81383095Y-95447380D02*
X81383095Y-94447380D01*
X81002142Y-94447380D01*
X80906904Y-94495000D01*
X80859285Y-94542619D01*
X80811666Y-94637857D01*
X80811666Y-94780714D01*
X80859285Y-94875952D01*
X80906904Y-94923571D01*
X81002142Y-94971190D01*
X81383095Y-94971190D01*
X79906904Y-94447380D02*
X80383095Y-94447380D01*
X80430714Y-94923571D01*
X80383095Y-94875952D01*
X80287857Y-94828333D01*
X80049761Y-94828333D01*
X79954523Y-94875952D01*
X79906904Y-94923571D01*
X79859285Y-95018809D01*
X79859285Y-95256904D01*
X79906904Y-95352142D01*
X79954523Y-95399761D01*
X80049761Y-95447380D01*
X80287857Y-95447380D01*
X80383095Y-95399761D01*
X80430714Y-95352142D01*
X88972380Y-63333333D02*
X88496190Y-63000000D01*
X88972380Y-62761904D02*
X87972380Y-62761904D01*
X87972380Y-63142857D01*
X88020000Y-63238095D01*
X88067619Y-63285714D01*
X88162857Y-63333333D01*
X88305714Y-63333333D01*
X88400952Y-63285714D01*
X88448571Y-63238095D01*
X88496190Y-63142857D01*
X88496190Y-62761904D01*
X88305714Y-64190476D02*
X88972380Y-64190476D01*
X87924761Y-63952380D02*
X88639047Y-63714285D01*
X88639047Y-64333333D01*
X85162380Y-63333333D02*
X84686190Y-63000000D01*
X85162380Y-62761904D02*
X84162380Y-62761904D01*
X84162380Y-63142857D01*
X84210000Y-63238095D01*
X84257619Y-63285714D01*
X84352857Y-63333333D01*
X84495714Y-63333333D01*
X84590952Y-63285714D01*
X84638571Y-63238095D01*
X84686190Y-63142857D01*
X84686190Y-62761904D01*
X84162380Y-63666666D02*
X84162380Y-64285714D01*
X84543333Y-63952380D01*
X84543333Y-64095238D01*
X84590952Y-64190476D01*
X84638571Y-64238095D01*
X84733809Y-64285714D01*
X84971904Y-64285714D01*
X85067142Y-64238095D01*
X85114761Y-64190476D01*
X85162380Y-64095238D01*
X85162380Y-63809523D01*
X85114761Y-63714285D01*
X85067142Y-63666666D01*
X81352380Y-63333333D02*
X80876190Y-63000000D01*
X81352380Y-62761904D02*
X80352380Y-62761904D01*
X80352380Y-63142857D01*
X80400000Y-63238095D01*
X80447619Y-63285714D01*
X80542857Y-63333333D01*
X80685714Y-63333333D01*
X80780952Y-63285714D01*
X80828571Y-63238095D01*
X80876190Y-63142857D01*
X80876190Y-62761904D01*
X80447619Y-63714285D02*
X80400000Y-63761904D01*
X80352380Y-63857142D01*
X80352380Y-64095238D01*
X80400000Y-64190476D01*
X80447619Y-64238095D01*
X80542857Y-64285714D01*
X80638095Y-64285714D01*
X80780952Y-64238095D01*
X81352380Y-63666666D01*
X81352380Y-64285714D01*
X77542380Y-63333333D02*
X77066190Y-63000000D01*
X77542380Y-62761904D02*
X76542380Y-62761904D01*
X76542380Y-63142857D01*
X76590000Y-63238095D01*
X76637619Y-63285714D01*
X76732857Y-63333333D01*
X76875714Y-63333333D01*
X76970952Y-63285714D01*
X77018571Y-63238095D01*
X77066190Y-63142857D01*
X77066190Y-62761904D01*
X77542380Y-64285714D02*
X77542380Y-63714285D01*
X77542380Y-64000000D02*
X76542380Y-64000000D01*
X76685238Y-63904761D01*
X76780476Y-63809523D01*
X76828095Y-63714285D01*
X142882857Y-135867142D02*
X142930476Y-135914761D01*
X143073333Y-135962380D01*
X143168571Y-135962380D01*
X143311428Y-135914761D01*
X143406666Y-135819523D01*
X143454285Y-135724285D01*
X143501904Y-135533809D01*
X143501904Y-135390952D01*
X143454285Y-135200476D01*
X143406666Y-135105238D01*
X143311428Y-135010000D01*
X143168571Y-134962380D01*
X143073333Y-134962380D01*
X142930476Y-135010000D01*
X142882857Y-135057619D01*
X141930476Y-135962380D02*
X142501904Y-135962380D01*
X142216190Y-135962380D02*
X142216190Y-134962380D01*
X142311428Y-135105238D01*
X142406666Y-135200476D01*
X142501904Y-135248095D01*
X141549523Y-135057619D02*
X141501904Y-135010000D01*
X141406666Y-134962380D01*
X141168571Y-134962380D01*
X141073333Y-135010000D01*
X141025714Y-135057619D01*
X140978095Y-135152857D01*
X140978095Y-135248095D01*
X141025714Y-135390952D01*
X141597142Y-135962380D01*
X140978095Y-135962380D01*
X142882857Y-140947142D02*
X142930476Y-140994761D01*
X143073333Y-141042380D01*
X143168571Y-141042380D01*
X143311428Y-140994761D01*
X143406666Y-140899523D01*
X143454285Y-140804285D01*
X143501904Y-140613809D01*
X143501904Y-140470952D01*
X143454285Y-140280476D01*
X143406666Y-140185238D01*
X143311428Y-140090000D01*
X143168571Y-140042380D01*
X143073333Y-140042380D01*
X142930476Y-140090000D01*
X142882857Y-140137619D01*
X141930476Y-141042380D02*
X142501904Y-141042380D01*
X142216190Y-141042380D02*
X142216190Y-140042380D01*
X142311428Y-140185238D01*
X142406666Y-140280476D01*
X142501904Y-140328095D01*
X140978095Y-141042380D02*
X141549523Y-141042380D01*
X141263809Y-141042380D02*
X141263809Y-140042380D01*
X141359047Y-140185238D01*
X141454285Y-140280476D01*
X141549523Y-140328095D01*
X85067142Y-100163333D02*
X85114761Y-100115714D01*
X85162380Y-99972857D01*
X85162380Y-99877619D01*
X85114761Y-99734761D01*
X85019523Y-99639523D01*
X84924285Y-99591904D01*
X84733809Y-99544285D01*
X84590952Y-99544285D01*
X84400476Y-99591904D01*
X84305238Y-99639523D01*
X84210000Y-99734761D01*
X84162380Y-99877619D01*
X84162380Y-99972857D01*
X84210000Y-100115714D01*
X84257619Y-100163333D01*
X84162380Y-100496666D02*
X84162380Y-101163333D01*
X85162380Y-100734761D01*
X85067142Y-95083333D02*
X85114761Y-95035714D01*
X85162380Y-94892857D01*
X85162380Y-94797619D01*
X85114761Y-94654761D01*
X85019523Y-94559523D01*
X84924285Y-94511904D01*
X84733809Y-94464285D01*
X84590952Y-94464285D01*
X84400476Y-94511904D01*
X84305238Y-94559523D01*
X84210000Y-94654761D01*
X84162380Y-94797619D01*
X84162380Y-94892857D01*
X84210000Y-95035714D01*
X84257619Y-95083333D01*
X84162380Y-95940476D02*
X84162380Y-95750000D01*
X84210000Y-95654761D01*
X84257619Y-95607142D01*
X84400476Y-95511904D01*
X84590952Y-95464285D01*
X84971904Y-95464285D01*
X85067142Y-95511904D01*
X85114761Y-95559523D01*
X85162380Y-95654761D01*
X85162380Y-95845238D01*
X85114761Y-95940476D01*
X85067142Y-95988095D01*
X84971904Y-96035714D01*
X84733809Y-96035714D01*
X84638571Y-95988095D01*
X84590952Y-95940476D01*
X84543333Y-95845238D01*
X84543333Y-95654761D01*
X84590952Y-95559523D01*
X84638571Y-95511904D01*
X84733809Y-95464285D01*
X95416666Y-108687142D02*
X95464285Y-108734761D01*
X95607142Y-108782380D01*
X95702380Y-108782380D01*
X95845238Y-108734761D01*
X95940476Y-108639523D01*
X95988095Y-108544285D01*
X96035714Y-108353809D01*
X96035714Y-108210952D01*
X95988095Y-108020476D01*
X95940476Y-107925238D01*
X95845238Y-107830000D01*
X95702380Y-107782380D01*
X95607142Y-107782380D01*
X95464285Y-107830000D01*
X95416666Y-107877619D01*
X94511904Y-107782380D02*
X94988095Y-107782380D01*
X95035714Y-108258571D01*
X94988095Y-108210952D01*
X94892857Y-108163333D01*
X94654761Y-108163333D01*
X94559523Y-108210952D01*
X94511904Y-108258571D01*
X94464285Y-108353809D01*
X94464285Y-108591904D01*
X94511904Y-108687142D01*
X94559523Y-108734761D01*
X94654761Y-108782380D01*
X94892857Y-108782380D01*
X94988095Y-108734761D01*
X95035714Y-108687142D01*
X95416666Y-87607142D02*
X95464285Y-87654761D01*
X95607142Y-87702380D01*
X95702380Y-87702380D01*
X95845238Y-87654761D01*
X95940476Y-87559523D01*
X95988095Y-87464285D01*
X96035714Y-87273809D01*
X96035714Y-87130952D01*
X95988095Y-86940476D01*
X95940476Y-86845238D01*
X95845238Y-86750000D01*
X95702380Y-86702380D01*
X95607142Y-86702380D01*
X95464285Y-86750000D01*
X95416666Y-86797619D01*
X94559523Y-87035714D02*
X94559523Y-87702380D01*
X94797619Y-86654761D02*
X95035714Y-87369047D01*
X94416666Y-87369047D01*
X80811666Y-100942142D02*
X80859285Y-100989761D01*
X81002142Y-101037380D01*
X81097380Y-101037380D01*
X81240238Y-100989761D01*
X81335476Y-100894523D01*
X81383095Y-100799285D01*
X81430714Y-100608809D01*
X81430714Y-100465952D01*
X81383095Y-100275476D01*
X81335476Y-100180238D01*
X81240238Y-100085000D01*
X81097380Y-100037380D01*
X81002142Y-100037380D01*
X80859285Y-100085000D01*
X80811666Y-100132619D01*
X80478333Y-100037380D02*
X79859285Y-100037380D01*
X80192619Y-100418333D01*
X80049761Y-100418333D01*
X79954523Y-100465952D01*
X79906904Y-100513571D01*
X79859285Y-100608809D01*
X79859285Y-100846904D01*
X79906904Y-100942142D01*
X79954523Y-100989761D01*
X80049761Y-101037380D01*
X80335476Y-101037380D01*
X80430714Y-100989761D01*
X80478333Y-100942142D01*
X108751666Y-104242142D02*
X108799285Y-104289761D01*
X108942142Y-104337380D01*
X109037380Y-104337380D01*
X109180238Y-104289761D01*
X109275476Y-104194523D01*
X109323095Y-104099285D01*
X109370714Y-103908809D01*
X109370714Y-103765952D01*
X109323095Y-103575476D01*
X109275476Y-103480238D01*
X109180238Y-103385000D01*
X109037380Y-103337380D01*
X108942142Y-103337380D01*
X108799285Y-103385000D01*
X108751666Y-103432619D01*
X108370714Y-103432619D02*
X108323095Y-103385000D01*
X108227857Y-103337380D01*
X107989761Y-103337380D01*
X107894523Y-103385000D01*
X107846904Y-103432619D01*
X107799285Y-103527857D01*
X107799285Y-103623095D01*
X107846904Y-103765952D01*
X108418333Y-104337380D01*
X107799285Y-104337380D01*
X108751666Y-95352142D02*
X108799285Y-95399761D01*
X108942142Y-95447380D01*
X109037380Y-95447380D01*
X109180238Y-95399761D01*
X109275476Y-95304523D01*
X109323095Y-95209285D01*
X109370714Y-95018809D01*
X109370714Y-94875952D01*
X109323095Y-94685476D01*
X109275476Y-94590238D01*
X109180238Y-94495000D01*
X109037380Y-94447380D01*
X108942142Y-94447380D01*
X108799285Y-94495000D01*
X108751666Y-94542619D01*
X107799285Y-95447380D02*
X108370714Y-95447380D01*
X108085000Y-95447380D02*
X108085000Y-94447380D01*
X108180238Y-94590238D01*
X108275476Y-94685476D01*
X108370714Y-94733095D01*
X87252380Y-97028095D02*
X88061904Y-97028095D01*
X88157142Y-97075714D01*
X88204761Y-97123333D01*
X88252380Y-97218571D01*
X88252380Y-97409047D01*
X88204761Y-97504285D01*
X88157142Y-97551904D01*
X88061904Y-97599523D01*
X87252380Y-97599523D01*
X88252380Y-98599523D02*
X88252380Y-98028095D01*
X88252380Y-98313809D02*
X87252380Y-98313809D01*
X87395238Y-98218571D01*
X87490476Y-98123333D01*
X87538095Y-98028095D01*
X98572380Y-61511904D02*
X97572380Y-61511904D01*
X97572380Y-61750000D01*
X97620000Y-61892857D01*
X97715238Y-61988095D01*
X97810476Y-62035714D01*
X98000952Y-62083333D01*
X98143809Y-62083333D01*
X98334285Y-62035714D01*
X98429523Y-61988095D01*
X98524761Y-61892857D01*
X98572380Y-61750000D01*
X98572380Y-61511904D01*
X97572380Y-62940476D02*
X97572380Y-62750000D01*
X97620000Y-62654761D01*
X97667619Y-62607142D01*
X97810476Y-62511904D01*
X98000952Y-62464285D01*
X98381904Y-62464285D01*
X98477142Y-62511904D01*
X98524761Y-62559523D01*
X98572380Y-62654761D01*
X98572380Y-62845238D01*
X98524761Y-62940476D01*
X98477142Y-62988095D01*
X98381904Y-63035714D01*
X98143809Y-63035714D01*
X98048571Y-62988095D01*
X98000952Y-62940476D01*
X97953333Y-62845238D01*
X97953333Y-62654761D01*
X98000952Y-62559523D01*
X98048571Y-62511904D01*
X98143809Y-62464285D01*
D14*
X109868571Y-136017142D02*
X110868571Y-136017142D01*
X109868571Y-135374285D02*
X110654285Y-135374285D01*
X110797142Y-135445714D01*
X110868571Y-135588571D01*
X110868571Y-135802857D01*
X110797142Y-135945714D01*
X110725714Y-136017142D01*
X110725714Y-137588571D02*
X110797142Y-137517142D01*
X110868571Y-137302857D01*
X110868571Y-137160000D01*
X110797142Y-136945714D01*
X110654285Y-136802857D01*
X110511428Y-136731428D01*
X110225714Y-136660000D01*
X110011428Y-136660000D01*
X109725714Y-136731428D01*
X109582857Y-136802857D01*
X109440000Y-136945714D01*
X109368571Y-137160000D01*
X109368571Y-137302857D01*
X109440000Y-137517142D01*
X109511428Y-137588571D01*
X110868571Y-139017142D02*
X110868571Y-138160000D01*
X110868571Y-138588571D02*
X109368571Y-138588571D01*
X109582857Y-138445714D01*
X109725714Y-138302857D01*
X109797142Y-138160000D01*
X106898285Y-132088571D02*
X107612571Y-132088571D01*
X106112571Y-131588571D02*
X106898285Y-132088571D01*
X106112571Y-132588571D01*
X106112571Y-133517142D02*
X107184000Y-133517142D01*
X107398285Y-133445714D01*
X107541142Y-133302857D01*
X107612571Y-133088571D01*
X107612571Y-132945714D01*
X107041142Y-134231428D02*
X107041142Y-135374285D01*
X107612571Y-136874285D02*
X107612571Y-136017142D01*
X107612571Y-136445714D02*
X106112571Y-136445714D01*
X106326857Y-136302857D01*
X106469714Y-136160000D01*
X106541142Y-136017142D01*
X106612571Y-138160000D02*
X107612571Y-138160000D01*
X106041142Y-137802857D02*
X107112571Y-137445714D01*
X107112571Y-138374285D01*
X106112571Y-139231428D02*
X106112571Y-139374285D01*
X106184000Y-139517142D01*
X106255428Y-139588571D01*
X106398285Y-139660000D01*
X106684000Y-139731428D01*
X107041142Y-139731428D01*
X107326857Y-139660000D01*
X107469714Y-139588571D01*
X107541142Y-139517142D01*
X107612571Y-139374285D01*
X107612571Y-139231428D01*
X107541142Y-139088571D01*
X107469714Y-139017142D01*
X107326857Y-138945714D01*
X107041142Y-138874285D01*
X106684000Y-138874285D01*
X106398285Y-138945714D01*
X106255428Y-139017142D01*
X106184000Y-139088571D01*
X106112571Y-139231428D01*
X107612571Y-141160000D02*
X107612571Y-140302857D01*
X107612571Y-140731428D02*
X106112571Y-140731428D01*
X106326857Y-140588571D01*
X106469714Y-140445714D01*
X106541142Y-140302857D01*
X106112571Y-142517142D02*
X106112571Y-141802857D01*
X106826857Y-141731428D01*
X106755428Y-141802857D01*
X106684000Y-141945714D01*
X106684000Y-142302857D01*
X106755428Y-142445714D01*
X106826857Y-142517142D01*
X106969714Y-142588571D01*
X107326857Y-142588571D01*
X107469714Y-142517142D01*
X107541142Y-142445714D01*
X107612571Y-142302857D01*
X107612571Y-141945714D01*
X107541142Y-141802857D01*
X107469714Y-141731428D01*
D12*
X116038095Y-66802380D02*
X116038095Y-67611904D01*
X115990476Y-67707142D01*
X115942857Y-67754761D01*
X115847619Y-67802380D01*
X115657142Y-67802380D01*
X115561904Y-67754761D01*
X115514285Y-67707142D01*
X115466666Y-67611904D01*
X115466666Y-66802380D01*
X115038095Y-67754761D02*
X114895238Y-67802380D01*
X114657142Y-67802380D01*
X114561904Y-67754761D01*
X114514285Y-67707142D01*
X114466666Y-67611904D01*
X114466666Y-67516666D01*
X114514285Y-67421428D01*
X114561904Y-67373809D01*
X114657142Y-67326190D01*
X114847619Y-67278571D01*
X114942857Y-67230952D01*
X114990476Y-67183333D01*
X115038095Y-67088095D01*
X115038095Y-66992857D01*
X114990476Y-66897619D01*
X114942857Y-66850000D01*
X114847619Y-66802380D01*
X114609523Y-66802380D01*
X114466666Y-66850000D01*
X113704761Y-67278571D02*
X113561904Y-67326190D01*
X113514285Y-67373809D01*
X113466666Y-67469047D01*
X113466666Y-67611904D01*
X113514285Y-67707142D01*
X113561904Y-67754761D01*
X113657142Y-67802380D01*
X114038095Y-67802380D01*
X114038095Y-66802380D01*
X113704761Y-66802380D01*
X113609523Y-66850000D01*
X113561904Y-66897619D01*
X113514285Y-66992857D01*
X113514285Y-67088095D01*
X113561904Y-67183333D01*
X113609523Y-67230952D01*
X113704761Y-67278571D01*
X114038095Y-67278571D01*
X112514285Y-67802380D02*
X113085714Y-67802380D01*
X112800000Y-67802380D02*
X112800000Y-66802380D01*
X112895238Y-66945238D01*
X112990476Y-67040476D01*
X113085714Y-67088095D01*
X131532380Y-136930142D02*
X132532380Y-137263476D01*
X131532380Y-137596809D01*
X132627619Y-137692047D02*
X132627619Y-138453952D01*
X132532380Y-139263476D02*
X132056190Y-138930142D01*
X132532380Y-138692047D02*
X131532380Y-138692047D01*
X131532380Y-139073000D01*
X131580000Y-139168238D01*
X131627619Y-139215857D01*
X131722857Y-139263476D01*
X131865714Y-139263476D01*
X131960952Y-139215857D01*
X132008571Y-139168238D01*
X132056190Y-139073000D01*
X132056190Y-138692047D01*
X132008571Y-139692047D02*
X132008571Y-140025380D01*
X132532380Y-140168238D02*
X132532380Y-139692047D01*
X131532380Y-139692047D01*
X131532380Y-140168238D01*
X131580000Y-141120619D02*
X131532380Y-141025380D01*
X131532380Y-140882523D01*
X131580000Y-140739666D01*
X131675238Y-140644428D01*
X131770476Y-140596809D01*
X131960952Y-140549190D01*
X132103809Y-140549190D01*
X132294285Y-140596809D01*
X132389523Y-140644428D01*
X132484761Y-140739666D01*
X132532380Y-140882523D01*
X132532380Y-140977761D01*
X132484761Y-141120619D01*
X132437142Y-141168238D01*
X132103809Y-141168238D01*
X132103809Y-140977761D01*
X132532380Y-142120619D02*
X132532380Y-141549190D01*
X132532380Y-141834904D02*
X131532380Y-141834904D01*
X131675238Y-141739666D01*
X131770476Y-141644428D01*
X131818095Y-141549190D01*
X101845119Y-140025357D02*
X102321309Y-140358690D01*
X101845119Y-140596785D02*
X102845119Y-140596785D01*
X102845119Y-140215833D01*
X102797500Y-140120595D01*
X102749880Y-140072976D01*
X102654642Y-140025357D01*
X102511785Y-140025357D01*
X102416547Y-140072976D01*
X102368928Y-140120595D01*
X102321309Y-140215833D01*
X102321309Y-140596785D01*
X101845119Y-139072976D02*
X101845119Y-139644404D01*
X101845119Y-139358690D02*
X102845119Y-139358690D01*
X102702261Y-139453928D01*
X102607023Y-139549166D01*
X102559404Y-139644404D01*
X102845119Y-138739642D02*
X102845119Y-138120595D01*
X102464166Y-138453928D01*
X102464166Y-138311071D01*
X102416547Y-138215833D01*
X102368928Y-138168214D01*
X102273690Y-138120595D01*
X102035595Y-138120595D01*
X101940357Y-138168214D01*
X101892738Y-138215833D01*
X101845119Y-138311071D01*
X101845119Y-138596785D01*
X101892738Y-138692023D01*
X101940357Y-138739642D01*
X93352857Y-141802380D02*
X93686190Y-141326190D01*
X93924285Y-141802380D02*
X93924285Y-140802380D01*
X93543333Y-140802380D01*
X93448095Y-140850000D01*
X93400476Y-140897619D01*
X93352857Y-140992857D01*
X93352857Y-141135714D01*
X93400476Y-141230952D01*
X93448095Y-141278571D01*
X93543333Y-141326190D01*
X93924285Y-141326190D01*
X92400476Y-141802380D02*
X92971904Y-141802380D01*
X92686190Y-141802380D02*
X92686190Y-140802380D01*
X92781428Y-140945238D01*
X92876666Y-141040476D01*
X92971904Y-141088095D01*
X92019523Y-140897619D02*
X91971904Y-140850000D01*
X91876666Y-140802380D01*
X91638571Y-140802380D01*
X91543333Y-140850000D01*
X91495714Y-140897619D01*
X91448095Y-140992857D01*
X91448095Y-141088095D01*
X91495714Y-141230952D01*
X92067142Y-141802380D01*
X91448095Y-141802380D01*
X93352857Y-137992380D02*
X93686190Y-137516190D01*
X93924285Y-137992380D02*
X93924285Y-136992380D01*
X93543333Y-136992380D01*
X93448095Y-137040000D01*
X93400476Y-137087619D01*
X93352857Y-137182857D01*
X93352857Y-137325714D01*
X93400476Y-137420952D01*
X93448095Y-137468571D01*
X93543333Y-137516190D01*
X93924285Y-137516190D01*
X92400476Y-137992380D02*
X92971904Y-137992380D01*
X92686190Y-137992380D02*
X92686190Y-136992380D01*
X92781428Y-137135238D01*
X92876666Y-137230476D01*
X92971904Y-137278095D01*
X91448095Y-137992380D02*
X92019523Y-137992380D01*
X91733809Y-137992380D02*
X91733809Y-136992380D01*
X91829047Y-137135238D01*
X91924285Y-137230476D01*
X92019523Y-137278095D01*
X144089285Y-134958380D02*
X144089285Y-133958380D01*
X143517857Y-134958380D02*
X143946428Y-134386952D01*
X143517857Y-133958380D02*
X144089285Y-134529809D01*
X143184523Y-133958380D02*
X142565476Y-133958380D01*
X142898809Y-134339333D01*
X142755952Y-134339333D01*
X142660714Y-134386952D01*
X142613095Y-134434571D01*
X142565476Y-134529809D01*
X142565476Y-134767904D01*
X142613095Y-134863142D01*
X142660714Y-134910761D01*
X142755952Y-134958380D01*
X143041666Y-134958380D01*
X143136904Y-134910761D01*
X143184523Y-134863142D01*
X141708333Y-134291714D02*
X141708333Y-134958380D01*
X141946428Y-133910761D02*
X142184523Y-134625047D01*
X141565476Y-134625047D01*
X125039285Y-134958380D02*
X125039285Y-133958380D01*
X124467857Y-134958380D02*
X124896428Y-134386952D01*
X124467857Y-133958380D02*
X125039285Y-134529809D01*
X124134523Y-133958380D02*
X123515476Y-133958380D01*
X123848809Y-134339333D01*
X123705952Y-134339333D01*
X123610714Y-134386952D01*
X123563095Y-134434571D01*
X123515476Y-134529809D01*
X123515476Y-134767904D01*
X123563095Y-134863142D01*
X123610714Y-134910761D01*
X123705952Y-134958380D01*
X123991666Y-134958380D01*
X124086904Y-134910761D01*
X124134523Y-134863142D01*
X123182142Y-133958380D02*
X122563095Y-133958380D01*
X122896428Y-134339333D01*
X122753571Y-134339333D01*
X122658333Y-134386952D01*
X122610714Y-134434571D01*
X122563095Y-134529809D01*
X122563095Y-134767904D01*
X122610714Y-134863142D01*
X122658333Y-134910761D01*
X122753571Y-134958380D01*
X123039285Y-134958380D01*
X123134523Y-134910761D01*
X123182142Y-134863142D01*
X105989285Y-134958380D02*
X105989285Y-133958380D01*
X105417857Y-134958380D02*
X105846428Y-134386952D01*
X105417857Y-133958380D02*
X105989285Y-134529809D01*
X105084523Y-133958380D02*
X104465476Y-133958380D01*
X104798809Y-134339333D01*
X104655952Y-134339333D01*
X104560714Y-134386952D01*
X104513095Y-134434571D01*
X104465476Y-134529809D01*
X104465476Y-134767904D01*
X104513095Y-134863142D01*
X104560714Y-134910761D01*
X104655952Y-134958380D01*
X104941666Y-134958380D01*
X105036904Y-134910761D01*
X105084523Y-134863142D01*
X104084523Y-134053619D02*
X104036904Y-134006000D01*
X103941666Y-133958380D01*
X103703571Y-133958380D01*
X103608333Y-134006000D01*
X103560714Y-134053619D01*
X103513095Y-134148857D01*
X103513095Y-134244095D01*
X103560714Y-134386952D01*
X104132142Y-134958380D01*
X103513095Y-134958380D01*
X86939285Y-134958380D02*
X86939285Y-133958380D01*
X86367857Y-134958380D02*
X86796428Y-134386952D01*
X86367857Y-133958380D02*
X86939285Y-134529809D01*
X86034523Y-133958380D02*
X85415476Y-133958380D01*
X85748809Y-134339333D01*
X85605952Y-134339333D01*
X85510714Y-134386952D01*
X85463095Y-134434571D01*
X85415476Y-134529809D01*
X85415476Y-134767904D01*
X85463095Y-134863142D01*
X85510714Y-134910761D01*
X85605952Y-134958380D01*
X85891666Y-134958380D01*
X85986904Y-134910761D01*
X86034523Y-134863142D01*
X84463095Y-134958380D02*
X85034523Y-134958380D01*
X84748809Y-134958380D02*
X84748809Y-133958380D01*
X84844047Y-134101238D01*
X84939285Y-134196476D01*
X85034523Y-134244095D01*
X144089285Y-99308380D02*
X144089285Y-98308380D01*
X143517857Y-99308380D02*
X143946428Y-98736952D01*
X143517857Y-98308380D02*
X144089285Y-98879809D01*
X143136904Y-98403619D02*
X143089285Y-98356000D01*
X142994047Y-98308380D01*
X142755952Y-98308380D01*
X142660714Y-98356000D01*
X142613095Y-98403619D01*
X142565476Y-98498857D01*
X142565476Y-98594095D01*
X142613095Y-98736952D01*
X143184523Y-99308380D01*
X142565476Y-99308380D01*
X141708333Y-98641714D02*
X141708333Y-99308380D01*
X141946428Y-98260761D02*
X142184523Y-98975047D01*
X141565476Y-98975047D01*
X125039285Y-99308380D02*
X125039285Y-98308380D01*
X124467857Y-99308380D02*
X124896428Y-98736952D01*
X124467857Y-98308380D02*
X125039285Y-98879809D01*
X124086904Y-98403619D02*
X124039285Y-98356000D01*
X123944047Y-98308380D01*
X123705952Y-98308380D01*
X123610714Y-98356000D01*
X123563095Y-98403619D01*
X123515476Y-98498857D01*
X123515476Y-98594095D01*
X123563095Y-98736952D01*
X124134523Y-99308380D01*
X123515476Y-99308380D01*
X123182142Y-98308380D02*
X122563095Y-98308380D01*
X122896428Y-98689333D01*
X122753571Y-98689333D01*
X122658333Y-98736952D01*
X122610714Y-98784571D01*
X122563095Y-98879809D01*
X122563095Y-99117904D01*
X122610714Y-99213142D01*
X122658333Y-99260761D01*
X122753571Y-99308380D01*
X123039285Y-99308380D01*
X123134523Y-99260761D01*
X123182142Y-99213142D01*
X105989285Y-99308380D02*
X105989285Y-98308380D01*
X105417857Y-99308380D02*
X105846428Y-98736952D01*
X105417857Y-98308380D02*
X105989285Y-98879809D01*
X105036904Y-98403619D02*
X104989285Y-98356000D01*
X104894047Y-98308380D01*
X104655952Y-98308380D01*
X104560714Y-98356000D01*
X104513095Y-98403619D01*
X104465476Y-98498857D01*
X104465476Y-98594095D01*
X104513095Y-98736952D01*
X105084523Y-99308380D01*
X104465476Y-99308380D01*
X104084523Y-98403619D02*
X104036904Y-98356000D01*
X103941666Y-98308380D01*
X103703571Y-98308380D01*
X103608333Y-98356000D01*
X103560714Y-98403619D01*
X103513095Y-98498857D01*
X103513095Y-98594095D01*
X103560714Y-98736952D01*
X104132142Y-99308380D01*
X103513095Y-99308380D01*
X86939285Y-99308380D02*
X86939285Y-98308380D01*
X86367857Y-99308380D02*
X86796428Y-98736952D01*
X86367857Y-98308380D02*
X86939285Y-98879809D01*
X85986904Y-98403619D02*
X85939285Y-98356000D01*
X85844047Y-98308380D01*
X85605952Y-98308380D01*
X85510714Y-98356000D01*
X85463095Y-98403619D01*
X85415476Y-98498857D01*
X85415476Y-98594095D01*
X85463095Y-98736952D01*
X86034523Y-99308380D01*
X85415476Y-99308380D01*
X84463095Y-99308380D02*
X85034523Y-99308380D01*
X84748809Y-99308380D02*
X84748809Y-98308380D01*
X84844047Y-98451238D01*
X84939285Y-98546476D01*
X85034523Y-98594095D01*
X144089285Y-96858580D02*
X144089285Y-95858580D01*
X143517857Y-96858580D02*
X143946428Y-96287152D01*
X143517857Y-95858580D02*
X144089285Y-96430009D01*
X142565476Y-96858580D02*
X143136904Y-96858580D01*
X142851190Y-96858580D02*
X142851190Y-95858580D01*
X142946428Y-96001438D01*
X143041666Y-96096676D01*
X143136904Y-96144295D01*
X141708333Y-96191914D02*
X141708333Y-96858580D01*
X141946428Y-95810961D02*
X142184523Y-96525247D01*
X141565476Y-96525247D01*
X125039285Y-96858580D02*
X125039285Y-95858580D01*
X124467857Y-96858580D02*
X124896428Y-96287152D01*
X124467857Y-95858580D02*
X125039285Y-96430009D01*
X123515476Y-96858580D02*
X124086904Y-96858580D01*
X123801190Y-96858580D02*
X123801190Y-95858580D01*
X123896428Y-96001438D01*
X123991666Y-96096676D01*
X124086904Y-96144295D01*
X123182142Y-95858580D02*
X122563095Y-95858580D01*
X122896428Y-96239533D01*
X122753571Y-96239533D01*
X122658333Y-96287152D01*
X122610714Y-96334771D01*
X122563095Y-96430009D01*
X122563095Y-96668104D01*
X122610714Y-96763342D01*
X122658333Y-96810961D01*
X122753571Y-96858580D01*
X123039285Y-96858580D01*
X123134523Y-96810961D01*
X123182142Y-96763342D01*
X105989285Y-96858580D02*
X105989285Y-95858580D01*
X105417857Y-96858580D02*
X105846428Y-96287152D01*
X105417857Y-95858580D02*
X105989285Y-96430009D01*
X104465476Y-96858580D02*
X105036904Y-96858580D01*
X104751190Y-96858580D02*
X104751190Y-95858580D01*
X104846428Y-96001438D01*
X104941666Y-96096676D01*
X105036904Y-96144295D01*
X104084523Y-95953819D02*
X104036904Y-95906200D01*
X103941666Y-95858580D01*
X103703571Y-95858580D01*
X103608333Y-95906200D01*
X103560714Y-95953819D01*
X103513095Y-96049057D01*
X103513095Y-96144295D01*
X103560714Y-96287152D01*
X104132142Y-96858580D01*
X103513095Y-96858580D01*
X86939285Y-96858580D02*
X86939285Y-95858580D01*
X86367857Y-96858580D02*
X86796428Y-96287152D01*
X86367857Y-95858580D02*
X86939285Y-96430009D01*
X85415476Y-96858580D02*
X85986904Y-96858580D01*
X85701190Y-96858580D02*
X85701190Y-95858580D01*
X85796428Y-96001438D01*
X85891666Y-96096676D01*
X85986904Y-96144295D01*
X84463095Y-96858580D02*
X85034523Y-96858580D01*
X84748809Y-96858580D02*
X84748809Y-95858580D01*
X84844047Y-96001438D01*
X84939285Y-96096676D01*
X85034523Y-96144295D01*
X143613095Y-61208580D02*
X143613095Y-60208580D01*
X143041666Y-61208580D02*
X143470238Y-60637152D01*
X143041666Y-60208580D02*
X143613095Y-60780009D01*
X142184523Y-60541914D02*
X142184523Y-61208580D01*
X142422619Y-60160961D02*
X142660714Y-60875247D01*
X142041666Y-60875247D01*
X124563095Y-61208580D02*
X124563095Y-60208580D01*
X123991666Y-61208580D02*
X124420238Y-60637152D01*
X123991666Y-60208580D02*
X124563095Y-60780009D01*
X123658333Y-60208580D02*
X123039285Y-60208580D01*
X123372619Y-60589533D01*
X123229761Y-60589533D01*
X123134523Y-60637152D01*
X123086904Y-60684771D01*
X123039285Y-60780009D01*
X123039285Y-61018104D01*
X123086904Y-61113342D01*
X123134523Y-61160961D01*
X123229761Y-61208580D01*
X123515476Y-61208580D01*
X123610714Y-61160961D01*
X123658333Y-61113342D01*
X105513095Y-61208580D02*
X105513095Y-60208580D01*
X104941666Y-61208580D02*
X105370238Y-60637152D01*
X104941666Y-60208580D02*
X105513095Y-60780009D01*
X104560714Y-60303819D02*
X104513095Y-60256200D01*
X104417857Y-60208580D01*
X104179761Y-60208580D01*
X104084523Y-60256200D01*
X104036904Y-60303819D01*
X103989285Y-60399057D01*
X103989285Y-60494295D01*
X104036904Y-60637152D01*
X104608333Y-61208580D01*
X103989285Y-61208580D01*
X86463095Y-61208580D02*
X86463095Y-60208580D01*
X85891666Y-61208580D02*
X86320238Y-60637152D01*
X85891666Y-60208580D02*
X86463095Y-60780009D01*
X84939285Y-61208580D02*
X85510714Y-61208580D01*
X85225000Y-61208580D02*
X85225000Y-60208580D01*
X85320238Y-60351438D01*
X85415476Y-60446676D01*
X85510714Y-60494295D01*
M02*
