G04 #@! TF.GenerationSoftware,KiCad,Pcbnew,(5.1.2)-2*
G04 #@! TF.CreationDate,2020-01-16T13:47:14+08:00*
G04 #@! TF.ProjectId,wingxx-receiver-v3,77696e67-7878-42d7-9265-636569766572,rev?*
G04 #@! TF.SameCoordinates,Original*
G04 #@! TF.FileFunction,Legend,Bot*
G04 #@! TF.FilePolarity,Positive*
%FSLAX46Y46*%
G04 Gerber Fmt 4.6, Leading zero omitted, Abs format (unit mm)*
G04 Created by KiCad (PCBNEW (5.1.2)-2) date 2020-01-16 13:47:14*
%MOMM*%
%LPD*%
G04 APERTURE LIST*
%ADD10C,0.300000*%
%ADD11C,0.150000*%
%ADD12C,0.120000*%
%ADD13C,0.100000*%
%ADD14C,0.152400*%
G04 APERTURE END LIST*
D10*
X148624285Y-142918571D02*
X148624285Y-141418571D01*
X148624285Y-142847142D02*
X148767142Y-142918571D01*
X149052857Y-142918571D01*
X149195714Y-142847142D01*
X149267142Y-142775714D01*
X149338571Y-142632857D01*
X149338571Y-142204285D01*
X149267142Y-142061428D01*
X149195714Y-141990000D01*
X149052857Y-141918571D01*
X148767142Y-141918571D01*
X148624285Y-141990000D01*
X147338571Y-142847142D02*
X147481428Y-142918571D01*
X147767142Y-142918571D01*
X147910000Y-142847142D01*
X147981428Y-142704285D01*
X147981428Y-142132857D01*
X147910000Y-141990000D01*
X147767142Y-141918571D01*
X147481428Y-141918571D01*
X147338571Y-141990000D01*
X147267142Y-142132857D01*
X147267142Y-142275714D01*
X147981428Y-142418571D01*
X146695714Y-142847142D02*
X146552857Y-142918571D01*
X146267142Y-142918571D01*
X146124285Y-142847142D01*
X146052857Y-142704285D01*
X146052857Y-142632857D01*
X146124285Y-142490000D01*
X146267142Y-142418571D01*
X146481428Y-142418571D01*
X146624285Y-142347142D01*
X146695714Y-142204285D01*
X146695714Y-142132857D01*
X146624285Y-141990000D01*
X146481428Y-141918571D01*
X146267142Y-141918571D01*
X146124285Y-141990000D01*
X145410000Y-142918571D02*
X145410000Y-141918571D01*
X145410000Y-141418571D02*
X145481428Y-141490000D01*
X145410000Y-141561428D01*
X145338571Y-141490000D01*
X145410000Y-141418571D01*
X145410000Y-141561428D01*
X144052857Y-141918571D02*
X144052857Y-143132857D01*
X144124285Y-143275714D01*
X144195714Y-143347142D01*
X144338571Y-143418571D01*
X144552857Y-143418571D01*
X144695714Y-143347142D01*
X144052857Y-142847142D02*
X144195714Y-142918571D01*
X144481428Y-142918571D01*
X144624285Y-142847142D01*
X144695714Y-142775714D01*
X144767142Y-142632857D01*
X144767142Y-142204285D01*
X144695714Y-142061428D01*
X144624285Y-141990000D01*
X144481428Y-141918571D01*
X144195714Y-141918571D01*
X144052857Y-141990000D01*
X143338571Y-141918571D02*
X143338571Y-142918571D01*
X143338571Y-142061428D02*
X143267142Y-141990000D01*
X143124285Y-141918571D01*
X142910000Y-141918571D01*
X142767142Y-141990000D01*
X142695714Y-142132857D01*
X142695714Y-142918571D01*
X141410000Y-142847142D02*
X141552857Y-142918571D01*
X141838571Y-142918571D01*
X141981428Y-142847142D01*
X142052857Y-142704285D01*
X142052857Y-142132857D01*
X141981428Y-141990000D01*
X141838571Y-141918571D01*
X141552857Y-141918571D01*
X141410000Y-141990000D01*
X141338571Y-142132857D01*
X141338571Y-142275714D01*
X142052857Y-142418571D01*
X140052857Y-142918571D02*
X140052857Y-141418571D01*
X140052857Y-142847142D02*
X140195714Y-142918571D01*
X140481428Y-142918571D01*
X140624285Y-142847142D01*
X140695714Y-142775714D01*
X140767142Y-142632857D01*
X140767142Y-142204285D01*
X140695714Y-142061428D01*
X140624285Y-141990000D01*
X140481428Y-141918571D01*
X140195714Y-141918571D01*
X140052857Y-141990000D01*
X138195714Y-142918571D02*
X138195714Y-141418571D01*
X138195714Y-141990000D02*
X138052857Y-141918571D01*
X137767142Y-141918571D01*
X137624285Y-141990000D01*
X137552857Y-142061428D01*
X137481428Y-142204285D01*
X137481428Y-142632857D01*
X137552857Y-142775714D01*
X137624285Y-142847142D01*
X137767142Y-142918571D01*
X138052857Y-142918571D01*
X138195714Y-142847142D01*
X136981428Y-141918571D02*
X136624285Y-142918571D01*
X136267142Y-141918571D02*
X136624285Y-142918571D01*
X136767142Y-143275714D01*
X136838571Y-143347142D01*
X136981428Y-143418571D01*
X134052857Y-142132857D02*
X134552857Y-142132857D01*
X134552857Y-142918571D02*
X134552857Y-141418571D01*
X133838571Y-141418571D01*
X132481428Y-142918571D02*
X133338571Y-142918571D01*
X132910000Y-142918571D02*
X132910000Y-141418571D01*
X133052857Y-141632857D01*
X133195714Y-141775714D01*
X133338571Y-141847142D01*
X131195714Y-141918571D02*
X131195714Y-142918571D01*
X131552857Y-141347142D02*
X131910000Y-142418571D01*
X130981428Y-142418571D01*
X129838571Y-142847142D02*
X129981428Y-142918571D01*
X130267142Y-142918571D01*
X130410000Y-142847142D01*
X130481428Y-142704285D01*
X130481428Y-142132857D01*
X130410000Y-141990000D01*
X130267142Y-141918571D01*
X129981428Y-141918571D01*
X129838571Y-141990000D01*
X129767142Y-142132857D01*
X129767142Y-142275714D01*
X130481428Y-142418571D01*
X128481428Y-142918571D02*
X128481428Y-142132857D01*
X128552857Y-141990000D01*
X128695714Y-141918571D01*
X128981428Y-141918571D01*
X129124285Y-141990000D01*
X128481428Y-142847142D02*
X128624285Y-142918571D01*
X128981428Y-142918571D01*
X129124285Y-142847142D01*
X129195714Y-142704285D01*
X129195714Y-142561428D01*
X129124285Y-142418571D01*
X128981428Y-142347142D01*
X128624285Y-142347142D01*
X128481428Y-142275714D01*
X127124285Y-141918571D02*
X127124285Y-143132857D01*
X127195714Y-143275714D01*
X127267142Y-143347142D01*
X127410000Y-143418571D01*
X127624285Y-143418571D01*
X127767142Y-143347142D01*
X127124285Y-142847142D02*
X127267142Y-142918571D01*
X127552857Y-142918571D01*
X127695714Y-142847142D01*
X127767142Y-142775714D01*
X127838571Y-142632857D01*
X127838571Y-142204285D01*
X127767142Y-142061428D01*
X127695714Y-141990000D01*
X127552857Y-141918571D01*
X127267142Y-141918571D01*
X127124285Y-141990000D01*
X126195714Y-142918571D02*
X126338571Y-142847142D01*
X126410000Y-142704285D01*
X126410000Y-141418571D01*
X125052857Y-142847142D02*
X125195714Y-142918571D01*
X125481428Y-142918571D01*
X125624285Y-142847142D01*
X125695714Y-142704285D01*
X125695714Y-142132857D01*
X125624285Y-141990000D01*
X125481428Y-141918571D01*
X125195714Y-141918571D01*
X125052857Y-141990000D01*
X124981428Y-142132857D01*
X124981428Y-142275714D01*
X125695714Y-142418571D01*
D11*
X133870000Y-132240000D02*
X135370000Y-132240000D01*
X133870000Y-126840000D02*
X133870000Y-132240000D01*
X135370000Y-126840000D02*
X133870000Y-126840000D01*
X135370000Y-132240000D02*
X135370000Y-126840000D01*
X134120000Y-130040000D02*
X134620000Y-129140000D01*
X135120000Y-130040000D02*
X134120000Y-130040000D01*
X134620000Y-129140000D02*
X135120000Y-130040000D01*
X135120000Y-129040000D02*
X134120000Y-129040000D01*
X131330000Y-132240000D02*
X132830000Y-132240000D01*
X131330000Y-126840000D02*
X131330000Y-132240000D01*
X132830000Y-126840000D02*
X131330000Y-126840000D01*
X132830000Y-132240000D02*
X132830000Y-126840000D01*
X131580000Y-130040000D02*
X132080000Y-129140000D01*
X132580000Y-130040000D02*
X131580000Y-130040000D01*
X132080000Y-129140000D02*
X132580000Y-130040000D01*
X132580000Y-129040000D02*
X131580000Y-129040000D01*
X95770000Y-132240000D02*
X97270000Y-132240000D01*
X95770000Y-126840000D02*
X95770000Y-132240000D01*
X97270000Y-126840000D02*
X95770000Y-126840000D01*
X97270000Y-132240000D02*
X97270000Y-126840000D01*
X96020000Y-130040000D02*
X96520000Y-129140000D01*
X97020000Y-130040000D02*
X96020000Y-130040000D01*
X96520000Y-129140000D02*
X97020000Y-130040000D01*
X97020000Y-129040000D02*
X96020000Y-129040000D01*
X93230000Y-132240000D02*
X94730000Y-132240000D01*
X93230000Y-126840000D02*
X93230000Y-132240000D01*
X94730000Y-126840000D02*
X93230000Y-126840000D01*
X94730000Y-132240000D02*
X94730000Y-126840000D01*
X93480000Y-130040000D02*
X93980000Y-129140000D01*
X94480000Y-130040000D02*
X93480000Y-130040000D01*
X93980000Y-129140000D02*
X94480000Y-130040000D01*
X94480000Y-129040000D02*
X93480000Y-129040000D01*
X145575000Y-117590000D02*
X145575000Y-116090000D01*
X140175000Y-117590000D02*
X145575000Y-117590000D01*
X140175000Y-116090000D02*
X140175000Y-117590000D01*
X145575000Y-116090000D02*
X140175000Y-116090000D01*
X143375000Y-117340000D02*
X142475000Y-116840000D01*
X143375000Y-116340000D02*
X143375000Y-117340000D01*
X142475000Y-116840000D02*
X143375000Y-116340000D01*
X142375000Y-116340000D02*
X142375000Y-117340000D01*
X126492000Y-117590000D02*
X126492000Y-116090000D01*
X121092000Y-117590000D02*
X126492000Y-117590000D01*
X121092000Y-116090000D02*
X121092000Y-117590000D01*
X126492000Y-116090000D02*
X121092000Y-116090000D01*
X124292000Y-117340000D02*
X123392000Y-116840000D01*
X124292000Y-116340000D02*
X124292000Y-117340000D01*
X123392000Y-116840000D02*
X124292000Y-116340000D01*
X123292000Y-116340000D02*
X123292000Y-117340000D01*
X107475000Y-117590000D02*
X107475000Y-116090000D01*
X102075000Y-117590000D02*
X107475000Y-117590000D01*
X102075000Y-116090000D02*
X102075000Y-117590000D01*
X107475000Y-116090000D02*
X102075000Y-116090000D01*
X105275000Y-117340000D02*
X104375000Y-116840000D01*
X105275000Y-116340000D02*
X105275000Y-117340000D01*
X104375000Y-116840000D02*
X105275000Y-116340000D01*
X104275000Y-116340000D02*
X104275000Y-117340000D01*
X88425000Y-117590000D02*
X88425000Y-116090000D01*
X83025000Y-117590000D02*
X88425000Y-117590000D01*
X83025000Y-116090000D02*
X83025000Y-117590000D01*
X88425000Y-116090000D02*
X83025000Y-116090000D01*
X86225000Y-117340000D02*
X85325000Y-116840000D01*
X86225000Y-116340000D02*
X86225000Y-117340000D01*
X85325000Y-116840000D02*
X86225000Y-116340000D01*
X85225000Y-116340000D02*
X85225000Y-117340000D01*
X133870000Y-95410000D02*
X135370000Y-95410000D01*
X133870000Y-90010000D02*
X133870000Y-95410000D01*
X135370000Y-90010000D02*
X133870000Y-90010000D01*
X135370000Y-95410000D02*
X135370000Y-90010000D01*
X134120000Y-93210000D02*
X134620000Y-92310000D01*
X135120000Y-93210000D02*
X134120000Y-93210000D01*
X134620000Y-92310000D02*
X135120000Y-93210000D01*
X135120000Y-92210000D02*
X134120000Y-92210000D01*
X131330000Y-95410000D02*
X132830000Y-95410000D01*
X131330000Y-90010000D02*
X131330000Y-95410000D01*
X132830000Y-90010000D02*
X131330000Y-90010000D01*
X132830000Y-95410000D02*
X132830000Y-90010000D01*
X131580000Y-93210000D02*
X132080000Y-92310000D01*
X132580000Y-93210000D02*
X131580000Y-93210000D01*
X132080000Y-92310000D02*
X132580000Y-93210000D01*
X132580000Y-92210000D02*
X131580000Y-92210000D01*
X107475000Y-79490000D02*
X107475000Y-77990000D01*
X102075000Y-79490000D02*
X107475000Y-79490000D01*
X102075000Y-77990000D02*
X102075000Y-79490000D01*
X107475000Y-77990000D02*
X102075000Y-77990000D01*
X105275000Y-79240000D02*
X104375000Y-78740000D01*
X105275000Y-78240000D02*
X105275000Y-79240000D01*
X104375000Y-78740000D02*
X105275000Y-78240000D01*
X104275000Y-78240000D02*
X104275000Y-79240000D01*
X88425000Y-79490000D02*
X88425000Y-77990000D01*
X83025000Y-79490000D02*
X88425000Y-79490000D01*
X83025000Y-77990000D02*
X83025000Y-79490000D01*
X88425000Y-77990000D02*
X83025000Y-77990000D01*
X86225000Y-79240000D02*
X85325000Y-78740000D01*
X86225000Y-78240000D02*
X86225000Y-79240000D01*
X85325000Y-78740000D02*
X86225000Y-78240000D01*
X85225000Y-78240000D02*
X85225000Y-79240000D01*
X145575000Y-79331200D02*
X145575000Y-77831200D01*
X140175000Y-79331200D02*
X145575000Y-79331200D01*
X140175000Y-77831200D02*
X140175000Y-79331200D01*
X145575000Y-77831200D02*
X140175000Y-77831200D01*
X143375000Y-79081200D02*
X142475000Y-78581200D01*
X143375000Y-78081200D02*
X143375000Y-79081200D01*
X142475000Y-78581200D02*
X143375000Y-78081200D01*
X142375000Y-78081200D02*
X142375000Y-79081200D01*
X126525000Y-79331200D02*
X126525000Y-77831200D01*
X121125000Y-79331200D02*
X126525000Y-79331200D01*
X121125000Y-77831200D02*
X121125000Y-79331200D01*
X126525000Y-77831200D02*
X121125000Y-77831200D01*
X124325000Y-79081200D02*
X123425000Y-78581200D01*
X124325000Y-78081200D02*
X124325000Y-79081200D01*
X123425000Y-78581200D02*
X124325000Y-78081200D01*
X123325000Y-78081200D02*
X123325000Y-79081200D01*
X95770000Y-67470000D02*
X97270000Y-67470000D01*
X95770000Y-62070000D02*
X95770000Y-67470000D01*
X97270000Y-62070000D02*
X95770000Y-62070000D01*
X97270000Y-67470000D02*
X97270000Y-62070000D01*
X96020000Y-65270000D02*
X96520000Y-64370000D01*
X97020000Y-65270000D02*
X96020000Y-65270000D01*
X96520000Y-64370000D02*
X97020000Y-65270000D01*
X97020000Y-64270000D02*
X96020000Y-64270000D01*
X93230000Y-67470000D02*
X94730000Y-67470000D01*
X93230000Y-62070000D02*
X93230000Y-67470000D01*
X94730000Y-62070000D02*
X93230000Y-62070000D01*
X94730000Y-67470000D02*
X94730000Y-62070000D01*
X93480000Y-65270000D02*
X93980000Y-64370000D01*
X94480000Y-65270000D02*
X93480000Y-65270000D01*
X93980000Y-64370000D02*
X94480000Y-65270000D01*
X94480000Y-64270000D02*
X93480000Y-64270000D01*
D12*
X92190000Y-76890000D02*
X92190000Y-80590000D01*
X98310000Y-76890000D02*
X92190000Y-76890000D01*
X98310000Y-80590000D02*
X98310000Y-76890000D01*
X92190000Y-80590000D02*
X98310000Y-80590000D01*
X106335000Y-100490000D02*
X106335000Y-95090000D01*
X110835000Y-100490000D02*
X106335000Y-100490000D01*
X106320000Y-61627936D02*
X106320000Y-62832064D01*
X104500000Y-61627936D02*
X104500000Y-62832064D01*
X80906252Y-98500000D02*
X80383748Y-98500000D01*
X80906252Y-97080000D02*
X80383748Y-97080000D01*
X80383748Y-92635000D02*
X80906252Y-92635000D01*
X80383748Y-94055000D02*
X80906252Y-94055000D01*
X90880000Y-63238748D02*
X90880000Y-63761252D01*
X89460000Y-63238748D02*
X89460000Y-63761252D01*
X87070000Y-63238748D02*
X87070000Y-63761252D01*
X85650000Y-63238748D02*
X85650000Y-63761252D01*
X83260000Y-63238748D02*
X83260000Y-63761252D01*
X81840000Y-63238748D02*
X81840000Y-63761252D01*
X79450000Y-63238748D02*
X79450000Y-63761252D01*
X78030000Y-63238748D02*
X78030000Y-63761252D01*
X88340000Y-135628748D02*
X88340000Y-136151252D01*
X86920000Y-135628748D02*
X86920000Y-136151252D01*
X88340000Y-140708748D02*
X88340000Y-141231252D01*
X86920000Y-140708748D02*
X86920000Y-141231252D01*
X87070000Y-100068748D02*
X87070000Y-100591252D01*
X85650000Y-100068748D02*
X85650000Y-100591252D01*
X87070000Y-94988748D02*
X87070000Y-95511252D01*
X85650000Y-94988748D02*
X85650000Y-95511252D01*
X94988748Y-105970000D02*
X95511252Y-105970000D01*
X94988748Y-107390000D02*
X95511252Y-107390000D01*
X95511252Y-89610000D02*
X94988748Y-89610000D01*
X95511252Y-88190000D02*
X94988748Y-88190000D01*
X80906252Y-102945000D02*
X80383748Y-102945000D01*
X80906252Y-101525000D02*
X80383748Y-101525000D01*
X108323748Y-101525000D02*
X108846252Y-101525000D01*
X108323748Y-102945000D02*
X108846252Y-102945000D01*
X108323748Y-92635000D02*
X108846252Y-92635000D01*
X108323748Y-94055000D02*
X108846252Y-94055000D01*
D11*
X90650000Y-92615000D02*
X90650000Y-91340000D01*
X90075000Y-102965000D02*
X90075000Y-102290000D01*
X100425000Y-102965000D02*
X100425000Y-102290000D01*
X100425000Y-92615000D02*
X100425000Y-93290000D01*
X90075000Y-92615000D02*
X90075000Y-93290000D01*
X100425000Y-92615000D02*
X99750000Y-92615000D01*
X100425000Y-102965000D02*
X99750000Y-102965000D01*
X90075000Y-102965000D02*
X90750000Y-102965000D01*
X90075000Y-92615000D02*
X90650000Y-92615000D01*
D12*
X98950000Y-63430000D02*
X98950000Y-60480000D01*
X102050000Y-61030000D02*
X102050000Y-63430000D01*
D13*
X106801920Y-148269960D02*
X106801920Y-128270000D01*
X121798080Y-148269960D02*
X106801920Y-148269960D01*
X121798080Y-128270000D02*
X121798080Y-148269960D01*
X106801920Y-128270000D02*
X121798080Y-128270000D01*
X93245000Y-136655000D02*
X93245000Y-136955000D01*
X93620000Y-136655000D02*
X93245000Y-136655000D01*
X99795000Y-136655000D02*
X99795000Y-137055000D01*
X99295000Y-136655000D02*
X99795000Y-136655000D01*
X93245000Y-140205000D02*
X93695000Y-140205000D01*
X93245000Y-139730000D02*
X93245000Y-140205000D01*
X99495000Y-140205000D02*
X99495000Y-140400000D01*
X99795000Y-139880000D02*
X99495000Y-140205000D01*
X99795000Y-139405000D02*
X99795000Y-139880000D01*
D12*
X81018748Y-141530000D02*
X81541252Y-141530000D01*
X81018748Y-142950000D02*
X81541252Y-142950000D01*
X81018748Y-137720000D02*
X81541252Y-137720000D01*
X81018748Y-139140000D02*
X81541252Y-139140000D01*
X81018748Y-133910000D02*
X81541252Y-133910000D01*
X81018748Y-135330000D02*
X81541252Y-135330000D01*
D11*
X149875000Y-119206000D02*
X149875000Y-120206000D01*
X148875000Y-119206000D02*
X149875000Y-119206000D01*
X149875000Y-133206000D02*
X148875000Y-133206000D01*
X149875000Y-132206000D02*
X149875000Y-133206000D01*
X135875000Y-133206000D02*
X135875000Y-132206000D01*
X136875000Y-133206000D02*
X135875000Y-133206000D01*
X135875000Y-119206000D02*
X136875000Y-119206000D01*
X135875000Y-120206000D02*
X135875000Y-119206000D01*
X130825000Y-119206000D02*
X130825000Y-120206000D01*
X129825000Y-119206000D02*
X130825000Y-119206000D01*
X130825000Y-133206000D02*
X129825000Y-133206000D01*
X130825000Y-132206000D02*
X130825000Y-133206000D01*
X116825000Y-133206000D02*
X116825000Y-132206000D01*
X117825000Y-133206000D02*
X116825000Y-133206000D01*
X116825000Y-119206000D02*
X117825000Y-119206000D01*
X116825000Y-120206000D02*
X116825000Y-119206000D01*
X111775000Y-119206000D02*
X111775000Y-120206000D01*
X110775000Y-119206000D02*
X111775000Y-119206000D01*
X111775000Y-133206000D02*
X110775000Y-133206000D01*
X111775000Y-132206000D02*
X111775000Y-133206000D01*
X97775000Y-133206000D02*
X97775000Y-132206000D01*
X98775000Y-133206000D02*
X97775000Y-133206000D01*
X97775000Y-119206000D02*
X98775000Y-119206000D01*
X97775000Y-120206000D02*
X97775000Y-119206000D01*
X92725000Y-119206000D02*
X92725000Y-120206000D01*
X91725000Y-119206000D02*
X92725000Y-119206000D01*
X92725000Y-133206000D02*
X91725000Y-133206000D01*
X92725000Y-132206000D02*
X92725000Y-133206000D01*
X78725000Y-133206000D02*
X78725000Y-132206000D01*
X79725000Y-133206000D02*
X78725000Y-133206000D01*
X78725000Y-119206000D02*
X79725000Y-119206000D01*
X78725000Y-120206000D02*
X78725000Y-119206000D01*
X135875000Y-114156000D02*
X135875000Y-113156000D01*
X136875000Y-114156000D02*
X135875000Y-114156000D01*
X135875000Y-100156000D02*
X136875000Y-100156000D01*
X135875000Y-101156000D02*
X135875000Y-100156000D01*
X149875000Y-100156000D02*
X149875000Y-101156000D01*
X148875000Y-100156000D02*
X149875000Y-100156000D01*
X149875000Y-114156000D02*
X148875000Y-114156000D01*
X149875000Y-113156000D02*
X149875000Y-114156000D01*
X116825000Y-114156000D02*
X116825000Y-113156000D01*
X117825000Y-114156000D02*
X116825000Y-114156000D01*
X116825000Y-100156000D02*
X117825000Y-100156000D01*
X116825000Y-101156000D02*
X116825000Y-100156000D01*
X130825000Y-100156000D02*
X130825000Y-101156000D01*
X129825000Y-100156000D02*
X130825000Y-100156000D01*
X130825000Y-114156000D02*
X129825000Y-114156000D01*
X130825000Y-113156000D02*
X130825000Y-114156000D01*
X97775000Y-114156000D02*
X97775000Y-113156000D01*
X98775000Y-114156000D02*
X97775000Y-114156000D01*
X97775000Y-100156000D02*
X98775000Y-100156000D01*
X97775000Y-101156000D02*
X97775000Y-100156000D01*
X111775000Y-100156000D02*
X111775000Y-101156000D01*
X110775000Y-100156000D02*
X111775000Y-100156000D01*
X111775000Y-114156000D02*
X110775000Y-114156000D01*
X111775000Y-113156000D02*
X111775000Y-114156000D01*
X78725000Y-114156000D02*
X78725000Y-113156000D01*
X79725000Y-114156000D02*
X78725000Y-114156000D01*
X78725000Y-100156000D02*
X79725000Y-100156000D01*
X78725000Y-101156000D02*
X78725000Y-100156000D01*
X92725000Y-100156000D02*
X92725000Y-101156000D01*
X91725000Y-100156000D02*
X92725000Y-100156000D01*
X92725000Y-114156000D02*
X91725000Y-114156000D01*
X92725000Y-113156000D02*
X92725000Y-114156000D01*
X149875000Y-81106200D02*
X149875000Y-82106200D01*
X148875000Y-81106200D02*
X149875000Y-81106200D01*
X149875000Y-95106200D02*
X148875000Y-95106200D01*
X149875000Y-94106200D02*
X149875000Y-95106200D01*
X135875000Y-95106200D02*
X135875000Y-94106200D01*
X136875000Y-95106200D02*
X135875000Y-95106200D01*
X135875000Y-81106200D02*
X136875000Y-81106200D01*
X135875000Y-82106200D02*
X135875000Y-81106200D01*
X130825000Y-81106200D02*
X130825000Y-82106200D01*
X129825000Y-81106200D02*
X130825000Y-81106200D01*
X130825000Y-95106200D02*
X129825000Y-95106200D01*
X130825000Y-94106200D02*
X130825000Y-95106200D01*
X116825000Y-95106200D02*
X116825000Y-94106200D01*
X117825000Y-95106200D02*
X116825000Y-95106200D01*
X116825000Y-81106200D02*
X117825000Y-81106200D01*
X116825000Y-82106200D02*
X116825000Y-81106200D01*
X111775000Y-81106200D02*
X111775000Y-82106200D01*
X110775000Y-81106200D02*
X111775000Y-81106200D01*
X111775000Y-95106200D02*
X110775000Y-95106200D01*
X111775000Y-94106200D02*
X111775000Y-95106200D01*
X97775000Y-95106200D02*
X97775000Y-94106200D01*
X98775000Y-95106200D02*
X97775000Y-95106200D01*
X97775000Y-81106200D02*
X98775000Y-81106200D01*
X97775000Y-82106200D02*
X97775000Y-81106200D01*
X92725000Y-81106200D02*
X92725000Y-82106200D01*
X91725000Y-81106200D02*
X92725000Y-81106200D01*
X92725000Y-95106200D02*
X91725000Y-95106200D01*
X92725000Y-94106200D02*
X92725000Y-95106200D01*
X78725000Y-95106200D02*
X78725000Y-94106200D01*
X79725000Y-95106200D02*
X78725000Y-95106200D01*
X78725000Y-81106200D02*
X79725000Y-81106200D01*
X78725000Y-82106200D02*
X78725000Y-81106200D01*
X135875000Y-76056200D02*
X135875000Y-75056200D01*
X136875000Y-76056200D02*
X135875000Y-76056200D01*
X135875000Y-62056200D02*
X136875000Y-62056200D01*
X135875000Y-63056200D02*
X135875000Y-62056200D01*
X149875000Y-62056200D02*
X149875000Y-63056200D01*
X148875000Y-62056200D02*
X149875000Y-62056200D01*
X149875000Y-76056200D02*
X148875000Y-76056200D01*
X149875000Y-75056200D02*
X149875000Y-76056200D01*
X116825000Y-76056200D02*
X116825000Y-75056200D01*
X117825000Y-76056200D02*
X116825000Y-76056200D01*
X116825000Y-62056200D02*
X117825000Y-62056200D01*
X116825000Y-63056200D02*
X116825000Y-62056200D01*
X130825000Y-62056200D02*
X130825000Y-63056200D01*
X129825000Y-62056200D02*
X130825000Y-62056200D01*
X130825000Y-76056200D02*
X129825000Y-76056200D01*
X130825000Y-75056200D02*
X130825000Y-76056200D01*
X97775000Y-76056200D02*
X97775000Y-75056200D01*
X98775000Y-76056200D02*
X97775000Y-76056200D01*
X97775000Y-62056200D02*
X98775000Y-62056200D01*
X97775000Y-63056200D02*
X97775000Y-62056200D01*
X111775000Y-62056200D02*
X111775000Y-63056200D01*
X110775000Y-62056200D02*
X111775000Y-62056200D01*
X111775000Y-76056200D02*
X110775000Y-76056200D01*
X111775000Y-75056200D02*
X111775000Y-76056200D01*
X78725000Y-76056200D02*
X78725000Y-75056200D01*
X79725000Y-76056200D02*
X78725000Y-76056200D01*
X78725000Y-62056200D02*
X79725000Y-62056200D01*
X78725000Y-63056200D02*
X78725000Y-62056200D01*
X92725000Y-62056200D02*
X92725000Y-63056200D01*
X91725000Y-62056200D02*
X92725000Y-62056200D01*
X92725000Y-76056200D02*
X91725000Y-76056200D01*
X92725000Y-75056200D02*
X92725000Y-76056200D01*
X97178571Y-81792380D02*
X97511904Y-81316190D01*
X97750000Y-81792380D02*
X97750000Y-80792380D01*
X97369047Y-80792380D01*
X97273809Y-80840000D01*
X97226190Y-80887619D01*
X97178571Y-80982857D01*
X97178571Y-81125714D01*
X97226190Y-81220952D01*
X97273809Y-81268571D01*
X97369047Y-81316190D01*
X97750000Y-81316190D01*
X96750000Y-81268571D02*
X96416666Y-81268571D01*
X96273809Y-81792380D02*
X96750000Y-81792380D01*
X96750000Y-80792380D01*
X96273809Y-80792380D01*
X95892857Y-81744761D02*
X95750000Y-81792380D01*
X95511904Y-81792380D01*
X95416666Y-81744761D01*
X95369047Y-81697142D01*
X95321428Y-81601904D01*
X95321428Y-81506666D01*
X95369047Y-81411428D01*
X95416666Y-81363809D01*
X95511904Y-81316190D01*
X95702380Y-81268571D01*
X95797619Y-81220952D01*
X95845238Y-81173333D01*
X95892857Y-81078095D01*
X95892857Y-80982857D01*
X95845238Y-80887619D01*
X95797619Y-80840000D01*
X95702380Y-80792380D01*
X95464285Y-80792380D01*
X95321428Y-80840000D01*
X94892857Y-81268571D02*
X94559523Y-81268571D01*
X94416666Y-81792380D02*
X94892857Y-81792380D01*
X94892857Y-80792380D01*
X94416666Y-80792380D01*
X94130952Y-80792380D02*
X93559523Y-80792380D01*
X93845238Y-81792380D02*
X93845238Y-80792380D01*
X92702380Y-81792380D02*
X93273809Y-81792380D01*
X92988095Y-81792380D02*
X92988095Y-80792380D01*
X93083333Y-80935238D01*
X93178571Y-81030476D01*
X93273809Y-81078095D01*
X111087380Y-96980476D02*
X112087380Y-97647142D01*
X111087380Y-97647142D02*
X112087380Y-96980476D01*
X112087380Y-98551904D02*
X112087380Y-97980476D01*
X112087380Y-98266190D02*
X111087380Y-98266190D01*
X111230238Y-98170952D01*
X111325476Y-98075714D01*
X111373095Y-97980476D01*
X103518571Y-61896666D02*
X103518571Y-61563333D01*
X104042380Y-61563333D02*
X103042380Y-61563333D01*
X103042380Y-62039523D01*
X104042380Y-62944285D02*
X104042380Y-62372857D01*
X104042380Y-62658571D02*
X103042380Y-62658571D01*
X103185238Y-62563333D01*
X103280476Y-62468095D01*
X103328095Y-62372857D01*
X80811666Y-96592380D02*
X81145000Y-96116190D01*
X81383095Y-96592380D02*
X81383095Y-95592380D01*
X81002142Y-95592380D01*
X80906904Y-95640000D01*
X80859285Y-95687619D01*
X80811666Y-95782857D01*
X80811666Y-95925714D01*
X80859285Y-96020952D01*
X80906904Y-96068571D01*
X81002142Y-96116190D01*
X81383095Y-96116190D01*
X79954523Y-95592380D02*
X80145000Y-95592380D01*
X80240238Y-95640000D01*
X80287857Y-95687619D01*
X80383095Y-95830476D01*
X80430714Y-96020952D01*
X80430714Y-96401904D01*
X80383095Y-96497142D01*
X80335476Y-96544761D01*
X80240238Y-96592380D01*
X80049761Y-96592380D01*
X79954523Y-96544761D01*
X79906904Y-96497142D01*
X79859285Y-96401904D01*
X79859285Y-96163809D01*
X79906904Y-96068571D01*
X79954523Y-96020952D01*
X80049761Y-95973333D01*
X80240238Y-95973333D01*
X80335476Y-96020952D01*
X80383095Y-96068571D01*
X80430714Y-96163809D01*
X80811666Y-95447380D02*
X81145000Y-94971190D01*
X81383095Y-95447380D02*
X81383095Y-94447380D01*
X81002142Y-94447380D01*
X80906904Y-94495000D01*
X80859285Y-94542619D01*
X80811666Y-94637857D01*
X80811666Y-94780714D01*
X80859285Y-94875952D01*
X80906904Y-94923571D01*
X81002142Y-94971190D01*
X81383095Y-94971190D01*
X79906904Y-94447380D02*
X80383095Y-94447380D01*
X80430714Y-94923571D01*
X80383095Y-94875952D01*
X80287857Y-94828333D01*
X80049761Y-94828333D01*
X79954523Y-94875952D01*
X79906904Y-94923571D01*
X79859285Y-95018809D01*
X79859285Y-95256904D01*
X79906904Y-95352142D01*
X79954523Y-95399761D01*
X80049761Y-95447380D01*
X80287857Y-95447380D01*
X80383095Y-95399761D01*
X80430714Y-95352142D01*
X88972380Y-63333333D02*
X88496190Y-63000000D01*
X88972380Y-62761904D02*
X87972380Y-62761904D01*
X87972380Y-63142857D01*
X88020000Y-63238095D01*
X88067619Y-63285714D01*
X88162857Y-63333333D01*
X88305714Y-63333333D01*
X88400952Y-63285714D01*
X88448571Y-63238095D01*
X88496190Y-63142857D01*
X88496190Y-62761904D01*
X88305714Y-64190476D02*
X88972380Y-64190476D01*
X87924761Y-63952380D02*
X88639047Y-63714285D01*
X88639047Y-64333333D01*
X85162380Y-63333333D02*
X84686190Y-63000000D01*
X85162380Y-62761904D02*
X84162380Y-62761904D01*
X84162380Y-63142857D01*
X84210000Y-63238095D01*
X84257619Y-63285714D01*
X84352857Y-63333333D01*
X84495714Y-63333333D01*
X84590952Y-63285714D01*
X84638571Y-63238095D01*
X84686190Y-63142857D01*
X84686190Y-62761904D01*
X84162380Y-63666666D02*
X84162380Y-64285714D01*
X84543333Y-63952380D01*
X84543333Y-64095238D01*
X84590952Y-64190476D01*
X84638571Y-64238095D01*
X84733809Y-64285714D01*
X84971904Y-64285714D01*
X85067142Y-64238095D01*
X85114761Y-64190476D01*
X85162380Y-64095238D01*
X85162380Y-63809523D01*
X85114761Y-63714285D01*
X85067142Y-63666666D01*
X81352380Y-63333333D02*
X80876190Y-63000000D01*
X81352380Y-62761904D02*
X80352380Y-62761904D01*
X80352380Y-63142857D01*
X80400000Y-63238095D01*
X80447619Y-63285714D01*
X80542857Y-63333333D01*
X80685714Y-63333333D01*
X80780952Y-63285714D01*
X80828571Y-63238095D01*
X80876190Y-63142857D01*
X80876190Y-62761904D01*
X80447619Y-63714285D02*
X80400000Y-63761904D01*
X80352380Y-63857142D01*
X80352380Y-64095238D01*
X80400000Y-64190476D01*
X80447619Y-64238095D01*
X80542857Y-64285714D01*
X80638095Y-64285714D01*
X80780952Y-64238095D01*
X81352380Y-63666666D01*
X81352380Y-64285714D01*
X77542380Y-63333333D02*
X77066190Y-63000000D01*
X77542380Y-62761904D02*
X76542380Y-62761904D01*
X76542380Y-63142857D01*
X76590000Y-63238095D01*
X76637619Y-63285714D01*
X76732857Y-63333333D01*
X76875714Y-63333333D01*
X76970952Y-63285714D01*
X77018571Y-63238095D01*
X77066190Y-63142857D01*
X77066190Y-62761904D01*
X77542380Y-64285714D02*
X77542380Y-63714285D01*
X77542380Y-64000000D02*
X76542380Y-64000000D01*
X76685238Y-63904761D01*
X76780476Y-63809523D01*
X76828095Y-63714285D01*
X86337142Y-135247142D02*
X86384761Y-135199523D01*
X86432380Y-135056666D01*
X86432380Y-134961428D01*
X86384761Y-134818571D01*
X86289523Y-134723333D01*
X86194285Y-134675714D01*
X86003809Y-134628095D01*
X85860952Y-134628095D01*
X85670476Y-134675714D01*
X85575238Y-134723333D01*
X85480000Y-134818571D01*
X85432380Y-134961428D01*
X85432380Y-135056666D01*
X85480000Y-135199523D01*
X85527619Y-135247142D01*
X86432380Y-136199523D02*
X86432380Y-135628095D01*
X86432380Y-135913809D02*
X85432380Y-135913809D01*
X85575238Y-135818571D01*
X85670476Y-135723333D01*
X85718095Y-135628095D01*
X85527619Y-136580476D02*
X85480000Y-136628095D01*
X85432380Y-136723333D01*
X85432380Y-136961428D01*
X85480000Y-137056666D01*
X85527619Y-137104285D01*
X85622857Y-137151904D01*
X85718095Y-137151904D01*
X85860952Y-137104285D01*
X86432380Y-136532857D01*
X86432380Y-137151904D01*
X86337142Y-140327142D02*
X86384761Y-140279523D01*
X86432380Y-140136666D01*
X86432380Y-140041428D01*
X86384761Y-139898571D01*
X86289523Y-139803333D01*
X86194285Y-139755714D01*
X86003809Y-139708095D01*
X85860952Y-139708095D01*
X85670476Y-139755714D01*
X85575238Y-139803333D01*
X85480000Y-139898571D01*
X85432380Y-140041428D01*
X85432380Y-140136666D01*
X85480000Y-140279523D01*
X85527619Y-140327142D01*
X86432380Y-141279523D02*
X86432380Y-140708095D01*
X86432380Y-140993809D02*
X85432380Y-140993809D01*
X85575238Y-140898571D01*
X85670476Y-140803333D01*
X85718095Y-140708095D01*
X86432380Y-142231904D02*
X86432380Y-141660476D01*
X86432380Y-141946190D02*
X85432380Y-141946190D01*
X85575238Y-141850952D01*
X85670476Y-141755714D01*
X85718095Y-141660476D01*
X85067142Y-100163333D02*
X85114761Y-100115714D01*
X85162380Y-99972857D01*
X85162380Y-99877619D01*
X85114761Y-99734761D01*
X85019523Y-99639523D01*
X84924285Y-99591904D01*
X84733809Y-99544285D01*
X84590952Y-99544285D01*
X84400476Y-99591904D01*
X84305238Y-99639523D01*
X84210000Y-99734761D01*
X84162380Y-99877619D01*
X84162380Y-99972857D01*
X84210000Y-100115714D01*
X84257619Y-100163333D01*
X84162380Y-100496666D02*
X84162380Y-101163333D01*
X85162380Y-100734761D01*
X85067142Y-95083333D02*
X85114761Y-95035714D01*
X85162380Y-94892857D01*
X85162380Y-94797619D01*
X85114761Y-94654761D01*
X85019523Y-94559523D01*
X84924285Y-94511904D01*
X84733809Y-94464285D01*
X84590952Y-94464285D01*
X84400476Y-94511904D01*
X84305238Y-94559523D01*
X84210000Y-94654761D01*
X84162380Y-94797619D01*
X84162380Y-94892857D01*
X84210000Y-95035714D01*
X84257619Y-95083333D01*
X84162380Y-95940476D02*
X84162380Y-95750000D01*
X84210000Y-95654761D01*
X84257619Y-95607142D01*
X84400476Y-95511904D01*
X84590952Y-95464285D01*
X84971904Y-95464285D01*
X85067142Y-95511904D01*
X85114761Y-95559523D01*
X85162380Y-95654761D01*
X85162380Y-95845238D01*
X85114761Y-95940476D01*
X85067142Y-95988095D01*
X84971904Y-96035714D01*
X84733809Y-96035714D01*
X84638571Y-95988095D01*
X84590952Y-95940476D01*
X84543333Y-95845238D01*
X84543333Y-95654761D01*
X84590952Y-95559523D01*
X84638571Y-95511904D01*
X84733809Y-95464285D01*
X95416666Y-108687142D02*
X95464285Y-108734761D01*
X95607142Y-108782380D01*
X95702380Y-108782380D01*
X95845238Y-108734761D01*
X95940476Y-108639523D01*
X95988095Y-108544285D01*
X96035714Y-108353809D01*
X96035714Y-108210952D01*
X95988095Y-108020476D01*
X95940476Y-107925238D01*
X95845238Y-107830000D01*
X95702380Y-107782380D01*
X95607142Y-107782380D01*
X95464285Y-107830000D01*
X95416666Y-107877619D01*
X94511904Y-107782380D02*
X94988095Y-107782380D01*
X95035714Y-108258571D01*
X94988095Y-108210952D01*
X94892857Y-108163333D01*
X94654761Y-108163333D01*
X94559523Y-108210952D01*
X94511904Y-108258571D01*
X94464285Y-108353809D01*
X94464285Y-108591904D01*
X94511904Y-108687142D01*
X94559523Y-108734761D01*
X94654761Y-108782380D01*
X94892857Y-108782380D01*
X94988095Y-108734761D01*
X95035714Y-108687142D01*
X95416666Y-87607142D02*
X95464285Y-87654761D01*
X95607142Y-87702380D01*
X95702380Y-87702380D01*
X95845238Y-87654761D01*
X95940476Y-87559523D01*
X95988095Y-87464285D01*
X96035714Y-87273809D01*
X96035714Y-87130952D01*
X95988095Y-86940476D01*
X95940476Y-86845238D01*
X95845238Y-86750000D01*
X95702380Y-86702380D01*
X95607142Y-86702380D01*
X95464285Y-86750000D01*
X95416666Y-86797619D01*
X94559523Y-87035714D02*
X94559523Y-87702380D01*
X94797619Y-86654761D02*
X95035714Y-87369047D01*
X94416666Y-87369047D01*
X80811666Y-100942142D02*
X80859285Y-100989761D01*
X81002142Y-101037380D01*
X81097380Y-101037380D01*
X81240238Y-100989761D01*
X81335476Y-100894523D01*
X81383095Y-100799285D01*
X81430714Y-100608809D01*
X81430714Y-100465952D01*
X81383095Y-100275476D01*
X81335476Y-100180238D01*
X81240238Y-100085000D01*
X81097380Y-100037380D01*
X81002142Y-100037380D01*
X80859285Y-100085000D01*
X80811666Y-100132619D01*
X80478333Y-100037380D02*
X79859285Y-100037380D01*
X80192619Y-100418333D01*
X80049761Y-100418333D01*
X79954523Y-100465952D01*
X79906904Y-100513571D01*
X79859285Y-100608809D01*
X79859285Y-100846904D01*
X79906904Y-100942142D01*
X79954523Y-100989761D01*
X80049761Y-101037380D01*
X80335476Y-101037380D01*
X80430714Y-100989761D01*
X80478333Y-100942142D01*
X108751666Y-104242142D02*
X108799285Y-104289761D01*
X108942142Y-104337380D01*
X109037380Y-104337380D01*
X109180238Y-104289761D01*
X109275476Y-104194523D01*
X109323095Y-104099285D01*
X109370714Y-103908809D01*
X109370714Y-103765952D01*
X109323095Y-103575476D01*
X109275476Y-103480238D01*
X109180238Y-103385000D01*
X109037380Y-103337380D01*
X108942142Y-103337380D01*
X108799285Y-103385000D01*
X108751666Y-103432619D01*
X108370714Y-103432619D02*
X108323095Y-103385000D01*
X108227857Y-103337380D01*
X107989761Y-103337380D01*
X107894523Y-103385000D01*
X107846904Y-103432619D01*
X107799285Y-103527857D01*
X107799285Y-103623095D01*
X107846904Y-103765952D01*
X108418333Y-104337380D01*
X107799285Y-104337380D01*
X108751666Y-95352142D02*
X108799285Y-95399761D01*
X108942142Y-95447380D01*
X109037380Y-95447380D01*
X109180238Y-95399761D01*
X109275476Y-95304523D01*
X109323095Y-95209285D01*
X109370714Y-95018809D01*
X109370714Y-94875952D01*
X109323095Y-94685476D01*
X109275476Y-94590238D01*
X109180238Y-94495000D01*
X109037380Y-94447380D01*
X108942142Y-94447380D01*
X108799285Y-94495000D01*
X108751666Y-94542619D01*
X107799285Y-95447380D02*
X108370714Y-95447380D01*
X108085000Y-95447380D02*
X108085000Y-94447380D01*
X108180238Y-94590238D01*
X108275476Y-94685476D01*
X108370714Y-94733095D01*
X87252380Y-97028095D02*
X88061904Y-97028095D01*
X88157142Y-97075714D01*
X88204761Y-97123333D01*
X88252380Y-97218571D01*
X88252380Y-97409047D01*
X88204761Y-97504285D01*
X88157142Y-97551904D01*
X88061904Y-97599523D01*
X87252380Y-97599523D01*
X88252380Y-98599523D02*
X88252380Y-98028095D01*
X88252380Y-98313809D02*
X87252380Y-98313809D01*
X87395238Y-98218571D01*
X87490476Y-98123333D01*
X87538095Y-98028095D01*
X98572380Y-61511904D02*
X97572380Y-61511904D01*
X97572380Y-61750000D01*
X97620000Y-61892857D01*
X97715238Y-61988095D01*
X97810476Y-62035714D01*
X98000952Y-62083333D01*
X98143809Y-62083333D01*
X98334285Y-62035714D01*
X98429523Y-61988095D01*
X98524761Y-61892857D01*
X98572380Y-61750000D01*
X98572380Y-61511904D01*
X97572380Y-62940476D02*
X97572380Y-62750000D01*
X97620000Y-62654761D01*
X97667619Y-62607142D01*
X97810476Y-62511904D01*
X98000952Y-62464285D01*
X98381904Y-62464285D01*
X98477142Y-62511904D01*
X98524761Y-62559523D01*
X98572380Y-62654761D01*
X98572380Y-62845238D01*
X98524761Y-62940476D01*
X98477142Y-62988095D01*
X98381904Y-63035714D01*
X98143809Y-63035714D01*
X98048571Y-62988095D01*
X98000952Y-62940476D01*
X97953333Y-62845238D01*
X97953333Y-62654761D01*
X98000952Y-62559523D01*
X98048571Y-62511904D01*
X98143809Y-62464285D01*
D14*
X115442857Y-140948571D02*
X115442857Y-141948571D01*
X116085714Y-140948571D02*
X116085714Y-141734285D01*
X116014285Y-141877142D01*
X115871428Y-141948571D01*
X115657142Y-141948571D01*
X115514285Y-141877142D01*
X115442857Y-141805714D01*
X113871428Y-141805714D02*
X113942857Y-141877142D01*
X114157142Y-141948571D01*
X114300000Y-141948571D01*
X114514285Y-141877142D01*
X114657142Y-141734285D01*
X114728571Y-141591428D01*
X114800000Y-141305714D01*
X114800000Y-141091428D01*
X114728571Y-140805714D01*
X114657142Y-140662857D01*
X114514285Y-140520000D01*
X114300000Y-140448571D01*
X114157142Y-140448571D01*
X113942857Y-140520000D01*
X113871428Y-140591428D01*
X112442857Y-141948571D02*
X113300000Y-141948571D01*
X112871428Y-141948571D02*
X112871428Y-140448571D01*
X113014285Y-140662857D01*
X113157142Y-140805714D01*
X113300000Y-140877142D01*
X119371428Y-144490285D02*
X119371428Y-145204571D01*
X119871428Y-143704571D02*
X119371428Y-144490285D01*
X118871428Y-143704571D01*
X117942857Y-143704571D02*
X117942857Y-144776000D01*
X118014285Y-144990285D01*
X118157142Y-145133142D01*
X118371428Y-145204571D01*
X118514285Y-145204571D01*
X117228571Y-144633142D02*
X116085714Y-144633142D01*
X114585714Y-145204571D02*
X115442857Y-145204571D01*
X115014285Y-145204571D02*
X115014285Y-143704571D01*
X115157142Y-143918857D01*
X115300000Y-144061714D01*
X115442857Y-144133142D01*
X113300000Y-144204571D02*
X113300000Y-145204571D01*
X113657142Y-143633142D02*
X114014285Y-144704571D01*
X113085714Y-144704571D01*
X112228571Y-143704571D02*
X112085714Y-143704571D01*
X111942857Y-143776000D01*
X111871428Y-143847428D01*
X111800000Y-143990285D01*
X111728571Y-144276000D01*
X111728571Y-144633142D01*
X111800000Y-144918857D01*
X111871428Y-145061714D01*
X111942857Y-145133142D01*
X112085714Y-145204571D01*
X112228571Y-145204571D01*
X112371428Y-145133142D01*
X112442857Y-145061714D01*
X112514285Y-144918857D01*
X112585714Y-144633142D01*
X112585714Y-144276000D01*
X112514285Y-143990285D01*
X112442857Y-143847428D01*
X112371428Y-143776000D01*
X112228571Y-143704571D01*
X110300000Y-145204571D02*
X111157142Y-145204571D01*
X110728571Y-145204571D02*
X110728571Y-143704571D01*
X110871428Y-143918857D01*
X111014285Y-144061714D01*
X111157142Y-144133142D01*
X108942857Y-143704571D02*
X109657142Y-143704571D01*
X109728571Y-144418857D01*
X109657142Y-144347428D01*
X109514285Y-144276000D01*
X109157142Y-144276000D01*
X109014285Y-144347428D01*
X108942857Y-144418857D01*
X108871428Y-144561714D01*
X108871428Y-144918857D01*
X108942857Y-145061714D01*
X109014285Y-145133142D01*
X109157142Y-145204571D01*
X109514285Y-145204571D01*
X109657142Y-145133142D01*
X109728571Y-145061714D01*
D11*
X116038095Y-66802380D02*
X116038095Y-67611904D01*
X115990476Y-67707142D01*
X115942857Y-67754761D01*
X115847619Y-67802380D01*
X115657142Y-67802380D01*
X115561904Y-67754761D01*
X115514285Y-67707142D01*
X115466666Y-67611904D01*
X115466666Y-66802380D01*
X115038095Y-67754761D02*
X114895238Y-67802380D01*
X114657142Y-67802380D01*
X114561904Y-67754761D01*
X114514285Y-67707142D01*
X114466666Y-67611904D01*
X114466666Y-67516666D01*
X114514285Y-67421428D01*
X114561904Y-67373809D01*
X114657142Y-67326190D01*
X114847619Y-67278571D01*
X114942857Y-67230952D01*
X114990476Y-67183333D01*
X115038095Y-67088095D01*
X115038095Y-66992857D01*
X114990476Y-66897619D01*
X114942857Y-66850000D01*
X114847619Y-66802380D01*
X114609523Y-66802380D01*
X114466666Y-66850000D01*
X113704761Y-67278571D02*
X113561904Y-67326190D01*
X113514285Y-67373809D01*
X113466666Y-67469047D01*
X113466666Y-67611904D01*
X113514285Y-67707142D01*
X113561904Y-67754761D01*
X113657142Y-67802380D01*
X114038095Y-67802380D01*
X114038095Y-66802380D01*
X113704761Y-66802380D01*
X113609523Y-66850000D01*
X113561904Y-66897619D01*
X113514285Y-66992857D01*
X113514285Y-67088095D01*
X113561904Y-67183333D01*
X113609523Y-67230952D01*
X113704761Y-67278571D01*
X114038095Y-67278571D01*
X112514285Y-67802380D02*
X113085714Y-67802380D01*
X112800000Y-67802380D02*
X112800000Y-66802380D01*
X112895238Y-66945238D01*
X112990476Y-67040476D01*
X113085714Y-67088095D01*
X99289857Y-137882380D02*
X98956523Y-138882380D01*
X98623190Y-137882380D01*
X98527952Y-138977619D02*
X97766047Y-138977619D01*
X96956523Y-138882380D02*
X97289857Y-138406190D01*
X97527952Y-138882380D02*
X97527952Y-137882380D01*
X97147000Y-137882380D01*
X97051761Y-137930000D01*
X97004142Y-137977619D01*
X96956523Y-138072857D01*
X96956523Y-138215714D01*
X97004142Y-138310952D01*
X97051761Y-138358571D01*
X97147000Y-138406190D01*
X97527952Y-138406190D01*
X96527952Y-138358571D02*
X96194619Y-138358571D01*
X96051761Y-138882380D02*
X96527952Y-138882380D01*
X96527952Y-137882380D01*
X96051761Y-137882380D01*
X95099380Y-137930000D02*
X95194619Y-137882380D01*
X95337476Y-137882380D01*
X95480333Y-137930000D01*
X95575571Y-138025238D01*
X95623190Y-138120476D01*
X95670809Y-138310952D01*
X95670809Y-138453809D01*
X95623190Y-138644285D01*
X95575571Y-138739523D01*
X95480333Y-138834761D01*
X95337476Y-138882380D01*
X95242238Y-138882380D01*
X95099380Y-138834761D01*
X95051761Y-138787142D01*
X95051761Y-138453809D01*
X95242238Y-138453809D01*
X94099380Y-138882380D02*
X94670809Y-138882380D01*
X94385095Y-138882380D02*
X94385095Y-137882380D01*
X94480333Y-138025238D01*
X94575571Y-138120476D01*
X94670809Y-138168095D01*
X90415119Y-138755357D02*
X90891309Y-139088690D01*
X90415119Y-139326785D02*
X91415119Y-139326785D01*
X91415119Y-138945833D01*
X91367500Y-138850595D01*
X91319880Y-138802976D01*
X91224642Y-138755357D01*
X91081785Y-138755357D01*
X90986547Y-138802976D01*
X90938928Y-138850595D01*
X90891309Y-138945833D01*
X90891309Y-139326785D01*
X90415119Y-137802976D02*
X90415119Y-138374404D01*
X90415119Y-138088690D02*
X91415119Y-138088690D01*
X91272261Y-138183928D01*
X91177023Y-138279166D01*
X91129404Y-138374404D01*
X91415119Y-137469642D02*
X91415119Y-136850595D01*
X91034166Y-137183928D01*
X91034166Y-137041071D01*
X90986547Y-136945833D01*
X90938928Y-136898214D01*
X90843690Y-136850595D01*
X90605595Y-136850595D01*
X90510357Y-136898214D01*
X90462738Y-136945833D01*
X90415119Y-137041071D01*
X90415119Y-137326785D01*
X90462738Y-137422023D01*
X90510357Y-137469642D01*
X81922857Y-140532380D02*
X82256190Y-140056190D01*
X82494285Y-140532380D02*
X82494285Y-139532380D01*
X82113333Y-139532380D01*
X82018095Y-139580000D01*
X81970476Y-139627619D01*
X81922857Y-139722857D01*
X81922857Y-139865714D01*
X81970476Y-139960952D01*
X82018095Y-140008571D01*
X82113333Y-140056190D01*
X82494285Y-140056190D01*
X80970476Y-140532380D02*
X81541904Y-140532380D01*
X81256190Y-140532380D02*
X81256190Y-139532380D01*
X81351428Y-139675238D01*
X81446666Y-139770476D01*
X81541904Y-139818095D01*
X80589523Y-139627619D02*
X80541904Y-139580000D01*
X80446666Y-139532380D01*
X80208571Y-139532380D01*
X80113333Y-139580000D01*
X80065714Y-139627619D01*
X80018095Y-139722857D01*
X80018095Y-139818095D01*
X80065714Y-139960952D01*
X80637142Y-140532380D01*
X80018095Y-140532380D01*
X81922857Y-136722380D02*
X82256190Y-136246190D01*
X82494285Y-136722380D02*
X82494285Y-135722380D01*
X82113333Y-135722380D01*
X82018095Y-135770000D01*
X81970476Y-135817619D01*
X81922857Y-135912857D01*
X81922857Y-136055714D01*
X81970476Y-136150952D01*
X82018095Y-136198571D01*
X82113333Y-136246190D01*
X82494285Y-136246190D01*
X80970476Y-136722380D02*
X81541904Y-136722380D01*
X81256190Y-136722380D02*
X81256190Y-135722380D01*
X81351428Y-135865238D01*
X81446666Y-135960476D01*
X81541904Y-136008095D01*
X80018095Y-136722380D02*
X80589523Y-136722380D01*
X80303809Y-136722380D02*
X80303809Y-135722380D01*
X80399047Y-135865238D01*
X80494285Y-135960476D01*
X80589523Y-136008095D01*
X144089285Y-134958380D02*
X144089285Y-133958380D01*
X143517857Y-134958380D02*
X143946428Y-134386952D01*
X143517857Y-133958380D02*
X144089285Y-134529809D01*
X143184523Y-133958380D02*
X142565476Y-133958380D01*
X142898809Y-134339333D01*
X142755952Y-134339333D01*
X142660714Y-134386952D01*
X142613095Y-134434571D01*
X142565476Y-134529809D01*
X142565476Y-134767904D01*
X142613095Y-134863142D01*
X142660714Y-134910761D01*
X142755952Y-134958380D01*
X143041666Y-134958380D01*
X143136904Y-134910761D01*
X143184523Y-134863142D01*
X141708333Y-134291714D02*
X141708333Y-134958380D01*
X141946428Y-133910761D02*
X142184523Y-134625047D01*
X141565476Y-134625047D01*
X125039285Y-134958380D02*
X125039285Y-133958380D01*
X124467857Y-134958380D02*
X124896428Y-134386952D01*
X124467857Y-133958380D02*
X125039285Y-134529809D01*
X124134523Y-133958380D02*
X123515476Y-133958380D01*
X123848809Y-134339333D01*
X123705952Y-134339333D01*
X123610714Y-134386952D01*
X123563095Y-134434571D01*
X123515476Y-134529809D01*
X123515476Y-134767904D01*
X123563095Y-134863142D01*
X123610714Y-134910761D01*
X123705952Y-134958380D01*
X123991666Y-134958380D01*
X124086904Y-134910761D01*
X124134523Y-134863142D01*
X123182142Y-133958380D02*
X122563095Y-133958380D01*
X122896428Y-134339333D01*
X122753571Y-134339333D01*
X122658333Y-134386952D01*
X122610714Y-134434571D01*
X122563095Y-134529809D01*
X122563095Y-134767904D01*
X122610714Y-134863142D01*
X122658333Y-134910761D01*
X122753571Y-134958380D01*
X123039285Y-134958380D01*
X123134523Y-134910761D01*
X123182142Y-134863142D01*
X105989285Y-134958380D02*
X105989285Y-133958380D01*
X105417857Y-134958380D02*
X105846428Y-134386952D01*
X105417857Y-133958380D02*
X105989285Y-134529809D01*
X105084523Y-133958380D02*
X104465476Y-133958380D01*
X104798809Y-134339333D01*
X104655952Y-134339333D01*
X104560714Y-134386952D01*
X104513095Y-134434571D01*
X104465476Y-134529809D01*
X104465476Y-134767904D01*
X104513095Y-134863142D01*
X104560714Y-134910761D01*
X104655952Y-134958380D01*
X104941666Y-134958380D01*
X105036904Y-134910761D01*
X105084523Y-134863142D01*
X104084523Y-134053619D02*
X104036904Y-134006000D01*
X103941666Y-133958380D01*
X103703571Y-133958380D01*
X103608333Y-134006000D01*
X103560714Y-134053619D01*
X103513095Y-134148857D01*
X103513095Y-134244095D01*
X103560714Y-134386952D01*
X104132142Y-134958380D01*
X103513095Y-134958380D01*
X86939285Y-134958380D02*
X86939285Y-133958380D01*
X86367857Y-134958380D02*
X86796428Y-134386952D01*
X86367857Y-133958380D02*
X86939285Y-134529809D01*
X86034523Y-133958380D02*
X85415476Y-133958380D01*
X85748809Y-134339333D01*
X85605952Y-134339333D01*
X85510714Y-134386952D01*
X85463095Y-134434571D01*
X85415476Y-134529809D01*
X85415476Y-134767904D01*
X85463095Y-134863142D01*
X85510714Y-134910761D01*
X85605952Y-134958380D01*
X85891666Y-134958380D01*
X85986904Y-134910761D01*
X86034523Y-134863142D01*
X84463095Y-134958380D02*
X85034523Y-134958380D01*
X84748809Y-134958380D02*
X84748809Y-133958380D01*
X84844047Y-134101238D01*
X84939285Y-134196476D01*
X85034523Y-134244095D01*
X144089285Y-99308380D02*
X144089285Y-98308380D01*
X143517857Y-99308380D02*
X143946428Y-98736952D01*
X143517857Y-98308380D02*
X144089285Y-98879809D01*
X143136904Y-98403619D02*
X143089285Y-98356000D01*
X142994047Y-98308380D01*
X142755952Y-98308380D01*
X142660714Y-98356000D01*
X142613095Y-98403619D01*
X142565476Y-98498857D01*
X142565476Y-98594095D01*
X142613095Y-98736952D01*
X143184523Y-99308380D01*
X142565476Y-99308380D01*
X141708333Y-98641714D02*
X141708333Y-99308380D01*
X141946428Y-98260761D02*
X142184523Y-98975047D01*
X141565476Y-98975047D01*
X125039285Y-99308380D02*
X125039285Y-98308380D01*
X124467857Y-99308380D02*
X124896428Y-98736952D01*
X124467857Y-98308380D02*
X125039285Y-98879809D01*
X124086904Y-98403619D02*
X124039285Y-98356000D01*
X123944047Y-98308380D01*
X123705952Y-98308380D01*
X123610714Y-98356000D01*
X123563095Y-98403619D01*
X123515476Y-98498857D01*
X123515476Y-98594095D01*
X123563095Y-98736952D01*
X124134523Y-99308380D01*
X123515476Y-99308380D01*
X123182142Y-98308380D02*
X122563095Y-98308380D01*
X122896428Y-98689333D01*
X122753571Y-98689333D01*
X122658333Y-98736952D01*
X122610714Y-98784571D01*
X122563095Y-98879809D01*
X122563095Y-99117904D01*
X122610714Y-99213142D01*
X122658333Y-99260761D01*
X122753571Y-99308380D01*
X123039285Y-99308380D01*
X123134523Y-99260761D01*
X123182142Y-99213142D01*
X105989285Y-99308380D02*
X105989285Y-98308380D01*
X105417857Y-99308380D02*
X105846428Y-98736952D01*
X105417857Y-98308380D02*
X105989285Y-98879809D01*
X105036904Y-98403619D02*
X104989285Y-98356000D01*
X104894047Y-98308380D01*
X104655952Y-98308380D01*
X104560714Y-98356000D01*
X104513095Y-98403619D01*
X104465476Y-98498857D01*
X104465476Y-98594095D01*
X104513095Y-98736952D01*
X105084523Y-99308380D01*
X104465476Y-99308380D01*
X104084523Y-98403619D02*
X104036904Y-98356000D01*
X103941666Y-98308380D01*
X103703571Y-98308380D01*
X103608333Y-98356000D01*
X103560714Y-98403619D01*
X103513095Y-98498857D01*
X103513095Y-98594095D01*
X103560714Y-98736952D01*
X104132142Y-99308380D01*
X103513095Y-99308380D01*
X86939285Y-99308380D02*
X86939285Y-98308380D01*
X86367857Y-99308380D02*
X86796428Y-98736952D01*
X86367857Y-98308380D02*
X86939285Y-98879809D01*
X85986904Y-98403619D02*
X85939285Y-98356000D01*
X85844047Y-98308380D01*
X85605952Y-98308380D01*
X85510714Y-98356000D01*
X85463095Y-98403619D01*
X85415476Y-98498857D01*
X85415476Y-98594095D01*
X85463095Y-98736952D01*
X86034523Y-99308380D01*
X85415476Y-99308380D01*
X84463095Y-99308380D02*
X85034523Y-99308380D01*
X84748809Y-99308380D02*
X84748809Y-98308380D01*
X84844047Y-98451238D01*
X84939285Y-98546476D01*
X85034523Y-98594095D01*
X144089285Y-96858580D02*
X144089285Y-95858580D01*
X143517857Y-96858580D02*
X143946428Y-96287152D01*
X143517857Y-95858580D02*
X144089285Y-96430009D01*
X142565476Y-96858580D02*
X143136904Y-96858580D01*
X142851190Y-96858580D02*
X142851190Y-95858580D01*
X142946428Y-96001438D01*
X143041666Y-96096676D01*
X143136904Y-96144295D01*
X141708333Y-96191914D02*
X141708333Y-96858580D01*
X141946428Y-95810961D02*
X142184523Y-96525247D01*
X141565476Y-96525247D01*
X125039285Y-96858580D02*
X125039285Y-95858580D01*
X124467857Y-96858580D02*
X124896428Y-96287152D01*
X124467857Y-95858580D02*
X125039285Y-96430009D01*
X123515476Y-96858580D02*
X124086904Y-96858580D01*
X123801190Y-96858580D02*
X123801190Y-95858580D01*
X123896428Y-96001438D01*
X123991666Y-96096676D01*
X124086904Y-96144295D01*
X123182142Y-95858580D02*
X122563095Y-95858580D01*
X122896428Y-96239533D01*
X122753571Y-96239533D01*
X122658333Y-96287152D01*
X122610714Y-96334771D01*
X122563095Y-96430009D01*
X122563095Y-96668104D01*
X122610714Y-96763342D01*
X122658333Y-96810961D01*
X122753571Y-96858580D01*
X123039285Y-96858580D01*
X123134523Y-96810961D01*
X123182142Y-96763342D01*
X105989285Y-96858580D02*
X105989285Y-95858580D01*
X105417857Y-96858580D02*
X105846428Y-96287152D01*
X105417857Y-95858580D02*
X105989285Y-96430009D01*
X104465476Y-96858580D02*
X105036904Y-96858580D01*
X104751190Y-96858580D02*
X104751190Y-95858580D01*
X104846428Y-96001438D01*
X104941666Y-96096676D01*
X105036904Y-96144295D01*
X104084523Y-95953819D02*
X104036904Y-95906200D01*
X103941666Y-95858580D01*
X103703571Y-95858580D01*
X103608333Y-95906200D01*
X103560714Y-95953819D01*
X103513095Y-96049057D01*
X103513095Y-96144295D01*
X103560714Y-96287152D01*
X104132142Y-96858580D01*
X103513095Y-96858580D01*
X86939285Y-96858580D02*
X86939285Y-95858580D01*
X86367857Y-96858580D02*
X86796428Y-96287152D01*
X86367857Y-95858580D02*
X86939285Y-96430009D01*
X85415476Y-96858580D02*
X85986904Y-96858580D01*
X85701190Y-96858580D02*
X85701190Y-95858580D01*
X85796428Y-96001438D01*
X85891666Y-96096676D01*
X85986904Y-96144295D01*
X84463095Y-96858580D02*
X85034523Y-96858580D01*
X84748809Y-96858580D02*
X84748809Y-95858580D01*
X84844047Y-96001438D01*
X84939285Y-96096676D01*
X85034523Y-96144295D01*
X143613095Y-61208580D02*
X143613095Y-60208580D01*
X143041666Y-61208580D02*
X143470238Y-60637152D01*
X143041666Y-60208580D02*
X143613095Y-60780009D01*
X142184523Y-60541914D02*
X142184523Y-61208580D01*
X142422619Y-60160961D02*
X142660714Y-60875247D01*
X142041666Y-60875247D01*
X124563095Y-61208580D02*
X124563095Y-60208580D01*
X123991666Y-61208580D02*
X124420238Y-60637152D01*
X123991666Y-60208580D02*
X124563095Y-60780009D01*
X123658333Y-60208580D02*
X123039285Y-60208580D01*
X123372619Y-60589533D01*
X123229761Y-60589533D01*
X123134523Y-60637152D01*
X123086904Y-60684771D01*
X123039285Y-60780009D01*
X123039285Y-61018104D01*
X123086904Y-61113342D01*
X123134523Y-61160961D01*
X123229761Y-61208580D01*
X123515476Y-61208580D01*
X123610714Y-61160961D01*
X123658333Y-61113342D01*
X105513095Y-61208580D02*
X105513095Y-60208580D01*
X104941666Y-61208580D02*
X105370238Y-60637152D01*
X104941666Y-60208580D02*
X105513095Y-60780009D01*
X104560714Y-60303819D02*
X104513095Y-60256200D01*
X104417857Y-60208580D01*
X104179761Y-60208580D01*
X104084523Y-60256200D01*
X104036904Y-60303819D01*
X103989285Y-60399057D01*
X103989285Y-60494295D01*
X104036904Y-60637152D01*
X104608333Y-61208580D01*
X103989285Y-61208580D01*
X86463095Y-61208580D02*
X86463095Y-60208580D01*
X85891666Y-61208580D02*
X86320238Y-60637152D01*
X85891666Y-60208580D02*
X86463095Y-60780009D01*
X84939285Y-61208580D02*
X85510714Y-61208580D01*
X85225000Y-61208580D02*
X85225000Y-60208580D01*
X85320238Y-60351438D01*
X85415476Y-60446676D01*
X85510714Y-60494295D01*
M02*
