%TF.GenerationSoftware,KiCad,Pcbnew,(5.1.2)-2*%
%TF.CreationDate,2020-03-24T23:19:36+08:00*%
%TF.ProjectId,wingxx-receiver-v4,77696e67-7878-42d7-9265-636569766572,rev?*%
%TF.SameCoordinates,Original*%
%TF.FileFunction,Legend,Top*%
%TF.FilePolarity,Positive*%
%FSLAX46Y46*%
G04 Gerber Fmt 4.6, Leading zero omitted, Abs format (unit mm)*
G04 Created by KiCad (PCBNEW (5.1.2)-2) date 2020-03-24 23:19:36*
%MOMM*%
%LPD*%
G04 APERTURE LIST*
%ADD10C,0.120000*%
%ADD11C,0.150000*%
G04 APERTURE END LIST*
D10*
X75505000Y-92650000D02*
X76835000Y-92650000D01*
X75505000Y-93980000D02*
X75505000Y-92650000D01*
X75505000Y-95250000D02*
X78165000Y-95250000D01*
X78165000Y-95250000D02*
X78165000Y-102930000D01*
X75505000Y-95250000D02*
X75505000Y-102930000D01*
X75505000Y-102930000D02*
X78165000Y-102930000D01*
X79950000Y-146745000D02*
X79950000Y-145415000D01*
X81280000Y-146745000D02*
X79950000Y-146745000D01*
X82550000Y-146745000D02*
X82550000Y-144085000D01*
X82550000Y-144085000D02*
X87690000Y-144085000D01*
X82550000Y-146745000D02*
X87690000Y-146745000D01*
X87690000Y-146745000D02*
X87690000Y-144085000D01*
X102295000Y-144085000D02*
X102295000Y-145415000D01*
X100965000Y-144085000D02*
X102295000Y-144085000D01*
X99695000Y-144085000D02*
X99695000Y-146745000D01*
X99695000Y-146745000D02*
X92015000Y-146745000D01*
X99695000Y-144085000D02*
X92015000Y-144085000D01*
X92015000Y-144085000D02*
X92015000Y-146745000D01*
D11*
X70835000Y-92102380D02*
X70835000Y-91102380D01*
X71215952Y-91102380D01*
X71311190Y-91150000D01*
X71358809Y-91197619D01*
X71406428Y-91292857D01*
X71406428Y-91435714D01*
X71358809Y-91530952D01*
X71311190Y-91578571D01*
X71215952Y-91626190D01*
X70835000Y-91626190D01*
X72406428Y-92102380D02*
X72073095Y-91626190D01*
X71835000Y-92102380D02*
X71835000Y-91102380D01*
X72215952Y-91102380D01*
X72311190Y-91150000D01*
X72358809Y-91197619D01*
X72406428Y-91292857D01*
X72406428Y-91435714D01*
X72358809Y-91530952D01*
X72311190Y-91578571D01*
X72215952Y-91626190D01*
X71835000Y-91626190D01*
X73025476Y-91102380D02*
X73215952Y-91102380D01*
X73311190Y-91150000D01*
X73406428Y-91245238D01*
X73454047Y-91435714D01*
X73454047Y-91769047D01*
X73406428Y-91959523D01*
X73311190Y-92054761D01*
X73215952Y-92102380D01*
X73025476Y-92102380D01*
X72930238Y-92054761D01*
X72835000Y-91959523D01*
X72787380Y-91769047D01*
X72787380Y-91435714D01*
X72835000Y-91245238D01*
X72930238Y-91150000D01*
X73025476Y-91102380D01*
X74406428Y-91150000D02*
X74311190Y-91102380D01*
X74168333Y-91102380D01*
X74025476Y-91150000D01*
X73930238Y-91245238D01*
X73882619Y-91340476D01*
X73835000Y-91530952D01*
X73835000Y-91673809D01*
X73882619Y-91864285D01*
X73930238Y-91959523D01*
X74025476Y-92054761D01*
X74168333Y-92102380D01*
X74263571Y-92102380D01*
X74406428Y-92054761D01*
X74454047Y-92007142D01*
X74454047Y-91673809D01*
X74263571Y-91673809D01*
X75454047Y-92102380D02*
X75120714Y-91626190D01*
X74882619Y-92102380D02*
X74882619Y-91102380D01*
X75263571Y-91102380D01*
X75358809Y-91150000D01*
X75406428Y-91197619D01*
X75454047Y-91292857D01*
X75454047Y-91435714D01*
X75406428Y-91530952D01*
X75358809Y-91578571D01*
X75263571Y-91626190D01*
X74882619Y-91626190D01*
X75644523Y-92197619D02*
X76406428Y-92197619D01*
X76644523Y-92102380D02*
X76644523Y-91102380D01*
X76644523Y-91578571D02*
X77215952Y-91578571D01*
X77215952Y-92102380D02*
X77215952Y-91102380D01*
X77692142Y-91578571D02*
X78025476Y-91578571D01*
X78168333Y-92102380D02*
X77692142Y-92102380D01*
X77692142Y-91102380D01*
X78168333Y-91102380D01*
X78549285Y-91816666D02*
X79025476Y-91816666D01*
X78454047Y-92102380D02*
X78787380Y-91102380D01*
X79120714Y-92102380D01*
X79454047Y-92102380D02*
X79454047Y-91102380D01*
X79692142Y-91102380D01*
X79835000Y-91150000D01*
X79930238Y-91245238D01*
X79977857Y-91340476D01*
X80025476Y-91530952D01*
X80025476Y-91673809D01*
X79977857Y-91864285D01*
X79930238Y-91959523D01*
X79835000Y-92054761D01*
X79692142Y-92102380D01*
X79454047Y-92102380D01*
X80454047Y-91578571D02*
X80787380Y-91578571D01*
X80930238Y-92102380D02*
X80454047Y-92102380D01*
X80454047Y-91102380D01*
X80930238Y-91102380D01*
X81930238Y-92102380D02*
X81596904Y-91626190D01*
X81358809Y-92102380D02*
X81358809Y-91102380D01*
X81739761Y-91102380D01*
X81835000Y-91150000D01*
X81882619Y-91197619D01*
X81930238Y-91292857D01*
X81930238Y-91435714D01*
X81882619Y-91530952D01*
X81835000Y-91578571D01*
X81739761Y-91626190D01*
X81358809Y-91626190D01*
X82311190Y-91197619D02*
X82358809Y-91150000D01*
X82454047Y-91102380D01*
X82692142Y-91102380D01*
X82787380Y-91150000D01*
X82835000Y-91197619D01*
X82882619Y-91292857D01*
X82882619Y-91388095D01*
X82835000Y-91530952D01*
X82263571Y-92102380D01*
X82882619Y-92102380D01*
X79307142Y-153843571D02*
X79354761Y-153891190D01*
X79402380Y-154034047D01*
X79402380Y-154129285D01*
X79354761Y-154272142D01*
X79259523Y-154367380D01*
X79164285Y-154415000D01*
X78973809Y-154462619D01*
X78830952Y-154462619D01*
X78640476Y-154415000D01*
X78545238Y-154367380D01*
X78450000Y-154272142D01*
X78402380Y-154129285D01*
X78402380Y-154034047D01*
X78450000Y-153891190D01*
X78497619Y-153843571D01*
X79402380Y-153272142D02*
X79354761Y-153367380D01*
X79307142Y-153415000D01*
X79211904Y-153462619D01*
X78926190Y-153462619D01*
X78830952Y-153415000D01*
X78783333Y-153367380D01*
X78735714Y-153272142D01*
X78735714Y-153129285D01*
X78783333Y-153034047D01*
X78830952Y-152986428D01*
X78926190Y-152938809D01*
X79211904Y-152938809D01*
X79307142Y-152986428D01*
X79354761Y-153034047D01*
X79402380Y-153129285D01*
X79402380Y-153272142D01*
X78735714Y-152510238D02*
X79402380Y-152510238D01*
X78830952Y-152510238D02*
X78783333Y-152462619D01*
X78735714Y-152367380D01*
X78735714Y-152224523D01*
X78783333Y-152129285D01*
X78878571Y-152081666D01*
X79402380Y-152081666D01*
X78735714Y-151605476D02*
X79402380Y-151605476D01*
X78830952Y-151605476D02*
X78783333Y-151557857D01*
X78735714Y-151462619D01*
X78735714Y-151319761D01*
X78783333Y-151224523D01*
X78878571Y-151176904D01*
X79402380Y-151176904D01*
X78878571Y-150367380D02*
X78878571Y-150700714D01*
X79402380Y-150700714D02*
X78402380Y-150700714D01*
X78402380Y-150224523D01*
X79354761Y-149462619D02*
X79402380Y-149557857D01*
X79402380Y-149748333D01*
X79354761Y-149843571D01*
X79259523Y-149891190D01*
X78878571Y-149891190D01*
X78783333Y-149843571D01*
X78735714Y-149748333D01*
X78735714Y-149557857D01*
X78783333Y-149462619D01*
X78878571Y-149415000D01*
X78973809Y-149415000D01*
X79069047Y-149891190D01*
X79402380Y-148986428D02*
X78735714Y-148986428D01*
X78830952Y-148986428D02*
X78783333Y-148938809D01*
X78735714Y-148843571D01*
X78735714Y-148700714D01*
X78783333Y-148605476D01*
X78878571Y-148557857D01*
X79402380Y-148557857D01*
X78878571Y-148557857D02*
X78783333Y-148510238D01*
X78735714Y-148415000D01*
X78735714Y-148272142D01*
X78783333Y-148176904D01*
X78878571Y-148129285D01*
X79402380Y-148129285D01*
X79402380Y-147224523D02*
X78878571Y-147224523D01*
X78783333Y-147272142D01*
X78735714Y-147367380D01*
X78735714Y-147557857D01*
X78783333Y-147653095D01*
X79354761Y-147224523D02*
X79402380Y-147319761D01*
X79402380Y-147557857D01*
X79354761Y-147653095D01*
X79259523Y-147700714D01*
X79164285Y-147700714D01*
X79069047Y-147653095D01*
X79021428Y-147557857D01*
X79021428Y-147319761D01*
X78973809Y-147224523D01*
X79402380Y-146605476D02*
X79354761Y-146700714D01*
X79259523Y-146748333D01*
X78402380Y-146748333D01*
X79354761Y-145843571D02*
X79402380Y-145938809D01*
X79402380Y-146129285D01*
X79354761Y-146224523D01*
X79259523Y-146272142D01*
X78878571Y-146272142D01*
X78783333Y-146224523D01*
X78735714Y-146129285D01*
X78735714Y-145938809D01*
X78783333Y-145843571D01*
X78878571Y-145795952D01*
X78973809Y-145795952D01*
X79069047Y-146272142D01*
X79497619Y-145605476D02*
X79497619Y-144843571D01*
X78402380Y-144605476D02*
X79211904Y-144605476D01*
X79307142Y-144557857D01*
X79354761Y-144510238D01*
X79402380Y-144415000D01*
X79402380Y-144224523D01*
X79354761Y-144129285D01*
X79307142Y-144081666D01*
X79211904Y-144034047D01*
X78402380Y-144034047D01*
X78735714Y-143557857D02*
X79402380Y-143557857D01*
X78830952Y-143557857D02*
X78783333Y-143510238D01*
X78735714Y-143415000D01*
X78735714Y-143272142D01*
X78783333Y-143176904D01*
X78878571Y-143129285D01*
X79402380Y-143129285D01*
X79402380Y-142224523D02*
X78402380Y-142224523D01*
X79354761Y-142224523D02*
X79402380Y-142319761D01*
X79402380Y-142510238D01*
X79354761Y-142605476D01*
X79307142Y-142653095D01*
X79211904Y-142700714D01*
X78926190Y-142700714D01*
X78830952Y-142653095D01*
X78783333Y-142605476D01*
X78735714Y-142510238D01*
X78735714Y-142319761D01*
X78783333Y-142224523D01*
X79354761Y-141367380D02*
X79402380Y-141462619D01*
X79402380Y-141653095D01*
X79354761Y-141748333D01*
X79259523Y-141795952D01*
X78878571Y-141795952D01*
X78783333Y-141748333D01*
X78735714Y-141653095D01*
X78735714Y-141462619D01*
X78783333Y-141367380D01*
X78878571Y-141319761D01*
X78973809Y-141319761D01*
X79069047Y-141795952D01*
X79402380Y-140891190D02*
X78735714Y-140891190D01*
X78926190Y-140891190D02*
X78830952Y-140843571D01*
X78783333Y-140795952D01*
X78735714Y-140700714D01*
X78735714Y-140605476D01*
X78735714Y-139843571D02*
X79545238Y-139843571D01*
X79640476Y-139891190D01*
X79688095Y-139938809D01*
X79735714Y-140034047D01*
X79735714Y-140176904D01*
X79688095Y-140272142D01*
X79354761Y-139843571D02*
X79402380Y-139938809D01*
X79402380Y-140129285D01*
X79354761Y-140224523D01*
X79307142Y-140272142D01*
X79211904Y-140319761D01*
X78926190Y-140319761D01*
X78830952Y-140272142D01*
X78783333Y-140224523D01*
X78735714Y-140129285D01*
X78735714Y-139938809D01*
X78783333Y-139843571D01*
X79402380Y-139224523D02*
X79354761Y-139319761D01*
X79259523Y-139367380D01*
X78402380Y-139367380D01*
X79402380Y-138700714D02*
X79354761Y-138795952D01*
X79307142Y-138843571D01*
X79211904Y-138891190D01*
X78926190Y-138891190D01*
X78830952Y-138843571D01*
X78783333Y-138795952D01*
X78735714Y-138700714D01*
X78735714Y-138557857D01*
X78783333Y-138462619D01*
X78830952Y-138415000D01*
X78926190Y-138367380D01*
X79211904Y-138367380D01*
X79307142Y-138415000D01*
X79354761Y-138462619D01*
X79402380Y-138557857D01*
X79402380Y-138700714D01*
X78735714Y-138034047D02*
X79402380Y-137843571D01*
X78926190Y-137653095D01*
X79402380Y-137462619D01*
X78735714Y-137272142D01*
X79402380Y-136367380D02*
X79402380Y-136938809D01*
X79402380Y-136653095D02*
X78402380Y-136653095D01*
X78545238Y-136748333D01*
X78640476Y-136843571D01*
X78688095Y-136938809D01*
X103747380Y-151415000D02*
X102747380Y-151415000D01*
X102747380Y-151034047D01*
X102795000Y-150938809D01*
X102842619Y-150891190D01*
X102937857Y-150843571D01*
X103080714Y-150843571D01*
X103175952Y-150891190D01*
X103223571Y-150938809D01*
X103271190Y-151034047D01*
X103271190Y-151415000D01*
X103747380Y-149843571D02*
X103271190Y-150176904D01*
X103747380Y-150415000D02*
X102747380Y-150415000D01*
X102747380Y-150034047D01*
X102795000Y-149938809D01*
X102842619Y-149891190D01*
X102937857Y-149843571D01*
X103080714Y-149843571D01*
X103175952Y-149891190D01*
X103223571Y-149938809D01*
X103271190Y-150034047D01*
X103271190Y-150415000D01*
X102747380Y-149224523D02*
X102747380Y-149034047D01*
X102795000Y-148938809D01*
X102890238Y-148843571D01*
X103080714Y-148795952D01*
X103414047Y-148795952D01*
X103604523Y-148843571D01*
X103699761Y-148938809D01*
X103747380Y-149034047D01*
X103747380Y-149224523D01*
X103699761Y-149319761D01*
X103604523Y-149415000D01*
X103414047Y-149462619D01*
X103080714Y-149462619D01*
X102890238Y-149415000D01*
X102795000Y-149319761D01*
X102747380Y-149224523D01*
X102795000Y-147843571D02*
X102747380Y-147938809D01*
X102747380Y-148081666D01*
X102795000Y-148224523D01*
X102890238Y-148319761D01*
X102985476Y-148367380D01*
X103175952Y-148415000D01*
X103318809Y-148415000D01*
X103509285Y-148367380D01*
X103604523Y-148319761D01*
X103699761Y-148224523D01*
X103747380Y-148081666D01*
X103747380Y-147986428D01*
X103699761Y-147843571D01*
X103652142Y-147795952D01*
X103318809Y-147795952D01*
X103318809Y-147986428D01*
X103747380Y-146795952D02*
X103271190Y-147129285D01*
X103747380Y-147367380D02*
X102747380Y-147367380D01*
X102747380Y-146986428D01*
X102795000Y-146891190D01*
X102842619Y-146843571D01*
X102937857Y-146795952D01*
X103080714Y-146795952D01*
X103175952Y-146843571D01*
X103223571Y-146891190D01*
X103271190Y-146986428D01*
X103271190Y-147367380D01*
X103842619Y-146605476D02*
X103842619Y-145843571D01*
X103747380Y-145605476D02*
X102747380Y-145605476D01*
X103223571Y-145605476D02*
X103223571Y-145034047D01*
X103747380Y-145034047D02*
X102747380Y-145034047D01*
X103223571Y-144557857D02*
X103223571Y-144224523D01*
X103747380Y-144081666D02*
X103747380Y-144557857D01*
X102747380Y-144557857D01*
X102747380Y-144081666D01*
X103461666Y-143700714D02*
X103461666Y-143224523D01*
X103747380Y-143795952D02*
X102747380Y-143462619D01*
X103747380Y-143129285D01*
X103747380Y-142795952D02*
X102747380Y-142795952D01*
X102747380Y-142557857D01*
X102795000Y-142415000D01*
X102890238Y-142319761D01*
X102985476Y-142272142D01*
X103175952Y-142224523D01*
X103318809Y-142224523D01*
X103509285Y-142272142D01*
X103604523Y-142319761D01*
X103699761Y-142415000D01*
X103747380Y-142557857D01*
X103747380Y-142795952D01*
X103223571Y-141795952D02*
X103223571Y-141462619D01*
X103747380Y-141319761D02*
X103747380Y-141795952D01*
X102747380Y-141795952D01*
X102747380Y-141319761D01*
X103747380Y-140319761D02*
X103271190Y-140653095D01*
X103747380Y-140891190D02*
X102747380Y-140891190D01*
X102747380Y-140510238D01*
X102795000Y-140415000D01*
X102842619Y-140367380D01*
X102937857Y-140319761D01*
X103080714Y-140319761D01*
X103175952Y-140367380D01*
X103223571Y-140415000D01*
X103271190Y-140510238D01*
X103271190Y-140891190D01*
X103747380Y-139367380D02*
X103747380Y-139938809D01*
X103747380Y-139653095D02*
X102747380Y-139653095D01*
X102890238Y-139748333D01*
X102985476Y-139843571D01*
X103033095Y-139938809D01*
M02*
