%TF.GenerationSoftware,KiCad,Pcbnew,(5.1.2)-2*%
%TF.CreationDate,2020-01-27T11:03:49+08:00*%
%TF.ProjectId,wingxx-receiver-v4,77696e67-7878-42d7-9265-636569766572,rev?*%
%TF.SameCoordinates,Original*%
%TF.FileFunction,Copper,L1,Top*%
%TF.FilePolarity,Positive*%
%FSLAX46Y46*%
G04 Gerber Fmt 4.6, Leading zero omitted, Abs format (unit mm)*
G04 Created by KiCad (PCBNEW (5.1.2)-2) date 2020-01-27 11:03:49*
%MOMM*%
%LPD*%
G04 APERTURE LIST*
%ADD10O,1.700000X1.700000*%
%ADD11R,1.700000X1.700000*%
%ADD12O,1.000000X2.100000*%
%ADD13O,1.000000X1.600000*%
%ADD14C,0.800000*%
%ADD15C,0.250000*%
%ADD16C,0.254000*%
%ADD17C,0.350000*%
%ADD18O,0.600000X1.700000*%
%ADD19O,0.600000X1.200000*%
G04 APERTURE END LIST*
D10*
X97790000Y-135636000D03*
X95250000Y-135636000D03*
X92710000Y-135636000D03*
D11*
X90170000Y-135636000D03*
D12*
X109980000Y-63930000D03*
X118620000Y-63930000D03*
D13*
X109980000Y-59750000D03*
X118620000Y-59750000D03*
D10*
X146050000Y-63500000D03*
X143510000Y-63500000D03*
D11*
X140970000Y-63500000D03*
D10*
X80518000Y-133604000D03*
X80518000Y-136144000D03*
X80518000Y-138684000D03*
D11*
X80518000Y-141224000D03*
D14*
X104008300Y-78879400D03*
X98854600Y-97580400D03*
X98209800Y-83243400D03*
X97969600Y-98110200D03*
X93700000Y-118566200D03*
X92348800Y-94123700D03*
X95954700Y-87443600D03*
X96934000Y-109497500D03*
X94631500Y-98639700D03*
X116888900Y-109017600D03*
X116273500Y-90286500D03*
X116645300Y-145276100D03*
X101727400Y-102731400D03*
X99115200Y-142550500D03*
X100167700Y-102715000D03*
X110803600Y-103060700D03*
X112394100Y-68087400D03*
X98419100Y-63340100D03*
X108024200Y-63717500D03*
X98101400Y-99110600D03*
X96996900Y-95390000D03*
X96959500Y-97823500D03*
X85174300Y-100122400D03*
X95223100Y-90727100D03*
X88265000Y-62873000D03*
X93607200Y-90734400D03*
X92951600Y-62873000D03*
X92951600Y-89948300D03*
X93587700Y-98932900D03*
X92909300Y-97790000D03*
X91458500Y-97062400D03*
X90908000Y-96190000D03*
D15*
X98854600Y-97580400D02*
X98466400Y-97192200D01*
X98466400Y-97192200D02*
X98466400Y-84421300D01*
X98466400Y-84421300D02*
X104008300Y-78879400D01*
X98209800Y-83243400D02*
X97969600Y-83483600D01*
X97969600Y-83483600D02*
X97969600Y-98110200D01*
X92348800Y-94123700D02*
X92348800Y-97202100D01*
X92348800Y-97202100D02*
X92176000Y-97374900D01*
X92176000Y-97374900D02*
X92176000Y-101357400D01*
X92176000Y-101357400D02*
X93700000Y-102881400D01*
X93700000Y-102881400D02*
X93700000Y-118566200D01*
X95954700Y-87443600D02*
X95954700Y-93245100D01*
X95954700Y-93245100D02*
X94631500Y-94568300D01*
X94631500Y-94568300D02*
X94631500Y-98639700D01*
X94631500Y-98639700D02*
X96934000Y-100942200D01*
X96934000Y-100942200D02*
X96934000Y-109497500D01*
X116273500Y-90286500D02*
X116273500Y-108402200D01*
X116273500Y-108402200D02*
X116888900Y-109017600D01*
X109980000Y-60875300D02*
X109980000Y-63930000D01*
X109980000Y-59750000D02*
X109980000Y-60875300D01*
X118620000Y-59750000D02*
X118620000Y-63930000D01*
X116645300Y-145276100D02*
X116645300Y-122336200D01*
X116645300Y-122336200D02*
X101727400Y-107418300D01*
X101727400Y-107418300D02*
X101727400Y-102731400D01*
X100167700Y-102715000D02*
X98465200Y-104417500D01*
X98465200Y-104417500D02*
X98465200Y-132522400D01*
X98465200Y-132522400D02*
X99115200Y-133172400D01*
X99115200Y-133172400D02*
X99115200Y-142550500D01*
X110803600Y-103060700D02*
X109713000Y-101970100D01*
X109713000Y-101970100D02*
X99872700Y-101970100D01*
X99872700Y-101970100D02*
X96196800Y-98294200D01*
X96196800Y-98294200D02*
X96196800Y-93958200D01*
X96196800Y-93958200D02*
X96728000Y-93427000D01*
X96728000Y-93427000D02*
X96728000Y-65786000D01*
X96728000Y-65786000D02*
X98796500Y-63717500D01*
X108024200Y-63717500D02*
X112394100Y-68087400D01*
X98796500Y-63717500D02*
X98419100Y-63340100D01*
X108024200Y-63717500D02*
X98796500Y-63717500D01*
X142334700Y-63500000D02*
X142334700Y-64308100D01*
X142334700Y-64308100D02*
X141967500Y-64675300D01*
X141967500Y-64675300D02*
X139659000Y-64675300D01*
X139659000Y-64675300D02*
X123495900Y-80838400D01*
X123495900Y-80838400D02*
X119749200Y-80838400D01*
X119749200Y-80838400D02*
X108804600Y-91783000D01*
X108804600Y-91783000D02*
X105677800Y-91783000D01*
X105677800Y-91783000D02*
X98350200Y-99110600D01*
X98350200Y-99110600D02*
X98101400Y-99110600D01*
X143510000Y-63500000D02*
X142334700Y-63500000D01*
X96996900Y-95390000D02*
X96996900Y-97786100D01*
X96996900Y-97786100D02*
X96959500Y-97823500D01*
X139794700Y-63500000D02*
X125610000Y-77684700D01*
X125610000Y-77684700D02*
X102727000Y-77684700D01*
X102727000Y-77684700D02*
X97453300Y-82958400D01*
X97453300Y-82958400D02*
X97453300Y-94933600D01*
X97453300Y-94933600D02*
X96996900Y-95390000D01*
X140970000Y-63500000D02*
X139794700Y-63500000D01*
X95223100Y-90727100D02*
X94719700Y-90727100D01*
X94719700Y-90727100D02*
X85324400Y-100122400D01*
X85324400Y-100122400D02*
X85174300Y-100122400D01*
X88265000Y-62873000D02*
X91989600Y-66597600D01*
X91989600Y-66597600D02*
X91989600Y-90020100D01*
X91989600Y-90020100D02*
X92703900Y-90734400D01*
X92703900Y-90734400D02*
X93607200Y-90734400D01*
X92951600Y-62873000D02*
X92951600Y-89948300D01*
X93587700Y-98932900D02*
X96200100Y-101545300D01*
X96200100Y-101545300D02*
X96200100Y-132870800D01*
X96200100Y-132870800D02*
X97790000Y-134460700D01*
X97790000Y-135636000D02*
X97790000Y-134460700D01*
X95250000Y-134460700D02*
X95250000Y-103701400D01*
X95250000Y-103701400D02*
X92862400Y-101313800D01*
X92862400Y-101313800D02*
X92862400Y-97836900D01*
X92862400Y-97836900D02*
X92909300Y-97790000D01*
X95250000Y-135636000D02*
X95250000Y-134460700D01*
X92710000Y-134460700D02*
X92710000Y-103072000D01*
X92710000Y-103072000D02*
X91458500Y-101820500D01*
X91458500Y-101820500D02*
X91458500Y-97062400D01*
X92710000Y-135636000D02*
X92710000Y-134460700D01*
X90170000Y-134460700D02*
X91990000Y-132640700D01*
X91990000Y-132640700D02*
X91990000Y-105345300D01*
X91990000Y-105345300D02*
X90714700Y-104070000D01*
X90714700Y-104070000D02*
X90714700Y-96383300D01*
X90714700Y-96383300D02*
X90908000Y-96190000D01*
X90170000Y-135636000D02*
X90170000Y-134460700D01*
D16*
G36*
X108845000Y-59323000D02*
G01*
X108845000Y-59623000D01*
X109853000Y-59623000D01*
X109853000Y-59603000D01*
X110107000Y-59603000D01*
X110107000Y-59623000D01*
X111115000Y-59623000D01*
X111115000Y-59323000D01*
X111085005Y-59182000D01*
X117514995Y-59182000D01*
X117485000Y-59323000D01*
X117485000Y-59623000D01*
X118493000Y-59623000D01*
X118493000Y-59603000D01*
X118747000Y-59603000D01*
X118747000Y-59623000D01*
X119755000Y-59623000D01*
X119755000Y-59323000D01*
X119725005Y-59182000D01*
X149653264Y-59182000D01*
X152908000Y-62436736D01*
X152908000Y-144573264D01*
X149653264Y-147828000D01*
X137083000Y-147828000D01*
X137083000Y-134653647D01*
X137086314Y-134620000D01*
X137073088Y-134485717D01*
X137033919Y-134356594D01*
X136970312Y-134237593D01*
X136884711Y-134133289D01*
X136780407Y-134047688D01*
X136661406Y-133984081D01*
X136652000Y-133981228D01*
X136652000Y-128905000D01*
X136649560Y-128880224D01*
X136642333Y-128856399D01*
X136630597Y-128834443D01*
X136614803Y-128815197D01*
X136595557Y-128799403D01*
X136573601Y-128787667D01*
X136549776Y-128780440D01*
X136525000Y-128778000D01*
X126365000Y-128778000D01*
X126340224Y-128780440D01*
X126316399Y-128787667D01*
X126294443Y-128799403D01*
X126275197Y-128815197D01*
X126259403Y-128834443D01*
X126247667Y-128856399D01*
X126240440Y-128880224D01*
X126238000Y-128905000D01*
X126238000Y-147828000D01*
X78946736Y-147828000D01*
X75692000Y-144573264D01*
X75692000Y-140374000D01*
X79029928Y-140374000D01*
X79029928Y-142074000D01*
X79042188Y-142198482D01*
X79078498Y-142318180D01*
X79137463Y-142428494D01*
X79216815Y-142525185D01*
X79313506Y-142604537D01*
X79423820Y-142663502D01*
X79543518Y-142699812D01*
X79668000Y-142712072D01*
X81368000Y-142712072D01*
X81492482Y-142699812D01*
X81612180Y-142663502D01*
X81722494Y-142604537D01*
X81819185Y-142525185D01*
X81898537Y-142428494D01*
X81957502Y-142318180D01*
X81993812Y-142198482D01*
X82006072Y-142074000D01*
X82006072Y-140374000D01*
X81993812Y-140249518D01*
X81957502Y-140129820D01*
X81898537Y-140019506D01*
X81819185Y-139922815D01*
X81722494Y-139843463D01*
X81612180Y-139784498D01*
X81531534Y-139760034D01*
X81615588Y-139684269D01*
X81789641Y-139450920D01*
X81914825Y-139188099D01*
X81959476Y-139040890D01*
X81838155Y-138811000D01*
X80645000Y-138811000D01*
X80645000Y-138831000D01*
X80391000Y-138831000D01*
X80391000Y-138811000D01*
X79197845Y-138811000D01*
X79076524Y-139040890D01*
X79121175Y-139188099D01*
X79246359Y-139450920D01*
X79420412Y-139684269D01*
X79504466Y-139760034D01*
X79423820Y-139784498D01*
X79313506Y-139843463D01*
X79216815Y-139922815D01*
X79137463Y-140019506D01*
X79078498Y-140129820D01*
X79042188Y-140249518D01*
X79029928Y-140374000D01*
X75692000Y-140374000D01*
X75692000Y-133604000D01*
X79025815Y-133604000D01*
X79054487Y-133895111D01*
X79139401Y-134175034D01*
X79277294Y-134433014D01*
X79462866Y-134659134D01*
X79688986Y-134844706D01*
X79743791Y-134874000D01*
X79688986Y-134903294D01*
X79462866Y-135088866D01*
X79277294Y-135314986D01*
X79139401Y-135572966D01*
X79054487Y-135852889D01*
X79025815Y-136144000D01*
X79054487Y-136435111D01*
X79139401Y-136715034D01*
X79277294Y-136973014D01*
X79462866Y-137199134D01*
X79688986Y-137384706D01*
X79753523Y-137419201D01*
X79636645Y-137488822D01*
X79420412Y-137683731D01*
X79246359Y-137917080D01*
X79121175Y-138179901D01*
X79076524Y-138327110D01*
X79197845Y-138557000D01*
X80391000Y-138557000D01*
X80391000Y-138537000D01*
X80645000Y-138537000D01*
X80645000Y-138557000D01*
X81838155Y-138557000D01*
X81959476Y-138327110D01*
X81914825Y-138179901D01*
X81789641Y-137917080D01*
X81615588Y-137683731D01*
X81399355Y-137488822D01*
X81282477Y-137419201D01*
X81347014Y-137384706D01*
X81573134Y-137199134D01*
X81758706Y-136973014D01*
X81896599Y-136715034D01*
X81981513Y-136435111D01*
X82010185Y-136144000D01*
X81981513Y-135852889D01*
X81896599Y-135572966D01*
X81758706Y-135314986D01*
X81573134Y-135088866D01*
X81347014Y-134903294D01*
X81292209Y-134874000D01*
X81347014Y-134844706D01*
X81573134Y-134659134D01*
X81758706Y-134433014D01*
X81896599Y-134175034D01*
X81981513Y-133895111D01*
X82010185Y-133604000D01*
X81981513Y-133312889D01*
X81896599Y-133032966D01*
X81758706Y-132774986D01*
X81573134Y-132548866D01*
X81347014Y-132363294D01*
X81089034Y-132225401D01*
X80809111Y-132140487D01*
X80590950Y-132119000D01*
X80445050Y-132119000D01*
X80226889Y-132140487D01*
X79946966Y-132225401D01*
X79688986Y-132363294D01*
X79462866Y-132548866D01*
X79277294Y-132774986D01*
X79139401Y-133032966D01*
X79054487Y-133312889D01*
X79025815Y-133604000D01*
X75692000Y-133604000D01*
X75692000Y-126059652D01*
X79159100Y-126059652D01*
X79159100Y-126352348D01*
X79216202Y-126639421D01*
X79328212Y-126909838D01*
X79490826Y-127153206D01*
X79697794Y-127360174D01*
X79941162Y-127522788D01*
X80211579Y-127634798D01*
X80498652Y-127691900D01*
X80791348Y-127691900D01*
X81078421Y-127634798D01*
X81348838Y-127522788D01*
X81592206Y-127360174D01*
X81799174Y-127153206D01*
X81961788Y-126909838D01*
X82073798Y-126639421D01*
X82130900Y-126352348D01*
X82130900Y-126059652D01*
X82079451Y-125801000D01*
X82125279Y-125801000D01*
X82537756Y-125718953D01*
X82926302Y-125558012D01*
X83232708Y-125353279D01*
X83197127Y-125439178D01*
X83096100Y-125947076D01*
X83096100Y-126464924D01*
X83197127Y-126972822D01*
X83395299Y-127451251D01*
X83683000Y-127881826D01*
X84049174Y-128248000D01*
X84479749Y-128535701D01*
X84958178Y-128733873D01*
X85466076Y-128834900D01*
X85983924Y-128834900D01*
X86491822Y-128733873D01*
X86970251Y-128535701D01*
X87400826Y-128248000D01*
X87767000Y-127881826D01*
X88054701Y-127451251D01*
X88252873Y-126972822D01*
X88353900Y-126464924D01*
X88353900Y-125947076D01*
X88252873Y-125439178D01*
X88054701Y-124960749D01*
X87767000Y-124530174D01*
X87400826Y-124164000D01*
X86970251Y-123876299D01*
X86491822Y-123678127D01*
X85983924Y-123577100D01*
X85466076Y-123577100D01*
X84958178Y-123678127D01*
X84479749Y-123876299D01*
X84049174Y-124164000D01*
X83978763Y-124234411D01*
X84050000Y-123876279D01*
X84050000Y-123455721D01*
X83967953Y-123043244D01*
X83807012Y-122654698D01*
X83573363Y-122305017D01*
X83275983Y-122007637D01*
X82926302Y-121773988D01*
X82537756Y-121613047D01*
X82125279Y-121531000D01*
X81704721Y-121531000D01*
X81292244Y-121613047D01*
X80903698Y-121773988D01*
X80554017Y-122007637D01*
X80256637Y-122305017D01*
X80022988Y-122654698D01*
X79862047Y-123043244D01*
X79780000Y-123455721D01*
X79780000Y-123876279D01*
X79862047Y-124288756D01*
X80022988Y-124677302D01*
X80116150Y-124816730D01*
X79941162Y-124889212D01*
X79697794Y-125051826D01*
X79490826Y-125258794D01*
X79328212Y-125502162D01*
X79216202Y-125772579D01*
X79159100Y-126059652D01*
X75692000Y-126059652D01*
X75692000Y-120915721D01*
X86130000Y-120915721D01*
X86130000Y-121336279D01*
X86212047Y-121748756D01*
X86372988Y-122137302D01*
X86606637Y-122486983D01*
X86904017Y-122784363D01*
X87253698Y-123018012D01*
X87642244Y-123178953D01*
X88054721Y-123261000D01*
X88475279Y-123261000D01*
X88887756Y-123178953D01*
X89276302Y-123018012D01*
X89625983Y-122784363D01*
X89923363Y-122486983D01*
X90157012Y-122137302D01*
X90317953Y-121748756D01*
X90400000Y-121336279D01*
X90400000Y-120915721D01*
X90317953Y-120503244D01*
X90157012Y-120114698D01*
X89923363Y-119765017D01*
X89625983Y-119467637D01*
X89276302Y-119233988D01*
X88887756Y-119073047D01*
X88475279Y-118991000D01*
X88054721Y-118991000D01*
X87642244Y-119073047D01*
X87253698Y-119233988D01*
X86904017Y-119467637D01*
X86606637Y-119765017D01*
X86372988Y-120114698D01*
X86212047Y-120503244D01*
X86130000Y-120915721D01*
X75692000Y-120915721D01*
X75692000Y-112025721D01*
X81050000Y-112025721D01*
X81050000Y-112446279D01*
X81132047Y-112858756D01*
X81292988Y-113247302D01*
X81526637Y-113596983D01*
X81824017Y-113894363D01*
X82173698Y-114128012D01*
X82562244Y-114288953D01*
X82974721Y-114371000D01*
X83395279Y-114371000D01*
X83807756Y-114288953D01*
X84196302Y-114128012D01*
X84545983Y-113894363D01*
X84843363Y-113596983D01*
X85077012Y-113247302D01*
X85237953Y-112858756D01*
X85320000Y-112446279D01*
X85320000Y-112025721D01*
X85237953Y-111613244D01*
X85077012Y-111224698D01*
X84843363Y-110875017D01*
X84545983Y-110577637D01*
X84196302Y-110343988D01*
X83807756Y-110183047D01*
X83395279Y-110101000D01*
X82974721Y-110101000D01*
X82562244Y-110183047D01*
X82173698Y-110343988D01*
X81824017Y-110577637D01*
X81526637Y-110875017D01*
X81292988Y-111224698D01*
X81132047Y-111613244D01*
X81050000Y-112025721D01*
X75692000Y-112025721D01*
X75692000Y-107009652D01*
X79159100Y-107009652D01*
X79159100Y-107302348D01*
X79216202Y-107589421D01*
X79328212Y-107859838D01*
X79490826Y-108103206D01*
X79697794Y-108310174D01*
X79941162Y-108472788D01*
X80211579Y-108584798D01*
X80498652Y-108641900D01*
X80791348Y-108641900D01*
X81078421Y-108584798D01*
X81348838Y-108472788D01*
X81592206Y-108310174D01*
X81799174Y-108103206D01*
X81961788Y-107859838D01*
X82073798Y-107589421D01*
X82130900Y-107302348D01*
X82130900Y-107009652D01*
X82073798Y-106722579D01*
X81961788Y-106452162D01*
X81799174Y-106208794D01*
X81592206Y-106001826D01*
X81348838Y-105839212D01*
X81078421Y-105727202D01*
X80791348Y-105670100D01*
X80498652Y-105670100D01*
X80211579Y-105727202D01*
X79941162Y-105839212D01*
X79697794Y-106001826D01*
X79490826Y-106208794D01*
X79328212Y-106452162D01*
X79216202Y-106722579D01*
X79159100Y-107009652D01*
X75692000Y-107009652D01*
X75692000Y-87959852D01*
X79159100Y-87959852D01*
X79159100Y-88252548D01*
X79216202Y-88539621D01*
X79328212Y-88810038D01*
X79490826Y-89053406D01*
X79697794Y-89260374D01*
X79941162Y-89422988D01*
X80211579Y-89534998D01*
X80498652Y-89592100D01*
X80791348Y-89592100D01*
X81078421Y-89534998D01*
X81348838Y-89422988D01*
X81592206Y-89260374D01*
X81799174Y-89053406D01*
X81961788Y-88810038D01*
X82073798Y-88539621D01*
X82130900Y-88252548D01*
X82130900Y-87959852D01*
X82079451Y-87701200D01*
X82125279Y-87701200D01*
X82537756Y-87619153D01*
X82926302Y-87458212D01*
X83232708Y-87253479D01*
X83197127Y-87339378D01*
X83096100Y-87847276D01*
X83096100Y-88365124D01*
X83197127Y-88873022D01*
X83395299Y-89351451D01*
X83683000Y-89782026D01*
X84049174Y-90148200D01*
X84479749Y-90435901D01*
X84958178Y-90634073D01*
X85466076Y-90735100D01*
X85983924Y-90735100D01*
X86491822Y-90634073D01*
X86970251Y-90435901D01*
X87400826Y-90148200D01*
X87767000Y-89782026D01*
X88054701Y-89351451D01*
X88252873Y-88873022D01*
X88353900Y-88365124D01*
X88353900Y-87847276D01*
X88252873Y-87339378D01*
X88054701Y-86860949D01*
X87767000Y-86430374D01*
X87400826Y-86064200D01*
X86970251Y-85776499D01*
X86491822Y-85578327D01*
X85983924Y-85477300D01*
X85466076Y-85477300D01*
X84958178Y-85578327D01*
X84479749Y-85776499D01*
X84049174Y-86064200D01*
X83978763Y-86134611D01*
X84050000Y-85776479D01*
X84050000Y-85355921D01*
X83967953Y-84943444D01*
X83807012Y-84554898D01*
X83573363Y-84205217D01*
X83275983Y-83907837D01*
X82926302Y-83674188D01*
X82537756Y-83513247D01*
X82125279Y-83431200D01*
X81704721Y-83431200D01*
X81292244Y-83513247D01*
X80903698Y-83674188D01*
X80554017Y-83907837D01*
X80256637Y-84205217D01*
X80022988Y-84554898D01*
X79862047Y-84943444D01*
X79780000Y-85355921D01*
X79780000Y-85776479D01*
X79862047Y-86188956D01*
X80022988Y-86577502D01*
X80116150Y-86716930D01*
X79941162Y-86789412D01*
X79697794Y-86952026D01*
X79490826Y-87158994D01*
X79328212Y-87402362D01*
X79216202Y-87672779D01*
X79159100Y-87959852D01*
X75692000Y-87959852D01*
X75692000Y-82815921D01*
X86130000Y-82815921D01*
X86130000Y-83236479D01*
X86212047Y-83648956D01*
X86372988Y-84037502D01*
X86606637Y-84387183D01*
X86904017Y-84684563D01*
X87253698Y-84918212D01*
X87642244Y-85079153D01*
X88054721Y-85161200D01*
X88475279Y-85161200D01*
X88887756Y-85079153D01*
X89276302Y-84918212D01*
X89625983Y-84684563D01*
X89923363Y-84387183D01*
X90157012Y-84037502D01*
X90317953Y-83648956D01*
X90400000Y-83236479D01*
X90400000Y-82815921D01*
X90317953Y-82403444D01*
X90157012Y-82014898D01*
X89923363Y-81665217D01*
X89625983Y-81367837D01*
X89276302Y-81134188D01*
X88887756Y-80973247D01*
X88475279Y-80891200D01*
X88054721Y-80891200D01*
X87642244Y-80973247D01*
X87253698Y-81134188D01*
X86904017Y-81367837D01*
X86606637Y-81665217D01*
X86372988Y-82014898D01*
X86212047Y-82403444D01*
X86130000Y-82815921D01*
X75692000Y-82815921D01*
X75692000Y-73925921D01*
X81050000Y-73925921D01*
X81050000Y-74346479D01*
X81132047Y-74758956D01*
X81292988Y-75147502D01*
X81526637Y-75497183D01*
X81824017Y-75794563D01*
X82173698Y-76028212D01*
X82562244Y-76189153D01*
X82974721Y-76271200D01*
X83395279Y-76271200D01*
X83807756Y-76189153D01*
X84196302Y-76028212D01*
X84545983Y-75794563D01*
X84843363Y-75497183D01*
X85077012Y-75147502D01*
X85237953Y-74758956D01*
X85320000Y-74346479D01*
X85320000Y-73925921D01*
X85237953Y-73513444D01*
X85077012Y-73124898D01*
X84843363Y-72775217D01*
X84545983Y-72477837D01*
X84196302Y-72244188D01*
X83807756Y-72083247D01*
X83395279Y-72001200D01*
X82974721Y-72001200D01*
X82562244Y-72083247D01*
X82173698Y-72244188D01*
X81824017Y-72477837D01*
X81526637Y-72775217D01*
X81292988Y-73124898D01*
X81132047Y-73513444D01*
X81050000Y-73925921D01*
X75692000Y-73925921D01*
X75692000Y-68909852D01*
X79159100Y-68909852D01*
X79159100Y-69202548D01*
X79216202Y-69489621D01*
X79328212Y-69760038D01*
X79490826Y-70003406D01*
X79697794Y-70210374D01*
X79941162Y-70372988D01*
X80211579Y-70484998D01*
X80498652Y-70542100D01*
X80791348Y-70542100D01*
X81078421Y-70484998D01*
X81348838Y-70372988D01*
X81592206Y-70210374D01*
X81799174Y-70003406D01*
X81961788Y-69760038D01*
X82073798Y-69489621D01*
X82130900Y-69202548D01*
X82130900Y-68909852D01*
X82108508Y-68797276D01*
X83096100Y-68797276D01*
X83096100Y-69315124D01*
X83197127Y-69823022D01*
X83395299Y-70301451D01*
X83683000Y-70732026D01*
X84049174Y-71098200D01*
X84479749Y-71385901D01*
X84958178Y-71584073D01*
X85466076Y-71685100D01*
X85983924Y-71685100D01*
X86491822Y-71584073D01*
X86970251Y-71385901D01*
X87400826Y-71098200D01*
X87471237Y-71027789D01*
X87400000Y-71385921D01*
X87400000Y-71806479D01*
X87482047Y-72218956D01*
X87642988Y-72607502D01*
X87876637Y-72957183D01*
X88174017Y-73254563D01*
X88523698Y-73488212D01*
X88912244Y-73649153D01*
X89324721Y-73731200D01*
X89745279Y-73731200D01*
X90157756Y-73649153D01*
X90546302Y-73488212D01*
X90895983Y-73254563D01*
X91193363Y-72957183D01*
X91229600Y-72902950D01*
X91229601Y-86675648D01*
X90951348Y-86620300D01*
X90658652Y-86620300D01*
X90371579Y-86677402D01*
X90101162Y-86789412D01*
X89857794Y-86952026D01*
X89650826Y-87158994D01*
X89488212Y-87402362D01*
X89376202Y-87672779D01*
X89319100Y-87959852D01*
X89319100Y-88252548D01*
X89376202Y-88539621D01*
X89488212Y-88810038D01*
X89650826Y-89053406D01*
X89857794Y-89260374D01*
X90101162Y-89422988D01*
X90371579Y-89534998D01*
X90658652Y-89592100D01*
X90951348Y-89592100D01*
X91229601Y-89536752D01*
X91229601Y-89982767D01*
X91225924Y-90020100D01*
X91229601Y-90057433D01*
X91240598Y-90169086D01*
X91253780Y-90212542D01*
X91284054Y-90312346D01*
X91354626Y-90444376D01*
X91390675Y-90488301D01*
X91449600Y-90560101D01*
X91478598Y-90583899D01*
X92140101Y-91245402D01*
X92163899Y-91274401D01*
X92279624Y-91369374D01*
X92411653Y-91439946D01*
X92554914Y-91483403D01*
X92666567Y-91494400D01*
X92666575Y-91494400D01*
X92703900Y-91498076D01*
X92741225Y-91494400D01*
X92877598Y-91494400D01*
X85283212Y-99088787D01*
X85276239Y-99087400D01*
X85072361Y-99087400D01*
X84872402Y-99127174D01*
X84684044Y-99205195D01*
X84514526Y-99318463D01*
X84370363Y-99462626D01*
X84257095Y-99632144D01*
X84179074Y-99820502D01*
X84139300Y-100020461D01*
X84139300Y-100224339D01*
X84179074Y-100424298D01*
X84257095Y-100612656D01*
X84370363Y-100782174D01*
X84514526Y-100926337D01*
X84684044Y-101039605D01*
X84872402Y-101117626D01*
X85072361Y-101157400D01*
X85276239Y-101157400D01*
X85476198Y-101117626D01*
X85664556Y-101039605D01*
X85834074Y-100926337D01*
X85978237Y-100782174D01*
X86091505Y-100612656D01*
X86169526Y-100424298D01*
X86187459Y-100334142D01*
X89947022Y-96574579D01*
X89954701Y-96593118D01*
X89954700Y-104032678D01*
X89951024Y-104070000D01*
X89954700Y-104107322D01*
X89954700Y-104107332D01*
X89965697Y-104218985D01*
X89980722Y-104268515D01*
X90009154Y-104362246D01*
X90079726Y-104494276D01*
X90119571Y-104542826D01*
X90174699Y-104610001D01*
X90203703Y-104633804D01*
X91230001Y-105660103D01*
X91230001Y-105725527D01*
X90951348Y-105670100D01*
X90658652Y-105670100D01*
X90371579Y-105727202D01*
X90101162Y-105839212D01*
X89857794Y-106001826D01*
X89650826Y-106208794D01*
X89488212Y-106452162D01*
X89376202Y-106722579D01*
X89319100Y-107009652D01*
X89319100Y-107302348D01*
X89370549Y-107561000D01*
X89324721Y-107561000D01*
X88912244Y-107643047D01*
X88523698Y-107803988D01*
X88217292Y-108008721D01*
X88252873Y-107922822D01*
X88353900Y-107414924D01*
X88353900Y-106897076D01*
X88252873Y-106389178D01*
X88054701Y-105910749D01*
X87767000Y-105480174D01*
X87400826Y-105114000D01*
X86970251Y-104826299D01*
X86491822Y-104628127D01*
X85983924Y-104527100D01*
X85466076Y-104527100D01*
X84958178Y-104628127D01*
X84479749Y-104826299D01*
X84049174Y-105114000D01*
X83683000Y-105480174D01*
X83395299Y-105910749D01*
X83197127Y-106389178D01*
X83096100Y-106897076D01*
X83096100Y-107414924D01*
X83197127Y-107922822D01*
X83395299Y-108401251D01*
X83683000Y-108831826D01*
X84049174Y-109198000D01*
X84479749Y-109485701D01*
X84958178Y-109683873D01*
X85466076Y-109784900D01*
X85983924Y-109784900D01*
X86491822Y-109683873D01*
X86970251Y-109485701D01*
X87400826Y-109198000D01*
X87471237Y-109127589D01*
X87400000Y-109485721D01*
X87400000Y-109906279D01*
X87482047Y-110318756D01*
X87642988Y-110707302D01*
X87876637Y-111056983D01*
X88174017Y-111354363D01*
X88523698Y-111588012D01*
X88912244Y-111748953D01*
X89324721Y-111831000D01*
X89745279Y-111831000D01*
X90157756Y-111748953D01*
X90546302Y-111588012D01*
X90895983Y-111354363D01*
X91193363Y-111056983D01*
X91230001Y-111002151D01*
X91230000Y-124775527D01*
X90951348Y-124720100D01*
X90658652Y-124720100D01*
X90371579Y-124777202D01*
X90101162Y-124889212D01*
X89857794Y-125051826D01*
X89650826Y-125258794D01*
X89488212Y-125502162D01*
X89376202Y-125772579D01*
X89319100Y-126059652D01*
X89319100Y-126352348D01*
X89376202Y-126639421D01*
X89488212Y-126909838D01*
X89650826Y-127153206D01*
X89857794Y-127360174D01*
X90101162Y-127522788D01*
X90371579Y-127634798D01*
X90658652Y-127691900D01*
X90951348Y-127691900D01*
X91230000Y-127636473D01*
X91230000Y-132325898D01*
X89658998Y-133896901D01*
X89630000Y-133920699D01*
X89606202Y-133949697D01*
X89606201Y-133949698D01*
X89535026Y-134036424D01*
X89475425Y-134147928D01*
X89320000Y-134147928D01*
X89195518Y-134160188D01*
X89075820Y-134196498D01*
X88965506Y-134255463D01*
X88868815Y-134334815D01*
X88789463Y-134431506D01*
X88730498Y-134541820D01*
X88694188Y-134661518D01*
X88681928Y-134786000D01*
X88681928Y-136486000D01*
X88694188Y-136610482D01*
X88730498Y-136730180D01*
X88789463Y-136840494D01*
X88868815Y-136937185D01*
X88965506Y-137016537D01*
X89075820Y-137075502D01*
X89195518Y-137111812D01*
X89320000Y-137124072D01*
X91020000Y-137124072D01*
X91144482Y-137111812D01*
X91264180Y-137075502D01*
X91374494Y-137016537D01*
X91471185Y-136937185D01*
X91550537Y-136840494D01*
X91609502Y-136730180D01*
X91630393Y-136661313D01*
X91654866Y-136691134D01*
X91880986Y-136876706D01*
X92138966Y-137014599D01*
X92418889Y-137099513D01*
X92637050Y-137121000D01*
X92782950Y-137121000D01*
X93001111Y-137099513D01*
X93281034Y-137014599D01*
X93539014Y-136876706D01*
X93765134Y-136691134D01*
X93950706Y-136465014D01*
X93980000Y-136410209D01*
X94009294Y-136465014D01*
X94194866Y-136691134D01*
X94420986Y-136876706D01*
X94678966Y-137014599D01*
X94958889Y-137099513D01*
X95177050Y-137121000D01*
X95322950Y-137121000D01*
X95541111Y-137099513D01*
X95821034Y-137014599D01*
X96079014Y-136876706D01*
X96305134Y-136691134D01*
X96490706Y-136465014D01*
X96520000Y-136410209D01*
X96549294Y-136465014D01*
X96734866Y-136691134D01*
X96960986Y-136876706D01*
X97218966Y-137014599D01*
X97498889Y-137099513D01*
X97717050Y-137121000D01*
X97862950Y-137121000D01*
X98081111Y-137099513D01*
X98355200Y-137016369D01*
X98355201Y-141846788D01*
X98311263Y-141890726D01*
X98197995Y-142060244D01*
X98119974Y-142248602D01*
X98080200Y-142448561D01*
X98080200Y-142652439D01*
X98119974Y-142852398D01*
X98197995Y-143040756D01*
X98311263Y-143210274D01*
X98455426Y-143354437D01*
X98624944Y-143467705D01*
X98813302Y-143545726D01*
X99013261Y-143585500D01*
X99217139Y-143585500D01*
X99417098Y-143545726D01*
X99605456Y-143467705D01*
X99774974Y-143354437D01*
X99919137Y-143210274D01*
X100032405Y-143040756D01*
X100110426Y-142852398D01*
X100150200Y-142652439D01*
X100150200Y-142448561D01*
X100110426Y-142248602D01*
X100032405Y-142060244D01*
X99919137Y-141890726D01*
X99875200Y-141846789D01*
X99875200Y-133209723D01*
X99878876Y-133172400D01*
X99875200Y-133135077D01*
X99875200Y-133135067D01*
X99864203Y-133023414D01*
X99820746Y-132880153D01*
X99750174Y-132748124D01*
X99655201Y-132632399D01*
X99626204Y-132608602D01*
X99225200Y-132207599D01*
X99225200Y-127619729D01*
X99261579Y-127634798D01*
X99548652Y-127691900D01*
X99841348Y-127691900D01*
X100128421Y-127634798D01*
X100398838Y-127522788D01*
X100642206Y-127360174D01*
X100849174Y-127153206D01*
X101011788Y-126909838D01*
X101123798Y-126639421D01*
X101180900Y-126352348D01*
X101180900Y-126059652D01*
X101129451Y-125801000D01*
X101175279Y-125801000D01*
X101587756Y-125718953D01*
X101976302Y-125558012D01*
X102282708Y-125353279D01*
X102247127Y-125439178D01*
X102146100Y-125947076D01*
X102146100Y-126464924D01*
X102247127Y-126972822D01*
X102445299Y-127451251D01*
X102733000Y-127881826D01*
X103099174Y-128248000D01*
X103529749Y-128535701D01*
X104008178Y-128733873D01*
X104516076Y-128834900D01*
X105033924Y-128834900D01*
X105541822Y-128733873D01*
X106020251Y-128535701D01*
X106450826Y-128248000D01*
X106817000Y-127881826D01*
X107104701Y-127451251D01*
X107302873Y-126972822D01*
X107403900Y-126464924D01*
X107403900Y-126059652D01*
X108369100Y-126059652D01*
X108369100Y-126352348D01*
X108426202Y-126639421D01*
X108538212Y-126909838D01*
X108700826Y-127153206D01*
X108907794Y-127360174D01*
X109151162Y-127522788D01*
X109421579Y-127634798D01*
X109708652Y-127691900D01*
X110001348Y-127691900D01*
X110288421Y-127634798D01*
X110558838Y-127522788D01*
X110802206Y-127360174D01*
X111009174Y-127153206D01*
X111171788Y-126909838D01*
X111283798Y-126639421D01*
X111340900Y-126352348D01*
X111340900Y-126059652D01*
X111283798Y-125772579D01*
X111171788Y-125502162D01*
X111009174Y-125258794D01*
X110802206Y-125051826D01*
X110558838Y-124889212D01*
X110288421Y-124777202D01*
X110001348Y-124720100D01*
X109708652Y-124720100D01*
X109421579Y-124777202D01*
X109151162Y-124889212D01*
X108907794Y-125051826D01*
X108700826Y-125258794D01*
X108538212Y-125502162D01*
X108426202Y-125772579D01*
X108369100Y-126059652D01*
X107403900Y-126059652D01*
X107403900Y-125947076D01*
X107302873Y-125439178D01*
X107104701Y-124960749D01*
X106817000Y-124530174D01*
X106450826Y-124164000D01*
X106020251Y-123876299D01*
X105541822Y-123678127D01*
X105033924Y-123577100D01*
X104516076Y-123577100D01*
X104008178Y-123678127D01*
X103529749Y-123876299D01*
X103099174Y-124164000D01*
X103028763Y-124234411D01*
X103100000Y-123876279D01*
X103100000Y-123455721D01*
X103017953Y-123043244D01*
X102857012Y-122654698D01*
X102623363Y-122305017D01*
X102325983Y-122007637D01*
X101976302Y-121773988D01*
X101587756Y-121613047D01*
X101175279Y-121531000D01*
X100754721Y-121531000D01*
X100342244Y-121613047D01*
X99953698Y-121773988D01*
X99604017Y-122007637D01*
X99306637Y-122305017D01*
X99225200Y-122426896D01*
X99225200Y-120915721D01*
X105180000Y-120915721D01*
X105180000Y-121336279D01*
X105262047Y-121748756D01*
X105422988Y-122137302D01*
X105656637Y-122486983D01*
X105954017Y-122784363D01*
X106303698Y-123018012D01*
X106692244Y-123178953D01*
X107104721Y-123261000D01*
X107525279Y-123261000D01*
X107937756Y-123178953D01*
X108326302Y-123018012D01*
X108675983Y-122784363D01*
X108973363Y-122486983D01*
X109207012Y-122137302D01*
X109367953Y-121748756D01*
X109450000Y-121336279D01*
X109450000Y-120915721D01*
X109367953Y-120503244D01*
X109207012Y-120114698D01*
X108973363Y-119765017D01*
X108675983Y-119467637D01*
X108326302Y-119233988D01*
X107937756Y-119073047D01*
X107525279Y-118991000D01*
X107104721Y-118991000D01*
X106692244Y-119073047D01*
X106303698Y-119233988D01*
X105954017Y-119467637D01*
X105656637Y-119765017D01*
X105422988Y-120114698D01*
X105262047Y-120503244D01*
X105180000Y-120915721D01*
X99225200Y-120915721D01*
X99225200Y-112025721D01*
X100100000Y-112025721D01*
X100100000Y-112446279D01*
X100182047Y-112858756D01*
X100342988Y-113247302D01*
X100576637Y-113596983D01*
X100874017Y-113894363D01*
X101223698Y-114128012D01*
X101612244Y-114288953D01*
X102024721Y-114371000D01*
X102445279Y-114371000D01*
X102857756Y-114288953D01*
X103246302Y-114128012D01*
X103595983Y-113894363D01*
X103893363Y-113596983D01*
X104127012Y-113247302D01*
X104287953Y-112858756D01*
X104370000Y-112446279D01*
X104370000Y-112025721D01*
X104287953Y-111613244D01*
X104127012Y-111224698D01*
X103893363Y-110875017D01*
X103595983Y-110577637D01*
X103246302Y-110343988D01*
X102857756Y-110183047D01*
X102445279Y-110101000D01*
X102024721Y-110101000D01*
X101612244Y-110183047D01*
X101223698Y-110343988D01*
X100874017Y-110577637D01*
X100576637Y-110875017D01*
X100342988Y-111224698D01*
X100182047Y-111613244D01*
X100100000Y-112025721D01*
X99225200Y-112025721D01*
X99225200Y-108569729D01*
X99261579Y-108584798D01*
X99548652Y-108641900D01*
X99841348Y-108641900D01*
X100128421Y-108584798D01*
X100398838Y-108472788D01*
X100642206Y-108310174D01*
X100849174Y-108103206D01*
X101011788Y-107859838D01*
X101051023Y-107765117D01*
X101092426Y-107842576D01*
X101132271Y-107891126D01*
X101187399Y-107958301D01*
X101216403Y-107982104D01*
X115885301Y-122651003D01*
X115885300Y-144572389D01*
X115841363Y-144616326D01*
X115728095Y-144785844D01*
X115650074Y-144974202D01*
X115610300Y-145174161D01*
X115610300Y-145378039D01*
X115650074Y-145577998D01*
X115728095Y-145766356D01*
X115841363Y-145935874D01*
X115985526Y-146080037D01*
X116155044Y-146193305D01*
X116343402Y-146271326D01*
X116543361Y-146311100D01*
X116747239Y-146311100D01*
X116947198Y-146271326D01*
X117135556Y-146193305D01*
X117305074Y-146080037D01*
X117449237Y-145935874D01*
X117562505Y-145766356D01*
X117640526Y-145577998D01*
X117680300Y-145378039D01*
X117680300Y-145174161D01*
X117640526Y-144974202D01*
X117562505Y-144785844D01*
X117449237Y-144616326D01*
X117405300Y-144572389D01*
X117405300Y-126854523D01*
X117428212Y-126909838D01*
X117590826Y-127153206D01*
X117797794Y-127360174D01*
X118041162Y-127522788D01*
X118311579Y-127634798D01*
X118598652Y-127691900D01*
X118891348Y-127691900D01*
X119178421Y-127634798D01*
X119448838Y-127522788D01*
X119692206Y-127360174D01*
X119899174Y-127153206D01*
X120061788Y-126909838D01*
X120173798Y-126639421D01*
X120230900Y-126352348D01*
X120230900Y-126059652D01*
X120179451Y-125801000D01*
X120225279Y-125801000D01*
X120637756Y-125718953D01*
X121026302Y-125558012D01*
X121332708Y-125353279D01*
X121297127Y-125439178D01*
X121196100Y-125947076D01*
X121196100Y-126464924D01*
X121297127Y-126972822D01*
X121495299Y-127451251D01*
X121783000Y-127881826D01*
X122149174Y-128248000D01*
X122579749Y-128535701D01*
X123058178Y-128733873D01*
X123566076Y-128834900D01*
X124083924Y-128834900D01*
X124591822Y-128733873D01*
X125070251Y-128535701D01*
X125500826Y-128248000D01*
X125867000Y-127881826D01*
X126154701Y-127451251D01*
X126352873Y-126972822D01*
X126453900Y-126464924D01*
X126453900Y-126059652D01*
X127419100Y-126059652D01*
X127419100Y-126352348D01*
X127476202Y-126639421D01*
X127588212Y-126909838D01*
X127750826Y-127153206D01*
X127957794Y-127360174D01*
X128201162Y-127522788D01*
X128471579Y-127634798D01*
X128758652Y-127691900D01*
X129051348Y-127691900D01*
X129338421Y-127634798D01*
X129608838Y-127522788D01*
X129852206Y-127360174D01*
X130059174Y-127153206D01*
X130221788Y-126909838D01*
X130333798Y-126639421D01*
X130390900Y-126352348D01*
X130390900Y-126059652D01*
X136309100Y-126059652D01*
X136309100Y-126352348D01*
X136366202Y-126639421D01*
X136478212Y-126909838D01*
X136640826Y-127153206D01*
X136847794Y-127360174D01*
X137091162Y-127522788D01*
X137361579Y-127634798D01*
X137648652Y-127691900D01*
X137941348Y-127691900D01*
X138228421Y-127634798D01*
X138498838Y-127522788D01*
X138742206Y-127360174D01*
X138949174Y-127153206D01*
X139111788Y-126909838D01*
X139223798Y-126639421D01*
X139280900Y-126352348D01*
X139280900Y-126059652D01*
X139229451Y-125801000D01*
X139275279Y-125801000D01*
X139687756Y-125718953D01*
X140076302Y-125558012D01*
X140382708Y-125353279D01*
X140347127Y-125439178D01*
X140246100Y-125947076D01*
X140246100Y-126464924D01*
X140347127Y-126972822D01*
X140545299Y-127451251D01*
X140833000Y-127881826D01*
X141199174Y-128248000D01*
X141629749Y-128535701D01*
X142108178Y-128733873D01*
X142616076Y-128834900D01*
X143133924Y-128834900D01*
X143641822Y-128733873D01*
X144120251Y-128535701D01*
X144550826Y-128248000D01*
X144917000Y-127881826D01*
X145204701Y-127451251D01*
X145402873Y-126972822D01*
X145503900Y-126464924D01*
X145503900Y-126059652D01*
X146469100Y-126059652D01*
X146469100Y-126352348D01*
X146526202Y-126639421D01*
X146638212Y-126909838D01*
X146800826Y-127153206D01*
X147007794Y-127360174D01*
X147251162Y-127522788D01*
X147521579Y-127634798D01*
X147808652Y-127691900D01*
X148101348Y-127691900D01*
X148388421Y-127634798D01*
X148658838Y-127522788D01*
X148902206Y-127360174D01*
X149109174Y-127153206D01*
X149271788Y-126909838D01*
X149383798Y-126639421D01*
X149440900Y-126352348D01*
X149440900Y-126059652D01*
X149383798Y-125772579D01*
X149271788Y-125502162D01*
X149109174Y-125258794D01*
X148902206Y-125051826D01*
X148658838Y-124889212D01*
X148388421Y-124777202D01*
X148101348Y-124720100D01*
X147808652Y-124720100D01*
X147521579Y-124777202D01*
X147251162Y-124889212D01*
X147007794Y-125051826D01*
X146800826Y-125258794D01*
X146638212Y-125502162D01*
X146526202Y-125772579D01*
X146469100Y-126059652D01*
X145503900Y-126059652D01*
X145503900Y-125947076D01*
X145402873Y-125439178D01*
X145204701Y-124960749D01*
X144917000Y-124530174D01*
X144550826Y-124164000D01*
X144120251Y-123876299D01*
X143641822Y-123678127D01*
X143133924Y-123577100D01*
X142616076Y-123577100D01*
X142108178Y-123678127D01*
X141629749Y-123876299D01*
X141199174Y-124164000D01*
X141128763Y-124234411D01*
X141200000Y-123876279D01*
X141200000Y-123455721D01*
X141117953Y-123043244D01*
X140957012Y-122654698D01*
X140723363Y-122305017D01*
X140425983Y-122007637D01*
X140076302Y-121773988D01*
X139687756Y-121613047D01*
X139275279Y-121531000D01*
X138854721Y-121531000D01*
X138442244Y-121613047D01*
X138053698Y-121773988D01*
X137704017Y-122007637D01*
X137406637Y-122305017D01*
X137172988Y-122654698D01*
X137012047Y-123043244D01*
X136930000Y-123455721D01*
X136930000Y-123876279D01*
X137012047Y-124288756D01*
X137172988Y-124677302D01*
X137266150Y-124816730D01*
X137091162Y-124889212D01*
X136847794Y-125051826D01*
X136640826Y-125258794D01*
X136478212Y-125502162D01*
X136366202Y-125772579D01*
X136309100Y-126059652D01*
X130390900Y-126059652D01*
X130333798Y-125772579D01*
X130221788Y-125502162D01*
X130059174Y-125258794D01*
X129852206Y-125051826D01*
X129608838Y-124889212D01*
X129338421Y-124777202D01*
X129051348Y-124720100D01*
X128758652Y-124720100D01*
X128471579Y-124777202D01*
X128201162Y-124889212D01*
X127957794Y-125051826D01*
X127750826Y-125258794D01*
X127588212Y-125502162D01*
X127476202Y-125772579D01*
X127419100Y-126059652D01*
X126453900Y-126059652D01*
X126453900Y-125947076D01*
X126352873Y-125439178D01*
X126154701Y-124960749D01*
X125867000Y-124530174D01*
X125500826Y-124164000D01*
X125070251Y-123876299D01*
X124591822Y-123678127D01*
X124083924Y-123577100D01*
X123566076Y-123577100D01*
X123058178Y-123678127D01*
X122579749Y-123876299D01*
X122149174Y-124164000D01*
X122078763Y-124234411D01*
X122150000Y-123876279D01*
X122150000Y-123455721D01*
X122067953Y-123043244D01*
X121907012Y-122654698D01*
X121673363Y-122305017D01*
X121375983Y-122007637D01*
X121026302Y-121773988D01*
X120637756Y-121613047D01*
X120225279Y-121531000D01*
X119804721Y-121531000D01*
X119392244Y-121613047D01*
X119003698Y-121773988D01*
X118654017Y-122007637D01*
X118356637Y-122305017D01*
X118122988Y-122654698D01*
X117962047Y-123043244D01*
X117880000Y-123455721D01*
X117880000Y-123876279D01*
X117962047Y-124288756D01*
X118122988Y-124677302D01*
X118216150Y-124816730D01*
X118041162Y-124889212D01*
X117797794Y-125051826D01*
X117590826Y-125258794D01*
X117428212Y-125502162D01*
X117405300Y-125557477D01*
X117405300Y-122373533D01*
X117408977Y-122336200D01*
X117394303Y-122187214D01*
X117350846Y-122043953D01*
X117280274Y-121911924D01*
X117209099Y-121825197D01*
X117185301Y-121796199D01*
X117156303Y-121772401D01*
X116299623Y-120915721D01*
X124230000Y-120915721D01*
X124230000Y-121336279D01*
X124312047Y-121748756D01*
X124472988Y-122137302D01*
X124706637Y-122486983D01*
X125004017Y-122784363D01*
X125353698Y-123018012D01*
X125742244Y-123178953D01*
X126154721Y-123261000D01*
X126575279Y-123261000D01*
X126987756Y-123178953D01*
X127376302Y-123018012D01*
X127725983Y-122784363D01*
X128023363Y-122486983D01*
X128257012Y-122137302D01*
X128417953Y-121748756D01*
X128500000Y-121336279D01*
X128500000Y-120915721D01*
X143280000Y-120915721D01*
X143280000Y-121336279D01*
X143362047Y-121748756D01*
X143522988Y-122137302D01*
X143756637Y-122486983D01*
X144054017Y-122784363D01*
X144403698Y-123018012D01*
X144792244Y-123178953D01*
X145204721Y-123261000D01*
X145625279Y-123261000D01*
X146037756Y-123178953D01*
X146426302Y-123018012D01*
X146775983Y-122784363D01*
X147073363Y-122486983D01*
X147307012Y-122137302D01*
X147467953Y-121748756D01*
X147550000Y-121336279D01*
X147550000Y-120915721D01*
X147467953Y-120503244D01*
X147307012Y-120114698D01*
X147073363Y-119765017D01*
X146775983Y-119467637D01*
X146426302Y-119233988D01*
X146037756Y-119073047D01*
X145625279Y-118991000D01*
X145204721Y-118991000D01*
X144792244Y-119073047D01*
X144403698Y-119233988D01*
X144054017Y-119467637D01*
X143756637Y-119765017D01*
X143522988Y-120114698D01*
X143362047Y-120503244D01*
X143280000Y-120915721D01*
X128500000Y-120915721D01*
X128417953Y-120503244D01*
X128257012Y-120114698D01*
X128023363Y-119765017D01*
X127725983Y-119467637D01*
X127376302Y-119233988D01*
X126987756Y-119073047D01*
X126575279Y-118991000D01*
X126154721Y-118991000D01*
X125742244Y-119073047D01*
X125353698Y-119233988D01*
X125004017Y-119467637D01*
X124706637Y-119765017D01*
X124472988Y-120114698D01*
X124312047Y-120503244D01*
X124230000Y-120915721D01*
X116299623Y-120915721D01*
X107409623Y-112025721D01*
X119150000Y-112025721D01*
X119150000Y-112446279D01*
X119232047Y-112858756D01*
X119392988Y-113247302D01*
X119626637Y-113596983D01*
X119924017Y-113894363D01*
X120273698Y-114128012D01*
X120662244Y-114288953D01*
X121074721Y-114371000D01*
X121495279Y-114371000D01*
X121907756Y-114288953D01*
X122296302Y-114128012D01*
X122645983Y-113894363D01*
X122943363Y-113596983D01*
X123177012Y-113247302D01*
X123337953Y-112858756D01*
X123420000Y-112446279D01*
X123420000Y-112025721D01*
X138200000Y-112025721D01*
X138200000Y-112446279D01*
X138282047Y-112858756D01*
X138442988Y-113247302D01*
X138676637Y-113596983D01*
X138974017Y-113894363D01*
X139323698Y-114128012D01*
X139712244Y-114288953D01*
X140124721Y-114371000D01*
X140545279Y-114371000D01*
X140957756Y-114288953D01*
X141346302Y-114128012D01*
X141695983Y-113894363D01*
X141993363Y-113596983D01*
X142227012Y-113247302D01*
X142387953Y-112858756D01*
X142470000Y-112446279D01*
X142470000Y-112025721D01*
X142387953Y-111613244D01*
X142227012Y-111224698D01*
X141993363Y-110875017D01*
X141695983Y-110577637D01*
X141346302Y-110343988D01*
X140957756Y-110183047D01*
X140545279Y-110101000D01*
X140124721Y-110101000D01*
X139712244Y-110183047D01*
X139323698Y-110343988D01*
X138974017Y-110577637D01*
X138676637Y-110875017D01*
X138442988Y-111224698D01*
X138282047Y-111613244D01*
X138200000Y-112025721D01*
X123420000Y-112025721D01*
X123337953Y-111613244D01*
X123177012Y-111224698D01*
X122943363Y-110875017D01*
X122645983Y-110577637D01*
X122296302Y-110343988D01*
X121907756Y-110183047D01*
X121495279Y-110101000D01*
X121074721Y-110101000D01*
X120662244Y-110183047D01*
X120273698Y-110343988D01*
X119924017Y-110577637D01*
X119626637Y-110875017D01*
X119392988Y-111224698D01*
X119232047Y-111613244D01*
X119150000Y-112025721D01*
X107409623Y-112025721D01*
X105146424Y-109762522D01*
X105541822Y-109683873D01*
X106020251Y-109485701D01*
X106450826Y-109198000D01*
X106521237Y-109127589D01*
X106450000Y-109485721D01*
X106450000Y-109906279D01*
X106532047Y-110318756D01*
X106692988Y-110707302D01*
X106926637Y-111056983D01*
X107224017Y-111354363D01*
X107573698Y-111588012D01*
X107962244Y-111748953D01*
X108374721Y-111831000D01*
X108795279Y-111831000D01*
X109207756Y-111748953D01*
X109596302Y-111588012D01*
X109945983Y-111354363D01*
X110243363Y-111056983D01*
X110477012Y-110707302D01*
X110637953Y-110318756D01*
X110720000Y-109906279D01*
X110720000Y-109485721D01*
X110637953Y-109073244D01*
X110477012Y-108684698D01*
X110383850Y-108545270D01*
X110558838Y-108472788D01*
X110802206Y-108310174D01*
X111009174Y-108103206D01*
X111171788Y-107859838D01*
X111283798Y-107589421D01*
X111340900Y-107302348D01*
X111340900Y-107009652D01*
X111283798Y-106722579D01*
X111171788Y-106452162D01*
X111009174Y-106208794D01*
X110802206Y-106001826D01*
X110558838Y-105839212D01*
X110288421Y-105727202D01*
X110001348Y-105670100D01*
X109708652Y-105670100D01*
X109421579Y-105727202D01*
X109151162Y-105839212D01*
X108907794Y-106001826D01*
X108700826Y-106208794D01*
X108538212Y-106452162D01*
X108426202Y-106722579D01*
X108369100Y-107009652D01*
X108369100Y-107302348D01*
X108420549Y-107561000D01*
X108374721Y-107561000D01*
X107962244Y-107643047D01*
X107573698Y-107803988D01*
X107267292Y-108008721D01*
X107302873Y-107922822D01*
X107403900Y-107414924D01*
X107403900Y-106897076D01*
X107302873Y-106389178D01*
X107104701Y-105910749D01*
X106817000Y-105480174D01*
X106450826Y-105114000D01*
X106020251Y-104826299D01*
X105541822Y-104628127D01*
X105033924Y-104527100D01*
X104516076Y-104527100D01*
X104008178Y-104628127D01*
X103529749Y-104826299D01*
X103099174Y-105114000D01*
X102733000Y-105480174D01*
X102487400Y-105847740D01*
X102487400Y-103435111D01*
X102531337Y-103391174D01*
X102644605Y-103221656D01*
X102722626Y-103033298D01*
X102762400Y-102833339D01*
X102762400Y-102730100D01*
X109398199Y-102730100D01*
X109768600Y-103100502D01*
X109768600Y-103162639D01*
X109808374Y-103362598D01*
X109886395Y-103550956D01*
X109999663Y-103720474D01*
X110143826Y-103864637D01*
X110313344Y-103977905D01*
X110501702Y-104055926D01*
X110701661Y-104095700D01*
X110905539Y-104095700D01*
X111105498Y-104055926D01*
X111293856Y-103977905D01*
X111463374Y-103864637D01*
X111607537Y-103720474D01*
X111720805Y-103550956D01*
X111798826Y-103362598D01*
X111838600Y-103162639D01*
X111838600Y-102958761D01*
X111798826Y-102758802D01*
X111720805Y-102570444D01*
X111607537Y-102400926D01*
X111463374Y-102256763D01*
X111293856Y-102143495D01*
X111105498Y-102065474D01*
X110905539Y-102025700D01*
X110843402Y-102025700D01*
X110276804Y-101459102D01*
X110253001Y-101430099D01*
X110137276Y-101335126D01*
X110005247Y-101264554D01*
X109861986Y-101221097D01*
X109750333Y-101210100D01*
X109750322Y-101210100D01*
X109713000Y-101206424D01*
X109675678Y-101210100D01*
X100187502Y-101210100D01*
X98826556Y-99849155D01*
X98905337Y-99770374D01*
X99018605Y-99600856D01*
X99077904Y-99457697D01*
X105992602Y-92543000D01*
X108767278Y-92543000D01*
X108804600Y-92546676D01*
X108841922Y-92543000D01*
X108841933Y-92543000D01*
X108953586Y-92532003D01*
X109096847Y-92488546D01*
X109228876Y-92417974D01*
X109344601Y-92323001D01*
X109368404Y-92293997D01*
X111477840Y-90184561D01*
X115238500Y-90184561D01*
X115238500Y-90388439D01*
X115278274Y-90588398D01*
X115356295Y-90776756D01*
X115469563Y-90946274D01*
X115513500Y-90990211D01*
X115513501Y-108364867D01*
X115509824Y-108402200D01*
X115524498Y-108551185D01*
X115567954Y-108694446D01*
X115638526Y-108826476D01*
X115709701Y-108913202D01*
X115733500Y-108942201D01*
X115762498Y-108965999D01*
X115853900Y-109057401D01*
X115853900Y-109119539D01*
X115893674Y-109319498D01*
X115971695Y-109507856D01*
X116084963Y-109677374D01*
X116229126Y-109821537D01*
X116398644Y-109934805D01*
X116587002Y-110012826D01*
X116786961Y-110052600D01*
X116990839Y-110052600D01*
X117190798Y-110012826D01*
X117379156Y-109934805D01*
X117548674Y-109821537D01*
X117692837Y-109677374D01*
X117806105Y-109507856D01*
X117884126Y-109319498D01*
X117923900Y-109119539D01*
X117923900Y-108915661D01*
X117884126Y-108715702D01*
X117806105Y-108527344D01*
X117692837Y-108357826D01*
X117548674Y-108213663D01*
X117379156Y-108100395D01*
X117190798Y-108022374D01*
X117033500Y-107991086D01*
X117033500Y-107009652D01*
X117259100Y-107009652D01*
X117259100Y-107302348D01*
X117316202Y-107589421D01*
X117428212Y-107859838D01*
X117590826Y-108103206D01*
X117797794Y-108310174D01*
X118041162Y-108472788D01*
X118311579Y-108584798D01*
X118598652Y-108641900D01*
X118891348Y-108641900D01*
X119178421Y-108584798D01*
X119448838Y-108472788D01*
X119692206Y-108310174D01*
X119899174Y-108103206D01*
X120061788Y-107859838D01*
X120173798Y-107589421D01*
X120230900Y-107302348D01*
X120230900Y-107009652D01*
X120208508Y-106897076D01*
X121196100Y-106897076D01*
X121196100Y-107414924D01*
X121297127Y-107922822D01*
X121495299Y-108401251D01*
X121783000Y-108831826D01*
X122149174Y-109198000D01*
X122579749Y-109485701D01*
X123058178Y-109683873D01*
X123566076Y-109784900D01*
X124083924Y-109784900D01*
X124591822Y-109683873D01*
X125070251Y-109485701D01*
X125500826Y-109198000D01*
X125571237Y-109127589D01*
X125500000Y-109485721D01*
X125500000Y-109906279D01*
X125582047Y-110318756D01*
X125742988Y-110707302D01*
X125976637Y-111056983D01*
X126274017Y-111354363D01*
X126623698Y-111588012D01*
X127012244Y-111748953D01*
X127424721Y-111831000D01*
X127845279Y-111831000D01*
X128257756Y-111748953D01*
X128646302Y-111588012D01*
X128995983Y-111354363D01*
X129293363Y-111056983D01*
X129527012Y-110707302D01*
X129687953Y-110318756D01*
X129770000Y-109906279D01*
X129770000Y-109485721D01*
X129687953Y-109073244D01*
X129527012Y-108684698D01*
X129433850Y-108545270D01*
X129608838Y-108472788D01*
X129852206Y-108310174D01*
X130059174Y-108103206D01*
X130221788Y-107859838D01*
X130333798Y-107589421D01*
X130390900Y-107302348D01*
X130390900Y-107009652D01*
X136309100Y-107009652D01*
X136309100Y-107302348D01*
X136366202Y-107589421D01*
X136478212Y-107859838D01*
X136640826Y-108103206D01*
X136847794Y-108310174D01*
X137091162Y-108472788D01*
X137361579Y-108584798D01*
X137648652Y-108641900D01*
X137941348Y-108641900D01*
X138228421Y-108584798D01*
X138498838Y-108472788D01*
X138742206Y-108310174D01*
X138949174Y-108103206D01*
X139111788Y-107859838D01*
X139223798Y-107589421D01*
X139280900Y-107302348D01*
X139280900Y-107009652D01*
X139258508Y-106897076D01*
X140246100Y-106897076D01*
X140246100Y-107414924D01*
X140347127Y-107922822D01*
X140545299Y-108401251D01*
X140833000Y-108831826D01*
X141199174Y-109198000D01*
X141629749Y-109485701D01*
X142108178Y-109683873D01*
X142616076Y-109784900D01*
X143133924Y-109784900D01*
X143641822Y-109683873D01*
X144120251Y-109485701D01*
X144550826Y-109198000D01*
X144621237Y-109127589D01*
X144550000Y-109485721D01*
X144550000Y-109906279D01*
X144632047Y-110318756D01*
X144792988Y-110707302D01*
X145026637Y-111056983D01*
X145324017Y-111354363D01*
X145673698Y-111588012D01*
X146062244Y-111748953D01*
X146474721Y-111831000D01*
X146895279Y-111831000D01*
X147307756Y-111748953D01*
X147696302Y-111588012D01*
X148045983Y-111354363D01*
X148343363Y-111056983D01*
X148577012Y-110707302D01*
X148737953Y-110318756D01*
X148820000Y-109906279D01*
X148820000Y-109485721D01*
X148737953Y-109073244D01*
X148577012Y-108684698D01*
X148483850Y-108545270D01*
X148658838Y-108472788D01*
X148902206Y-108310174D01*
X149109174Y-108103206D01*
X149271788Y-107859838D01*
X149383798Y-107589421D01*
X149440900Y-107302348D01*
X149440900Y-107009652D01*
X149383798Y-106722579D01*
X149271788Y-106452162D01*
X149109174Y-106208794D01*
X148902206Y-106001826D01*
X148658838Y-105839212D01*
X148388421Y-105727202D01*
X148101348Y-105670100D01*
X147808652Y-105670100D01*
X147521579Y-105727202D01*
X147251162Y-105839212D01*
X147007794Y-106001826D01*
X146800826Y-106208794D01*
X146638212Y-106452162D01*
X146526202Y-106722579D01*
X146469100Y-107009652D01*
X146469100Y-107302348D01*
X146520549Y-107561000D01*
X146474721Y-107561000D01*
X146062244Y-107643047D01*
X145673698Y-107803988D01*
X145367292Y-108008721D01*
X145402873Y-107922822D01*
X145503900Y-107414924D01*
X145503900Y-106897076D01*
X145402873Y-106389178D01*
X145204701Y-105910749D01*
X144917000Y-105480174D01*
X144550826Y-105114000D01*
X144120251Y-104826299D01*
X143641822Y-104628127D01*
X143133924Y-104527100D01*
X142616076Y-104527100D01*
X142108178Y-104628127D01*
X141629749Y-104826299D01*
X141199174Y-105114000D01*
X140833000Y-105480174D01*
X140545299Y-105910749D01*
X140347127Y-106389178D01*
X140246100Y-106897076D01*
X139258508Y-106897076D01*
X139223798Y-106722579D01*
X139111788Y-106452162D01*
X138949174Y-106208794D01*
X138742206Y-106001826D01*
X138498838Y-105839212D01*
X138228421Y-105727202D01*
X137941348Y-105670100D01*
X137648652Y-105670100D01*
X137361579Y-105727202D01*
X137091162Y-105839212D01*
X136847794Y-106001826D01*
X136640826Y-106208794D01*
X136478212Y-106452162D01*
X136366202Y-106722579D01*
X136309100Y-107009652D01*
X130390900Y-107009652D01*
X130333798Y-106722579D01*
X130221788Y-106452162D01*
X130059174Y-106208794D01*
X129852206Y-106001826D01*
X129608838Y-105839212D01*
X129338421Y-105727202D01*
X129051348Y-105670100D01*
X128758652Y-105670100D01*
X128471579Y-105727202D01*
X128201162Y-105839212D01*
X127957794Y-106001826D01*
X127750826Y-106208794D01*
X127588212Y-106452162D01*
X127476202Y-106722579D01*
X127419100Y-107009652D01*
X127419100Y-107302348D01*
X127470549Y-107561000D01*
X127424721Y-107561000D01*
X127012244Y-107643047D01*
X126623698Y-107803988D01*
X126317292Y-108008721D01*
X126352873Y-107922822D01*
X126453900Y-107414924D01*
X126453900Y-106897076D01*
X126352873Y-106389178D01*
X126154701Y-105910749D01*
X125867000Y-105480174D01*
X125500826Y-105114000D01*
X125070251Y-104826299D01*
X124591822Y-104628127D01*
X124083924Y-104527100D01*
X123566076Y-104527100D01*
X123058178Y-104628127D01*
X122579749Y-104826299D01*
X122149174Y-105114000D01*
X121783000Y-105480174D01*
X121495299Y-105910749D01*
X121297127Y-106389178D01*
X121196100Y-106897076D01*
X120208508Y-106897076D01*
X120173798Y-106722579D01*
X120061788Y-106452162D01*
X119899174Y-106208794D01*
X119692206Y-106001826D01*
X119448838Y-105839212D01*
X119178421Y-105727202D01*
X118891348Y-105670100D01*
X118598652Y-105670100D01*
X118311579Y-105727202D01*
X118041162Y-105839212D01*
X117797794Y-106001826D01*
X117590826Y-106208794D01*
X117428212Y-106452162D01*
X117316202Y-106722579D01*
X117259100Y-107009652D01*
X117033500Y-107009652D01*
X117033500Y-90990211D01*
X117077437Y-90946274D01*
X117190705Y-90776756D01*
X117268726Y-90588398D01*
X117308500Y-90388439D01*
X117308500Y-90184561D01*
X117268726Y-89984602D01*
X117190705Y-89796244D01*
X117077437Y-89626726D01*
X116933274Y-89482563D01*
X116763756Y-89369295D01*
X116575398Y-89291274D01*
X116375439Y-89251500D01*
X116171561Y-89251500D01*
X115971602Y-89291274D01*
X115783244Y-89369295D01*
X115613726Y-89482563D01*
X115469563Y-89626726D01*
X115356295Y-89796244D01*
X115278274Y-89984602D01*
X115238500Y-90184561D01*
X111477840Y-90184561D01*
X113702549Y-87959852D01*
X117259100Y-87959852D01*
X117259100Y-88252548D01*
X117316202Y-88539621D01*
X117428212Y-88810038D01*
X117590826Y-89053406D01*
X117797794Y-89260374D01*
X118041162Y-89422988D01*
X118311579Y-89534998D01*
X118598652Y-89592100D01*
X118891348Y-89592100D01*
X119178421Y-89534998D01*
X119448838Y-89422988D01*
X119692206Y-89260374D01*
X119899174Y-89053406D01*
X120061788Y-88810038D01*
X120173798Y-88539621D01*
X120230900Y-88252548D01*
X120230900Y-87959852D01*
X120179451Y-87701200D01*
X120225279Y-87701200D01*
X120637756Y-87619153D01*
X121026302Y-87458212D01*
X121332708Y-87253479D01*
X121297127Y-87339378D01*
X121196100Y-87847276D01*
X121196100Y-88365124D01*
X121297127Y-88873022D01*
X121495299Y-89351451D01*
X121783000Y-89782026D01*
X122149174Y-90148200D01*
X122579749Y-90435901D01*
X123058178Y-90634073D01*
X123566076Y-90735100D01*
X124083924Y-90735100D01*
X124591822Y-90634073D01*
X125070251Y-90435901D01*
X125500826Y-90148200D01*
X125867000Y-89782026D01*
X126154701Y-89351451D01*
X126352873Y-88873022D01*
X126453900Y-88365124D01*
X126453900Y-87959852D01*
X127419100Y-87959852D01*
X127419100Y-88252548D01*
X127476202Y-88539621D01*
X127588212Y-88810038D01*
X127750826Y-89053406D01*
X127957794Y-89260374D01*
X128201162Y-89422988D01*
X128471579Y-89534998D01*
X128758652Y-89592100D01*
X129051348Y-89592100D01*
X129338421Y-89534998D01*
X129608838Y-89422988D01*
X129852206Y-89260374D01*
X130059174Y-89053406D01*
X130221788Y-88810038D01*
X130333798Y-88539621D01*
X130390900Y-88252548D01*
X130390900Y-87959852D01*
X136309100Y-87959852D01*
X136309100Y-88252548D01*
X136366202Y-88539621D01*
X136478212Y-88810038D01*
X136640826Y-89053406D01*
X136847794Y-89260374D01*
X137091162Y-89422988D01*
X137361579Y-89534998D01*
X137648652Y-89592100D01*
X137941348Y-89592100D01*
X138228421Y-89534998D01*
X138498838Y-89422988D01*
X138742206Y-89260374D01*
X138949174Y-89053406D01*
X139111788Y-88810038D01*
X139223798Y-88539621D01*
X139280900Y-88252548D01*
X139280900Y-87959852D01*
X139229451Y-87701200D01*
X139275279Y-87701200D01*
X139687756Y-87619153D01*
X140076302Y-87458212D01*
X140382708Y-87253479D01*
X140347127Y-87339378D01*
X140246100Y-87847276D01*
X140246100Y-88365124D01*
X140347127Y-88873022D01*
X140545299Y-89351451D01*
X140833000Y-89782026D01*
X141199174Y-90148200D01*
X141629749Y-90435901D01*
X142108178Y-90634073D01*
X142616076Y-90735100D01*
X143133924Y-90735100D01*
X143641822Y-90634073D01*
X144120251Y-90435901D01*
X144550826Y-90148200D01*
X144917000Y-89782026D01*
X145204701Y-89351451D01*
X145402873Y-88873022D01*
X145503900Y-88365124D01*
X145503900Y-87959852D01*
X146469100Y-87959852D01*
X146469100Y-88252548D01*
X146526202Y-88539621D01*
X146638212Y-88810038D01*
X146800826Y-89053406D01*
X147007794Y-89260374D01*
X147251162Y-89422988D01*
X147521579Y-89534998D01*
X147808652Y-89592100D01*
X148101348Y-89592100D01*
X148388421Y-89534998D01*
X148658838Y-89422988D01*
X148902206Y-89260374D01*
X149109174Y-89053406D01*
X149271788Y-88810038D01*
X149383798Y-88539621D01*
X149440900Y-88252548D01*
X149440900Y-87959852D01*
X149383798Y-87672779D01*
X149271788Y-87402362D01*
X149109174Y-87158994D01*
X148902206Y-86952026D01*
X148658838Y-86789412D01*
X148388421Y-86677402D01*
X148101348Y-86620300D01*
X147808652Y-86620300D01*
X147521579Y-86677402D01*
X147251162Y-86789412D01*
X147007794Y-86952026D01*
X146800826Y-87158994D01*
X146638212Y-87402362D01*
X146526202Y-87672779D01*
X146469100Y-87959852D01*
X145503900Y-87959852D01*
X145503900Y-87847276D01*
X145402873Y-87339378D01*
X145204701Y-86860949D01*
X144917000Y-86430374D01*
X144550826Y-86064200D01*
X144120251Y-85776499D01*
X143641822Y-85578327D01*
X143133924Y-85477300D01*
X142616076Y-85477300D01*
X142108178Y-85578327D01*
X141629749Y-85776499D01*
X141199174Y-86064200D01*
X141128763Y-86134611D01*
X141200000Y-85776479D01*
X141200000Y-85355921D01*
X141117953Y-84943444D01*
X140957012Y-84554898D01*
X140723363Y-84205217D01*
X140425983Y-83907837D01*
X140076302Y-83674188D01*
X139687756Y-83513247D01*
X139275279Y-83431200D01*
X138854721Y-83431200D01*
X138442244Y-83513247D01*
X138053698Y-83674188D01*
X137704017Y-83907837D01*
X137406637Y-84205217D01*
X137172988Y-84554898D01*
X137012047Y-84943444D01*
X136930000Y-85355921D01*
X136930000Y-85776479D01*
X137012047Y-86188956D01*
X137172988Y-86577502D01*
X137266150Y-86716930D01*
X137091162Y-86789412D01*
X136847794Y-86952026D01*
X136640826Y-87158994D01*
X136478212Y-87402362D01*
X136366202Y-87672779D01*
X136309100Y-87959852D01*
X130390900Y-87959852D01*
X130333798Y-87672779D01*
X130221788Y-87402362D01*
X130059174Y-87158994D01*
X129852206Y-86952026D01*
X129608838Y-86789412D01*
X129338421Y-86677402D01*
X129051348Y-86620300D01*
X128758652Y-86620300D01*
X128471579Y-86677402D01*
X128201162Y-86789412D01*
X127957794Y-86952026D01*
X127750826Y-87158994D01*
X127588212Y-87402362D01*
X127476202Y-87672779D01*
X127419100Y-87959852D01*
X126453900Y-87959852D01*
X126453900Y-87847276D01*
X126352873Y-87339378D01*
X126154701Y-86860949D01*
X125867000Y-86430374D01*
X125500826Y-86064200D01*
X125070251Y-85776499D01*
X124591822Y-85578327D01*
X124083924Y-85477300D01*
X123566076Y-85477300D01*
X123058178Y-85578327D01*
X122579749Y-85776499D01*
X122149174Y-86064200D01*
X122078763Y-86134611D01*
X122150000Y-85776479D01*
X122150000Y-85355921D01*
X122067953Y-84943444D01*
X121907012Y-84554898D01*
X121673363Y-84205217D01*
X121375983Y-83907837D01*
X121026302Y-83674188D01*
X120637756Y-83513247D01*
X120225279Y-83431200D01*
X119804721Y-83431200D01*
X119392244Y-83513247D01*
X119003698Y-83674188D01*
X118654017Y-83907837D01*
X118356637Y-84205217D01*
X118122988Y-84554898D01*
X117962047Y-84943444D01*
X117880000Y-85355921D01*
X117880000Y-85776479D01*
X117962047Y-86188956D01*
X118122988Y-86577502D01*
X118216150Y-86716930D01*
X118041162Y-86789412D01*
X117797794Y-86952026D01*
X117590826Y-87158994D01*
X117428212Y-87402362D01*
X117316202Y-87672779D01*
X117259100Y-87959852D01*
X113702549Y-87959852D01*
X118846480Y-82815921D01*
X124230000Y-82815921D01*
X124230000Y-83236479D01*
X124312047Y-83648956D01*
X124472988Y-84037502D01*
X124706637Y-84387183D01*
X125004017Y-84684563D01*
X125353698Y-84918212D01*
X125742244Y-85079153D01*
X126154721Y-85161200D01*
X126575279Y-85161200D01*
X126987756Y-85079153D01*
X127376302Y-84918212D01*
X127725983Y-84684563D01*
X128023363Y-84387183D01*
X128257012Y-84037502D01*
X128417953Y-83648956D01*
X128500000Y-83236479D01*
X128500000Y-82815921D01*
X143280000Y-82815921D01*
X143280000Y-83236479D01*
X143362047Y-83648956D01*
X143522988Y-84037502D01*
X143756637Y-84387183D01*
X144054017Y-84684563D01*
X144403698Y-84918212D01*
X144792244Y-85079153D01*
X145204721Y-85161200D01*
X145625279Y-85161200D01*
X146037756Y-85079153D01*
X146426302Y-84918212D01*
X146775983Y-84684563D01*
X147073363Y-84387183D01*
X147307012Y-84037502D01*
X147467953Y-83648956D01*
X147550000Y-83236479D01*
X147550000Y-82815921D01*
X147467953Y-82403444D01*
X147307012Y-82014898D01*
X147073363Y-81665217D01*
X146775983Y-81367837D01*
X146426302Y-81134188D01*
X146037756Y-80973247D01*
X145625279Y-80891200D01*
X145204721Y-80891200D01*
X144792244Y-80973247D01*
X144403698Y-81134188D01*
X144054017Y-81367837D01*
X143756637Y-81665217D01*
X143522988Y-82014898D01*
X143362047Y-82403444D01*
X143280000Y-82815921D01*
X128500000Y-82815921D01*
X128417953Y-82403444D01*
X128257012Y-82014898D01*
X128023363Y-81665217D01*
X127725983Y-81367837D01*
X127376302Y-81134188D01*
X126987756Y-80973247D01*
X126575279Y-80891200D01*
X126154721Y-80891200D01*
X125742244Y-80973247D01*
X125353698Y-81134188D01*
X125004017Y-81367837D01*
X124706637Y-81665217D01*
X124472988Y-82014898D01*
X124312047Y-82403444D01*
X124230000Y-82815921D01*
X118846480Y-82815921D01*
X120064002Y-81598400D01*
X123458578Y-81598400D01*
X123495900Y-81602076D01*
X123533222Y-81598400D01*
X123533233Y-81598400D01*
X123644886Y-81587403D01*
X123788147Y-81543946D01*
X123920176Y-81473374D01*
X124035901Y-81378401D01*
X124059704Y-81349397D01*
X131483180Y-73925921D01*
X138200000Y-73925921D01*
X138200000Y-74346479D01*
X138282047Y-74758956D01*
X138442988Y-75147502D01*
X138676637Y-75497183D01*
X138974017Y-75794563D01*
X139323698Y-76028212D01*
X139712244Y-76189153D01*
X140124721Y-76271200D01*
X140545279Y-76271200D01*
X140957756Y-76189153D01*
X141346302Y-76028212D01*
X141695983Y-75794563D01*
X141993363Y-75497183D01*
X142227012Y-75147502D01*
X142387953Y-74758956D01*
X142470000Y-74346479D01*
X142470000Y-73925921D01*
X142387953Y-73513444D01*
X142227012Y-73124898D01*
X141993363Y-72775217D01*
X141695983Y-72477837D01*
X141346302Y-72244188D01*
X140957756Y-72083247D01*
X140545279Y-72001200D01*
X140124721Y-72001200D01*
X139712244Y-72083247D01*
X139323698Y-72244188D01*
X138974017Y-72477837D01*
X138676637Y-72775217D01*
X138442988Y-73124898D01*
X138282047Y-73513444D01*
X138200000Y-73925921D01*
X131483180Y-73925921D01*
X136309100Y-69100002D01*
X136309100Y-69202548D01*
X136366202Y-69489621D01*
X136478212Y-69760038D01*
X136640826Y-70003406D01*
X136847794Y-70210374D01*
X137091162Y-70372988D01*
X137361579Y-70484998D01*
X137648652Y-70542100D01*
X137941348Y-70542100D01*
X138228421Y-70484998D01*
X138498838Y-70372988D01*
X138742206Y-70210374D01*
X138949174Y-70003406D01*
X139111788Y-69760038D01*
X139223798Y-69489621D01*
X139280900Y-69202548D01*
X139280900Y-68909852D01*
X139258508Y-68797276D01*
X140246100Y-68797276D01*
X140246100Y-69315124D01*
X140347127Y-69823022D01*
X140545299Y-70301451D01*
X140833000Y-70732026D01*
X141199174Y-71098200D01*
X141629749Y-71385901D01*
X142108178Y-71584073D01*
X142616076Y-71685100D01*
X143133924Y-71685100D01*
X143641822Y-71584073D01*
X144120251Y-71385901D01*
X144550826Y-71098200D01*
X144621237Y-71027789D01*
X144550000Y-71385921D01*
X144550000Y-71806479D01*
X144632047Y-72218956D01*
X144792988Y-72607502D01*
X145026637Y-72957183D01*
X145324017Y-73254563D01*
X145673698Y-73488212D01*
X146062244Y-73649153D01*
X146474721Y-73731200D01*
X146895279Y-73731200D01*
X147307756Y-73649153D01*
X147696302Y-73488212D01*
X148045983Y-73254563D01*
X148343363Y-72957183D01*
X148577012Y-72607502D01*
X148737953Y-72218956D01*
X148820000Y-71806479D01*
X148820000Y-71385921D01*
X148737953Y-70973444D01*
X148577012Y-70584898D01*
X148483850Y-70445470D01*
X148658838Y-70372988D01*
X148902206Y-70210374D01*
X149109174Y-70003406D01*
X149271788Y-69760038D01*
X149383798Y-69489621D01*
X149440900Y-69202548D01*
X149440900Y-68909852D01*
X149383798Y-68622779D01*
X149271788Y-68352362D01*
X149109174Y-68108994D01*
X148902206Y-67902026D01*
X148658838Y-67739412D01*
X148388421Y-67627402D01*
X148101348Y-67570300D01*
X147808652Y-67570300D01*
X147521579Y-67627402D01*
X147251162Y-67739412D01*
X147007794Y-67902026D01*
X146800826Y-68108994D01*
X146638212Y-68352362D01*
X146526202Y-68622779D01*
X146469100Y-68909852D01*
X146469100Y-69202548D01*
X146520549Y-69461200D01*
X146474721Y-69461200D01*
X146062244Y-69543247D01*
X145673698Y-69704188D01*
X145367292Y-69908921D01*
X145402873Y-69823022D01*
X145503900Y-69315124D01*
X145503900Y-68797276D01*
X145402873Y-68289378D01*
X145204701Y-67810949D01*
X144917000Y-67380374D01*
X144550826Y-67014200D01*
X144120251Y-66726499D01*
X143641822Y-66528327D01*
X143133924Y-66427300D01*
X142616076Y-66427300D01*
X142108178Y-66528327D01*
X141629749Y-66726499D01*
X141199174Y-67014200D01*
X140833000Y-67380374D01*
X140545299Y-67810949D01*
X140347127Y-68289378D01*
X140246100Y-68797276D01*
X139258508Y-68797276D01*
X139223798Y-68622779D01*
X139111788Y-68352362D01*
X138949174Y-68108994D01*
X138742206Y-67902026D01*
X138498838Y-67739412D01*
X138228421Y-67627402D01*
X137941348Y-67570300D01*
X137838802Y-67570300D01*
X139973802Y-65435300D01*
X141930178Y-65435300D01*
X141967500Y-65438976D01*
X142004822Y-65435300D01*
X142004833Y-65435300D01*
X142116486Y-65424303D01*
X142259747Y-65380846D01*
X142391776Y-65310274D01*
X142507501Y-65215301D01*
X142531304Y-65186297D01*
X142845697Y-64871904D01*
X142874701Y-64848101D01*
X142876899Y-64845423D01*
X142938966Y-64878599D01*
X143218889Y-64963513D01*
X143437050Y-64985000D01*
X143582950Y-64985000D01*
X143801111Y-64963513D01*
X144081034Y-64878599D01*
X144339014Y-64740706D01*
X144565134Y-64555134D01*
X144750706Y-64329014D01*
X144785201Y-64264477D01*
X144854822Y-64381355D01*
X145049731Y-64597588D01*
X145283080Y-64771641D01*
X145545901Y-64896825D01*
X145693110Y-64941476D01*
X145923000Y-64820155D01*
X145923000Y-63627000D01*
X146177000Y-63627000D01*
X146177000Y-64820155D01*
X146406890Y-64941476D01*
X146554099Y-64896825D01*
X146816920Y-64771641D01*
X147050269Y-64597588D01*
X147245178Y-64381355D01*
X147394157Y-64131252D01*
X147491481Y-63856891D01*
X147370814Y-63627000D01*
X146177000Y-63627000D01*
X145923000Y-63627000D01*
X145903000Y-63627000D01*
X145903000Y-63373000D01*
X145923000Y-63373000D01*
X145923000Y-62179845D01*
X146177000Y-62179845D01*
X146177000Y-63373000D01*
X147370814Y-63373000D01*
X147491481Y-63143109D01*
X147394157Y-62868748D01*
X147245178Y-62618645D01*
X147050269Y-62402412D01*
X146816920Y-62228359D01*
X146554099Y-62103175D01*
X146406890Y-62058524D01*
X146177000Y-62179845D01*
X145923000Y-62179845D01*
X145693110Y-62058524D01*
X145545901Y-62103175D01*
X145283080Y-62228359D01*
X145049731Y-62402412D01*
X144854822Y-62618645D01*
X144785201Y-62735523D01*
X144750706Y-62670986D01*
X144565134Y-62444866D01*
X144339014Y-62259294D01*
X144081034Y-62121401D01*
X143801111Y-62036487D01*
X143582950Y-62015000D01*
X143437050Y-62015000D01*
X143218889Y-62036487D01*
X142938966Y-62121401D01*
X142680986Y-62259294D01*
X142454866Y-62444866D01*
X142430393Y-62474687D01*
X142409502Y-62405820D01*
X142350537Y-62295506D01*
X142271185Y-62198815D01*
X142174494Y-62119463D01*
X142064180Y-62060498D01*
X141944482Y-62024188D01*
X141820000Y-62011928D01*
X140120000Y-62011928D01*
X139995518Y-62024188D01*
X139875820Y-62060498D01*
X139765506Y-62119463D01*
X139668815Y-62198815D01*
X139589463Y-62295506D01*
X139530498Y-62405820D01*
X139494188Y-62525518D01*
X139481928Y-62650000D01*
X139481928Y-62805425D01*
X139370423Y-62865026D01*
X139292513Y-62928966D01*
X139254699Y-62959999D01*
X139230901Y-62988997D01*
X129355076Y-72864822D01*
X129527012Y-72607502D01*
X129687953Y-72218956D01*
X129770000Y-71806479D01*
X129770000Y-71385921D01*
X129687953Y-70973444D01*
X129527012Y-70584898D01*
X129433850Y-70445470D01*
X129608838Y-70372988D01*
X129852206Y-70210374D01*
X130059174Y-70003406D01*
X130221788Y-69760038D01*
X130333798Y-69489621D01*
X130390900Y-69202548D01*
X130390900Y-68909852D01*
X130333798Y-68622779D01*
X130221788Y-68352362D01*
X130059174Y-68108994D01*
X129852206Y-67902026D01*
X129608838Y-67739412D01*
X129338421Y-67627402D01*
X129051348Y-67570300D01*
X128758652Y-67570300D01*
X128471579Y-67627402D01*
X128201162Y-67739412D01*
X127957794Y-67902026D01*
X127750826Y-68108994D01*
X127588212Y-68352362D01*
X127476202Y-68622779D01*
X127419100Y-68909852D01*
X127419100Y-69202548D01*
X127470549Y-69461200D01*
X127424721Y-69461200D01*
X127012244Y-69543247D01*
X126623698Y-69704188D01*
X126317292Y-69908921D01*
X126352873Y-69823022D01*
X126453900Y-69315124D01*
X126453900Y-68797276D01*
X126352873Y-68289378D01*
X126154701Y-67810949D01*
X125867000Y-67380374D01*
X125500826Y-67014200D01*
X125070251Y-66726499D01*
X124591822Y-66528327D01*
X124083924Y-66427300D01*
X123566076Y-66427300D01*
X123058178Y-66528327D01*
X122579749Y-66726499D01*
X122149174Y-67014200D01*
X121783000Y-67380374D01*
X121495299Y-67810949D01*
X121297127Y-68289378D01*
X121196100Y-68797276D01*
X121196100Y-69315124D01*
X121297127Y-69823022D01*
X121495299Y-70301451D01*
X121783000Y-70732026D01*
X122149174Y-71098200D01*
X122579749Y-71385901D01*
X123058178Y-71584073D01*
X123566076Y-71685100D01*
X124083924Y-71685100D01*
X124591822Y-71584073D01*
X125070251Y-71385901D01*
X125500826Y-71098200D01*
X125571237Y-71027789D01*
X125500000Y-71385921D01*
X125500000Y-71806479D01*
X125582047Y-72218956D01*
X125742988Y-72607502D01*
X125976637Y-72957183D01*
X126274017Y-73254563D01*
X126623698Y-73488212D01*
X127012244Y-73649153D01*
X127424721Y-73731200D01*
X127845279Y-73731200D01*
X128257756Y-73649153D01*
X128646302Y-73488212D01*
X128903623Y-73316276D01*
X125295199Y-76924700D01*
X102764322Y-76924700D01*
X102726999Y-76921024D01*
X102689676Y-76924700D01*
X102689667Y-76924700D01*
X102578014Y-76935697D01*
X102434753Y-76979154D01*
X102302723Y-77049726D01*
X102219083Y-77118368D01*
X102186999Y-77144699D01*
X102163201Y-77173697D01*
X97488000Y-81848899D01*
X97488000Y-73925921D01*
X100100000Y-73925921D01*
X100100000Y-74346479D01*
X100182047Y-74758956D01*
X100342988Y-75147502D01*
X100576637Y-75497183D01*
X100874017Y-75794563D01*
X101223698Y-76028212D01*
X101612244Y-76189153D01*
X102024721Y-76271200D01*
X102445279Y-76271200D01*
X102857756Y-76189153D01*
X103246302Y-76028212D01*
X103595983Y-75794563D01*
X103893363Y-75497183D01*
X104127012Y-75147502D01*
X104287953Y-74758956D01*
X104370000Y-74346479D01*
X104370000Y-73925921D01*
X119150000Y-73925921D01*
X119150000Y-74346479D01*
X119232047Y-74758956D01*
X119392988Y-75147502D01*
X119626637Y-75497183D01*
X119924017Y-75794563D01*
X120273698Y-76028212D01*
X120662244Y-76189153D01*
X121074721Y-76271200D01*
X121495279Y-76271200D01*
X121907756Y-76189153D01*
X122296302Y-76028212D01*
X122645983Y-75794563D01*
X122943363Y-75497183D01*
X123177012Y-75147502D01*
X123337953Y-74758956D01*
X123420000Y-74346479D01*
X123420000Y-73925921D01*
X123337953Y-73513444D01*
X123177012Y-73124898D01*
X122943363Y-72775217D01*
X122645983Y-72477837D01*
X122296302Y-72244188D01*
X121907756Y-72083247D01*
X121495279Y-72001200D01*
X121074721Y-72001200D01*
X120662244Y-72083247D01*
X120273698Y-72244188D01*
X119924017Y-72477837D01*
X119626637Y-72775217D01*
X119392988Y-73124898D01*
X119232047Y-73513444D01*
X119150000Y-73925921D01*
X104370000Y-73925921D01*
X104287953Y-73513444D01*
X104127012Y-73124898D01*
X103893363Y-72775217D01*
X103595983Y-72477837D01*
X103246302Y-72244188D01*
X102857756Y-72083247D01*
X102445279Y-72001200D01*
X102024721Y-72001200D01*
X101612244Y-72083247D01*
X101223698Y-72244188D01*
X100874017Y-72477837D01*
X100576637Y-72775217D01*
X100342988Y-73124898D01*
X100182047Y-73513444D01*
X100100000Y-73925921D01*
X97488000Y-73925921D01*
X97488000Y-68909852D01*
X98209100Y-68909852D01*
X98209100Y-69202548D01*
X98266202Y-69489621D01*
X98378212Y-69760038D01*
X98540826Y-70003406D01*
X98747794Y-70210374D01*
X98991162Y-70372988D01*
X99261579Y-70484998D01*
X99548652Y-70542100D01*
X99841348Y-70542100D01*
X100128421Y-70484998D01*
X100398838Y-70372988D01*
X100642206Y-70210374D01*
X100849174Y-70003406D01*
X101011788Y-69760038D01*
X101123798Y-69489621D01*
X101180900Y-69202548D01*
X101180900Y-68909852D01*
X101158508Y-68797276D01*
X102146100Y-68797276D01*
X102146100Y-69315124D01*
X102247127Y-69823022D01*
X102445299Y-70301451D01*
X102733000Y-70732026D01*
X103099174Y-71098200D01*
X103529749Y-71385901D01*
X104008178Y-71584073D01*
X104516076Y-71685100D01*
X105033924Y-71685100D01*
X105541822Y-71584073D01*
X106020251Y-71385901D01*
X106450826Y-71098200D01*
X106521237Y-71027789D01*
X106450000Y-71385921D01*
X106450000Y-71806479D01*
X106532047Y-72218956D01*
X106692988Y-72607502D01*
X106926637Y-72957183D01*
X107224017Y-73254563D01*
X107573698Y-73488212D01*
X107962244Y-73649153D01*
X108374721Y-73731200D01*
X108795279Y-73731200D01*
X109207756Y-73649153D01*
X109596302Y-73488212D01*
X109945983Y-73254563D01*
X110243363Y-72957183D01*
X110477012Y-72607502D01*
X110637953Y-72218956D01*
X110720000Y-71806479D01*
X110720000Y-71385921D01*
X110637953Y-70973444D01*
X110477012Y-70584898D01*
X110383850Y-70445470D01*
X110558838Y-70372988D01*
X110802206Y-70210374D01*
X111009174Y-70003406D01*
X111171788Y-69760038D01*
X111283798Y-69489621D01*
X111340900Y-69202548D01*
X111340900Y-68909852D01*
X111283798Y-68622779D01*
X111171788Y-68352362D01*
X111009174Y-68108994D01*
X110802206Y-67902026D01*
X110558838Y-67739412D01*
X110288421Y-67627402D01*
X110001348Y-67570300D01*
X109708652Y-67570300D01*
X109421579Y-67627402D01*
X109151162Y-67739412D01*
X108907794Y-67902026D01*
X108700826Y-68108994D01*
X108538212Y-68352362D01*
X108426202Y-68622779D01*
X108369100Y-68909852D01*
X108369100Y-69202548D01*
X108420549Y-69461200D01*
X108374721Y-69461200D01*
X107962244Y-69543247D01*
X107573698Y-69704188D01*
X107267292Y-69908921D01*
X107302873Y-69823022D01*
X107403900Y-69315124D01*
X107403900Y-68797276D01*
X107302873Y-68289378D01*
X107104701Y-67810949D01*
X106817000Y-67380374D01*
X106450826Y-67014200D01*
X106020251Y-66726499D01*
X105541822Y-66528327D01*
X105033924Y-66427300D01*
X104516076Y-66427300D01*
X104008178Y-66528327D01*
X103529749Y-66726499D01*
X103099174Y-67014200D01*
X102733000Y-67380374D01*
X102445299Y-67810949D01*
X102247127Y-68289378D01*
X102146100Y-68797276D01*
X101158508Y-68797276D01*
X101123798Y-68622779D01*
X101011788Y-68352362D01*
X100849174Y-68108994D01*
X100642206Y-67902026D01*
X100398838Y-67739412D01*
X100128421Y-67627402D01*
X99841348Y-67570300D01*
X99548652Y-67570300D01*
X99261579Y-67627402D01*
X98991162Y-67739412D01*
X98747794Y-67902026D01*
X98540826Y-68108994D01*
X98378212Y-68352362D01*
X98266202Y-68622779D01*
X98209100Y-68909852D01*
X97488000Y-68909852D01*
X97488000Y-66100801D01*
X99111302Y-64477500D01*
X107320489Y-64477500D01*
X107364426Y-64521437D01*
X107533944Y-64634705D01*
X107722302Y-64712726D01*
X107922261Y-64752500D01*
X107984399Y-64752500D01*
X111359100Y-68127202D01*
X111359100Y-68189339D01*
X111398874Y-68389298D01*
X111476895Y-68577656D01*
X111590163Y-68747174D01*
X111734326Y-68891337D01*
X111903844Y-69004605D01*
X112092202Y-69082626D01*
X112292161Y-69122400D01*
X112496039Y-69122400D01*
X112695998Y-69082626D01*
X112884356Y-69004605D01*
X113026164Y-68909852D01*
X117259100Y-68909852D01*
X117259100Y-69202548D01*
X117316202Y-69489621D01*
X117428212Y-69760038D01*
X117590826Y-70003406D01*
X117797794Y-70210374D01*
X118041162Y-70372988D01*
X118311579Y-70484998D01*
X118598652Y-70542100D01*
X118891348Y-70542100D01*
X119178421Y-70484998D01*
X119448838Y-70372988D01*
X119692206Y-70210374D01*
X119899174Y-70003406D01*
X120061788Y-69760038D01*
X120173798Y-69489621D01*
X120230900Y-69202548D01*
X120230900Y-68909852D01*
X120173798Y-68622779D01*
X120061788Y-68352362D01*
X119899174Y-68108994D01*
X119692206Y-67902026D01*
X119448838Y-67739412D01*
X119178421Y-67627402D01*
X118891348Y-67570300D01*
X118598652Y-67570300D01*
X118311579Y-67627402D01*
X118041162Y-67739412D01*
X117797794Y-67902026D01*
X117590826Y-68108994D01*
X117428212Y-68352362D01*
X117316202Y-68622779D01*
X117259100Y-68909852D01*
X113026164Y-68909852D01*
X113053874Y-68891337D01*
X113198037Y-68747174D01*
X113311305Y-68577656D01*
X113389326Y-68389298D01*
X113429100Y-68189339D01*
X113429100Y-67985461D01*
X113389326Y-67785502D01*
X113311305Y-67597144D01*
X113198037Y-67427626D01*
X113053874Y-67283463D01*
X112884356Y-67170195D01*
X112695998Y-67092174D01*
X112496039Y-67052400D01*
X112433902Y-67052400D01*
X110723722Y-65342221D01*
X110853161Y-65216169D01*
X110980003Y-65031678D01*
X111068415Y-64825987D01*
X111115000Y-64607000D01*
X111115000Y-64316904D01*
X111129978Y-64323108D01*
X111315448Y-64360000D01*
X111504552Y-64360000D01*
X111690022Y-64323108D01*
X111864731Y-64250741D01*
X112021964Y-64145681D01*
X112155681Y-64011964D01*
X112260741Y-63854731D01*
X112333108Y-63680022D01*
X112370000Y-63494552D01*
X112370000Y-63305448D01*
X116230000Y-63305448D01*
X116230000Y-63494552D01*
X116266892Y-63680022D01*
X116339259Y-63854731D01*
X116444319Y-64011964D01*
X116578036Y-64145681D01*
X116735269Y-64250741D01*
X116909978Y-64323108D01*
X117095448Y-64360000D01*
X117284552Y-64360000D01*
X117470022Y-64323108D01*
X117485000Y-64316904D01*
X117485000Y-64607000D01*
X117531585Y-64825987D01*
X117619997Y-65031678D01*
X117746839Y-65216169D01*
X117907236Y-65372369D01*
X118095024Y-65494276D01*
X118318126Y-65574119D01*
X118493000Y-65447954D01*
X118493000Y-64057000D01*
X118747000Y-64057000D01*
X118747000Y-65447954D01*
X118921874Y-65574119D01*
X119144976Y-65494276D01*
X119332764Y-65372369D01*
X119493161Y-65216169D01*
X119620003Y-65031678D01*
X119708415Y-64825987D01*
X119755000Y-64607000D01*
X119755000Y-64057000D01*
X118747000Y-64057000D01*
X118493000Y-64057000D01*
X118473000Y-64057000D01*
X118473000Y-63803000D01*
X118493000Y-63803000D01*
X118493000Y-62412046D01*
X118747000Y-62412046D01*
X118747000Y-63803000D01*
X119755000Y-63803000D01*
X119755000Y-63253000D01*
X119708415Y-63034013D01*
X119620003Y-62828322D01*
X119493161Y-62643831D01*
X119332764Y-62487631D01*
X119144976Y-62365724D01*
X118921874Y-62285881D01*
X118747000Y-62412046D01*
X118493000Y-62412046D01*
X118318126Y-62285881D01*
X118095024Y-62365724D01*
X117907236Y-62487631D01*
X117762884Y-62628206D01*
X117644731Y-62549259D01*
X117470022Y-62476892D01*
X117284552Y-62440000D01*
X117095448Y-62440000D01*
X116909978Y-62476892D01*
X116735269Y-62549259D01*
X116578036Y-62654319D01*
X116444319Y-62788036D01*
X116339259Y-62945269D01*
X116266892Y-63119978D01*
X116230000Y-63305448D01*
X112370000Y-63305448D01*
X112333108Y-63119978D01*
X112260741Y-62945269D01*
X112155681Y-62788036D01*
X112021964Y-62654319D01*
X111864731Y-62549259D01*
X111690022Y-62476892D01*
X111504552Y-62440000D01*
X111315448Y-62440000D01*
X111129978Y-62476892D01*
X110955269Y-62549259D01*
X110837116Y-62628206D01*
X110692764Y-62487631D01*
X110504976Y-62365724D01*
X110281874Y-62285881D01*
X110107000Y-62412046D01*
X110107000Y-63803000D01*
X110127000Y-63803000D01*
X110127000Y-64057000D01*
X110107000Y-64057000D01*
X110107000Y-64077000D01*
X109853000Y-64077000D01*
X109853000Y-64057000D01*
X109833000Y-64057000D01*
X109833000Y-63803000D01*
X109853000Y-63803000D01*
X109853000Y-62412046D01*
X109678126Y-62285881D01*
X109455024Y-62365724D01*
X109267236Y-62487631D01*
X109106839Y-62643831D01*
X108979997Y-62828322D01*
X108891585Y-63034013D01*
X108872437Y-63124025D01*
X108828137Y-63057726D01*
X108683974Y-62913563D01*
X108514456Y-62800295D01*
X108326098Y-62722274D01*
X108126139Y-62682500D01*
X107922261Y-62682500D01*
X107722302Y-62722274D01*
X107533944Y-62800295D01*
X107364426Y-62913563D01*
X107320489Y-62957500D01*
X99380898Y-62957500D01*
X99336305Y-62849844D01*
X99223037Y-62680326D01*
X99078874Y-62536163D01*
X98909356Y-62422895D01*
X98720998Y-62344874D01*
X98521039Y-62305100D01*
X98317161Y-62305100D01*
X98117202Y-62344874D01*
X97928844Y-62422895D01*
X97759326Y-62536163D01*
X97615163Y-62680326D01*
X97501895Y-62849844D01*
X97423874Y-63038202D01*
X97384100Y-63238161D01*
X97384100Y-63442039D01*
X97423874Y-63641998D01*
X97501895Y-63830356D01*
X97544732Y-63894466D01*
X96216998Y-65222201D01*
X96188000Y-65245999D01*
X96164202Y-65274997D01*
X96164201Y-65274998D01*
X96093026Y-65361724D01*
X96022454Y-65493754D01*
X95978998Y-65637015D01*
X95964324Y-65786000D01*
X95968001Y-65823333D01*
X95968000Y-86408600D01*
X95852761Y-86408600D01*
X95652802Y-86448374D01*
X95464444Y-86526395D01*
X95294926Y-86639663D01*
X95150763Y-86783826D01*
X95037495Y-86953344D01*
X94959474Y-87141702D01*
X94919700Y-87341661D01*
X94919700Y-87545539D01*
X94959474Y-87745498D01*
X95037495Y-87933856D01*
X95150763Y-88103374D01*
X95194700Y-88147311D01*
X95194700Y-89692100D01*
X95121161Y-89692100D01*
X94921202Y-89731874D01*
X94732844Y-89809895D01*
X94563326Y-89923163D01*
X94481256Y-90005233D01*
X94427453Y-90021554D01*
X94382235Y-90045724D01*
X94266974Y-89930463D01*
X94097456Y-89817195D01*
X93970324Y-89764535D01*
X93946826Y-89646402D01*
X93868805Y-89458044D01*
X93755537Y-89288526D01*
X93711600Y-89244589D01*
X93711600Y-63576711D01*
X93755537Y-63532774D01*
X93868805Y-63363256D01*
X93946826Y-63174898D01*
X93986600Y-62974939D01*
X93986600Y-62771061D01*
X93946826Y-62571102D01*
X93868805Y-62382744D01*
X93755537Y-62213226D01*
X93611374Y-62069063D01*
X93441856Y-61955795D01*
X93253498Y-61877774D01*
X93053539Y-61838000D01*
X92849661Y-61838000D01*
X92649702Y-61877774D01*
X92461344Y-61955795D01*
X92291826Y-62069063D01*
X92147663Y-62213226D01*
X92034395Y-62382744D01*
X91956374Y-62571102D01*
X91916600Y-62771061D01*
X91916600Y-62974939D01*
X91956374Y-63174898D01*
X92034395Y-63363256D01*
X92147663Y-63532774D01*
X92191600Y-63576711D01*
X92191600Y-65724798D01*
X89300000Y-62833199D01*
X89300000Y-62771061D01*
X89260226Y-62571102D01*
X89182205Y-62382744D01*
X89068937Y-62213226D01*
X88924774Y-62069063D01*
X88755256Y-61955795D01*
X88566898Y-61877774D01*
X88366939Y-61838000D01*
X88163061Y-61838000D01*
X87963102Y-61877774D01*
X87774744Y-61955795D01*
X87605226Y-62069063D01*
X87461063Y-62213226D01*
X87347795Y-62382744D01*
X87269774Y-62571102D01*
X87230000Y-62771061D01*
X87230000Y-62974939D01*
X87269774Y-63174898D01*
X87347795Y-63363256D01*
X87461063Y-63532774D01*
X87605226Y-63676937D01*
X87774744Y-63790205D01*
X87963102Y-63868226D01*
X88163061Y-63908000D01*
X88225199Y-63908000D01*
X91229600Y-66912402D01*
X91229600Y-67625647D01*
X90951348Y-67570300D01*
X90658652Y-67570300D01*
X90371579Y-67627402D01*
X90101162Y-67739412D01*
X89857794Y-67902026D01*
X89650826Y-68108994D01*
X89488212Y-68352362D01*
X89376202Y-68622779D01*
X89319100Y-68909852D01*
X89319100Y-69202548D01*
X89370549Y-69461200D01*
X89324721Y-69461200D01*
X88912244Y-69543247D01*
X88523698Y-69704188D01*
X88217292Y-69908921D01*
X88252873Y-69823022D01*
X88353900Y-69315124D01*
X88353900Y-68797276D01*
X88252873Y-68289378D01*
X88054701Y-67810949D01*
X87767000Y-67380374D01*
X87400826Y-67014200D01*
X86970251Y-66726499D01*
X86491822Y-66528327D01*
X85983924Y-66427300D01*
X85466076Y-66427300D01*
X84958178Y-66528327D01*
X84479749Y-66726499D01*
X84049174Y-67014200D01*
X83683000Y-67380374D01*
X83395299Y-67810949D01*
X83197127Y-68289378D01*
X83096100Y-68797276D01*
X82108508Y-68797276D01*
X82073798Y-68622779D01*
X81961788Y-68352362D01*
X81799174Y-68108994D01*
X81592206Y-67902026D01*
X81348838Y-67739412D01*
X81078421Y-67627402D01*
X80791348Y-67570300D01*
X80498652Y-67570300D01*
X80211579Y-67627402D01*
X79941162Y-67739412D01*
X79697794Y-67902026D01*
X79490826Y-68108994D01*
X79328212Y-68352362D01*
X79216202Y-68622779D01*
X79159100Y-68909852D01*
X75692000Y-68909852D01*
X75692000Y-62436736D01*
X78251736Y-59877000D01*
X108845000Y-59877000D01*
X108845000Y-60177000D01*
X108891585Y-60395987D01*
X108979997Y-60601678D01*
X109106839Y-60786169D01*
X109267236Y-60942369D01*
X109455024Y-61064276D01*
X109678126Y-61144119D01*
X109853000Y-61017954D01*
X109853000Y-59877000D01*
X110107000Y-59877000D01*
X110107000Y-61017954D01*
X110281874Y-61144119D01*
X110504976Y-61064276D01*
X110692764Y-60942369D01*
X110853161Y-60786169D01*
X110980003Y-60601678D01*
X111068415Y-60395987D01*
X111115000Y-60177000D01*
X111115000Y-59877000D01*
X117485000Y-59877000D01*
X117485000Y-60177000D01*
X117531585Y-60395987D01*
X117619997Y-60601678D01*
X117746839Y-60786169D01*
X117907236Y-60942369D01*
X118095024Y-61064276D01*
X118318126Y-61144119D01*
X118493000Y-61017954D01*
X118493000Y-59877000D01*
X118747000Y-59877000D01*
X118747000Y-61017954D01*
X118921874Y-61144119D01*
X119144976Y-61064276D01*
X119332764Y-60942369D01*
X119493161Y-60786169D01*
X119620003Y-60601678D01*
X119708415Y-60395987D01*
X119755000Y-60177000D01*
X119755000Y-59877000D01*
X118747000Y-59877000D01*
X118493000Y-59877000D01*
X117485000Y-59877000D01*
X111115000Y-59877000D01*
X110107000Y-59877000D01*
X109853000Y-59877000D01*
X108845000Y-59877000D01*
X78251736Y-59877000D01*
X78946736Y-59182000D01*
X108874995Y-59182000D01*
X108845000Y-59323000D01*
X108845000Y-59323000D01*
G37*
X108845000Y-59323000D02*
X108845000Y-59623000D01*
X109853000Y-59623000D01*
X109853000Y-59603000D01*
X110107000Y-59603000D01*
X110107000Y-59623000D01*
X111115000Y-59623000D01*
X111115000Y-59323000D01*
X111085005Y-59182000D01*
X117514995Y-59182000D01*
X117485000Y-59323000D01*
X117485000Y-59623000D01*
X118493000Y-59623000D01*
X118493000Y-59603000D01*
X118747000Y-59603000D01*
X118747000Y-59623000D01*
X119755000Y-59623000D01*
X119755000Y-59323000D01*
X119725005Y-59182000D01*
X149653264Y-59182000D01*
X152908000Y-62436736D01*
X152908000Y-144573264D01*
X149653264Y-147828000D01*
X137083000Y-147828000D01*
X137083000Y-134653647D01*
X137086314Y-134620000D01*
X137073088Y-134485717D01*
X137033919Y-134356594D01*
X136970312Y-134237593D01*
X136884711Y-134133289D01*
X136780407Y-134047688D01*
X136661406Y-133984081D01*
X136652000Y-133981228D01*
X136652000Y-128905000D01*
X136649560Y-128880224D01*
X136642333Y-128856399D01*
X136630597Y-128834443D01*
X136614803Y-128815197D01*
X136595557Y-128799403D01*
X136573601Y-128787667D01*
X136549776Y-128780440D01*
X136525000Y-128778000D01*
X126365000Y-128778000D01*
X126340224Y-128780440D01*
X126316399Y-128787667D01*
X126294443Y-128799403D01*
X126275197Y-128815197D01*
X126259403Y-128834443D01*
X126247667Y-128856399D01*
X126240440Y-128880224D01*
X126238000Y-128905000D01*
X126238000Y-147828000D01*
X78946736Y-147828000D01*
X75692000Y-144573264D01*
X75692000Y-140374000D01*
X79029928Y-140374000D01*
X79029928Y-142074000D01*
X79042188Y-142198482D01*
X79078498Y-142318180D01*
X79137463Y-142428494D01*
X79216815Y-142525185D01*
X79313506Y-142604537D01*
X79423820Y-142663502D01*
X79543518Y-142699812D01*
X79668000Y-142712072D01*
X81368000Y-142712072D01*
X81492482Y-142699812D01*
X81612180Y-142663502D01*
X81722494Y-142604537D01*
X81819185Y-142525185D01*
X81898537Y-142428494D01*
X81957502Y-142318180D01*
X81993812Y-142198482D01*
X82006072Y-142074000D01*
X82006072Y-140374000D01*
X81993812Y-140249518D01*
X81957502Y-140129820D01*
X81898537Y-140019506D01*
X81819185Y-139922815D01*
X81722494Y-139843463D01*
X81612180Y-139784498D01*
X81531534Y-139760034D01*
X81615588Y-139684269D01*
X81789641Y-139450920D01*
X81914825Y-139188099D01*
X81959476Y-139040890D01*
X81838155Y-138811000D01*
X80645000Y-138811000D01*
X80645000Y-138831000D01*
X80391000Y-138831000D01*
X80391000Y-138811000D01*
X79197845Y-138811000D01*
X79076524Y-139040890D01*
X79121175Y-139188099D01*
X79246359Y-139450920D01*
X79420412Y-139684269D01*
X79504466Y-139760034D01*
X79423820Y-139784498D01*
X79313506Y-139843463D01*
X79216815Y-139922815D01*
X79137463Y-140019506D01*
X79078498Y-140129820D01*
X79042188Y-140249518D01*
X79029928Y-140374000D01*
X75692000Y-140374000D01*
X75692000Y-133604000D01*
X79025815Y-133604000D01*
X79054487Y-133895111D01*
X79139401Y-134175034D01*
X79277294Y-134433014D01*
X79462866Y-134659134D01*
X79688986Y-134844706D01*
X79743791Y-134874000D01*
X79688986Y-134903294D01*
X79462866Y-135088866D01*
X79277294Y-135314986D01*
X79139401Y-135572966D01*
X79054487Y-135852889D01*
X79025815Y-136144000D01*
X79054487Y-136435111D01*
X79139401Y-136715034D01*
X79277294Y-136973014D01*
X79462866Y-137199134D01*
X79688986Y-137384706D01*
X79753523Y-137419201D01*
X79636645Y-137488822D01*
X79420412Y-137683731D01*
X79246359Y-137917080D01*
X79121175Y-138179901D01*
X79076524Y-138327110D01*
X79197845Y-138557000D01*
X80391000Y-138557000D01*
X80391000Y-138537000D01*
X80645000Y-138537000D01*
X80645000Y-138557000D01*
X81838155Y-138557000D01*
X81959476Y-138327110D01*
X81914825Y-138179901D01*
X81789641Y-137917080D01*
X81615588Y-137683731D01*
X81399355Y-137488822D01*
X81282477Y-137419201D01*
X81347014Y-137384706D01*
X81573134Y-137199134D01*
X81758706Y-136973014D01*
X81896599Y-136715034D01*
X81981513Y-136435111D01*
X82010185Y-136144000D01*
X81981513Y-135852889D01*
X81896599Y-135572966D01*
X81758706Y-135314986D01*
X81573134Y-135088866D01*
X81347014Y-134903294D01*
X81292209Y-134874000D01*
X81347014Y-134844706D01*
X81573134Y-134659134D01*
X81758706Y-134433014D01*
X81896599Y-134175034D01*
X81981513Y-133895111D01*
X82010185Y-133604000D01*
X81981513Y-133312889D01*
X81896599Y-133032966D01*
X81758706Y-132774986D01*
X81573134Y-132548866D01*
X81347014Y-132363294D01*
X81089034Y-132225401D01*
X80809111Y-132140487D01*
X80590950Y-132119000D01*
X80445050Y-132119000D01*
X80226889Y-132140487D01*
X79946966Y-132225401D01*
X79688986Y-132363294D01*
X79462866Y-132548866D01*
X79277294Y-132774986D01*
X79139401Y-133032966D01*
X79054487Y-133312889D01*
X79025815Y-133604000D01*
X75692000Y-133604000D01*
X75692000Y-126059652D01*
X79159100Y-126059652D01*
X79159100Y-126352348D01*
X79216202Y-126639421D01*
X79328212Y-126909838D01*
X79490826Y-127153206D01*
X79697794Y-127360174D01*
X79941162Y-127522788D01*
X80211579Y-127634798D01*
X80498652Y-127691900D01*
X80791348Y-127691900D01*
X81078421Y-127634798D01*
X81348838Y-127522788D01*
X81592206Y-127360174D01*
X81799174Y-127153206D01*
X81961788Y-126909838D01*
X82073798Y-126639421D01*
X82130900Y-126352348D01*
X82130900Y-126059652D01*
X82079451Y-125801000D01*
X82125279Y-125801000D01*
X82537756Y-125718953D01*
X82926302Y-125558012D01*
X83232708Y-125353279D01*
X83197127Y-125439178D01*
X83096100Y-125947076D01*
X83096100Y-126464924D01*
X83197127Y-126972822D01*
X83395299Y-127451251D01*
X83683000Y-127881826D01*
X84049174Y-128248000D01*
X84479749Y-128535701D01*
X84958178Y-128733873D01*
X85466076Y-128834900D01*
X85983924Y-128834900D01*
X86491822Y-128733873D01*
X86970251Y-128535701D01*
X87400826Y-128248000D01*
X87767000Y-127881826D01*
X88054701Y-127451251D01*
X88252873Y-126972822D01*
X88353900Y-126464924D01*
X88353900Y-125947076D01*
X88252873Y-125439178D01*
X88054701Y-124960749D01*
X87767000Y-124530174D01*
X87400826Y-124164000D01*
X86970251Y-123876299D01*
X86491822Y-123678127D01*
X85983924Y-123577100D01*
X85466076Y-123577100D01*
X84958178Y-123678127D01*
X84479749Y-123876299D01*
X84049174Y-124164000D01*
X83978763Y-124234411D01*
X84050000Y-123876279D01*
X84050000Y-123455721D01*
X83967953Y-123043244D01*
X83807012Y-122654698D01*
X83573363Y-122305017D01*
X83275983Y-122007637D01*
X82926302Y-121773988D01*
X82537756Y-121613047D01*
X82125279Y-121531000D01*
X81704721Y-121531000D01*
X81292244Y-121613047D01*
X80903698Y-121773988D01*
X80554017Y-122007637D01*
X80256637Y-122305017D01*
X80022988Y-122654698D01*
X79862047Y-123043244D01*
X79780000Y-123455721D01*
X79780000Y-123876279D01*
X79862047Y-124288756D01*
X80022988Y-124677302D01*
X80116150Y-124816730D01*
X79941162Y-124889212D01*
X79697794Y-125051826D01*
X79490826Y-125258794D01*
X79328212Y-125502162D01*
X79216202Y-125772579D01*
X79159100Y-126059652D01*
X75692000Y-126059652D01*
X75692000Y-120915721D01*
X86130000Y-120915721D01*
X86130000Y-121336279D01*
X86212047Y-121748756D01*
X86372988Y-122137302D01*
X86606637Y-122486983D01*
X86904017Y-122784363D01*
X87253698Y-123018012D01*
X87642244Y-123178953D01*
X88054721Y-123261000D01*
X88475279Y-123261000D01*
X88887756Y-123178953D01*
X89276302Y-123018012D01*
X89625983Y-122784363D01*
X89923363Y-122486983D01*
X90157012Y-122137302D01*
X90317953Y-121748756D01*
X90400000Y-121336279D01*
X90400000Y-120915721D01*
X90317953Y-120503244D01*
X90157012Y-120114698D01*
X89923363Y-119765017D01*
X89625983Y-119467637D01*
X89276302Y-119233988D01*
X88887756Y-119073047D01*
X88475279Y-118991000D01*
X88054721Y-118991000D01*
X87642244Y-119073047D01*
X87253698Y-119233988D01*
X86904017Y-119467637D01*
X86606637Y-119765017D01*
X86372988Y-120114698D01*
X86212047Y-120503244D01*
X86130000Y-120915721D01*
X75692000Y-120915721D01*
X75692000Y-112025721D01*
X81050000Y-112025721D01*
X81050000Y-112446279D01*
X81132047Y-112858756D01*
X81292988Y-113247302D01*
X81526637Y-113596983D01*
X81824017Y-113894363D01*
X82173698Y-114128012D01*
X82562244Y-114288953D01*
X82974721Y-114371000D01*
X83395279Y-114371000D01*
X83807756Y-114288953D01*
X84196302Y-114128012D01*
X84545983Y-113894363D01*
X84843363Y-113596983D01*
X85077012Y-113247302D01*
X85237953Y-112858756D01*
X85320000Y-112446279D01*
X85320000Y-112025721D01*
X85237953Y-111613244D01*
X85077012Y-111224698D01*
X84843363Y-110875017D01*
X84545983Y-110577637D01*
X84196302Y-110343988D01*
X83807756Y-110183047D01*
X83395279Y-110101000D01*
X82974721Y-110101000D01*
X82562244Y-110183047D01*
X82173698Y-110343988D01*
X81824017Y-110577637D01*
X81526637Y-110875017D01*
X81292988Y-111224698D01*
X81132047Y-111613244D01*
X81050000Y-112025721D01*
X75692000Y-112025721D01*
X75692000Y-107009652D01*
X79159100Y-107009652D01*
X79159100Y-107302348D01*
X79216202Y-107589421D01*
X79328212Y-107859838D01*
X79490826Y-108103206D01*
X79697794Y-108310174D01*
X79941162Y-108472788D01*
X80211579Y-108584798D01*
X80498652Y-108641900D01*
X80791348Y-108641900D01*
X81078421Y-108584798D01*
X81348838Y-108472788D01*
X81592206Y-108310174D01*
X81799174Y-108103206D01*
X81961788Y-107859838D01*
X82073798Y-107589421D01*
X82130900Y-107302348D01*
X82130900Y-107009652D01*
X82073798Y-106722579D01*
X81961788Y-106452162D01*
X81799174Y-106208794D01*
X81592206Y-106001826D01*
X81348838Y-105839212D01*
X81078421Y-105727202D01*
X80791348Y-105670100D01*
X80498652Y-105670100D01*
X80211579Y-105727202D01*
X79941162Y-105839212D01*
X79697794Y-106001826D01*
X79490826Y-106208794D01*
X79328212Y-106452162D01*
X79216202Y-106722579D01*
X79159100Y-107009652D01*
X75692000Y-107009652D01*
X75692000Y-87959852D01*
X79159100Y-87959852D01*
X79159100Y-88252548D01*
X79216202Y-88539621D01*
X79328212Y-88810038D01*
X79490826Y-89053406D01*
X79697794Y-89260374D01*
X79941162Y-89422988D01*
X80211579Y-89534998D01*
X80498652Y-89592100D01*
X80791348Y-89592100D01*
X81078421Y-89534998D01*
X81348838Y-89422988D01*
X81592206Y-89260374D01*
X81799174Y-89053406D01*
X81961788Y-88810038D01*
X82073798Y-88539621D01*
X82130900Y-88252548D01*
X82130900Y-87959852D01*
X82079451Y-87701200D01*
X82125279Y-87701200D01*
X82537756Y-87619153D01*
X82926302Y-87458212D01*
X83232708Y-87253479D01*
X83197127Y-87339378D01*
X83096100Y-87847276D01*
X83096100Y-88365124D01*
X83197127Y-88873022D01*
X83395299Y-89351451D01*
X83683000Y-89782026D01*
X84049174Y-90148200D01*
X84479749Y-90435901D01*
X84958178Y-90634073D01*
X85466076Y-90735100D01*
X85983924Y-90735100D01*
X86491822Y-90634073D01*
X86970251Y-90435901D01*
X87400826Y-90148200D01*
X87767000Y-89782026D01*
X88054701Y-89351451D01*
X88252873Y-88873022D01*
X88353900Y-88365124D01*
X88353900Y-87847276D01*
X88252873Y-87339378D01*
X88054701Y-86860949D01*
X87767000Y-86430374D01*
X87400826Y-86064200D01*
X86970251Y-85776499D01*
X86491822Y-85578327D01*
X85983924Y-85477300D01*
X85466076Y-85477300D01*
X84958178Y-85578327D01*
X84479749Y-85776499D01*
X84049174Y-86064200D01*
X83978763Y-86134611D01*
X84050000Y-85776479D01*
X84050000Y-85355921D01*
X83967953Y-84943444D01*
X83807012Y-84554898D01*
X83573363Y-84205217D01*
X83275983Y-83907837D01*
X82926302Y-83674188D01*
X82537756Y-83513247D01*
X82125279Y-83431200D01*
X81704721Y-83431200D01*
X81292244Y-83513247D01*
X80903698Y-83674188D01*
X80554017Y-83907837D01*
X80256637Y-84205217D01*
X80022988Y-84554898D01*
X79862047Y-84943444D01*
X79780000Y-85355921D01*
X79780000Y-85776479D01*
X79862047Y-86188956D01*
X80022988Y-86577502D01*
X80116150Y-86716930D01*
X79941162Y-86789412D01*
X79697794Y-86952026D01*
X79490826Y-87158994D01*
X79328212Y-87402362D01*
X79216202Y-87672779D01*
X79159100Y-87959852D01*
X75692000Y-87959852D01*
X75692000Y-82815921D01*
X86130000Y-82815921D01*
X86130000Y-83236479D01*
X86212047Y-83648956D01*
X86372988Y-84037502D01*
X86606637Y-84387183D01*
X86904017Y-84684563D01*
X87253698Y-84918212D01*
X87642244Y-85079153D01*
X88054721Y-85161200D01*
X88475279Y-85161200D01*
X88887756Y-85079153D01*
X89276302Y-84918212D01*
X89625983Y-84684563D01*
X89923363Y-84387183D01*
X90157012Y-84037502D01*
X90317953Y-83648956D01*
X90400000Y-83236479D01*
X90400000Y-82815921D01*
X90317953Y-82403444D01*
X90157012Y-82014898D01*
X89923363Y-81665217D01*
X89625983Y-81367837D01*
X89276302Y-81134188D01*
X88887756Y-80973247D01*
X88475279Y-80891200D01*
X88054721Y-80891200D01*
X87642244Y-80973247D01*
X87253698Y-81134188D01*
X86904017Y-81367837D01*
X86606637Y-81665217D01*
X86372988Y-82014898D01*
X86212047Y-82403444D01*
X86130000Y-82815921D01*
X75692000Y-82815921D01*
X75692000Y-73925921D01*
X81050000Y-73925921D01*
X81050000Y-74346479D01*
X81132047Y-74758956D01*
X81292988Y-75147502D01*
X81526637Y-75497183D01*
X81824017Y-75794563D01*
X82173698Y-76028212D01*
X82562244Y-76189153D01*
X82974721Y-76271200D01*
X83395279Y-76271200D01*
X83807756Y-76189153D01*
X84196302Y-76028212D01*
X84545983Y-75794563D01*
X84843363Y-75497183D01*
X85077012Y-75147502D01*
X85237953Y-74758956D01*
X85320000Y-74346479D01*
X85320000Y-73925921D01*
X85237953Y-73513444D01*
X85077012Y-73124898D01*
X84843363Y-72775217D01*
X84545983Y-72477837D01*
X84196302Y-72244188D01*
X83807756Y-72083247D01*
X83395279Y-72001200D01*
X82974721Y-72001200D01*
X82562244Y-72083247D01*
X82173698Y-72244188D01*
X81824017Y-72477837D01*
X81526637Y-72775217D01*
X81292988Y-73124898D01*
X81132047Y-73513444D01*
X81050000Y-73925921D01*
X75692000Y-73925921D01*
X75692000Y-68909852D01*
X79159100Y-68909852D01*
X79159100Y-69202548D01*
X79216202Y-69489621D01*
X79328212Y-69760038D01*
X79490826Y-70003406D01*
X79697794Y-70210374D01*
X79941162Y-70372988D01*
X80211579Y-70484998D01*
X80498652Y-70542100D01*
X80791348Y-70542100D01*
X81078421Y-70484998D01*
X81348838Y-70372988D01*
X81592206Y-70210374D01*
X81799174Y-70003406D01*
X81961788Y-69760038D01*
X82073798Y-69489621D01*
X82130900Y-69202548D01*
X82130900Y-68909852D01*
X82108508Y-68797276D01*
X83096100Y-68797276D01*
X83096100Y-69315124D01*
X83197127Y-69823022D01*
X83395299Y-70301451D01*
X83683000Y-70732026D01*
X84049174Y-71098200D01*
X84479749Y-71385901D01*
X84958178Y-71584073D01*
X85466076Y-71685100D01*
X85983924Y-71685100D01*
X86491822Y-71584073D01*
X86970251Y-71385901D01*
X87400826Y-71098200D01*
X87471237Y-71027789D01*
X87400000Y-71385921D01*
X87400000Y-71806479D01*
X87482047Y-72218956D01*
X87642988Y-72607502D01*
X87876637Y-72957183D01*
X88174017Y-73254563D01*
X88523698Y-73488212D01*
X88912244Y-73649153D01*
X89324721Y-73731200D01*
X89745279Y-73731200D01*
X90157756Y-73649153D01*
X90546302Y-73488212D01*
X90895983Y-73254563D01*
X91193363Y-72957183D01*
X91229600Y-72902950D01*
X91229601Y-86675648D01*
X90951348Y-86620300D01*
X90658652Y-86620300D01*
X90371579Y-86677402D01*
X90101162Y-86789412D01*
X89857794Y-86952026D01*
X89650826Y-87158994D01*
X89488212Y-87402362D01*
X89376202Y-87672779D01*
X89319100Y-87959852D01*
X89319100Y-88252548D01*
X89376202Y-88539621D01*
X89488212Y-88810038D01*
X89650826Y-89053406D01*
X89857794Y-89260374D01*
X90101162Y-89422988D01*
X90371579Y-89534998D01*
X90658652Y-89592100D01*
X90951348Y-89592100D01*
X91229601Y-89536752D01*
X91229601Y-89982767D01*
X91225924Y-90020100D01*
X91229601Y-90057433D01*
X91240598Y-90169086D01*
X91253780Y-90212542D01*
X91284054Y-90312346D01*
X91354626Y-90444376D01*
X91390675Y-90488301D01*
X91449600Y-90560101D01*
X91478598Y-90583899D01*
X92140101Y-91245402D01*
X92163899Y-91274401D01*
X92279624Y-91369374D01*
X92411653Y-91439946D01*
X92554914Y-91483403D01*
X92666567Y-91494400D01*
X92666575Y-91494400D01*
X92703900Y-91498076D01*
X92741225Y-91494400D01*
X92877598Y-91494400D01*
X85283212Y-99088787D01*
X85276239Y-99087400D01*
X85072361Y-99087400D01*
X84872402Y-99127174D01*
X84684044Y-99205195D01*
X84514526Y-99318463D01*
X84370363Y-99462626D01*
X84257095Y-99632144D01*
X84179074Y-99820502D01*
X84139300Y-100020461D01*
X84139300Y-100224339D01*
X84179074Y-100424298D01*
X84257095Y-100612656D01*
X84370363Y-100782174D01*
X84514526Y-100926337D01*
X84684044Y-101039605D01*
X84872402Y-101117626D01*
X85072361Y-101157400D01*
X85276239Y-101157400D01*
X85476198Y-101117626D01*
X85664556Y-101039605D01*
X85834074Y-100926337D01*
X85978237Y-100782174D01*
X86091505Y-100612656D01*
X86169526Y-100424298D01*
X86187459Y-100334142D01*
X89947022Y-96574579D01*
X89954701Y-96593118D01*
X89954700Y-104032678D01*
X89951024Y-104070000D01*
X89954700Y-104107322D01*
X89954700Y-104107332D01*
X89965697Y-104218985D01*
X89980722Y-104268515D01*
X90009154Y-104362246D01*
X90079726Y-104494276D01*
X90119571Y-104542826D01*
X90174699Y-104610001D01*
X90203703Y-104633804D01*
X91230001Y-105660103D01*
X91230001Y-105725527D01*
X90951348Y-105670100D01*
X90658652Y-105670100D01*
X90371579Y-105727202D01*
X90101162Y-105839212D01*
X89857794Y-106001826D01*
X89650826Y-106208794D01*
X89488212Y-106452162D01*
X89376202Y-106722579D01*
X89319100Y-107009652D01*
X89319100Y-107302348D01*
X89370549Y-107561000D01*
X89324721Y-107561000D01*
X88912244Y-107643047D01*
X88523698Y-107803988D01*
X88217292Y-108008721D01*
X88252873Y-107922822D01*
X88353900Y-107414924D01*
X88353900Y-106897076D01*
X88252873Y-106389178D01*
X88054701Y-105910749D01*
X87767000Y-105480174D01*
X87400826Y-105114000D01*
X86970251Y-104826299D01*
X86491822Y-104628127D01*
X85983924Y-104527100D01*
X85466076Y-104527100D01*
X84958178Y-104628127D01*
X84479749Y-104826299D01*
X84049174Y-105114000D01*
X83683000Y-105480174D01*
X83395299Y-105910749D01*
X83197127Y-106389178D01*
X83096100Y-106897076D01*
X83096100Y-107414924D01*
X83197127Y-107922822D01*
X83395299Y-108401251D01*
X83683000Y-108831826D01*
X84049174Y-109198000D01*
X84479749Y-109485701D01*
X84958178Y-109683873D01*
X85466076Y-109784900D01*
X85983924Y-109784900D01*
X86491822Y-109683873D01*
X86970251Y-109485701D01*
X87400826Y-109198000D01*
X87471237Y-109127589D01*
X87400000Y-109485721D01*
X87400000Y-109906279D01*
X87482047Y-110318756D01*
X87642988Y-110707302D01*
X87876637Y-111056983D01*
X88174017Y-111354363D01*
X88523698Y-111588012D01*
X88912244Y-111748953D01*
X89324721Y-111831000D01*
X89745279Y-111831000D01*
X90157756Y-111748953D01*
X90546302Y-111588012D01*
X90895983Y-111354363D01*
X91193363Y-111056983D01*
X91230001Y-111002151D01*
X91230000Y-124775527D01*
X90951348Y-124720100D01*
X90658652Y-124720100D01*
X90371579Y-124777202D01*
X90101162Y-124889212D01*
X89857794Y-125051826D01*
X89650826Y-125258794D01*
X89488212Y-125502162D01*
X89376202Y-125772579D01*
X89319100Y-126059652D01*
X89319100Y-126352348D01*
X89376202Y-126639421D01*
X89488212Y-126909838D01*
X89650826Y-127153206D01*
X89857794Y-127360174D01*
X90101162Y-127522788D01*
X90371579Y-127634798D01*
X90658652Y-127691900D01*
X90951348Y-127691900D01*
X91230000Y-127636473D01*
X91230000Y-132325898D01*
X89658998Y-133896901D01*
X89630000Y-133920699D01*
X89606202Y-133949697D01*
X89606201Y-133949698D01*
X89535026Y-134036424D01*
X89475425Y-134147928D01*
X89320000Y-134147928D01*
X89195518Y-134160188D01*
X89075820Y-134196498D01*
X88965506Y-134255463D01*
X88868815Y-134334815D01*
X88789463Y-134431506D01*
X88730498Y-134541820D01*
X88694188Y-134661518D01*
X88681928Y-134786000D01*
X88681928Y-136486000D01*
X88694188Y-136610482D01*
X88730498Y-136730180D01*
X88789463Y-136840494D01*
X88868815Y-136937185D01*
X88965506Y-137016537D01*
X89075820Y-137075502D01*
X89195518Y-137111812D01*
X89320000Y-137124072D01*
X91020000Y-137124072D01*
X91144482Y-137111812D01*
X91264180Y-137075502D01*
X91374494Y-137016537D01*
X91471185Y-136937185D01*
X91550537Y-136840494D01*
X91609502Y-136730180D01*
X91630393Y-136661313D01*
X91654866Y-136691134D01*
X91880986Y-136876706D01*
X92138966Y-137014599D01*
X92418889Y-137099513D01*
X92637050Y-137121000D01*
X92782950Y-137121000D01*
X93001111Y-137099513D01*
X93281034Y-137014599D01*
X93539014Y-136876706D01*
X93765134Y-136691134D01*
X93950706Y-136465014D01*
X93980000Y-136410209D01*
X94009294Y-136465014D01*
X94194866Y-136691134D01*
X94420986Y-136876706D01*
X94678966Y-137014599D01*
X94958889Y-137099513D01*
X95177050Y-137121000D01*
X95322950Y-137121000D01*
X95541111Y-137099513D01*
X95821034Y-137014599D01*
X96079014Y-136876706D01*
X96305134Y-136691134D01*
X96490706Y-136465014D01*
X96520000Y-136410209D01*
X96549294Y-136465014D01*
X96734866Y-136691134D01*
X96960986Y-136876706D01*
X97218966Y-137014599D01*
X97498889Y-137099513D01*
X97717050Y-137121000D01*
X97862950Y-137121000D01*
X98081111Y-137099513D01*
X98355200Y-137016369D01*
X98355201Y-141846788D01*
X98311263Y-141890726D01*
X98197995Y-142060244D01*
X98119974Y-142248602D01*
X98080200Y-142448561D01*
X98080200Y-142652439D01*
X98119974Y-142852398D01*
X98197995Y-143040756D01*
X98311263Y-143210274D01*
X98455426Y-143354437D01*
X98624944Y-143467705D01*
X98813302Y-143545726D01*
X99013261Y-143585500D01*
X99217139Y-143585500D01*
X99417098Y-143545726D01*
X99605456Y-143467705D01*
X99774974Y-143354437D01*
X99919137Y-143210274D01*
X100032405Y-143040756D01*
X100110426Y-142852398D01*
X100150200Y-142652439D01*
X100150200Y-142448561D01*
X100110426Y-142248602D01*
X100032405Y-142060244D01*
X99919137Y-141890726D01*
X99875200Y-141846789D01*
X99875200Y-133209723D01*
X99878876Y-133172400D01*
X99875200Y-133135077D01*
X99875200Y-133135067D01*
X99864203Y-133023414D01*
X99820746Y-132880153D01*
X99750174Y-132748124D01*
X99655201Y-132632399D01*
X99626204Y-132608602D01*
X99225200Y-132207599D01*
X99225200Y-127619729D01*
X99261579Y-127634798D01*
X99548652Y-127691900D01*
X99841348Y-127691900D01*
X100128421Y-127634798D01*
X100398838Y-127522788D01*
X100642206Y-127360174D01*
X100849174Y-127153206D01*
X101011788Y-126909838D01*
X101123798Y-126639421D01*
X101180900Y-126352348D01*
X101180900Y-126059652D01*
X101129451Y-125801000D01*
X101175279Y-125801000D01*
X101587756Y-125718953D01*
X101976302Y-125558012D01*
X102282708Y-125353279D01*
X102247127Y-125439178D01*
X102146100Y-125947076D01*
X102146100Y-126464924D01*
X102247127Y-126972822D01*
X102445299Y-127451251D01*
X102733000Y-127881826D01*
X103099174Y-128248000D01*
X103529749Y-128535701D01*
X104008178Y-128733873D01*
X104516076Y-128834900D01*
X105033924Y-128834900D01*
X105541822Y-128733873D01*
X106020251Y-128535701D01*
X106450826Y-128248000D01*
X106817000Y-127881826D01*
X107104701Y-127451251D01*
X107302873Y-126972822D01*
X107403900Y-126464924D01*
X107403900Y-126059652D01*
X108369100Y-126059652D01*
X108369100Y-126352348D01*
X108426202Y-126639421D01*
X108538212Y-126909838D01*
X108700826Y-127153206D01*
X108907794Y-127360174D01*
X109151162Y-127522788D01*
X109421579Y-127634798D01*
X109708652Y-127691900D01*
X110001348Y-127691900D01*
X110288421Y-127634798D01*
X110558838Y-127522788D01*
X110802206Y-127360174D01*
X111009174Y-127153206D01*
X111171788Y-126909838D01*
X111283798Y-126639421D01*
X111340900Y-126352348D01*
X111340900Y-126059652D01*
X111283798Y-125772579D01*
X111171788Y-125502162D01*
X111009174Y-125258794D01*
X110802206Y-125051826D01*
X110558838Y-124889212D01*
X110288421Y-124777202D01*
X110001348Y-124720100D01*
X109708652Y-124720100D01*
X109421579Y-124777202D01*
X109151162Y-124889212D01*
X108907794Y-125051826D01*
X108700826Y-125258794D01*
X108538212Y-125502162D01*
X108426202Y-125772579D01*
X108369100Y-126059652D01*
X107403900Y-126059652D01*
X107403900Y-125947076D01*
X107302873Y-125439178D01*
X107104701Y-124960749D01*
X106817000Y-124530174D01*
X106450826Y-124164000D01*
X106020251Y-123876299D01*
X105541822Y-123678127D01*
X105033924Y-123577100D01*
X104516076Y-123577100D01*
X104008178Y-123678127D01*
X103529749Y-123876299D01*
X103099174Y-124164000D01*
X103028763Y-124234411D01*
X103100000Y-123876279D01*
X103100000Y-123455721D01*
X103017953Y-123043244D01*
X102857012Y-122654698D01*
X102623363Y-122305017D01*
X102325983Y-122007637D01*
X101976302Y-121773988D01*
X101587756Y-121613047D01*
X101175279Y-121531000D01*
X100754721Y-121531000D01*
X100342244Y-121613047D01*
X99953698Y-121773988D01*
X99604017Y-122007637D01*
X99306637Y-122305017D01*
X99225200Y-122426896D01*
X99225200Y-120915721D01*
X105180000Y-120915721D01*
X105180000Y-121336279D01*
X105262047Y-121748756D01*
X105422988Y-122137302D01*
X105656637Y-122486983D01*
X105954017Y-122784363D01*
X106303698Y-123018012D01*
X106692244Y-123178953D01*
X107104721Y-123261000D01*
X107525279Y-123261000D01*
X107937756Y-123178953D01*
X108326302Y-123018012D01*
X108675983Y-122784363D01*
X108973363Y-122486983D01*
X109207012Y-122137302D01*
X109367953Y-121748756D01*
X109450000Y-121336279D01*
X109450000Y-120915721D01*
X109367953Y-120503244D01*
X109207012Y-120114698D01*
X108973363Y-119765017D01*
X108675983Y-119467637D01*
X108326302Y-119233988D01*
X107937756Y-119073047D01*
X107525279Y-118991000D01*
X107104721Y-118991000D01*
X106692244Y-119073047D01*
X106303698Y-119233988D01*
X105954017Y-119467637D01*
X105656637Y-119765017D01*
X105422988Y-120114698D01*
X105262047Y-120503244D01*
X105180000Y-120915721D01*
X99225200Y-120915721D01*
X99225200Y-112025721D01*
X100100000Y-112025721D01*
X100100000Y-112446279D01*
X100182047Y-112858756D01*
X100342988Y-113247302D01*
X100576637Y-113596983D01*
X100874017Y-113894363D01*
X101223698Y-114128012D01*
X101612244Y-114288953D01*
X102024721Y-114371000D01*
X102445279Y-114371000D01*
X102857756Y-114288953D01*
X103246302Y-114128012D01*
X103595983Y-113894363D01*
X103893363Y-113596983D01*
X104127012Y-113247302D01*
X104287953Y-112858756D01*
X104370000Y-112446279D01*
X104370000Y-112025721D01*
X104287953Y-111613244D01*
X104127012Y-111224698D01*
X103893363Y-110875017D01*
X103595983Y-110577637D01*
X103246302Y-110343988D01*
X102857756Y-110183047D01*
X102445279Y-110101000D01*
X102024721Y-110101000D01*
X101612244Y-110183047D01*
X101223698Y-110343988D01*
X100874017Y-110577637D01*
X100576637Y-110875017D01*
X100342988Y-111224698D01*
X100182047Y-111613244D01*
X100100000Y-112025721D01*
X99225200Y-112025721D01*
X99225200Y-108569729D01*
X99261579Y-108584798D01*
X99548652Y-108641900D01*
X99841348Y-108641900D01*
X100128421Y-108584798D01*
X100398838Y-108472788D01*
X100642206Y-108310174D01*
X100849174Y-108103206D01*
X101011788Y-107859838D01*
X101051023Y-107765117D01*
X101092426Y-107842576D01*
X101132271Y-107891126D01*
X101187399Y-107958301D01*
X101216403Y-107982104D01*
X115885301Y-122651003D01*
X115885300Y-144572389D01*
X115841363Y-144616326D01*
X115728095Y-144785844D01*
X115650074Y-144974202D01*
X115610300Y-145174161D01*
X115610300Y-145378039D01*
X115650074Y-145577998D01*
X115728095Y-145766356D01*
X115841363Y-145935874D01*
X115985526Y-146080037D01*
X116155044Y-146193305D01*
X116343402Y-146271326D01*
X116543361Y-146311100D01*
X116747239Y-146311100D01*
X116947198Y-146271326D01*
X117135556Y-146193305D01*
X117305074Y-146080037D01*
X117449237Y-145935874D01*
X117562505Y-145766356D01*
X117640526Y-145577998D01*
X117680300Y-145378039D01*
X117680300Y-145174161D01*
X117640526Y-144974202D01*
X117562505Y-144785844D01*
X117449237Y-144616326D01*
X117405300Y-144572389D01*
X117405300Y-126854523D01*
X117428212Y-126909838D01*
X117590826Y-127153206D01*
X117797794Y-127360174D01*
X118041162Y-127522788D01*
X118311579Y-127634798D01*
X118598652Y-127691900D01*
X118891348Y-127691900D01*
X119178421Y-127634798D01*
X119448838Y-127522788D01*
X119692206Y-127360174D01*
X119899174Y-127153206D01*
X120061788Y-126909838D01*
X120173798Y-126639421D01*
X120230900Y-126352348D01*
X120230900Y-126059652D01*
X120179451Y-125801000D01*
X120225279Y-125801000D01*
X120637756Y-125718953D01*
X121026302Y-125558012D01*
X121332708Y-125353279D01*
X121297127Y-125439178D01*
X121196100Y-125947076D01*
X121196100Y-126464924D01*
X121297127Y-126972822D01*
X121495299Y-127451251D01*
X121783000Y-127881826D01*
X122149174Y-128248000D01*
X122579749Y-128535701D01*
X123058178Y-128733873D01*
X123566076Y-128834900D01*
X124083924Y-128834900D01*
X124591822Y-128733873D01*
X125070251Y-128535701D01*
X125500826Y-128248000D01*
X125867000Y-127881826D01*
X126154701Y-127451251D01*
X126352873Y-126972822D01*
X126453900Y-126464924D01*
X126453900Y-126059652D01*
X127419100Y-126059652D01*
X127419100Y-126352348D01*
X127476202Y-126639421D01*
X127588212Y-126909838D01*
X127750826Y-127153206D01*
X127957794Y-127360174D01*
X128201162Y-127522788D01*
X128471579Y-127634798D01*
X128758652Y-127691900D01*
X129051348Y-127691900D01*
X129338421Y-127634798D01*
X129608838Y-127522788D01*
X129852206Y-127360174D01*
X130059174Y-127153206D01*
X130221788Y-126909838D01*
X130333798Y-126639421D01*
X130390900Y-126352348D01*
X130390900Y-126059652D01*
X136309100Y-126059652D01*
X136309100Y-126352348D01*
X136366202Y-126639421D01*
X136478212Y-126909838D01*
X136640826Y-127153206D01*
X136847794Y-127360174D01*
X137091162Y-127522788D01*
X137361579Y-127634798D01*
X137648652Y-127691900D01*
X137941348Y-127691900D01*
X138228421Y-127634798D01*
X138498838Y-127522788D01*
X138742206Y-127360174D01*
X138949174Y-127153206D01*
X139111788Y-126909838D01*
X139223798Y-126639421D01*
X139280900Y-126352348D01*
X139280900Y-126059652D01*
X139229451Y-125801000D01*
X139275279Y-125801000D01*
X139687756Y-125718953D01*
X140076302Y-125558012D01*
X140382708Y-125353279D01*
X140347127Y-125439178D01*
X140246100Y-125947076D01*
X140246100Y-126464924D01*
X140347127Y-126972822D01*
X140545299Y-127451251D01*
X140833000Y-127881826D01*
X141199174Y-128248000D01*
X141629749Y-128535701D01*
X142108178Y-128733873D01*
X142616076Y-128834900D01*
X143133924Y-128834900D01*
X143641822Y-128733873D01*
X144120251Y-128535701D01*
X144550826Y-128248000D01*
X144917000Y-127881826D01*
X145204701Y-127451251D01*
X145402873Y-126972822D01*
X145503900Y-126464924D01*
X145503900Y-126059652D01*
X146469100Y-126059652D01*
X146469100Y-126352348D01*
X146526202Y-126639421D01*
X146638212Y-126909838D01*
X146800826Y-127153206D01*
X147007794Y-127360174D01*
X147251162Y-127522788D01*
X147521579Y-127634798D01*
X147808652Y-127691900D01*
X148101348Y-127691900D01*
X148388421Y-127634798D01*
X148658838Y-127522788D01*
X148902206Y-127360174D01*
X149109174Y-127153206D01*
X149271788Y-126909838D01*
X149383798Y-126639421D01*
X149440900Y-126352348D01*
X149440900Y-126059652D01*
X149383798Y-125772579D01*
X149271788Y-125502162D01*
X149109174Y-125258794D01*
X148902206Y-125051826D01*
X148658838Y-124889212D01*
X148388421Y-124777202D01*
X148101348Y-124720100D01*
X147808652Y-124720100D01*
X147521579Y-124777202D01*
X147251162Y-124889212D01*
X147007794Y-125051826D01*
X146800826Y-125258794D01*
X146638212Y-125502162D01*
X146526202Y-125772579D01*
X146469100Y-126059652D01*
X145503900Y-126059652D01*
X145503900Y-125947076D01*
X145402873Y-125439178D01*
X145204701Y-124960749D01*
X144917000Y-124530174D01*
X144550826Y-124164000D01*
X144120251Y-123876299D01*
X143641822Y-123678127D01*
X143133924Y-123577100D01*
X142616076Y-123577100D01*
X142108178Y-123678127D01*
X141629749Y-123876299D01*
X141199174Y-124164000D01*
X141128763Y-124234411D01*
X141200000Y-123876279D01*
X141200000Y-123455721D01*
X141117953Y-123043244D01*
X140957012Y-122654698D01*
X140723363Y-122305017D01*
X140425983Y-122007637D01*
X140076302Y-121773988D01*
X139687756Y-121613047D01*
X139275279Y-121531000D01*
X138854721Y-121531000D01*
X138442244Y-121613047D01*
X138053698Y-121773988D01*
X137704017Y-122007637D01*
X137406637Y-122305017D01*
X137172988Y-122654698D01*
X137012047Y-123043244D01*
X136930000Y-123455721D01*
X136930000Y-123876279D01*
X137012047Y-124288756D01*
X137172988Y-124677302D01*
X137266150Y-124816730D01*
X137091162Y-124889212D01*
X136847794Y-125051826D01*
X136640826Y-125258794D01*
X136478212Y-125502162D01*
X136366202Y-125772579D01*
X136309100Y-126059652D01*
X130390900Y-126059652D01*
X130333798Y-125772579D01*
X130221788Y-125502162D01*
X130059174Y-125258794D01*
X129852206Y-125051826D01*
X129608838Y-124889212D01*
X129338421Y-124777202D01*
X129051348Y-124720100D01*
X128758652Y-124720100D01*
X128471579Y-124777202D01*
X128201162Y-124889212D01*
X127957794Y-125051826D01*
X127750826Y-125258794D01*
X127588212Y-125502162D01*
X127476202Y-125772579D01*
X127419100Y-126059652D01*
X126453900Y-126059652D01*
X126453900Y-125947076D01*
X126352873Y-125439178D01*
X126154701Y-124960749D01*
X125867000Y-124530174D01*
X125500826Y-124164000D01*
X125070251Y-123876299D01*
X124591822Y-123678127D01*
X124083924Y-123577100D01*
X123566076Y-123577100D01*
X123058178Y-123678127D01*
X122579749Y-123876299D01*
X122149174Y-124164000D01*
X122078763Y-124234411D01*
X122150000Y-123876279D01*
X122150000Y-123455721D01*
X122067953Y-123043244D01*
X121907012Y-122654698D01*
X121673363Y-122305017D01*
X121375983Y-122007637D01*
X121026302Y-121773988D01*
X120637756Y-121613047D01*
X120225279Y-121531000D01*
X119804721Y-121531000D01*
X119392244Y-121613047D01*
X119003698Y-121773988D01*
X118654017Y-122007637D01*
X118356637Y-122305017D01*
X118122988Y-122654698D01*
X117962047Y-123043244D01*
X117880000Y-123455721D01*
X117880000Y-123876279D01*
X117962047Y-124288756D01*
X118122988Y-124677302D01*
X118216150Y-124816730D01*
X118041162Y-124889212D01*
X117797794Y-125051826D01*
X117590826Y-125258794D01*
X117428212Y-125502162D01*
X117405300Y-125557477D01*
X117405300Y-122373533D01*
X117408977Y-122336200D01*
X117394303Y-122187214D01*
X117350846Y-122043953D01*
X117280274Y-121911924D01*
X117209099Y-121825197D01*
X117185301Y-121796199D01*
X117156303Y-121772401D01*
X116299623Y-120915721D01*
X124230000Y-120915721D01*
X124230000Y-121336279D01*
X124312047Y-121748756D01*
X124472988Y-122137302D01*
X124706637Y-122486983D01*
X125004017Y-122784363D01*
X125353698Y-123018012D01*
X125742244Y-123178953D01*
X126154721Y-123261000D01*
X126575279Y-123261000D01*
X126987756Y-123178953D01*
X127376302Y-123018012D01*
X127725983Y-122784363D01*
X128023363Y-122486983D01*
X128257012Y-122137302D01*
X128417953Y-121748756D01*
X128500000Y-121336279D01*
X128500000Y-120915721D01*
X143280000Y-120915721D01*
X143280000Y-121336279D01*
X143362047Y-121748756D01*
X143522988Y-122137302D01*
X143756637Y-122486983D01*
X144054017Y-122784363D01*
X144403698Y-123018012D01*
X144792244Y-123178953D01*
X145204721Y-123261000D01*
X145625279Y-123261000D01*
X146037756Y-123178953D01*
X146426302Y-123018012D01*
X146775983Y-122784363D01*
X147073363Y-122486983D01*
X147307012Y-122137302D01*
X147467953Y-121748756D01*
X147550000Y-121336279D01*
X147550000Y-120915721D01*
X147467953Y-120503244D01*
X147307012Y-120114698D01*
X147073363Y-119765017D01*
X146775983Y-119467637D01*
X146426302Y-119233988D01*
X146037756Y-119073047D01*
X145625279Y-118991000D01*
X145204721Y-118991000D01*
X144792244Y-119073047D01*
X144403698Y-119233988D01*
X144054017Y-119467637D01*
X143756637Y-119765017D01*
X143522988Y-120114698D01*
X143362047Y-120503244D01*
X143280000Y-120915721D01*
X128500000Y-120915721D01*
X128417953Y-120503244D01*
X128257012Y-120114698D01*
X128023363Y-119765017D01*
X127725983Y-119467637D01*
X127376302Y-119233988D01*
X126987756Y-119073047D01*
X126575279Y-118991000D01*
X126154721Y-118991000D01*
X125742244Y-119073047D01*
X125353698Y-119233988D01*
X125004017Y-119467637D01*
X124706637Y-119765017D01*
X124472988Y-120114698D01*
X124312047Y-120503244D01*
X124230000Y-120915721D01*
X116299623Y-120915721D01*
X107409623Y-112025721D01*
X119150000Y-112025721D01*
X119150000Y-112446279D01*
X119232047Y-112858756D01*
X119392988Y-113247302D01*
X119626637Y-113596983D01*
X119924017Y-113894363D01*
X120273698Y-114128012D01*
X120662244Y-114288953D01*
X121074721Y-114371000D01*
X121495279Y-114371000D01*
X121907756Y-114288953D01*
X122296302Y-114128012D01*
X122645983Y-113894363D01*
X122943363Y-113596983D01*
X123177012Y-113247302D01*
X123337953Y-112858756D01*
X123420000Y-112446279D01*
X123420000Y-112025721D01*
X138200000Y-112025721D01*
X138200000Y-112446279D01*
X138282047Y-112858756D01*
X138442988Y-113247302D01*
X138676637Y-113596983D01*
X138974017Y-113894363D01*
X139323698Y-114128012D01*
X139712244Y-114288953D01*
X140124721Y-114371000D01*
X140545279Y-114371000D01*
X140957756Y-114288953D01*
X141346302Y-114128012D01*
X141695983Y-113894363D01*
X141993363Y-113596983D01*
X142227012Y-113247302D01*
X142387953Y-112858756D01*
X142470000Y-112446279D01*
X142470000Y-112025721D01*
X142387953Y-111613244D01*
X142227012Y-111224698D01*
X141993363Y-110875017D01*
X141695983Y-110577637D01*
X141346302Y-110343988D01*
X140957756Y-110183047D01*
X140545279Y-110101000D01*
X140124721Y-110101000D01*
X139712244Y-110183047D01*
X139323698Y-110343988D01*
X138974017Y-110577637D01*
X138676637Y-110875017D01*
X138442988Y-111224698D01*
X138282047Y-111613244D01*
X138200000Y-112025721D01*
X123420000Y-112025721D01*
X123337953Y-111613244D01*
X123177012Y-111224698D01*
X122943363Y-110875017D01*
X122645983Y-110577637D01*
X122296302Y-110343988D01*
X121907756Y-110183047D01*
X121495279Y-110101000D01*
X121074721Y-110101000D01*
X120662244Y-110183047D01*
X120273698Y-110343988D01*
X119924017Y-110577637D01*
X119626637Y-110875017D01*
X119392988Y-111224698D01*
X119232047Y-111613244D01*
X119150000Y-112025721D01*
X107409623Y-112025721D01*
X105146424Y-109762522D01*
X105541822Y-109683873D01*
X106020251Y-109485701D01*
X106450826Y-109198000D01*
X106521237Y-109127589D01*
X106450000Y-109485721D01*
X106450000Y-109906279D01*
X106532047Y-110318756D01*
X106692988Y-110707302D01*
X106926637Y-111056983D01*
X107224017Y-111354363D01*
X107573698Y-111588012D01*
X107962244Y-111748953D01*
X108374721Y-111831000D01*
X108795279Y-111831000D01*
X109207756Y-111748953D01*
X109596302Y-111588012D01*
X109945983Y-111354363D01*
X110243363Y-111056983D01*
X110477012Y-110707302D01*
X110637953Y-110318756D01*
X110720000Y-109906279D01*
X110720000Y-109485721D01*
X110637953Y-109073244D01*
X110477012Y-108684698D01*
X110383850Y-108545270D01*
X110558838Y-108472788D01*
X110802206Y-108310174D01*
X111009174Y-108103206D01*
X111171788Y-107859838D01*
X111283798Y-107589421D01*
X111340900Y-107302348D01*
X111340900Y-107009652D01*
X111283798Y-106722579D01*
X111171788Y-106452162D01*
X111009174Y-106208794D01*
X110802206Y-106001826D01*
X110558838Y-105839212D01*
X110288421Y-105727202D01*
X110001348Y-105670100D01*
X109708652Y-105670100D01*
X109421579Y-105727202D01*
X109151162Y-105839212D01*
X108907794Y-106001826D01*
X108700826Y-106208794D01*
X108538212Y-106452162D01*
X108426202Y-106722579D01*
X108369100Y-107009652D01*
X108369100Y-107302348D01*
X108420549Y-107561000D01*
X108374721Y-107561000D01*
X107962244Y-107643047D01*
X107573698Y-107803988D01*
X107267292Y-108008721D01*
X107302873Y-107922822D01*
X107403900Y-107414924D01*
X107403900Y-106897076D01*
X107302873Y-106389178D01*
X107104701Y-105910749D01*
X106817000Y-105480174D01*
X106450826Y-105114000D01*
X106020251Y-104826299D01*
X105541822Y-104628127D01*
X105033924Y-104527100D01*
X104516076Y-104527100D01*
X104008178Y-104628127D01*
X103529749Y-104826299D01*
X103099174Y-105114000D01*
X102733000Y-105480174D01*
X102487400Y-105847740D01*
X102487400Y-103435111D01*
X102531337Y-103391174D01*
X102644605Y-103221656D01*
X102722626Y-103033298D01*
X102762400Y-102833339D01*
X102762400Y-102730100D01*
X109398199Y-102730100D01*
X109768600Y-103100502D01*
X109768600Y-103162639D01*
X109808374Y-103362598D01*
X109886395Y-103550956D01*
X109999663Y-103720474D01*
X110143826Y-103864637D01*
X110313344Y-103977905D01*
X110501702Y-104055926D01*
X110701661Y-104095700D01*
X110905539Y-104095700D01*
X111105498Y-104055926D01*
X111293856Y-103977905D01*
X111463374Y-103864637D01*
X111607537Y-103720474D01*
X111720805Y-103550956D01*
X111798826Y-103362598D01*
X111838600Y-103162639D01*
X111838600Y-102958761D01*
X111798826Y-102758802D01*
X111720805Y-102570444D01*
X111607537Y-102400926D01*
X111463374Y-102256763D01*
X111293856Y-102143495D01*
X111105498Y-102065474D01*
X110905539Y-102025700D01*
X110843402Y-102025700D01*
X110276804Y-101459102D01*
X110253001Y-101430099D01*
X110137276Y-101335126D01*
X110005247Y-101264554D01*
X109861986Y-101221097D01*
X109750333Y-101210100D01*
X109750322Y-101210100D01*
X109713000Y-101206424D01*
X109675678Y-101210100D01*
X100187502Y-101210100D01*
X98826556Y-99849155D01*
X98905337Y-99770374D01*
X99018605Y-99600856D01*
X99077904Y-99457697D01*
X105992602Y-92543000D01*
X108767278Y-92543000D01*
X108804600Y-92546676D01*
X108841922Y-92543000D01*
X108841933Y-92543000D01*
X108953586Y-92532003D01*
X109096847Y-92488546D01*
X109228876Y-92417974D01*
X109344601Y-92323001D01*
X109368404Y-92293997D01*
X111477840Y-90184561D01*
X115238500Y-90184561D01*
X115238500Y-90388439D01*
X115278274Y-90588398D01*
X115356295Y-90776756D01*
X115469563Y-90946274D01*
X115513500Y-90990211D01*
X115513501Y-108364867D01*
X115509824Y-108402200D01*
X115524498Y-108551185D01*
X115567954Y-108694446D01*
X115638526Y-108826476D01*
X115709701Y-108913202D01*
X115733500Y-108942201D01*
X115762498Y-108965999D01*
X115853900Y-109057401D01*
X115853900Y-109119539D01*
X115893674Y-109319498D01*
X115971695Y-109507856D01*
X116084963Y-109677374D01*
X116229126Y-109821537D01*
X116398644Y-109934805D01*
X116587002Y-110012826D01*
X116786961Y-110052600D01*
X116990839Y-110052600D01*
X117190798Y-110012826D01*
X117379156Y-109934805D01*
X117548674Y-109821537D01*
X117692837Y-109677374D01*
X117806105Y-109507856D01*
X117884126Y-109319498D01*
X117923900Y-109119539D01*
X117923900Y-108915661D01*
X117884126Y-108715702D01*
X117806105Y-108527344D01*
X117692837Y-108357826D01*
X117548674Y-108213663D01*
X117379156Y-108100395D01*
X117190798Y-108022374D01*
X117033500Y-107991086D01*
X117033500Y-107009652D01*
X117259100Y-107009652D01*
X117259100Y-107302348D01*
X117316202Y-107589421D01*
X117428212Y-107859838D01*
X117590826Y-108103206D01*
X117797794Y-108310174D01*
X118041162Y-108472788D01*
X118311579Y-108584798D01*
X118598652Y-108641900D01*
X118891348Y-108641900D01*
X119178421Y-108584798D01*
X119448838Y-108472788D01*
X119692206Y-108310174D01*
X119899174Y-108103206D01*
X120061788Y-107859838D01*
X120173798Y-107589421D01*
X120230900Y-107302348D01*
X120230900Y-107009652D01*
X120208508Y-106897076D01*
X121196100Y-106897076D01*
X121196100Y-107414924D01*
X121297127Y-107922822D01*
X121495299Y-108401251D01*
X121783000Y-108831826D01*
X122149174Y-109198000D01*
X122579749Y-109485701D01*
X123058178Y-109683873D01*
X123566076Y-109784900D01*
X124083924Y-109784900D01*
X124591822Y-109683873D01*
X125070251Y-109485701D01*
X125500826Y-109198000D01*
X125571237Y-109127589D01*
X125500000Y-109485721D01*
X125500000Y-109906279D01*
X125582047Y-110318756D01*
X125742988Y-110707302D01*
X125976637Y-111056983D01*
X126274017Y-111354363D01*
X126623698Y-111588012D01*
X127012244Y-111748953D01*
X127424721Y-111831000D01*
X127845279Y-111831000D01*
X128257756Y-111748953D01*
X128646302Y-111588012D01*
X128995983Y-111354363D01*
X129293363Y-111056983D01*
X129527012Y-110707302D01*
X129687953Y-110318756D01*
X129770000Y-109906279D01*
X129770000Y-109485721D01*
X129687953Y-109073244D01*
X129527012Y-108684698D01*
X129433850Y-108545270D01*
X129608838Y-108472788D01*
X129852206Y-108310174D01*
X130059174Y-108103206D01*
X130221788Y-107859838D01*
X130333798Y-107589421D01*
X130390900Y-107302348D01*
X130390900Y-107009652D01*
X136309100Y-107009652D01*
X136309100Y-107302348D01*
X136366202Y-107589421D01*
X136478212Y-107859838D01*
X136640826Y-108103206D01*
X136847794Y-108310174D01*
X137091162Y-108472788D01*
X137361579Y-108584798D01*
X137648652Y-108641900D01*
X137941348Y-108641900D01*
X138228421Y-108584798D01*
X138498838Y-108472788D01*
X138742206Y-108310174D01*
X138949174Y-108103206D01*
X139111788Y-107859838D01*
X139223798Y-107589421D01*
X139280900Y-107302348D01*
X139280900Y-107009652D01*
X139258508Y-106897076D01*
X140246100Y-106897076D01*
X140246100Y-107414924D01*
X140347127Y-107922822D01*
X140545299Y-108401251D01*
X140833000Y-108831826D01*
X141199174Y-109198000D01*
X141629749Y-109485701D01*
X142108178Y-109683873D01*
X142616076Y-109784900D01*
X143133924Y-109784900D01*
X143641822Y-109683873D01*
X144120251Y-109485701D01*
X144550826Y-109198000D01*
X144621237Y-109127589D01*
X144550000Y-109485721D01*
X144550000Y-109906279D01*
X144632047Y-110318756D01*
X144792988Y-110707302D01*
X145026637Y-111056983D01*
X145324017Y-111354363D01*
X145673698Y-111588012D01*
X146062244Y-111748953D01*
X146474721Y-111831000D01*
X146895279Y-111831000D01*
X147307756Y-111748953D01*
X147696302Y-111588012D01*
X148045983Y-111354363D01*
X148343363Y-111056983D01*
X148577012Y-110707302D01*
X148737953Y-110318756D01*
X148820000Y-109906279D01*
X148820000Y-109485721D01*
X148737953Y-109073244D01*
X148577012Y-108684698D01*
X148483850Y-108545270D01*
X148658838Y-108472788D01*
X148902206Y-108310174D01*
X149109174Y-108103206D01*
X149271788Y-107859838D01*
X149383798Y-107589421D01*
X149440900Y-107302348D01*
X149440900Y-107009652D01*
X149383798Y-106722579D01*
X149271788Y-106452162D01*
X149109174Y-106208794D01*
X148902206Y-106001826D01*
X148658838Y-105839212D01*
X148388421Y-105727202D01*
X148101348Y-105670100D01*
X147808652Y-105670100D01*
X147521579Y-105727202D01*
X147251162Y-105839212D01*
X147007794Y-106001826D01*
X146800826Y-106208794D01*
X146638212Y-106452162D01*
X146526202Y-106722579D01*
X146469100Y-107009652D01*
X146469100Y-107302348D01*
X146520549Y-107561000D01*
X146474721Y-107561000D01*
X146062244Y-107643047D01*
X145673698Y-107803988D01*
X145367292Y-108008721D01*
X145402873Y-107922822D01*
X145503900Y-107414924D01*
X145503900Y-106897076D01*
X145402873Y-106389178D01*
X145204701Y-105910749D01*
X144917000Y-105480174D01*
X144550826Y-105114000D01*
X144120251Y-104826299D01*
X143641822Y-104628127D01*
X143133924Y-104527100D01*
X142616076Y-104527100D01*
X142108178Y-104628127D01*
X141629749Y-104826299D01*
X141199174Y-105114000D01*
X140833000Y-105480174D01*
X140545299Y-105910749D01*
X140347127Y-106389178D01*
X140246100Y-106897076D01*
X139258508Y-106897076D01*
X139223798Y-106722579D01*
X139111788Y-106452162D01*
X138949174Y-106208794D01*
X138742206Y-106001826D01*
X138498838Y-105839212D01*
X138228421Y-105727202D01*
X137941348Y-105670100D01*
X137648652Y-105670100D01*
X137361579Y-105727202D01*
X137091162Y-105839212D01*
X136847794Y-106001826D01*
X136640826Y-106208794D01*
X136478212Y-106452162D01*
X136366202Y-106722579D01*
X136309100Y-107009652D01*
X130390900Y-107009652D01*
X130333798Y-106722579D01*
X130221788Y-106452162D01*
X130059174Y-106208794D01*
X129852206Y-106001826D01*
X129608838Y-105839212D01*
X129338421Y-105727202D01*
X129051348Y-105670100D01*
X128758652Y-105670100D01*
X128471579Y-105727202D01*
X128201162Y-105839212D01*
X127957794Y-106001826D01*
X127750826Y-106208794D01*
X127588212Y-106452162D01*
X127476202Y-106722579D01*
X127419100Y-107009652D01*
X127419100Y-107302348D01*
X127470549Y-107561000D01*
X127424721Y-107561000D01*
X127012244Y-107643047D01*
X126623698Y-107803988D01*
X126317292Y-108008721D01*
X126352873Y-107922822D01*
X126453900Y-107414924D01*
X126453900Y-106897076D01*
X126352873Y-106389178D01*
X126154701Y-105910749D01*
X125867000Y-105480174D01*
X125500826Y-105114000D01*
X125070251Y-104826299D01*
X124591822Y-104628127D01*
X124083924Y-104527100D01*
X123566076Y-104527100D01*
X123058178Y-104628127D01*
X122579749Y-104826299D01*
X122149174Y-105114000D01*
X121783000Y-105480174D01*
X121495299Y-105910749D01*
X121297127Y-106389178D01*
X121196100Y-106897076D01*
X120208508Y-106897076D01*
X120173798Y-106722579D01*
X120061788Y-106452162D01*
X119899174Y-106208794D01*
X119692206Y-106001826D01*
X119448838Y-105839212D01*
X119178421Y-105727202D01*
X118891348Y-105670100D01*
X118598652Y-105670100D01*
X118311579Y-105727202D01*
X118041162Y-105839212D01*
X117797794Y-106001826D01*
X117590826Y-106208794D01*
X117428212Y-106452162D01*
X117316202Y-106722579D01*
X117259100Y-107009652D01*
X117033500Y-107009652D01*
X117033500Y-90990211D01*
X117077437Y-90946274D01*
X117190705Y-90776756D01*
X117268726Y-90588398D01*
X117308500Y-90388439D01*
X117308500Y-90184561D01*
X117268726Y-89984602D01*
X117190705Y-89796244D01*
X117077437Y-89626726D01*
X116933274Y-89482563D01*
X116763756Y-89369295D01*
X116575398Y-89291274D01*
X116375439Y-89251500D01*
X116171561Y-89251500D01*
X115971602Y-89291274D01*
X115783244Y-89369295D01*
X115613726Y-89482563D01*
X115469563Y-89626726D01*
X115356295Y-89796244D01*
X115278274Y-89984602D01*
X115238500Y-90184561D01*
X111477840Y-90184561D01*
X113702549Y-87959852D01*
X117259100Y-87959852D01*
X117259100Y-88252548D01*
X117316202Y-88539621D01*
X117428212Y-88810038D01*
X117590826Y-89053406D01*
X117797794Y-89260374D01*
X118041162Y-89422988D01*
X118311579Y-89534998D01*
X118598652Y-89592100D01*
X118891348Y-89592100D01*
X119178421Y-89534998D01*
X119448838Y-89422988D01*
X119692206Y-89260374D01*
X119899174Y-89053406D01*
X120061788Y-88810038D01*
X120173798Y-88539621D01*
X120230900Y-88252548D01*
X120230900Y-87959852D01*
X120179451Y-87701200D01*
X120225279Y-87701200D01*
X120637756Y-87619153D01*
X121026302Y-87458212D01*
X121332708Y-87253479D01*
X121297127Y-87339378D01*
X121196100Y-87847276D01*
X121196100Y-88365124D01*
X121297127Y-88873022D01*
X121495299Y-89351451D01*
X121783000Y-89782026D01*
X122149174Y-90148200D01*
X122579749Y-90435901D01*
X123058178Y-90634073D01*
X123566076Y-90735100D01*
X124083924Y-90735100D01*
X124591822Y-90634073D01*
X125070251Y-90435901D01*
X125500826Y-90148200D01*
X125867000Y-89782026D01*
X126154701Y-89351451D01*
X126352873Y-88873022D01*
X126453900Y-88365124D01*
X126453900Y-87959852D01*
X127419100Y-87959852D01*
X127419100Y-88252548D01*
X127476202Y-88539621D01*
X127588212Y-88810038D01*
X127750826Y-89053406D01*
X127957794Y-89260374D01*
X128201162Y-89422988D01*
X128471579Y-89534998D01*
X128758652Y-89592100D01*
X129051348Y-89592100D01*
X129338421Y-89534998D01*
X129608838Y-89422988D01*
X129852206Y-89260374D01*
X130059174Y-89053406D01*
X130221788Y-88810038D01*
X130333798Y-88539621D01*
X130390900Y-88252548D01*
X130390900Y-87959852D01*
X136309100Y-87959852D01*
X136309100Y-88252548D01*
X136366202Y-88539621D01*
X136478212Y-88810038D01*
X136640826Y-89053406D01*
X136847794Y-89260374D01*
X137091162Y-89422988D01*
X137361579Y-89534998D01*
X137648652Y-89592100D01*
X137941348Y-89592100D01*
X138228421Y-89534998D01*
X138498838Y-89422988D01*
X138742206Y-89260374D01*
X138949174Y-89053406D01*
X139111788Y-88810038D01*
X139223798Y-88539621D01*
X139280900Y-88252548D01*
X139280900Y-87959852D01*
X139229451Y-87701200D01*
X139275279Y-87701200D01*
X139687756Y-87619153D01*
X140076302Y-87458212D01*
X140382708Y-87253479D01*
X140347127Y-87339378D01*
X140246100Y-87847276D01*
X140246100Y-88365124D01*
X140347127Y-88873022D01*
X140545299Y-89351451D01*
X140833000Y-89782026D01*
X141199174Y-90148200D01*
X141629749Y-90435901D01*
X142108178Y-90634073D01*
X142616076Y-90735100D01*
X143133924Y-90735100D01*
X143641822Y-90634073D01*
X144120251Y-90435901D01*
X144550826Y-90148200D01*
X144917000Y-89782026D01*
X145204701Y-89351451D01*
X145402873Y-88873022D01*
X145503900Y-88365124D01*
X145503900Y-87959852D01*
X146469100Y-87959852D01*
X146469100Y-88252548D01*
X146526202Y-88539621D01*
X146638212Y-88810038D01*
X146800826Y-89053406D01*
X147007794Y-89260374D01*
X147251162Y-89422988D01*
X147521579Y-89534998D01*
X147808652Y-89592100D01*
X148101348Y-89592100D01*
X148388421Y-89534998D01*
X148658838Y-89422988D01*
X148902206Y-89260374D01*
X149109174Y-89053406D01*
X149271788Y-88810038D01*
X149383798Y-88539621D01*
X149440900Y-88252548D01*
X149440900Y-87959852D01*
X149383798Y-87672779D01*
X149271788Y-87402362D01*
X149109174Y-87158994D01*
X148902206Y-86952026D01*
X148658838Y-86789412D01*
X148388421Y-86677402D01*
X148101348Y-86620300D01*
X147808652Y-86620300D01*
X147521579Y-86677402D01*
X147251162Y-86789412D01*
X147007794Y-86952026D01*
X146800826Y-87158994D01*
X146638212Y-87402362D01*
X146526202Y-87672779D01*
X146469100Y-87959852D01*
X145503900Y-87959852D01*
X145503900Y-87847276D01*
X145402873Y-87339378D01*
X145204701Y-86860949D01*
X144917000Y-86430374D01*
X144550826Y-86064200D01*
X144120251Y-85776499D01*
X143641822Y-85578327D01*
X143133924Y-85477300D01*
X142616076Y-85477300D01*
X142108178Y-85578327D01*
X141629749Y-85776499D01*
X141199174Y-86064200D01*
X141128763Y-86134611D01*
X141200000Y-85776479D01*
X141200000Y-85355921D01*
X141117953Y-84943444D01*
X140957012Y-84554898D01*
X140723363Y-84205217D01*
X140425983Y-83907837D01*
X140076302Y-83674188D01*
X139687756Y-83513247D01*
X139275279Y-83431200D01*
X138854721Y-83431200D01*
X138442244Y-83513247D01*
X138053698Y-83674188D01*
X137704017Y-83907837D01*
X137406637Y-84205217D01*
X137172988Y-84554898D01*
X137012047Y-84943444D01*
X136930000Y-85355921D01*
X136930000Y-85776479D01*
X137012047Y-86188956D01*
X137172988Y-86577502D01*
X137266150Y-86716930D01*
X137091162Y-86789412D01*
X136847794Y-86952026D01*
X136640826Y-87158994D01*
X136478212Y-87402362D01*
X136366202Y-87672779D01*
X136309100Y-87959852D01*
X130390900Y-87959852D01*
X130333798Y-87672779D01*
X130221788Y-87402362D01*
X130059174Y-87158994D01*
X129852206Y-86952026D01*
X129608838Y-86789412D01*
X129338421Y-86677402D01*
X129051348Y-86620300D01*
X128758652Y-86620300D01*
X128471579Y-86677402D01*
X128201162Y-86789412D01*
X127957794Y-86952026D01*
X127750826Y-87158994D01*
X127588212Y-87402362D01*
X127476202Y-87672779D01*
X127419100Y-87959852D01*
X126453900Y-87959852D01*
X126453900Y-87847276D01*
X126352873Y-87339378D01*
X126154701Y-86860949D01*
X125867000Y-86430374D01*
X125500826Y-86064200D01*
X125070251Y-85776499D01*
X124591822Y-85578327D01*
X124083924Y-85477300D01*
X123566076Y-85477300D01*
X123058178Y-85578327D01*
X122579749Y-85776499D01*
X122149174Y-86064200D01*
X122078763Y-86134611D01*
X122150000Y-85776479D01*
X122150000Y-85355921D01*
X122067953Y-84943444D01*
X121907012Y-84554898D01*
X121673363Y-84205217D01*
X121375983Y-83907837D01*
X121026302Y-83674188D01*
X120637756Y-83513247D01*
X120225279Y-83431200D01*
X119804721Y-83431200D01*
X119392244Y-83513247D01*
X119003698Y-83674188D01*
X118654017Y-83907837D01*
X118356637Y-84205217D01*
X118122988Y-84554898D01*
X117962047Y-84943444D01*
X117880000Y-85355921D01*
X117880000Y-85776479D01*
X117962047Y-86188956D01*
X118122988Y-86577502D01*
X118216150Y-86716930D01*
X118041162Y-86789412D01*
X117797794Y-86952026D01*
X117590826Y-87158994D01*
X117428212Y-87402362D01*
X117316202Y-87672779D01*
X117259100Y-87959852D01*
X113702549Y-87959852D01*
X118846480Y-82815921D01*
X124230000Y-82815921D01*
X124230000Y-83236479D01*
X124312047Y-83648956D01*
X124472988Y-84037502D01*
X124706637Y-84387183D01*
X125004017Y-84684563D01*
X125353698Y-84918212D01*
X125742244Y-85079153D01*
X126154721Y-85161200D01*
X126575279Y-85161200D01*
X126987756Y-85079153D01*
X127376302Y-84918212D01*
X127725983Y-84684563D01*
X128023363Y-84387183D01*
X128257012Y-84037502D01*
X128417953Y-83648956D01*
X128500000Y-83236479D01*
X128500000Y-82815921D01*
X143280000Y-82815921D01*
X143280000Y-83236479D01*
X143362047Y-83648956D01*
X143522988Y-84037502D01*
X143756637Y-84387183D01*
X144054017Y-84684563D01*
X144403698Y-84918212D01*
X144792244Y-85079153D01*
X145204721Y-85161200D01*
X145625279Y-85161200D01*
X146037756Y-85079153D01*
X146426302Y-84918212D01*
X146775983Y-84684563D01*
X147073363Y-84387183D01*
X147307012Y-84037502D01*
X147467953Y-83648956D01*
X147550000Y-83236479D01*
X147550000Y-82815921D01*
X147467953Y-82403444D01*
X147307012Y-82014898D01*
X147073363Y-81665217D01*
X146775983Y-81367837D01*
X146426302Y-81134188D01*
X146037756Y-80973247D01*
X145625279Y-80891200D01*
X145204721Y-80891200D01*
X144792244Y-80973247D01*
X144403698Y-81134188D01*
X144054017Y-81367837D01*
X143756637Y-81665217D01*
X143522988Y-82014898D01*
X143362047Y-82403444D01*
X143280000Y-82815921D01*
X128500000Y-82815921D01*
X128417953Y-82403444D01*
X128257012Y-82014898D01*
X128023363Y-81665217D01*
X127725983Y-81367837D01*
X127376302Y-81134188D01*
X126987756Y-80973247D01*
X126575279Y-80891200D01*
X126154721Y-80891200D01*
X125742244Y-80973247D01*
X125353698Y-81134188D01*
X125004017Y-81367837D01*
X124706637Y-81665217D01*
X124472988Y-82014898D01*
X124312047Y-82403444D01*
X124230000Y-82815921D01*
X118846480Y-82815921D01*
X120064002Y-81598400D01*
X123458578Y-81598400D01*
X123495900Y-81602076D01*
X123533222Y-81598400D01*
X123533233Y-81598400D01*
X123644886Y-81587403D01*
X123788147Y-81543946D01*
X123920176Y-81473374D01*
X124035901Y-81378401D01*
X124059704Y-81349397D01*
X131483180Y-73925921D01*
X138200000Y-73925921D01*
X138200000Y-74346479D01*
X138282047Y-74758956D01*
X138442988Y-75147502D01*
X138676637Y-75497183D01*
X138974017Y-75794563D01*
X139323698Y-76028212D01*
X139712244Y-76189153D01*
X140124721Y-76271200D01*
X140545279Y-76271200D01*
X140957756Y-76189153D01*
X141346302Y-76028212D01*
X141695983Y-75794563D01*
X141993363Y-75497183D01*
X142227012Y-75147502D01*
X142387953Y-74758956D01*
X142470000Y-74346479D01*
X142470000Y-73925921D01*
X142387953Y-73513444D01*
X142227012Y-73124898D01*
X141993363Y-72775217D01*
X141695983Y-72477837D01*
X141346302Y-72244188D01*
X140957756Y-72083247D01*
X140545279Y-72001200D01*
X140124721Y-72001200D01*
X139712244Y-72083247D01*
X139323698Y-72244188D01*
X138974017Y-72477837D01*
X138676637Y-72775217D01*
X138442988Y-73124898D01*
X138282047Y-73513444D01*
X138200000Y-73925921D01*
X131483180Y-73925921D01*
X136309100Y-69100002D01*
X136309100Y-69202548D01*
X136366202Y-69489621D01*
X136478212Y-69760038D01*
X136640826Y-70003406D01*
X136847794Y-70210374D01*
X137091162Y-70372988D01*
X137361579Y-70484998D01*
X137648652Y-70542100D01*
X137941348Y-70542100D01*
X138228421Y-70484998D01*
X138498838Y-70372988D01*
X138742206Y-70210374D01*
X138949174Y-70003406D01*
X139111788Y-69760038D01*
X139223798Y-69489621D01*
X139280900Y-69202548D01*
X139280900Y-68909852D01*
X139258508Y-68797276D01*
X140246100Y-68797276D01*
X140246100Y-69315124D01*
X140347127Y-69823022D01*
X140545299Y-70301451D01*
X140833000Y-70732026D01*
X141199174Y-71098200D01*
X141629749Y-71385901D01*
X142108178Y-71584073D01*
X142616076Y-71685100D01*
X143133924Y-71685100D01*
X143641822Y-71584073D01*
X144120251Y-71385901D01*
X144550826Y-71098200D01*
X144621237Y-71027789D01*
X144550000Y-71385921D01*
X144550000Y-71806479D01*
X144632047Y-72218956D01*
X144792988Y-72607502D01*
X145026637Y-72957183D01*
X145324017Y-73254563D01*
X145673698Y-73488212D01*
X146062244Y-73649153D01*
X146474721Y-73731200D01*
X146895279Y-73731200D01*
X147307756Y-73649153D01*
X147696302Y-73488212D01*
X148045983Y-73254563D01*
X148343363Y-72957183D01*
X148577012Y-72607502D01*
X148737953Y-72218956D01*
X148820000Y-71806479D01*
X148820000Y-71385921D01*
X148737953Y-70973444D01*
X148577012Y-70584898D01*
X148483850Y-70445470D01*
X148658838Y-70372988D01*
X148902206Y-70210374D01*
X149109174Y-70003406D01*
X149271788Y-69760038D01*
X149383798Y-69489621D01*
X149440900Y-69202548D01*
X149440900Y-68909852D01*
X149383798Y-68622779D01*
X149271788Y-68352362D01*
X149109174Y-68108994D01*
X148902206Y-67902026D01*
X148658838Y-67739412D01*
X148388421Y-67627402D01*
X148101348Y-67570300D01*
X147808652Y-67570300D01*
X147521579Y-67627402D01*
X147251162Y-67739412D01*
X147007794Y-67902026D01*
X146800826Y-68108994D01*
X146638212Y-68352362D01*
X146526202Y-68622779D01*
X146469100Y-68909852D01*
X146469100Y-69202548D01*
X146520549Y-69461200D01*
X146474721Y-69461200D01*
X146062244Y-69543247D01*
X145673698Y-69704188D01*
X145367292Y-69908921D01*
X145402873Y-69823022D01*
X145503900Y-69315124D01*
X145503900Y-68797276D01*
X145402873Y-68289378D01*
X145204701Y-67810949D01*
X144917000Y-67380374D01*
X144550826Y-67014200D01*
X144120251Y-66726499D01*
X143641822Y-66528327D01*
X143133924Y-66427300D01*
X142616076Y-66427300D01*
X142108178Y-66528327D01*
X141629749Y-66726499D01*
X141199174Y-67014200D01*
X140833000Y-67380374D01*
X140545299Y-67810949D01*
X140347127Y-68289378D01*
X140246100Y-68797276D01*
X139258508Y-68797276D01*
X139223798Y-68622779D01*
X139111788Y-68352362D01*
X138949174Y-68108994D01*
X138742206Y-67902026D01*
X138498838Y-67739412D01*
X138228421Y-67627402D01*
X137941348Y-67570300D01*
X137838802Y-67570300D01*
X139973802Y-65435300D01*
X141930178Y-65435300D01*
X141967500Y-65438976D01*
X142004822Y-65435300D01*
X142004833Y-65435300D01*
X142116486Y-65424303D01*
X142259747Y-65380846D01*
X142391776Y-65310274D01*
X142507501Y-65215301D01*
X142531304Y-65186297D01*
X142845697Y-64871904D01*
X142874701Y-64848101D01*
X142876899Y-64845423D01*
X142938966Y-64878599D01*
X143218889Y-64963513D01*
X143437050Y-64985000D01*
X143582950Y-64985000D01*
X143801111Y-64963513D01*
X144081034Y-64878599D01*
X144339014Y-64740706D01*
X144565134Y-64555134D01*
X144750706Y-64329014D01*
X144785201Y-64264477D01*
X144854822Y-64381355D01*
X145049731Y-64597588D01*
X145283080Y-64771641D01*
X145545901Y-64896825D01*
X145693110Y-64941476D01*
X145923000Y-64820155D01*
X145923000Y-63627000D01*
X146177000Y-63627000D01*
X146177000Y-64820155D01*
X146406890Y-64941476D01*
X146554099Y-64896825D01*
X146816920Y-64771641D01*
X147050269Y-64597588D01*
X147245178Y-64381355D01*
X147394157Y-64131252D01*
X147491481Y-63856891D01*
X147370814Y-63627000D01*
X146177000Y-63627000D01*
X145923000Y-63627000D01*
X145903000Y-63627000D01*
X145903000Y-63373000D01*
X145923000Y-63373000D01*
X145923000Y-62179845D01*
X146177000Y-62179845D01*
X146177000Y-63373000D01*
X147370814Y-63373000D01*
X147491481Y-63143109D01*
X147394157Y-62868748D01*
X147245178Y-62618645D01*
X147050269Y-62402412D01*
X146816920Y-62228359D01*
X146554099Y-62103175D01*
X146406890Y-62058524D01*
X146177000Y-62179845D01*
X145923000Y-62179845D01*
X145693110Y-62058524D01*
X145545901Y-62103175D01*
X145283080Y-62228359D01*
X145049731Y-62402412D01*
X144854822Y-62618645D01*
X144785201Y-62735523D01*
X144750706Y-62670986D01*
X144565134Y-62444866D01*
X144339014Y-62259294D01*
X144081034Y-62121401D01*
X143801111Y-62036487D01*
X143582950Y-62015000D01*
X143437050Y-62015000D01*
X143218889Y-62036487D01*
X142938966Y-62121401D01*
X142680986Y-62259294D01*
X142454866Y-62444866D01*
X142430393Y-62474687D01*
X142409502Y-62405820D01*
X142350537Y-62295506D01*
X142271185Y-62198815D01*
X142174494Y-62119463D01*
X142064180Y-62060498D01*
X141944482Y-62024188D01*
X141820000Y-62011928D01*
X140120000Y-62011928D01*
X139995518Y-62024188D01*
X139875820Y-62060498D01*
X139765506Y-62119463D01*
X139668815Y-62198815D01*
X139589463Y-62295506D01*
X139530498Y-62405820D01*
X139494188Y-62525518D01*
X139481928Y-62650000D01*
X139481928Y-62805425D01*
X139370423Y-62865026D01*
X139292513Y-62928966D01*
X139254699Y-62959999D01*
X139230901Y-62988997D01*
X129355076Y-72864822D01*
X129527012Y-72607502D01*
X129687953Y-72218956D01*
X129770000Y-71806479D01*
X129770000Y-71385921D01*
X129687953Y-70973444D01*
X129527012Y-70584898D01*
X129433850Y-70445470D01*
X129608838Y-70372988D01*
X129852206Y-70210374D01*
X130059174Y-70003406D01*
X130221788Y-69760038D01*
X130333798Y-69489621D01*
X130390900Y-69202548D01*
X130390900Y-68909852D01*
X130333798Y-68622779D01*
X130221788Y-68352362D01*
X130059174Y-68108994D01*
X129852206Y-67902026D01*
X129608838Y-67739412D01*
X129338421Y-67627402D01*
X129051348Y-67570300D01*
X128758652Y-67570300D01*
X128471579Y-67627402D01*
X128201162Y-67739412D01*
X127957794Y-67902026D01*
X127750826Y-68108994D01*
X127588212Y-68352362D01*
X127476202Y-68622779D01*
X127419100Y-68909852D01*
X127419100Y-69202548D01*
X127470549Y-69461200D01*
X127424721Y-69461200D01*
X127012244Y-69543247D01*
X126623698Y-69704188D01*
X126317292Y-69908921D01*
X126352873Y-69823022D01*
X126453900Y-69315124D01*
X126453900Y-68797276D01*
X126352873Y-68289378D01*
X126154701Y-67810949D01*
X125867000Y-67380374D01*
X125500826Y-67014200D01*
X125070251Y-66726499D01*
X124591822Y-66528327D01*
X124083924Y-66427300D01*
X123566076Y-66427300D01*
X123058178Y-66528327D01*
X122579749Y-66726499D01*
X122149174Y-67014200D01*
X121783000Y-67380374D01*
X121495299Y-67810949D01*
X121297127Y-68289378D01*
X121196100Y-68797276D01*
X121196100Y-69315124D01*
X121297127Y-69823022D01*
X121495299Y-70301451D01*
X121783000Y-70732026D01*
X122149174Y-71098200D01*
X122579749Y-71385901D01*
X123058178Y-71584073D01*
X123566076Y-71685100D01*
X124083924Y-71685100D01*
X124591822Y-71584073D01*
X125070251Y-71385901D01*
X125500826Y-71098200D01*
X125571237Y-71027789D01*
X125500000Y-71385921D01*
X125500000Y-71806479D01*
X125582047Y-72218956D01*
X125742988Y-72607502D01*
X125976637Y-72957183D01*
X126274017Y-73254563D01*
X126623698Y-73488212D01*
X127012244Y-73649153D01*
X127424721Y-73731200D01*
X127845279Y-73731200D01*
X128257756Y-73649153D01*
X128646302Y-73488212D01*
X128903623Y-73316276D01*
X125295199Y-76924700D01*
X102764322Y-76924700D01*
X102726999Y-76921024D01*
X102689676Y-76924700D01*
X102689667Y-76924700D01*
X102578014Y-76935697D01*
X102434753Y-76979154D01*
X102302723Y-77049726D01*
X102219083Y-77118368D01*
X102186999Y-77144699D01*
X102163201Y-77173697D01*
X97488000Y-81848899D01*
X97488000Y-73925921D01*
X100100000Y-73925921D01*
X100100000Y-74346479D01*
X100182047Y-74758956D01*
X100342988Y-75147502D01*
X100576637Y-75497183D01*
X100874017Y-75794563D01*
X101223698Y-76028212D01*
X101612244Y-76189153D01*
X102024721Y-76271200D01*
X102445279Y-76271200D01*
X102857756Y-76189153D01*
X103246302Y-76028212D01*
X103595983Y-75794563D01*
X103893363Y-75497183D01*
X104127012Y-75147502D01*
X104287953Y-74758956D01*
X104370000Y-74346479D01*
X104370000Y-73925921D01*
X119150000Y-73925921D01*
X119150000Y-74346479D01*
X119232047Y-74758956D01*
X119392988Y-75147502D01*
X119626637Y-75497183D01*
X119924017Y-75794563D01*
X120273698Y-76028212D01*
X120662244Y-76189153D01*
X121074721Y-76271200D01*
X121495279Y-76271200D01*
X121907756Y-76189153D01*
X122296302Y-76028212D01*
X122645983Y-75794563D01*
X122943363Y-75497183D01*
X123177012Y-75147502D01*
X123337953Y-74758956D01*
X123420000Y-74346479D01*
X123420000Y-73925921D01*
X123337953Y-73513444D01*
X123177012Y-73124898D01*
X122943363Y-72775217D01*
X122645983Y-72477837D01*
X122296302Y-72244188D01*
X121907756Y-72083247D01*
X121495279Y-72001200D01*
X121074721Y-72001200D01*
X120662244Y-72083247D01*
X120273698Y-72244188D01*
X119924017Y-72477837D01*
X119626637Y-72775217D01*
X119392988Y-73124898D01*
X119232047Y-73513444D01*
X119150000Y-73925921D01*
X104370000Y-73925921D01*
X104287953Y-73513444D01*
X104127012Y-73124898D01*
X103893363Y-72775217D01*
X103595983Y-72477837D01*
X103246302Y-72244188D01*
X102857756Y-72083247D01*
X102445279Y-72001200D01*
X102024721Y-72001200D01*
X101612244Y-72083247D01*
X101223698Y-72244188D01*
X100874017Y-72477837D01*
X100576637Y-72775217D01*
X100342988Y-73124898D01*
X100182047Y-73513444D01*
X100100000Y-73925921D01*
X97488000Y-73925921D01*
X97488000Y-68909852D01*
X98209100Y-68909852D01*
X98209100Y-69202548D01*
X98266202Y-69489621D01*
X98378212Y-69760038D01*
X98540826Y-70003406D01*
X98747794Y-70210374D01*
X98991162Y-70372988D01*
X99261579Y-70484998D01*
X99548652Y-70542100D01*
X99841348Y-70542100D01*
X100128421Y-70484998D01*
X100398838Y-70372988D01*
X100642206Y-70210374D01*
X100849174Y-70003406D01*
X101011788Y-69760038D01*
X101123798Y-69489621D01*
X101180900Y-69202548D01*
X101180900Y-68909852D01*
X101158508Y-68797276D01*
X102146100Y-68797276D01*
X102146100Y-69315124D01*
X102247127Y-69823022D01*
X102445299Y-70301451D01*
X102733000Y-70732026D01*
X103099174Y-71098200D01*
X103529749Y-71385901D01*
X104008178Y-71584073D01*
X104516076Y-71685100D01*
X105033924Y-71685100D01*
X105541822Y-71584073D01*
X106020251Y-71385901D01*
X106450826Y-71098200D01*
X106521237Y-71027789D01*
X106450000Y-71385921D01*
X106450000Y-71806479D01*
X106532047Y-72218956D01*
X106692988Y-72607502D01*
X106926637Y-72957183D01*
X107224017Y-73254563D01*
X107573698Y-73488212D01*
X107962244Y-73649153D01*
X108374721Y-73731200D01*
X108795279Y-73731200D01*
X109207756Y-73649153D01*
X109596302Y-73488212D01*
X109945983Y-73254563D01*
X110243363Y-72957183D01*
X110477012Y-72607502D01*
X110637953Y-72218956D01*
X110720000Y-71806479D01*
X110720000Y-71385921D01*
X110637953Y-70973444D01*
X110477012Y-70584898D01*
X110383850Y-70445470D01*
X110558838Y-70372988D01*
X110802206Y-70210374D01*
X111009174Y-70003406D01*
X111171788Y-69760038D01*
X111283798Y-69489621D01*
X111340900Y-69202548D01*
X111340900Y-68909852D01*
X111283798Y-68622779D01*
X111171788Y-68352362D01*
X111009174Y-68108994D01*
X110802206Y-67902026D01*
X110558838Y-67739412D01*
X110288421Y-67627402D01*
X110001348Y-67570300D01*
X109708652Y-67570300D01*
X109421579Y-67627402D01*
X109151162Y-67739412D01*
X108907794Y-67902026D01*
X108700826Y-68108994D01*
X108538212Y-68352362D01*
X108426202Y-68622779D01*
X108369100Y-68909852D01*
X108369100Y-69202548D01*
X108420549Y-69461200D01*
X108374721Y-69461200D01*
X107962244Y-69543247D01*
X107573698Y-69704188D01*
X107267292Y-69908921D01*
X107302873Y-69823022D01*
X107403900Y-69315124D01*
X107403900Y-68797276D01*
X107302873Y-68289378D01*
X107104701Y-67810949D01*
X106817000Y-67380374D01*
X106450826Y-67014200D01*
X106020251Y-66726499D01*
X105541822Y-66528327D01*
X105033924Y-66427300D01*
X104516076Y-66427300D01*
X104008178Y-66528327D01*
X103529749Y-66726499D01*
X103099174Y-67014200D01*
X102733000Y-67380374D01*
X102445299Y-67810949D01*
X102247127Y-68289378D01*
X102146100Y-68797276D01*
X101158508Y-68797276D01*
X101123798Y-68622779D01*
X101011788Y-68352362D01*
X100849174Y-68108994D01*
X100642206Y-67902026D01*
X100398838Y-67739412D01*
X100128421Y-67627402D01*
X99841348Y-67570300D01*
X99548652Y-67570300D01*
X99261579Y-67627402D01*
X98991162Y-67739412D01*
X98747794Y-67902026D01*
X98540826Y-68108994D01*
X98378212Y-68352362D01*
X98266202Y-68622779D01*
X98209100Y-68909852D01*
X97488000Y-68909852D01*
X97488000Y-66100801D01*
X99111302Y-64477500D01*
X107320489Y-64477500D01*
X107364426Y-64521437D01*
X107533944Y-64634705D01*
X107722302Y-64712726D01*
X107922261Y-64752500D01*
X107984399Y-64752500D01*
X111359100Y-68127202D01*
X111359100Y-68189339D01*
X111398874Y-68389298D01*
X111476895Y-68577656D01*
X111590163Y-68747174D01*
X111734326Y-68891337D01*
X111903844Y-69004605D01*
X112092202Y-69082626D01*
X112292161Y-69122400D01*
X112496039Y-69122400D01*
X112695998Y-69082626D01*
X112884356Y-69004605D01*
X113026164Y-68909852D01*
X117259100Y-68909852D01*
X117259100Y-69202548D01*
X117316202Y-69489621D01*
X117428212Y-69760038D01*
X117590826Y-70003406D01*
X117797794Y-70210374D01*
X118041162Y-70372988D01*
X118311579Y-70484998D01*
X118598652Y-70542100D01*
X118891348Y-70542100D01*
X119178421Y-70484998D01*
X119448838Y-70372988D01*
X119692206Y-70210374D01*
X119899174Y-70003406D01*
X120061788Y-69760038D01*
X120173798Y-69489621D01*
X120230900Y-69202548D01*
X120230900Y-68909852D01*
X120173798Y-68622779D01*
X120061788Y-68352362D01*
X119899174Y-68108994D01*
X119692206Y-67902026D01*
X119448838Y-67739412D01*
X119178421Y-67627402D01*
X118891348Y-67570300D01*
X118598652Y-67570300D01*
X118311579Y-67627402D01*
X118041162Y-67739412D01*
X117797794Y-67902026D01*
X117590826Y-68108994D01*
X117428212Y-68352362D01*
X117316202Y-68622779D01*
X117259100Y-68909852D01*
X113026164Y-68909852D01*
X113053874Y-68891337D01*
X113198037Y-68747174D01*
X113311305Y-68577656D01*
X113389326Y-68389298D01*
X113429100Y-68189339D01*
X113429100Y-67985461D01*
X113389326Y-67785502D01*
X113311305Y-67597144D01*
X113198037Y-67427626D01*
X113053874Y-67283463D01*
X112884356Y-67170195D01*
X112695998Y-67092174D01*
X112496039Y-67052400D01*
X112433902Y-67052400D01*
X110723722Y-65342221D01*
X110853161Y-65216169D01*
X110980003Y-65031678D01*
X111068415Y-64825987D01*
X111115000Y-64607000D01*
X111115000Y-64316904D01*
X111129978Y-64323108D01*
X111315448Y-64360000D01*
X111504552Y-64360000D01*
X111690022Y-64323108D01*
X111864731Y-64250741D01*
X112021964Y-64145681D01*
X112155681Y-64011964D01*
X112260741Y-63854731D01*
X112333108Y-63680022D01*
X112370000Y-63494552D01*
X112370000Y-63305448D01*
X116230000Y-63305448D01*
X116230000Y-63494552D01*
X116266892Y-63680022D01*
X116339259Y-63854731D01*
X116444319Y-64011964D01*
X116578036Y-64145681D01*
X116735269Y-64250741D01*
X116909978Y-64323108D01*
X117095448Y-64360000D01*
X117284552Y-64360000D01*
X117470022Y-64323108D01*
X117485000Y-64316904D01*
X117485000Y-64607000D01*
X117531585Y-64825987D01*
X117619997Y-65031678D01*
X117746839Y-65216169D01*
X117907236Y-65372369D01*
X118095024Y-65494276D01*
X118318126Y-65574119D01*
X118493000Y-65447954D01*
X118493000Y-64057000D01*
X118747000Y-64057000D01*
X118747000Y-65447954D01*
X118921874Y-65574119D01*
X119144976Y-65494276D01*
X119332764Y-65372369D01*
X119493161Y-65216169D01*
X119620003Y-65031678D01*
X119708415Y-64825987D01*
X119755000Y-64607000D01*
X119755000Y-64057000D01*
X118747000Y-64057000D01*
X118493000Y-64057000D01*
X118473000Y-64057000D01*
X118473000Y-63803000D01*
X118493000Y-63803000D01*
X118493000Y-62412046D01*
X118747000Y-62412046D01*
X118747000Y-63803000D01*
X119755000Y-63803000D01*
X119755000Y-63253000D01*
X119708415Y-63034013D01*
X119620003Y-62828322D01*
X119493161Y-62643831D01*
X119332764Y-62487631D01*
X119144976Y-62365724D01*
X118921874Y-62285881D01*
X118747000Y-62412046D01*
X118493000Y-62412046D01*
X118318126Y-62285881D01*
X118095024Y-62365724D01*
X117907236Y-62487631D01*
X117762884Y-62628206D01*
X117644731Y-62549259D01*
X117470022Y-62476892D01*
X117284552Y-62440000D01*
X117095448Y-62440000D01*
X116909978Y-62476892D01*
X116735269Y-62549259D01*
X116578036Y-62654319D01*
X116444319Y-62788036D01*
X116339259Y-62945269D01*
X116266892Y-63119978D01*
X116230000Y-63305448D01*
X112370000Y-63305448D01*
X112333108Y-63119978D01*
X112260741Y-62945269D01*
X112155681Y-62788036D01*
X112021964Y-62654319D01*
X111864731Y-62549259D01*
X111690022Y-62476892D01*
X111504552Y-62440000D01*
X111315448Y-62440000D01*
X111129978Y-62476892D01*
X110955269Y-62549259D01*
X110837116Y-62628206D01*
X110692764Y-62487631D01*
X110504976Y-62365724D01*
X110281874Y-62285881D01*
X110107000Y-62412046D01*
X110107000Y-63803000D01*
X110127000Y-63803000D01*
X110127000Y-64057000D01*
X110107000Y-64057000D01*
X110107000Y-64077000D01*
X109853000Y-64077000D01*
X109853000Y-64057000D01*
X109833000Y-64057000D01*
X109833000Y-63803000D01*
X109853000Y-63803000D01*
X109853000Y-62412046D01*
X109678126Y-62285881D01*
X109455024Y-62365724D01*
X109267236Y-62487631D01*
X109106839Y-62643831D01*
X108979997Y-62828322D01*
X108891585Y-63034013D01*
X108872437Y-63124025D01*
X108828137Y-63057726D01*
X108683974Y-62913563D01*
X108514456Y-62800295D01*
X108326098Y-62722274D01*
X108126139Y-62682500D01*
X107922261Y-62682500D01*
X107722302Y-62722274D01*
X107533944Y-62800295D01*
X107364426Y-62913563D01*
X107320489Y-62957500D01*
X99380898Y-62957500D01*
X99336305Y-62849844D01*
X99223037Y-62680326D01*
X99078874Y-62536163D01*
X98909356Y-62422895D01*
X98720998Y-62344874D01*
X98521039Y-62305100D01*
X98317161Y-62305100D01*
X98117202Y-62344874D01*
X97928844Y-62422895D01*
X97759326Y-62536163D01*
X97615163Y-62680326D01*
X97501895Y-62849844D01*
X97423874Y-63038202D01*
X97384100Y-63238161D01*
X97384100Y-63442039D01*
X97423874Y-63641998D01*
X97501895Y-63830356D01*
X97544732Y-63894466D01*
X96216998Y-65222201D01*
X96188000Y-65245999D01*
X96164202Y-65274997D01*
X96164201Y-65274998D01*
X96093026Y-65361724D01*
X96022454Y-65493754D01*
X95978998Y-65637015D01*
X95964324Y-65786000D01*
X95968001Y-65823333D01*
X95968000Y-86408600D01*
X95852761Y-86408600D01*
X95652802Y-86448374D01*
X95464444Y-86526395D01*
X95294926Y-86639663D01*
X95150763Y-86783826D01*
X95037495Y-86953344D01*
X94959474Y-87141702D01*
X94919700Y-87341661D01*
X94919700Y-87545539D01*
X94959474Y-87745498D01*
X95037495Y-87933856D01*
X95150763Y-88103374D01*
X95194700Y-88147311D01*
X95194700Y-89692100D01*
X95121161Y-89692100D01*
X94921202Y-89731874D01*
X94732844Y-89809895D01*
X94563326Y-89923163D01*
X94481256Y-90005233D01*
X94427453Y-90021554D01*
X94382235Y-90045724D01*
X94266974Y-89930463D01*
X94097456Y-89817195D01*
X93970324Y-89764535D01*
X93946826Y-89646402D01*
X93868805Y-89458044D01*
X93755537Y-89288526D01*
X93711600Y-89244589D01*
X93711600Y-63576711D01*
X93755537Y-63532774D01*
X93868805Y-63363256D01*
X93946826Y-63174898D01*
X93986600Y-62974939D01*
X93986600Y-62771061D01*
X93946826Y-62571102D01*
X93868805Y-62382744D01*
X93755537Y-62213226D01*
X93611374Y-62069063D01*
X93441856Y-61955795D01*
X93253498Y-61877774D01*
X93053539Y-61838000D01*
X92849661Y-61838000D01*
X92649702Y-61877774D01*
X92461344Y-61955795D01*
X92291826Y-62069063D01*
X92147663Y-62213226D01*
X92034395Y-62382744D01*
X91956374Y-62571102D01*
X91916600Y-62771061D01*
X91916600Y-62974939D01*
X91956374Y-63174898D01*
X92034395Y-63363256D01*
X92147663Y-63532774D01*
X92191600Y-63576711D01*
X92191600Y-65724798D01*
X89300000Y-62833199D01*
X89300000Y-62771061D01*
X89260226Y-62571102D01*
X89182205Y-62382744D01*
X89068937Y-62213226D01*
X88924774Y-62069063D01*
X88755256Y-61955795D01*
X88566898Y-61877774D01*
X88366939Y-61838000D01*
X88163061Y-61838000D01*
X87963102Y-61877774D01*
X87774744Y-61955795D01*
X87605226Y-62069063D01*
X87461063Y-62213226D01*
X87347795Y-62382744D01*
X87269774Y-62571102D01*
X87230000Y-62771061D01*
X87230000Y-62974939D01*
X87269774Y-63174898D01*
X87347795Y-63363256D01*
X87461063Y-63532774D01*
X87605226Y-63676937D01*
X87774744Y-63790205D01*
X87963102Y-63868226D01*
X88163061Y-63908000D01*
X88225199Y-63908000D01*
X91229600Y-66912402D01*
X91229600Y-67625647D01*
X90951348Y-67570300D01*
X90658652Y-67570300D01*
X90371579Y-67627402D01*
X90101162Y-67739412D01*
X89857794Y-67902026D01*
X89650826Y-68108994D01*
X89488212Y-68352362D01*
X89376202Y-68622779D01*
X89319100Y-68909852D01*
X89319100Y-69202548D01*
X89370549Y-69461200D01*
X89324721Y-69461200D01*
X88912244Y-69543247D01*
X88523698Y-69704188D01*
X88217292Y-69908921D01*
X88252873Y-69823022D01*
X88353900Y-69315124D01*
X88353900Y-68797276D01*
X88252873Y-68289378D01*
X88054701Y-67810949D01*
X87767000Y-67380374D01*
X87400826Y-67014200D01*
X86970251Y-66726499D01*
X86491822Y-66528327D01*
X85983924Y-66427300D01*
X85466076Y-66427300D01*
X84958178Y-66528327D01*
X84479749Y-66726499D01*
X84049174Y-67014200D01*
X83683000Y-67380374D01*
X83395299Y-67810949D01*
X83197127Y-68289378D01*
X83096100Y-68797276D01*
X82108508Y-68797276D01*
X82073798Y-68622779D01*
X81961788Y-68352362D01*
X81799174Y-68108994D01*
X81592206Y-67902026D01*
X81348838Y-67739412D01*
X81078421Y-67627402D01*
X80791348Y-67570300D01*
X80498652Y-67570300D01*
X80211579Y-67627402D01*
X79941162Y-67739412D01*
X79697794Y-67902026D01*
X79490826Y-68108994D01*
X79328212Y-68352362D01*
X79216202Y-68622779D01*
X79159100Y-68909852D01*
X75692000Y-68909852D01*
X75692000Y-62436736D01*
X78251736Y-59877000D01*
X108845000Y-59877000D01*
X108845000Y-60177000D01*
X108891585Y-60395987D01*
X108979997Y-60601678D01*
X109106839Y-60786169D01*
X109267236Y-60942369D01*
X109455024Y-61064276D01*
X109678126Y-61144119D01*
X109853000Y-61017954D01*
X109853000Y-59877000D01*
X110107000Y-59877000D01*
X110107000Y-61017954D01*
X110281874Y-61144119D01*
X110504976Y-61064276D01*
X110692764Y-60942369D01*
X110853161Y-60786169D01*
X110980003Y-60601678D01*
X111068415Y-60395987D01*
X111115000Y-60177000D01*
X111115000Y-59877000D01*
X117485000Y-59877000D01*
X117485000Y-60177000D01*
X117531585Y-60395987D01*
X117619997Y-60601678D01*
X117746839Y-60786169D01*
X117907236Y-60942369D01*
X118095024Y-61064276D01*
X118318126Y-61144119D01*
X118493000Y-61017954D01*
X118493000Y-59877000D01*
X118747000Y-59877000D01*
X118747000Y-61017954D01*
X118921874Y-61144119D01*
X119144976Y-61064276D01*
X119332764Y-60942369D01*
X119493161Y-60786169D01*
X119620003Y-60601678D01*
X119708415Y-60395987D01*
X119755000Y-60177000D01*
X119755000Y-59877000D01*
X118747000Y-59877000D01*
X118493000Y-59877000D01*
X117485000Y-59877000D01*
X111115000Y-59877000D01*
X110107000Y-59877000D01*
X109853000Y-59877000D01*
X108845000Y-59877000D01*
X78251736Y-59877000D01*
X78946736Y-59182000D01*
X108874995Y-59182000D01*
X108845000Y-59323000D01*
D17*
X104008300Y-78879400D03*
X98854600Y-97580400D03*
X98209800Y-83243400D03*
X97969600Y-98110200D03*
X93700000Y-118566200D03*
X92348800Y-94123700D03*
X95954700Y-87443600D03*
X96934000Y-109497500D03*
X94631500Y-98639700D03*
X116888900Y-109017600D03*
X116273500Y-90286500D03*
X116645300Y-145276100D03*
X101727400Y-102731400D03*
X99115200Y-142550500D03*
X100167700Y-102715000D03*
X110803600Y-103060700D03*
X112394100Y-68087400D03*
X98419100Y-63340100D03*
X108024200Y-63717500D03*
X98101400Y-99110600D03*
X96996900Y-95390000D03*
X96959500Y-97823500D03*
X85174300Y-100122400D03*
X95223100Y-90727100D03*
X88265000Y-62873000D03*
X93607200Y-90734400D03*
X92951600Y-62873000D03*
X92951600Y-89948300D03*
X93587700Y-98932900D03*
X92909300Y-97790000D03*
X91458500Y-97062400D03*
X90908000Y-96190000D03*
X97790000Y-135636000D03*
X95250000Y-135636000D03*
X92710000Y-135636000D03*
X90170000Y-135636000D03*
X117190000Y-63400000D03*
X111410000Y-63400000D03*
D18*
X109980000Y-63930000D03*
X118620000Y-63930000D03*
D19*
X109980000Y-59750000D03*
X118620000Y-59750000D03*
D17*
X146050000Y-63500000D03*
X143510000Y-63500000D03*
X140970000Y-63500000D03*
X80518000Y-133604000D03*
X80518000Y-136144000D03*
X80518000Y-138684000D03*
X80518000Y-141224000D03*
X137795000Y-126206000D03*
X147955000Y-126206000D03*
X142875000Y-126206000D03*
X139065000Y-123666000D03*
X145415000Y-121126000D03*
X118745000Y-126206000D03*
X128905000Y-126206000D03*
X123825000Y-126206000D03*
X120015000Y-123666000D03*
X126365000Y-121126000D03*
X99695000Y-126206000D03*
X109855000Y-126206000D03*
X104775000Y-126206000D03*
X100965000Y-123666000D03*
X107315000Y-121126000D03*
X80645000Y-126206000D03*
X90805000Y-126206000D03*
X85725000Y-126206000D03*
X81915000Y-123666000D03*
X88265000Y-121126000D03*
X147955000Y-107156000D03*
X137795000Y-107156000D03*
X142875000Y-107156000D03*
X146685000Y-109696000D03*
X140335000Y-112236000D03*
X128905000Y-107156000D03*
X118745000Y-107156000D03*
X123825000Y-107156000D03*
X127635000Y-109696000D03*
X121285000Y-112236000D03*
X109855000Y-107156000D03*
X99695000Y-107156000D03*
X104775000Y-107156000D03*
X108585000Y-109696000D03*
X102235000Y-112236000D03*
X90805000Y-107156000D03*
X80645000Y-107156000D03*
X85725000Y-107156000D03*
X89535000Y-109696000D03*
X83185000Y-112236000D03*
X137795000Y-88106200D03*
X147955000Y-88106200D03*
X142875000Y-88106200D03*
X139065000Y-85566200D03*
X145415000Y-83026200D03*
X118745000Y-88106200D03*
X128905000Y-88106200D03*
X123825000Y-88106200D03*
X120015000Y-85566200D03*
X126365000Y-83026200D03*
X99695000Y-88106200D03*
X109855000Y-88106200D03*
X104775000Y-88106200D03*
X100965000Y-85566200D03*
X107315000Y-83026200D03*
X80645000Y-88106200D03*
X90805000Y-88106200D03*
X85725000Y-88106200D03*
X81915000Y-85566200D03*
X88265000Y-83026200D03*
X147955000Y-69056200D03*
X137795000Y-69056200D03*
X142875000Y-69056200D03*
X146685000Y-71596200D03*
X140335000Y-74136200D03*
X128905000Y-69056200D03*
X118745000Y-69056200D03*
X123825000Y-69056200D03*
X127635000Y-71596200D03*
X121285000Y-74136200D03*
X109855000Y-69056200D03*
X99695000Y-69056200D03*
X104775000Y-69056200D03*
X108585000Y-71596200D03*
X102235000Y-74136200D03*
X90805000Y-69056200D03*
X80645000Y-69056200D03*
X85725000Y-69056200D03*
X89535000Y-71596200D03*
X83185000Y-74136200D03*
M02*
