M48
; DRILL file {KiCad (5.1.2)-2} date 2020/1/9 21:44:14
; FORMAT={-:-/ absolute / inch / decimal}
; #@! TF.CreationDate,2020-01-09T21:44:14+08:00
; #@! TF.GenerationSoftware,Kicad,Pcbnew,(5.1.2)-2
; #@! TF.FileFunction,Plated,1,2,PTH
FMAT,2
INCH
T1C0.0157
T2C0.0236
T3C0.0394
%
G90
G05
T1
X3.2759Y-4.011
X3.3014Y-2.5475
X3.3557Y-4.6
X3.3945Y-3.1059
X3.4394Y-5.2488
X3.4724Y-3.946
X3.4838Y-2.4718
X3.4945Y-4.596
X3.6484Y-3.6796
X3.657Y-5.2199
X3.6622Y-3.572
X3.6745Y-3.7721
X3.7Y-2.6746
X3.7051Y-3.7414
X3.75Y-2.4801
X3.7524Y-3.5718
X3.7542Y-5.0801
X3.7576Y-5.2199
X3.7656Y-3.2455
X3.7747Y-3.9519
X3.8423Y-4.3241
X3.8426Y-2.6199
X3.843Y-3.9672
X3.8609Y-5.0836
X3.8647Y-3.9064
X3.8751Y-2.4787
X3.9477Y-3.1061
X3.9481Y-4.0439
X3.9875Y-4.042
X4.0059Y-4.6
X4.1456Y-3.1315
X4.2443Y-4.6
X4.2776Y-3.5555
X4.2926Y-3.596
X4.337Y-2.6209
X4.371Y-5.1531
X4.5979Y-2.6448
X4.7545Y-4.5862
X4.8923Y-4.5866
X4.8954Y-3.0898
X5.1571Y-5.214
X5.1573Y-3.7199
X5.209Y-3.1253
X5.25Y-3.5801
X5.25Y-5.0801
X5.3425Y-5.2305
X5.3434Y-3.7199
X5.6446Y-3.079
X5.6875Y-4.5561
T3
X5.55Y-2.5
X5.65Y-2.5
X5.75Y-2.5
X3.15Y-5.35
X3.15Y-5.45
X3.15Y-5.55
X3.15Y-5.65
T2
G00X4.3299Y-2.3406
M15
G01X4.3299Y-2.3642
M16
G05
G00X4.3299Y-2.4953
M15
G01X4.3299Y-2.5386
M16
G05
G00X4.6701Y-2.3406
M15
G01X4.6701Y-2.3642
M16
G05
G00X4.6701Y-2.4953
M15
G01X4.6701Y-2.5386
M16
G05
T0
M30
