G04 #@! TF.GenerationSoftware,KiCad,Pcbnew,(5.1.2)-2*
G04 #@! TF.CreationDate,2020-01-16T13:47:14+08:00*
G04 #@! TF.ProjectId,wingxx-receiver-v3,77696e67-7878-42d7-9265-636569766572,rev?*
G04 #@! TF.SameCoordinates,Original*
G04 #@! TF.FileFunction,Soldermask,Top*
G04 #@! TF.FilePolarity,Negative*
%FSLAX46Y46*%
G04 Gerber Fmt 4.6, Leading zero omitted, Abs format (unit mm)*
G04 Created by KiCad (PCBNEW (5.1.2)-2) date 2020-01-16 13:47:14*
%MOMM*%
%LPD*%
G04 APERTURE LIST*
%ADD10C,0.650000*%
%ADD11O,1.000000X2.100000*%
%ADD12O,1.000000X1.600000*%
%ADD13O,1.700000X1.700000*%
%ADD14R,1.700000X1.700000*%
%ADD15C,1.701800*%
%ADD16C,3.987800*%
%ADD17C,3.000000*%
G04 APERTURE END LIST*
D10*
X117190000Y-63400000D03*
X111410000Y-63400000D03*
D11*
X109980000Y-63930000D03*
X118620000Y-63930000D03*
D12*
X109980000Y-59750000D03*
X118620000Y-59750000D03*
D13*
X146050000Y-63500000D03*
X143510000Y-63500000D03*
D14*
X140970000Y-63500000D03*
D13*
X147320000Y-137160000D03*
X144780000Y-137160000D03*
X142240000Y-137160000D03*
D14*
X139700000Y-137160000D03*
D15*
X137795000Y-126206000D03*
X147955000Y-126206000D03*
D16*
X142875000Y-126206000D03*
D17*
X139065000Y-123666000D03*
X145415000Y-121126000D03*
D15*
X118745000Y-126206000D03*
X128905000Y-126206000D03*
D16*
X123825000Y-126206000D03*
D17*
X120015000Y-123666000D03*
X126365000Y-121126000D03*
D15*
X99695000Y-126206000D03*
X109855000Y-126206000D03*
D16*
X104775000Y-126206000D03*
D17*
X100965000Y-123666000D03*
X107315000Y-121126000D03*
D15*
X80645000Y-126206000D03*
X90805000Y-126206000D03*
D16*
X85725000Y-126206000D03*
D17*
X81915000Y-123666000D03*
X88265000Y-121126000D03*
D15*
X147955000Y-107156000D03*
X137795000Y-107156000D03*
D16*
X142875000Y-107156000D03*
D17*
X146685000Y-109696000D03*
X140335000Y-112236000D03*
D15*
X128905000Y-107156000D03*
X118745000Y-107156000D03*
D16*
X123825000Y-107156000D03*
D17*
X127635000Y-109696000D03*
X121285000Y-112236000D03*
D15*
X109855000Y-107156000D03*
X99695000Y-107156000D03*
D16*
X104775000Y-107156000D03*
D17*
X108585000Y-109696000D03*
X102235000Y-112236000D03*
D15*
X90805000Y-107156000D03*
X80645000Y-107156000D03*
D16*
X85725000Y-107156000D03*
D17*
X89535000Y-109696000D03*
X83185000Y-112236000D03*
D15*
X137795000Y-88106200D03*
X147955000Y-88106200D03*
D16*
X142875000Y-88106200D03*
D17*
X139065000Y-85566200D03*
X145415000Y-83026200D03*
D15*
X118745000Y-88106200D03*
X128905000Y-88106200D03*
D16*
X123825000Y-88106200D03*
D17*
X120015000Y-85566200D03*
X126365000Y-83026200D03*
D15*
X99695000Y-88106200D03*
X109855000Y-88106200D03*
D16*
X104775000Y-88106200D03*
D17*
X100965000Y-85566200D03*
X107315000Y-83026200D03*
D15*
X80645000Y-88106200D03*
X90805000Y-88106200D03*
D16*
X85725000Y-88106200D03*
D17*
X81915000Y-85566200D03*
X88265000Y-83026200D03*
D15*
X147955000Y-69056200D03*
X137795000Y-69056200D03*
D16*
X142875000Y-69056200D03*
D17*
X146685000Y-71596200D03*
X140335000Y-74136200D03*
D15*
X128905000Y-69056200D03*
X118745000Y-69056200D03*
D16*
X123825000Y-69056200D03*
D17*
X127635000Y-71596200D03*
X121285000Y-74136200D03*
D15*
X109855000Y-69056200D03*
X99695000Y-69056200D03*
D16*
X104775000Y-69056200D03*
D17*
X108585000Y-71596200D03*
X102235000Y-74136200D03*
D15*
X90805000Y-69056200D03*
X80645000Y-69056200D03*
D16*
X85725000Y-69056200D03*
D17*
X89535000Y-71596200D03*
X83185000Y-74136200D03*
M02*
