M48
; DRILL file {KiCad (5.1.2)-2} date 2020/2/6 星期四 17:00:50
; FORMAT={-:-/ absolute / metric / decimal}
; #@! TF.CreationDate,2020-02-06T17:00:50+08:00
; #@! TF.GenerationSoftware,Kicad,Pcbnew,(5.1.2)-2
; #@! TF.FileFunction,Plated,1,2,PTH
FMAT,2
METRIC
T1C0.400
T2C0.600
T3C1.000
%
G90
G05
T1
X69.596Y-129.286
X71.423Y-109.823
X72.928Y-114.108
X73.157Y-108.52
X75.777Y-107.757
X76.184Y-96.913
X77.47Y-129.032
X80.465Y-98.422
X81.468Y-97.47
X82.904Y-95.949
X83.304Y-109.05
X84.32Y-116.111
X84.704Y-108.708
X87.63Y-129.032
X89.634Y-102.062
T3
X76.708Y-135.382
X79.248Y-135.382
X81.788Y-135.382
X84.328Y-135.382
T2
G00X75.436Y-94.375
M15
G01X75.436Y-94.975
M16
G05
G00X75.436Y-98.305
M15
G01X75.436Y-99.405
M16
G05
G00X84.076Y-94.375
M15
G01X84.076Y-94.975
M16
G05
G00X84.076Y-98.305
M15
G01X84.076Y-99.405
M16
G05
T0
M30
