%TF.GenerationSoftware,KiCad,Pcbnew,(5.1.2)-2*%
%TF.CreationDate,2020-04-26T17:29:46+08:00*%
%TF.ProjectId,wing-receiver-lite,77696e67-2d72-4656-9365-697665722d6c,rev?*%
%TF.SameCoordinates,Original*%
%TF.FileFunction,Copper,L2,Bot*%
%TF.FilePolarity,Positive*%
%FSLAX46Y46*%
G04 Gerber Fmt 4.6, Leading zero omitted, Abs format (unit mm)*
G04 Created by KiCad (PCBNEW (5.1.2)-2) date 2020-04-26 17:29:46*
%MOMM*%
%LPD*%
G04 APERTURE LIST*
%ADD10R,1.500000X1.000000*%
%ADD11R,2.450000X0.600000*%
%ADD12R,2.450000X0.300000*%
%ADD13O,2.100000X1.000000*%
%ADD14O,1.600000X1.000000*%
%ADD15R,0.698500X1.198880*%
%ADD16R,1.198880X0.698500*%
%ADD17R,1.700000X1.700000*%
%ADD18O,1.700000X1.700000*%
%ADD19C,0.800000*%
%ADD20C,0.250000*%
%ADD21C,0.254000*%
%ADD22C,0.350000*%
%ADD23O,1.700000X0.600000*%
%ADD24O,1.200000X0.600000*%
G04 APERTURE END LIST*
D10*
X118655000Y-85903000D03*
X118655000Y-89103000D03*
X113755000Y-85903000D03*
X113755000Y-89103000D03*
D11*
X123895000Y-108395000D03*
X123895000Y-101945000D03*
X123895000Y-107620000D03*
X123895000Y-102720000D03*
D12*
X123895000Y-103420000D03*
X123895000Y-106920000D03*
X123895000Y-103920000D03*
X123895000Y-106420000D03*
X123895000Y-104420000D03*
X123895000Y-105920000D03*
X123895000Y-105420000D03*
X123895000Y-104920000D03*
D13*
X125310000Y-100850000D03*
X125310000Y-109490000D03*
D14*
X129490000Y-100850000D03*
X129490000Y-109490000D03*
D15*
X104277000Y-91961600D03*
X96657000Y-109487600D03*
X95387000Y-109487600D03*
D16*
X106055000Y-93739600D03*
D15*
X101737000Y-91961600D03*
X100467000Y-91961600D03*
X99197000Y-91961600D03*
X97927000Y-91961600D03*
X96657000Y-91961600D03*
X95387000Y-91961600D03*
X94117000Y-91961600D03*
X92847000Y-91961600D03*
X91577000Y-91961600D03*
X90307000Y-109487600D03*
X91577000Y-109487600D03*
X92847000Y-109487600D03*
X94117000Y-109487600D03*
X97927000Y-109487600D03*
X99197000Y-109487600D03*
X100467000Y-109487600D03*
X101737000Y-109487600D03*
X103007000Y-109487600D03*
X104277000Y-109487600D03*
D16*
X106055000Y-107709600D03*
X106055000Y-106439600D03*
X106055000Y-105169600D03*
X106055000Y-103899600D03*
X106055000Y-102629600D03*
X106055000Y-101359600D03*
X106055000Y-100089600D03*
X106055000Y-98819600D03*
X106055000Y-97549600D03*
X106055000Y-96279600D03*
X106055000Y-95009600D03*
D15*
X90307000Y-91961600D03*
X103007000Y-91961600D03*
D17*
X105410000Y-84328000D03*
D18*
X102870000Y-84328000D03*
X100330000Y-84328000D03*
X97790000Y-84328000D03*
D10*
X91360000Y-112460000D03*
X91360000Y-115660000D03*
X86460000Y-112460000D03*
X86460000Y-115660000D03*
X119300000Y-111825000D03*
X119300000Y-115025000D03*
X114400000Y-111825000D03*
X114400000Y-115025000D03*
X89455000Y-85789600D03*
X89455000Y-88989600D03*
X84555000Y-85789600D03*
X84555000Y-88989600D03*
D19*
X112472700Y-91013600D03*
X108813300Y-107271100D03*
X108813300Y-92940300D03*
X120196600Y-88933900D03*
X111547000Y-105428100D03*
X88062200Y-88950400D03*
X119605300Y-99786200D03*
X120993600Y-107702600D03*
X96760800Y-94014800D03*
X85923300Y-86923700D03*
X117272100Y-93482900D03*
X121098900Y-93808500D03*
X115292300Y-93776300D03*
X99100300Y-86744400D03*
X99555700Y-98325000D03*
X109822900Y-87893000D03*
X112087000Y-94900100D03*
D20*
X114400000Y-115025000D02*
X115475300Y-115025000D01*
X115475300Y-115025000D02*
X116300600Y-114199700D01*
X116300600Y-114199700D02*
X119225000Y-114199700D01*
X119225000Y-114199700D02*
X123934700Y-109490000D01*
X105592700Y-107709600D02*
X112908100Y-115025000D01*
X112908100Y-115025000D02*
X114400000Y-115025000D01*
X104277000Y-92200900D02*
X104277000Y-91961600D01*
X104277000Y-92200900D02*
X104277000Y-92886300D01*
X105592700Y-107709600D02*
X105130300Y-107709600D01*
X106055000Y-107709600D02*
X105592700Y-107709600D01*
X105130300Y-107709600D02*
X105130300Y-93739600D01*
X105130300Y-107709600D02*
X104277000Y-108562900D01*
X112472700Y-91013600D02*
X109705700Y-91013600D01*
X109705700Y-91013600D02*
X106979700Y-93739600D01*
X106055000Y-93739600D02*
X106979700Y-93739600D01*
X113217400Y-89103000D02*
X112472700Y-89847700D01*
X112472700Y-89847700D02*
X112472700Y-91013600D01*
X104277000Y-109487600D02*
X104277000Y-108562900D01*
X113755000Y-89103000D02*
X113217400Y-89103000D01*
X104277000Y-92886300D02*
X105130300Y-93739600D01*
X106055000Y-93739600D02*
X105130300Y-93739600D01*
X125310000Y-109490000D02*
X123934700Y-109490000D01*
X123934700Y-109490000D02*
X123934700Y-108434700D01*
X123934700Y-108434700D02*
X123895000Y-108395000D01*
X104277000Y-110412300D02*
X101404000Y-113285300D01*
X101404000Y-113285300D02*
X89354700Y-113285300D01*
X89354700Y-113285300D02*
X87701700Y-111632300D01*
X87701700Y-111632300D02*
X85630300Y-111632300D01*
X85384700Y-115660000D02*
X85384700Y-111755000D01*
X85384700Y-111755000D02*
X85507400Y-111632300D01*
X85507400Y-111632300D02*
X85630300Y-111632300D01*
X85630300Y-88989600D02*
X85630300Y-111632300D01*
X104277000Y-109487600D02*
X104277000Y-110412300D01*
X86460000Y-115660000D02*
X85384700Y-115660000D01*
X84555000Y-88989600D02*
X85630300Y-88989600D01*
X125310000Y-100850000D02*
X123934700Y-100850000D01*
X123934700Y-100850000D02*
X123934700Y-101905300D01*
X123934700Y-101905300D02*
X123895000Y-101945000D01*
X108813300Y-92940300D02*
X108813300Y-107271100D01*
X119730300Y-88933900D02*
X119730300Y-89814000D01*
X119730300Y-89814000D02*
X119297300Y-90247000D01*
X119297300Y-90247000D02*
X115671300Y-90247000D01*
X115671300Y-90247000D02*
X110750600Y-95167700D01*
X110750600Y-95167700D02*
X110750600Y-104890100D01*
X110750600Y-104890100D02*
X111288600Y-105428100D01*
X111288600Y-105428100D02*
X111547000Y-105428100D01*
X119730300Y-85903000D02*
X119730300Y-88933900D01*
X119730300Y-88933900D02*
X120196600Y-88933900D01*
X119300000Y-111825000D02*
X117943900Y-111825000D01*
X117943900Y-111825000D02*
X111547000Y-105428100D01*
X118655000Y-85903000D02*
X119730300Y-85903000D01*
X91360000Y-112460000D02*
X90284700Y-112460000D01*
X88062200Y-88950400D02*
X88062200Y-110237500D01*
X88062200Y-110237500D02*
X90284700Y-112460000D01*
X88379700Y-85789600D02*
X88062200Y-86107100D01*
X88062200Y-86107100D02*
X88062200Y-88950400D01*
X89455000Y-85789600D02*
X88379700Y-85789600D01*
X120993600Y-107702600D02*
X119605300Y-106314300D01*
X119605300Y-106314300D02*
X119605300Y-99786200D01*
X120993600Y-107702600D02*
X122262100Y-107702600D01*
X122262100Y-107702600D02*
X122344700Y-107620000D01*
X123895000Y-107620000D02*
X122344700Y-107620000D01*
X123895000Y-102720000D02*
X125067900Y-102720000D01*
X125067900Y-102720000D02*
X125936700Y-103588800D01*
X125936700Y-103588800D02*
X125936700Y-106755500D01*
X125936700Y-106755500D02*
X125072200Y-107620000D01*
X125072200Y-107620000D02*
X123895000Y-107620000D01*
X105410000Y-84328000D02*
X105410000Y-85503300D01*
X105410000Y-85503300D02*
X103007000Y-87906300D01*
X103007000Y-87906300D02*
X103007000Y-91961600D01*
X103007000Y-91961600D02*
X103007000Y-92886300D01*
X103007000Y-92886300D02*
X97889300Y-92886300D01*
X97889300Y-92886300D02*
X96760800Y-94014800D01*
X113755000Y-85903000D02*
X112679700Y-85903000D01*
X89455000Y-88989600D02*
X90530300Y-88989600D01*
X90530300Y-88989600D02*
X96367300Y-83152600D01*
X96367300Y-83152600D02*
X109929300Y-83152600D01*
X109929300Y-83152600D02*
X112679700Y-85903000D01*
X84555000Y-85789600D02*
X85630300Y-85789600D01*
X85923300Y-86923700D02*
X85923300Y-86082600D01*
X85923300Y-86082600D02*
X85630300Y-85789600D01*
X117579700Y-89103000D02*
X116178400Y-89103000D01*
X116178400Y-89103000D02*
X110246600Y-95034800D01*
X110246600Y-95034800D02*
X110246600Y-108746900D01*
X110246600Y-108746900D02*
X113324700Y-111825000D01*
X118655000Y-89103000D02*
X117579700Y-89103000D01*
X114400000Y-111825000D02*
X113324700Y-111825000D01*
X86460000Y-112460000D02*
X87535300Y-112460000D01*
X119300000Y-115025000D02*
X118224700Y-115025000D01*
X118224700Y-115025000D02*
X117399400Y-115850300D01*
X117399400Y-115850300D02*
X105679500Y-115850300D01*
X105679500Y-115850300D02*
X104273600Y-114444400D01*
X104273600Y-114444400D02*
X89519700Y-114444400D01*
X89519700Y-114444400D02*
X87535300Y-112460000D01*
X122344700Y-104420000D02*
X121231200Y-103306500D01*
X121231200Y-103306500D02*
X121231200Y-93940800D01*
X121231200Y-93940800D02*
X121098900Y-93808500D01*
X121098900Y-93808500D02*
X117597700Y-93808500D01*
X117597700Y-93808500D02*
X117272100Y-93482900D01*
X123895000Y-104420000D02*
X122344700Y-104420000D01*
X123895000Y-104420000D02*
X125445300Y-104420000D01*
X123895000Y-105420000D02*
X125445300Y-105420000D01*
X125445300Y-105420000D02*
X125445300Y-104420000D01*
X122344700Y-105010900D02*
X122240600Y-105010900D01*
X122240600Y-105010900D02*
X120780900Y-103551200D01*
X120780900Y-103551200D02*
X120780900Y-98728800D01*
X120780900Y-98728800D02*
X115828400Y-93776300D01*
X115828400Y-93776300D02*
X115292300Y-93776300D01*
X122435600Y-104920000D02*
X122344700Y-105010900D01*
X122344700Y-105010900D02*
X122344700Y-105920000D01*
X123895000Y-104920000D02*
X122435600Y-104920000D01*
X123895000Y-105920000D02*
X122344700Y-105920000D01*
X100330000Y-84328000D02*
X99154700Y-84328000D01*
X99154700Y-84328000D02*
X99154700Y-84695300D01*
X99154700Y-84695300D02*
X92813100Y-91036900D01*
X92813100Y-91036900D02*
X89822900Y-91036900D01*
X89822900Y-91036900D02*
X89632400Y-91227400D01*
X89632400Y-91227400D02*
X89632400Y-92754500D01*
X89632400Y-92754500D02*
X96657000Y-99779100D01*
X96657000Y-99779100D02*
X96657000Y-109487600D01*
X96614700Y-84328000D02*
X91014700Y-89928000D01*
X91014700Y-89928000D02*
X90217700Y-89928000D01*
X90217700Y-89928000D02*
X89182000Y-90963700D01*
X89182000Y-90963700D02*
X89182000Y-93253500D01*
X89182000Y-93253500D02*
X95387000Y-99458500D01*
X95387000Y-99458500D02*
X95387000Y-109487600D01*
X97790000Y-84328000D02*
X96614700Y-84328000D01*
X95387000Y-91961600D02*
X95387000Y-90457700D01*
X95387000Y-90457700D02*
X99100300Y-86744400D01*
X94117000Y-92886300D02*
X99555700Y-98325000D01*
X94117000Y-91961600D02*
X94117000Y-92886300D01*
X123895000Y-103920000D02*
X122481600Y-103920000D01*
X122481600Y-103920000D02*
X122344600Y-103783000D01*
X122344600Y-103783000D02*
X122344600Y-87831500D01*
X122344600Y-87831500D02*
X119590700Y-85077600D01*
X119590700Y-85077600D02*
X117770300Y-85077600D01*
X117770300Y-85077600D02*
X114954900Y-87893000D01*
X114954900Y-87893000D02*
X109822900Y-87893000D01*
X122344700Y-106920000D02*
X120330600Y-104905900D01*
X120330600Y-104905900D02*
X120330600Y-98915400D01*
X120330600Y-98915400D02*
X116315300Y-94900100D01*
X116315300Y-94900100D02*
X112087000Y-94900100D01*
X123895000Y-106920000D02*
X122344700Y-106920000D01*
D21*
G36*
X84405001Y-83786343D02*
G01*
X84401686Y-83820000D01*
X84414912Y-83954283D01*
X84454081Y-84083406D01*
X84517688Y-84202407D01*
X84603289Y-84306711D01*
X84707593Y-84392312D01*
X84826594Y-84455919D01*
X84955717Y-84495088D01*
X85056353Y-84505000D01*
X85090000Y-84508314D01*
X85123647Y-84505000D01*
X86961353Y-84505000D01*
X86995000Y-84508314D01*
X87028647Y-84505000D01*
X87129283Y-84495088D01*
X87258406Y-84455919D01*
X87377407Y-84392312D01*
X87481711Y-84306711D01*
X87567312Y-84202407D01*
X87630919Y-84083406D01*
X87670088Y-83954283D01*
X87683314Y-83820000D01*
X87680000Y-83786353D01*
X87680000Y-83108000D01*
X95337098Y-83108000D01*
X90511624Y-87933475D01*
X90449180Y-87900098D01*
X90329482Y-87863788D01*
X90205000Y-87851528D01*
X88822200Y-87851528D01*
X88822200Y-86927672D01*
X90205000Y-86927672D01*
X90329482Y-86915412D01*
X90449180Y-86879102D01*
X90559494Y-86820137D01*
X90656185Y-86740785D01*
X90735537Y-86644094D01*
X90794502Y-86533780D01*
X90830812Y-86414082D01*
X90843072Y-86289600D01*
X90843072Y-85289600D01*
X90830812Y-85165118D01*
X90794502Y-85045420D01*
X90735537Y-84935106D01*
X90656185Y-84838415D01*
X90559494Y-84759063D01*
X90449180Y-84700098D01*
X90329482Y-84663788D01*
X90205000Y-84651528D01*
X88705000Y-84651528D01*
X88580518Y-84663788D01*
X88460820Y-84700098D01*
X88350506Y-84759063D01*
X88253815Y-84838415D01*
X88174463Y-84935106D01*
X88115498Y-85045420D01*
X88105433Y-85078600D01*
X88087453Y-85084054D01*
X87955424Y-85154626D01*
X87839699Y-85249599D01*
X87815896Y-85278603D01*
X87551203Y-85543296D01*
X87522199Y-85567099D01*
X87471247Y-85629185D01*
X87427226Y-85682824D01*
X87370153Y-85789600D01*
X87356654Y-85814854D01*
X87313197Y-85958115D01*
X87302200Y-86069768D01*
X87302200Y-86069778D01*
X87298524Y-86107100D01*
X87302200Y-86144423D01*
X87302201Y-88246688D01*
X87258263Y-88290626D01*
X87144995Y-88460144D01*
X87066974Y-88648502D01*
X87027200Y-88848461D01*
X87027200Y-89052339D01*
X87066974Y-89252298D01*
X87144995Y-89440656D01*
X87258263Y-89610174D01*
X87302200Y-89654111D01*
X87302201Y-110200167D01*
X87298524Y-110237500D01*
X87302201Y-110274833D01*
X87305113Y-110304393D01*
X87313198Y-110386485D01*
X87356654Y-110529746D01*
X87427226Y-110661776D01*
X87476684Y-110722040D01*
X87522200Y-110777501D01*
X87551198Y-110801299D01*
X89720900Y-112971002D01*
X89744699Y-113000001D01*
X89860424Y-113094974D01*
X89992453Y-113165546D01*
X90010433Y-113171000D01*
X90020498Y-113204180D01*
X90079463Y-113314494D01*
X90158815Y-113411185D01*
X90255506Y-113490537D01*
X90365820Y-113549502D01*
X90485518Y-113585812D01*
X90610000Y-113598072D01*
X92110000Y-113598072D01*
X92234482Y-113585812D01*
X92354180Y-113549502D01*
X92464494Y-113490537D01*
X92561185Y-113411185D01*
X92640537Y-113314494D01*
X92699502Y-113204180D01*
X92735812Y-113084482D01*
X92748072Y-112960000D01*
X92748072Y-111960000D01*
X92735812Y-111835518D01*
X92699502Y-111715820D01*
X92640537Y-111605506D01*
X92561185Y-111508815D01*
X92464494Y-111429463D01*
X92354180Y-111370498D01*
X92234482Y-111334188D01*
X92110000Y-111321928D01*
X90610000Y-111321928D01*
X90485518Y-111334188D01*
X90365820Y-111370498D01*
X90303377Y-111403875D01*
X88822200Y-109922699D01*
X88822200Y-93968501D01*
X94627000Y-99773302D01*
X94627001Y-108273350D01*
X94590732Y-108262348D01*
X94466250Y-108250088D01*
X93767750Y-108250088D01*
X93643268Y-108262348D01*
X93523570Y-108298658D01*
X93482000Y-108320878D01*
X93440430Y-108298658D01*
X93320732Y-108262348D01*
X93196250Y-108250088D01*
X92497750Y-108250088D01*
X92373268Y-108262348D01*
X92253570Y-108298658D01*
X92212000Y-108320878D01*
X92170430Y-108298658D01*
X92050732Y-108262348D01*
X91926250Y-108250088D01*
X91227750Y-108250088D01*
X91103268Y-108262348D01*
X90983570Y-108298658D01*
X90942000Y-108320878D01*
X90900430Y-108298658D01*
X90780732Y-108262348D01*
X90656250Y-108250088D01*
X89957750Y-108250088D01*
X89833268Y-108262348D01*
X89713570Y-108298658D01*
X89603256Y-108357623D01*
X89506565Y-108436975D01*
X89427213Y-108533666D01*
X89368248Y-108643980D01*
X89331938Y-108763678D01*
X89319678Y-108888160D01*
X89319678Y-110087040D01*
X89331938Y-110211522D01*
X89368248Y-110331220D01*
X89427213Y-110441534D01*
X89506565Y-110538225D01*
X89603256Y-110617577D01*
X89713570Y-110676542D01*
X89833268Y-110712852D01*
X89957750Y-110725112D01*
X90656250Y-110725112D01*
X90780732Y-110712852D01*
X90900430Y-110676542D01*
X90942000Y-110654322D01*
X90983570Y-110676542D01*
X91103268Y-110712852D01*
X91227750Y-110725112D01*
X91926250Y-110725112D01*
X92050732Y-110712852D01*
X92170430Y-110676542D01*
X92212000Y-110654322D01*
X92253570Y-110676542D01*
X92373268Y-110712852D01*
X92497750Y-110725112D01*
X93196250Y-110725112D01*
X93320732Y-110712852D01*
X93440430Y-110676542D01*
X93482000Y-110654322D01*
X93523570Y-110676542D01*
X93643268Y-110712852D01*
X93767750Y-110725112D01*
X94466250Y-110725112D01*
X94590732Y-110712852D01*
X94710430Y-110676542D01*
X94752000Y-110654322D01*
X94793570Y-110676542D01*
X94913268Y-110712852D01*
X95037750Y-110725112D01*
X95736250Y-110725112D01*
X95860732Y-110712852D01*
X95980430Y-110676542D01*
X96022000Y-110654322D01*
X96063570Y-110676542D01*
X96183268Y-110712852D01*
X96307750Y-110725112D01*
X97006250Y-110725112D01*
X97130732Y-110712852D01*
X97250430Y-110676542D01*
X97292000Y-110654322D01*
X97333570Y-110676542D01*
X97453268Y-110712852D01*
X97577750Y-110725112D01*
X98276250Y-110725112D01*
X98400732Y-110712852D01*
X98520430Y-110676542D01*
X98562000Y-110654322D01*
X98603570Y-110676542D01*
X98723268Y-110712852D01*
X98847750Y-110725112D01*
X99546250Y-110725112D01*
X99670732Y-110712852D01*
X99790430Y-110676542D01*
X99832000Y-110654322D01*
X99873570Y-110676542D01*
X99993268Y-110712852D01*
X100117750Y-110725112D01*
X100816250Y-110725112D01*
X100940732Y-110712852D01*
X101060430Y-110676542D01*
X101102000Y-110654322D01*
X101143570Y-110676542D01*
X101263268Y-110712852D01*
X101387750Y-110725112D01*
X102086250Y-110725112D01*
X102210732Y-110712852D01*
X102330430Y-110676542D01*
X102372000Y-110654322D01*
X102413570Y-110676542D01*
X102533268Y-110712852D01*
X102657750Y-110725112D01*
X103356250Y-110725112D01*
X103480732Y-110712852D01*
X103600430Y-110676542D01*
X103642000Y-110654322D01*
X103683570Y-110676542D01*
X103803268Y-110712852D01*
X103927750Y-110725112D01*
X103991250Y-110722040D01*
X104150000Y-110563290D01*
X104150000Y-109614600D01*
X104404000Y-109614600D01*
X104404000Y-110563290D01*
X104562750Y-110722040D01*
X104626250Y-110725112D01*
X104750732Y-110712852D01*
X104870430Y-110676542D01*
X104980744Y-110617577D01*
X105077435Y-110538225D01*
X105156787Y-110441534D01*
X105215752Y-110331220D01*
X105252062Y-110211522D01*
X105264322Y-110087040D01*
X105261250Y-109773350D01*
X105102500Y-109614600D01*
X104404000Y-109614600D01*
X104150000Y-109614600D01*
X104130000Y-109614600D01*
X104130000Y-109360600D01*
X104150000Y-109360600D01*
X104150000Y-108411910D01*
X104404000Y-108411910D01*
X104404000Y-109360600D01*
X105102500Y-109360600D01*
X105261250Y-109201850D01*
X105264322Y-108888160D01*
X105252062Y-108763678D01*
X105217656Y-108650256D01*
X105331078Y-108684662D01*
X105455560Y-108696922D01*
X105769250Y-108693850D01*
X105928000Y-108535100D01*
X105928000Y-107836600D01*
X106182000Y-107836600D01*
X106182000Y-108535100D01*
X106340750Y-108693850D01*
X106654440Y-108696922D01*
X106778922Y-108684662D01*
X106898620Y-108648352D01*
X107008934Y-108589387D01*
X107105625Y-108510035D01*
X107184977Y-108413344D01*
X107243942Y-108303030D01*
X107280252Y-108183332D01*
X107292512Y-108058850D01*
X107289440Y-107995350D01*
X107130690Y-107836600D01*
X106182000Y-107836600D01*
X105928000Y-107836600D01*
X104979310Y-107836600D01*
X104820560Y-107995350D01*
X104817488Y-108058850D01*
X104829748Y-108183332D01*
X104864154Y-108296754D01*
X104750732Y-108262348D01*
X104626250Y-108250088D01*
X104562750Y-108253160D01*
X104404000Y-108411910D01*
X104150000Y-108411910D01*
X103991250Y-108253160D01*
X103927750Y-108250088D01*
X103803268Y-108262348D01*
X103683570Y-108298658D01*
X103642000Y-108320878D01*
X103600430Y-108298658D01*
X103480732Y-108262348D01*
X103356250Y-108250088D01*
X102657750Y-108250088D01*
X102533268Y-108262348D01*
X102413570Y-108298658D01*
X102372000Y-108320878D01*
X102330430Y-108298658D01*
X102210732Y-108262348D01*
X102086250Y-108250088D01*
X101387750Y-108250088D01*
X101263268Y-108262348D01*
X101143570Y-108298658D01*
X101102000Y-108320878D01*
X101060430Y-108298658D01*
X100940732Y-108262348D01*
X100816250Y-108250088D01*
X100117750Y-108250088D01*
X99993268Y-108262348D01*
X99873570Y-108298658D01*
X99832000Y-108320878D01*
X99790430Y-108298658D01*
X99670732Y-108262348D01*
X99546250Y-108250088D01*
X98847750Y-108250088D01*
X98723268Y-108262348D01*
X98603570Y-108298658D01*
X98562000Y-108320878D01*
X98520430Y-108298658D01*
X98400732Y-108262348D01*
X98276250Y-108250088D01*
X97577750Y-108250088D01*
X97453268Y-108262348D01*
X97417000Y-108273350D01*
X97417000Y-99816433D01*
X97420677Y-99779100D01*
X97406003Y-99630114D01*
X97362546Y-99486853D01*
X97291974Y-99354824D01*
X97220799Y-99268097D01*
X97197001Y-99239099D01*
X97168004Y-99215302D01*
X91143517Y-93190816D01*
X91227750Y-93199112D01*
X91926250Y-93199112D01*
X92050732Y-93186852D01*
X92170430Y-93150542D01*
X92212000Y-93128322D01*
X92253570Y-93150542D01*
X92373268Y-93186852D01*
X92497750Y-93199112D01*
X93196250Y-93199112D01*
X93320732Y-93186852D01*
X93406117Y-93160951D01*
X93411454Y-93178546D01*
X93482026Y-93310576D01*
X93516042Y-93352024D01*
X93577000Y-93426301D01*
X93605998Y-93450099D01*
X98520700Y-98364802D01*
X98520700Y-98426939D01*
X98560474Y-98626898D01*
X98638495Y-98815256D01*
X98751763Y-98984774D01*
X98895926Y-99128937D01*
X99065444Y-99242205D01*
X99253802Y-99320226D01*
X99453761Y-99360000D01*
X99657639Y-99360000D01*
X99857598Y-99320226D01*
X100045956Y-99242205D01*
X100215474Y-99128937D01*
X100359637Y-98984774D01*
X100472905Y-98815256D01*
X100550926Y-98626898D01*
X100590700Y-98426939D01*
X100590700Y-98223061D01*
X100550926Y-98023102D01*
X100472905Y-97834744D01*
X100359637Y-97665226D01*
X100215474Y-97521063D01*
X100045956Y-97407795D01*
X99857598Y-97329774D01*
X99657639Y-97290000D01*
X99595502Y-97290000D01*
X97241475Y-94935974D01*
X97251056Y-94932005D01*
X97420574Y-94818737D01*
X97564737Y-94674574D01*
X97678005Y-94505056D01*
X97756026Y-94316698D01*
X97795800Y-94116739D01*
X97795800Y-94088850D01*
X104817488Y-94088850D01*
X104829748Y-94213332D01*
X104866058Y-94333030D01*
X104888278Y-94374600D01*
X104866058Y-94416170D01*
X104829748Y-94535868D01*
X104817488Y-94660350D01*
X104817488Y-95358850D01*
X104829748Y-95483332D01*
X104866058Y-95603030D01*
X104888278Y-95644600D01*
X104866058Y-95686170D01*
X104829748Y-95805868D01*
X104817488Y-95930350D01*
X104817488Y-96628850D01*
X104829748Y-96753332D01*
X104866058Y-96873030D01*
X104888278Y-96914600D01*
X104866058Y-96956170D01*
X104829748Y-97075868D01*
X104817488Y-97200350D01*
X104817488Y-97898850D01*
X104829748Y-98023332D01*
X104866058Y-98143030D01*
X104888278Y-98184600D01*
X104866058Y-98226170D01*
X104829748Y-98345868D01*
X104817488Y-98470350D01*
X104817488Y-99168850D01*
X104829748Y-99293332D01*
X104866058Y-99413030D01*
X104888278Y-99454600D01*
X104866058Y-99496170D01*
X104829748Y-99615868D01*
X104817488Y-99740350D01*
X104817488Y-100438850D01*
X104829748Y-100563332D01*
X104866058Y-100683030D01*
X104888278Y-100724600D01*
X104866058Y-100766170D01*
X104829748Y-100885868D01*
X104817488Y-101010350D01*
X104817488Y-101708850D01*
X104829748Y-101833332D01*
X104866058Y-101953030D01*
X104888278Y-101994600D01*
X104866058Y-102036170D01*
X104829748Y-102155868D01*
X104817488Y-102280350D01*
X104817488Y-102978850D01*
X104829748Y-103103332D01*
X104866058Y-103223030D01*
X104888278Y-103264600D01*
X104866058Y-103306170D01*
X104829748Y-103425868D01*
X104817488Y-103550350D01*
X104817488Y-104248850D01*
X104829748Y-104373332D01*
X104866058Y-104493030D01*
X104888278Y-104534600D01*
X104866058Y-104576170D01*
X104829748Y-104695868D01*
X104817488Y-104820350D01*
X104817488Y-105518850D01*
X104829748Y-105643332D01*
X104866058Y-105763030D01*
X104888278Y-105804600D01*
X104866058Y-105846170D01*
X104829748Y-105965868D01*
X104817488Y-106090350D01*
X104817488Y-106788850D01*
X104829748Y-106913332D01*
X104866058Y-107033030D01*
X104888278Y-107074600D01*
X104866058Y-107116170D01*
X104829748Y-107235868D01*
X104817488Y-107360350D01*
X104820560Y-107423850D01*
X104979310Y-107582600D01*
X105928000Y-107582600D01*
X105928000Y-107562600D01*
X106182000Y-107562600D01*
X106182000Y-107582600D01*
X107130690Y-107582600D01*
X107289440Y-107423850D01*
X107292512Y-107360350D01*
X107280252Y-107235868D01*
X107243942Y-107116170D01*
X107221722Y-107074600D01*
X107243942Y-107033030D01*
X107280252Y-106913332D01*
X107292512Y-106788850D01*
X107292512Y-106090350D01*
X107280252Y-105965868D01*
X107243942Y-105846170D01*
X107221722Y-105804600D01*
X107243942Y-105763030D01*
X107280252Y-105643332D01*
X107292512Y-105518850D01*
X107292512Y-104820350D01*
X107280252Y-104695868D01*
X107243942Y-104576170D01*
X107221722Y-104534600D01*
X107243942Y-104493030D01*
X107280252Y-104373332D01*
X107292512Y-104248850D01*
X107292512Y-103550350D01*
X107280252Y-103425868D01*
X107243942Y-103306170D01*
X107221722Y-103264600D01*
X107243942Y-103223030D01*
X107280252Y-103103332D01*
X107292512Y-102978850D01*
X107292512Y-102280350D01*
X107280252Y-102155868D01*
X107243942Y-102036170D01*
X107221722Y-101994600D01*
X107243942Y-101953030D01*
X107280252Y-101833332D01*
X107292512Y-101708850D01*
X107292512Y-101010350D01*
X107280252Y-100885868D01*
X107243942Y-100766170D01*
X107221722Y-100724600D01*
X107243942Y-100683030D01*
X107280252Y-100563332D01*
X107292512Y-100438850D01*
X107292512Y-99740350D01*
X107280252Y-99615868D01*
X107243942Y-99496170D01*
X107221722Y-99454600D01*
X107243942Y-99413030D01*
X107280252Y-99293332D01*
X107292512Y-99168850D01*
X107292512Y-98470350D01*
X107280252Y-98345868D01*
X107243942Y-98226170D01*
X107221722Y-98184600D01*
X107243942Y-98143030D01*
X107280252Y-98023332D01*
X107292512Y-97898850D01*
X107292512Y-97200350D01*
X107280252Y-97075868D01*
X107243942Y-96956170D01*
X107221722Y-96914600D01*
X107243942Y-96873030D01*
X107280252Y-96753332D01*
X107292512Y-96628850D01*
X107292512Y-95930350D01*
X107280252Y-95805868D01*
X107243942Y-95686170D01*
X107221722Y-95644600D01*
X107243942Y-95603030D01*
X107280252Y-95483332D01*
X107292512Y-95358850D01*
X107292512Y-94660350D01*
X107280252Y-94535868D01*
X107243942Y-94416170D01*
X107221722Y-94374600D01*
X107243942Y-94333030D01*
X107280252Y-94213332D01*
X107292512Y-94088850D01*
X107289440Y-94025350D01*
X107130690Y-93866600D01*
X106182000Y-93866600D01*
X106182000Y-93886600D01*
X105928000Y-93886600D01*
X105928000Y-93866600D01*
X104979310Y-93866600D01*
X104820560Y-94025350D01*
X104817488Y-94088850D01*
X97795800Y-94088850D01*
X97795800Y-94054601D01*
X98204102Y-93646300D01*
X102969667Y-93646300D01*
X103007000Y-93649977D01*
X103155986Y-93635303D01*
X103299247Y-93591846D01*
X103431276Y-93521274D01*
X103547001Y-93426301D01*
X103641974Y-93310576D01*
X103712546Y-93178547D01*
X103717884Y-93160951D01*
X103803268Y-93186852D01*
X103927750Y-93199112D01*
X103991250Y-93196040D01*
X104150000Y-93037290D01*
X104150000Y-92088600D01*
X104404000Y-92088600D01*
X104404000Y-93037290D01*
X104562750Y-93196040D01*
X104626250Y-93199112D01*
X104750732Y-93186852D01*
X104864154Y-93152446D01*
X104829748Y-93265868D01*
X104817488Y-93390350D01*
X104820560Y-93453850D01*
X104979310Y-93612600D01*
X105928000Y-93612600D01*
X105928000Y-92914100D01*
X106182000Y-92914100D01*
X106182000Y-93612600D01*
X107130690Y-93612600D01*
X107289440Y-93453850D01*
X107292512Y-93390350D01*
X107280252Y-93265868D01*
X107243942Y-93146170D01*
X107184977Y-93035856D01*
X107105625Y-92939165D01*
X107008934Y-92859813D01*
X106898620Y-92800848D01*
X106778922Y-92764538D01*
X106654440Y-92752278D01*
X106340750Y-92755350D01*
X106182000Y-92914100D01*
X105928000Y-92914100D01*
X105769250Y-92755350D01*
X105455560Y-92752278D01*
X105331078Y-92764538D01*
X105217656Y-92798944D01*
X105252062Y-92685522D01*
X105264322Y-92561040D01*
X105261250Y-92247350D01*
X105102500Y-92088600D01*
X104404000Y-92088600D01*
X104150000Y-92088600D01*
X104130000Y-92088600D01*
X104130000Y-91834600D01*
X104150000Y-91834600D01*
X104150000Y-90885910D01*
X104404000Y-90885910D01*
X104404000Y-91834600D01*
X105102500Y-91834600D01*
X105261250Y-91675850D01*
X105264322Y-91362160D01*
X105252062Y-91237678D01*
X105215752Y-91117980D01*
X105156787Y-91007666D01*
X105077435Y-90910975D01*
X104980744Y-90831623D01*
X104870430Y-90772658D01*
X104750732Y-90736348D01*
X104626250Y-90724088D01*
X104562750Y-90727160D01*
X104404000Y-90885910D01*
X104150000Y-90885910D01*
X103991250Y-90727160D01*
X103927750Y-90724088D01*
X103803268Y-90736348D01*
X103767000Y-90747350D01*
X103767000Y-89603000D01*
X112366928Y-89603000D01*
X112379188Y-89727482D01*
X112415498Y-89847180D01*
X112474463Y-89957494D01*
X112553815Y-90054185D01*
X112650506Y-90133537D01*
X112760820Y-90192502D01*
X112880518Y-90228812D01*
X113005000Y-90241072D01*
X113469250Y-90238000D01*
X113628000Y-90079250D01*
X113628000Y-89230000D01*
X112528750Y-89230000D01*
X112370000Y-89388750D01*
X112366928Y-89603000D01*
X103767000Y-89603000D01*
X103767000Y-88221101D01*
X105921003Y-86067099D01*
X105950001Y-86043301D01*
X106044974Y-85927576D01*
X106104575Y-85816072D01*
X106260000Y-85816072D01*
X106384482Y-85803812D01*
X106504180Y-85767502D01*
X106614494Y-85708537D01*
X106711185Y-85629185D01*
X106790537Y-85532494D01*
X106849502Y-85422180D01*
X106885812Y-85302482D01*
X106898072Y-85178000D01*
X106898072Y-83912600D01*
X109614499Y-83912600D01*
X112115901Y-86414003D01*
X112139699Y-86443001D01*
X112168697Y-86466799D01*
X112255423Y-86537974D01*
X112277174Y-86549600D01*
X112387453Y-86608546D01*
X112405433Y-86614000D01*
X112415498Y-86647180D01*
X112474463Y-86757494D01*
X112553815Y-86854185D01*
X112650506Y-86933537D01*
X112760820Y-86992502D01*
X112880518Y-87028812D01*
X113005000Y-87041072D01*
X114505000Y-87041072D01*
X114629482Y-87028812D01*
X114749180Y-86992502D01*
X114816673Y-86956425D01*
X114640099Y-87133000D01*
X110526611Y-87133000D01*
X110482674Y-87089063D01*
X110313156Y-86975795D01*
X110124798Y-86897774D01*
X109924839Y-86858000D01*
X109720961Y-86858000D01*
X109521002Y-86897774D01*
X109332644Y-86975795D01*
X109163126Y-87089063D01*
X109018963Y-87233226D01*
X108905695Y-87402744D01*
X108827674Y-87591102D01*
X108787900Y-87791061D01*
X108787900Y-87994939D01*
X108827674Y-88194898D01*
X108905695Y-88383256D01*
X109018963Y-88552774D01*
X109163126Y-88696937D01*
X109332644Y-88810205D01*
X109521002Y-88888226D01*
X109720961Y-88928000D01*
X109924839Y-88928000D01*
X110124798Y-88888226D01*
X110313156Y-88810205D01*
X110482674Y-88696937D01*
X110526611Y-88653000D01*
X112367645Y-88653000D01*
X112370000Y-88817250D01*
X112528750Y-88976000D01*
X113628000Y-88976000D01*
X113628000Y-88956000D01*
X113882000Y-88956000D01*
X113882000Y-88976000D01*
X113902000Y-88976000D01*
X113902000Y-89230000D01*
X113882000Y-89230000D01*
X113882000Y-90079250D01*
X114004674Y-90201924D01*
X109735603Y-94470996D01*
X109706599Y-94494799D01*
X109655140Y-94557503D01*
X109611626Y-94610524D01*
X109573300Y-94682226D01*
X109573300Y-93644011D01*
X109617237Y-93600074D01*
X109730505Y-93430556D01*
X109808526Y-93242198D01*
X109848300Y-93042239D01*
X109848300Y-92838361D01*
X109808526Y-92638402D01*
X109730505Y-92450044D01*
X109617237Y-92280526D01*
X109473074Y-92136363D01*
X109303556Y-92023095D01*
X109115198Y-91945074D01*
X108915239Y-91905300D01*
X108711361Y-91905300D01*
X108511402Y-91945074D01*
X108323044Y-92023095D01*
X108153526Y-92136363D01*
X108009363Y-92280526D01*
X107896095Y-92450044D01*
X107818074Y-92638402D01*
X107778300Y-92838361D01*
X107778300Y-93042239D01*
X107818074Y-93242198D01*
X107896095Y-93430556D01*
X108009363Y-93600074D01*
X108053300Y-93644011D01*
X108053301Y-106567388D01*
X108009363Y-106611326D01*
X107896095Y-106780844D01*
X107818074Y-106969202D01*
X107778300Y-107169161D01*
X107778300Y-107373039D01*
X107818074Y-107572998D01*
X107896095Y-107761356D01*
X108009363Y-107930874D01*
X108153526Y-108075037D01*
X108323044Y-108188305D01*
X108511402Y-108266326D01*
X108711361Y-108306100D01*
X108915239Y-108306100D01*
X109115198Y-108266326D01*
X109303556Y-108188305D01*
X109473074Y-108075037D01*
X109486601Y-108061510D01*
X109486601Y-108709568D01*
X109482924Y-108746900D01*
X109486601Y-108784233D01*
X109488714Y-108805681D01*
X109497598Y-108895885D01*
X109541054Y-109039146D01*
X109611626Y-109171176D01*
X109669167Y-109241289D01*
X109706600Y-109286901D01*
X109735598Y-109310699D01*
X112760901Y-112336003D01*
X112784699Y-112365001D01*
X112900424Y-112459974D01*
X113032453Y-112530546D01*
X113050433Y-112536000D01*
X113060498Y-112569180D01*
X113119463Y-112679494D01*
X113198815Y-112776185D01*
X113295506Y-112855537D01*
X113405820Y-112914502D01*
X113525518Y-112950812D01*
X113650000Y-112963072D01*
X115150000Y-112963072D01*
X115274482Y-112950812D01*
X115394180Y-112914502D01*
X115504494Y-112855537D01*
X115601185Y-112776185D01*
X115680537Y-112679494D01*
X115739502Y-112569180D01*
X115775812Y-112449482D01*
X115788072Y-112325000D01*
X115788072Y-111325000D01*
X115775812Y-111200518D01*
X115739502Y-111080820D01*
X115680537Y-110970506D01*
X115601185Y-110873815D01*
X115504494Y-110794463D01*
X115394180Y-110735498D01*
X115274482Y-110699188D01*
X115150000Y-110686928D01*
X113650000Y-110686928D01*
X113525518Y-110699188D01*
X113405820Y-110735498D01*
X113343377Y-110768875D01*
X111006600Y-108432099D01*
X111006600Y-106311800D01*
X111056744Y-106345305D01*
X111245102Y-106423326D01*
X111445061Y-106463100D01*
X111507199Y-106463100D01*
X117380101Y-112336003D01*
X117403899Y-112365001D01*
X117519624Y-112459974D01*
X117651653Y-112530546D01*
X117794914Y-112574003D01*
X117906567Y-112585000D01*
X117906575Y-112585000D01*
X117943900Y-112588676D01*
X117969568Y-112586148D01*
X118019463Y-112679494D01*
X118098815Y-112776185D01*
X118195506Y-112855537D01*
X118305820Y-112914502D01*
X118425518Y-112950812D01*
X118550000Y-112963072D01*
X120050000Y-112963072D01*
X120174482Y-112950812D01*
X120294180Y-112914502D01*
X120404494Y-112855537D01*
X120501185Y-112776185D01*
X120580537Y-112679494D01*
X120639502Y-112569180D01*
X120675812Y-112449482D01*
X120688072Y-112325000D01*
X120688072Y-111325000D01*
X120675812Y-111200518D01*
X120639502Y-111080820D01*
X120580537Y-110970506D01*
X120501185Y-110873815D01*
X120404494Y-110794463D01*
X120294180Y-110735498D01*
X120174482Y-110699188D01*
X120050000Y-110686928D01*
X118550000Y-110686928D01*
X118425518Y-110699188D01*
X118305820Y-110735498D01*
X118195506Y-110794463D01*
X118098815Y-110873815D01*
X118084707Y-110891005D01*
X116985576Y-109791874D01*
X123665881Y-109791874D01*
X123745724Y-110014976D01*
X123867631Y-110202764D01*
X124023831Y-110363161D01*
X124208322Y-110490003D01*
X124414013Y-110578415D01*
X124633000Y-110625000D01*
X125183000Y-110625000D01*
X125183000Y-109617000D01*
X123792046Y-109617000D01*
X123665881Y-109791874D01*
X116985576Y-109791874D01*
X112582000Y-105388299D01*
X112582000Y-105326161D01*
X112542226Y-105126202D01*
X112464205Y-104937844D01*
X112350937Y-104768326D01*
X112206774Y-104624163D01*
X112037256Y-104510895D01*
X111848898Y-104432874D01*
X111648939Y-104393100D01*
X111510600Y-104393100D01*
X111510600Y-95759746D01*
X111596744Y-95817305D01*
X111785102Y-95895326D01*
X111985061Y-95935100D01*
X112188939Y-95935100D01*
X112388898Y-95895326D01*
X112577256Y-95817305D01*
X112746774Y-95704037D01*
X112790711Y-95660100D01*
X116000499Y-95660100D01*
X119181759Y-98841361D01*
X119115044Y-98868995D01*
X118945526Y-98982263D01*
X118801363Y-99126426D01*
X118688095Y-99295944D01*
X118610074Y-99484302D01*
X118570300Y-99684261D01*
X118570300Y-99888139D01*
X118610074Y-100088098D01*
X118688095Y-100276456D01*
X118801363Y-100445974D01*
X118845301Y-100489912D01*
X118845300Y-106276977D01*
X118841624Y-106314300D01*
X118845300Y-106351622D01*
X118845300Y-106351632D01*
X118856297Y-106463285D01*
X118884110Y-106554974D01*
X118899754Y-106606546D01*
X118970326Y-106738576D01*
X119005015Y-106780844D01*
X119065299Y-106854301D01*
X119094303Y-106878104D01*
X119958600Y-107742402D01*
X119958600Y-107804539D01*
X119998374Y-108004498D01*
X120076395Y-108192856D01*
X120189663Y-108362374D01*
X120333826Y-108506537D01*
X120503344Y-108619805D01*
X120691702Y-108697826D01*
X120891661Y-108737600D01*
X121095539Y-108737600D01*
X121295498Y-108697826D01*
X121483856Y-108619805D01*
X121653374Y-108506537D01*
X121697311Y-108462600D01*
X122035000Y-108462600D01*
X122035000Y-108522002D01*
X122193748Y-108522002D01*
X122035000Y-108680750D01*
X122031928Y-108695000D01*
X122044188Y-108819482D01*
X122080498Y-108939180D01*
X122139463Y-109049494D01*
X122218815Y-109146185D01*
X122315506Y-109225537D01*
X122425820Y-109284502D01*
X122545518Y-109320812D01*
X122670000Y-109333072D01*
X123609250Y-109330000D01*
X123701606Y-109237644D01*
X123767998Y-109329668D01*
X123767998Y-109330000D01*
X123768238Y-109330000D01*
X123792046Y-109363000D01*
X125183000Y-109363000D01*
X125183000Y-109343000D01*
X125437000Y-109343000D01*
X125437000Y-109363000D01*
X126827954Y-109363000D01*
X126954119Y-109188126D01*
X128095881Y-109188126D01*
X128222046Y-109363000D01*
X129363000Y-109363000D01*
X129363000Y-108355000D01*
X129063000Y-108355000D01*
X128844013Y-108401585D01*
X128638322Y-108489997D01*
X128453831Y-108616839D01*
X128297631Y-108777236D01*
X128175724Y-108965024D01*
X128095881Y-109188126D01*
X126954119Y-109188126D01*
X126874276Y-108965024D01*
X126752369Y-108777236D01*
X126611794Y-108632884D01*
X126690741Y-108514731D01*
X126763108Y-108340022D01*
X126800000Y-108154552D01*
X126800000Y-107965448D01*
X126763108Y-107779978D01*
X126690741Y-107605269D01*
X126585681Y-107448036D01*
X126452779Y-107315134D01*
X126476701Y-107295501D01*
X126571674Y-107179776D01*
X126642246Y-107047747D01*
X126685703Y-106904486D01*
X126696700Y-106792833D01*
X126700377Y-106755500D01*
X126696700Y-106718167D01*
X126696700Y-103626125D01*
X126700376Y-103588800D01*
X126696700Y-103551475D01*
X126696700Y-103551467D01*
X126685703Y-103439814D01*
X126642246Y-103296553D01*
X126571674Y-103164524D01*
X126476701Y-103048799D01*
X126450072Y-103026945D01*
X126451964Y-103025681D01*
X126585681Y-102891964D01*
X126690741Y-102734731D01*
X126763108Y-102560022D01*
X126800000Y-102374552D01*
X126800000Y-102185448D01*
X126763108Y-101999978D01*
X126690741Y-101825269D01*
X126611794Y-101707116D01*
X126752369Y-101562764D01*
X126874276Y-101374976D01*
X126954119Y-101151874D01*
X128095881Y-101151874D01*
X128175724Y-101374976D01*
X128297631Y-101562764D01*
X128453831Y-101723161D01*
X128638322Y-101850003D01*
X128844013Y-101938415D01*
X129063000Y-101985000D01*
X129363000Y-101985000D01*
X129363000Y-100977000D01*
X128222046Y-100977000D01*
X128095881Y-101151874D01*
X126954119Y-101151874D01*
X126827954Y-100977000D01*
X125437000Y-100977000D01*
X125437000Y-100997000D01*
X125183000Y-100997000D01*
X125183000Y-100977000D01*
X123792046Y-100977000D01*
X123768238Y-101010000D01*
X123767998Y-101010000D01*
X123767998Y-101010332D01*
X123701606Y-101102356D01*
X123609250Y-101010000D01*
X123104600Y-101008349D01*
X123104600Y-100548126D01*
X123665881Y-100548126D01*
X123792046Y-100723000D01*
X125183000Y-100723000D01*
X125183000Y-99715000D01*
X124633000Y-99715000D01*
X124414013Y-99761585D01*
X124208322Y-99849997D01*
X124023831Y-99976839D01*
X123867631Y-100137236D01*
X123745724Y-100325024D01*
X123665881Y-100548126D01*
X123104600Y-100548126D01*
X123104600Y-87868825D01*
X123108276Y-87831500D01*
X123104600Y-87794175D01*
X123104600Y-87794167D01*
X123093603Y-87682514D01*
X123050146Y-87539253D01*
X122979574Y-87407224D01*
X122884601Y-87291499D01*
X122855603Y-87267701D01*
X120154504Y-84566603D01*
X120130701Y-84537599D01*
X120014976Y-84442626D01*
X119882947Y-84372054D01*
X119739686Y-84328597D01*
X119628033Y-84317600D01*
X119628022Y-84317600D01*
X119590700Y-84313924D01*
X119553378Y-84317600D01*
X119091443Y-84317600D01*
X119104711Y-84306711D01*
X119190312Y-84202407D01*
X119253919Y-84083406D01*
X119293088Y-83954283D01*
X119306314Y-83820000D01*
X119303000Y-83786353D01*
X119303000Y-83108000D01*
X126315000Y-83108000D01*
X126315000Y-83405353D01*
X126311686Y-83439000D01*
X126324912Y-83573283D01*
X126364081Y-83702406D01*
X126427688Y-83821407D01*
X126513289Y-83925711D01*
X126617593Y-84011312D01*
X126736594Y-84074919D01*
X126865717Y-84114088D01*
X126966353Y-84124000D01*
X127000000Y-84127314D01*
X127033647Y-84124000D01*
X128474000Y-84124000D01*
X128474001Y-88850000D01*
X127033647Y-88850000D01*
X127000000Y-88846686D01*
X126966353Y-88850000D01*
X126865717Y-88859912D01*
X126736594Y-88899081D01*
X126617593Y-88962688D01*
X126513289Y-89048289D01*
X126427688Y-89152593D01*
X126364081Y-89271594D01*
X126324912Y-89400717D01*
X126311686Y-89535000D01*
X126315000Y-89568647D01*
X126315001Y-99788343D01*
X126313102Y-99807626D01*
X126205987Y-99761585D01*
X125987000Y-99715000D01*
X125437000Y-99715000D01*
X125437000Y-100723000D01*
X126827954Y-100723000D01*
X126954119Y-100548126D01*
X126938416Y-100504248D01*
X126966353Y-100507000D01*
X127000000Y-100510314D01*
X127033647Y-100507000D01*
X128110599Y-100507000D01*
X128095881Y-100548126D01*
X128222046Y-100723000D01*
X129363000Y-100723000D01*
X129363000Y-100703000D01*
X129617000Y-100703000D01*
X129617000Y-100723000D01*
X129637000Y-100723000D01*
X129637000Y-100977000D01*
X129617000Y-100977000D01*
X129617000Y-101985000D01*
X129917000Y-101985000D01*
X129998000Y-101967769D01*
X129998001Y-108372231D01*
X129917000Y-108355000D01*
X129617000Y-108355000D01*
X129617000Y-109363000D01*
X129637000Y-109363000D01*
X129637000Y-109617000D01*
X129617000Y-109617000D01*
X129617000Y-109637000D01*
X129363000Y-109637000D01*
X129363000Y-109617000D01*
X128222046Y-109617000D01*
X128095881Y-109791874D01*
X128175724Y-110014976D01*
X128204303Y-110059000D01*
X126845697Y-110059000D01*
X126874276Y-110014976D01*
X126954119Y-109791874D01*
X126827954Y-109617000D01*
X125437000Y-109617000D01*
X125437000Y-110625000D01*
X125777422Y-110625000D01*
X119579962Y-122066466D01*
X106719458Y-116728144D01*
X106689406Y-116712081D01*
X106624235Y-116692312D01*
X106560791Y-116673014D01*
X106560536Y-116672989D01*
X106560283Y-116672912D01*
X106492298Y-116666216D01*
X106426517Y-116659687D01*
X106392619Y-116663000D01*
X100761000Y-116663000D01*
X100761000Y-115984647D01*
X100764314Y-115951000D01*
X100751088Y-115816717D01*
X100711919Y-115687594D01*
X100648312Y-115568593D01*
X100562711Y-115464289D01*
X100458407Y-115378688D01*
X100339406Y-115315081D01*
X100210283Y-115275912D01*
X100109647Y-115266000D01*
X100076000Y-115262686D01*
X100042353Y-115266000D01*
X98204647Y-115266000D01*
X98171000Y-115262686D01*
X98137353Y-115266000D01*
X98036717Y-115275912D01*
X97907594Y-115315081D01*
X97788593Y-115378688D01*
X97684289Y-115464289D01*
X97598688Y-115568593D01*
X97535081Y-115687594D01*
X97495912Y-115816717D01*
X97482686Y-115951000D01*
X97486000Y-115984647D01*
X97486001Y-116663000D01*
X92498048Y-116663000D01*
X92561185Y-116611185D01*
X92640537Y-116514494D01*
X92699502Y-116404180D01*
X92735812Y-116284482D01*
X92748072Y-116160000D01*
X92748072Y-115204400D01*
X103958799Y-115204400D01*
X105115701Y-116361303D01*
X105139499Y-116390301D01*
X105255224Y-116485274D01*
X105387253Y-116555846D01*
X105530514Y-116599303D01*
X105642167Y-116610300D01*
X105642177Y-116610300D01*
X105679500Y-116613976D01*
X105716823Y-116610300D01*
X117362078Y-116610300D01*
X117399400Y-116613976D01*
X117436722Y-116610300D01*
X117436733Y-116610300D01*
X117548386Y-116599303D01*
X117691647Y-116555846D01*
X117823676Y-116485274D01*
X117939401Y-116390301D01*
X117963203Y-116361298D01*
X118243377Y-116081125D01*
X118305820Y-116114502D01*
X118425518Y-116150812D01*
X118550000Y-116163072D01*
X120050000Y-116163072D01*
X120174482Y-116150812D01*
X120294180Y-116114502D01*
X120404494Y-116055537D01*
X120501185Y-115976185D01*
X120580537Y-115879494D01*
X120639502Y-115769180D01*
X120675812Y-115649482D01*
X120688072Y-115525000D01*
X120688072Y-114525000D01*
X120675812Y-114400518D01*
X120639502Y-114280820D01*
X120580537Y-114170506D01*
X120501185Y-114073815D01*
X120404494Y-113994463D01*
X120294180Y-113935498D01*
X120174482Y-113899188D01*
X120050000Y-113886928D01*
X118550000Y-113886928D01*
X118425518Y-113899188D01*
X118305820Y-113935498D01*
X118195506Y-113994463D01*
X118098815Y-114073815D01*
X118019463Y-114170506D01*
X117960498Y-114280820D01*
X117950433Y-114314000D01*
X117932453Y-114319454D01*
X117800424Y-114390026D01*
X117800422Y-114390027D01*
X117800423Y-114390027D01*
X117713696Y-114461201D01*
X117713692Y-114461205D01*
X117684699Y-114484999D01*
X117660905Y-114513992D01*
X117084598Y-115090300D01*
X105994302Y-115090300D01*
X105429002Y-114525000D01*
X113011928Y-114525000D01*
X113015000Y-114739250D01*
X113173750Y-114898000D01*
X114273000Y-114898000D01*
X114273000Y-114048750D01*
X114527000Y-114048750D01*
X114527000Y-114898000D01*
X115626250Y-114898000D01*
X115785000Y-114739250D01*
X115788072Y-114525000D01*
X115775812Y-114400518D01*
X115739502Y-114280820D01*
X115680537Y-114170506D01*
X115601185Y-114073815D01*
X115504494Y-113994463D01*
X115394180Y-113935498D01*
X115274482Y-113899188D01*
X115150000Y-113886928D01*
X114685750Y-113890000D01*
X114527000Y-114048750D01*
X114273000Y-114048750D01*
X114114250Y-113890000D01*
X113650000Y-113886928D01*
X113525518Y-113899188D01*
X113405820Y-113935498D01*
X113295506Y-113994463D01*
X113198815Y-114073815D01*
X113119463Y-114170506D01*
X113060498Y-114280820D01*
X113024188Y-114400518D01*
X113011928Y-114525000D01*
X105429002Y-114525000D01*
X104837404Y-113933403D01*
X104813601Y-113904399D01*
X104697876Y-113809426D01*
X104565847Y-113738854D01*
X104422586Y-113695397D01*
X104310933Y-113684400D01*
X104310922Y-113684400D01*
X104273600Y-113680724D01*
X104236278Y-113684400D01*
X89834503Y-113684400D01*
X88099104Y-111949002D01*
X88075301Y-111919999D01*
X87959576Y-111825026D01*
X87827547Y-111754454D01*
X87809567Y-111749000D01*
X87799502Y-111715820D01*
X87740537Y-111605506D01*
X87661185Y-111508815D01*
X87564494Y-111429463D01*
X87454180Y-111370498D01*
X87334482Y-111334188D01*
X87210000Y-111321928D01*
X85710000Y-111321928D01*
X85585518Y-111334188D01*
X85465820Y-111370498D01*
X85355506Y-111429463D01*
X85258815Y-111508815D01*
X85179463Y-111605506D01*
X85120498Y-111715820D01*
X85084188Y-111835518D01*
X85071928Y-111960000D01*
X85071928Y-112960000D01*
X85084188Y-113084482D01*
X85120498Y-113204180D01*
X85179463Y-113314494D01*
X85258815Y-113411185D01*
X85355506Y-113490537D01*
X85465820Y-113549502D01*
X85585518Y-113585812D01*
X85710000Y-113598072D01*
X87210000Y-113598072D01*
X87334482Y-113585812D01*
X87454180Y-113549502D01*
X87516623Y-113516125D01*
X88955905Y-114955408D01*
X88979699Y-114984401D01*
X89008692Y-115008195D01*
X89008696Y-115008199D01*
X89029170Y-115025001D01*
X89095424Y-115079374D01*
X89227453Y-115149946D01*
X89370714Y-115193403D01*
X89482367Y-115204400D01*
X89482376Y-115204400D01*
X89519699Y-115208076D01*
X89557022Y-115204400D01*
X89971928Y-115204400D01*
X89971928Y-116160000D01*
X89984188Y-116284482D01*
X90020498Y-116404180D01*
X90079463Y-116514494D01*
X90158815Y-116611185D01*
X90221952Y-116663000D01*
X87598048Y-116663000D01*
X87661185Y-116611185D01*
X87740537Y-116514494D01*
X87799502Y-116404180D01*
X87835812Y-116284482D01*
X87848072Y-116160000D01*
X87845000Y-115945750D01*
X87686250Y-115787000D01*
X86587000Y-115787000D01*
X86587000Y-115807000D01*
X86333000Y-115807000D01*
X86333000Y-115787000D01*
X85233750Y-115787000D01*
X85075000Y-115945750D01*
X85071928Y-116160000D01*
X85084188Y-116284482D01*
X85120498Y-116404180D01*
X85179463Y-116514494D01*
X85258815Y-116611185D01*
X85321952Y-116663000D01*
X85310633Y-116663000D01*
X83219503Y-115160000D01*
X85071928Y-115160000D01*
X85075000Y-115374250D01*
X85233750Y-115533000D01*
X86333000Y-115533000D01*
X86333000Y-114683750D01*
X86587000Y-114683750D01*
X86587000Y-115533000D01*
X87686250Y-115533000D01*
X87845000Y-115374250D01*
X87848072Y-115160000D01*
X87835812Y-115035518D01*
X87799502Y-114915820D01*
X87740537Y-114805506D01*
X87661185Y-114708815D01*
X87564494Y-114629463D01*
X87454180Y-114570498D01*
X87334482Y-114534188D01*
X87210000Y-114521928D01*
X86745750Y-114525000D01*
X86587000Y-114683750D01*
X86333000Y-114683750D01*
X86174250Y-114525000D01*
X85710000Y-114521928D01*
X85585518Y-114534188D01*
X85465820Y-114570498D01*
X85355506Y-114629463D01*
X85258815Y-114708815D01*
X85179463Y-114805506D01*
X85120498Y-114915820D01*
X85084188Y-115035518D01*
X85071928Y-115160000D01*
X83219503Y-115160000D01*
X77647000Y-111154764D01*
X77647000Y-110413000D01*
X83278353Y-110413000D01*
X83312000Y-110416314D01*
X83446283Y-110403088D01*
X83575406Y-110363919D01*
X83694407Y-110300312D01*
X83798711Y-110214711D01*
X83884312Y-110110407D01*
X83947919Y-109991406D01*
X83987088Y-109862283D01*
X83997000Y-109761647D01*
X84000314Y-109728000D01*
X83997000Y-109694353D01*
X83997000Y-91727647D01*
X84000314Y-91694000D01*
X83987088Y-91559717D01*
X83947919Y-91430594D01*
X83884312Y-91311593D01*
X83798711Y-91207289D01*
X83694407Y-91121688D01*
X83575406Y-91058081D01*
X83446283Y-91018912D01*
X83345647Y-91009000D01*
X83312000Y-91005686D01*
X83278353Y-91009000D01*
X77647000Y-91009000D01*
X77647000Y-89489600D01*
X83166928Y-89489600D01*
X83179188Y-89614082D01*
X83215498Y-89733780D01*
X83274463Y-89844094D01*
X83353815Y-89940785D01*
X83450506Y-90020137D01*
X83560820Y-90079102D01*
X83680518Y-90115412D01*
X83805000Y-90127672D01*
X84269250Y-90124600D01*
X84428000Y-89965850D01*
X84428000Y-89116600D01*
X84682000Y-89116600D01*
X84682000Y-89965850D01*
X84840750Y-90124600D01*
X85305000Y-90127672D01*
X85429482Y-90115412D01*
X85549180Y-90079102D01*
X85659494Y-90020137D01*
X85756185Y-89940785D01*
X85835537Y-89844094D01*
X85894502Y-89733780D01*
X85930812Y-89614082D01*
X85943072Y-89489600D01*
X85940000Y-89275350D01*
X85781250Y-89116600D01*
X84682000Y-89116600D01*
X84428000Y-89116600D01*
X83328750Y-89116600D01*
X83170000Y-89275350D01*
X83166928Y-89489600D01*
X77647000Y-89489600D01*
X77647000Y-88489600D01*
X83166928Y-88489600D01*
X83170000Y-88703850D01*
X83328750Y-88862600D01*
X84428000Y-88862600D01*
X84428000Y-88013350D01*
X84682000Y-88013350D01*
X84682000Y-88862600D01*
X85781250Y-88862600D01*
X85940000Y-88703850D01*
X85943072Y-88489600D01*
X85930812Y-88365118D01*
X85894502Y-88245420D01*
X85835537Y-88135106D01*
X85756185Y-88038415D01*
X85659494Y-87959063D01*
X85549180Y-87900098D01*
X85429482Y-87863788D01*
X85305000Y-87851528D01*
X84840750Y-87854600D01*
X84682000Y-88013350D01*
X84428000Y-88013350D01*
X84269250Y-87854600D01*
X83805000Y-87851528D01*
X83680518Y-87863788D01*
X83560820Y-87900098D01*
X83450506Y-87959063D01*
X83353815Y-88038415D01*
X83274463Y-88135106D01*
X83215498Y-88245420D01*
X83179188Y-88365118D01*
X83166928Y-88489600D01*
X77647000Y-88489600D01*
X77647000Y-85289600D01*
X83166928Y-85289600D01*
X83166928Y-86289600D01*
X83179188Y-86414082D01*
X83215498Y-86533780D01*
X83274463Y-86644094D01*
X83353815Y-86740785D01*
X83450506Y-86820137D01*
X83560820Y-86879102D01*
X83680518Y-86915412D01*
X83805000Y-86927672D01*
X84888300Y-86927672D01*
X84888300Y-87025639D01*
X84928074Y-87225598D01*
X85006095Y-87413956D01*
X85119363Y-87583474D01*
X85263526Y-87727637D01*
X85433044Y-87840905D01*
X85621402Y-87918926D01*
X85821361Y-87958700D01*
X86025239Y-87958700D01*
X86225198Y-87918926D01*
X86413556Y-87840905D01*
X86583074Y-87727637D01*
X86727237Y-87583474D01*
X86840505Y-87413956D01*
X86918526Y-87225598D01*
X86958300Y-87025639D01*
X86958300Y-86821761D01*
X86918526Y-86621802D01*
X86840505Y-86433444D01*
X86727237Y-86263926D01*
X86683300Y-86219989D01*
X86683300Y-86119933D01*
X86686977Y-86082600D01*
X86672303Y-85933614D01*
X86628846Y-85790353D01*
X86593820Y-85724825D01*
X86558274Y-85658324D01*
X86463301Y-85542599D01*
X86434297Y-85518796D01*
X86194104Y-85278603D01*
X86170301Y-85249599D01*
X86054576Y-85154626D01*
X85922547Y-85084054D01*
X85904567Y-85078600D01*
X85894502Y-85045420D01*
X85835537Y-84935106D01*
X85756185Y-84838415D01*
X85659494Y-84759063D01*
X85549180Y-84700098D01*
X85429482Y-84663788D01*
X85305000Y-84651528D01*
X83805000Y-84651528D01*
X83680518Y-84663788D01*
X83560820Y-84700098D01*
X83450506Y-84759063D01*
X83353815Y-84838415D01*
X83274463Y-84935106D01*
X83215498Y-85045420D01*
X83179188Y-85165118D01*
X83166928Y-85289600D01*
X77647000Y-85289600D01*
X77647000Y-84484736D01*
X79023736Y-83108000D01*
X84405000Y-83108000D01*
X84405001Y-83786343D01*
X84405001Y-83786343D01*
G37*
X84405001Y-83786343D02*
X84401686Y-83820000D01*
X84414912Y-83954283D01*
X84454081Y-84083406D01*
X84517688Y-84202407D01*
X84603289Y-84306711D01*
X84707593Y-84392312D01*
X84826594Y-84455919D01*
X84955717Y-84495088D01*
X85056353Y-84505000D01*
X85090000Y-84508314D01*
X85123647Y-84505000D01*
X86961353Y-84505000D01*
X86995000Y-84508314D01*
X87028647Y-84505000D01*
X87129283Y-84495088D01*
X87258406Y-84455919D01*
X87377407Y-84392312D01*
X87481711Y-84306711D01*
X87567312Y-84202407D01*
X87630919Y-84083406D01*
X87670088Y-83954283D01*
X87683314Y-83820000D01*
X87680000Y-83786353D01*
X87680000Y-83108000D01*
X95337098Y-83108000D01*
X90511624Y-87933475D01*
X90449180Y-87900098D01*
X90329482Y-87863788D01*
X90205000Y-87851528D01*
X88822200Y-87851528D01*
X88822200Y-86927672D01*
X90205000Y-86927672D01*
X90329482Y-86915412D01*
X90449180Y-86879102D01*
X90559494Y-86820137D01*
X90656185Y-86740785D01*
X90735537Y-86644094D01*
X90794502Y-86533780D01*
X90830812Y-86414082D01*
X90843072Y-86289600D01*
X90843072Y-85289600D01*
X90830812Y-85165118D01*
X90794502Y-85045420D01*
X90735537Y-84935106D01*
X90656185Y-84838415D01*
X90559494Y-84759063D01*
X90449180Y-84700098D01*
X90329482Y-84663788D01*
X90205000Y-84651528D01*
X88705000Y-84651528D01*
X88580518Y-84663788D01*
X88460820Y-84700098D01*
X88350506Y-84759063D01*
X88253815Y-84838415D01*
X88174463Y-84935106D01*
X88115498Y-85045420D01*
X88105433Y-85078600D01*
X88087453Y-85084054D01*
X87955424Y-85154626D01*
X87839699Y-85249599D01*
X87815896Y-85278603D01*
X87551203Y-85543296D01*
X87522199Y-85567099D01*
X87471247Y-85629185D01*
X87427226Y-85682824D01*
X87370153Y-85789600D01*
X87356654Y-85814854D01*
X87313197Y-85958115D01*
X87302200Y-86069768D01*
X87302200Y-86069778D01*
X87298524Y-86107100D01*
X87302200Y-86144423D01*
X87302201Y-88246688D01*
X87258263Y-88290626D01*
X87144995Y-88460144D01*
X87066974Y-88648502D01*
X87027200Y-88848461D01*
X87027200Y-89052339D01*
X87066974Y-89252298D01*
X87144995Y-89440656D01*
X87258263Y-89610174D01*
X87302200Y-89654111D01*
X87302201Y-110200167D01*
X87298524Y-110237500D01*
X87302201Y-110274833D01*
X87305113Y-110304393D01*
X87313198Y-110386485D01*
X87356654Y-110529746D01*
X87427226Y-110661776D01*
X87476684Y-110722040D01*
X87522200Y-110777501D01*
X87551198Y-110801299D01*
X89720900Y-112971002D01*
X89744699Y-113000001D01*
X89860424Y-113094974D01*
X89992453Y-113165546D01*
X90010433Y-113171000D01*
X90020498Y-113204180D01*
X90079463Y-113314494D01*
X90158815Y-113411185D01*
X90255506Y-113490537D01*
X90365820Y-113549502D01*
X90485518Y-113585812D01*
X90610000Y-113598072D01*
X92110000Y-113598072D01*
X92234482Y-113585812D01*
X92354180Y-113549502D01*
X92464494Y-113490537D01*
X92561185Y-113411185D01*
X92640537Y-113314494D01*
X92699502Y-113204180D01*
X92735812Y-113084482D01*
X92748072Y-112960000D01*
X92748072Y-111960000D01*
X92735812Y-111835518D01*
X92699502Y-111715820D01*
X92640537Y-111605506D01*
X92561185Y-111508815D01*
X92464494Y-111429463D01*
X92354180Y-111370498D01*
X92234482Y-111334188D01*
X92110000Y-111321928D01*
X90610000Y-111321928D01*
X90485518Y-111334188D01*
X90365820Y-111370498D01*
X90303377Y-111403875D01*
X88822200Y-109922699D01*
X88822200Y-93968501D01*
X94627000Y-99773302D01*
X94627001Y-108273350D01*
X94590732Y-108262348D01*
X94466250Y-108250088D01*
X93767750Y-108250088D01*
X93643268Y-108262348D01*
X93523570Y-108298658D01*
X93482000Y-108320878D01*
X93440430Y-108298658D01*
X93320732Y-108262348D01*
X93196250Y-108250088D01*
X92497750Y-108250088D01*
X92373268Y-108262348D01*
X92253570Y-108298658D01*
X92212000Y-108320878D01*
X92170430Y-108298658D01*
X92050732Y-108262348D01*
X91926250Y-108250088D01*
X91227750Y-108250088D01*
X91103268Y-108262348D01*
X90983570Y-108298658D01*
X90942000Y-108320878D01*
X90900430Y-108298658D01*
X90780732Y-108262348D01*
X90656250Y-108250088D01*
X89957750Y-108250088D01*
X89833268Y-108262348D01*
X89713570Y-108298658D01*
X89603256Y-108357623D01*
X89506565Y-108436975D01*
X89427213Y-108533666D01*
X89368248Y-108643980D01*
X89331938Y-108763678D01*
X89319678Y-108888160D01*
X89319678Y-110087040D01*
X89331938Y-110211522D01*
X89368248Y-110331220D01*
X89427213Y-110441534D01*
X89506565Y-110538225D01*
X89603256Y-110617577D01*
X89713570Y-110676542D01*
X89833268Y-110712852D01*
X89957750Y-110725112D01*
X90656250Y-110725112D01*
X90780732Y-110712852D01*
X90900430Y-110676542D01*
X90942000Y-110654322D01*
X90983570Y-110676542D01*
X91103268Y-110712852D01*
X91227750Y-110725112D01*
X91926250Y-110725112D01*
X92050732Y-110712852D01*
X92170430Y-110676542D01*
X92212000Y-110654322D01*
X92253570Y-110676542D01*
X92373268Y-110712852D01*
X92497750Y-110725112D01*
X93196250Y-110725112D01*
X93320732Y-110712852D01*
X93440430Y-110676542D01*
X93482000Y-110654322D01*
X93523570Y-110676542D01*
X93643268Y-110712852D01*
X93767750Y-110725112D01*
X94466250Y-110725112D01*
X94590732Y-110712852D01*
X94710430Y-110676542D01*
X94752000Y-110654322D01*
X94793570Y-110676542D01*
X94913268Y-110712852D01*
X95037750Y-110725112D01*
X95736250Y-110725112D01*
X95860732Y-110712852D01*
X95980430Y-110676542D01*
X96022000Y-110654322D01*
X96063570Y-110676542D01*
X96183268Y-110712852D01*
X96307750Y-110725112D01*
X97006250Y-110725112D01*
X97130732Y-110712852D01*
X97250430Y-110676542D01*
X97292000Y-110654322D01*
X97333570Y-110676542D01*
X97453268Y-110712852D01*
X97577750Y-110725112D01*
X98276250Y-110725112D01*
X98400732Y-110712852D01*
X98520430Y-110676542D01*
X98562000Y-110654322D01*
X98603570Y-110676542D01*
X98723268Y-110712852D01*
X98847750Y-110725112D01*
X99546250Y-110725112D01*
X99670732Y-110712852D01*
X99790430Y-110676542D01*
X99832000Y-110654322D01*
X99873570Y-110676542D01*
X99993268Y-110712852D01*
X100117750Y-110725112D01*
X100816250Y-110725112D01*
X100940732Y-110712852D01*
X101060430Y-110676542D01*
X101102000Y-110654322D01*
X101143570Y-110676542D01*
X101263268Y-110712852D01*
X101387750Y-110725112D01*
X102086250Y-110725112D01*
X102210732Y-110712852D01*
X102330430Y-110676542D01*
X102372000Y-110654322D01*
X102413570Y-110676542D01*
X102533268Y-110712852D01*
X102657750Y-110725112D01*
X103356250Y-110725112D01*
X103480732Y-110712852D01*
X103600430Y-110676542D01*
X103642000Y-110654322D01*
X103683570Y-110676542D01*
X103803268Y-110712852D01*
X103927750Y-110725112D01*
X103991250Y-110722040D01*
X104150000Y-110563290D01*
X104150000Y-109614600D01*
X104404000Y-109614600D01*
X104404000Y-110563290D01*
X104562750Y-110722040D01*
X104626250Y-110725112D01*
X104750732Y-110712852D01*
X104870430Y-110676542D01*
X104980744Y-110617577D01*
X105077435Y-110538225D01*
X105156787Y-110441534D01*
X105215752Y-110331220D01*
X105252062Y-110211522D01*
X105264322Y-110087040D01*
X105261250Y-109773350D01*
X105102500Y-109614600D01*
X104404000Y-109614600D01*
X104150000Y-109614600D01*
X104130000Y-109614600D01*
X104130000Y-109360600D01*
X104150000Y-109360600D01*
X104150000Y-108411910D01*
X104404000Y-108411910D01*
X104404000Y-109360600D01*
X105102500Y-109360600D01*
X105261250Y-109201850D01*
X105264322Y-108888160D01*
X105252062Y-108763678D01*
X105217656Y-108650256D01*
X105331078Y-108684662D01*
X105455560Y-108696922D01*
X105769250Y-108693850D01*
X105928000Y-108535100D01*
X105928000Y-107836600D01*
X106182000Y-107836600D01*
X106182000Y-108535100D01*
X106340750Y-108693850D01*
X106654440Y-108696922D01*
X106778922Y-108684662D01*
X106898620Y-108648352D01*
X107008934Y-108589387D01*
X107105625Y-108510035D01*
X107184977Y-108413344D01*
X107243942Y-108303030D01*
X107280252Y-108183332D01*
X107292512Y-108058850D01*
X107289440Y-107995350D01*
X107130690Y-107836600D01*
X106182000Y-107836600D01*
X105928000Y-107836600D01*
X104979310Y-107836600D01*
X104820560Y-107995350D01*
X104817488Y-108058850D01*
X104829748Y-108183332D01*
X104864154Y-108296754D01*
X104750732Y-108262348D01*
X104626250Y-108250088D01*
X104562750Y-108253160D01*
X104404000Y-108411910D01*
X104150000Y-108411910D01*
X103991250Y-108253160D01*
X103927750Y-108250088D01*
X103803268Y-108262348D01*
X103683570Y-108298658D01*
X103642000Y-108320878D01*
X103600430Y-108298658D01*
X103480732Y-108262348D01*
X103356250Y-108250088D01*
X102657750Y-108250088D01*
X102533268Y-108262348D01*
X102413570Y-108298658D01*
X102372000Y-108320878D01*
X102330430Y-108298658D01*
X102210732Y-108262348D01*
X102086250Y-108250088D01*
X101387750Y-108250088D01*
X101263268Y-108262348D01*
X101143570Y-108298658D01*
X101102000Y-108320878D01*
X101060430Y-108298658D01*
X100940732Y-108262348D01*
X100816250Y-108250088D01*
X100117750Y-108250088D01*
X99993268Y-108262348D01*
X99873570Y-108298658D01*
X99832000Y-108320878D01*
X99790430Y-108298658D01*
X99670732Y-108262348D01*
X99546250Y-108250088D01*
X98847750Y-108250088D01*
X98723268Y-108262348D01*
X98603570Y-108298658D01*
X98562000Y-108320878D01*
X98520430Y-108298658D01*
X98400732Y-108262348D01*
X98276250Y-108250088D01*
X97577750Y-108250088D01*
X97453268Y-108262348D01*
X97417000Y-108273350D01*
X97417000Y-99816433D01*
X97420677Y-99779100D01*
X97406003Y-99630114D01*
X97362546Y-99486853D01*
X97291974Y-99354824D01*
X97220799Y-99268097D01*
X97197001Y-99239099D01*
X97168004Y-99215302D01*
X91143517Y-93190816D01*
X91227750Y-93199112D01*
X91926250Y-93199112D01*
X92050732Y-93186852D01*
X92170430Y-93150542D01*
X92212000Y-93128322D01*
X92253570Y-93150542D01*
X92373268Y-93186852D01*
X92497750Y-93199112D01*
X93196250Y-93199112D01*
X93320732Y-93186852D01*
X93406117Y-93160951D01*
X93411454Y-93178546D01*
X93482026Y-93310576D01*
X93516042Y-93352024D01*
X93577000Y-93426301D01*
X93605998Y-93450099D01*
X98520700Y-98364802D01*
X98520700Y-98426939D01*
X98560474Y-98626898D01*
X98638495Y-98815256D01*
X98751763Y-98984774D01*
X98895926Y-99128937D01*
X99065444Y-99242205D01*
X99253802Y-99320226D01*
X99453761Y-99360000D01*
X99657639Y-99360000D01*
X99857598Y-99320226D01*
X100045956Y-99242205D01*
X100215474Y-99128937D01*
X100359637Y-98984774D01*
X100472905Y-98815256D01*
X100550926Y-98626898D01*
X100590700Y-98426939D01*
X100590700Y-98223061D01*
X100550926Y-98023102D01*
X100472905Y-97834744D01*
X100359637Y-97665226D01*
X100215474Y-97521063D01*
X100045956Y-97407795D01*
X99857598Y-97329774D01*
X99657639Y-97290000D01*
X99595502Y-97290000D01*
X97241475Y-94935974D01*
X97251056Y-94932005D01*
X97420574Y-94818737D01*
X97564737Y-94674574D01*
X97678005Y-94505056D01*
X97756026Y-94316698D01*
X97795800Y-94116739D01*
X97795800Y-94088850D01*
X104817488Y-94088850D01*
X104829748Y-94213332D01*
X104866058Y-94333030D01*
X104888278Y-94374600D01*
X104866058Y-94416170D01*
X104829748Y-94535868D01*
X104817488Y-94660350D01*
X104817488Y-95358850D01*
X104829748Y-95483332D01*
X104866058Y-95603030D01*
X104888278Y-95644600D01*
X104866058Y-95686170D01*
X104829748Y-95805868D01*
X104817488Y-95930350D01*
X104817488Y-96628850D01*
X104829748Y-96753332D01*
X104866058Y-96873030D01*
X104888278Y-96914600D01*
X104866058Y-96956170D01*
X104829748Y-97075868D01*
X104817488Y-97200350D01*
X104817488Y-97898850D01*
X104829748Y-98023332D01*
X104866058Y-98143030D01*
X104888278Y-98184600D01*
X104866058Y-98226170D01*
X104829748Y-98345868D01*
X104817488Y-98470350D01*
X104817488Y-99168850D01*
X104829748Y-99293332D01*
X104866058Y-99413030D01*
X104888278Y-99454600D01*
X104866058Y-99496170D01*
X104829748Y-99615868D01*
X104817488Y-99740350D01*
X104817488Y-100438850D01*
X104829748Y-100563332D01*
X104866058Y-100683030D01*
X104888278Y-100724600D01*
X104866058Y-100766170D01*
X104829748Y-100885868D01*
X104817488Y-101010350D01*
X104817488Y-101708850D01*
X104829748Y-101833332D01*
X104866058Y-101953030D01*
X104888278Y-101994600D01*
X104866058Y-102036170D01*
X104829748Y-102155868D01*
X104817488Y-102280350D01*
X104817488Y-102978850D01*
X104829748Y-103103332D01*
X104866058Y-103223030D01*
X104888278Y-103264600D01*
X104866058Y-103306170D01*
X104829748Y-103425868D01*
X104817488Y-103550350D01*
X104817488Y-104248850D01*
X104829748Y-104373332D01*
X104866058Y-104493030D01*
X104888278Y-104534600D01*
X104866058Y-104576170D01*
X104829748Y-104695868D01*
X104817488Y-104820350D01*
X104817488Y-105518850D01*
X104829748Y-105643332D01*
X104866058Y-105763030D01*
X104888278Y-105804600D01*
X104866058Y-105846170D01*
X104829748Y-105965868D01*
X104817488Y-106090350D01*
X104817488Y-106788850D01*
X104829748Y-106913332D01*
X104866058Y-107033030D01*
X104888278Y-107074600D01*
X104866058Y-107116170D01*
X104829748Y-107235868D01*
X104817488Y-107360350D01*
X104820560Y-107423850D01*
X104979310Y-107582600D01*
X105928000Y-107582600D01*
X105928000Y-107562600D01*
X106182000Y-107562600D01*
X106182000Y-107582600D01*
X107130690Y-107582600D01*
X107289440Y-107423850D01*
X107292512Y-107360350D01*
X107280252Y-107235868D01*
X107243942Y-107116170D01*
X107221722Y-107074600D01*
X107243942Y-107033030D01*
X107280252Y-106913332D01*
X107292512Y-106788850D01*
X107292512Y-106090350D01*
X107280252Y-105965868D01*
X107243942Y-105846170D01*
X107221722Y-105804600D01*
X107243942Y-105763030D01*
X107280252Y-105643332D01*
X107292512Y-105518850D01*
X107292512Y-104820350D01*
X107280252Y-104695868D01*
X107243942Y-104576170D01*
X107221722Y-104534600D01*
X107243942Y-104493030D01*
X107280252Y-104373332D01*
X107292512Y-104248850D01*
X107292512Y-103550350D01*
X107280252Y-103425868D01*
X107243942Y-103306170D01*
X107221722Y-103264600D01*
X107243942Y-103223030D01*
X107280252Y-103103332D01*
X107292512Y-102978850D01*
X107292512Y-102280350D01*
X107280252Y-102155868D01*
X107243942Y-102036170D01*
X107221722Y-101994600D01*
X107243942Y-101953030D01*
X107280252Y-101833332D01*
X107292512Y-101708850D01*
X107292512Y-101010350D01*
X107280252Y-100885868D01*
X107243942Y-100766170D01*
X107221722Y-100724600D01*
X107243942Y-100683030D01*
X107280252Y-100563332D01*
X107292512Y-100438850D01*
X107292512Y-99740350D01*
X107280252Y-99615868D01*
X107243942Y-99496170D01*
X107221722Y-99454600D01*
X107243942Y-99413030D01*
X107280252Y-99293332D01*
X107292512Y-99168850D01*
X107292512Y-98470350D01*
X107280252Y-98345868D01*
X107243942Y-98226170D01*
X107221722Y-98184600D01*
X107243942Y-98143030D01*
X107280252Y-98023332D01*
X107292512Y-97898850D01*
X107292512Y-97200350D01*
X107280252Y-97075868D01*
X107243942Y-96956170D01*
X107221722Y-96914600D01*
X107243942Y-96873030D01*
X107280252Y-96753332D01*
X107292512Y-96628850D01*
X107292512Y-95930350D01*
X107280252Y-95805868D01*
X107243942Y-95686170D01*
X107221722Y-95644600D01*
X107243942Y-95603030D01*
X107280252Y-95483332D01*
X107292512Y-95358850D01*
X107292512Y-94660350D01*
X107280252Y-94535868D01*
X107243942Y-94416170D01*
X107221722Y-94374600D01*
X107243942Y-94333030D01*
X107280252Y-94213332D01*
X107292512Y-94088850D01*
X107289440Y-94025350D01*
X107130690Y-93866600D01*
X106182000Y-93866600D01*
X106182000Y-93886600D01*
X105928000Y-93886600D01*
X105928000Y-93866600D01*
X104979310Y-93866600D01*
X104820560Y-94025350D01*
X104817488Y-94088850D01*
X97795800Y-94088850D01*
X97795800Y-94054601D01*
X98204102Y-93646300D01*
X102969667Y-93646300D01*
X103007000Y-93649977D01*
X103155986Y-93635303D01*
X103299247Y-93591846D01*
X103431276Y-93521274D01*
X103547001Y-93426301D01*
X103641974Y-93310576D01*
X103712546Y-93178547D01*
X103717884Y-93160951D01*
X103803268Y-93186852D01*
X103927750Y-93199112D01*
X103991250Y-93196040D01*
X104150000Y-93037290D01*
X104150000Y-92088600D01*
X104404000Y-92088600D01*
X104404000Y-93037290D01*
X104562750Y-93196040D01*
X104626250Y-93199112D01*
X104750732Y-93186852D01*
X104864154Y-93152446D01*
X104829748Y-93265868D01*
X104817488Y-93390350D01*
X104820560Y-93453850D01*
X104979310Y-93612600D01*
X105928000Y-93612600D01*
X105928000Y-92914100D01*
X106182000Y-92914100D01*
X106182000Y-93612600D01*
X107130690Y-93612600D01*
X107289440Y-93453850D01*
X107292512Y-93390350D01*
X107280252Y-93265868D01*
X107243942Y-93146170D01*
X107184977Y-93035856D01*
X107105625Y-92939165D01*
X107008934Y-92859813D01*
X106898620Y-92800848D01*
X106778922Y-92764538D01*
X106654440Y-92752278D01*
X106340750Y-92755350D01*
X106182000Y-92914100D01*
X105928000Y-92914100D01*
X105769250Y-92755350D01*
X105455560Y-92752278D01*
X105331078Y-92764538D01*
X105217656Y-92798944D01*
X105252062Y-92685522D01*
X105264322Y-92561040D01*
X105261250Y-92247350D01*
X105102500Y-92088600D01*
X104404000Y-92088600D01*
X104150000Y-92088600D01*
X104130000Y-92088600D01*
X104130000Y-91834600D01*
X104150000Y-91834600D01*
X104150000Y-90885910D01*
X104404000Y-90885910D01*
X104404000Y-91834600D01*
X105102500Y-91834600D01*
X105261250Y-91675850D01*
X105264322Y-91362160D01*
X105252062Y-91237678D01*
X105215752Y-91117980D01*
X105156787Y-91007666D01*
X105077435Y-90910975D01*
X104980744Y-90831623D01*
X104870430Y-90772658D01*
X104750732Y-90736348D01*
X104626250Y-90724088D01*
X104562750Y-90727160D01*
X104404000Y-90885910D01*
X104150000Y-90885910D01*
X103991250Y-90727160D01*
X103927750Y-90724088D01*
X103803268Y-90736348D01*
X103767000Y-90747350D01*
X103767000Y-89603000D01*
X112366928Y-89603000D01*
X112379188Y-89727482D01*
X112415498Y-89847180D01*
X112474463Y-89957494D01*
X112553815Y-90054185D01*
X112650506Y-90133537D01*
X112760820Y-90192502D01*
X112880518Y-90228812D01*
X113005000Y-90241072D01*
X113469250Y-90238000D01*
X113628000Y-90079250D01*
X113628000Y-89230000D01*
X112528750Y-89230000D01*
X112370000Y-89388750D01*
X112366928Y-89603000D01*
X103767000Y-89603000D01*
X103767000Y-88221101D01*
X105921003Y-86067099D01*
X105950001Y-86043301D01*
X106044974Y-85927576D01*
X106104575Y-85816072D01*
X106260000Y-85816072D01*
X106384482Y-85803812D01*
X106504180Y-85767502D01*
X106614494Y-85708537D01*
X106711185Y-85629185D01*
X106790537Y-85532494D01*
X106849502Y-85422180D01*
X106885812Y-85302482D01*
X106898072Y-85178000D01*
X106898072Y-83912600D01*
X109614499Y-83912600D01*
X112115901Y-86414003D01*
X112139699Y-86443001D01*
X112168697Y-86466799D01*
X112255423Y-86537974D01*
X112277174Y-86549600D01*
X112387453Y-86608546D01*
X112405433Y-86614000D01*
X112415498Y-86647180D01*
X112474463Y-86757494D01*
X112553815Y-86854185D01*
X112650506Y-86933537D01*
X112760820Y-86992502D01*
X112880518Y-87028812D01*
X113005000Y-87041072D01*
X114505000Y-87041072D01*
X114629482Y-87028812D01*
X114749180Y-86992502D01*
X114816673Y-86956425D01*
X114640099Y-87133000D01*
X110526611Y-87133000D01*
X110482674Y-87089063D01*
X110313156Y-86975795D01*
X110124798Y-86897774D01*
X109924839Y-86858000D01*
X109720961Y-86858000D01*
X109521002Y-86897774D01*
X109332644Y-86975795D01*
X109163126Y-87089063D01*
X109018963Y-87233226D01*
X108905695Y-87402744D01*
X108827674Y-87591102D01*
X108787900Y-87791061D01*
X108787900Y-87994939D01*
X108827674Y-88194898D01*
X108905695Y-88383256D01*
X109018963Y-88552774D01*
X109163126Y-88696937D01*
X109332644Y-88810205D01*
X109521002Y-88888226D01*
X109720961Y-88928000D01*
X109924839Y-88928000D01*
X110124798Y-88888226D01*
X110313156Y-88810205D01*
X110482674Y-88696937D01*
X110526611Y-88653000D01*
X112367645Y-88653000D01*
X112370000Y-88817250D01*
X112528750Y-88976000D01*
X113628000Y-88976000D01*
X113628000Y-88956000D01*
X113882000Y-88956000D01*
X113882000Y-88976000D01*
X113902000Y-88976000D01*
X113902000Y-89230000D01*
X113882000Y-89230000D01*
X113882000Y-90079250D01*
X114004674Y-90201924D01*
X109735603Y-94470996D01*
X109706599Y-94494799D01*
X109655140Y-94557503D01*
X109611626Y-94610524D01*
X109573300Y-94682226D01*
X109573300Y-93644011D01*
X109617237Y-93600074D01*
X109730505Y-93430556D01*
X109808526Y-93242198D01*
X109848300Y-93042239D01*
X109848300Y-92838361D01*
X109808526Y-92638402D01*
X109730505Y-92450044D01*
X109617237Y-92280526D01*
X109473074Y-92136363D01*
X109303556Y-92023095D01*
X109115198Y-91945074D01*
X108915239Y-91905300D01*
X108711361Y-91905300D01*
X108511402Y-91945074D01*
X108323044Y-92023095D01*
X108153526Y-92136363D01*
X108009363Y-92280526D01*
X107896095Y-92450044D01*
X107818074Y-92638402D01*
X107778300Y-92838361D01*
X107778300Y-93042239D01*
X107818074Y-93242198D01*
X107896095Y-93430556D01*
X108009363Y-93600074D01*
X108053300Y-93644011D01*
X108053301Y-106567388D01*
X108009363Y-106611326D01*
X107896095Y-106780844D01*
X107818074Y-106969202D01*
X107778300Y-107169161D01*
X107778300Y-107373039D01*
X107818074Y-107572998D01*
X107896095Y-107761356D01*
X108009363Y-107930874D01*
X108153526Y-108075037D01*
X108323044Y-108188305D01*
X108511402Y-108266326D01*
X108711361Y-108306100D01*
X108915239Y-108306100D01*
X109115198Y-108266326D01*
X109303556Y-108188305D01*
X109473074Y-108075037D01*
X109486601Y-108061510D01*
X109486601Y-108709568D01*
X109482924Y-108746900D01*
X109486601Y-108784233D01*
X109488714Y-108805681D01*
X109497598Y-108895885D01*
X109541054Y-109039146D01*
X109611626Y-109171176D01*
X109669167Y-109241289D01*
X109706600Y-109286901D01*
X109735598Y-109310699D01*
X112760901Y-112336003D01*
X112784699Y-112365001D01*
X112900424Y-112459974D01*
X113032453Y-112530546D01*
X113050433Y-112536000D01*
X113060498Y-112569180D01*
X113119463Y-112679494D01*
X113198815Y-112776185D01*
X113295506Y-112855537D01*
X113405820Y-112914502D01*
X113525518Y-112950812D01*
X113650000Y-112963072D01*
X115150000Y-112963072D01*
X115274482Y-112950812D01*
X115394180Y-112914502D01*
X115504494Y-112855537D01*
X115601185Y-112776185D01*
X115680537Y-112679494D01*
X115739502Y-112569180D01*
X115775812Y-112449482D01*
X115788072Y-112325000D01*
X115788072Y-111325000D01*
X115775812Y-111200518D01*
X115739502Y-111080820D01*
X115680537Y-110970506D01*
X115601185Y-110873815D01*
X115504494Y-110794463D01*
X115394180Y-110735498D01*
X115274482Y-110699188D01*
X115150000Y-110686928D01*
X113650000Y-110686928D01*
X113525518Y-110699188D01*
X113405820Y-110735498D01*
X113343377Y-110768875D01*
X111006600Y-108432099D01*
X111006600Y-106311800D01*
X111056744Y-106345305D01*
X111245102Y-106423326D01*
X111445061Y-106463100D01*
X111507199Y-106463100D01*
X117380101Y-112336003D01*
X117403899Y-112365001D01*
X117519624Y-112459974D01*
X117651653Y-112530546D01*
X117794914Y-112574003D01*
X117906567Y-112585000D01*
X117906575Y-112585000D01*
X117943900Y-112588676D01*
X117969568Y-112586148D01*
X118019463Y-112679494D01*
X118098815Y-112776185D01*
X118195506Y-112855537D01*
X118305820Y-112914502D01*
X118425518Y-112950812D01*
X118550000Y-112963072D01*
X120050000Y-112963072D01*
X120174482Y-112950812D01*
X120294180Y-112914502D01*
X120404494Y-112855537D01*
X120501185Y-112776185D01*
X120580537Y-112679494D01*
X120639502Y-112569180D01*
X120675812Y-112449482D01*
X120688072Y-112325000D01*
X120688072Y-111325000D01*
X120675812Y-111200518D01*
X120639502Y-111080820D01*
X120580537Y-110970506D01*
X120501185Y-110873815D01*
X120404494Y-110794463D01*
X120294180Y-110735498D01*
X120174482Y-110699188D01*
X120050000Y-110686928D01*
X118550000Y-110686928D01*
X118425518Y-110699188D01*
X118305820Y-110735498D01*
X118195506Y-110794463D01*
X118098815Y-110873815D01*
X118084707Y-110891005D01*
X116985576Y-109791874D01*
X123665881Y-109791874D01*
X123745724Y-110014976D01*
X123867631Y-110202764D01*
X124023831Y-110363161D01*
X124208322Y-110490003D01*
X124414013Y-110578415D01*
X124633000Y-110625000D01*
X125183000Y-110625000D01*
X125183000Y-109617000D01*
X123792046Y-109617000D01*
X123665881Y-109791874D01*
X116985576Y-109791874D01*
X112582000Y-105388299D01*
X112582000Y-105326161D01*
X112542226Y-105126202D01*
X112464205Y-104937844D01*
X112350937Y-104768326D01*
X112206774Y-104624163D01*
X112037256Y-104510895D01*
X111848898Y-104432874D01*
X111648939Y-104393100D01*
X111510600Y-104393100D01*
X111510600Y-95759746D01*
X111596744Y-95817305D01*
X111785102Y-95895326D01*
X111985061Y-95935100D01*
X112188939Y-95935100D01*
X112388898Y-95895326D01*
X112577256Y-95817305D01*
X112746774Y-95704037D01*
X112790711Y-95660100D01*
X116000499Y-95660100D01*
X119181759Y-98841361D01*
X119115044Y-98868995D01*
X118945526Y-98982263D01*
X118801363Y-99126426D01*
X118688095Y-99295944D01*
X118610074Y-99484302D01*
X118570300Y-99684261D01*
X118570300Y-99888139D01*
X118610074Y-100088098D01*
X118688095Y-100276456D01*
X118801363Y-100445974D01*
X118845301Y-100489912D01*
X118845300Y-106276977D01*
X118841624Y-106314300D01*
X118845300Y-106351622D01*
X118845300Y-106351632D01*
X118856297Y-106463285D01*
X118884110Y-106554974D01*
X118899754Y-106606546D01*
X118970326Y-106738576D01*
X119005015Y-106780844D01*
X119065299Y-106854301D01*
X119094303Y-106878104D01*
X119958600Y-107742402D01*
X119958600Y-107804539D01*
X119998374Y-108004498D01*
X120076395Y-108192856D01*
X120189663Y-108362374D01*
X120333826Y-108506537D01*
X120503344Y-108619805D01*
X120691702Y-108697826D01*
X120891661Y-108737600D01*
X121095539Y-108737600D01*
X121295498Y-108697826D01*
X121483856Y-108619805D01*
X121653374Y-108506537D01*
X121697311Y-108462600D01*
X122035000Y-108462600D01*
X122035000Y-108522002D01*
X122193748Y-108522002D01*
X122035000Y-108680750D01*
X122031928Y-108695000D01*
X122044188Y-108819482D01*
X122080498Y-108939180D01*
X122139463Y-109049494D01*
X122218815Y-109146185D01*
X122315506Y-109225537D01*
X122425820Y-109284502D01*
X122545518Y-109320812D01*
X122670000Y-109333072D01*
X123609250Y-109330000D01*
X123701606Y-109237644D01*
X123767998Y-109329668D01*
X123767998Y-109330000D01*
X123768238Y-109330000D01*
X123792046Y-109363000D01*
X125183000Y-109363000D01*
X125183000Y-109343000D01*
X125437000Y-109343000D01*
X125437000Y-109363000D01*
X126827954Y-109363000D01*
X126954119Y-109188126D01*
X128095881Y-109188126D01*
X128222046Y-109363000D01*
X129363000Y-109363000D01*
X129363000Y-108355000D01*
X129063000Y-108355000D01*
X128844013Y-108401585D01*
X128638322Y-108489997D01*
X128453831Y-108616839D01*
X128297631Y-108777236D01*
X128175724Y-108965024D01*
X128095881Y-109188126D01*
X126954119Y-109188126D01*
X126874276Y-108965024D01*
X126752369Y-108777236D01*
X126611794Y-108632884D01*
X126690741Y-108514731D01*
X126763108Y-108340022D01*
X126800000Y-108154552D01*
X126800000Y-107965448D01*
X126763108Y-107779978D01*
X126690741Y-107605269D01*
X126585681Y-107448036D01*
X126452779Y-107315134D01*
X126476701Y-107295501D01*
X126571674Y-107179776D01*
X126642246Y-107047747D01*
X126685703Y-106904486D01*
X126696700Y-106792833D01*
X126700377Y-106755500D01*
X126696700Y-106718167D01*
X126696700Y-103626125D01*
X126700376Y-103588800D01*
X126696700Y-103551475D01*
X126696700Y-103551467D01*
X126685703Y-103439814D01*
X126642246Y-103296553D01*
X126571674Y-103164524D01*
X126476701Y-103048799D01*
X126450072Y-103026945D01*
X126451964Y-103025681D01*
X126585681Y-102891964D01*
X126690741Y-102734731D01*
X126763108Y-102560022D01*
X126800000Y-102374552D01*
X126800000Y-102185448D01*
X126763108Y-101999978D01*
X126690741Y-101825269D01*
X126611794Y-101707116D01*
X126752369Y-101562764D01*
X126874276Y-101374976D01*
X126954119Y-101151874D01*
X128095881Y-101151874D01*
X128175724Y-101374976D01*
X128297631Y-101562764D01*
X128453831Y-101723161D01*
X128638322Y-101850003D01*
X128844013Y-101938415D01*
X129063000Y-101985000D01*
X129363000Y-101985000D01*
X129363000Y-100977000D01*
X128222046Y-100977000D01*
X128095881Y-101151874D01*
X126954119Y-101151874D01*
X126827954Y-100977000D01*
X125437000Y-100977000D01*
X125437000Y-100997000D01*
X125183000Y-100997000D01*
X125183000Y-100977000D01*
X123792046Y-100977000D01*
X123768238Y-101010000D01*
X123767998Y-101010000D01*
X123767998Y-101010332D01*
X123701606Y-101102356D01*
X123609250Y-101010000D01*
X123104600Y-101008349D01*
X123104600Y-100548126D01*
X123665881Y-100548126D01*
X123792046Y-100723000D01*
X125183000Y-100723000D01*
X125183000Y-99715000D01*
X124633000Y-99715000D01*
X124414013Y-99761585D01*
X124208322Y-99849997D01*
X124023831Y-99976839D01*
X123867631Y-100137236D01*
X123745724Y-100325024D01*
X123665881Y-100548126D01*
X123104600Y-100548126D01*
X123104600Y-87868825D01*
X123108276Y-87831500D01*
X123104600Y-87794175D01*
X123104600Y-87794167D01*
X123093603Y-87682514D01*
X123050146Y-87539253D01*
X122979574Y-87407224D01*
X122884601Y-87291499D01*
X122855603Y-87267701D01*
X120154504Y-84566603D01*
X120130701Y-84537599D01*
X120014976Y-84442626D01*
X119882947Y-84372054D01*
X119739686Y-84328597D01*
X119628033Y-84317600D01*
X119628022Y-84317600D01*
X119590700Y-84313924D01*
X119553378Y-84317600D01*
X119091443Y-84317600D01*
X119104711Y-84306711D01*
X119190312Y-84202407D01*
X119253919Y-84083406D01*
X119293088Y-83954283D01*
X119306314Y-83820000D01*
X119303000Y-83786353D01*
X119303000Y-83108000D01*
X126315000Y-83108000D01*
X126315000Y-83405353D01*
X126311686Y-83439000D01*
X126324912Y-83573283D01*
X126364081Y-83702406D01*
X126427688Y-83821407D01*
X126513289Y-83925711D01*
X126617593Y-84011312D01*
X126736594Y-84074919D01*
X126865717Y-84114088D01*
X126966353Y-84124000D01*
X127000000Y-84127314D01*
X127033647Y-84124000D01*
X128474000Y-84124000D01*
X128474001Y-88850000D01*
X127033647Y-88850000D01*
X127000000Y-88846686D01*
X126966353Y-88850000D01*
X126865717Y-88859912D01*
X126736594Y-88899081D01*
X126617593Y-88962688D01*
X126513289Y-89048289D01*
X126427688Y-89152593D01*
X126364081Y-89271594D01*
X126324912Y-89400717D01*
X126311686Y-89535000D01*
X126315000Y-89568647D01*
X126315001Y-99788343D01*
X126313102Y-99807626D01*
X126205987Y-99761585D01*
X125987000Y-99715000D01*
X125437000Y-99715000D01*
X125437000Y-100723000D01*
X126827954Y-100723000D01*
X126954119Y-100548126D01*
X126938416Y-100504248D01*
X126966353Y-100507000D01*
X127000000Y-100510314D01*
X127033647Y-100507000D01*
X128110599Y-100507000D01*
X128095881Y-100548126D01*
X128222046Y-100723000D01*
X129363000Y-100723000D01*
X129363000Y-100703000D01*
X129617000Y-100703000D01*
X129617000Y-100723000D01*
X129637000Y-100723000D01*
X129637000Y-100977000D01*
X129617000Y-100977000D01*
X129617000Y-101985000D01*
X129917000Y-101985000D01*
X129998000Y-101967769D01*
X129998001Y-108372231D01*
X129917000Y-108355000D01*
X129617000Y-108355000D01*
X129617000Y-109363000D01*
X129637000Y-109363000D01*
X129637000Y-109617000D01*
X129617000Y-109617000D01*
X129617000Y-109637000D01*
X129363000Y-109637000D01*
X129363000Y-109617000D01*
X128222046Y-109617000D01*
X128095881Y-109791874D01*
X128175724Y-110014976D01*
X128204303Y-110059000D01*
X126845697Y-110059000D01*
X126874276Y-110014976D01*
X126954119Y-109791874D01*
X126827954Y-109617000D01*
X125437000Y-109617000D01*
X125437000Y-110625000D01*
X125777422Y-110625000D01*
X119579962Y-122066466D01*
X106719458Y-116728144D01*
X106689406Y-116712081D01*
X106624235Y-116692312D01*
X106560791Y-116673014D01*
X106560536Y-116672989D01*
X106560283Y-116672912D01*
X106492298Y-116666216D01*
X106426517Y-116659687D01*
X106392619Y-116663000D01*
X100761000Y-116663000D01*
X100761000Y-115984647D01*
X100764314Y-115951000D01*
X100751088Y-115816717D01*
X100711919Y-115687594D01*
X100648312Y-115568593D01*
X100562711Y-115464289D01*
X100458407Y-115378688D01*
X100339406Y-115315081D01*
X100210283Y-115275912D01*
X100109647Y-115266000D01*
X100076000Y-115262686D01*
X100042353Y-115266000D01*
X98204647Y-115266000D01*
X98171000Y-115262686D01*
X98137353Y-115266000D01*
X98036717Y-115275912D01*
X97907594Y-115315081D01*
X97788593Y-115378688D01*
X97684289Y-115464289D01*
X97598688Y-115568593D01*
X97535081Y-115687594D01*
X97495912Y-115816717D01*
X97482686Y-115951000D01*
X97486000Y-115984647D01*
X97486001Y-116663000D01*
X92498048Y-116663000D01*
X92561185Y-116611185D01*
X92640537Y-116514494D01*
X92699502Y-116404180D01*
X92735812Y-116284482D01*
X92748072Y-116160000D01*
X92748072Y-115204400D01*
X103958799Y-115204400D01*
X105115701Y-116361303D01*
X105139499Y-116390301D01*
X105255224Y-116485274D01*
X105387253Y-116555846D01*
X105530514Y-116599303D01*
X105642167Y-116610300D01*
X105642177Y-116610300D01*
X105679500Y-116613976D01*
X105716823Y-116610300D01*
X117362078Y-116610300D01*
X117399400Y-116613976D01*
X117436722Y-116610300D01*
X117436733Y-116610300D01*
X117548386Y-116599303D01*
X117691647Y-116555846D01*
X117823676Y-116485274D01*
X117939401Y-116390301D01*
X117963203Y-116361298D01*
X118243377Y-116081125D01*
X118305820Y-116114502D01*
X118425518Y-116150812D01*
X118550000Y-116163072D01*
X120050000Y-116163072D01*
X120174482Y-116150812D01*
X120294180Y-116114502D01*
X120404494Y-116055537D01*
X120501185Y-115976185D01*
X120580537Y-115879494D01*
X120639502Y-115769180D01*
X120675812Y-115649482D01*
X120688072Y-115525000D01*
X120688072Y-114525000D01*
X120675812Y-114400518D01*
X120639502Y-114280820D01*
X120580537Y-114170506D01*
X120501185Y-114073815D01*
X120404494Y-113994463D01*
X120294180Y-113935498D01*
X120174482Y-113899188D01*
X120050000Y-113886928D01*
X118550000Y-113886928D01*
X118425518Y-113899188D01*
X118305820Y-113935498D01*
X118195506Y-113994463D01*
X118098815Y-114073815D01*
X118019463Y-114170506D01*
X117960498Y-114280820D01*
X117950433Y-114314000D01*
X117932453Y-114319454D01*
X117800424Y-114390026D01*
X117800422Y-114390027D01*
X117800423Y-114390027D01*
X117713696Y-114461201D01*
X117713692Y-114461205D01*
X117684699Y-114484999D01*
X117660905Y-114513992D01*
X117084598Y-115090300D01*
X105994302Y-115090300D01*
X105429002Y-114525000D01*
X113011928Y-114525000D01*
X113015000Y-114739250D01*
X113173750Y-114898000D01*
X114273000Y-114898000D01*
X114273000Y-114048750D01*
X114527000Y-114048750D01*
X114527000Y-114898000D01*
X115626250Y-114898000D01*
X115785000Y-114739250D01*
X115788072Y-114525000D01*
X115775812Y-114400518D01*
X115739502Y-114280820D01*
X115680537Y-114170506D01*
X115601185Y-114073815D01*
X115504494Y-113994463D01*
X115394180Y-113935498D01*
X115274482Y-113899188D01*
X115150000Y-113886928D01*
X114685750Y-113890000D01*
X114527000Y-114048750D01*
X114273000Y-114048750D01*
X114114250Y-113890000D01*
X113650000Y-113886928D01*
X113525518Y-113899188D01*
X113405820Y-113935498D01*
X113295506Y-113994463D01*
X113198815Y-114073815D01*
X113119463Y-114170506D01*
X113060498Y-114280820D01*
X113024188Y-114400518D01*
X113011928Y-114525000D01*
X105429002Y-114525000D01*
X104837404Y-113933403D01*
X104813601Y-113904399D01*
X104697876Y-113809426D01*
X104565847Y-113738854D01*
X104422586Y-113695397D01*
X104310933Y-113684400D01*
X104310922Y-113684400D01*
X104273600Y-113680724D01*
X104236278Y-113684400D01*
X89834503Y-113684400D01*
X88099104Y-111949002D01*
X88075301Y-111919999D01*
X87959576Y-111825026D01*
X87827547Y-111754454D01*
X87809567Y-111749000D01*
X87799502Y-111715820D01*
X87740537Y-111605506D01*
X87661185Y-111508815D01*
X87564494Y-111429463D01*
X87454180Y-111370498D01*
X87334482Y-111334188D01*
X87210000Y-111321928D01*
X85710000Y-111321928D01*
X85585518Y-111334188D01*
X85465820Y-111370498D01*
X85355506Y-111429463D01*
X85258815Y-111508815D01*
X85179463Y-111605506D01*
X85120498Y-111715820D01*
X85084188Y-111835518D01*
X85071928Y-111960000D01*
X85071928Y-112960000D01*
X85084188Y-113084482D01*
X85120498Y-113204180D01*
X85179463Y-113314494D01*
X85258815Y-113411185D01*
X85355506Y-113490537D01*
X85465820Y-113549502D01*
X85585518Y-113585812D01*
X85710000Y-113598072D01*
X87210000Y-113598072D01*
X87334482Y-113585812D01*
X87454180Y-113549502D01*
X87516623Y-113516125D01*
X88955905Y-114955408D01*
X88979699Y-114984401D01*
X89008692Y-115008195D01*
X89008696Y-115008199D01*
X89029170Y-115025001D01*
X89095424Y-115079374D01*
X89227453Y-115149946D01*
X89370714Y-115193403D01*
X89482367Y-115204400D01*
X89482376Y-115204400D01*
X89519699Y-115208076D01*
X89557022Y-115204400D01*
X89971928Y-115204400D01*
X89971928Y-116160000D01*
X89984188Y-116284482D01*
X90020498Y-116404180D01*
X90079463Y-116514494D01*
X90158815Y-116611185D01*
X90221952Y-116663000D01*
X87598048Y-116663000D01*
X87661185Y-116611185D01*
X87740537Y-116514494D01*
X87799502Y-116404180D01*
X87835812Y-116284482D01*
X87848072Y-116160000D01*
X87845000Y-115945750D01*
X87686250Y-115787000D01*
X86587000Y-115787000D01*
X86587000Y-115807000D01*
X86333000Y-115807000D01*
X86333000Y-115787000D01*
X85233750Y-115787000D01*
X85075000Y-115945750D01*
X85071928Y-116160000D01*
X85084188Y-116284482D01*
X85120498Y-116404180D01*
X85179463Y-116514494D01*
X85258815Y-116611185D01*
X85321952Y-116663000D01*
X85310633Y-116663000D01*
X83219503Y-115160000D01*
X85071928Y-115160000D01*
X85075000Y-115374250D01*
X85233750Y-115533000D01*
X86333000Y-115533000D01*
X86333000Y-114683750D01*
X86587000Y-114683750D01*
X86587000Y-115533000D01*
X87686250Y-115533000D01*
X87845000Y-115374250D01*
X87848072Y-115160000D01*
X87835812Y-115035518D01*
X87799502Y-114915820D01*
X87740537Y-114805506D01*
X87661185Y-114708815D01*
X87564494Y-114629463D01*
X87454180Y-114570498D01*
X87334482Y-114534188D01*
X87210000Y-114521928D01*
X86745750Y-114525000D01*
X86587000Y-114683750D01*
X86333000Y-114683750D01*
X86174250Y-114525000D01*
X85710000Y-114521928D01*
X85585518Y-114534188D01*
X85465820Y-114570498D01*
X85355506Y-114629463D01*
X85258815Y-114708815D01*
X85179463Y-114805506D01*
X85120498Y-114915820D01*
X85084188Y-115035518D01*
X85071928Y-115160000D01*
X83219503Y-115160000D01*
X77647000Y-111154764D01*
X77647000Y-110413000D01*
X83278353Y-110413000D01*
X83312000Y-110416314D01*
X83446283Y-110403088D01*
X83575406Y-110363919D01*
X83694407Y-110300312D01*
X83798711Y-110214711D01*
X83884312Y-110110407D01*
X83947919Y-109991406D01*
X83987088Y-109862283D01*
X83997000Y-109761647D01*
X84000314Y-109728000D01*
X83997000Y-109694353D01*
X83997000Y-91727647D01*
X84000314Y-91694000D01*
X83987088Y-91559717D01*
X83947919Y-91430594D01*
X83884312Y-91311593D01*
X83798711Y-91207289D01*
X83694407Y-91121688D01*
X83575406Y-91058081D01*
X83446283Y-91018912D01*
X83345647Y-91009000D01*
X83312000Y-91005686D01*
X83278353Y-91009000D01*
X77647000Y-91009000D01*
X77647000Y-89489600D01*
X83166928Y-89489600D01*
X83179188Y-89614082D01*
X83215498Y-89733780D01*
X83274463Y-89844094D01*
X83353815Y-89940785D01*
X83450506Y-90020137D01*
X83560820Y-90079102D01*
X83680518Y-90115412D01*
X83805000Y-90127672D01*
X84269250Y-90124600D01*
X84428000Y-89965850D01*
X84428000Y-89116600D01*
X84682000Y-89116600D01*
X84682000Y-89965850D01*
X84840750Y-90124600D01*
X85305000Y-90127672D01*
X85429482Y-90115412D01*
X85549180Y-90079102D01*
X85659494Y-90020137D01*
X85756185Y-89940785D01*
X85835537Y-89844094D01*
X85894502Y-89733780D01*
X85930812Y-89614082D01*
X85943072Y-89489600D01*
X85940000Y-89275350D01*
X85781250Y-89116600D01*
X84682000Y-89116600D01*
X84428000Y-89116600D01*
X83328750Y-89116600D01*
X83170000Y-89275350D01*
X83166928Y-89489600D01*
X77647000Y-89489600D01*
X77647000Y-88489600D01*
X83166928Y-88489600D01*
X83170000Y-88703850D01*
X83328750Y-88862600D01*
X84428000Y-88862600D01*
X84428000Y-88013350D01*
X84682000Y-88013350D01*
X84682000Y-88862600D01*
X85781250Y-88862600D01*
X85940000Y-88703850D01*
X85943072Y-88489600D01*
X85930812Y-88365118D01*
X85894502Y-88245420D01*
X85835537Y-88135106D01*
X85756185Y-88038415D01*
X85659494Y-87959063D01*
X85549180Y-87900098D01*
X85429482Y-87863788D01*
X85305000Y-87851528D01*
X84840750Y-87854600D01*
X84682000Y-88013350D01*
X84428000Y-88013350D01*
X84269250Y-87854600D01*
X83805000Y-87851528D01*
X83680518Y-87863788D01*
X83560820Y-87900098D01*
X83450506Y-87959063D01*
X83353815Y-88038415D01*
X83274463Y-88135106D01*
X83215498Y-88245420D01*
X83179188Y-88365118D01*
X83166928Y-88489600D01*
X77647000Y-88489600D01*
X77647000Y-85289600D01*
X83166928Y-85289600D01*
X83166928Y-86289600D01*
X83179188Y-86414082D01*
X83215498Y-86533780D01*
X83274463Y-86644094D01*
X83353815Y-86740785D01*
X83450506Y-86820137D01*
X83560820Y-86879102D01*
X83680518Y-86915412D01*
X83805000Y-86927672D01*
X84888300Y-86927672D01*
X84888300Y-87025639D01*
X84928074Y-87225598D01*
X85006095Y-87413956D01*
X85119363Y-87583474D01*
X85263526Y-87727637D01*
X85433044Y-87840905D01*
X85621402Y-87918926D01*
X85821361Y-87958700D01*
X86025239Y-87958700D01*
X86225198Y-87918926D01*
X86413556Y-87840905D01*
X86583074Y-87727637D01*
X86727237Y-87583474D01*
X86840505Y-87413956D01*
X86918526Y-87225598D01*
X86958300Y-87025639D01*
X86958300Y-86821761D01*
X86918526Y-86621802D01*
X86840505Y-86433444D01*
X86727237Y-86263926D01*
X86683300Y-86219989D01*
X86683300Y-86119933D01*
X86686977Y-86082600D01*
X86672303Y-85933614D01*
X86628846Y-85790353D01*
X86593820Y-85724825D01*
X86558274Y-85658324D01*
X86463301Y-85542599D01*
X86434297Y-85518796D01*
X86194104Y-85278603D01*
X86170301Y-85249599D01*
X86054576Y-85154626D01*
X85922547Y-85084054D01*
X85904567Y-85078600D01*
X85894502Y-85045420D01*
X85835537Y-84935106D01*
X85756185Y-84838415D01*
X85659494Y-84759063D01*
X85549180Y-84700098D01*
X85429482Y-84663788D01*
X85305000Y-84651528D01*
X83805000Y-84651528D01*
X83680518Y-84663788D01*
X83560820Y-84700098D01*
X83450506Y-84759063D01*
X83353815Y-84838415D01*
X83274463Y-84935106D01*
X83215498Y-85045420D01*
X83179188Y-85165118D01*
X83166928Y-85289600D01*
X77647000Y-85289600D01*
X77647000Y-84484736D01*
X79023736Y-83108000D01*
X84405000Y-83108000D01*
X84405001Y-83786343D01*
G36*
X102997000Y-84201000D02*
G01*
X103017000Y-84201000D01*
X103017000Y-84455000D01*
X102997000Y-84455000D01*
X102997000Y-85648155D01*
X103226890Y-85769476D01*
X103374099Y-85724825D01*
X103636920Y-85599641D01*
X103870269Y-85425588D01*
X103946034Y-85341534D01*
X103970498Y-85422180D01*
X104029463Y-85532494D01*
X104108815Y-85629185D01*
X104164013Y-85674485D01*
X102496003Y-87342496D01*
X102466999Y-87366299D01*
X102411871Y-87433474D01*
X102372026Y-87482024D01*
X102313722Y-87591102D01*
X102301454Y-87614054D01*
X102257997Y-87757315D01*
X102247000Y-87868968D01*
X102247000Y-87868978D01*
X102243324Y-87906300D01*
X102247000Y-87943623D01*
X102247001Y-90747350D01*
X102210732Y-90736348D01*
X102086250Y-90724088D01*
X101387750Y-90724088D01*
X101263268Y-90736348D01*
X101143570Y-90772658D01*
X101102000Y-90794878D01*
X101060430Y-90772658D01*
X100940732Y-90736348D01*
X100816250Y-90724088D01*
X100117750Y-90724088D01*
X99993268Y-90736348D01*
X99873570Y-90772658D01*
X99832000Y-90794878D01*
X99790430Y-90772658D01*
X99670732Y-90736348D01*
X99546250Y-90724088D01*
X98847750Y-90724088D01*
X98723268Y-90736348D01*
X98603570Y-90772658D01*
X98562000Y-90794878D01*
X98520430Y-90772658D01*
X98400732Y-90736348D01*
X98276250Y-90724088D01*
X97577750Y-90724088D01*
X97453268Y-90736348D01*
X97333570Y-90772658D01*
X97292000Y-90794878D01*
X97250430Y-90772658D01*
X97130732Y-90736348D01*
X97006250Y-90724088D01*
X96307750Y-90724088D01*
X96183268Y-90736348D01*
X96183103Y-90736398D01*
X99140102Y-87779400D01*
X99202239Y-87779400D01*
X99402198Y-87739626D01*
X99590556Y-87661605D01*
X99760074Y-87548337D01*
X99904237Y-87404174D01*
X100017505Y-87234656D01*
X100095526Y-87046298D01*
X100135300Y-86846339D01*
X100135300Y-86642461D01*
X100095526Y-86442502D01*
X100017505Y-86254144D01*
X99904237Y-86084626D01*
X99760074Y-85940463D01*
X99590556Y-85827195D01*
X99402198Y-85749174D01*
X99213218Y-85711584D01*
X99421406Y-85503396D01*
X99500986Y-85568706D01*
X99758966Y-85706599D01*
X100038889Y-85791513D01*
X100257050Y-85813000D01*
X100402950Y-85813000D01*
X100621111Y-85791513D01*
X100901034Y-85706599D01*
X101159014Y-85568706D01*
X101385134Y-85383134D01*
X101570706Y-85157014D01*
X101605201Y-85092477D01*
X101674822Y-85209355D01*
X101869731Y-85425588D01*
X102103080Y-85599641D01*
X102365901Y-85724825D01*
X102513110Y-85769476D01*
X102743000Y-85648155D01*
X102743000Y-84455000D01*
X102723000Y-84455000D01*
X102723000Y-84201000D01*
X102743000Y-84201000D01*
X102743000Y-84181000D01*
X102997000Y-84181000D01*
X102997000Y-84201000D01*
X102997000Y-84201000D01*
G37*
X102997000Y-84201000D02*
X103017000Y-84201000D01*
X103017000Y-84455000D01*
X102997000Y-84455000D01*
X102997000Y-85648155D01*
X103226890Y-85769476D01*
X103374099Y-85724825D01*
X103636920Y-85599641D01*
X103870269Y-85425588D01*
X103946034Y-85341534D01*
X103970498Y-85422180D01*
X104029463Y-85532494D01*
X104108815Y-85629185D01*
X104164013Y-85674485D01*
X102496003Y-87342496D01*
X102466999Y-87366299D01*
X102411871Y-87433474D01*
X102372026Y-87482024D01*
X102313722Y-87591102D01*
X102301454Y-87614054D01*
X102257997Y-87757315D01*
X102247000Y-87868968D01*
X102247000Y-87868978D01*
X102243324Y-87906300D01*
X102247000Y-87943623D01*
X102247001Y-90747350D01*
X102210732Y-90736348D01*
X102086250Y-90724088D01*
X101387750Y-90724088D01*
X101263268Y-90736348D01*
X101143570Y-90772658D01*
X101102000Y-90794878D01*
X101060430Y-90772658D01*
X100940732Y-90736348D01*
X100816250Y-90724088D01*
X100117750Y-90724088D01*
X99993268Y-90736348D01*
X99873570Y-90772658D01*
X99832000Y-90794878D01*
X99790430Y-90772658D01*
X99670732Y-90736348D01*
X99546250Y-90724088D01*
X98847750Y-90724088D01*
X98723268Y-90736348D01*
X98603570Y-90772658D01*
X98562000Y-90794878D01*
X98520430Y-90772658D01*
X98400732Y-90736348D01*
X98276250Y-90724088D01*
X97577750Y-90724088D01*
X97453268Y-90736348D01*
X97333570Y-90772658D01*
X97292000Y-90794878D01*
X97250430Y-90772658D01*
X97130732Y-90736348D01*
X97006250Y-90724088D01*
X96307750Y-90724088D01*
X96183268Y-90736348D01*
X96183103Y-90736398D01*
X99140102Y-87779400D01*
X99202239Y-87779400D01*
X99402198Y-87739626D01*
X99590556Y-87661605D01*
X99760074Y-87548337D01*
X99904237Y-87404174D01*
X100017505Y-87234656D01*
X100095526Y-87046298D01*
X100135300Y-86846339D01*
X100135300Y-86642461D01*
X100095526Y-86442502D01*
X100017505Y-86254144D01*
X99904237Y-86084626D01*
X99760074Y-85940463D01*
X99590556Y-85827195D01*
X99402198Y-85749174D01*
X99213218Y-85711584D01*
X99421406Y-85503396D01*
X99500986Y-85568706D01*
X99758966Y-85706599D01*
X100038889Y-85791513D01*
X100257050Y-85813000D01*
X100402950Y-85813000D01*
X100621111Y-85791513D01*
X100901034Y-85706599D01*
X101159014Y-85568706D01*
X101385134Y-85383134D01*
X101570706Y-85157014D01*
X101605201Y-85092477D01*
X101674822Y-85209355D01*
X101869731Y-85425588D01*
X102103080Y-85599641D01*
X102365901Y-85724825D01*
X102513110Y-85769476D01*
X102743000Y-85648155D01*
X102743000Y-84455000D01*
X102723000Y-84455000D01*
X102723000Y-84201000D01*
X102743000Y-84201000D01*
X102743000Y-84181000D01*
X102997000Y-84181000D01*
X102997000Y-84201000D01*
D22*
X112472700Y-91013600D03*
X108813300Y-107271100D03*
X108813300Y-92940300D03*
X120196600Y-88933900D03*
X111547000Y-105428100D03*
X88062200Y-88950400D03*
X119605300Y-99786200D03*
X120993600Y-107702600D03*
X96760800Y-94014800D03*
X85923300Y-86923700D03*
X117272100Y-93482900D03*
X121098900Y-93808500D03*
X115292300Y-93776300D03*
X99100300Y-86744400D03*
X99555700Y-98325000D03*
X109822900Y-87893000D03*
X112087000Y-94900100D03*
X125840000Y-108060000D03*
X125840000Y-102280000D03*
D23*
X125310000Y-100850000D03*
X125310000Y-109490000D03*
D24*
X129490000Y-100850000D03*
X129490000Y-109490000D03*
D22*
X105410000Y-84328000D03*
X102870000Y-84328000D03*
X100330000Y-84328000D03*
X97790000Y-84328000D03*
M02*
