M48
; DRILL file {KiCad (5.1.2)-2} date 2020/4/26 17:29:46
; FORMAT={-:-/ absolute / metric / decimal}
; #@! TF.CreationDate,2020-04-26T17:29:46+08:00
; #@! TF.GenerationSoftware,Kicad,Pcbnew,(5.1.2)-2
; #@! TF.FileFunction,Plated,1,2,PTH
FMAT,2
METRIC
T1C0.400
T2C0.600
T3C1.000
%
G90
G05
T1
X85.923Y-86.924
X88.062Y-88.95
X96.761Y-94.015
X99.1Y-86.744
X99.556Y-98.325
X108.813Y-92.94
X108.813Y-107.271
X109.823Y-87.893
X111.547Y-105.428
X112.087Y-94.9
X112.473Y-91.014
X115.292Y-93.776
X117.272Y-93.483
X119.605Y-99.786
X120.197Y-88.934
X120.994Y-107.703
X121.099Y-93.808
T3
X97.79Y-84.328
X100.33Y-84.328
X102.87Y-84.328
X105.41Y-84.328
T2
G00X125.86Y-100.85
M15
G01X124.76Y-100.85
M16
G05
G00X125.86Y-109.49
M15
G01X124.76Y-109.49
M16
G05
G00X129.79Y-100.85
M15
G01X129.19Y-100.85
M16
G05
G00X129.79Y-109.49
M15
G01X129.19Y-109.49
M16
G05
T0
M30
