%TF.GenerationSoftware,KiCad,Pcbnew,(5.1.2)-2*%
%TF.CreationDate,2020-04-26T17:29:46+08:00*%
%TF.ProjectId,wing-receiver-lite,77696e67-2d72-4656-9365-697665722d6c,rev?*%
%TF.SameCoordinates,Original*%
%TF.FileFunction,Profile,NP*%
%FSLAX46Y46*%
G04 Gerber Fmt 4.6, Leading zero omitted, Abs format (unit mm)*
G04 Created by KiCad (PCBNEW (5.1.2)-2) date 2020-04-26 17:29:46*
%MOMM*%
%LPD*%
G04 APERTURE LIST*
%ADD10C,0.100000*%
G04 APERTURE END LIST*
D10*
X76962000Y-84201000D02*
X76962000Y-91694000D01*
X76962000Y-111506000D02*
X76962000Y-109728000D01*
X83312000Y-109728000D02*
X76962000Y-109728000D01*
X83312000Y-91694000D02*
X83312000Y-109728000D01*
X76962000Y-91694000D02*
X83312000Y-91694000D01*
X116713000Y-82423000D02*
X116713000Y-83820000D01*
X100076000Y-115951000D02*
X98171000Y-115951000D01*
X126492000Y-110744000D02*
X119888000Y-122936000D01*
X127000000Y-99822000D02*
X130683000Y-99822000D01*
X98171000Y-115951000D02*
X98171000Y-117348000D01*
X86995000Y-82423000D02*
X116713000Y-82423000D01*
X116713000Y-83820000D02*
X118618000Y-83820000D01*
X130683000Y-99822000D02*
X130683000Y-110744000D01*
X86995000Y-83820000D02*
X86995000Y-82423000D01*
X100076000Y-117348000D02*
X100076000Y-115951000D01*
X118618000Y-83820000D02*
X118618000Y-82423000D01*
X85090000Y-117348000D02*
X76962000Y-111506000D01*
X76962000Y-84201000D02*
X78740000Y-82423000D01*
X129159000Y-89535000D02*
X127000000Y-89535000D01*
X129159000Y-83439000D02*
X129159000Y-89535000D01*
X119888000Y-122936000D02*
X106426000Y-117348000D01*
X118618000Y-82423000D02*
X126619000Y-82423000D01*
X126619000Y-82423000D02*
X127000000Y-82804000D01*
X127000000Y-89535000D02*
X127000000Y-99822000D01*
X85090000Y-83820000D02*
X86995000Y-83820000D01*
X130683000Y-110744000D02*
X126492000Y-110744000D01*
X127000000Y-82804000D02*
X127000000Y-83439000D01*
X127000000Y-83439000D02*
X129159000Y-83439000D01*
X85090000Y-82423000D02*
X85090000Y-83820000D01*
X85090000Y-82423000D02*
X78740000Y-82423000D01*
X100076000Y-117348000D02*
X106426000Y-117348000D01*
X98171000Y-117348000D02*
X85090000Y-117348000D01*
M02*
