%TF.GenerationSoftware,KiCad,Pcbnew,(5.1.2)-2*%
%TF.CreationDate,2020-04-26T17:29:46+08:00*%
%TF.ProjectId,wing-receiver-lite,77696e67-2d72-4656-9365-697665722d6c,rev?*%
%TF.SameCoordinates,Original*%
%TF.FileFunction,Legend,Top*%
%TF.FilePolarity,Positive*%
%FSLAX46Y46*%
G04 Gerber Fmt 4.6, Leading zero omitted, Abs format (unit mm)*
G04 Created by KiCad (PCBNEW (5.1.2)-2) date 2020-04-26 17:29:46*
%MOMM*%
%LPD*%
G04 APERTURE LIST*
%ADD10C,0.120000*%
%ADD11C,0.150000*%
%ADD12C,0.200000*%
%ADD13C,0.254000*%
G04 APERTURE END LIST*
D10*
X119338000Y-91968852D02*
X119338000Y-91446348D01*
X117918000Y-91968852D02*
X117918000Y-91446348D01*
X124418000Y-91841852D02*
X124418000Y-91319348D01*
X122998000Y-91841852D02*
X122998000Y-91319348D01*
X116145000Y-90157600D02*
X113195000Y-90157600D01*
X113745000Y-93257600D02*
X116145000Y-93257600D01*
X120458000Y-91319348D02*
X120458000Y-91841852D01*
X121878000Y-91319348D02*
X121878000Y-91841852D01*
X114561252Y-105335000D02*
X114038748Y-105335000D01*
X114561252Y-106755000D02*
X114038748Y-106755000D01*
X112060000Y-98025000D02*
X112060000Y-103425000D01*
X116560000Y-98025000D02*
X112060000Y-98025000D01*
X111845000Y-91968852D02*
X111845000Y-91446348D01*
X110425000Y-91968852D02*
X110425000Y-91446348D01*
D11*
X98280000Y-105900000D02*
X98280000Y-107175000D01*
X97705000Y-95550000D02*
X97705000Y-96225000D01*
X108055000Y-95550000D02*
X108055000Y-96225000D01*
X108055000Y-105900000D02*
X108055000Y-105225000D01*
X97705000Y-105900000D02*
X97705000Y-105225000D01*
X108055000Y-105900000D02*
X107380000Y-105900000D01*
X108055000Y-95550000D02*
X107380000Y-95550000D01*
X97705000Y-95550000D02*
X98380000Y-95550000D01*
X97705000Y-105900000D02*
X98280000Y-105900000D01*
D10*
X114038748Y-95960000D02*
X114561252Y-95960000D01*
X114038748Y-94540000D02*
X114561252Y-94540000D01*
X107389000Y-116323000D02*
X107389000Y-112623000D01*
X113509000Y-116323000D02*
X107389000Y-116323000D01*
X113509000Y-112623000D02*
X113509000Y-116323000D01*
X107389000Y-112623000D02*
X113509000Y-112623000D01*
X115495000Y-87129252D02*
X115495000Y-86606748D01*
X116915000Y-87129252D02*
X116915000Y-86606748D01*
X88698000Y-86606748D02*
X88698000Y-87129252D01*
X90118000Y-86606748D02*
X90118000Y-87129252D01*
X84126000Y-86606748D02*
X84126000Y-87129252D01*
X85546000Y-86606748D02*
X85546000Y-87129252D01*
X89161252Y-101548000D02*
X88638748Y-101548000D01*
X89161252Y-100128000D02*
X88638748Y-100128000D01*
X89161252Y-104088000D02*
X88638748Y-104088000D01*
X89161252Y-102668000D02*
X88638748Y-102668000D01*
X89502064Y-108733000D02*
X88297936Y-108733000D01*
X89502064Y-106913000D02*
X88297936Y-106913000D01*
X120448000Y-87129252D02*
X120448000Y-86606748D01*
X121868000Y-87129252D02*
X121868000Y-86606748D01*
D12*
X89500000Y-97208000D02*
X88300000Y-97208000D01*
X88300000Y-97208000D02*
X88300000Y-94308000D01*
X88300000Y-94308000D02*
X89500000Y-94308000D01*
X89500000Y-94308000D02*
X89500000Y-97208000D01*
X90750000Y-97258000D02*
X89850000Y-97258000D01*
D10*
X124408000Y-86606748D02*
X124408000Y-87129252D01*
X122988000Y-86606748D02*
X122988000Y-87129252D01*
X119328000Y-86606748D02*
X119328000Y-87129252D01*
X117908000Y-86606748D02*
X117908000Y-87129252D01*
X96460000Y-82998000D02*
X96460000Y-85658000D01*
X104140000Y-82998000D02*
X96460000Y-82998000D01*
X104140000Y-85658000D02*
X96460000Y-85658000D01*
X104140000Y-82998000D02*
X104140000Y-85658000D01*
X105410000Y-82998000D02*
X106740000Y-82998000D01*
X106740000Y-82998000D02*
X106740000Y-84328000D01*
X90984000Y-86606748D02*
X90984000Y-87129252D01*
X92404000Y-86606748D02*
X92404000Y-87129252D01*
X86412000Y-86606748D02*
X86412000Y-87129252D01*
X87832000Y-86606748D02*
X87832000Y-87129252D01*
X111835000Y-86606748D02*
X111835000Y-87129252D01*
X110415000Y-86606748D02*
X110415000Y-87129252D01*
X114375000Y-86606748D02*
X114375000Y-87129252D01*
X112955000Y-86606748D02*
X112955000Y-87129252D01*
D11*
X117430380Y-91874266D02*
X116954190Y-92207600D01*
X117430380Y-92445695D02*
X116430380Y-92445695D01*
X116430380Y-92064742D01*
X116478000Y-91969504D01*
X116525619Y-91921885D01*
X116620857Y-91874266D01*
X116763714Y-91874266D01*
X116858952Y-91921885D01*
X116906571Y-91969504D01*
X116954190Y-92064742D01*
X116954190Y-92445695D01*
X116430380Y-91540933D02*
X116430380Y-90921885D01*
X116811333Y-91255219D01*
X116811333Y-91112361D01*
X116858952Y-91017123D01*
X116906571Y-90969504D01*
X117001809Y-90921885D01*
X117239904Y-90921885D01*
X117335142Y-90969504D01*
X117382761Y-91017123D01*
X117430380Y-91112361D01*
X117430380Y-91398076D01*
X117382761Y-91493314D01*
X117335142Y-91540933D01*
X122510380Y-92223457D02*
X122034190Y-92556790D01*
X122510380Y-92794885D02*
X121510380Y-92794885D01*
X121510380Y-92413933D01*
X121558000Y-92318695D01*
X121605619Y-92271076D01*
X121700857Y-92223457D01*
X121843714Y-92223457D01*
X121938952Y-92271076D01*
X121986571Y-92318695D01*
X122034190Y-92413933D01*
X122034190Y-92794885D01*
X122510380Y-91271076D02*
X122510380Y-91842504D01*
X122510380Y-91556790D02*
X121510380Y-91556790D01*
X121653238Y-91652028D01*
X121748476Y-91747266D01*
X121796095Y-91842504D01*
X121605619Y-90890123D02*
X121558000Y-90842504D01*
X121510380Y-90747266D01*
X121510380Y-90509171D01*
X121558000Y-90413933D01*
X121605619Y-90366314D01*
X121700857Y-90318695D01*
X121796095Y-90318695D01*
X121938952Y-90366314D01*
X122510380Y-90937742D01*
X122510380Y-90318695D01*
X114226904Y-89779980D02*
X114226904Y-88779980D01*
X114465000Y-88779980D01*
X114607857Y-88827600D01*
X114703095Y-88922838D01*
X114750714Y-89018076D01*
X114798333Y-89208552D01*
X114798333Y-89351409D01*
X114750714Y-89541885D01*
X114703095Y-89637123D01*
X114607857Y-89732361D01*
X114465000Y-89779980D01*
X114226904Y-89779980D01*
X115655476Y-88779980D02*
X115465000Y-88779980D01*
X115369761Y-88827600D01*
X115322142Y-88875219D01*
X115226904Y-89018076D01*
X115179285Y-89208552D01*
X115179285Y-89589504D01*
X115226904Y-89684742D01*
X115274523Y-89732361D01*
X115369761Y-89779980D01*
X115560238Y-89779980D01*
X115655476Y-89732361D01*
X115703095Y-89684742D01*
X115750714Y-89589504D01*
X115750714Y-89351409D01*
X115703095Y-89256171D01*
X115655476Y-89208552D01*
X115560238Y-89160933D01*
X115369761Y-89160933D01*
X115274523Y-89208552D01*
X115226904Y-89256171D01*
X115179285Y-89351409D01*
X123270380Y-91747266D02*
X122794190Y-92080600D01*
X123270380Y-92318695D02*
X122270380Y-92318695D01*
X122270380Y-91937742D01*
X122318000Y-91842504D01*
X122365619Y-91794885D01*
X122460857Y-91747266D01*
X122603714Y-91747266D01*
X122698952Y-91794885D01*
X122746571Y-91842504D01*
X122794190Y-91937742D01*
X122794190Y-92318695D01*
X122603714Y-90890123D02*
X123270380Y-90890123D01*
X122222761Y-91128219D02*
X122937047Y-91366314D01*
X122937047Y-90747266D01*
X114133333Y-108052142D02*
X114085714Y-108099761D01*
X113942857Y-108147380D01*
X113847619Y-108147380D01*
X113704761Y-108099761D01*
X113609523Y-108004523D01*
X113561904Y-107909285D01*
X113514285Y-107718809D01*
X113514285Y-107575952D01*
X113561904Y-107385476D01*
X113609523Y-107290238D01*
X113704761Y-107195000D01*
X113847619Y-107147380D01*
X113942857Y-107147380D01*
X114085714Y-107195000D01*
X114133333Y-107242619D01*
X115085714Y-108147380D02*
X114514285Y-108147380D01*
X114800000Y-108147380D02*
X114800000Y-107147380D01*
X114704761Y-107290238D01*
X114609523Y-107385476D01*
X114514285Y-107433095D01*
X116812380Y-101534523D02*
X117812380Y-100867857D01*
X116812380Y-100867857D02*
X117812380Y-101534523D01*
X117812380Y-99963095D02*
X117812380Y-100534523D01*
X117812380Y-100248809D02*
X116812380Y-100248809D01*
X116955238Y-100344047D01*
X117050476Y-100439285D01*
X117098095Y-100534523D01*
X109937380Y-91874266D02*
X109461190Y-92207600D01*
X109937380Y-92445695D02*
X108937380Y-92445695D01*
X108937380Y-92064742D01*
X108985000Y-91969504D01*
X109032619Y-91921885D01*
X109127857Y-91874266D01*
X109270714Y-91874266D01*
X109365952Y-91921885D01*
X109413571Y-91969504D01*
X109461190Y-92064742D01*
X109461190Y-92445695D01*
X109032619Y-91493314D02*
X108985000Y-91445695D01*
X108937380Y-91350457D01*
X108937380Y-91112361D01*
X108985000Y-91017123D01*
X109032619Y-90969504D01*
X109127857Y-90921885D01*
X109223095Y-90921885D01*
X109365952Y-90969504D01*
X109937380Y-91540933D01*
X109937380Y-90921885D01*
X94882380Y-101486904D02*
X95691904Y-101486904D01*
X95787142Y-101439285D01*
X95834761Y-101391666D01*
X95882380Y-101296428D01*
X95882380Y-101105952D01*
X95834761Y-101010714D01*
X95787142Y-100963095D01*
X95691904Y-100915476D01*
X94882380Y-100915476D01*
X95882380Y-99915476D02*
X95882380Y-100486904D01*
X95882380Y-100201190D02*
X94882380Y-100201190D01*
X95025238Y-100296428D01*
X95120476Y-100391666D01*
X95168095Y-100486904D01*
X114133333Y-93957142D02*
X114085714Y-94004761D01*
X113942857Y-94052380D01*
X113847619Y-94052380D01*
X113704761Y-94004761D01*
X113609523Y-93909523D01*
X113561904Y-93814285D01*
X113514285Y-93623809D01*
X113514285Y-93480952D01*
X113561904Y-93290476D01*
X113609523Y-93195238D01*
X113704761Y-93100000D01*
X113847619Y-93052380D01*
X113942857Y-93052380D01*
X114085714Y-93100000D01*
X114133333Y-93147619D01*
X114514285Y-93147619D02*
X114561904Y-93100000D01*
X114657142Y-93052380D01*
X114895238Y-93052380D01*
X114990476Y-93100000D01*
X115038095Y-93147619D01*
X115085714Y-93242857D01*
X115085714Y-93338095D01*
X115038095Y-93480952D01*
X114466666Y-94052380D01*
X115085714Y-94052380D01*
X108520428Y-112325380D02*
X108187095Y-111849190D01*
X107949000Y-112325380D02*
X107949000Y-111325380D01*
X108329952Y-111325380D01*
X108425190Y-111373000D01*
X108472809Y-111420619D01*
X108520428Y-111515857D01*
X108520428Y-111658714D01*
X108472809Y-111753952D01*
X108425190Y-111801571D01*
X108329952Y-111849190D01*
X107949000Y-111849190D01*
X108949000Y-111801571D02*
X109282333Y-111801571D01*
X109425190Y-112325380D02*
X108949000Y-112325380D01*
X108949000Y-111325380D01*
X109425190Y-111325380D01*
X109806142Y-112277761D02*
X109949000Y-112325380D01*
X110187095Y-112325380D01*
X110282333Y-112277761D01*
X110329952Y-112230142D01*
X110377571Y-112134904D01*
X110377571Y-112039666D01*
X110329952Y-111944428D01*
X110282333Y-111896809D01*
X110187095Y-111849190D01*
X109996619Y-111801571D01*
X109901380Y-111753952D01*
X109853761Y-111706333D01*
X109806142Y-111611095D01*
X109806142Y-111515857D01*
X109853761Y-111420619D01*
X109901380Y-111373000D01*
X109996619Y-111325380D01*
X110234714Y-111325380D01*
X110377571Y-111373000D01*
X110806142Y-111801571D02*
X111139476Y-111801571D01*
X111282333Y-112325380D02*
X110806142Y-112325380D01*
X110806142Y-111325380D01*
X111282333Y-111325380D01*
X111568047Y-111325380D02*
X112139476Y-111325380D01*
X111853761Y-112325380D02*
X111853761Y-111325380D01*
X112996619Y-112325380D02*
X112425190Y-112325380D01*
X112710904Y-112325380D02*
X112710904Y-111325380D01*
X112615666Y-111468238D01*
X112520428Y-111563476D01*
X112425190Y-111611095D01*
X114912142Y-87034666D02*
X114959761Y-87082285D01*
X115007380Y-87225142D01*
X115007380Y-87320380D01*
X114959761Y-87463238D01*
X114864523Y-87558476D01*
X114769285Y-87606095D01*
X114578809Y-87653714D01*
X114435952Y-87653714D01*
X114245476Y-87606095D01*
X114150238Y-87558476D01*
X114055000Y-87463238D01*
X114007380Y-87320380D01*
X114007380Y-87225142D01*
X114055000Y-87082285D01*
X114102619Y-87034666D01*
X114007380Y-86701333D02*
X114007380Y-86082285D01*
X114388333Y-86415619D01*
X114388333Y-86272761D01*
X114435952Y-86177523D01*
X114483571Y-86129904D01*
X114578809Y-86082285D01*
X114816904Y-86082285D01*
X114912142Y-86129904D01*
X114959761Y-86177523D01*
X115007380Y-86272761D01*
X115007380Y-86558476D01*
X114959761Y-86653714D01*
X114912142Y-86701333D01*
X91415142Y-87034666D02*
X91462761Y-87082285D01*
X91510380Y-87225142D01*
X91510380Y-87320380D01*
X91462761Y-87463238D01*
X91367523Y-87558476D01*
X91272285Y-87606095D01*
X91081809Y-87653714D01*
X90938952Y-87653714D01*
X90748476Y-87606095D01*
X90653238Y-87558476D01*
X90558000Y-87463238D01*
X90510380Y-87320380D01*
X90510380Y-87225142D01*
X90558000Y-87082285D01*
X90605619Y-87034666D01*
X90843714Y-86177523D02*
X91510380Y-86177523D01*
X90462761Y-86415619D02*
X91177047Y-86653714D01*
X91177047Y-86034666D01*
X86843142Y-87034666D02*
X86890761Y-87082285D01*
X86938380Y-87225142D01*
X86938380Y-87320380D01*
X86890761Y-87463238D01*
X86795523Y-87558476D01*
X86700285Y-87606095D01*
X86509809Y-87653714D01*
X86366952Y-87653714D01*
X86176476Y-87606095D01*
X86081238Y-87558476D01*
X85986000Y-87463238D01*
X85938380Y-87320380D01*
X85938380Y-87225142D01*
X85986000Y-87082285D01*
X86033619Y-87034666D01*
X85938380Y-86701333D02*
X85938380Y-86034666D01*
X86938380Y-86463238D01*
X88257142Y-102845142D02*
X88209523Y-102892761D01*
X88066666Y-102940380D01*
X87971428Y-102940380D01*
X87828571Y-102892761D01*
X87733333Y-102797523D01*
X87685714Y-102702285D01*
X87638095Y-102511809D01*
X87638095Y-102368952D01*
X87685714Y-102178476D01*
X87733333Y-102083238D01*
X87828571Y-101988000D01*
X87971428Y-101940380D01*
X88066666Y-101940380D01*
X88209523Y-101988000D01*
X88257142Y-102035619D01*
X89209523Y-102940380D02*
X88638095Y-102940380D01*
X88923809Y-102940380D02*
X88923809Y-101940380D01*
X88828571Y-102083238D01*
X88733333Y-102178476D01*
X88638095Y-102226095D01*
X90161904Y-102940380D02*
X89590476Y-102940380D01*
X89876190Y-102940380D02*
X89876190Y-101940380D01*
X89780952Y-102083238D01*
X89685714Y-102178476D01*
X89590476Y-102226095D01*
X88257142Y-105385142D02*
X88209523Y-105432761D01*
X88066666Y-105480380D01*
X87971428Y-105480380D01*
X87828571Y-105432761D01*
X87733333Y-105337523D01*
X87685714Y-105242285D01*
X87638095Y-105051809D01*
X87638095Y-104908952D01*
X87685714Y-104718476D01*
X87733333Y-104623238D01*
X87828571Y-104528000D01*
X87971428Y-104480380D01*
X88066666Y-104480380D01*
X88209523Y-104528000D01*
X88257142Y-104575619D01*
X89209523Y-105480380D02*
X88638095Y-105480380D01*
X88923809Y-105480380D02*
X88923809Y-104480380D01*
X88828571Y-104623238D01*
X88733333Y-104718476D01*
X88638095Y-104766095D01*
X89590476Y-104575619D02*
X89638095Y-104528000D01*
X89733333Y-104480380D01*
X89971428Y-104480380D01*
X90066666Y-104528000D01*
X90114285Y-104575619D01*
X90161904Y-104670857D01*
X90161904Y-104766095D01*
X90114285Y-104908952D01*
X89542857Y-105480380D01*
X90161904Y-105480380D01*
X88566666Y-109571571D02*
X88233333Y-109571571D01*
X88233333Y-110095380D02*
X88233333Y-109095380D01*
X88709523Y-109095380D01*
X89614285Y-110095380D02*
X89042857Y-110095380D01*
X89328571Y-110095380D02*
X89328571Y-109095380D01*
X89233333Y-109238238D01*
X89138095Y-109333476D01*
X89042857Y-109381095D01*
X119960380Y-87034666D02*
X119484190Y-87368000D01*
X119960380Y-87606095D02*
X118960380Y-87606095D01*
X118960380Y-87225142D01*
X119008000Y-87129904D01*
X119055619Y-87082285D01*
X119150857Y-87034666D01*
X119293714Y-87034666D01*
X119388952Y-87082285D01*
X119436571Y-87129904D01*
X119484190Y-87225142D01*
X119484190Y-87606095D01*
X118960380Y-86129904D02*
X118960380Y-86606095D01*
X119436571Y-86653714D01*
X119388952Y-86606095D01*
X119341333Y-86510857D01*
X119341333Y-86272761D01*
X119388952Y-86177523D01*
X119436571Y-86129904D01*
X119531809Y-86082285D01*
X119769904Y-86082285D01*
X119865142Y-86129904D01*
X119912761Y-86177523D01*
X119960380Y-86272761D01*
X119960380Y-86510857D01*
X119912761Y-86606095D01*
X119865142Y-86653714D01*
D13*
X87660238Y-96332523D02*
X87660238Y-95062523D01*
X88990714Y-96211571D02*
X88930238Y-96272047D01*
X88748809Y-96332523D01*
X88627857Y-96332523D01*
X88446428Y-96272047D01*
X88325476Y-96151095D01*
X88265000Y-96030142D01*
X88204523Y-95788238D01*
X88204523Y-95606809D01*
X88265000Y-95364904D01*
X88325476Y-95243952D01*
X88446428Y-95123000D01*
X88627857Y-95062523D01*
X88748809Y-95062523D01*
X88930238Y-95123000D01*
X88990714Y-95183476D01*
X89474523Y-95183476D02*
X89535000Y-95123000D01*
X89655952Y-95062523D01*
X89958333Y-95062523D01*
X90079285Y-95123000D01*
X90139761Y-95183476D01*
X90200238Y-95304428D01*
X90200238Y-95425380D01*
X90139761Y-95606809D01*
X89414047Y-96332523D01*
X90200238Y-96332523D01*
D11*
X125800380Y-87510857D02*
X125324190Y-87844190D01*
X125800380Y-88082285D02*
X124800380Y-88082285D01*
X124800380Y-87701333D01*
X124848000Y-87606095D01*
X124895619Y-87558476D01*
X124990857Y-87510857D01*
X125133714Y-87510857D01*
X125228952Y-87558476D01*
X125276571Y-87606095D01*
X125324190Y-87701333D01*
X125324190Y-88082285D01*
X125800380Y-86558476D02*
X125800380Y-87129904D01*
X125800380Y-86844190D02*
X124800380Y-86844190D01*
X124943238Y-86939428D01*
X125038476Y-87034666D01*
X125086095Y-87129904D01*
X125800380Y-85606095D02*
X125800380Y-86177523D01*
X125800380Y-85891809D02*
X124800380Y-85891809D01*
X124943238Y-85987047D01*
X125038476Y-86082285D01*
X125086095Y-86177523D01*
X120720380Y-87510857D02*
X120244190Y-87844190D01*
X120720380Y-88082285D02*
X119720380Y-88082285D01*
X119720380Y-87701333D01*
X119768000Y-87606095D01*
X119815619Y-87558476D01*
X119910857Y-87510857D01*
X120053714Y-87510857D01*
X120148952Y-87558476D01*
X120196571Y-87606095D01*
X120244190Y-87701333D01*
X120244190Y-88082285D01*
X120720380Y-86558476D02*
X120720380Y-87129904D01*
X120720380Y-86844190D02*
X119720380Y-86844190D01*
X119863238Y-86939428D01*
X119958476Y-87034666D01*
X120006095Y-87129904D01*
X119720380Y-86225142D02*
X119720380Y-85606095D01*
X120101333Y-85939428D01*
X120101333Y-85796571D01*
X120148952Y-85701333D01*
X120196571Y-85653714D01*
X120291809Y-85606095D01*
X120529904Y-85606095D01*
X120625142Y-85653714D01*
X120672761Y-85701333D01*
X120720380Y-85796571D01*
X120720380Y-86082285D01*
X120672761Y-86177523D01*
X120625142Y-86225142D01*
X108192380Y-90328000D02*
X107192380Y-90328000D01*
X107192380Y-89947047D01*
X107240000Y-89851809D01*
X107287619Y-89804190D01*
X107382857Y-89756571D01*
X107525714Y-89756571D01*
X107620952Y-89804190D01*
X107668571Y-89851809D01*
X107716190Y-89947047D01*
X107716190Y-90328000D01*
X108192380Y-88756571D02*
X107716190Y-89089904D01*
X108192380Y-89328000D02*
X107192380Y-89328000D01*
X107192380Y-88947047D01*
X107240000Y-88851809D01*
X107287619Y-88804190D01*
X107382857Y-88756571D01*
X107525714Y-88756571D01*
X107620952Y-88804190D01*
X107668571Y-88851809D01*
X107716190Y-88947047D01*
X107716190Y-89328000D01*
X107192380Y-88137523D02*
X107192380Y-87947047D01*
X107240000Y-87851809D01*
X107335238Y-87756571D01*
X107525714Y-87708952D01*
X107859047Y-87708952D01*
X108049523Y-87756571D01*
X108144761Y-87851809D01*
X108192380Y-87947047D01*
X108192380Y-88137523D01*
X108144761Y-88232761D01*
X108049523Y-88328000D01*
X107859047Y-88375619D01*
X107525714Y-88375619D01*
X107335238Y-88328000D01*
X107240000Y-88232761D01*
X107192380Y-88137523D01*
X107240000Y-86756571D02*
X107192380Y-86851809D01*
X107192380Y-86994666D01*
X107240000Y-87137523D01*
X107335238Y-87232761D01*
X107430476Y-87280380D01*
X107620952Y-87328000D01*
X107763809Y-87328000D01*
X107954285Y-87280380D01*
X108049523Y-87232761D01*
X108144761Y-87137523D01*
X108192380Y-86994666D01*
X108192380Y-86899428D01*
X108144761Y-86756571D01*
X108097142Y-86708952D01*
X107763809Y-86708952D01*
X107763809Y-86899428D01*
X108192380Y-85708952D02*
X107716190Y-86042285D01*
X108192380Y-86280380D02*
X107192380Y-86280380D01*
X107192380Y-85899428D01*
X107240000Y-85804190D01*
X107287619Y-85756571D01*
X107382857Y-85708952D01*
X107525714Y-85708952D01*
X107620952Y-85756571D01*
X107668571Y-85804190D01*
X107716190Y-85899428D01*
X107716190Y-86280380D01*
X108287619Y-85518476D02*
X108287619Y-84756571D01*
X108192380Y-84518476D02*
X107192380Y-84518476D01*
X107668571Y-84518476D02*
X107668571Y-83947047D01*
X108192380Y-83947047D02*
X107192380Y-83947047D01*
X107668571Y-83470857D02*
X107668571Y-83137523D01*
X108192380Y-82994666D02*
X108192380Y-83470857D01*
X107192380Y-83470857D01*
X107192380Y-82994666D01*
X107906666Y-82613714D02*
X107906666Y-82137523D01*
X108192380Y-82708952D02*
X107192380Y-82375619D01*
X108192380Y-82042285D01*
X108192380Y-81708952D02*
X107192380Y-81708952D01*
X107192380Y-81470857D01*
X107240000Y-81328000D01*
X107335238Y-81232761D01*
X107430476Y-81185142D01*
X107620952Y-81137523D01*
X107763809Y-81137523D01*
X107954285Y-81185142D01*
X108049523Y-81232761D01*
X108144761Y-81328000D01*
X108192380Y-81470857D01*
X108192380Y-81708952D01*
X107668571Y-80708952D02*
X107668571Y-80375619D01*
X108192380Y-80232761D02*
X108192380Y-80708952D01*
X107192380Y-80708952D01*
X107192380Y-80232761D01*
X108192380Y-79232761D02*
X107716190Y-79566095D01*
X108192380Y-79804190D02*
X107192380Y-79804190D01*
X107192380Y-79423238D01*
X107240000Y-79328000D01*
X107287619Y-79280380D01*
X107382857Y-79232761D01*
X107525714Y-79232761D01*
X107620952Y-79280380D01*
X107668571Y-79328000D01*
X107716190Y-79423238D01*
X107716190Y-79804190D01*
X108192380Y-78280380D02*
X108192380Y-78851809D01*
X108192380Y-78566095D02*
X107192380Y-78566095D01*
X107335238Y-78661333D01*
X107430476Y-78756571D01*
X107478095Y-78851809D01*
X93701142Y-87034666D02*
X93748761Y-87082285D01*
X93796380Y-87225142D01*
X93796380Y-87320380D01*
X93748761Y-87463238D01*
X93653523Y-87558476D01*
X93558285Y-87606095D01*
X93367809Y-87653714D01*
X93224952Y-87653714D01*
X93034476Y-87606095D01*
X92939238Y-87558476D01*
X92844000Y-87463238D01*
X92796380Y-87320380D01*
X92796380Y-87225142D01*
X92844000Y-87082285D01*
X92891619Y-87034666D01*
X92796380Y-86129904D02*
X92796380Y-86606095D01*
X93272571Y-86653714D01*
X93224952Y-86606095D01*
X93177333Y-86510857D01*
X93177333Y-86272761D01*
X93224952Y-86177523D01*
X93272571Y-86129904D01*
X93367809Y-86082285D01*
X93605904Y-86082285D01*
X93701142Y-86129904D01*
X93748761Y-86177523D01*
X93796380Y-86272761D01*
X93796380Y-86510857D01*
X93748761Y-86606095D01*
X93701142Y-86653714D01*
X89129142Y-87034666D02*
X89176761Y-87082285D01*
X89224380Y-87225142D01*
X89224380Y-87320380D01*
X89176761Y-87463238D01*
X89081523Y-87558476D01*
X88986285Y-87606095D01*
X88795809Y-87653714D01*
X88652952Y-87653714D01*
X88462476Y-87606095D01*
X88367238Y-87558476D01*
X88272000Y-87463238D01*
X88224380Y-87320380D01*
X88224380Y-87225142D01*
X88272000Y-87082285D01*
X88319619Y-87034666D01*
X88224380Y-86177523D02*
X88224380Y-86368000D01*
X88272000Y-86463238D01*
X88319619Y-86510857D01*
X88462476Y-86606095D01*
X88652952Y-86653714D01*
X89033904Y-86653714D01*
X89129142Y-86606095D01*
X89176761Y-86558476D01*
X89224380Y-86463238D01*
X89224380Y-86272761D01*
X89176761Y-86177523D01*
X89129142Y-86129904D01*
X89033904Y-86082285D01*
X88795809Y-86082285D01*
X88700571Y-86129904D01*
X88652952Y-86177523D01*
X88605333Y-86272761D01*
X88605333Y-86463238D01*
X88652952Y-86558476D01*
X88700571Y-86606095D01*
X88795809Y-86653714D01*
X113227380Y-87034666D02*
X112751190Y-87368000D01*
X113227380Y-87606095D02*
X112227380Y-87606095D01*
X112227380Y-87225142D01*
X112275000Y-87129904D01*
X112322619Y-87082285D01*
X112417857Y-87034666D01*
X112560714Y-87034666D01*
X112655952Y-87082285D01*
X112703571Y-87129904D01*
X112751190Y-87225142D01*
X112751190Y-87606095D01*
X113227380Y-86082285D02*
X113227380Y-86653714D01*
X113227380Y-86368000D02*
X112227380Y-86368000D01*
X112370238Y-86463238D01*
X112465476Y-86558476D01*
X112513095Y-86653714D01*
X115767380Y-87034666D02*
X115291190Y-87368000D01*
X115767380Y-87606095D02*
X114767380Y-87606095D01*
X114767380Y-87225142D01*
X114815000Y-87129904D01*
X114862619Y-87082285D01*
X114957857Y-87034666D01*
X115100714Y-87034666D01*
X115195952Y-87082285D01*
X115243571Y-87129904D01*
X115291190Y-87225142D01*
X115291190Y-87606095D01*
X114767380Y-86177523D02*
X114767380Y-86368000D01*
X114815000Y-86463238D01*
X114862619Y-86510857D01*
X115005476Y-86606095D01*
X115195952Y-86653714D01*
X115576904Y-86653714D01*
X115672142Y-86606095D01*
X115719761Y-86558476D01*
X115767380Y-86463238D01*
X115767380Y-86272761D01*
X115719761Y-86177523D01*
X115672142Y-86129904D01*
X115576904Y-86082285D01*
X115338809Y-86082285D01*
X115243571Y-86129904D01*
X115195952Y-86177523D01*
X115148333Y-86272761D01*
X115148333Y-86463238D01*
X115195952Y-86558476D01*
X115243571Y-86606095D01*
X115338809Y-86653714D01*
M02*
