%TF.GenerationSoftware,KiCad,Pcbnew,(5.1.2)-2*%
%TF.CreationDate,2020-02-06T17:00:50+08:00*%
%TF.ProjectId,wing-receiver-lite,77696e67-2d72-4656-9365-697665722d6c,rev?*%
%TF.SameCoordinates,Original*%
%TF.FileFunction,Legend,Bot*%
%TF.FilePolarity,Positive*%
%FSLAX46Y46*%
G04 Gerber Fmt 4.6, Leading zero omitted, Abs format (unit mm)*
G04 Created by KiCad (PCBNEW (5.1.2)-2) date 2020-02-06 17:00:50*
%MOMM*%
%LPD*%
G04 APERTURE LIST*
%ADD10C,0.120000*%
%ADD11C,0.100000*%
%ADD12C,0.150000*%
%ADD13C,0.152400*%
G04 APERTURE END LIST*
D10*
X76696000Y-103814000D02*
X76696000Y-107514000D01*
X82816000Y-103814000D02*
X76696000Y-103814000D01*
X82816000Y-107514000D02*
X82816000Y-103814000D01*
X76696000Y-107514000D02*
X82816000Y-107514000D01*
D11*
X88773000Y-133985000D02*
X71247000Y-133985000D01*
X71247000Y-139700000D02*
X71247000Y-110998000D01*
X88773000Y-139700000D02*
X71247000Y-139700000D01*
X88773000Y-110998000D02*
X88773000Y-139700000D01*
X71247000Y-110998000D02*
X88773000Y-110998000D01*
D12*
X81494095Y-101727380D02*
X81494095Y-102536904D01*
X81446476Y-102632142D01*
X81398857Y-102679761D01*
X81303619Y-102727380D01*
X81113142Y-102727380D01*
X81017904Y-102679761D01*
X80970285Y-102632142D01*
X80922666Y-102536904D01*
X80922666Y-101727380D01*
X80494095Y-102679761D02*
X80351238Y-102727380D01*
X80113142Y-102727380D01*
X80017904Y-102679761D01*
X79970285Y-102632142D01*
X79922666Y-102536904D01*
X79922666Y-102441666D01*
X79970285Y-102346428D01*
X80017904Y-102298809D01*
X80113142Y-102251190D01*
X80303619Y-102203571D01*
X80398857Y-102155952D01*
X80446476Y-102108333D01*
X80494095Y-102013095D01*
X80494095Y-101917857D01*
X80446476Y-101822619D01*
X80398857Y-101775000D01*
X80303619Y-101727380D01*
X80065523Y-101727380D01*
X79922666Y-101775000D01*
X79160761Y-102203571D02*
X79017904Y-102251190D01*
X78970285Y-102298809D01*
X78922666Y-102394047D01*
X78922666Y-102536904D01*
X78970285Y-102632142D01*
X79017904Y-102679761D01*
X79113142Y-102727380D01*
X79494095Y-102727380D01*
X79494095Y-101727380D01*
X79160761Y-101727380D01*
X79065523Y-101775000D01*
X79017904Y-101822619D01*
X78970285Y-101917857D01*
X78970285Y-102013095D01*
X79017904Y-102108333D01*
X79065523Y-102155952D01*
X79160761Y-102203571D01*
X79494095Y-102203571D01*
X77970285Y-102727380D02*
X78541714Y-102727380D01*
X78256000Y-102727380D02*
X78256000Y-101727380D01*
X78351238Y-101870238D01*
X78446476Y-101965476D01*
X78541714Y-102013095D01*
X81684571Y-108716380D02*
X82017904Y-108240190D01*
X82256000Y-108716380D02*
X82256000Y-107716380D01*
X81875047Y-107716380D01*
X81779809Y-107764000D01*
X81732190Y-107811619D01*
X81684571Y-107906857D01*
X81684571Y-108049714D01*
X81732190Y-108144952D01*
X81779809Y-108192571D01*
X81875047Y-108240190D01*
X82256000Y-108240190D01*
X81256000Y-108192571D02*
X80922666Y-108192571D01*
X80779809Y-108716380D02*
X81256000Y-108716380D01*
X81256000Y-107716380D01*
X80779809Y-107716380D01*
X80398857Y-108668761D02*
X80256000Y-108716380D01*
X80017904Y-108716380D01*
X79922666Y-108668761D01*
X79875047Y-108621142D01*
X79827428Y-108525904D01*
X79827428Y-108430666D01*
X79875047Y-108335428D01*
X79922666Y-108287809D01*
X80017904Y-108240190D01*
X80208380Y-108192571D01*
X80303619Y-108144952D01*
X80351238Y-108097333D01*
X80398857Y-108002095D01*
X80398857Y-107906857D01*
X80351238Y-107811619D01*
X80303619Y-107764000D01*
X80208380Y-107716380D01*
X79970285Y-107716380D01*
X79827428Y-107764000D01*
X79398857Y-108192571D02*
X79065523Y-108192571D01*
X78922666Y-108716380D02*
X79398857Y-108716380D01*
X79398857Y-107716380D01*
X78922666Y-107716380D01*
X78636952Y-107716380D02*
X78065523Y-107716380D01*
X78351238Y-108716380D02*
X78351238Y-107716380D01*
X77208380Y-108716380D02*
X77779809Y-108716380D01*
X77494095Y-108716380D02*
X77494095Y-107716380D01*
X77589333Y-107859238D01*
X77684571Y-107954476D01*
X77779809Y-108002095D01*
D13*
X81856942Y-121709542D02*
X81856942Y-122996476D01*
X81856942Y-121893390D02*
X81765019Y-121801466D01*
X81581171Y-121709542D01*
X81305400Y-121709542D01*
X81121552Y-121801466D01*
X81029628Y-121985314D01*
X81029628Y-122996476D01*
X80110390Y-122996476D02*
X80110390Y-121709542D01*
X80110390Y-122077238D02*
X80018466Y-121893390D01*
X79926542Y-121801466D01*
X79742695Y-121709542D01*
X79558847Y-121709542D01*
X79191152Y-121709542D02*
X78455761Y-121709542D01*
X78915380Y-122996476D02*
X78915380Y-121341847D01*
X78823457Y-121158000D01*
X78639609Y-121066076D01*
X78455761Y-121066076D01*
X76801133Y-122996476D02*
X77904219Y-122996476D01*
X77352676Y-122996476D02*
X77352676Y-121066076D01*
X77536523Y-121341847D01*
X77720371Y-121525695D01*
X77904219Y-121617619D01*
X89440657Y-127624114D02*
X88797190Y-127624114D01*
X88521419Y-128635276D02*
X89440657Y-128635276D01*
X89440657Y-126704876D01*
X88521419Y-126704876D01*
X87877952Y-126704876D02*
X86591019Y-126704876D01*
X87418333Y-128635276D01*
X86039476Y-126704876D02*
X84844466Y-126704876D01*
X85487933Y-127440266D01*
X85212161Y-127440266D01*
X85028314Y-127532190D01*
X84936390Y-127624114D01*
X84844466Y-127807961D01*
X84844466Y-128267580D01*
X84936390Y-128451428D01*
X85028314Y-128543352D01*
X85212161Y-128635276D01*
X85763704Y-128635276D01*
X85947552Y-128543352D01*
X86039476Y-128451428D01*
X84017152Y-127899885D02*
X82546371Y-127899885D01*
X81627133Y-127348342D02*
X81627133Y-128635276D01*
X81627133Y-127532190D02*
X81535209Y-127440266D01*
X81351361Y-127348342D01*
X81075590Y-127348342D01*
X80891742Y-127440266D01*
X80799819Y-127624114D01*
X80799819Y-128635276D01*
X79880580Y-128635276D02*
X79880580Y-127348342D01*
X79880580Y-127716038D02*
X79788657Y-127532190D01*
X79696733Y-127440266D01*
X79512885Y-127348342D01*
X79329038Y-127348342D01*
X78961342Y-127348342D02*
X78225952Y-127348342D01*
X78685571Y-128635276D02*
X78685571Y-126980647D01*
X78593647Y-126796800D01*
X78409800Y-126704876D01*
X78225952Y-126704876D01*
X76663247Y-126704876D02*
X77582485Y-126704876D01*
X77674409Y-127624114D01*
X77582485Y-127532190D01*
X77398638Y-127440266D01*
X76939019Y-127440266D01*
X76755171Y-127532190D01*
X76663247Y-127624114D01*
X76571323Y-127807961D01*
X76571323Y-128267580D01*
X76663247Y-128451428D01*
X76755171Y-128543352D01*
X76939019Y-128635276D01*
X77398638Y-128635276D01*
X77582485Y-128543352D01*
X77674409Y-128451428D01*
X74732847Y-128635276D02*
X75835933Y-128635276D01*
X75284390Y-128635276D02*
X75284390Y-126704876D01*
X75468238Y-126980647D01*
X75652085Y-127164495D01*
X75835933Y-127256419D01*
X73629761Y-127532190D02*
X73813609Y-127440266D01*
X73905533Y-127348342D01*
X73997457Y-127164495D01*
X73997457Y-127072571D01*
X73905533Y-126888723D01*
X73813609Y-126796800D01*
X73629761Y-126704876D01*
X73262066Y-126704876D01*
X73078219Y-126796800D01*
X72986295Y-126888723D01*
X72894371Y-127072571D01*
X72894371Y-127164495D01*
X72986295Y-127348342D01*
X73078219Y-127440266D01*
X73262066Y-127532190D01*
X73629761Y-127532190D01*
X73813609Y-127624114D01*
X73905533Y-127716038D01*
X73997457Y-127899885D01*
X73997457Y-128267580D01*
X73905533Y-128451428D01*
X73813609Y-128543352D01*
X73629761Y-128635276D01*
X73262066Y-128635276D01*
X73078219Y-128543352D01*
X72986295Y-128451428D01*
X72894371Y-128267580D01*
X72894371Y-127899885D01*
X72986295Y-127716038D01*
X73078219Y-127624114D01*
X73262066Y-127532190D01*
X72158980Y-126888723D02*
X72067057Y-126796800D01*
X71883209Y-126704876D01*
X71423590Y-126704876D01*
X71239742Y-126796800D01*
X71147819Y-126888723D01*
X71055895Y-127072571D01*
X71055895Y-127256419D01*
X71147819Y-127532190D01*
X72250904Y-128635276D01*
X71055895Y-128635276D01*
X70320504Y-126888723D02*
X70228580Y-126796800D01*
X70044733Y-126704876D01*
X69585114Y-126704876D01*
X69401266Y-126796800D01*
X69309342Y-126888723D01*
X69217419Y-127072571D01*
X69217419Y-127256419D01*
X69309342Y-127532190D01*
X70412428Y-128635276D01*
X69217419Y-128635276D01*
M02*
