%TF.GenerationSoftware,KiCad,Pcbnew,(5.1.2)-2*%
%TF.CreationDate,2020-04-26T17:29:46+08:00*%
%TF.ProjectId,wing-receiver-lite,77696e67-2d72-4656-9365-697665722d6c,rev?*%
%TF.SameCoordinates,Original*%
%TF.FileFunction,Paste,Bot*%
%TF.FilePolarity,Positive*%
%FSLAX46Y46*%
G04 Gerber Fmt 4.6, Leading zero omitted, Abs format (unit mm)*
G04 Created by KiCad (PCBNEW (5.1.2)-2) date 2020-04-26 17:29:46*
%MOMM*%
%LPD*%
G04 APERTURE LIST*
%ADD10R,1.500000X1.000000*%
%ADD11R,2.450000X0.600000*%
%ADD12R,2.450000X0.300000*%
%ADD13R,0.698500X1.198880*%
%ADD14R,1.198880X0.698500*%
G04 APERTURE END LIST*
D10*
X118655000Y-85903000D03*
X118655000Y-89103000D03*
X113755000Y-85903000D03*
X113755000Y-89103000D03*
D11*
X123895000Y-108395000D03*
X123895000Y-101945000D03*
X123895000Y-107620000D03*
X123895000Y-102720000D03*
D12*
X123895000Y-103420000D03*
X123895000Y-106920000D03*
X123895000Y-103920000D03*
X123895000Y-106420000D03*
X123895000Y-104420000D03*
X123895000Y-105920000D03*
X123895000Y-105420000D03*
X123895000Y-104920000D03*
D13*
X104277000Y-91961600D03*
X96657000Y-109487600D03*
X95387000Y-109487600D03*
D14*
X106055000Y-93739600D03*
D13*
X101737000Y-91961600D03*
X100467000Y-91961600D03*
X99197000Y-91961600D03*
X97927000Y-91961600D03*
X96657000Y-91961600D03*
X95387000Y-91961600D03*
X94117000Y-91961600D03*
X92847000Y-91961600D03*
X91577000Y-91961600D03*
X90307000Y-109487600D03*
X91577000Y-109487600D03*
X92847000Y-109487600D03*
X94117000Y-109487600D03*
X97927000Y-109487600D03*
X99197000Y-109487600D03*
X100467000Y-109487600D03*
X101737000Y-109487600D03*
X103007000Y-109487600D03*
X104277000Y-109487600D03*
D14*
X106055000Y-107709600D03*
X106055000Y-106439600D03*
X106055000Y-105169600D03*
X106055000Y-103899600D03*
X106055000Y-102629600D03*
X106055000Y-101359600D03*
X106055000Y-100089600D03*
X106055000Y-98819600D03*
X106055000Y-97549600D03*
X106055000Y-96279600D03*
X106055000Y-95009600D03*
D13*
X90307000Y-91961600D03*
X103007000Y-91961600D03*
D10*
X91360000Y-112460000D03*
X91360000Y-115660000D03*
X86460000Y-112460000D03*
X86460000Y-115660000D03*
X119300000Y-111825000D03*
X119300000Y-115025000D03*
X114400000Y-111825000D03*
X114400000Y-115025000D03*
X89455000Y-85789600D03*
X89455000Y-88989600D03*
X84555000Y-85789600D03*
X84555000Y-88989600D03*
M02*
