%TF.GenerationSoftware,KiCad,Pcbnew,(5.1.2)-2*%
%TF.CreationDate,2020-04-26T17:29:46+08:00*%
%TF.ProjectId,wing-receiver-lite,77696e67-2d72-4656-9365-697665722d6c,rev?*%
%TF.SameCoordinates,Original*%
%TF.FileFunction,Legend,Bot*%
%TF.FilePolarity,Positive*%
%FSLAX46Y46*%
G04 Gerber Fmt 4.6, Leading zero omitted, Abs format (unit mm)*
G04 Created by KiCad (PCBNEW (5.1.2)-2) date 2020-04-26 17:29:46*
%MOMM*%
%LPD*%
G04 APERTURE LIST*
%ADD10C,0.120000*%
%ADD11C,0.100000*%
%ADD12C,0.150000*%
%ADD13C,0.152400*%
G04 APERTURE END LIST*
D10*
X112555000Y-90253000D02*
X112555000Y-89103000D01*
X119855000Y-90253000D02*
X112555000Y-90253000D01*
X119855000Y-84753000D02*
X112555000Y-84753000D01*
D11*
X83068000Y-109487600D02*
X83068000Y-91961600D01*
X77353000Y-91961600D02*
X106055000Y-91961600D01*
X77353000Y-109487600D02*
X77353000Y-91961600D01*
X106055000Y-109487600D02*
X77353000Y-109487600D01*
X106055000Y-91961600D02*
X106055000Y-109487600D01*
D10*
X85260000Y-116810000D02*
X85260000Y-115660000D01*
X92560000Y-116810000D02*
X85260000Y-116810000D01*
X92560000Y-111310000D02*
X85260000Y-111310000D01*
X113200000Y-116175000D02*
X113200000Y-115025000D01*
X120500000Y-116175000D02*
X113200000Y-116175000D01*
X120500000Y-110675000D02*
X113200000Y-110675000D01*
X83355000Y-90139600D02*
X83355000Y-88989600D01*
X90655000Y-90139600D02*
X83355000Y-90139600D01*
X90655000Y-84639600D02*
X83355000Y-84639600D01*
D12*
X116943095Y-84455380D02*
X116943095Y-83455380D01*
X116705000Y-83455380D01*
X116562142Y-83503000D01*
X116466904Y-83598238D01*
X116419285Y-83693476D01*
X116371666Y-83883952D01*
X116371666Y-84026809D01*
X116419285Y-84217285D01*
X116466904Y-84312523D01*
X116562142Y-84407761D01*
X116705000Y-84455380D01*
X116943095Y-84455380D01*
X115990714Y-83550619D02*
X115943095Y-83503000D01*
X115847857Y-83455380D01*
X115609761Y-83455380D01*
X115514523Y-83503000D01*
X115466904Y-83550619D01*
X115419285Y-83645857D01*
X115419285Y-83741095D01*
X115466904Y-83883952D01*
X116038333Y-84455380D01*
X115419285Y-84455380D01*
X120069285Y-86355380D02*
X120640714Y-86355380D01*
X120355000Y-86355380D02*
X120355000Y-85355380D01*
X120450238Y-85498238D01*
X120545476Y-85593476D01*
X120640714Y-85641095D01*
X121342380Y-103431904D02*
X122151904Y-103431904D01*
X122247142Y-103479523D01*
X122294761Y-103527142D01*
X122342380Y-103622380D01*
X122342380Y-103812857D01*
X122294761Y-103908095D01*
X122247142Y-103955714D01*
X122151904Y-104003333D01*
X121342380Y-104003333D01*
X122294761Y-104431904D02*
X122342380Y-104574761D01*
X122342380Y-104812857D01*
X122294761Y-104908095D01*
X122247142Y-104955714D01*
X122151904Y-105003333D01*
X122056666Y-105003333D01*
X121961428Y-104955714D01*
X121913809Y-104908095D01*
X121866190Y-104812857D01*
X121818571Y-104622380D01*
X121770952Y-104527142D01*
X121723333Y-104479523D01*
X121628095Y-104431904D01*
X121532857Y-104431904D01*
X121437619Y-104479523D01*
X121390000Y-104527142D01*
X121342380Y-104622380D01*
X121342380Y-104860476D01*
X121390000Y-105003333D01*
X121818571Y-105765238D02*
X121866190Y-105908095D01*
X121913809Y-105955714D01*
X122009047Y-106003333D01*
X122151904Y-106003333D01*
X122247142Y-105955714D01*
X122294761Y-105908095D01*
X122342380Y-105812857D01*
X122342380Y-105431904D01*
X121342380Y-105431904D01*
X121342380Y-105765238D01*
X121390000Y-105860476D01*
X121437619Y-105908095D01*
X121532857Y-105955714D01*
X121628095Y-105955714D01*
X121723333Y-105908095D01*
X121770952Y-105860476D01*
X121818571Y-105765238D01*
X121818571Y-105431904D01*
X122342380Y-106955714D02*
X122342380Y-106384285D01*
X122342380Y-106670000D02*
X121342380Y-106670000D01*
X121485238Y-106574761D01*
X121580476Y-106479523D01*
X121628095Y-106384285D01*
D13*
X94516142Y-97607657D02*
X95803076Y-97607657D01*
X94699990Y-97607657D02*
X94608066Y-97699580D01*
X94516142Y-97883428D01*
X94516142Y-98159200D01*
X94608066Y-98343047D01*
X94791914Y-98434971D01*
X95803076Y-98434971D01*
X95803076Y-99354209D02*
X94516142Y-99354209D01*
X94883838Y-99354209D02*
X94699990Y-99446133D01*
X94608066Y-99538057D01*
X94516142Y-99721904D01*
X94516142Y-99905752D01*
X94516142Y-100273447D02*
X94516142Y-101008838D01*
X95803076Y-100549219D02*
X94148447Y-100549219D01*
X93964600Y-100641142D01*
X93872676Y-100824990D01*
X93872676Y-101008838D01*
X95803076Y-102663466D02*
X95803076Y-101560380D01*
X95803076Y-102111923D02*
X93872676Y-102111923D01*
X94148447Y-101928076D01*
X94332295Y-101744228D01*
X94424219Y-101560380D01*
X89153114Y-90023942D02*
X89153114Y-90667409D01*
X90164276Y-90943180D02*
X90164276Y-90023942D01*
X88233876Y-90023942D01*
X88233876Y-90943180D01*
X88233876Y-91586647D02*
X88233876Y-92873580D01*
X90164276Y-92046266D01*
X88233876Y-93425123D02*
X88233876Y-94620133D01*
X88969266Y-93976666D01*
X88969266Y-94252438D01*
X89061190Y-94436285D01*
X89153114Y-94528209D01*
X89336961Y-94620133D01*
X89796580Y-94620133D01*
X89980428Y-94528209D01*
X90072352Y-94436285D01*
X90164276Y-94252438D01*
X90164276Y-93700895D01*
X90072352Y-93517047D01*
X89980428Y-93425123D01*
X89428885Y-95447447D02*
X89428885Y-96918228D01*
X88877342Y-97837466D02*
X90164276Y-97837466D01*
X89061190Y-97837466D02*
X88969266Y-97929390D01*
X88877342Y-98113238D01*
X88877342Y-98389009D01*
X88969266Y-98572857D01*
X89153114Y-98664780D01*
X90164276Y-98664780D01*
X90164276Y-99584019D02*
X88877342Y-99584019D01*
X89245038Y-99584019D02*
X89061190Y-99675942D01*
X88969266Y-99767866D01*
X88877342Y-99951714D01*
X88877342Y-100135561D01*
X88877342Y-100503257D02*
X88877342Y-101238647D01*
X90164276Y-100779028D02*
X88509647Y-100779028D01*
X88325800Y-100870952D01*
X88233876Y-101054800D01*
X88233876Y-101238647D01*
X88233876Y-102801352D02*
X88233876Y-101882114D01*
X89153114Y-101790190D01*
X89061190Y-101882114D01*
X88969266Y-102065961D01*
X88969266Y-102525580D01*
X89061190Y-102709428D01*
X89153114Y-102801352D01*
X89336961Y-102893276D01*
X89796580Y-102893276D01*
X89980428Y-102801352D01*
X90072352Y-102709428D01*
X90164276Y-102525580D01*
X90164276Y-102065961D01*
X90072352Y-101882114D01*
X89980428Y-101790190D01*
X90164276Y-104731752D02*
X90164276Y-103628666D01*
X90164276Y-104180209D02*
X88233876Y-104180209D01*
X88509647Y-103996361D01*
X88693495Y-103812514D01*
X88785419Y-103628666D01*
X89061190Y-105834838D02*
X88969266Y-105650990D01*
X88877342Y-105559066D01*
X88693495Y-105467142D01*
X88601571Y-105467142D01*
X88417723Y-105559066D01*
X88325800Y-105650990D01*
X88233876Y-105834838D01*
X88233876Y-106202533D01*
X88325800Y-106386380D01*
X88417723Y-106478304D01*
X88601571Y-106570228D01*
X88693495Y-106570228D01*
X88877342Y-106478304D01*
X88969266Y-106386380D01*
X89061190Y-106202533D01*
X89061190Y-105834838D01*
X89153114Y-105650990D01*
X89245038Y-105559066D01*
X89428885Y-105467142D01*
X89796580Y-105467142D01*
X89980428Y-105559066D01*
X90072352Y-105650990D01*
X90164276Y-105834838D01*
X90164276Y-106202533D01*
X90072352Y-106386380D01*
X89980428Y-106478304D01*
X89796580Y-106570228D01*
X89428885Y-106570228D01*
X89245038Y-106478304D01*
X89153114Y-106386380D01*
X89061190Y-106202533D01*
X88417723Y-107305619D02*
X88325800Y-107397542D01*
X88233876Y-107581390D01*
X88233876Y-108041009D01*
X88325800Y-108224857D01*
X88417723Y-108316780D01*
X88601571Y-108408704D01*
X88785419Y-108408704D01*
X89061190Y-108316780D01*
X90164276Y-107213695D01*
X90164276Y-108408704D01*
X88417723Y-109144095D02*
X88325800Y-109236019D01*
X88233876Y-109419866D01*
X88233876Y-109879485D01*
X88325800Y-110063333D01*
X88417723Y-110155257D01*
X88601571Y-110247180D01*
X88785419Y-110247180D01*
X89061190Y-110155257D01*
X90164276Y-109052171D01*
X90164276Y-110247180D01*
D12*
X89648095Y-111012380D02*
X89648095Y-110012380D01*
X89410000Y-110012380D01*
X89267142Y-110060000D01*
X89171904Y-110155238D01*
X89124285Y-110250476D01*
X89076666Y-110440952D01*
X89076666Y-110583809D01*
X89124285Y-110774285D01*
X89171904Y-110869523D01*
X89267142Y-110964761D01*
X89410000Y-111012380D01*
X89648095Y-111012380D01*
X88219523Y-110345714D02*
X88219523Y-111012380D01*
X88457619Y-109964761D02*
X88695714Y-110679047D01*
X88076666Y-110679047D01*
X92774285Y-112912380D02*
X93345714Y-112912380D01*
X93060000Y-112912380D02*
X93060000Y-111912380D01*
X93155238Y-112055238D01*
X93250476Y-112150476D01*
X93345714Y-112198095D01*
X117588095Y-110377380D02*
X117588095Y-109377380D01*
X117350000Y-109377380D01*
X117207142Y-109425000D01*
X117111904Y-109520238D01*
X117064285Y-109615476D01*
X117016666Y-109805952D01*
X117016666Y-109948809D01*
X117064285Y-110139285D01*
X117111904Y-110234523D01*
X117207142Y-110329761D01*
X117350000Y-110377380D01*
X117588095Y-110377380D01*
X116683333Y-109377380D02*
X116064285Y-109377380D01*
X116397619Y-109758333D01*
X116254761Y-109758333D01*
X116159523Y-109805952D01*
X116111904Y-109853571D01*
X116064285Y-109948809D01*
X116064285Y-110186904D01*
X116111904Y-110282142D01*
X116159523Y-110329761D01*
X116254761Y-110377380D01*
X116540476Y-110377380D01*
X116635714Y-110329761D01*
X116683333Y-110282142D01*
X120714285Y-112277380D02*
X121285714Y-112277380D01*
X121000000Y-112277380D02*
X121000000Y-111277380D01*
X121095238Y-111420238D01*
X121190476Y-111515476D01*
X121285714Y-111563095D01*
X87743095Y-84341980D02*
X87743095Y-83341980D01*
X87505000Y-83341980D01*
X87362142Y-83389600D01*
X87266904Y-83484838D01*
X87219285Y-83580076D01*
X87171666Y-83770552D01*
X87171666Y-83913409D01*
X87219285Y-84103885D01*
X87266904Y-84199123D01*
X87362142Y-84294361D01*
X87505000Y-84341980D01*
X87743095Y-84341980D01*
X86219285Y-84341980D02*
X86790714Y-84341980D01*
X86505000Y-84341980D02*
X86505000Y-83341980D01*
X86600238Y-83484838D01*
X86695476Y-83580076D01*
X86790714Y-83627695D01*
X90869285Y-86241980D02*
X91440714Y-86241980D01*
X91155000Y-86241980D02*
X91155000Y-85241980D01*
X91250238Y-85384838D01*
X91345476Y-85480076D01*
X91440714Y-85527695D01*
M02*
