%TF.GenerationSoftware,KiCad,Pcbnew,(5.1.2)-2*%
%TF.CreationDate,2020-02-06T17:00:50+08:00*%
%TF.ProjectId,wing-receiver-lite,77696e67-2d72-4656-9365-697665722d6c,rev?*%
%TF.SameCoordinates,Original*%
%TF.FileFunction,Copper,L2,Bot*%
%TF.FilePolarity,Positive*%
%FSLAX46Y46*%
G04 Gerber Fmt 4.6, Leading zero omitted, Abs format (unit mm)*
G04 Created by KiCad (PCBNEW (5.1.2)-2) date 2020-02-06 17:00:50*
%MOMM*%
%LPD*%
G04 APERTURE LIST*
%ADD10R,0.600000X2.450000*%
%ADD11R,0.300000X2.450000*%
%ADD12O,1.000000X2.100000*%
%ADD13O,1.000000X1.600000*%
%ADD14R,1.500000X1.500000*%
%ADD15O,1.700000X1.700000*%
%ADD16R,1.700000X1.700000*%
%ADD17R,1.198880X0.698500*%
%ADD18R,0.698500X1.198880*%
%ADD19C,0.800000*%
%ADD20C,0.250000*%
%ADD21C,0.254000*%
%ADD22C,0.350000*%
%ADD23O,0.600000X1.700000*%
%ADD24O,0.600000X1.200000*%
G04 APERTURE END LIST*
D10*
X82981000Y-100270000D03*
X76531000Y-100270000D03*
X82206000Y-100270000D03*
X77306000Y-100270000D03*
D11*
X78006000Y-100270000D03*
X81506000Y-100270000D03*
X78506000Y-100270000D03*
X81006000Y-100270000D03*
X79006000Y-100270000D03*
X80506000Y-100270000D03*
X80006000Y-100270000D03*
X79506000Y-100270000D03*
D12*
X75436000Y-98855000D03*
X84076000Y-98855000D03*
D13*
X75436000Y-94675000D03*
X84076000Y-94675000D03*
D14*
X83656000Y-105664000D03*
X75856000Y-105664000D03*
D15*
X84328000Y-135382000D03*
X81788000Y-135382000D03*
X79248000Y-135382000D03*
D16*
X76708000Y-135382000D03*
D17*
X71247000Y-112776000D03*
X88773000Y-120396000D03*
X88773000Y-121666000D03*
D18*
X73025000Y-110998000D03*
D17*
X71247000Y-115316000D03*
X71247000Y-116586000D03*
X71247000Y-117856000D03*
X71247000Y-119126000D03*
X71247000Y-120396000D03*
X71247000Y-121666000D03*
X71247000Y-122936000D03*
X71247000Y-124206000D03*
X71247000Y-125476000D03*
X88773000Y-126746000D03*
X88773000Y-125476000D03*
X88773000Y-124206000D03*
X88773000Y-122936000D03*
X88773000Y-119126000D03*
X88773000Y-117856000D03*
X88773000Y-116586000D03*
X88773000Y-115316000D03*
X88773000Y-114046000D03*
X88773000Y-112776000D03*
D18*
X86995000Y-110998000D03*
X85725000Y-110998000D03*
X84455000Y-110998000D03*
X83185000Y-110998000D03*
X81915000Y-110998000D03*
X80645000Y-110998000D03*
X79375000Y-110998000D03*
X78105000Y-110998000D03*
X76835000Y-110998000D03*
X75565000Y-110998000D03*
X74295000Y-110998000D03*
D17*
X71247000Y-126746000D03*
X71247000Y-114046000D03*
D19*
X87630000Y-129032000D03*
X77470000Y-129032000D03*
X69596000Y-129286000D03*
X84320100Y-116111100D03*
X72928400Y-114107500D03*
X89634400Y-102062200D03*
X81467600Y-97469700D03*
X80465200Y-98421600D03*
X84703700Y-108708300D03*
X71422700Y-109823400D03*
X75777300Y-107757000D03*
X76183600Y-96913400D03*
X82903700Y-95948900D03*
X73157000Y-108519900D03*
X83304300Y-109050300D03*
D20*
X86995000Y-111922700D02*
X73025000Y-111922700D01*
X86995000Y-111810100D02*
X86995000Y-111922700D01*
X86995000Y-110998000D02*
X86995000Y-111810100D01*
X86995000Y-111922700D02*
X87848300Y-112776000D01*
X86995000Y-110535600D02*
X86995000Y-110998000D01*
X71247000Y-112776000D02*
X72171700Y-112776000D01*
X73025000Y-111922700D02*
X72171700Y-112776000D01*
X73025000Y-110998000D02*
X73025000Y-111922700D01*
X86995000Y-110535600D02*
X86995000Y-110073300D01*
X86995000Y-110073300D02*
X86995000Y-109966700D01*
X86995000Y-109966700D02*
X83767600Y-106739300D01*
X83767600Y-106739300D02*
X83656000Y-106739300D01*
X83656000Y-105664000D02*
X83656000Y-106739300D01*
X76531000Y-101820300D02*
X77473400Y-102762700D01*
X77473400Y-102762700D02*
X82906800Y-102762700D01*
X82906800Y-102762700D02*
X83656000Y-103511900D01*
X83656000Y-103511900D02*
X83656000Y-105664000D01*
X75436000Y-98855000D02*
X75436000Y-100230300D01*
X75436000Y-100230300D02*
X76491300Y-100230300D01*
X76491300Y-100230300D02*
X76531000Y-100270000D01*
X75436000Y-94675000D02*
X75436000Y-98855000D01*
X79248000Y-135382000D02*
X79248000Y-128105400D01*
X79248000Y-128105400D02*
X87848300Y-119505100D01*
X87848300Y-119505100D02*
X87848300Y-112776000D01*
X84076000Y-94675000D02*
X84076000Y-95800300D01*
X84076000Y-97479700D02*
X84076000Y-95800300D01*
X84076000Y-98855000D02*
X84076000Y-97479700D01*
X84076000Y-98855000D02*
X84076000Y-100230300D01*
X84076000Y-100230300D02*
X83020700Y-100230300D01*
X83020700Y-100230300D02*
X82981000Y-100270000D01*
X76531000Y-100270000D02*
X76531000Y-101820300D01*
X88773000Y-112776000D02*
X87848300Y-112776000D01*
X72928400Y-114107500D02*
X74932000Y-116111100D01*
X74932000Y-116111100D02*
X84320100Y-116111100D01*
X77306000Y-100270000D02*
X77306000Y-101820300D01*
X77306000Y-101820300D02*
X77777200Y-102291500D01*
X77777200Y-102291500D02*
X81734800Y-102291500D01*
X81734800Y-102291500D02*
X82206000Y-101820300D01*
X89634400Y-102062200D02*
X82447900Y-102062200D01*
X82447900Y-102062200D02*
X82206000Y-101820300D01*
X82206000Y-100270000D02*
X82206000Y-101820300D01*
X76708000Y-135382000D02*
X76708000Y-134206700D01*
X71247000Y-114046000D02*
X72171700Y-114046000D01*
X72171700Y-114046000D02*
X72171700Y-129670400D01*
X72171700Y-129670400D02*
X76708000Y-134206700D01*
X79006000Y-98719700D02*
X80256000Y-97469700D01*
X80256000Y-97469700D02*
X81467600Y-97469700D01*
X79006000Y-100270000D02*
X79006000Y-98719700D01*
X80006000Y-101707700D02*
X79893400Y-101820300D01*
X79893400Y-101820300D02*
X79006000Y-101820300D01*
X80006000Y-100270000D02*
X80006000Y-101707700D01*
X79006000Y-100270000D02*
X79006000Y-101820300D01*
X80506000Y-100270000D02*
X80506000Y-98719700D01*
X80465200Y-98695000D02*
X80465200Y-98421600D01*
X80465200Y-98695000D02*
X80489900Y-98719700D01*
X80489900Y-98719700D02*
X80506000Y-98719700D01*
X79506000Y-100270000D02*
X79506000Y-98925600D01*
X79506000Y-98925600D02*
X79736600Y-98695000D01*
X79736600Y-98695000D02*
X80465200Y-98695000D01*
X88773000Y-120396000D02*
X87848300Y-120396000D01*
X87848300Y-120396000D02*
X81788000Y-126456300D01*
X81788000Y-126456300D02*
X81788000Y-135382000D01*
X84328000Y-134206700D02*
X84328000Y-125186300D01*
X84328000Y-125186300D02*
X87848300Y-121666000D01*
X84328000Y-135382000D02*
X84328000Y-134206700D01*
X88773000Y-121666000D02*
X87848300Y-121666000D01*
X71422700Y-109823400D02*
X83588600Y-109823400D01*
X83588600Y-109823400D02*
X84703700Y-108708300D01*
X70322300Y-121666000D02*
X70322300Y-110923800D01*
X70322300Y-110923800D02*
X71422700Y-109823400D01*
X71247000Y-121666000D02*
X70322300Y-121666000D01*
X70322300Y-122936000D02*
X69871900Y-122485600D01*
X69871900Y-122485600D02*
X69871900Y-110337400D01*
X69871900Y-110337400D02*
X72452300Y-107757000D01*
X72452300Y-107757000D02*
X75777300Y-107757000D01*
X71247000Y-122936000D02*
X70322300Y-122936000D01*
X78506000Y-100270000D02*
X78506000Y-98719700D01*
X78506000Y-98719700D02*
X76699700Y-96913400D01*
X76699700Y-96913400D02*
X76183600Y-96913400D01*
X81506000Y-100270000D02*
X81506000Y-98487000D01*
X81506000Y-98487000D02*
X82903700Y-97089300D01*
X82903700Y-97089300D02*
X82903700Y-95948900D01*
X76507400Y-108139400D02*
X76126900Y-108519900D01*
X76126900Y-108519900D02*
X73157000Y-108519900D01*
X75856000Y-106739300D02*
X76507400Y-107390700D01*
X76507400Y-107390700D02*
X76507400Y-108139400D01*
X76507400Y-108139400D02*
X77418300Y-109050300D01*
X77418300Y-109050300D02*
X83304300Y-109050300D01*
X75856000Y-105664000D02*
X75856000Y-106739300D01*
D21*
G36*
X69331899Y-123025601D02*
G01*
X69360903Y-123049404D01*
X69758496Y-123446997D01*
X69782299Y-123476001D01*
X69898024Y-123570974D01*
X70030053Y-123641546D01*
X70047649Y-123646884D01*
X70021748Y-123732268D01*
X70009488Y-123856750D01*
X70009488Y-124555250D01*
X70021748Y-124679732D01*
X70058058Y-124799430D01*
X70080278Y-124841000D01*
X70058058Y-124882570D01*
X70021748Y-125002268D01*
X70009488Y-125126750D01*
X70009488Y-125825250D01*
X70021748Y-125949732D01*
X70058058Y-126069430D01*
X70080278Y-126111000D01*
X70058058Y-126152570D01*
X70021748Y-126272268D01*
X70009488Y-126396750D01*
X70009488Y-127095250D01*
X70021748Y-127219732D01*
X70058058Y-127339430D01*
X70117023Y-127449744D01*
X70196375Y-127546435D01*
X70293066Y-127625787D01*
X70403380Y-127684752D01*
X70523078Y-127721062D01*
X70647560Y-127733322D01*
X71411701Y-127733322D01*
X71411701Y-129633067D01*
X71408024Y-129670400D01*
X71422698Y-129819385D01*
X71466154Y-129962646D01*
X71536726Y-130094676D01*
X71607901Y-130181402D01*
X71631700Y-130210401D01*
X71660698Y-130234199D01*
X75157498Y-133731000D01*
X71120000Y-133731000D01*
X71095224Y-133733440D01*
X71071399Y-133740667D01*
X71049443Y-133752403D01*
X71030197Y-133768197D01*
X71014403Y-133787443D01*
X71002667Y-133809399D01*
X70995440Y-133833224D01*
X70993000Y-133858000D01*
X70993000Y-136221000D01*
X69265000Y-136221000D01*
X69265000Y-135177353D01*
X69287428Y-135170238D01*
X69344479Y-135145786D01*
X69401894Y-135122121D01*
X69410308Y-135117572D01*
X69627510Y-134998164D01*
X69678757Y-134963074D01*
X69730449Y-134928730D01*
X69737818Y-134922634D01*
X69927691Y-134763312D01*
X69971183Y-134718899D01*
X70015180Y-134675208D01*
X70021226Y-134667797D01*
X70176537Y-134474630D01*
X70210544Y-134422661D01*
X70245251Y-134371206D01*
X70249737Y-134362769D01*
X70249740Y-134362764D01*
X70249742Y-134362759D01*
X70364573Y-134143106D01*
X70387830Y-134085543D01*
X70411888Y-134028312D01*
X70414653Y-134019156D01*
X70484635Y-133781379D01*
X70496275Y-133720362D01*
X70508752Y-133659575D01*
X70509686Y-133650057D01*
X70532150Y-133403217D01*
X70531716Y-133341134D01*
X70532150Y-133279052D01*
X70531217Y-133269534D01*
X70505309Y-133023030D01*
X70492817Y-132962176D01*
X70481190Y-132901226D01*
X70478426Y-132892070D01*
X70405131Y-132655294D01*
X70381082Y-132598084D01*
X70357816Y-132540498D01*
X70353326Y-132532053D01*
X70235438Y-132314023D01*
X70200707Y-132262532D01*
X70166723Y-132210600D01*
X70160679Y-132203188D01*
X70002686Y-132012209D01*
X69958633Y-131968462D01*
X69915194Y-131924104D01*
X69907825Y-131918008D01*
X69715747Y-131761353D01*
X69664044Y-131727002D01*
X69612807Y-131691919D01*
X69604393Y-131687370D01*
X69385546Y-131571007D01*
X69328141Y-131547347D01*
X69271084Y-131522892D01*
X69265000Y-131521009D01*
X69265000Y-122944084D01*
X69331899Y-123025601D01*
X69331899Y-123025601D01*
G37*
X69331899Y-123025601D02*
X69360903Y-123049404D01*
X69758496Y-123446997D01*
X69782299Y-123476001D01*
X69898024Y-123570974D01*
X70030053Y-123641546D01*
X70047649Y-123646884D01*
X70021748Y-123732268D01*
X70009488Y-123856750D01*
X70009488Y-124555250D01*
X70021748Y-124679732D01*
X70058058Y-124799430D01*
X70080278Y-124841000D01*
X70058058Y-124882570D01*
X70021748Y-125002268D01*
X70009488Y-125126750D01*
X70009488Y-125825250D01*
X70021748Y-125949732D01*
X70058058Y-126069430D01*
X70080278Y-126111000D01*
X70058058Y-126152570D01*
X70021748Y-126272268D01*
X70009488Y-126396750D01*
X70009488Y-127095250D01*
X70021748Y-127219732D01*
X70058058Y-127339430D01*
X70117023Y-127449744D01*
X70196375Y-127546435D01*
X70293066Y-127625787D01*
X70403380Y-127684752D01*
X70523078Y-127721062D01*
X70647560Y-127733322D01*
X71411701Y-127733322D01*
X71411701Y-129633067D01*
X71408024Y-129670400D01*
X71422698Y-129819385D01*
X71466154Y-129962646D01*
X71536726Y-130094676D01*
X71607901Y-130181402D01*
X71631700Y-130210401D01*
X71660698Y-130234199D01*
X75157498Y-133731000D01*
X71120000Y-133731000D01*
X71095224Y-133733440D01*
X71071399Y-133740667D01*
X71049443Y-133752403D01*
X71030197Y-133768197D01*
X71014403Y-133787443D01*
X71002667Y-133809399D01*
X70995440Y-133833224D01*
X70993000Y-133858000D01*
X70993000Y-136221000D01*
X69265000Y-136221000D01*
X69265000Y-135177353D01*
X69287428Y-135170238D01*
X69344479Y-135145786D01*
X69401894Y-135122121D01*
X69410308Y-135117572D01*
X69627510Y-134998164D01*
X69678757Y-134963074D01*
X69730449Y-134928730D01*
X69737818Y-134922634D01*
X69927691Y-134763312D01*
X69971183Y-134718899D01*
X70015180Y-134675208D01*
X70021226Y-134667797D01*
X70176537Y-134474630D01*
X70210544Y-134422661D01*
X70245251Y-134371206D01*
X70249737Y-134362769D01*
X70249740Y-134362764D01*
X70249742Y-134362759D01*
X70364573Y-134143106D01*
X70387830Y-134085543D01*
X70411888Y-134028312D01*
X70414653Y-134019156D01*
X70484635Y-133781379D01*
X70496275Y-133720362D01*
X70508752Y-133659575D01*
X70509686Y-133650057D01*
X70532150Y-133403217D01*
X70531716Y-133341134D01*
X70532150Y-133279052D01*
X70531217Y-133269534D01*
X70505309Y-133023030D01*
X70492817Y-132962176D01*
X70481190Y-132901226D01*
X70478426Y-132892070D01*
X70405131Y-132655294D01*
X70381082Y-132598084D01*
X70357816Y-132540498D01*
X70353326Y-132532053D01*
X70235438Y-132314023D01*
X70200707Y-132262532D01*
X70166723Y-132210600D01*
X70160679Y-132203188D01*
X70002686Y-132012209D01*
X69958633Y-131968462D01*
X69915194Y-131924104D01*
X69907825Y-131918008D01*
X69715747Y-131761353D01*
X69664044Y-131727002D01*
X69612807Y-131691919D01*
X69604393Y-131687370D01*
X69385546Y-131571007D01*
X69328141Y-131547347D01*
X69271084Y-131522892D01*
X69265000Y-131521009D01*
X69265000Y-122944084D01*
X69331899Y-123025601D01*
G36*
X74435997Y-93823322D02*
G01*
X74347585Y-94029013D01*
X74301000Y-94248000D01*
X74301000Y-94548000D01*
X75309000Y-94548000D01*
X75309000Y-94528000D01*
X75563000Y-94528000D01*
X75563000Y-94548000D01*
X76571000Y-94548000D01*
X76571000Y-94248000D01*
X76524415Y-94029013D01*
X76436003Y-93823322D01*
X76316152Y-93649000D01*
X83195848Y-93649000D01*
X83075997Y-93823322D01*
X82987585Y-94029013D01*
X82941000Y-94248000D01*
X82941000Y-94548000D01*
X83949000Y-94548000D01*
X83949000Y-94528000D01*
X84203000Y-94528000D01*
X84203000Y-94548000D01*
X85211000Y-94548000D01*
X85211000Y-94248000D01*
X85164415Y-94029013D01*
X85076003Y-93823322D01*
X84956152Y-93649000D01*
X90247001Y-93649000D01*
X90247000Y-94692647D01*
X90224572Y-94699762D01*
X90167521Y-94724214D01*
X90110106Y-94747879D01*
X90101692Y-94752428D01*
X89884490Y-94871836D01*
X89833225Y-94906938D01*
X89781552Y-94941270D01*
X89774182Y-94947366D01*
X89584310Y-95106688D01*
X89540872Y-95151046D01*
X89496820Y-95194791D01*
X89490775Y-95202203D01*
X89335463Y-95395370D01*
X89301444Y-95447357D01*
X89266749Y-95498795D01*
X89262258Y-95507239D01*
X89147427Y-95726894D01*
X89124175Y-95784446D01*
X89100112Y-95841688D01*
X89097348Y-95850844D01*
X89097346Y-95850849D01*
X89097345Y-95850854D01*
X89027365Y-96088620D01*
X89015723Y-96149651D01*
X89003248Y-96210425D01*
X89002314Y-96219943D01*
X88979850Y-96466783D01*
X88980284Y-96528865D01*
X88979850Y-96590948D01*
X88980783Y-96600467D01*
X89006691Y-96846970D01*
X89019183Y-96907824D01*
X89030810Y-96968774D01*
X89033574Y-96977930D01*
X89106869Y-97214707D01*
X89130923Y-97271929D01*
X89154184Y-97329502D01*
X89158674Y-97337947D01*
X89276562Y-97555977D01*
X89311304Y-97607483D01*
X89345277Y-97659400D01*
X89351321Y-97666811D01*
X89509314Y-97857791D01*
X89553387Y-97901557D01*
X89596806Y-97945895D01*
X89604175Y-97951992D01*
X89796253Y-98108647D01*
X89847955Y-98142998D01*
X89899193Y-98178081D01*
X89907606Y-98182630D01*
X90126454Y-98298993D01*
X90183859Y-98322653D01*
X90240916Y-98347108D01*
X90250053Y-98349936D01*
X90251132Y-98350262D01*
X90272566Y-101243825D01*
X90124656Y-101144995D01*
X89936298Y-101066974D01*
X89736339Y-101027200D01*
X89532461Y-101027200D01*
X89332502Y-101066974D01*
X89144144Y-101144995D01*
X88974626Y-101258263D01*
X88930689Y-101302200D01*
X83918441Y-101302200D01*
X83916000Y-100555750D01*
X83823644Y-100463394D01*
X83915668Y-100397002D01*
X83916000Y-100397002D01*
X83916000Y-100396762D01*
X83949000Y-100372954D01*
X83949000Y-98982000D01*
X84203000Y-98982000D01*
X84203000Y-100372954D01*
X84377874Y-100499119D01*
X84600976Y-100419276D01*
X84788764Y-100297369D01*
X84949161Y-100141169D01*
X85076003Y-99956678D01*
X85164415Y-99750987D01*
X85211000Y-99532000D01*
X85211000Y-98982000D01*
X84203000Y-98982000D01*
X83949000Y-98982000D01*
X83929000Y-98982000D01*
X83929000Y-98728000D01*
X83949000Y-98728000D01*
X83949000Y-97337046D01*
X84203000Y-97337046D01*
X84203000Y-98728000D01*
X85211000Y-98728000D01*
X85211000Y-98178000D01*
X85164415Y-97959013D01*
X85076003Y-97753322D01*
X84949161Y-97568831D01*
X84788764Y-97412631D01*
X84600976Y-97290724D01*
X84377874Y-97210881D01*
X84203000Y-97337046D01*
X83949000Y-97337046D01*
X83774126Y-97210881D01*
X83647242Y-97256290D01*
X83652703Y-97238286D01*
X83663700Y-97126633D01*
X83663700Y-97126624D01*
X83667376Y-97089301D01*
X83663700Y-97051978D01*
X83663700Y-96652611D01*
X83707637Y-96608674D01*
X83820905Y-96439156D01*
X83898926Y-96250798D01*
X83938700Y-96050839D01*
X83938700Y-95950385D01*
X83949000Y-95942954D01*
X83949000Y-94802000D01*
X84203000Y-94802000D01*
X84203000Y-95942954D01*
X84377874Y-96069119D01*
X84600976Y-95989276D01*
X84788764Y-95867369D01*
X84949161Y-95711169D01*
X85076003Y-95526678D01*
X85164415Y-95320987D01*
X85211000Y-95102000D01*
X85211000Y-94802000D01*
X84203000Y-94802000D01*
X83949000Y-94802000D01*
X82941000Y-94802000D01*
X82941000Y-94913900D01*
X82801761Y-94913900D01*
X82601802Y-94953674D01*
X82413444Y-95031695D01*
X82243926Y-95144963D01*
X82099763Y-95289126D01*
X81986495Y-95458644D01*
X81908474Y-95647002D01*
X81868700Y-95846961D01*
X81868700Y-96050839D01*
X81908474Y-96250798D01*
X81986495Y-96439156D01*
X82099763Y-96608674D01*
X82143700Y-96652611D01*
X82143700Y-96682089D01*
X82127374Y-96665763D01*
X81957856Y-96552495D01*
X81769498Y-96474474D01*
X81569539Y-96434700D01*
X81365661Y-96434700D01*
X81165702Y-96474474D01*
X80977344Y-96552495D01*
X80807826Y-96665763D01*
X80763889Y-96709700D01*
X80293323Y-96709700D01*
X80256000Y-96706024D01*
X80218677Y-96709700D01*
X80218667Y-96709700D01*
X80107014Y-96720697D01*
X79963753Y-96764154D01*
X79831723Y-96834726D01*
X79764855Y-96889604D01*
X79715999Y-96929699D01*
X79692201Y-96958697D01*
X78756000Y-97894898D01*
X77263504Y-96402403D01*
X77239701Y-96373399D01*
X77123976Y-96278426D01*
X76991947Y-96207854D01*
X76919915Y-96186004D01*
X76843374Y-96109463D01*
X76673856Y-95996195D01*
X76485498Y-95918174D01*
X76285539Y-95878400D01*
X76131772Y-95878400D01*
X76148764Y-95867369D01*
X76309161Y-95711169D01*
X76436003Y-95526678D01*
X76524415Y-95320987D01*
X76571000Y-95102000D01*
X76571000Y-94802000D01*
X75563000Y-94802000D01*
X75563000Y-95942954D01*
X75663986Y-96015811D01*
X75523826Y-96109463D01*
X75379663Y-96253626D01*
X75266395Y-96423144D01*
X75188374Y-96611502D01*
X75148600Y-96811461D01*
X75148600Y-97015339D01*
X75188374Y-97215298D01*
X75208886Y-97264817D01*
X75134126Y-97210881D01*
X74911024Y-97290724D01*
X74723236Y-97412631D01*
X74562839Y-97568831D01*
X74435997Y-97753322D01*
X74347585Y-97959013D01*
X74301000Y-98178000D01*
X74301000Y-98728000D01*
X75309000Y-98728000D01*
X75309000Y-98708000D01*
X75563000Y-98708000D01*
X75563000Y-98728000D01*
X75583000Y-98728000D01*
X75583000Y-98982000D01*
X75563000Y-98982000D01*
X75563000Y-100372954D01*
X75596000Y-100396762D01*
X75596000Y-100397002D01*
X75596332Y-100397002D01*
X75688356Y-100463394D01*
X75596000Y-100555750D01*
X75592928Y-101495000D01*
X75605188Y-101619482D01*
X75641498Y-101739180D01*
X75700463Y-101849494D01*
X75779815Y-101946185D01*
X75876506Y-102025537D01*
X75986820Y-102084502D01*
X76106518Y-102120812D01*
X76231000Y-102133072D01*
X76245250Y-102130000D01*
X76404000Y-101971250D01*
X76404000Y-101697980D01*
X76416498Y-101739180D01*
X76475463Y-101849494D01*
X76554710Y-101946057D01*
X76556998Y-101969286D01*
X76566299Y-101999947D01*
X76600454Y-102112546D01*
X76671026Y-102244576D01*
X76742201Y-102331302D01*
X76766000Y-102360301D01*
X76794998Y-102384099D01*
X77213400Y-102802502D01*
X77237199Y-102831501D01*
X77352924Y-102926474D01*
X77484953Y-102997046D01*
X77628214Y-103040503D01*
X77739867Y-103051500D01*
X77739876Y-103051500D01*
X77777199Y-103055176D01*
X77814522Y-103051500D01*
X81697478Y-103051500D01*
X81734800Y-103055176D01*
X81772122Y-103051500D01*
X81772133Y-103051500D01*
X81883786Y-103040503D01*
X82027047Y-102997046D01*
X82159076Y-102926474D01*
X82274801Y-102831501D01*
X82292945Y-102809392D01*
X82298914Y-102811203D01*
X82410567Y-102822200D01*
X82410576Y-102822200D01*
X82447899Y-102825876D01*
X82485222Y-102822200D01*
X88930689Y-102822200D01*
X88974626Y-102866137D01*
X89144144Y-102979405D01*
X89332502Y-103057426D01*
X89532461Y-103097200D01*
X89736339Y-103097200D01*
X89936298Y-103057426D01*
X90124656Y-102979405D01*
X90284630Y-102872514D01*
X90496863Y-131523960D01*
X90478572Y-131529762D01*
X90421521Y-131554214D01*
X90364106Y-131577879D01*
X90355692Y-131582428D01*
X90138490Y-131701836D01*
X90087225Y-131736938D01*
X90035552Y-131771270D01*
X90028182Y-131777366D01*
X89838310Y-131936688D01*
X89794872Y-131981046D01*
X89750820Y-132024791D01*
X89744775Y-132032203D01*
X89589463Y-132225370D01*
X89555444Y-132277357D01*
X89520749Y-132328795D01*
X89516258Y-132337239D01*
X89401427Y-132556894D01*
X89378175Y-132614446D01*
X89354112Y-132671688D01*
X89351348Y-132680844D01*
X89351346Y-132680849D01*
X89351345Y-132680854D01*
X89281365Y-132918620D01*
X89269723Y-132979651D01*
X89257248Y-133040425D01*
X89256314Y-133049943D01*
X89233850Y-133296783D01*
X89234284Y-133358865D01*
X89233850Y-133420948D01*
X89234783Y-133430467D01*
X89260691Y-133676970D01*
X89273183Y-133737824D01*
X89284810Y-133798774D01*
X89287574Y-133807930D01*
X89360869Y-134044707D01*
X89384923Y-134101929D01*
X89408184Y-134159502D01*
X89412674Y-134167947D01*
X89530562Y-134385977D01*
X89565304Y-134437483D01*
X89599277Y-134489400D01*
X89605321Y-134496811D01*
X89763314Y-134687791D01*
X89807387Y-134731557D01*
X89850806Y-134775895D01*
X89858175Y-134781992D01*
X90050253Y-134938647D01*
X90101955Y-134972998D01*
X90153193Y-135008081D01*
X90161606Y-135012630D01*
X90380454Y-135128993D01*
X90437859Y-135152653D01*
X90494916Y-135177108D01*
X90501000Y-135178991D01*
X90501001Y-136221000D01*
X89027000Y-136221000D01*
X89027000Y-133858000D01*
X89024560Y-133833224D01*
X89017333Y-133809399D01*
X89005597Y-133787443D01*
X88989803Y-133768197D01*
X88970557Y-133752403D01*
X88948601Y-133740667D01*
X88924776Y-133733440D01*
X88900000Y-133731000D01*
X85088000Y-133731000D01*
X85088000Y-125501101D01*
X87535488Y-123053614D01*
X87535488Y-123285250D01*
X87547748Y-123409732D01*
X87584058Y-123529430D01*
X87606278Y-123571000D01*
X87584058Y-123612570D01*
X87547748Y-123732268D01*
X87535488Y-123856750D01*
X87535488Y-124555250D01*
X87547748Y-124679732D01*
X87584058Y-124799430D01*
X87606278Y-124841000D01*
X87584058Y-124882570D01*
X87547748Y-125002268D01*
X87535488Y-125126750D01*
X87535488Y-125825250D01*
X87547748Y-125949732D01*
X87584058Y-126069430D01*
X87606278Y-126111000D01*
X87584058Y-126152570D01*
X87547748Y-126272268D01*
X87535488Y-126396750D01*
X87535488Y-127095250D01*
X87547748Y-127219732D01*
X87584058Y-127339430D01*
X87643023Y-127449744D01*
X87722375Y-127546435D01*
X87819066Y-127625787D01*
X87929380Y-127684752D01*
X88049078Y-127721062D01*
X88173560Y-127733322D01*
X89372440Y-127733322D01*
X89496922Y-127721062D01*
X89616620Y-127684752D01*
X89726934Y-127625787D01*
X89823625Y-127546435D01*
X89902977Y-127449744D01*
X89961942Y-127339430D01*
X89998252Y-127219732D01*
X90010512Y-127095250D01*
X90010512Y-126396750D01*
X89998252Y-126272268D01*
X89961942Y-126152570D01*
X89939722Y-126111000D01*
X89961942Y-126069430D01*
X89998252Y-125949732D01*
X90010512Y-125825250D01*
X90010512Y-125126750D01*
X89998252Y-125002268D01*
X89961942Y-124882570D01*
X89939722Y-124841000D01*
X89961942Y-124799430D01*
X89998252Y-124679732D01*
X90010512Y-124555250D01*
X90010512Y-123856750D01*
X89998252Y-123732268D01*
X89961942Y-123612570D01*
X89939722Y-123571000D01*
X89961942Y-123529430D01*
X89998252Y-123409732D01*
X90010512Y-123285250D01*
X90010512Y-122586750D01*
X89998252Y-122462268D01*
X89961942Y-122342570D01*
X89939722Y-122301000D01*
X89961942Y-122259430D01*
X89998252Y-122139732D01*
X90010512Y-122015250D01*
X90010512Y-121316750D01*
X89998252Y-121192268D01*
X89961942Y-121072570D01*
X89939722Y-121031000D01*
X89961942Y-120989430D01*
X89998252Y-120869732D01*
X90010512Y-120745250D01*
X90010512Y-120046750D01*
X89998252Y-119922268D01*
X89961942Y-119802570D01*
X89939722Y-119761000D01*
X89961942Y-119719430D01*
X89998252Y-119599732D01*
X90010512Y-119475250D01*
X90010512Y-118776750D01*
X89998252Y-118652268D01*
X89961942Y-118532570D01*
X89939722Y-118491000D01*
X89961942Y-118449430D01*
X89998252Y-118329732D01*
X90010512Y-118205250D01*
X90010512Y-117506750D01*
X89998252Y-117382268D01*
X89961942Y-117262570D01*
X89939722Y-117221000D01*
X89961942Y-117179430D01*
X89998252Y-117059732D01*
X90010512Y-116935250D01*
X90010512Y-116236750D01*
X89998252Y-116112268D01*
X89961942Y-115992570D01*
X89939722Y-115951000D01*
X89961942Y-115909430D01*
X89998252Y-115789732D01*
X90010512Y-115665250D01*
X90010512Y-114966750D01*
X89998252Y-114842268D01*
X89961942Y-114722570D01*
X89939722Y-114681000D01*
X89961942Y-114639430D01*
X89998252Y-114519732D01*
X90010512Y-114395250D01*
X90010512Y-113696750D01*
X89998252Y-113572268D01*
X89961942Y-113452570D01*
X89939722Y-113411000D01*
X89961942Y-113369430D01*
X89998252Y-113249732D01*
X90010512Y-113125250D01*
X90007440Y-113061750D01*
X89848690Y-112903000D01*
X88900000Y-112903000D01*
X88900000Y-112923000D01*
X88646000Y-112923000D01*
X88646000Y-112903000D01*
X87697310Y-112903000D01*
X87538560Y-113061750D01*
X87535488Y-113125250D01*
X87547748Y-113249732D01*
X87584058Y-113369430D01*
X87606278Y-113411000D01*
X87584058Y-113452570D01*
X87547748Y-113572268D01*
X87535488Y-113696750D01*
X87535488Y-114395250D01*
X87547748Y-114519732D01*
X87584058Y-114639430D01*
X87606278Y-114681000D01*
X87584058Y-114722570D01*
X87547748Y-114842268D01*
X87535488Y-114966750D01*
X87535488Y-115665250D01*
X87547748Y-115789732D01*
X87584058Y-115909430D01*
X87606278Y-115951000D01*
X87584058Y-115992570D01*
X87547748Y-116112268D01*
X87535488Y-116236750D01*
X87535488Y-116935250D01*
X87547748Y-117059732D01*
X87584058Y-117179430D01*
X87606278Y-117221000D01*
X87584058Y-117262570D01*
X87547748Y-117382268D01*
X87535488Y-117506750D01*
X87535488Y-118205250D01*
X87547748Y-118329732D01*
X87584058Y-118449430D01*
X87606278Y-118491000D01*
X87584058Y-118532570D01*
X87547748Y-118652268D01*
X87535488Y-118776750D01*
X87535488Y-119475250D01*
X87547748Y-119599732D01*
X87573649Y-119685116D01*
X87556053Y-119690454D01*
X87424024Y-119761026D01*
X87424022Y-119761027D01*
X87424023Y-119761027D01*
X87337296Y-119832201D01*
X87337292Y-119832205D01*
X87308299Y-119855999D01*
X87284505Y-119884992D01*
X81277003Y-125892496D01*
X81247999Y-125916299D01*
X81192871Y-125983474D01*
X81153026Y-126032024D01*
X81147557Y-126042256D01*
X81082454Y-126164054D01*
X81038997Y-126307315D01*
X81028000Y-126418968D01*
X81028000Y-126418978D01*
X81024324Y-126456300D01*
X81028000Y-126493622D01*
X81028001Y-133731000D01*
X77300772Y-133731000D01*
X77271799Y-133695697D01*
X77248001Y-133666699D01*
X77219003Y-133642901D01*
X72931700Y-129355599D01*
X72931700Y-115185601D01*
X74368201Y-116622103D01*
X74391999Y-116651101D01*
X74507724Y-116746074D01*
X74639753Y-116816646D01*
X74783014Y-116860103D01*
X74894667Y-116871100D01*
X74894676Y-116871100D01*
X74931999Y-116874776D01*
X74969322Y-116871100D01*
X83616389Y-116871100D01*
X83660326Y-116915037D01*
X83829844Y-117028305D01*
X84018202Y-117106326D01*
X84218161Y-117146100D01*
X84422039Y-117146100D01*
X84621998Y-117106326D01*
X84810356Y-117028305D01*
X84979874Y-116915037D01*
X85124037Y-116770874D01*
X85237305Y-116601356D01*
X85315326Y-116412998D01*
X85355100Y-116213039D01*
X85355100Y-116009161D01*
X85315326Y-115809202D01*
X85237305Y-115620844D01*
X85124037Y-115451326D01*
X84979874Y-115307163D01*
X84810356Y-115193895D01*
X84621998Y-115115874D01*
X84422039Y-115076100D01*
X84218161Y-115076100D01*
X84018202Y-115115874D01*
X83829844Y-115193895D01*
X83660326Y-115307163D01*
X83616389Y-115351100D01*
X75246802Y-115351100D01*
X73963400Y-114067699D01*
X73963400Y-114005561D01*
X73923626Y-113805602D01*
X73845605Y-113617244D01*
X73732337Y-113447726D01*
X73588174Y-113303563D01*
X73418656Y-113190295D01*
X73230298Y-113112274D01*
X73030339Y-113072500D01*
X72826461Y-113072500D01*
X72626502Y-113112274D01*
X72479805Y-113173038D01*
X72484512Y-113125250D01*
X72481440Y-113061750D01*
X72322690Y-112903000D01*
X71374000Y-112903000D01*
X71374000Y-112923000D01*
X71120000Y-112923000D01*
X71120000Y-112903000D01*
X71100000Y-112903000D01*
X71100000Y-112649000D01*
X71120000Y-112649000D01*
X71120000Y-111950500D01*
X71374000Y-111950500D01*
X71374000Y-112649000D01*
X72322690Y-112649000D01*
X72481440Y-112490250D01*
X72484512Y-112426750D01*
X72472252Y-112302268D01*
X72437846Y-112188846D01*
X72551268Y-112223252D01*
X72675750Y-112235512D01*
X72739250Y-112232440D01*
X72898000Y-112073690D01*
X72898000Y-111125000D01*
X72199500Y-111125000D01*
X72040750Y-111283750D01*
X72037678Y-111597440D01*
X72049938Y-111721922D01*
X72084344Y-111835344D01*
X71970922Y-111800938D01*
X71846440Y-111788678D01*
X71532750Y-111791750D01*
X71374000Y-111950500D01*
X71120000Y-111950500D01*
X71082300Y-111912800D01*
X71082300Y-111238601D01*
X71462502Y-110858400D01*
X71524639Y-110858400D01*
X71724598Y-110818626D01*
X71912956Y-110740605D01*
X72040195Y-110655587D01*
X72040750Y-110712250D01*
X72199500Y-110871000D01*
X72898000Y-110871000D01*
X72898000Y-110851000D01*
X73152000Y-110851000D01*
X73152000Y-110871000D01*
X73172000Y-110871000D01*
X73172000Y-111125000D01*
X73152000Y-111125000D01*
X73152000Y-112073690D01*
X73310750Y-112232440D01*
X73374250Y-112235512D01*
X73498732Y-112223252D01*
X73618430Y-112186942D01*
X73660000Y-112164722D01*
X73701570Y-112186942D01*
X73821268Y-112223252D01*
X73945750Y-112235512D01*
X74644250Y-112235512D01*
X74768732Y-112223252D01*
X74888430Y-112186942D01*
X74930000Y-112164722D01*
X74971570Y-112186942D01*
X75091268Y-112223252D01*
X75215750Y-112235512D01*
X75914250Y-112235512D01*
X76038732Y-112223252D01*
X76158430Y-112186942D01*
X76200000Y-112164722D01*
X76241570Y-112186942D01*
X76361268Y-112223252D01*
X76485750Y-112235512D01*
X77184250Y-112235512D01*
X77308732Y-112223252D01*
X77428430Y-112186942D01*
X77470000Y-112164722D01*
X77511570Y-112186942D01*
X77631268Y-112223252D01*
X77755750Y-112235512D01*
X78454250Y-112235512D01*
X78578732Y-112223252D01*
X78698430Y-112186942D01*
X78740000Y-112164722D01*
X78781570Y-112186942D01*
X78901268Y-112223252D01*
X79025750Y-112235512D01*
X79724250Y-112235512D01*
X79848732Y-112223252D01*
X79968430Y-112186942D01*
X80010000Y-112164722D01*
X80051570Y-112186942D01*
X80171268Y-112223252D01*
X80295750Y-112235512D01*
X80994250Y-112235512D01*
X81118732Y-112223252D01*
X81238430Y-112186942D01*
X81280000Y-112164722D01*
X81321570Y-112186942D01*
X81441268Y-112223252D01*
X81565750Y-112235512D01*
X82264250Y-112235512D01*
X82388732Y-112223252D01*
X82508430Y-112186942D01*
X82550000Y-112164722D01*
X82591570Y-112186942D01*
X82711268Y-112223252D01*
X82835750Y-112235512D01*
X83534250Y-112235512D01*
X83658732Y-112223252D01*
X83778430Y-112186942D01*
X83820000Y-112164722D01*
X83861570Y-112186942D01*
X83981268Y-112223252D01*
X84105750Y-112235512D01*
X84804250Y-112235512D01*
X84928732Y-112223252D01*
X85048430Y-112186942D01*
X85090000Y-112164722D01*
X85131570Y-112186942D01*
X85251268Y-112223252D01*
X85375750Y-112235512D01*
X86074250Y-112235512D01*
X86198732Y-112223252D01*
X86318430Y-112186942D01*
X86360000Y-112164722D01*
X86401570Y-112186942D01*
X86521268Y-112223252D01*
X86645750Y-112235512D01*
X86709250Y-112232440D01*
X86868000Y-112073690D01*
X86868000Y-111125000D01*
X87122000Y-111125000D01*
X87122000Y-112073690D01*
X87280750Y-112232440D01*
X87344250Y-112235512D01*
X87468732Y-112223252D01*
X87582154Y-112188846D01*
X87547748Y-112302268D01*
X87535488Y-112426750D01*
X87538560Y-112490250D01*
X87697310Y-112649000D01*
X88646000Y-112649000D01*
X88646000Y-111950500D01*
X88900000Y-111950500D01*
X88900000Y-112649000D01*
X89848690Y-112649000D01*
X90007440Y-112490250D01*
X90010512Y-112426750D01*
X89998252Y-112302268D01*
X89961942Y-112182570D01*
X89902977Y-112072256D01*
X89823625Y-111975565D01*
X89726934Y-111896213D01*
X89616620Y-111837248D01*
X89496922Y-111800938D01*
X89372440Y-111788678D01*
X89058750Y-111791750D01*
X88900000Y-111950500D01*
X88646000Y-111950500D01*
X88487250Y-111791750D01*
X88173560Y-111788678D01*
X88049078Y-111800938D01*
X87935656Y-111835344D01*
X87970062Y-111721922D01*
X87982322Y-111597440D01*
X87979250Y-111283750D01*
X87820500Y-111125000D01*
X87122000Y-111125000D01*
X86868000Y-111125000D01*
X86848000Y-111125000D01*
X86848000Y-110871000D01*
X86868000Y-110871000D01*
X86868000Y-109922310D01*
X87122000Y-109922310D01*
X87122000Y-110871000D01*
X87820500Y-110871000D01*
X87979250Y-110712250D01*
X87982322Y-110398560D01*
X87970062Y-110274078D01*
X87933752Y-110154380D01*
X87874787Y-110044066D01*
X87795435Y-109947375D01*
X87698744Y-109868023D01*
X87588430Y-109809058D01*
X87468732Y-109772748D01*
X87344250Y-109760488D01*
X87280750Y-109763560D01*
X87122000Y-109922310D01*
X86868000Y-109922310D01*
X86709250Y-109763560D01*
X86645750Y-109760488D01*
X86521268Y-109772748D01*
X86401570Y-109809058D01*
X86360000Y-109831278D01*
X86318430Y-109809058D01*
X86198732Y-109772748D01*
X86074250Y-109760488D01*
X85375750Y-109760488D01*
X85251268Y-109772748D01*
X85131570Y-109809058D01*
X85090000Y-109831278D01*
X85048430Y-109809058D01*
X84928732Y-109772748D01*
X84804250Y-109760488D01*
X84726314Y-109760488D01*
X84743502Y-109743300D01*
X84805639Y-109743300D01*
X85005598Y-109703526D01*
X85193956Y-109625505D01*
X85363474Y-109512237D01*
X85507637Y-109368074D01*
X85620905Y-109198556D01*
X85698926Y-109010198D01*
X85738700Y-108810239D01*
X85738700Y-108606361D01*
X85698926Y-108406402D01*
X85620905Y-108218044D01*
X85507637Y-108048526D01*
X85363474Y-107904363D01*
X85193956Y-107791095D01*
X85005598Y-107713074D01*
X84805639Y-107673300D01*
X84601761Y-107673300D01*
X84401802Y-107713074D01*
X84213444Y-107791095D01*
X84043926Y-107904363D01*
X83899763Y-108048526D01*
X83828224Y-108155591D01*
X83794556Y-108133095D01*
X83606198Y-108055074D01*
X83406239Y-108015300D01*
X83202361Y-108015300D01*
X83002402Y-108055074D01*
X82814044Y-108133095D01*
X82644526Y-108246363D01*
X82600589Y-108290300D01*
X77733102Y-108290300D01*
X77267400Y-107824599D01*
X77267400Y-107428025D01*
X77271076Y-107390700D01*
X77267400Y-107353375D01*
X77267400Y-107353367D01*
X77256403Y-107241714D01*
X77212946Y-107098453D01*
X77142374Y-106966424D01*
X77058237Y-106863903D01*
X77136537Y-106768494D01*
X77195502Y-106658180D01*
X77231812Y-106538482D01*
X77244072Y-106414000D01*
X82267928Y-106414000D01*
X82280188Y-106538482D01*
X82316498Y-106658180D01*
X82375463Y-106768494D01*
X82454815Y-106865185D01*
X82551506Y-106944537D01*
X82661820Y-107003502D01*
X82781518Y-107039812D01*
X82906000Y-107052072D01*
X83370250Y-107049000D01*
X83529000Y-106890250D01*
X83529000Y-105791000D01*
X83783000Y-105791000D01*
X83783000Y-106890250D01*
X83941750Y-107049000D01*
X84406000Y-107052072D01*
X84530482Y-107039812D01*
X84650180Y-107003502D01*
X84760494Y-106944537D01*
X84857185Y-106865185D01*
X84936537Y-106768494D01*
X84995502Y-106658180D01*
X85031812Y-106538482D01*
X85044072Y-106414000D01*
X85041000Y-105949750D01*
X84882250Y-105791000D01*
X83783000Y-105791000D01*
X83529000Y-105791000D01*
X82429750Y-105791000D01*
X82271000Y-105949750D01*
X82267928Y-106414000D01*
X77244072Y-106414000D01*
X77244072Y-104914000D01*
X82267928Y-104914000D01*
X82271000Y-105378250D01*
X82429750Y-105537000D01*
X83529000Y-105537000D01*
X83529000Y-104437750D01*
X83783000Y-104437750D01*
X83783000Y-105537000D01*
X84882250Y-105537000D01*
X85041000Y-105378250D01*
X85044072Y-104914000D01*
X85031812Y-104789518D01*
X84995502Y-104669820D01*
X84936537Y-104559506D01*
X84857185Y-104462815D01*
X84760494Y-104383463D01*
X84650180Y-104324498D01*
X84530482Y-104288188D01*
X84406000Y-104275928D01*
X83941750Y-104279000D01*
X83783000Y-104437750D01*
X83529000Y-104437750D01*
X83370250Y-104279000D01*
X82906000Y-104275928D01*
X82781518Y-104288188D01*
X82661820Y-104324498D01*
X82551506Y-104383463D01*
X82454815Y-104462815D01*
X82375463Y-104559506D01*
X82316498Y-104669820D01*
X82280188Y-104789518D01*
X82267928Y-104914000D01*
X77244072Y-104914000D01*
X77231812Y-104789518D01*
X77195502Y-104669820D01*
X77136537Y-104559506D01*
X77057185Y-104462815D01*
X76960494Y-104383463D01*
X76850180Y-104324498D01*
X76730482Y-104288188D01*
X76606000Y-104275928D01*
X75106000Y-104275928D01*
X74981518Y-104288188D01*
X74861820Y-104324498D01*
X74751506Y-104383463D01*
X74654815Y-104462815D01*
X74575463Y-104559506D01*
X74516498Y-104669820D01*
X74480188Y-104789518D01*
X74467928Y-104914000D01*
X74467928Y-106414000D01*
X74480188Y-106538482D01*
X74516498Y-106658180D01*
X74575463Y-106768494D01*
X74654815Y-106865185D01*
X74751506Y-106944537D01*
X74849656Y-106997000D01*
X72489625Y-106997000D01*
X72452300Y-106993324D01*
X72414975Y-106997000D01*
X72414967Y-106997000D01*
X72303314Y-107007997D01*
X72160053Y-107051454D01*
X72028024Y-107122026D01*
X71912299Y-107216999D01*
X71888501Y-107245997D01*
X69360898Y-109773601D01*
X69331900Y-109797399D01*
X69308102Y-109826397D01*
X69308101Y-109826398D01*
X69265000Y-109878916D01*
X69265000Y-98982000D01*
X74301000Y-98982000D01*
X74301000Y-99532000D01*
X74347585Y-99750987D01*
X74435997Y-99956678D01*
X74562839Y-100141169D01*
X74723236Y-100297369D01*
X74911024Y-100419276D01*
X75134126Y-100499119D01*
X75309000Y-100372954D01*
X75309000Y-98982000D01*
X74301000Y-98982000D01*
X69265000Y-98982000D01*
X69265000Y-98347353D01*
X69287428Y-98340238D01*
X69344479Y-98315786D01*
X69401894Y-98292121D01*
X69410308Y-98287572D01*
X69627510Y-98168164D01*
X69678757Y-98133074D01*
X69730449Y-98098730D01*
X69737818Y-98092634D01*
X69927691Y-97933312D01*
X69971183Y-97888899D01*
X70015180Y-97845208D01*
X70021226Y-97837797D01*
X70176537Y-97644630D01*
X70210544Y-97592661D01*
X70245251Y-97541206D01*
X70249737Y-97532769D01*
X70249740Y-97532764D01*
X70249742Y-97532759D01*
X70364573Y-97313106D01*
X70387830Y-97255543D01*
X70411888Y-97198312D01*
X70414653Y-97189156D01*
X70484635Y-96951379D01*
X70496275Y-96890362D01*
X70508752Y-96829575D01*
X70509686Y-96820057D01*
X70532150Y-96573217D01*
X70531716Y-96511134D01*
X70532150Y-96449052D01*
X70531217Y-96439534D01*
X70505309Y-96193030D01*
X70492817Y-96132176D01*
X70481190Y-96071226D01*
X70478426Y-96062070D01*
X70405131Y-95825294D01*
X70381082Y-95768084D01*
X70357816Y-95710498D01*
X70353326Y-95702053D01*
X70235438Y-95484023D01*
X70200707Y-95432532D01*
X70166723Y-95380600D01*
X70160679Y-95373188D01*
X70002686Y-95182209D01*
X69958633Y-95138462D01*
X69915194Y-95094104D01*
X69907825Y-95088008D01*
X69715747Y-94931353D01*
X69664044Y-94897002D01*
X69612807Y-94861919D01*
X69604393Y-94857370D01*
X69500258Y-94802000D01*
X74301000Y-94802000D01*
X74301000Y-95102000D01*
X74347585Y-95320987D01*
X74435997Y-95526678D01*
X74562839Y-95711169D01*
X74723236Y-95867369D01*
X74911024Y-95989276D01*
X75134126Y-96069119D01*
X75309000Y-95942954D01*
X75309000Y-94802000D01*
X74301000Y-94802000D01*
X69500258Y-94802000D01*
X69385546Y-94741007D01*
X69328141Y-94717347D01*
X69271084Y-94692892D01*
X69265000Y-94691009D01*
X69265000Y-93649000D01*
X74555848Y-93649000D01*
X74435997Y-93823322D01*
X74435997Y-93823322D01*
G37*
X74435997Y-93823322D02*
X74347585Y-94029013D01*
X74301000Y-94248000D01*
X74301000Y-94548000D01*
X75309000Y-94548000D01*
X75309000Y-94528000D01*
X75563000Y-94528000D01*
X75563000Y-94548000D01*
X76571000Y-94548000D01*
X76571000Y-94248000D01*
X76524415Y-94029013D01*
X76436003Y-93823322D01*
X76316152Y-93649000D01*
X83195848Y-93649000D01*
X83075997Y-93823322D01*
X82987585Y-94029013D01*
X82941000Y-94248000D01*
X82941000Y-94548000D01*
X83949000Y-94548000D01*
X83949000Y-94528000D01*
X84203000Y-94528000D01*
X84203000Y-94548000D01*
X85211000Y-94548000D01*
X85211000Y-94248000D01*
X85164415Y-94029013D01*
X85076003Y-93823322D01*
X84956152Y-93649000D01*
X90247001Y-93649000D01*
X90247000Y-94692647D01*
X90224572Y-94699762D01*
X90167521Y-94724214D01*
X90110106Y-94747879D01*
X90101692Y-94752428D01*
X89884490Y-94871836D01*
X89833225Y-94906938D01*
X89781552Y-94941270D01*
X89774182Y-94947366D01*
X89584310Y-95106688D01*
X89540872Y-95151046D01*
X89496820Y-95194791D01*
X89490775Y-95202203D01*
X89335463Y-95395370D01*
X89301444Y-95447357D01*
X89266749Y-95498795D01*
X89262258Y-95507239D01*
X89147427Y-95726894D01*
X89124175Y-95784446D01*
X89100112Y-95841688D01*
X89097348Y-95850844D01*
X89097346Y-95850849D01*
X89097345Y-95850854D01*
X89027365Y-96088620D01*
X89015723Y-96149651D01*
X89003248Y-96210425D01*
X89002314Y-96219943D01*
X88979850Y-96466783D01*
X88980284Y-96528865D01*
X88979850Y-96590948D01*
X88980783Y-96600467D01*
X89006691Y-96846970D01*
X89019183Y-96907824D01*
X89030810Y-96968774D01*
X89033574Y-96977930D01*
X89106869Y-97214707D01*
X89130923Y-97271929D01*
X89154184Y-97329502D01*
X89158674Y-97337947D01*
X89276562Y-97555977D01*
X89311304Y-97607483D01*
X89345277Y-97659400D01*
X89351321Y-97666811D01*
X89509314Y-97857791D01*
X89553387Y-97901557D01*
X89596806Y-97945895D01*
X89604175Y-97951992D01*
X89796253Y-98108647D01*
X89847955Y-98142998D01*
X89899193Y-98178081D01*
X89907606Y-98182630D01*
X90126454Y-98298993D01*
X90183859Y-98322653D01*
X90240916Y-98347108D01*
X90250053Y-98349936D01*
X90251132Y-98350262D01*
X90272566Y-101243825D01*
X90124656Y-101144995D01*
X89936298Y-101066974D01*
X89736339Y-101027200D01*
X89532461Y-101027200D01*
X89332502Y-101066974D01*
X89144144Y-101144995D01*
X88974626Y-101258263D01*
X88930689Y-101302200D01*
X83918441Y-101302200D01*
X83916000Y-100555750D01*
X83823644Y-100463394D01*
X83915668Y-100397002D01*
X83916000Y-100397002D01*
X83916000Y-100396762D01*
X83949000Y-100372954D01*
X83949000Y-98982000D01*
X84203000Y-98982000D01*
X84203000Y-100372954D01*
X84377874Y-100499119D01*
X84600976Y-100419276D01*
X84788764Y-100297369D01*
X84949161Y-100141169D01*
X85076003Y-99956678D01*
X85164415Y-99750987D01*
X85211000Y-99532000D01*
X85211000Y-98982000D01*
X84203000Y-98982000D01*
X83949000Y-98982000D01*
X83929000Y-98982000D01*
X83929000Y-98728000D01*
X83949000Y-98728000D01*
X83949000Y-97337046D01*
X84203000Y-97337046D01*
X84203000Y-98728000D01*
X85211000Y-98728000D01*
X85211000Y-98178000D01*
X85164415Y-97959013D01*
X85076003Y-97753322D01*
X84949161Y-97568831D01*
X84788764Y-97412631D01*
X84600976Y-97290724D01*
X84377874Y-97210881D01*
X84203000Y-97337046D01*
X83949000Y-97337046D01*
X83774126Y-97210881D01*
X83647242Y-97256290D01*
X83652703Y-97238286D01*
X83663700Y-97126633D01*
X83663700Y-97126624D01*
X83667376Y-97089301D01*
X83663700Y-97051978D01*
X83663700Y-96652611D01*
X83707637Y-96608674D01*
X83820905Y-96439156D01*
X83898926Y-96250798D01*
X83938700Y-96050839D01*
X83938700Y-95950385D01*
X83949000Y-95942954D01*
X83949000Y-94802000D01*
X84203000Y-94802000D01*
X84203000Y-95942954D01*
X84377874Y-96069119D01*
X84600976Y-95989276D01*
X84788764Y-95867369D01*
X84949161Y-95711169D01*
X85076003Y-95526678D01*
X85164415Y-95320987D01*
X85211000Y-95102000D01*
X85211000Y-94802000D01*
X84203000Y-94802000D01*
X83949000Y-94802000D01*
X82941000Y-94802000D01*
X82941000Y-94913900D01*
X82801761Y-94913900D01*
X82601802Y-94953674D01*
X82413444Y-95031695D01*
X82243926Y-95144963D01*
X82099763Y-95289126D01*
X81986495Y-95458644D01*
X81908474Y-95647002D01*
X81868700Y-95846961D01*
X81868700Y-96050839D01*
X81908474Y-96250798D01*
X81986495Y-96439156D01*
X82099763Y-96608674D01*
X82143700Y-96652611D01*
X82143700Y-96682089D01*
X82127374Y-96665763D01*
X81957856Y-96552495D01*
X81769498Y-96474474D01*
X81569539Y-96434700D01*
X81365661Y-96434700D01*
X81165702Y-96474474D01*
X80977344Y-96552495D01*
X80807826Y-96665763D01*
X80763889Y-96709700D01*
X80293323Y-96709700D01*
X80256000Y-96706024D01*
X80218677Y-96709700D01*
X80218667Y-96709700D01*
X80107014Y-96720697D01*
X79963753Y-96764154D01*
X79831723Y-96834726D01*
X79764855Y-96889604D01*
X79715999Y-96929699D01*
X79692201Y-96958697D01*
X78756000Y-97894898D01*
X77263504Y-96402403D01*
X77239701Y-96373399D01*
X77123976Y-96278426D01*
X76991947Y-96207854D01*
X76919915Y-96186004D01*
X76843374Y-96109463D01*
X76673856Y-95996195D01*
X76485498Y-95918174D01*
X76285539Y-95878400D01*
X76131772Y-95878400D01*
X76148764Y-95867369D01*
X76309161Y-95711169D01*
X76436003Y-95526678D01*
X76524415Y-95320987D01*
X76571000Y-95102000D01*
X76571000Y-94802000D01*
X75563000Y-94802000D01*
X75563000Y-95942954D01*
X75663986Y-96015811D01*
X75523826Y-96109463D01*
X75379663Y-96253626D01*
X75266395Y-96423144D01*
X75188374Y-96611502D01*
X75148600Y-96811461D01*
X75148600Y-97015339D01*
X75188374Y-97215298D01*
X75208886Y-97264817D01*
X75134126Y-97210881D01*
X74911024Y-97290724D01*
X74723236Y-97412631D01*
X74562839Y-97568831D01*
X74435997Y-97753322D01*
X74347585Y-97959013D01*
X74301000Y-98178000D01*
X74301000Y-98728000D01*
X75309000Y-98728000D01*
X75309000Y-98708000D01*
X75563000Y-98708000D01*
X75563000Y-98728000D01*
X75583000Y-98728000D01*
X75583000Y-98982000D01*
X75563000Y-98982000D01*
X75563000Y-100372954D01*
X75596000Y-100396762D01*
X75596000Y-100397002D01*
X75596332Y-100397002D01*
X75688356Y-100463394D01*
X75596000Y-100555750D01*
X75592928Y-101495000D01*
X75605188Y-101619482D01*
X75641498Y-101739180D01*
X75700463Y-101849494D01*
X75779815Y-101946185D01*
X75876506Y-102025537D01*
X75986820Y-102084502D01*
X76106518Y-102120812D01*
X76231000Y-102133072D01*
X76245250Y-102130000D01*
X76404000Y-101971250D01*
X76404000Y-101697980D01*
X76416498Y-101739180D01*
X76475463Y-101849494D01*
X76554710Y-101946057D01*
X76556998Y-101969286D01*
X76566299Y-101999947D01*
X76600454Y-102112546D01*
X76671026Y-102244576D01*
X76742201Y-102331302D01*
X76766000Y-102360301D01*
X76794998Y-102384099D01*
X77213400Y-102802502D01*
X77237199Y-102831501D01*
X77352924Y-102926474D01*
X77484953Y-102997046D01*
X77628214Y-103040503D01*
X77739867Y-103051500D01*
X77739876Y-103051500D01*
X77777199Y-103055176D01*
X77814522Y-103051500D01*
X81697478Y-103051500D01*
X81734800Y-103055176D01*
X81772122Y-103051500D01*
X81772133Y-103051500D01*
X81883786Y-103040503D01*
X82027047Y-102997046D01*
X82159076Y-102926474D01*
X82274801Y-102831501D01*
X82292945Y-102809392D01*
X82298914Y-102811203D01*
X82410567Y-102822200D01*
X82410576Y-102822200D01*
X82447899Y-102825876D01*
X82485222Y-102822200D01*
X88930689Y-102822200D01*
X88974626Y-102866137D01*
X89144144Y-102979405D01*
X89332502Y-103057426D01*
X89532461Y-103097200D01*
X89736339Y-103097200D01*
X89936298Y-103057426D01*
X90124656Y-102979405D01*
X90284630Y-102872514D01*
X90496863Y-131523960D01*
X90478572Y-131529762D01*
X90421521Y-131554214D01*
X90364106Y-131577879D01*
X90355692Y-131582428D01*
X90138490Y-131701836D01*
X90087225Y-131736938D01*
X90035552Y-131771270D01*
X90028182Y-131777366D01*
X89838310Y-131936688D01*
X89794872Y-131981046D01*
X89750820Y-132024791D01*
X89744775Y-132032203D01*
X89589463Y-132225370D01*
X89555444Y-132277357D01*
X89520749Y-132328795D01*
X89516258Y-132337239D01*
X89401427Y-132556894D01*
X89378175Y-132614446D01*
X89354112Y-132671688D01*
X89351348Y-132680844D01*
X89351346Y-132680849D01*
X89351345Y-132680854D01*
X89281365Y-132918620D01*
X89269723Y-132979651D01*
X89257248Y-133040425D01*
X89256314Y-133049943D01*
X89233850Y-133296783D01*
X89234284Y-133358865D01*
X89233850Y-133420948D01*
X89234783Y-133430467D01*
X89260691Y-133676970D01*
X89273183Y-133737824D01*
X89284810Y-133798774D01*
X89287574Y-133807930D01*
X89360869Y-134044707D01*
X89384923Y-134101929D01*
X89408184Y-134159502D01*
X89412674Y-134167947D01*
X89530562Y-134385977D01*
X89565304Y-134437483D01*
X89599277Y-134489400D01*
X89605321Y-134496811D01*
X89763314Y-134687791D01*
X89807387Y-134731557D01*
X89850806Y-134775895D01*
X89858175Y-134781992D01*
X90050253Y-134938647D01*
X90101955Y-134972998D01*
X90153193Y-135008081D01*
X90161606Y-135012630D01*
X90380454Y-135128993D01*
X90437859Y-135152653D01*
X90494916Y-135177108D01*
X90501000Y-135178991D01*
X90501001Y-136221000D01*
X89027000Y-136221000D01*
X89027000Y-133858000D01*
X89024560Y-133833224D01*
X89017333Y-133809399D01*
X89005597Y-133787443D01*
X88989803Y-133768197D01*
X88970557Y-133752403D01*
X88948601Y-133740667D01*
X88924776Y-133733440D01*
X88900000Y-133731000D01*
X85088000Y-133731000D01*
X85088000Y-125501101D01*
X87535488Y-123053614D01*
X87535488Y-123285250D01*
X87547748Y-123409732D01*
X87584058Y-123529430D01*
X87606278Y-123571000D01*
X87584058Y-123612570D01*
X87547748Y-123732268D01*
X87535488Y-123856750D01*
X87535488Y-124555250D01*
X87547748Y-124679732D01*
X87584058Y-124799430D01*
X87606278Y-124841000D01*
X87584058Y-124882570D01*
X87547748Y-125002268D01*
X87535488Y-125126750D01*
X87535488Y-125825250D01*
X87547748Y-125949732D01*
X87584058Y-126069430D01*
X87606278Y-126111000D01*
X87584058Y-126152570D01*
X87547748Y-126272268D01*
X87535488Y-126396750D01*
X87535488Y-127095250D01*
X87547748Y-127219732D01*
X87584058Y-127339430D01*
X87643023Y-127449744D01*
X87722375Y-127546435D01*
X87819066Y-127625787D01*
X87929380Y-127684752D01*
X88049078Y-127721062D01*
X88173560Y-127733322D01*
X89372440Y-127733322D01*
X89496922Y-127721062D01*
X89616620Y-127684752D01*
X89726934Y-127625787D01*
X89823625Y-127546435D01*
X89902977Y-127449744D01*
X89961942Y-127339430D01*
X89998252Y-127219732D01*
X90010512Y-127095250D01*
X90010512Y-126396750D01*
X89998252Y-126272268D01*
X89961942Y-126152570D01*
X89939722Y-126111000D01*
X89961942Y-126069430D01*
X89998252Y-125949732D01*
X90010512Y-125825250D01*
X90010512Y-125126750D01*
X89998252Y-125002268D01*
X89961942Y-124882570D01*
X89939722Y-124841000D01*
X89961942Y-124799430D01*
X89998252Y-124679732D01*
X90010512Y-124555250D01*
X90010512Y-123856750D01*
X89998252Y-123732268D01*
X89961942Y-123612570D01*
X89939722Y-123571000D01*
X89961942Y-123529430D01*
X89998252Y-123409732D01*
X90010512Y-123285250D01*
X90010512Y-122586750D01*
X89998252Y-122462268D01*
X89961942Y-122342570D01*
X89939722Y-122301000D01*
X89961942Y-122259430D01*
X89998252Y-122139732D01*
X90010512Y-122015250D01*
X90010512Y-121316750D01*
X89998252Y-121192268D01*
X89961942Y-121072570D01*
X89939722Y-121031000D01*
X89961942Y-120989430D01*
X89998252Y-120869732D01*
X90010512Y-120745250D01*
X90010512Y-120046750D01*
X89998252Y-119922268D01*
X89961942Y-119802570D01*
X89939722Y-119761000D01*
X89961942Y-119719430D01*
X89998252Y-119599732D01*
X90010512Y-119475250D01*
X90010512Y-118776750D01*
X89998252Y-118652268D01*
X89961942Y-118532570D01*
X89939722Y-118491000D01*
X89961942Y-118449430D01*
X89998252Y-118329732D01*
X90010512Y-118205250D01*
X90010512Y-117506750D01*
X89998252Y-117382268D01*
X89961942Y-117262570D01*
X89939722Y-117221000D01*
X89961942Y-117179430D01*
X89998252Y-117059732D01*
X90010512Y-116935250D01*
X90010512Y-116236750D01*
X89998252Y-116112268D01*
X89961942Y-115992570D01*
X89939722Y-115951000D01*
X89961942Y-115909430D01*
X89998252Y-115789732D01*
X90010512Y-115665250D01*
X90010512Y-114966750D01*
X89998252Y-114842268D01*
X89961942Y-114722570D01*
X89939722Y-114681000D01*
X89961942Y-114639430D01*
X89998252Y-114519732D01*
X90010512Y-114395250D01*
X90010512Y-113696750D01*
X89998252Y-113572268D01*
X89961942Y-113452570D01*
X89939722Y-113411000D01*
X89961942Y-113369430D01*
X89998252Y-113249732D01*
X90010512Y-113125250D01*
X90007440Y-113061750D01*
X89848690Y-112903000D01*
X88900000Y-112903000D01*
X88900000Y-112923000D01*
X88646000Y-112923000D01*
X88646000Y-112903000D01*
X87697310Y-112903000D01*
X87538560Y-113061750D01*
X87535488Y-113125250D01*
X87547748Y-113249732D01*
X87584058Y-113369430D01*
X87606278Y-113411000D01*
X87584058Y-113452570D01*
X87547748Y-113572268D01*
X87535488Y-113696750D01*
X87535488Y-114395250D01*
X87547748Y-114519732D01*
X87584058Y-114639430D01*
X87606278Y-114681000D01*
X87584058Y-114722570D01*
X87547748Y-114842268D01*
X87535488Y-114966750D01*
X87535488Y-115665250D01*
X87547748Y-115789732D01*
X87584058Y-115909430D01*
X87606278Y-115951000D01*
X87584058Y-115992570D01*
X87547748Y-116112268D01*
X87535488Y-116236750D01*
X87535488Y-116935250D01*
X87547748Y-117059732D01*
X87584058Y-117179430D01*
X87606278Y-117221000D01*
X87584058Y-117262570D01*
X87547748Y-117382268D01*
X87535488Y-117506750D01*
X87535488Y-118205250D01*
X87547748Y-118329732D01*
X87584058Y-118449430D01*
X87606278Y-118491000D01*
X87584058Y-118532570D01*
X87547748Y-118652268D01*
X87535488Y-118776750D01*
X87535488Y-119475250D01*
X87547748Y-119599732D01*
X87573649Y-119685116D01*
X87556053Y-119690454D01*
X87424024Y-119761026D01*
X87424022Y-119761027D01*
X87424023Y-119761027D01*
X87337296Y-119832201D01*
X87337292Y-119832205D01*
X87308299Y-119855999D01*
X87284505Y-119884992D01*
X81277003Y-125892496D01*
X81247999Y-125916299D01*
X81192871Y-125983474D01*
X81153026Y-126032024D01*
X81147557Y-126042256D01*
X81082454Y-126164054D01*
X81038997Y-126307315D01*
X81028000Y-126418968D01*
X81028000Y-126418978D01*
X81024324Y-126456300D01*
X81028000Y-126493622D01*
X81028001Y-133731000D01*
X77300772Y-133731000D01*
X77271799Y-133695697D01*
X77248001Y-133666699D01*
X77219003Y-133642901D01*
X72931700Y-129355599D01*
X72931700Y-115185601D01*
X74368201Y-116622103D01*
X74391999Y-116651101D01*
X74507724Y-116746074D01*
X74639753Y-116816646D01*
X74783014Y-116860103D01*
X74894667Y-116871100D01*
X74894676Y-116871100D01*
X74931999Y-116874776D01*
X74969322Y-116871100D01*
X83616389Y-116871100D01*
X83660326Y-116915037D01*
X83829844Y-117028305D01*
X84018202Y-117106326D01*
X84218161Y-117146100D01*
X84422039Y-117146100D01*
X84621998Y-117106326D01*
X84810356Y-117028305D01*
X84979874Y-116915037D01*
X85124037Y-116770874D01*
X85237305Y-116601356D01*
X85315326Y-116412998D01*
X85355100Y-116213039D01*
X85355100Y-116009161D01*
X85315326Y-115809202D01*
X85237305Y-115620844D01*
X85124037Y-115451326D01*
X84979874Y-115307163D01*
X84810356Y-115193895D01*
X84621998Y-115115874D01*
X84422039Y-115076100D01*
X84218161Y-115076100D01*
X84018202Y-115115874D01*
X83829844Y-115193895D01*
X83660326Y-115307163D01*
X83616389Y-115351100D01*
X75246802Y-115351100D01*
X73963400Y-114067699D01*
X73963400Y-114005561D01*
X73923626Y-113805602D01*
X73845605Y-113617244D01*
X73732337Y-113447726D01*
X73588174Y-113303563D01*
X73418656Y-113190295D01*
X73230298Y-113112274D01*
X73030339Y-113072500D01*
X72826461Y-113072500D01*
X72626502Y-113112274D01*
X72479805Y-113173038D01*
X72484512Y-113125250D01*
X72481440Y-113061750D01*
X72322690Y-112903000D01*
X71374000Y-112903000D01*
X71374000Y-112923000D01*
X71120000Y-112923000D01*
X71120000Y-112903000D01*
X71100000Y-112903000D01*
X71100000Y-112649000D01*
X71120000Y-112649000D01*
X71120000Y-111950500D01*
X71374000Y-111950500D01*
X71374000Y-112649000D01*
X72322690Y-112649000D01*
X72481440Y-112490250D01*
X72484512Y-112426750D01*
X72472252Y-112302268D01*
X72437846Y-112188846D01*
X72551268Y-112223252D01*
X72675750Y-112235512D01*
X72739250Y-112232440D01*
X72898000Y-112073690D01*
X72898000Y-111125000D01*
X72199500Y-111125000D01*
X72040750Y-111283750D01*
X72037678Y-111597440D01*
X72049938Y-111721922D01*
X72084344Y-111835344D01*
X71970922Y-111800938D01*
X71846440Y-111788678D01*
X71532750Y-111791750D01*
X71374000Y-111950500D01*
X71120000Y-111950500D01*
X71082300Y-111912800D01*
X71082300Y-111238601D01*
X71462502Y-110858400D01*
X71524639Y-110858400D01*
X71724598Y-110818626D01*
X71912956Y-110740605D01*
X72040195Y-110655587D01*
X72040750Y-110712250D01*
X72199500Y-110871000D01*
X72898000Y-110871000D01*
X72898000Y-110851000D01*
X73152000Y-110851000D01*
X73152000Y-110871000D01*
X73172000Y-110871000D01*
X73172000Y-111125000D01*
X73152000Y-111125000D01*
X73152000Y-112073690D01*
X73310750Y-112232440D01*
X73374250Y-112235512D01*
X73498732Y-112223252D01*
X73618430Y-112186942D01*
X73660000Y-112164722D01*
X73701570Y-112186942D01*
X73821268Y-112223252D01*
X73945750Y-112235512D01*
X74644250Y-112235512D01*
X74768732Y-112223252D01*
X74888430Y-112186942D01*
X74930000Y-112164722D01*
X74971570Y-112186942D01*
X75091268Y-112223252D01*
X75215750Y-112235512D01*
X75914250Y-112235512D01*
X76038732Y-112223252D01*
X76158430Y-112186942D01*
X76200000Y-112164722D01*
X76241570Y-112186942D01*
X76361268Y-112223252D01*
X76485750Y-112235512D01*
X77184250Y-112235512D01*
X77308732Y-112223252D01*
X77428430Y-112186942D01*
X77470000Y-112164722D01*
X77511570Y-112186942D01*
X77631268Y-112223252D01*
X77755750Y-112235512D01*
X78454250Y-112235512D01*
X78578732Y-112223252D01*
X78698430Y-112186942D01*
X78740000Y-112164722D01*
X78781570Y-112186942D01*
X78901268Y-112223252D01*
X79025750Y-112235512D01*
X79724250Y-112235512D01*
X79848732Y-112223252D01*
X79968430Y-112186942D01*
X80010000Y-112164722D01*
X80051570Y-112186942D01*
X80171268Y-112223252D01*
X80295750Y-112235512D01*
X80994250Y-112235512D01*
X81118732Y-112223252D01*
X81238430Y-112186942D01*
X81280000Y-112164722D01*
X81321570Y-112186942D01*
X81441268Y-112223252D01*
X81565750Y-112235512D01*
X82264250Y-112235512D01*
X82388732Y-112223252D01*
X82508430Y-112186942D01*
X82550000Y-112164722D01*
X82591570Y-112186942D01*
X82711268Y-112223252D01*
X82835750Y-112235512D01*
X83534250Y-112235512D01*
X83658732Y-112223252D01*
X83778430Y-112186942D01*
X83820000Y-112164722D01*
X83861570Y-112186942D01*
X83981268Y-112223252D01*
X84105750Y-112235512D01*
X84804250Y-112235512D01*
X84928732Y-112223252D01*
X85048430Y-112186942D01*
X85090000Y-112164722D01*
X85131570Y-112186942D01*
X85251268Y-112223252D01*
X85375750Y-112235512D01*
X86074250Y-112235512D01*
X86198732Y-112223252D01*
X86318430Y-112186942D01*
X86360000Y-112164722D01*
X86401570Y-112186942D01*
X86521268Y-112223252D01*
X86645750Y-112235512D01*
X86709250Y-112232440D01*
X86868000Y-112073690D01*
X86868000Y-111125000D01*
X87122000Y-111125000D01*
X87122000Y-112073690D01*
X87280750Y-112232440D01*
X87344250Y-112235512D01*
X87468732Y-112223252D01*
X87582154Y-112188846D01*
X87547748Y-112302268D01*
X87535488Y-112426750D01*
X87538560Y-112490250D01*
X87697310Y-112649000D01*
X88646000Y-112649000D01*
X88646000Y-111950500D01*
X88900000Y-111950500D01*
X88900000Y-112649000D01*
X89848690Y-112649000D01*
X90007440Y-112490250D01*
X90010512Y-112426750D01*
X89998252Y-112302268D01*
X89961942Y-112182570D01*
X89902977Y-112072256D01*
X89823625Y-111975565D01*
X89726934Y-111896213D01*
X89616620Y-111837248D01*
X89496922Y-111800938D01*
X89372440Y-111788678D01*
X89058750Y-111791750D01*
X88900000Y-111950500D01*
X88646000Y-111950500D01*
X88487250Y-111791750D01*
X88173560Y-111788678D01*
X88049078Y-111800938D01*
X87935656Y-111835344D01*
X87970062Y-111721922D01*
X87982322Y-111597440D01*
X87979250Y-111283750D01*
X87820500Y-111125000D01*
X87122000Y-111125000D01*
X86868000Y-111125000D01*
X86848000Y-111125000D01*
X86848000Y-110871000D01*
X86868000Y-110871000D01*
X86868000Y-109922310D01*
X87122000Y-109922310D01*
X87122000Y-110871000D01*
X87820500Y-110871000D01*
X87979250Y-110712250D01*
X87982322Y-110398560D01*
X87970062Y-110274078D01*
X87933752Y-110154380D01*
X87874787Y-110044066D01*
X87795435Y-109947375D01*
X87698744Y-109868023D01*
X87588430Y-109809058D01*
X87468732Y-109772748D01*
X87344250Y-109760488D01*
X87280750Y-109763560D01*
X87122000Y-109922310D01*
X86868000Y-109922310D01*
X86709250Y-109763560D01*
X86645750Y-109760488D01*
X86521268Y-109772748D01*
X86401570Y-109809058D01*
X86360000Y-109831278D01*
X86318430Y-109809058D01*
X86198732Y-109772748D01*
X86074250Y-109760488D01*
X85375750Y-109760488D01*
X85251268Y-109772748D01*
X85131570Y-109809058D01*
X85090000Y-109831278D01*
X85048430Y-109809058D01*
X84928732Y-109772748D01*
X84804250Y-109760488D01*
X84726314Y-109760488D01*
X84743502Y-109743300D01*
X84805639Y-109743300D01*
X85005598Y-109703526D01*
X85193956Y-109625505D01*
X85363474Y-109512237D01*
X85507637Y-109368074D01*
X85620905Y-109198556D01*
X85698926Y-109010198D01*
X85738700Y-108810239D01*
X85738700Y-108606361D01*
X85698926Y-108406402D01*
X85620905Y-108218044D01*
X85507637Y-108048526D01*
X85363474Y-107904363D01*
X85193956Y-107791095D01*
X85005598Y-107713074D01*
X84805639Y-107673300D01*
X84601761Y-107673300D01*
X84401802Y-107713074D01*
X84213444Y-107791095D01*
X84043926Y-107904363D01*
X83899763Y-108048526D01*
X83828224Y-108155591D01*
X83794556Y-108133095D01*
X83606198Y-108055074D01*
X83406239Y-108015300D01*
X83202361Y-108015300D01*
X83002402Y-108055074D01*
X82814044Y-108133095D01*
X82644526Y-108246363D01*
X82600589Y-108290300D01*
X77733102Y-108290300D01*
X77267400Y-107824599D01*
X77267400Y-107428025D01*
X77271076Y-107390700D01*
X77267400Y-107353375D01*
X77267400Y-107353367D01*
X77256403Y-107241714D01*
X77212946Y-107098453D01*
X77142374Y-106966424D01*
X77058237Y-106863903D01*
X77136537Y-106768494D01*
X77195502Y-106658180D01*
X77231812Y-106538482D01*
X77244072Y-106414000D01*
X82267928Y-106414000D01*
X82280188Y-106538482D01*
X82316498Y-106658180D01*
X82375463Y-106768494D01*
X82454815Y-106865185D01*
X82551506Y-106944537D01*
X82661820Y-107003502D01*
X82781518Y-107039812D01*
X82906000Y-107052072D01*
X83370250Y-107049000D01*
X83529000Y-106890250D01*
X83529000Y-105791000D01*
X83783000Y-105791000D01*
X83783000Y-106890250D01*
X83941750Y-107049000D01*
X84406000Y-107052072D01*
X84530482Y-107039812D01*
X84650180Y-107003502D01*
X84760494Y-106944537D01*
X84857185Y-106865185D01*
X84936537Y-106768494D01*
X84995502Y-106658180D01*
X85031812Y-106538482D01*
X85044072Y-106414000D01*
X85041000Y-105949750D01*
X84882250Y-105791000D01*
X83783000Y-105791000D01*
X83529000Y-105791000D01*
X82429750Y-105791000D01*
X82271000Y-105949750D01*
X82267928Y-106414000D01*
X77244072Y-106414000D01*
X77244072Y-104914000D01*
X82267928Y-104914000D01*
X82271000Y-105378250D01*
X82429750Y-105537000D01*
X83529000Y-105537000D01*
X83529000Y-104437750D01*
X83783000Y-104437750D01*
X83783000Y-105537000D01*
X84882250Y-105537000D01*
X85041000Y-105378250D01*
X85044072Y-104914000D01*
X85031812Y-104789518D01*
X84995502Y-104669820D01*
X84936537Y-104559506D01*
X84857185Y-104462815D01*
X84760494Y-104383463D01*
X84650180Y-104324498D01*
X84530482Y-104288188D01*
X84406000Y-104275928D01*
X83941750Y-104279000D01*
X83783000Y-104437750D01*
X83529000Y-104437750D01*
X83370250Y-104279000D01*
X82906000Y-104275928D01*
X82781518Y-104288188D01*
X82661820Y-104324498D01*
X82551506Y-104383463D01*
X82454815Y-104462815D01*
X82375463Y-104559506D01*
X82316498Y-104669820D01*
X82280188Y-104789518D01*
X82267928Y-104914000D01*
X77244072Y-104914000D01*
X77231812Y-104789518D01*
X77195502Y-104669820D01*
X77136537Y-104559506D01*
X77057185Y-104462815D01*
X76960494Y-104383463D01*
X76850180Y-104324498D01*
X76730482Y-104288188D01*
X76606000Y-104275928D01*
X75106000Y-104275928D01*
X74981518Y-104288188D01*
X74861820Y-104324498D01*
X74751506Y-104383463D01*
X74654815Y-104462815D01*
X74575463Y-104559506D01*
X74516498Y-104669820D01*
X74480188Y-104789518D01*
X74467928Y-104914000D01*
X74467928Y-106414000D01*
X74480188Y-106538482D01*
X74516498Y-106658180D01*
X74575463Y-106768494D01*
X74654815Y-106865185D01*
X74751506Y-106944537D01*
X74849656Y-106997000D01*
X72489625Y-106997000D01*
X72452300Y-106993324D01*
X72414975Y-106997000D01*
X72414967Y-106997000D01*
X72303314Y-107007997D01*
X72160053Y-107051454D01*
X72028024Y-107122026D01*
X71912299Y-107216999D01*
X71888501Y-107245997D01*
X69360898Y-109773601D01*
X69331900Y-109797399D01*
X69308102Y-109826397D01*
X69308101Y-109826398D01*
X69265000Y-109878916D01*
X69265000Y-98982000D01*
X74301000Y-98982000D01*
X74301000Y-99532000D01*
X74347585Y-99750987D01*
X74435997Y-99956678D01*
X74562839Y-100141169D01*
X74723236Y-100297369D01*
X74911024Y-100419276D01*
X75134126Y-100499119D01*
X75309000Y-100372954D01*
X75309000Y-98982000D01*
X74301000Y-98982000D01*
X69265000Y-98982000D01*
X69265000Y-98347353D01*
X69287428Y-98340238D01*
X69344479Y-98315786D01*
X69401894Y-98292121D01*
X69410308Y-98287572D01*
X69627510Y-98168164D01*
X69678757Y-98133074D01*
X69730449Y-98098730D01*
X69737818Y-98092634D01*
X69927691Y-97933312D01*
X69971183Y-97888899D01*
X70015180Y-97845208D01*
X70021226Y-97837797D01*
X70176537Y-97644630D01*
X70210544Y-97592661D01*
X70245251Y-97541206D01*
X70249737Y-97532769D01*
X70249740Y-97532764D01*
X70249742Y-97532759D01*
X70364573Y-97313106D01*
X70387830Y-97255543D01*
X70411888Y-97198312D01*
X70414653Y-97189156D01*
X70484635Y-96951379D01*
X70496275Y-96890362D01*
X70508752Y-96829575D01*
X70509686Y-96820057D01*
X70532150Y-96573217D01*
X70531716Y-96511134D01*
X70532150Y-96449052D01*
X70531217Y-96439534D01*
X70505309Y-96193030D01*
X70492817Y-96132176D01*
X70481190Y-96071226D01*
X70478426Y-96062070D01*
X70405131Y-95825294D01*
X70381082Y-95768084D01*
X70357816Y-95710498D01*
X70353326Y-95702053D01*
X70235438Y-95484023D01*
X70200707Y-95432532D01*
X70166723Y-95380600D01*
X70160679Y-95373188D01*
X70002686Y-95182209D01*
X69958633Y-95138462D01*
X69915194Y-95094104D01*
X69907825Y-95088008D01*
X69715747Y-94931353D01*
X69664044Y-94897002D01*
X69612807Y-94861919D01*
X69604393Y-94857370D01*
X69500258Y-94802000D01*
X74301000Y-94802000D01*
X74301000Y-95102000D01*
X74347585Y-95320987D01*
X74435997Y-95526678D01*
X74562839Y-95711169D01*
X74723236Y-95867369D01*
X74911024Y-95989276D01*
X75134126Y-96069119D01*
X75309000Y-95942954D01*
X75309000Y-94802000D01*
X74301000Y-94802000D01*
X69500258Y-94802000D01*
X69385546Y-94741007D01*
X69328141Y-94717347D01*
X69271084Y-94692892D01*
X69265000Y-94691009D01*
X69265000Y-93649000D01*
X74555848Y-93649000D01*
X74435997Y-93823322D01*
D22*
X87630000Y-129032000D03*
X77470000Y-129032000D03*
X69596000Y-129286000D03*
X84320100Y-116111100D03*
X72928400Y-114107500D03*
X89634400Y-102062200D03*
X81467600Y-97469700D03*
X80465200Y-98421600D03*
X84703700Y-108708300D03*
X71422700Y-109823400D03*
X75777300Y-107757000D03*
X76183600Y-96913400D03*
X82903700Y-95948900D03*
X73157000Y-108519900D03*
X83304300Y-109050300D03*
X82646000Y-98325000D03*
X76866000Y-98325000D03*
D23*
X75436000Y-98855000D03*
X84076000Y-98855000D03*
D24*
X75436000Y-94675000D03*
X84076000Y-94675000D03*
D22*
X84328000Y-135382000D03*
X81788000Y-135382000D03*
X79248000Y-135382000D03*
X76708000Y-135382000D03*
M02*
