  0
SECTION
  2
HEADER
  9
$ANGBASE
  50
0.0
  9
$ANGDIR
  70
  1
  9
$MEASUREMENT
  70
0
  0
ENDSEC
  0
SECTION
  2
TABLES
  0
TABLE
  2
LTYPE
  70
4
  0
LTYPE
  5
40F
  2
CONTINUOUS
  70
0
  3
Solid line
  72
65
  73
0
  40
0.0
  0
LTYPE
  5
410
  2
DASHDOT
 70
0
  3
Dash Dot ____ _ ____ _
 72
65
 73
4
 40
2.0
 49
1.25
 49
-0.25
 49
0.25
 49
-0.25
  0
LTYPE
  5
411
  2
DASHED
 70
0
  3
Dashed __ __ __ __ __
 72
65
 73
2
 40
0.75
 49
0.5
 49
-0.25
  0
LTYPE
  5
43B
  2
DOTTED
 70
0
  3
Dotted .  .  .  .
 72
65
 73
2
 40
0.2
 49
0.0
 49
-0.2
  0
ENDTAB
  0
TABLE
  2
STYLE
  70
4
  0
STYLE
  2
KICAD
  70
0
  40
0
  41
1
  42
1
  50
0
  71
0
  3
isocp.shx
  0
STYLE
  2
KICADB
  70
0
  40
0
  41
1
  42
1
  50
0
  71
0
  3
isocp.shx
  0
STYLE
  2
KICADI
  70
0
  40
0
  41
1
  42
1
  50
15
  71
0
  3
isocp.shx
  0
STYLE
  2
KICADBI
  70
0
  40
0
  41
1
  42
1
  50
15
  71
0
  3
isocp.shx
  0
ENDTAB
  0
TABLE
  2
LAYER
  70
30
  0
LAYER
  2
BLACK
  70
0
  62
7
  6
CONTINUOUS
  0
LAYER
  2
GRAY1
  70
0
  62
251
  6
CONTINUOUS
  0
LAYER
  2
GRAY2
  70
0
  62
8
  6
CONTINUOUS
  0
LAYER
  2
GRAY3
  70
0
  62
9
  6
CONTINUOUS
  0
LAYER
  2
WHITE
  70
0
  62
7
  6
CONTINUOUS
  0
LAYER
  2
LYELLOW
  70
0
  62
51
  6
CONTINUOUS
  0
LAYER
  2
BLUE1
  70
0
  62
178
  6
CONTINUOUS
  0
LAYER
  2
GREEN1
  70
0
  62
98
  6
CONTINUOUS
  0
LAYER
  2
CYAN1
  70
0
  62
138
  6
CONTINUOUS
  0
LAYER
  2
RED1
  70
0
  62
18
  6
CONTINUOUS
  0
LAYER
  2
MAGENTA1
  70
0
  62
228
  6
CONTINUOUS
  0
LAYER
  2
BROWN1
  70
0
  62
58
  6
CONTINUOUS
  0
LAYER
  2
BLUE2
  70
0
  62
5
  6
CONTINUOUS
  0
LAYER
  2
GREEN2
  70
0
  62
3
  6
CONTINUOUS
  0
LAYER
  2
CYAN2
  70
0
  62
4
  6
CONTINUOUS
  0
LAYER
  2
RED2
  70
0
  62
1
  6
CONTINUOUS
  0
LAYER
  2
MAGENTA2
  70
0
  62
6
  6
CONTINUOUS
  0
LAYER
  2
BROWN2
  70
0
  62
54
  6
CONTINUOUS
  0
LAYER
  2
BLUE3
  70
0
  62
171
  6
CONTINUOUS
  0
LAYER
  2
GREEN3
  70
0
  62
91
  6
CONTINUOUS
  0
LAYER
  2
CYAN3
  70
0
  62
131
  6
CONTINUOUS
  0
LAYER
  2
RED3
  70
0
  62
11
  6
CONTINUOUS
  0
LAYER
  2
MAGENTA3
  70
0
  62
221
  6
CONTINUOUS
  0
LAYER
  2
YELLOW3
  70
0
  62
2
  6
CONTINUOUS
  0
LAYER
  2
BLUE4
  70
0
  62
5
  6
CONTINUOUS
  0
LAYER
  2
GREEN4
  70
0
  62
3
  6
CONTINUOUS
  0
LAYER
  2
CYAN4
  70
0
  62
4
  6
CONTINUOUS
  0
LAYER
  2
RED4
  70
0
  62
1
  6
CONTINUOUS
  0
LAYER
  2
MAGENTA4
  70
0
  62
6
  6
CONTINUOUS
  0
LAYER
  2
YELLOW4
  70
0
  62
2
  6
CONTINUOUS
  0
ENDTAB
  0
ENDSEC
  0
SECTION
  2
ENTITIES
0
CIRCLE
8
BLACK
10
73.66
20
-58.42
40
1.27
0
CIRCLE
8
BLACK
10
203.2
20
-43.18
40
1.27
0
CIRCLE
8
BLACK
10
93.98
20
-144.78
40
1.27
0
CIRCLE
8
BLACK
10
224.79
20
-114.3
40
1.27
0
CIRCLE
8
BLACK
10
185.42
20
-163.83
40
1.27
0
LINE
8
BLACK
6
CONTINUOUS
10
226.06
20
-120.65
11
228.6
21
-127
0
LINE
8
BLACK
6
CONTINUOUS
10
186.69
20
-157.48
11
198.12
21
-165.1
0
LINE
8
BLACK
6
CONTINUOUS
10
198.12
20
-165.1
11
209.55
21
-161.29
0
LINE
8
BLACK
6
CONTINUOUS
10
163.83
20
-151.13
11
186.69
21
-157.48
0
LINE
8
BLACK
6
CONTINUOUS
10
158.75
20
-147.32
11
163.83
21
-151.13
0
LINE
8
BLACK
6
CONTINUOUS
10
143.51
20
-147.32
11
158.75
21
-147.32
0
LINE
8
BLACK
6
CONTINUOUS
10
139.7
20
-149.86
11
143.51
21
-147.32
0
LINE
8
BLACK
6
CONTINUOUS
10
143.51
20
-46.99
11
158.75
21
-46.99
0
LINE
8
BLACK
6
CONTINUOUS
10
214.63
20
-60.96
11
220.98
21
-66.04
0
LINE
8
BLACK
6
CONTINUOUS
10
201.93
20
-60.96
11
214.63
21
-60.96
0
LINE
8
BLACK
6
CONTINUOUS
10
201.93
20
-57.15
11
201.93
21
-60.96
0
LINE
8
BLACK
6
CONTINUOUS
10
196.85
20
-52.07
11
201.93
21
-57.15
0
LINE
8
BLACK
6
CONTINUOUS
10
182.88
20
-52.07
11
196.85
21
-52.07
0
LINE
8
BLACK
6
CONTINUOUS
10
176.53
20
-49.53
11
182.88
21
-52.07
0
LINE
8
BLACK
6
CONTINUOUS
10
162.56
20
-49.53
11
176.53
21
-49.53
0
LINE
8
BLACK
6
CONTINUOUS
10
158.75
20
-46.99
11
162.56
21
-49.53
0
LINE
8
BLACK
6
CONTINUOUS
10
77.47
20
-130.81
11
77.47
21
-59.69
0
LINE
8
BLACK
6
CONTINUOUS
10
119.38
20
-54.61
11
125.73
21
-49.53
0
LINE
8
BLACK
6
CONTINUOUS
10
139.7
20
-49.53
11
143.51
21
-46.99
0
LINE
8
BLACK
6
CONTINUOUS
10
125.73
20
-49.53
11
139.7
21
-49.53
0
LINE
8
BLACK
6
CONTINUOUS
10
96.52
20
-54.61
11
119.38
21
-54.61
0
LINE
8
BLACK
6
CONTINUOUS
10
77.47
20
-59.69
11
82.55
21
-54.61
0
LINE
8
BLACK
6
CONTINUOUS
10
82.55
20
-54.61
11
96.52
21
-54.61
0
LINE
8
BLACK
6
CONTINUOUS
10
82.55
20
-135.89
11
77.47
21
-130.81
0
LINE
8
BLACK
6
CONTINUOUS
10
101.6
20
-135.89
11
82.55
21
-135.89
0
LINE
8
BLACK
6
CONTINUOUS
10
120.65
20
-149.86
11
101.6
21
-135.89
0
LINE
8
BLACK
6
CONTINUOUS
10
139.7
20
-149.86
11
120.65
21
-149.86
0
LINE
8
BLACK
6
CONTINUOUS
10
228.6
20
-127
11
209.55
21
-161.29
0
LINE
8
BLACK
6
CONTINUOUS
10
220.98
20
-116.84
11
226.06
21
-120.65
0
LINE
8
BLACK
6
CONTINUOUS
10
220.98
20
-66.04
11
220.98
21
-116.84
0
LINE
8
BLACK
6
CONTINUOUS
10
68.58
20
-54.61
11
68.58
21
-132.08
0
LINE
8
BLACK
6
CONTINUOUS
10
71.12
20
-52.07
11
68.58
21
-54.61
0
LINE
8
BLACK
6
CONTINUOUS
10
71.12
20
-52.07
11
85.09
21
-39.37
0
LINE
8
BLACK
6
CONTINUOUS
10
83.82
20
-146.05
11
68.58
21
-132.08
0
LINE
8
BLACK
6
CONTINUOUS
10
121.92
20
-157.48
11
83.82
21
-146.05
0
LINE
8
BLACK
6
CONTINUOUS
10
142.24
20
-157.48
11
121.92
21
-157.48
0
LINE
8
BLACK
6
CONTINUOUS
10
195.58
20
-172.72
11
142.24
21
-157.48
0
LINE
8
BLACK
6
CONTINUOUS
10
215.9
20
-165.1
11
195.58
21
-172.72
0
LINE
8
BLACK
6
CONTINUOUS
10
234.95
20
-132.08
11
215.9
21
-165.1
0
LINE
8
BLACK
6
CONTINUOUS
10
233.68
20
-128.27
11
234.95
21
-132.08
0
LINE
8
BLACK
6
CONTINUOUS
10
229.87
20
-116.84
11
233.68
21
-128.27
0
LINE
8
BLACK
6
CONTINUOUS
10
227.33
20
-54.61
11
229.87
21
-116.84
0
LINE
8
BLACK
6
CONTINUOUS
10
212.09
20
-39.37
11
227.33
21
-54.61
0
LINE
8
BLACK
6
CONTINUOUS
10
100.33
20
-39.37
11
212.09
21
-39.37
0
LINE
8
BLACK
6
CONTINUOUS
10
85.09
20
-39.37
11
100.33
21
-39.37
0
LINE
8
BLACK
6
CONTINUOUS
10
217.551
20
-175.26
11
217.678
21
-175.26
  0
ENDSEC
  0
EOF
