%TF.GenerationSoftware,KiCad,Pcbnew,(5.1.2)-2*%
%TF.CreationDate,2020-08-26T23:28:28+08:00*%
%TF.ProjectId,wing-receiver-lite-rev2,77696e67-2d72-4656-9365-697665722d6c,rev?*%
%TF.SameCoordinates,Original*%
%TF.FileFunction,Legend,Bot*%
%TF.FilePolarity,Positive*%
%FSLAX46Y46*%
G04 Gerber Fmt 4.6, Leading zero omitted, Abs format (unit mm)*
G04 Created by KiCad (PCBNEW (5.1.2)-2) date 2020-08-26 23:28:28*
%MOMM*%
%LPD*%
G04 APERTURE LIST*
%ADD10C,0.120000*%
%ADD11C,0.100000*%
%ADD12C,0.150000*%
%ADD13C,0.152400*%
G04 APERTURE END LIST*
D10*
X76696000Y-103814000D02*
X76696000Y-107514000D01*
X82816000Y-103814000D02*
X76696000Y-103814000D01*
X82816000Y-107514000D02*
X82816000Y-103814000D01*
X76696000Y-107514000D02*
X82816000Y-107514000D01*
D11*
X88646000Y-133985000D02*
X71120000Y-133985000D01*
X71120000Y-139700000D02*
X71120000Y-110998000D01*
X88646000Y-139700000D02*
X71120000Y-139700000D01*
X88646000Y-110998000D02*
X88646000Y-139700000D01*
X71120000Y-110998000D02*
X88646000Y-110998000D01*
D12*
X81494095Y-100330380D02*
X81494095Y-101139904D01*
X81446476Y-101235142D01*
X81398857Y-101282761D01*
X81303619Y-101330380D01*
X81113142Y-101330380D01*
X81017904Y-101282761D01*
X80970285Y-101235142D01*
X80922666Y-101139904D01*
X80922666Y-100330380D01*
X80494095Y-101282761D02*
X80351238Y-101330380D01*
X80113142Y-101330380D01*
X80017904Y-101282761D01*
X79970285Y-101235142D01*
X79922666Y-101139904D01*
X79922666Y-101044666D01*
X79970285Y-100949428D01*
X80017904Y-100901809D01*
X80113142Y-100854190D01*
X80303619Y-100806571D01*
X80398857Y-100758952D01*
X80446476Y-100711333D01*
X80494095Y-100616095D01*
X80494095Y-100520857D01*
X80446476Y-100425619D01*
X80398857Y-100378000D01*
X80303619Y-100330380D01*
X80065523Y-100330380D01*
X79922666Y-100378000D01*
X79160761Y-100806571D02*
X79017904Y-100854190D01*
X78970285Y-100901809D01*
X78922666Y-100997047D01*
X78922666Y-101139904D01*
X78970285Y-101235142D01*
X79017904Y-101282761D01*
X79113142Y-101330380D01*
X79494095Y-101330380D01*
X79494095Y-100330380D01*
X79160761Y-100330380D01*
X79065523Y-100378000D01*
X79017904Y-100425619D01*
X78970285Y-100520857D01*
X78970285Y-100616095D01*
X79017904Y-100711333D01*
X79065523Y-100758952D01*
X79160761Y-100806571D01*
X79494095Y-100806571D01*
X77970285Y-101330380D02*
X78541714Y-101330380D01*
X78256000Y-101330380D02*
X78256000Y-100330380D01*
X78351238Y-100473238D01*
X78446476Y-100568476D01*
X78541714Y-100616095D01*
X81684571Y-108716380D02*
X82017904Y-108240190D01*
X82256000Y-108716380D02*
X82256000Y-107716380D01*
X81875047Y-107716380D01*
X81779809Y-107764000D01*
X81732190Y-107811619D01*
X81684571Y-107906857D01*
X81684571Y-108049714D01*
X81732190Y-108144952D01*
X81779809Y-108192571D01*
X81875047Y-108240190D01*
X82256000Y-108240190D01*
X81256000Y-108192571D02*
X80922666Y-108192571D01*
X80779809Y-108716380D02*
X81256000Y-108716380D01*
X81256000Y-107716380D01*
X80779809Y-107716380D01*
X80398857Y-108668761D02*
X80256000Y-108716380D01*
X80017904Y-108716380D01*
X79922666Y-108668761D01*
X79875047Y-108621142D01*
X79827428Y-108525904D01*
X79827428Y-108430666D01*
X79875047Y-108335428D01*
X79922666Y-108287809D01*
X80017904Y-108240190D01*
X80208380Y-108192571D01*
X80303619Y-108144952D01*
X80351238Y-108097333D01*
X80398857Y-108002095D01*
X80398857Y-107906857D01*
X80351238Y-107811619D01*
X80303619Y-107764000D01*
X80208380Y-107716380D01*
X79970285Y-107716380D01*
X79827428Y-107764000D01*
X79398857Y-108192571D02*
X79065523Y-108192571D01*
X78922666Y-108716380D02*
X79398857Y-108716380D01*
X79398857Y-107716380D01*
X78922666Y-107716380D01*
X78636952Y-107716380D02*
X78065523Y-107716380D01*
X78351238Y-108716380D02*
X78351238Y-107716380D01*
X77208380Y-108716380D02*
X77779809Y-108716380D01*
X77494095Y-108716380D02*
X77494095Y-107716380D01*
X77589333Y-107859238D01*
X77684571Y-107954476D01*
X77779809Y-108002095D01*
D13*
X81729942Y-121709542D02*
X81729942Y-122996476D01*
X81729942Y-121893390D02*
X81638019Y-121801466D01*
X81454171Y-121709542D01*
X81178400Y-121709542D01*
X80994552Y-121801466D01*
X80902628Y-121985314D01*
X80902628Y-122996476D01*
X79983390Y-122996476D02*
X79983390Y-121709542D01*
X79983390Y-122077238D02*
X79891466Y-121893390D01*
X79799542Y-121801466D01*
X79615695Y-121709542D01*
X79431847Y-121709542D01*
X79064152Y-121709542D02*
X78328761Y-121709542D01*
X78788380Y-122996476D02*
X78788380Y-121341847D01*
X78696457Y-121158000D01*
X78512609Y-121066076D01*
X78328761Y-121066076D01*
X76674133Y-122996476D02*
X77777219Y-122996476D01*
X77225676Y-122996476D02*
X77225676Y-121066076D01*
X77409523Y-121341847D01*
X77593371Y-121525695D01*
X77777219Y-121617619D01*
X89313657Y-127624114D02*
X88670190Y-127624114D01*
X88394419Y-128635276D02*
X89313657Y-128635276D01*
X89313657Y-126704876D01*
X88394419Y-126704876D01*
X87750952Y-126704876D02*
X86464019Y-126704876D01*
X87291333Y-128635276D01*
X85912476Y-126704876D02*
X84717466Y-126704876D01*
X85360933Y-127440266D01*
X85085161Y-127440266D01*
X84901314Y-127532190D01*
X84809390Y-127624114D01*
X84717466Y-127807961D01*
X84717466Y-128267580D01*
X84809390Y-128451428D01*
X84901314Y-128543352D01*
X85085161Y-128635276D01*
X85636704Y-128635276D01*
X85820552Y-128543352D01*
X85912476Y-128451428D01*
X83890152Y-127899885D02*
X82419371Y-127899885D01*
X81500133Y-127348342D02*
X81500133Y-128635276D01*
X81500133Y-127532190D02*
X81408209Y-127440266D01*
X81224361Y-127348342D01*
X80948590Y-127348342D01*
X80764742Y-127440266D01*
X80672819Y-127624114D01*
X80672819Y-128635276D01*
X79753580Y-128635276D02*
X79753580Y-127348342D01*
X79753580Y-127716038D02*
X79661657Y-127532190D01*
X79569733Y-127440266D01*
X79385885Y-127348342D01*
X79202038Y-127348342D01*
X78834342Y-127348342D02*
X78098952Y-127348342D01*
X78558571Y-128635276D02*
X78558571Y-126980647D01*
X78466647Y-126796800D01*
X78282800Y-126704876D01*
X78098952Y-126704876D01*
X76536247Y-126704876D02*
X77455485Y-126704876D01*
X77547409Y-127624114D01*
X77455485Y-127532190D01*
X77271638Y-127440266D01*
X76812019Y-127440266D01*
X76628171Y-127532190D01*
X76536247Y-127624114D01*
X76444323Y-127807961D01*
X76444323Y-128267580D01*
X76536247Y-128451428D01*
X76628171Y-128543352D01*
X76812019Y-128635276D01*
X77271638Y-128635276D01*
X77455485Y-128543352D01*
X77547409Y-128451428D01*
X74605847Y-128635276D02*
X75708933Y-128635276D01*
X75157390Y-128635276D02*
X75157390Y-126704876D01*
X75341238Y-126980647D01*
X75525085Y-127164495D01*
X75708933Y-127256419D01*
X73502761Y-127532190D02*
X73686609Y-127440266D01*
X73778533Y-127348342D01*
X73870457Y-127164495D01*
X73870457Y-127072571D01*
X73778533Y-126888723D01*
X73686609Y-126796800D01*
X73502761Y-126704876D01*
X73135066Y-126704876D01*
X72951219Y-126796800D01*
X72859295Y-126888723D01*
X72767371Y-127072571D01*
X72767371Y-127164495D01*
X72859295Y-127348342D01*
X72951219Y-127440266D01*
X73135066Y-127532190D01*
X73502761Y-127532190D01*
X73686609Y-127624114D01*
X73778533Y-127716038D01*
X73870457Y-127899885D01*
X73870457Y-128267580D01*
X73778533Y-128451428D01*
X73686609Y-128543352D01*
X73502761Y-128635276D01*
X73135066Y-128635276D01*
X72951219Y-128543352D01*
X72859295Y-128451428D01*
X72767371Y-128267580D01*
X72767371Y-127899885D01*
X72859295Y-127716038D01*
X72951219Y-127624114D01*
X73135066Y-127532190D01*
X72031980Y-126888723D02*
X71940057Y-126796800D01*
X71756209Y-126704876D01*
X71296590Y-126704876D01*
X71112742Y-126796800D01*
X71020819Y-126888723D01*
X70928895Y-127072571D01*
X70928895Y-127256419D01*
X71020819Y-127532190D01*
X72123904Y-128635276D01*
X70928895Y-128635276D01*
X70193504Y-126888723D02*
X70101580Y-126796800D01*
X69917733Y-126704876D01*
X69458114Y-126704876D01*
X69274266Y-126796800D01*
X69182342Y-126888723D01*
X69090419Y-127072571D01*
X69090419Y-127256419D01*
X69182342Y-127532190D01*
X70285428Y-128635276D01*
X69090419Y-128635276D01*
M02*
