%TF.GenerationSoftware,KiCad,Pcbnew,(5.1.2)-2*%
%TF.CreationDate,2020-08-26T23:28:28+08:00*%
%TF.ProjectId,wing-receiver-lite-rev2,77696e67-2d72-4656-9365-697665722d6c,rev?*%
%TF.SameCoordinates,Original*%
%TF.FileFunction,Paste,Bot*%
%TF.FilePolarity,Positive*%
%FSLAX46Y46*%
G04 Gerber Fmt 4.6, Leading zero omitted, Abs format (unit mm)*
G04 Created by KiCad (PCBNEW (5.1.2)-2) date 2020-08-26 23:28:28*
%MOMM*%
%LPD*%
G04 APERTURE LIST*
%ADD10R,0.600000X2.450000*%
%ADD11R,0.300000X2.450000*%
%ADD12R,1.500000X1.500000*%
%ADD13R,1.198880X0.698500*%
%ADD14R,0.698500X1.198880*%
G04 APERTURE END LIST*
D10*
X83006000Y-99828000D03*
D11*
X80531000Y-99828000D03*
X79031000Y-99828000D03*
X78031000Y-99828000D03*
D10*
X82231000Y-99828000D03*
D11*
X81031000Y-99828000D03*
X78531000Y-99828000D03*
D10*
X77331000Y-99828000D03*
X76556000Y-99828000D03*
D11*
X79531000Y-99828000D03*
X80031000Y-99828000D03*
X81531000Y-99828000D03*
D12*
X83656000Y-105664000D03*
X75856000Y-105664000D03*
D13*
X71120000Y-112776000D03*
X88646000Y-120396000D03*
X88646000Y-121666000D03*
D14*
X72898000Y-110998000D03*
D13*
X71120000Y-115316000D03*
X71120000Y-116586000D03*
X71120000Y-117856000D03*
X71120000Y-119126000D03*
X71120000Y-120396000D03*
X71120000Y-121666000D03*
X71120000Y-122936000D03*
X71120000Y-124206000D03*
X71120000Y-125476000D03*
X88646000Y-126746000D03*
X88646000Y-125476000D03*
X88646000Y-124206000D03*
X88646000Y-122936000D03*
X88646000Y-119126000D03*
X88646000Y-117856000D03*
X88646000Y-116586000D03*
X88646000Y-115316000D03*
X88646000Y-114046000D03*
X88646000Y-112776000D03*
D14*
X86868000Y-110998000D03*
X85598000Y-110998000D03*
X84328000Y-110998000D03*
X83058000Y-110998000D03*
X81788000Y-110998000D03*
X80518000Y-110998000D03*
X79248000Y-110998000D03*
X77978000Y-110998000D03*
X76708000Y-110998000D03*
X75438000Y-110998000D03*
X74168000Y-110998000D03*
D13*
X71120000Y-126746000D03*
X71120000Y-114046000D03*
M02*
