%TF.GenerationSoftware,KiCad,Pcbnew,(5.1.2)-2*%
%TF.CreationDate,2020-08-26T23:28:28+08:00*%
%TF.ProjectId,wing-receiver-lite-rev2,77696e67-2d72-4656-9365-697665722d6c,rev?*%
%TF.SameCoordinates,Original*%
%TF.FileFunction,Legend,Top*%
%TF.FilePolarity,Positive*%
%FSLAX46Y46*%
G04 Gerber Fmt 4.6, Leading zero omitted, Abs format (unit mm)*
G04 Created by KiCad (PCBNEW (5.1.2)-2) date 2020-08-26 23:28:28*
%MOMM*%
%LPD*%
G04 APERTURE LIST*
%ADD10C,0.200000*%
%ADD11C,0.120000*%
%ADD12C,0.150000*%
%ADD13C,0.254000*%
G04 APERTURE END LIST*
D10*
X74350000Y-129469000D02*
X75250000Y-129469000D01*
X75600000Y-132419000D02*
X75600000Y-129519000D01*
X76800000Y-132419000D02*
X75600000Y-132419000D01*
X76800000Y-129519000D02*
X76800000Y-132419000D01*
X75600000Y-129519000D02*
X76800000Y-129519000D01*
D11*
X75005000Y-126626252D02*
X75005000Y-126103748D01*
X73585000Y-126626252D02*
X73585000Y-126103748D01*
X77130000Y-107780000D02*
X82530000Y-107780000D01*
X77130000Y-103280000D02*
X77130000Y-107780000D01*
D12*
X85058000Y-121380000D02*
X85058000Y-120805000D01*
X74708000Y-121380000D02*
X74708000Y-120705000D01*
X74708000Y-111030000D02*
X74708000Y-111705000D01*
X85058000Y-111030000D02*
X85058000Y-111705000D01*
X85058000Y-121380000D02*
X84383000Y-121380000D01*
X85058000Y-111030000D02*
X84383000Y-111030000D01*
X74708000Y-111030000D02*
X75383000Y-111030000D01*
X74708000Y-121380000D02*
X75383000Y-121380000D01*
X85058000Y-120805000D02*
X86333000Y-120805000D01*
D11*
X72651252Y-101398000D02*
X72128748Y-101398000D01*
X72651252Y-102818000D02*
X72128748Y-102818000D01*
X86987748Y-102818000D02*
X87510252Y-102818000D01*
X86987748Y-101398000D02*
X87510252Y-101398000D01*
X72651252Y-106478000D02*
X72128748Y-106478000D01*
X72651252Y-107898000D02*
X72128748Y-107898000D01*
X72651252Y-96445000D02*
X72128748Y-96445000D01*
X72651252Y-97865000D02*
X72128748Y-97865000D01*
X72128748Y-105358000D02*
X72651252Y-105358000D01*
X72128748Y-103938000D02*
X72651252Y-103938000D01*
X87510252Y-98858000D02*
X86987748Y-98858000D01*
X87510252Y-100278000D02*
X86987748Y-100278000D01*
X86860748Y-97738000D02*
X87383252Y-97738000D01*
X86860748Y-96318000D02*
X87383252Y-96318000D01*
X86860748Y-95325000D02*
X87383252Y-95325000D01*
X86860748Y-93905000D02*
X87383252Y-93905000D01*
X72651252Y-93905000D02*
X72128748Y-93905000D01*
X72651252Y-95325000D02*
X72128748Y-95325000D01*
X74870000Y-136712000D02*
X74870000Y-135382000D01*
X76200000Y-136712000D02*
X74870000Y-136712000D01*
X77470000Y-136712000D02*
X77470000Y-134052000D01*
X77470000Y-134052000D02*
X85150000Y-134052000D01*
X77470000Y-136712000D02*
X85150000Y-136712000D01*
X85150000Y-136712000D02*
X85150000Y-134052000D01*
X82582936Y-131720000D02*
X83787064Y-131720000D01*
X82582936Y-129900000D02*
X83787064Y-129900000D01*
X85826000Y-104464000D02*
X85826000Y-107414000D01*
X88926000Y-106864000D02*
X88926000Y-104464000D01*
X76125000Y-126103748D02*
X76125000Y-126626252D01*
X77545000Y-126103748D02*
X77545000Y-126626252D01*
X79046000Y-126103748D02*
X79046000Y-126626252D01*
X80466000Y-126103748D02*
X80466000Y-126626252D01*
X81332000Y-126103748D02*
X81332000Y-126626252D01*
X82752000Y-126103748D02*
X82752000Y-126626252D01*
X85904000Y-126103748D02*
X85904000Y-126626252D01*
X87324000Y-126103748D02*
X87324000Y-126626252D01*
X83618000Y-126103748D02*
X83618000Y-126626252D01*
X85038000Y-126103748D02*
X85038000Y-126626252D01*
X72128748Y-100405000D02*
X72651252Y-100405000D01*
X72128748Y-98985000D02*
X72651252Y-98985000D01*
X76148000Y-105671252D02*
X76148000Y-105148748D01*
X74728000Y-105671252D02*
X74728000Y-105148748D01*
X84911000Y-105671252D02*
X84911000Y-105148748D01*
X83491000Y-105671252D02*
X83491000Y-105148748D01*
D13*
X74960238Y-131543523D02*
X74960238Y-130273523D01*
X76290714Y-131422571D02*
X76230238Y-131483047D01*
X76048809Y-131543523D01*
X75927857Y-131543523D01*
X75746428Y-131483047D01*
X75625476Y-131362095D01*
X75565000Y-131241142D01*
X75504523Y-130999238D01*
X75504523Y-130817809D01*
X75565000Y-130575904D01*
X75625476Y-130454952D01*
X75746428Y-130334000D01*
X75927857Y-130273523D01*
X76048809Y-130273523D01*
X76230238Y-130334000D01*
X76290714Y-130394476D01*
X76774523Y-130394476D02*
X76835000Y-130334000D01*
X76955952Y-130273523D01*
X77258333Y-130273523D01*
X77379285Y-130334000D01*
X77439761Y-130394476D01*
X77500238Y-130515428D01*
X77500238Y-130636380D01*
X77439761Y-130817809D01*
X76714047Y-131543523D01*
X77500238Y-131543523D01*
D12*
X73002142Y-127007857D02*
X73049761Y-127055476D01*
X73097380Y-127198333D01*
X73097380Y-127293571D01*
X73049761Y-127436428D01*
X72954523Y-127531666D01*
X72859285Y-127579285D01*
X72668809Y-127626904D01*
X72525952Y-127626904D01*
X72335476Y-127579285D01*
X72240238Y-127531666D01*
X72145000Y-127436428D01*
X72097380Y-127293571D01*
X72097380Y-127198333D01*
X72145000Y-127055476D01*
X72192619Y-127007857D01*
X73097380Y-126055476D02*
X73097380Y-126626904D01*
X73097380Y-126341190D02*
X72097380Y-126341190D01*
X72240238Y-126436428D01*
X72335476Y-126531666D01*
X72383095Y-126626904D01*
X72192619Y-125674523D02*
X72145000Y-125626904D01*
X72097380Y-125531666D01*
X72097380Y-125293571D01*
X72145000Y-125198333D01*
X72192619Y-125150714D01*
X72287857Y-125103095D01*
X72383095Y-125103095D01*
X72525952Y-125150714D01*
X73097380Y-125722142D01*
X73097380Y-125103095D01*
X79020476Y-101932380D02*
X79687142Y-102932380D01*
X79687142Y-101932380D02*
X79020476Y-102932380D01*
X80591904Y-102932380D02*
X80020476Y-102932380D01*
X80306190Y-102932380D02*
X80306190Y-101932380D01*
X80210952Y-102075238D01*
X80115714Y-102170476D01*
X80020476Y-102218095D01*
X79121095Y-123107380D02*
X79121095Y-123916904D01*
X79168714Y-124012142D01*
X79216333Y-124059761D01*
X79311571Y-124107380D01*
X79502047Y-124107380D01*
X79597285Y-124059761D01*
X79644904Y-124012142D01*
X79692523Y-123916904D01*
X79692523Y-123107380D01*
X80692523Y-124107380D02*
X80121095Y-124107380D01*
X80406809Y-124107380D02*
X80406809Y-123107380D01*
X80311571Y-123250238D01*
X80216333Y-123345476D01*
X80121095Y-123393095D01*
X71747142Y-104210380D02*
X71413809Y-103734190D01*
X71175714Y-104210380D02*
X71175714Y-103210380D01*
X71556666Y-103210380D01*
X71651904Y-103258000D01*
X71699523Y-103305619D01*
X71747142Y-103400857D01*
X71747142Y-103543714D01*
X71699523Y-103638952D01*
X71651904Y-103686571D01*
X71556666Y-103734190D01*
X71175714Y-103734190D01*
X72699523Y-104210380D02*
X72128095Y-104210380D01*
X72413809Y-104210380D02*
X72413809Y-103210380D01*
X72318571Y-103353238D01*
X72223333Y-103448476D01*
X72128095Y-103496095D01*
X73032857Y-103210380D02*
X73651904Y-103210380D01*
X73318571Y-103591333D01*
X73461428Y-103591333D01*
X73556666Y-103638952D01*
X73604285Y-103686571D01*
X73651904Y-103781809D01*
X73651904Y-104019904D01*
X73604285Y-104115142D01*
X73556666Y-104162761D01*
X73461428Y-104210380D01*
X73175714Y-104210380D01*
X73080476Y-104162761D01*
X73032857Y-104115142D01*
X86606142Y-100910380D02*
X86272809Y-100434190D01*
X86034714Y-100910380D02*
X86034714Y-99910380D01*
X86415666Y-99910380D01*
X86510904Y-99958000D01*
X86558523Y-100005619D01*
X86606142Y-100100857D01*
X86606142Y-100243714D01*
X86558523Y-100338952D01*
X86510904Y-100386571D01*
X86415666Y-100434190D01*
X86034714Y-100434190D01*
X87558523Y-100910380D02*
X86987095Y-100910380D01*
X87272809Y-100910380D02*
X87272809Y-99910380D01*
X87177571Y-100053238D01*
X87082333Y-100148476D01*
X86987095Y-100196095D01*
X87939476Y-100005619D02*
X87987095Y-99958000D01*
X88082333Y-99910380D01*
X88320428Y-99910380D01*
X88415666Y-99958000D01*
X88463285Y-100005619D01*
X88510904Y-100100857D01*
X88510904Y-100196095D01*
X88463285Y-100338952D01*
X87891857Y-100910380D01*
X88510904Y-100910380D01*
X71747142Y-109290380D02*
X71413809Y-108814190D01*
X71175714Y-109290380D02*
X71175714Y-108290380D01*
X71556666Y-108290380D01*
X71651904Y-108338000D01*
X71699523Y-108385619D01*
X71747142Y-108480857D01*
X71747142Y-108623714D01*
X71699523Y-108718952D01*
X71651904Y-108766571D01*
X71556666Y-108814190D01*
X71175714Y-108814190D01*
X72699523Y-109290380D02*
X72128095Y-109290380D01*
X72413809Y-109290380D02*
X72413809Y-108290380D01*
X72318571Y-108433238D01*
X72223333Y-108528476D01*
X72128095Y-108576095D01*
X73651904Y-109290380D02*
X73080476Y-109290380D01*
X73366190Y-109290380D02*
X73366190Y-108290380D01*
X73270952Y-108433238D01*
X73175714Y-108528476D01*
X73080476Y-108576095D01*
X72223333Y-99257380D02*
X71890000Y-98781190D01*
X71651904Y-99257380D02*
X71651904Y-98257380D01*
X72032857Y-98257380D01*
X72128095Y-98305000D01*
X72175714Y-98352619D01*
X72223333Y-98447857D01*
X72223333Y-98590714D01*
X72175714Y-98685952D01*
X72128095Y-98733571D01*
X72032857Y-98781190D01*
X71651904Y-98781190D01*
X73080476Y-98257380D02*
X72890000Y-98257380D01*
X72794761Y-98305000D01*
X72747142Y-98352619D01*
X72651904Y-98495476D01*
X72604285Y-98685952D01*
X72604285Y-99066904D01*
X72651904Y-99162142D01*
X72699523Y-99209761D01*
X72794761Y-99257380D01*
X72985238Y-99257380D01*
X73080476Y-99209761D01*
X73128095Y-99162142D01*
X73175714Y-99066904D01*
X73175714Y-98828809D01*
X73128095Y-98733571D01*
X73080476Y-98685952D01*
X72985238Y-98638333D01*
X72794761Y-98638333D01*
X72699523Y-98685952D01*
X72651904Y-98733571D01*
X72604285Y-98828809D01*
X72223333Y-103450380D02*
X71890000Y-102974190D01*
X71651904Y-103450380D02*
X71651904Y-102450380D01*
X72032857Y-102450380D01*
X72128095Y-102498000D01*
X72175714Y-102545619D01*
X72223333Y-102640857D01*
X72223333Y-102783714D01*
X72175714Y-102878952D01*
X72128095Y-102926571D01*
X72032857Y-102974190D01*
X71651904Y-102974190D01*
X73128095Y-102450380D02*
X72651904Y-102450380D01*
X72604285Y-102926571D01*
X72651904Y-102878952D01*
X72747142Y-102831333D01*
X72985238Y-102831333D01*
X73080476Y-102878952D01*
X73128095Y-102926571D01*
X73175714Y-103021809D01*
X73175714Y-103259904D01*
X73128095Y-103355142D01*
X73080476Y-103402761D01*
X72985238Y-103450380D01*
X72747142Y-103450380D01*
X72651904Y-103402761D01*
X72604285Y-103355142D01*
X87082333Y-101670380D02*
X86749000Y-101194190D01*
X86510904Y-101670380D02*
X86510904Y-100670380D01*
X86891857Y-100670380D01*
X86987095Y-100718000D01*
X87034714Y-100765619D01*
X87082333Y-100860857D01*
X87082333Y-101003714D01*
X87034714Y-101098952D01*
X86987095Y-101146571D01*
X86891857Y-101194190D01*
X86510904Y-101194190D01*
X87939476Y-101003714D02*
X87939476Y-101670380D01*
X87701380Y-100622761D02*
X87463285Y-101337047D01*
X88082333Y-101337047D01*
X86955333Y-95830380D02*
X86622000Y-95354190D01*
X86383904Y-95830380D02*
X86383904Y-94830380D01*
X86764857Y-94830380D01*
X86860095Y-94878000D01*
X86907714Y-94925619D01*
X86955333Y-95020857D01*
X86955333Y-95163714D01*
X86907714Y-95258952D01*
X86860095Y-95306571D01*
X86764857Y-95354190D01*
X86383904Y-95354190D01*
X87288666Y-94830380D02*
X87907714Y-94830380D01*
X87574380Y-95211333D01*
X87717238Y-95211333D01*
X87812476Y-95258952D01*
X87860095Y-95306571D01*
X87907714Y-95401809D01*
X87907714Y-95639904D01*
X87860095Y-95735142D01*
X87812476Y-95782761D01*
X87717238Y-95830380D01*
X87431523Y-95830380D01*
X87336285Y-95782761D01*
X87288666Y-95735142D01*
X86955333Y-93417380D02*
X86622000Y-92941190D01*
X86383904Y-93417380D02*
X86383904Y-92417380D01*
X86764857Y-92417380D01*
X86860095Y-92465000D01*
X86907714Y-92512619D01*
X86955333Y-92607857D01*
X86955333Y-92750714D01*
X86907714Y-92845952D01*
X86860095Y-92893571D01*
X86764857Y-92941190D01*
X86383904Y-92941190D01*
X87336285Y-92512619D02*
X87383904Y-92465000D01*
X87479142Y-92417380D01*
X87717238Y-92417380D01*
X87812476Y-92465000D01*
X87860095Y-92512619D01*
X87907714Y-92607857D01*
X87907714Y-92703095D01*
X87860095Y-92845952D01*
X87288666Y-93417380D01*
X87907714Y-93417380D01*
X72223333Y-96717380D02*
X71890000Y-96241190D01*
X71651904Y-96717380D02*
X71651904Y-95717380D01*
X72032857Y-95717380D01*
X72128095Y-95765000D01*
X72175714Y-95812619D01*
X72223333Y-95907857D01*
X72223333Y-96050714D01*
X72175714Y-96145952D01*
X72128095Y-96193571D01*
X72032857Y-96241190D01*
X71651904Y-96241190D01*
X73175714Y-96717380D02*
X72604285Y-96717380D01*
X72890000Y-96717380D02*
X72890000Y-95717380D01*
X72794761Y-95860238D01*
X72699523Y-95955476D01*
X72604285Y-96003095D01*
X74322380Y-141382000D02*
X73322380Y-141382000D01*
X73322380Y-141001047D01*
X73370000Y-140905809D01*
X73417619Y-140858190D01*
X73512857Y-140810571D01*
X73655714Y-140810571D01*
X73750952Y-140858190D01*
X73798571Y-140905809D01*
X73846190Y-141001047D01*
X73846190Y-141382000D01*
X74322380Y-139810571D02*
X73846190Y-140143904D01*
X74322380Y-140382000D02*
X73322380Y-140382000D01*
X73322380Y-140001047D01*
X73370000Y-139905809D01*
X73417619Y-139858190D01*
X73512857Y-139810571D01*
X73655714Y-139810571D01*
X73750952Y-139858190D01*
X73798571Y-139905809D01*
X73846190Y-140001047D01*
X73846190Y-140382000D01*
X73322380Y-139191523D02*
X73322380Y-139001047D01*
X73370000Y-138905809D01*
X73465238Y-138810571D01*
X73655714Y-138762952D01*
X73989047Y-138762952D01*
X74179523Y-138810571D01*
X74274761Y-138905809D01*
X74322380Y-139001047D01*
X74322380Y-139191523D01*
X74274761Y-139286761D01*
X74179523Y-139382000D01*
X73989047Y-139429619D01*
X73655714Y-139429619D01*
X73465238Y-139382000D01*
X73370000Y-139286761D01*
X73322380Y-139191523D01*
X73370000Y-137810571D02*
X73322380Y-137905809D01*
X73322380Y-138048666D01*
X73370000Y-138191523D01*
X73465238Y-138286761D01*
X73560476Y-138334380D01*
X73750952Y-138382000D01*
X73893809Y-138382000D01*
X74084285Y-138334380D01*
X74179523Y-138286761D01*
X74274761Y-138191523D01*
X74322380Y-138048666D01*
X74322380Y-137953428D01*
X74274761Y-137810571D01*
X74227142Y-137762952D01*
X73893809Y-137762952D01*
X73893809Y-137953428D01*
X74322380Y-136762952D02*
X73846190Y-137096285D01*
X74322380Y-137334380D02*
X73322380Y-137334380D01*
X73322380Y-136953428D01*
X73370000Y-136858190D01*
X73417619Y-136810571D01*
X73512857Y-136762952D01*
X73655714Y-136762952D01*
X73750952Y-136810571D01*
X73798571Y-136858190D01*
X73846190Y-136953428D01*
X73846190Y-137334380D01*
X74417619Y-136572476D02*
X74417619Y-135810571D01*
X74322380Y-135572476D02*
X73322380Y-135572476D01*
X73798571Y-135572476D02*
X73798571Y-135001047D01*
X74322380Y-135001047D02*
X73322380Y-135001047D01*
X73798571Y-134524857D02*
X73798571Y-134191523D01*
X74322380Y-134048666D02*
X74322380Y-134524857D01*
X73322380Y-134524857D01*
X73322380Y-134048666D01*
X74036666Y-133667714D02*
X74036666Y-133191523D01*
X74322380Y-133762952D02*
X73322380Y-133429619D01*
X74322380Y-133096285D01*
X74322380Y-132762952D02*
X73322380Y-132762952D01*
X73322380Y-132524857D01*
X73370000Y-132382000D01*
X73465238Y-132286761D01*
X73560476Y-132239142D01*
X73750952Y-132191523D01*
X73893809Y-132191523D01*
X74084285Y-132239142D01*
X74179523Y-132286761D01*
X74274761Y-132382000D01*
X74322380Y-132524857D01*
X74322380Y-132762952D01*
X73798571Y-131762952D02*
X73798571Y-131429619D01*
X74322380Y-131286761D02*
X74322380Y-131762952D01*
X73322380Y-131762952D01*
X73322380Y-131286761D01*
X74322380Y-130286761D02*
X73846190Y-130620095D01*
X74322380Y-130858190D02*
X73322380Y-130858190D01*
X73322380Y-130477238D01*
X73370000Y-130382000D01*
X73417619Y-130334380D01*
X73512857Y-130286761D01*
X73655714Y-130286761D01*
X73750952Y-130334380D01*
X73798571Y-130382000D01*
X73846190Y-130477238D01*
X73846190Y-130858190D01*
X74322380Y-129334380D02*
X74322380Y-129905809D01*
X74322380Y-129620095D02*
X73322380Y-129620095D01*
X73465238Y-129715333D01*
X73560476Y-129810571D01*
X73608095Y-129905809D01*
X82851666Y-128918571D02*
X82518333Y-128918571D01*
X82518333Y-129442380D02*
X82518333Y-128442380D01*
X82994523Y-128442380D01*
X83899285Y-129442380D02*
X83327857Y-129442380D01*
X83613571Y-129442380D02*
X83613571Y-128442380D01*
X83518333Y-128585238D01*
X83423095Y-128680476D01*
X83327857Y-128728095D01*
X85448380Y-106382095D02*
X84448380Y-106382095D01*
X84448380Y-106144000D01*
X84496000Y-106001142D01*
X84591238Y-105905904D01*
X84686476Y-105858285D01*
X84876952Y-105810666D01*
X85019809Y-105810666D01*
X85210285Y-105858285D01*
X85305523Y-105905904D01*
X85400761Y-106001142D01*
X85448380Y-106144000D01*
X85448380Y-106382095D01*
X84448380Y-104953523D02*
X84448380Y-105144000D01*
X84496000Y-105239238D01*
X84543619Y-105286857D01*
X84686476Y-105382095D01*
X84876952Y-105429714D01*
X85257904Y-105429714D01*
X85353142Y-105382095D01*
X85400761Y-105334476D01*
X85448380Y-105239238D01*
X85448380Y-105048761D01*
X85400761Y-104953523D01*
X85353142Y-104905904D01*
X85257904Y-104858285D01*
X85019809Y-104858285D01*
X84924571Y-104905904D01*
X84876952Y-104953523D01*
X84829333Y-105048761D01*
X84829333Y-105239238D01*
X84876952Y-105334476D01*
X84924571Y-105382095D01*
X85019809Y-105429714D01*
X78842142Y-127007857D02*
X78889761Y-127055476D01*
X78937380Y-127198333D01*
X78937380Y-127293571D01*
X78889761Y-127436428D01*
X78794523Y-127531666D01*
X78699285Y-127579285D01*
X78508809Y-127626904D01*
X78365952Y-127626904D01*
X78175476Y-127579285D01*
X78080238Y-127531666D01*
X77985000Y-127436428D01*
X77937380Y-127293571D01*
X77937380Y-127198333D01*
X77985000Y-127055476D01*
X78032619Y-127007857D01*
X78937380Y-126055476D02*
X78937380Y-126626904D01*
X78937380Y-126341190D02*
X77937380Y-126341190D01*
X78080238Y-126436428D01*
X78175476Y-126531666D01*
X78223095Y-126626904D01*
X78937380Y-125103095D02*
X78937380Y-125674523D01*
X78937380Y-125388809D02*
X77937380Y-125388809D01*
X78080238Y-125484047D01*
X78175476Y-125579285D01*
X78223095Y-125674523D01*
X81763142Y-126531666D02*
X81810761Y-126579285D01*
X81858380Y-126722142D01*
X81858380Y-126817380D01*
X81810761Y-126960238D01*
X81715523Y-127055476D01*
X81620285Y-127103095D01*
X81429809Y-127150714D01*
X81286952Y-127150714D01*
X81096476Y-127103095D01*
X81001238Y-127055476D01*
X80906000Y-126960238D01*
X80858380Y-126817380D01*
X80858380Y-126722142D01*
X80906000Y-126579285D01*
X80953619Y-126531666D01*
X80858380Y-126198333D02*
X80858380Y-125531666D01*
X81858380Y-125960238D01*
X84049142Y-126531666D02*
X84096761Y-126579285D01*
X84144380Y-126722142D01*
X84144380Y-126817380D01*
X84096761Y-126960238D01*
X84001523Y-127055476D01*
X83906285Y-127103095D01*
X83715809Y-127150714D01*
X83572952Y-127150714D01*
X83382476Y-127103095D01*
X83287238Y-127055476D01*
X83192000Y-126960238D01*
X83144380Y-126817380D01*
X83144380Y-126722142D01*
X83192000Y-126579285D01*
X83239619Y-126531666D01*
X83144380Y-125674523D02*
X83144380Y-125865000D01*
X83192000Y-125960238D01*
X83239619Y-126007857D01*
X83382476Y-126103095D01*
X83572952Y-126150714D01*
X83953904Y-126150714D01*
X84049142Y-126103095D01*
X84096761Y-126055476D01*
X84144380Y-125960238D01*
X84144380Y-125769761D01*
X84096761Y-125674523D01*
X84049142Y-125626904D01*
X83953904Y-125579285D01*
X83715809Y-125579285D01*
X83620571Y-125626904D01*
X83572952Y-125674523D01*
X83525333Y-125769761D01*
X83525333Y-125960238D01*
X83572952Y-126055476D01*
X83620571Y-126103095D01*
X83715809Y-126150714D01*
X88621142Y-126531666D02*
X88668761Y-126579285D01*
X88716380Y-126722142D01*
X88716380Y-126817380D01*
X88668761Y-126960238D01*
X88573523Y-127055476D01*
X88478285Y-127103095D01*
X88287809Y-127150714D01*
X88144952Y-127150714D01*
X87954476Y-127103095D01*
X87859238Y-127055476D01*
X87764000Y-126960238D01*
X87716380Y-126817380D01*
X87716380Y-126722142D01*
X87764000Y-126579285D01*
X87811619Y-126531666D01*
X87716380Y-125626904D02*
X87716380Y-126103095D01*
X88192571Y-126150714D01*
X88144952Y-126103095D01*
X88097333Y-126007857D01*
X88097333Y-125769761D01*
X88144952Y-125674523D01*
X88192571Y-125626904D01*
X88287809Y-125579285D01*
X88525904Y-125579285D01*
X88621142Y-125626904D01*
X88668761Y-125674523D01*
X88716380Y-125769761D01*
X88716380Y-126007857D01*
X88668761Y-126103095D01*
X88621142Y-126150714D01*
X86335142Y-126531666D02*
X86382761Y-126579285D01*
X86430380Y-126722142D01*
X86430380Y-126817380D01*
X86382761Y-126960238D01*
X86287523Y-127055476D01*
X86192285Y-127103095D01*
X86001809Y-127150714D01*
X85858952Y-127150714D01*
X85668476Y-127103095D01*
X85573238Y-127055476D01*
X85478000Y-126960238D01*
X85430380Y-126817380D01*
X85430380Y-126722142D01*
X85478000Y-126579285D01*
X85525619Y-126531666D01*
X85763714Y-125674523D02*
X86430380Y-125674523D01*
X85382761Y-125912619D02*
X86097047Y-126150714D01*
X86097047Y-125531666D01*
X72223333Y-98402142D02*
X72175714Y-98449761D01*
X72032857Y-98497380D01*
X71937619Y-98497380D01*
X71794761Y-98449761D01*
X71699523Y-98354523D01*
X71651904Y-98259285D01*
X71604285Y-98068809D01*
X71604285Y-97925952D01*
X71651904Y-97735476D01*
X71699523Y-97640238D01*
X71794761Y-97545000D01*
X71937619Y-97497380D01*
X72032857Y-97497380D01*
X72175714Y-97545000D01*
X72223333Y-97592619D01*
X72556666Y-97497380D02*
X73175714Y-97497380D01*
X72842380Y-97878333D01*
X72985238Y-97878333D01*
X73080476Y-97925952D01*
X73128095Y-97973571D01*
X73175714Y-98068809D01*
X73175714Y-98306904D01*
X73128095Y-98402142D01*
X73080476Y-98449761D01*
X72985238Y-98497380D01*
X72699523Y-98497380D01*
X72604285Y-98449761D01*
X72556666Y-98402142D01*
X74145142Y-105576666D02*
X74192761Y-105624285D01*
X74240380Y-105767142D01*
X74240380Y-105862380D01*
X74192761Y-106005238D01*
X74097523Y-106100476D01*
X74002285Y-106148095D01*
X73811809Y-106195714D01*
X73668952Y-106195714D01*
X73478476Y-106148095D01*
X73383238Y-106100476D01*
X73288000Y-106005238D01*
X73240380Y-105862380D01*
X73240380Y-105767142D01*
X73288000Y-105624285D01*
X73335619Y-105576666D01*
X73335619Y-105195714D02*
X73288000Y-105148095D01*
X73240380Y-105052857D01*
X73240380Y-104814761D01*
X73288000Y-104719523D01*
X73335619Y-104671904D01*
X73430857Y-104624285D01*
X73526095Y-104624285D01*
X73668952Y-104671904D01*
X74240380Y-105243333D01*
X74240380Y-104624285D01*
X82908142Y-105576666D02*
X82955761Y-105624285D01*
X83003380Y-105767142D01*
X83003380Y-105862380D01*
X82955761Y-106005238D01*
X82860523Y-106100476D01*
X82765285Y-106148095D01*
X82574809Y-106195714D01*
X82431952Y-106195714D01*
X82241476Y-106148095D01*
X82146238Y-106100476D01*
X82051000Y-106005238D01*
X82003380Y-105862380D01*
X82003380Y-105767142D01*
X82051000Y-105624285D01*
X82098619Y-105576666D01*
X83003380Y-104624285D02*
X83003380Y-105195714D01*
X83003380Y-104910000D02*
X82003380Y-104910000D01*
X82146238Y-105005238D01*
X82241476Y-105100476D01*
X82289095Y-105195714D01*
M02*
