M48
; DRILL file {KiCad (5.1.2)-2} date 2019/10/26 星期六 12:53:42
; FORMAT={-:-/ absolute / inch / decimal}
; #@! TF.CreationDate,2019-10-26T12:53:42+08:00
; #@! TF.GenerationSoftware,Kicad,Pcbnew,(5.1.2)-2
; #@! TF.FileFunction,Plated,1,2,PTH
FMAT,2
INCH
T1C0.0157
T2C0.0394
T3C0.1260
%
G90
G05
T1
X3.6674Y-3.0371
X4.03Y-2.1723
X4.2108Y-2.899
X4.4173Y-4.59
X4.7408Y-3.2133
X4.9244Y-3.6697
X4.938Y-2.7262
X5.051Y-2.9363
X5.3161Y-2.8922
X5.4647Y-4.8682
X5.4909Y-5.2744
X5.8508Y-2.0717
X6.0922Y-2.8254
X6.2335Y-4.5585
X6.2402Y-2.9322
X6.2505Y-5.1892
X6.2819Y-2.3953
X6.4516Y-2.7149
X6.6652Y-4.1703
X6.8627Y-2.9473
X7.2385Y-2.8071
X7.2786Y-2.4235
X7.7177Y-2.9777
X7.7286Y-6.0687
X7.7329Y-2.9479
X7.7965Y-4.8743
X7.8173Y-2.2278
X7.8173Y-2.5609
X7.8177Y-2.3011
X7.9047Y-2.2866
X7.9049Y-2.5267
X7.9066Y-2.3444
X7.9114Y-2.3899
X7.9182Y-2.7844
X7.9721Y-2.7834
X8.0481Y-2.6963
X8.0914Y-2.6967
X8.0997Y-4.7127
X8.1347Y-2.6965
X8.1779Y-2.6956
X8.2212Y-2.7833
X8.395Y-2.6242
X8.406Y-2.6615
T2
X5.7965Y-3.425
X6.1035Y-3.425
X7.2965Y-2.85
X7.6035Y-2.85
X5.0465Y-3.525
X5.3535Y-3.525
X4.2965Y-2.95
X4.6035Y-2.95
X4.2965Y-5.2
X4.6035Y-5.2
X6.5465Y-3.525
X6.8535Y-3.525
X5.575Y-5.2965
X5.575Y-5.6035
X6.5465Y-5.025
X6.8535Y-5.025
X7.2965Y-4.35
X7.6035Y-4.35
X5.0465Y-5.025
X5.3535Y-5.025
X7.3603Y-5.8383
X7.4397Y-5.5417
X4.2965Y-3.7
X4.6035Y-3.7
X7.875Y-3.6902
X7.875Y-3.9973
X5.7965Y-2.675
X6.1035Y-2.675
X7.2965Y-5.1
X7.6035Y-5.1
X8.06Y-4.34
X8.06Y-4.44
X8.06Y-4.54
X8.06Y-4.64
X5.0465Y-2.775
X5.3535Y-2.775
X6.325Y-5.1965
X6.325Y-5.5035
X7.5233Y-6.1107
X7.7892Y-6.2643
X3.4465Y-4.45
X3.7535Y-4.45
X5.7965Y-4.925
X6.1035Y-4.925
X3.4465Y-2.95
X3.7535Y-2.95
X7.2965Y-3.6
X7.6035Y-3.6
X3.4465Y-3.7
X3.7535Y-3.7
X8.042Y-5.2232
X8.308Y-5.3768
X8.0465Y-3.225
X8.3535Y-3.225
X6.5465Y-4.275
X6.8535Y-4.275
X6.5465Y-2.775
X6.8535Y-2.775
X4.2965Y-4.45
X4.6035Y-4.45
X5.0465Y-4.275
X5.3535Y-4.275
X3.4465Y-5.2
X3.7535Y-5.2
X5.7965Y-4.175
X6.1035Y-4.175
T3
X8.3125Y-5.5938
X6.375Y-5.6562
X4.05Y-5.075
X8.2188Y-3.42
X3.36Y-2.12
T0
M30
