G04 #@! TF.GenerationSoftware,KiCad,Pcbnew,(5.1.2)-2*
G04 #@! TF.CreationDate,2019-10-26T12:53:45+08:00*
G04 #@! TF.ProjectId,redox_rev1_routed3,7265646f-785f-4726-9576-315f726f7574,1.0*
G04 #@! TF.SameCoordinates,Original*
G04 #@! TF.FileFunction,Paste,Top*
G04 #@! TF.FilePolarity,Positive*
%FSLAX46Y46*%
G04 Gerber Fmt 4.6, Leading zero omitted, Abs format (unit mm)*
G04 Created by KiCad (PCBNEW (5.1.2)-2) date 2019-10-26 12:53:45*
%MOMM*%
%LPD*%
G04 APERTURE LIST*
%ADD10C,2.000000*%
%ADD11C,0.100000*%
%ADD12R,2.300000X2.000000*%
%ADD13R,2.000000X2.300000*%
%ADD14C,1.200000*%
%ADD15R,1.198880X0.698500*%
%ADD16R,0.698500X1.198880*%
%ADD17R,1.200000X1.200000*%
%ADD18R,1.270000X5.080000*%
%ADD19R,3.960000X3.960000*%
%ADD20R,1.250000X2.500000*%
G04 APERTURE END LIST*
D10*
X172349376Y-135184191D03*
D11*
G36*
X173719010Y-134515907D02*
G01*
X173201372Y-136447759D01*
X170979742Y-135852475D01*
X171497380Y-133920623D01*
X173719010Y-134515907D01*
X173719010Y-134515907D01*
G37*
D10*
X183959234Y-140924645D03*
D11*
G36*
X185328868Y-140256361D02*
G01*
X184811230Y-142188213D01*
X182589600Y-141592929D01*
X183107238Y-139661077D01*
X185328868Y-140256361D01*
X185328868Y-140256361D01*
G37*
D12*
X85740000Y-118705000D03*
X98440000Y-121245000D03*
X85740000Y-99655000D03*
X98440000Y-102195000D03*
X85740000Y-80605000D03*
X98440000Y-83145000D03*
X97140000Y-71795000D03*
X84440000Y-69255000D03*
X145430000Y-130770000D03*
X158130000Y-133310000D03*
X139080000Y-135850000D03*
X126380000Y-133310000D03*
X183530000Y-116165000D03*
X196230000Y-118705000D03*
X164480000Y-114260000D03*
X177180000Y-116800000D03*
X145430000Y-111720000D03*
X158130000Y-114260000D03*
X126380000Y-114260000D03*
X139080000Y-116800000D03*
X107330000Y-118705000D03*
X120030000Y-121245000D03*
D10*
X209713655Y-120350950D03*
D11*
G36*
X211209584Y-120059925D02*
G01*
X210209584Y-121791975D01*
X208217726Y-120641975D01*
X209217726Y-118909925D01*
X211209584Y-120059925D01*
X211209584Y-120059925D01*
G37*
D10*
X219442178Y-128900654D03*
D11*
G36*
X220938107Y-128609629D02*
G01*
X219938107Y-130341679D01*
X217946249Y-129191679D01*
X218946249Y-127459629D01*
X220938107Y-128609629D01*
X220938107Y-128609629D01*
G37*
D12*
X183530000Y-97115000D03*
X196230000Y-99655000D03*
X164480000Y-95210000D03*
X177180000Y-97750000D03*
X145430000Y-92670000D03*
X158130000Y-95210000D03*
X126380000Y-95210000D03*
X139080000Y-97750000D03*
X107330000Y-99655000D03*
X120030000Y-102195000D03*
X183530000Y-78065000D03*
X196230000Y-80605000D03*
X164480000Y-76160000D03*
X177180000Y-78700000D03*
X145430000Y-73620000D03*
X158130000Y-76160000D03*
X126380000Y-76160000D03*
X139080000Y-78700000D03*
X107330000Y-80605000D03*
X120030000Y-83145000D03*
X213980000Y-78780000D03*
X201280000Y-76240000D03*
X194930000Y-69255000D03*
X182230000Y-66715000D03*
X175880000Y-67350000D03*
X163180000Y-64810000D03*
X156830000Y-64810000D03*
X144130000Y-62270000D03*
X137780000Y-67350000D03*
X125080000Y-64810000D03*
X118730000Y-71795000D03*
X106030000Y-69255000D03*
D13*
X213400000Y-92090000D03*
X210860000Y-104790000D03*
D10*
X207309050Y-146213655D03*
D11*
G36*
X207600075Y-147709584D02*
G01*
X205868025Y-146709584D01*
X207018025Y-144717726D01*
X208750075Y-145717726D01*
X207600075Y-147709584D01*
X207600075Y-147709584D01*
G37*
D10*
X198759346Y-155942178D03*
D11*
G36*
X199050371Y-157438107D02*
G01*
X197318321Y-156438107D01*
X198468321Y-154446249D01*
X200200371Y-155446249D01*
X199050371Y-157438107D01*
X199050371Y-157438107D01*
G37*
D14*
X187552360Y-146047333D03*
D11*
G36*
X187128096Y-145312486D02*
G01*
X188287207Y-145623069D01*
X187976624Y-146782180D01*
X186817513Y-146471597D01*
X187128096Y-145312486D01*
X187128096Y-145312486D01*
G37*
D14*
X188367640Y-143004667D03*
D11*
G36*
X187943376Y-142269820D02*
G01*
X189102487Y-142580403D01*
X188791904Y-143739514D01*
X187632793Y-143428931D01*
X187943376Y-142269820D01*
X187943376Y-142269820D01*
G37*
D14*
X193105010Y-156374500D03*
D11*
G36*
X193924625Y-156154885D02*
G01*
X193324625Y-157194115D01*
X192285395Y-156594115D01*
X192885395Y-155554885D01*
X193924625Y-156154885D01*
X193924625Y-156154885D01*
G37*
D14*
X195832990Y-157949500D03*
D11*
G36*
X196652605Y-157729885D02*
G01*
X196052605Y-158769115D01*
X195013375Y-158169115D01*
X195613375Y-157129885D01*
X196652605Y-157729885D01*
X196652605Y-157729885D01*
G37*
D15*
X199670920Y-67246500D03*
X214667080Y-60647580D03*
X214667080Y-59547760D03*
D16*
X201121260Y-69596000D03*
D15*
X199670920Y-65046860D03*
X199670920Y-63947040D03*
X199670920Y-62847220D03*
X199670920Y-61747400D03*
X199670920Y-60647580D03*
X199670920Y-59547760D03*
X199670920Y-58447940D03*
X199670920Y-57348120D03*
X199670920Y-56248300D03*
X214667080Y-55148480D03*
X214667080Y-56248300D03*
X214667080Y-57348120D03*
X214667080Y-58447940D03*
X214667080Y-61747400D03*
X214667080Y-62847220D03*
X214667080Y-63947040D03*
X214667080Y-65046860D03*
X214667080Y-66146680D03*
X214667080Y-67246500D03*
D16*
X213216740Y-69596000D03*
X212116920Y-69596000D03*
X211017100Y-69596000D03*
X209917280Y-69596000D03*
X208817460Y-69596000D03*
X207717640Y-69596000D03*
X206620360Y-69596000D03*
X205520540Y-69596000D03*
X204420720Y-69596000D03*
X203320900Y-69596000D03*
X202221080Y-69596000D03*
D15*
X199670920Y-55148480D03*
X199670920Y-66146680D03*
D17*
X89865000Y-74930000D03*
X93015000Y-74930000D03*
X111455000Y-74930000D03*
X114605000Y-74930000D03*
X130505000Y-70485000D03*
X133655000Y-70485000D03*
X149555000Y-67945000D03*
X152705000Y-67945000D03*
X168605000Y-70485000D03*
X171755000Y-70485000D03*
X187655000Y-72390000D03*
X190805000Y-72390000D03*
X206705000Y-81915000D03*
X209855000Y-81915000D03*
X89865000Y-93980000D03*
X93015000Y-93980000D03*
X111455000Y-93980000D03*
X114605000Y-93980000D03*
X130505000Y-89535000D03*
X133655000Y-89535000D03*
X149555000Y-86995000D03*
X152705000Y-86995000D03*
X168605000Y-89535000D03*
X171755000Y-89535000D03*
X187655000Y-91440000D03*
X190805000Y-91440000D03*
X200025000Y-99206200D03*
X200025000Y-96056200D03*
X89865000Y-113030000D03*
X93015000Y-113030000D03*
X111455000Y-113030000D03*
X114605000Y-113030000D03*
X130505000Y-108585000D03*
X133655000Y-108585000D03*
X149555000Y-106045000D03*
X152705000Y-106045000D03*
X168605000Y-108585000D03*
X171755000Y-108585000D03*
X187655000Y-110490000D03*
X190805000Y-110490000D03*
D14*
X206281010Y-133832500D03*
D11*
G36*
X207100625Y-133612885D02*
G01*
X206500625Y-134652115D01*
X205461395Y-134052115D01*
X206061395Y-133012885D01*
X207100625Y-133612885D01*
X207100625Y-133612885D01*
G37*
D14*
X209008990Y-135407500D03*
D11*
G36*
X209828605Y-135187885D02*
G01*
X209228605Y-136227115D01*
X208189375Y-135627115D01*
X208789375Y-134587885D01*
X209828605Y-135187885D01*
X209828605Y-135187885D01*
G37*
D17*
X89865000Y-132080000D03*
X93015000Y-132080000D03*
X111455000Y-132080000D03*
X114605000Y-132080000D03*
X130505000Y-127635000D03*
X133655000Y-127635000D03*
X149555000Y-125095000D03*
X152705000Y-125095000D03*
X168605000Y-127635000D03*
X171755000Y-127635000D03*
X187655000Y-129540000D03*
X190805000Y-129540000D03*
X141605000Y-140005000D03*
X141605000Y-136855000D03*
X160655000Y-137465000D03*
X160655000Y-134315000D03*
D18*
X113347000Y-57658000D03*
X91377000Y-57658000D03*
D19*
X102362000Y-57658000D03*
D20*
X149900000Y-53804000D03*
X152400000Y-53804000D03*
X154900000Y-53804000D03*
M02*
