G04 #@! TF.GenerationSoftware,KiCad,Pcbnew,(5.1.2)-2*
G04 #@! TF.CreationDate,2019-10-26T12:53:45+08:00*
G04 #@! TF.ProjectId,redox_rev1_routed3,7265646f-785f-4726-9576-315f726f7574,1.0*
G04 #@! TF.SameCoordinates,Original*
G04 #@! TF.FileFunction,Soldermask,Bot*
G04 #@! TF.FilePolarity,Negative*
%FSLAX46Y46*%
G04 Gerber Fmt 4.6, Leading zero omitted, Abs format (unit mm)*
G04 Created by KiCad (PCBNEW (5.1.2)-2) date 2019-10-26 12:53:45*
%MOMM*%
%LPD*%
G04 APERTURE LIST*
%ADD10C,4.000000*%
%ADD11C,1.700000*%
%ADD12C,2.000000*%
%ADD13C,0.100000*%
%ADD14C,1.900000*%
%ADD15C,4.100000*%
%ADD16C,3.000000*%
%ADD17R,2.300000X2.000000*%
%ADD18R,2.000000X2.300000*%
%ADD19O,1.700000X1.700000*%
%ADD20R,1.700000X1.700000*%
%ADD21C,1.200000*%
%ADD22C,1.600000*%
%ADD23R,1.198880X0.698500*%
%ADD24R,0.698500X1.198880*%
%ADD25R,1.200000X1.200000*%
%ADD26R,1.600000X1.600000*%
%ADD27R,3.960000X3.960000*%
%ADD28R,1.270000X5.080000*%
%ADD29R,1.250000X2.500000*%
%ADD30C,0.900000*%
G04 APERTURE END LIST*
D10*
X211137500Y-142081250D03*
X85344000Y-53848000D03*
X208756250Y-86868000D03*
X102870000Y-128905000D03*
X161925000Y-143668750D03*
D11*
X180876666Y-142769686D03*
X172183334Y-140440314D03*
D12*
X183360931Y-138134728D03*
D13*
G36*
X184730565Y-137466444D02*
G01*
X184212927Y-139398296D01*
X181991297Y-138803012D01*
X182508935Y-136871160D01*
X184730565Y-137466444D01*
X184730565Y-137466444D01*
G37*
D14*
X171623097Y-140290199D03*
X181436903Y-142919801D03*
D15*
X176530000Y-141605000D03*
D16*
X180298252Y-137355497D03*
X180867578Y-140137648D03*
X175391349Y-136040696D03*
X173507223Y-138165448D03*
D12*
X170436272Y-137301178D03*
D13*
G36*
X171805906Y-136632894D02*
G01*
X171288268Y-138564746D01*
X169066638Y-137969462D01*
X169584276Y-136037610D01*
X171805906Y-136632894D01*
X171805906Y-136632894D01*
G37*
D11*
X95940000Y-123825000D03*
X86940000Y-123825000D03*
D17*
X97140000Y-118705000D03*
D14*
X86360000Y-123825000D03*
X96520000Y-123825000D03*
D15*
X91440000Y-123825000D03*
D16*
X93980000Y-118745000D03*
X95250000Y-121284999D03*
X88900000Y-118745000D03*
X87630000Y-121285000D03*
D17*
X84440000Y-121245000D03*
D11*
X95940000Y-104775000D03*
X86940000Y-104775000D03*
D17*
X97140000Y-99655000D03*
D14*
X86360000Y-104775000D03*
X96520000Y-104775000D03*
D15*
X91440000Y-104775000D03*
D16*
X93980000Y-99695000D03*
X95250000Y-102234999D03*
X88900000Y-99695000D03*
X87630000Y-102235000D03*
D17*
X84440000Y-102195000D03*
D11*
X95940000Y-85725000D03*
X86940000Y-85725000D03*
D17*
X97140000Y-80605000D03*
D14*
X86360000Y-85725000D03*
X96520000Y-85725000D03*
D15*
X91440000Y-85725000D03*
D16*
X93980000Y-80645000D03*
X95250000Y-83184999D03*
X88900000Y-80645000D03*
X87630000Y-83185000D03*
D17*
X84440000Y-83145000D03*
D11*
X86940000Y-66675000D03*
X95940000Y-66675000D03*
D17*
X85740000Y-71795000D03*
D14*
X96520000Y-66675000D03*
X86360000Y-66675000D03*
D15*
X91440000Y-66675000D03*
D16*
X88900000Y-71755000D03*
X87630000Y-69215001D03*
X93980000Y-71755000D03*
X95250000Y-69215000D03*
D17*
X98440000Y-69255000D03*
D11*
X155630000Y-135890000D03*
X146630000Y-135890000D03*
D17*
X156830000Y-130770000D03*
D14*
X146050000Y-135890000D03*
X156210000Y-135890000D03*
D15*
X151130000Y-135890000D03*
D16*
X153670000Y-130810000D03*
X154940000Y-133349999D03*
X148590000Y-130810000D03*
X147320000Y-133350000D03*
D17*
X144130000Y-133310000D03*
X125080000Y-135850000D03*
D16*
X128270000Y-135890000D03*
X129540000Y-133350000D03*
X135890000Y-135889999D03*
X134620000Y-133350000D03*
D15*
X132080000Y-138430000D03*
D14*
X137160000Y-138430000D03*
X127000000Y-138430000D03*
D17*
X137780000Y-133310000D03*
D11*
X127580000Y-138430000D03*
X136580000Y-138430000D03*
X193730000Y-121285000D03*
X184730000Y-121285000D03*
D17*
X194930000Y-116165000D03*
D14*
X184150000Y-121285000D03*
X194310000Y-121285000D03*
D15*
X189230000Y-121285000D03*
D16*
X191770000Y-116205000D03*
X193040000Y-118744999D03*
X186690000Y-116205000D03*
X185420000Y-118745000D03*
D17*
X182230000Y-118705000D03*
D11*
X174680000Y-119380000D03*
X165680000Y-119380000D03*
D17*
X175880000Y-114260000D03*
D14*
X165100000Y-119380000D03*
X175260000Y-119380000D03*
D15*
X170180000Y-119380000D03*
D16*
X172720000Y-114300000D03*
X173990000Y-116839999D03*
X167640000Y-114300000D03*
X166370000Y-116840000D03*
D17*
X163180000Y-116800000D03*
D11*
X155630000Y-116840000D03*
X146630000Y-116840000D03*
D17*
X156830000Y-111720000D03*
D14*
X146050000Y-116840000D03*
X156210000Y-116840000D03*
D15*
X151130000Y-116840000D03*
D16*
X153670000Y-111760000D03*
X154940000Y-114299999D03*
X148590000Y-111760000D03*
X147320000Y-114300000D03*
D17*
X144130000Y-114260000D03*
D11*
X136580000Y-119380000D03*
X127580000Y-119380000D03*
D17*
X137780000Y-114260000D03*
D14*
X127000000Y-119380000D03*
X137160000Y-119380000D03*
D15*
X132080000Y-119380000D03*
D16*
X134620000Y-114300000D03*
X135890000Y-116839999D03*
X129540000Y-114300000D03*
X128270000Y-116840000D03*
D17*
X125080000Y-116800000D03*
D11*
X117530000Y-123825000D03*
X108530000Y-123825000D03*
D17*
X118730000Y-118705000D03*
D14*
X107950000Y-123825000D03*
X118110000Y-123825000D03*
D15*
X113030000Y-123825000D03*
D16*
X115570000Y-118745000D03*
X116840000Y-121284999D03*
X110490000Y-118745000D03*
X109220000Y-121285000D03*
D17*
X106030000Y-121245000D03*
D11*
X215987114Y-129885000D03*
X208192886Y-125385000D03*
D12*
X219586345Y-126050950D03*
D13*
G36*
X221082274Y-125759925D02*
G01*
X220082274Y-127491975D01*
X218090416Y-126341975D01*
X219090416Y-124609925D01*
X221082274Y-125759925D01*
X221082274Y-125759925D01*
G37*
D14*
X207690591Y-125095000D03*
X216489409Y-130175000D03*
D15*
X212090000Y-127635000D03*
D16*
X216829705Y-124505591D03*
X216659557Y-127340295D03*
X212430295Y-121965591D03*
X210060443Y-123530295D03*
D12*
X207317822Y-121900654D03*
D13*
G36*
X208813751Y-121609629D02*
G01*
X207813751Y-123341679D01*
X205821893Y-122191679D01*
X206821893Y-120459629D01*
X208813751Y-121609629D01*
X208813751Y-121609629D01*
G37*
D11*
X193730000Y-102235000D03*
X184730000Y-102235000D03*
D17*
X194930000Y-97115000D03*
D14*
X184150000Y-102235000D03*
X194310000Y-102235000D03*
D15*
X189230000Y-102235000D03*
D16*
X191770000Y-97155000D03*
X193040000Y-99694999D03*
X186690000Y-97155000D03*
X185420000Y-99695000D03*
D17*
X182230000Y-99655000D03*
D11*
X174680000Y-100330000D03*
X165680000Y-100330000D03*
D17*
X175880000Y-95210000D03*
D14*
X165100000Y-100330000D03*
X175260000Y-100330000D03*
D15*
X170180000Y-100330000D03*
D16*
X172720000Y-95250000D03*
X173990000Y-97789999D03*
X167640000Y-95250000D03*
X166370000Y-97790000D03*
D17*
X163180000Y-97750000D03*
D11*
X155630000Y-97790000D03*
X146630000Y-97790000D03*
D17*
X156830000Y-92670000D03*
D14*
X146050000Y-97790000D03*
X156210000Y-97790000D03*
D15*
X151130000Y-97790000D03*
D16*
X153670000Y-92710000D03*
X154940000Y-95249999D03*
X148590000Y-92710000D03*
X147320000Y-95250000D03*
D17*
X144130000Y-95210000D03*
D11*
X136580000Y-100330000D03*
X127580000Y-100330000D03*
D17*
X137780000Y-95210000D03*
D14*
X127000000Y-100330000D03*
X137160000Y-100330000D03*
D15*
X132080000Y-100330000D03*
D16*
X134620000Y-95250000D03*
X135890000Y-97789999D03*
X129540000Y-95250000D03*
X128270000Y-97790000D03*
D17*
X125080000Y-97750000D03*
D11*
X117530000Y-104775000D03*
X108530000Y-104775000D03*
D17*
X118730000Y-99655000D03*
D14*
X107950000Y-104775000D03*
X118110000Y-104775000D03*
D15*
X113030000Y-104775000D03*
D16*
X115570000Y-99695000D03*
X116840000Y-102234999D03*
X110490000Y-99695000D03*
X109220000Y-102235000D03*
D17*
X106030000Y-102195000D03*
D11*
X193730000Y-83185000D03*
X184730000Y-83185000D03*
D17*
X194930000Y-78065000D03*
D14*
X184150000Y-83185000D03*
X194310000Y-83185000D03*
D15*
X189230000Y-83185000D03*
D16*
X191770000Y-78105000D03*
X193040000Y-80644999D03*
X186690000Y-78105000D03*
X185420000Y-80645000D03*
D17*
X182230000Y-80605000D03*
D11*
X174680000Y-81280000D03*
X165680000Y-81280000D03*
D17*
X175880000Y-76160000D03*
D14*
X165100000Y-81280000D03*
X175260000Y-81280000D03*
D15*
X170180000Y-81280000D03*
D16*
X172720000Y-76200000D03*
X173990000Y-78739999D03*
X167640000Y-76200000D03*
X166370000Y-78740000D03*
D17*
X163180000Y-78700000D03*
D11*
X155630000Y-78740000D03*
X146630000Y-78740000D03*
D17*
X156830000Y-73620000D03*
D14*
X146050000Y-78740000D03*
X156210000Y-78740000D03*
D15*
X151130000Y-78740000D03*
D16*
X153670000Y-73660000D03*
X154940000Y-76199999D03*
X148590000Y-73660000D03*
X147320000Y-76200000D03*
D17*
X144130000Y-76160000D03*
D11*
X136580000Y-81280000D03*
X127580000Y-81280000D03*
D17*
X137780000Y-76160000D03*
D14*
X127000000Y-81280000D03*
X137160000Y-81280000D03*
D15*
X132080000Y-81280000D03*
D16*
X134620000Y-76200000D03*
X135890000Y-78739999D03*
X129540000Y-76200000D03*
X128270000Y-78740000D03*
D17*
X125080000Y-78700000D03*
D11*
X117530000Y-85725000D03*
X108530000Y-85725000D03*
D17*
X118730000Y-80605000D03*
D14*
X107950000Y-85725000D03*
X118110000Y-85725000D03*
D15*
X113030000Y-85725000D03*
D16*
X115570000Y-80645000D03*
X116840000Y-83184999D03*
X110490000Y-80645000D03*
X109220000Y-83185000D03*
D17*
X106030000Y-83145000D03*
D11*
X203780000Y-73660000D03*
X212780000Y-73660000D03*
D17*
X202580000Y-78780000D03*
D14*
X213360000Y-73660000D03*
X203200000Y-73660000D03*
D15*
X208280000Y-73660000D03*
D16*
X205740000Y-78740000D03*
X204470000Y-76200001D03*
X210820000Y-78740000D03*
X212090000Y-76200000D03*
D17*
X215280000Y-76240000D03*
D11*
X184730000Y-64135000D03*
X193730000Y-64135000D03*
D17*
X183530000Y-69255000D03*
D14*
X194310000Y-64135000D03*
X184150000Y-64135000D03*
D15*
X189230000Y-64135000D03*
D16*
X186690000Y-69215000D03*
X185420000Y-66675001D03*
X191770000Y-69215000D03*
X193040000Y-66675000D03*
D17*
X196230000Y-66715000D03*
D11*
X165680000Y-62230000D03*
X174680000Y-62230000D03*
D17*
X164480000Y-67350000D03*
D14*
X175260000Y-62230000D03*
X165100000Y-62230000D03*
D15*
X170180000Y-62230000D03*
D16*
X167640000Y-67310000D03*
X166370000Y-64770001D03*
X172720000Y-67310000D03*
X173990000Y-64770000D03*
D17*
X177180000Y-64810000D03*
D11*
X146630000Y-59690000D03*
X155630000Y-59690000D03*
D17*
X145430000Y-64810000D03*
D14*
X156210000Y-59690000D03*
X146050000Y-59690000D03*
D15*
X151130000Y-59690000D03*
D16*
X148590000Y-64770000D03*
X147320000Y-62230001D03*
X153670000Y-64770000D03*
X154940000Y-62230000D03*
D17*
X158130000Y-62270000D03*
D11*
X127580000Y-62230000D03*
X136580000Y-62230000D03*
D17*
X126380000Y-67350000D03*
D14*
X137160000Y-62230000D03*
X127000000Y-62230000D03*
D15*
X132080000Y-62230000D03*
D16*
X129540000Y-67310000D03*
X128270000Y-64770001D03*
X134620000Y-67310000D03*
X135890000Y-64770000D03*
D17*
X139080000Y-64810000D03*
D11*
X108530000Y-66675000D03*
X117530000Y-66675000D03*
D17*
X107330000Y-71795000D03*
D14*
X118110000Y-66675000D03*
X107950000Y-66675000D03*
D15*
X113030000Y-66675000D03*
D16*
X110490000Y-71755000D03*
X109220000Y-69215001D03*
X115570000Y-71755000D03*
X116840000Y-69215000D03*
D17*
X120030000Y-69255000D03*
D11*
X208280000Y-102290000D03*
X208280000Y-93290000D03*
D18*
X213400000Y-103490000D03*
D14*
X208280000Y-92710000D03*
X208280000Y-102870000D03*
D15*
X208280000Y-97790000D03*
D16*
X213360000Y-100330000D03*
X210820001Y-101600000D03*
X213360000Y-95250000D03*
X210820000Y-93980000D03*
D18*
X210860000Y-90790000D03*
D11*
X197775000Y-152487114D03*
X202275000Y-144692886D03*
D12*
X201609050Y-156086345D03*
D13*
G36*
X201900075Y-157582274D02*
G01*
X200168025Y-156582274D01*
X201318025Y-154590416D01*
X203050075Y-155590416D01*
X201900075Y-157582274D01*
X201900075Y-157582274D01*
G37*
D14*
X202565000Y-144190591D03*
X197485000Y-152989409D03*
D15*
X200025000Y-148590000D03*
D16*
X203154409Y-153329705D03*
X200319705Y-153159557D03*
X205694409Y-148930295D03*
X204129705Y-146560443D03*
D12*
X205759346Y-143817822D03*
D13*
G36*
X206050371Y-145313751D02*
G01*
X204318321Y-144313751D01*
X205468321Y-142321893D01*
X207200371Y-143321893D01*
X206050371Y-145313751D01*
X206050371Y-145313751D01*
G37*
D19*
X204724000Y-110236000D03*
X204724000Y-112776000D03*
X204724000Y-115316000D03*
D20*
X204724000Y-117856000D03*
D21*
X188367640Y-143004667D03*
D13*
G36*
X187943376Y-142269820D02*
G01*
X189102487Y-142580403D01*
X188791904Y-143739514D01*
X187632793Y-143428931D01*
X187943376Y-142269820D01*
X187943376Y-142269820D01*
G37*
D21*
X187552360Y-146047333D03*
D13*
G36*
X187128096Y-145312486D02*
G01*
X188287207Y-145623069D01*
X187976624Y-146782180D01*
X186817513Y-146471597D01*
X187128096Y-145312486D01*
X187128096Y-145312486D01*
G37*
D22*
X188969394Y-140758889D03*
X186950606Y-148293111D03*
D13*
G36*
X186384921Y-147313315D02*
G01*
X187930402Y-147727426D01*
X187516291Y-149272907D01*
X185970810Y-148858796D01*
X186384921Y-147313315D01*
X186384921Y-147313315D01*
G37*
D21*
X195832990Y-157949500D03*
D13*
G36*
X196652605Y-157729885D02*
G01*
X196052605Y-158769115D01*
X195013375Y-158169115D01*
X195613375Y-157129885D01*
X196652605Y-157729885D01*
X196652605Y-157729885D01*
G37*
D21*
X193105010Y-156374500D03*
D13*
G36*
X193924625Y-156154885D02*
G01*
X193324625Y-157194115D01*
X192285395Y-156594115D01*
X192885395Y-155554885D01*
X193924625Y-156154885D01*
X193924625Y-156154885D01*
G37*
D22*
X197846499Y-159112000D03*
X191091501Y-155212000D03*
D13*
G36*
X192184321Y-154919180D02*
G01*
X191384321Y-156304820D01*
X189998681Y-155504820D01*
X190798681Y-154119180D01*
X192184321Y-154919180D01*
X192184321Y-154919180D01*
G37*
D23*
X214667080Y-67246500D03*
X199670920Y-60647580D03*
X199670920Y-59547760D03*
D24*
X213216740Y-69596000D03*
D23*
X214667080Y-65046860D03*
X214667080Y-63947040D03*
X214667080Y-62847220D03*
X214667080Y-61747400D03*
X214667080Y-60647580D03*
X214667080Y-59547760D03*
X214667080Y-58447940D03*
X214667080Y-57348120D03*
X214667080Y-56248300D03*
X199670920Y-55148480D03*
X199670920Y-56248300D03*
X199670920Y-57348120D03*
X199670920Y-58447940D03*
X199670920Y-61747400D03*
X199670920Y-62847220D03*
X199670920Y-63947040D03*
X199670920Y-65046860D03*
X199670920Y-66146680D03*
X199670920Y-67246500D03*
D24*
X201121260Y-69596000D03*
X202221080Y-69596000D03*
X203320900Y-69596000D03*
X204420720Y-69596000D03*
X205520540Y-69596000D03*
X206620360Y-69596000D03*
X207717640Y-69596000D03*
X208817460Y-69596000D03*
X209917280Y-69596000D03*
X211017100Y-69596000D03*
X212116920Y-69596000D03*
D23*
X214667080Y-55148480D03*
X214667080Y-66146680D03*
D25*
X93015000Y-74930000D03*
X89865000Y-74930000D03*
D22*
X95340000Y-74930000D03*
D26*
X87540000Y-74930000D03*
D25*
X114605000Y-74930000D03*
X111455000Y-74930000D03*
D22*
X116930000Y-74930000D03*
D26*
X109130000Y-74930000D03*
D25*
X133655000Y-70485000D03*
X130505000Y-70485000D03*
D22*
X135980000Y-70485000D03*
D26*
X128180000Y-70485000D03*
D25*
X152705000Y-67945000D03*
X149555000Y-67945000D03*
D22*
X155030000Y-67945000D03*
D26*
X147230000Y-67945000D03*
D25*
X171755000Y-70485000D03*
X168605000Y-70485000D03*
D22*
X174080000Y-70485000D03*
D26*
X166280000Y-70485000D03*
D25*
X190805000Y-72390000D03*
X187655000Y-72390000D03*
D22*
X193130000Y-72390000D03*
D26*
X185330000Y-72390000D03*
D25*
X209855000Y-81915000D03*
X206705000Y-81915000D03*
D22*
X212180000Y-81915000D03*
D26*
X204380000Y-81915000D03*
D25*
X93015000Y-93980000D03*
X89865000Y-93980000D03*
D22*
X95340000Y-93980000D03*
D26*
X87540000Y-93980000D03*
D25*
X114605000Y-93980000D03*
X111455000Y-93980000D03*
D22*
X116930000Y-93980000D03*
D26*
X109130000Y-93980000D03*
D25*
X133655000Y-89535000D03*
X130505000Y-89535000D03*
D22*
X135980000Y-89535000D03*
D26*
X128180000Y-89535000D03*
D25*
X152705000Y-86995000D03*
X149555000Y-86995000D03*
D22*
X155030000Y-86995000D03*
D26*
X147230000Y-86995000D03*
D25*
X171755000Y-89535000D03*
X168605000Y-89535000D03*
D22*
X174080000Y-89535000D03*
D26*
X166280000Y-89535000D03*
D25*
X190805000Y-91440000D03*
X187655000Y-91440000D03*
D22*
X193130000Y-91440000D03*
D26*
X185330000Y-91440000D03*
X200025000Y-93731200D03*
D22*
X200025000Y-101531200D03*
D25*
X200025000Y-96056200D03*
X200025000Y-99206200D03*
X93015000Y-113030000D03*
X89865000Y-113030000D03*
D22*
X95340000Y-113030000D03*
D26*
X87540000Y-113030000D03*
D25*
X114605000Y-113030000D03*
X111455000Y-113030000D03*
D22*
X116930000Y-113030000D03*
D26*
X109130000Y-113030000D03*
D25*
X133655000Y-108585000D03*
X130505000Y-108585000D03*
D22*
X135980000Y-108585000D03*
D26*
X128180000Y-108585000D03*
D25*
X152705000Y-106045000D03*
X149555000Y-106045000D03*
D22*
X155030000Y-106045000D03*
D26*
X147230000Y-106045000D03*
D25*
X171755000Y-108585000D03*
X168605000Y-108585000D03*
D22*
X174080000Y-108585000D03*
D26*
X166280000Y-108585000D03*
D25*
X190805000Y-110490000D03*
X187655000Y-110490000D03*
D22*
X193130000Y-110490000D03*
D26*
X185330000Y-110490000D03*
D21*
X209008990Y-135407500D03*
D13*
G36*
X209828605Y-135187885D02*
G01*
X209228605Y-136227115D01*
X208189375Y-135627115D01*
X208789375Y-134587885D01*
X209828605Y-135187885D01*
X209828605Y-135187885D01*
G37*
D21*
X206281010Y-133832500D03*
D13*
G36*
X207100625Y-133612885D02*
G01*
X206500625Y-134652115D01*
X205461395Y-134052115D01*
X206061395Y-133012885D01*
X207100625Y-133612885D01*
X207100625Y-133612885D01*
G37*
D22*
X211022499Y-136570000D03*
X204267501Y-132670000D03*
D13*
G36*
X205360321Y-132377180D02*
G01*
X204560321Y-133762820D01*
X203174681Y-132962820D01*
X203974681Y-131577180D01*
X205360321Y-132377180D01*
X205360321Y-132377180D01*
G37*
D25*
X93015000Y-132080000D03*
X89865000Y-132080000D03*
D22*
X95340000Y-132080000D03*
D26*
X87540000Y-132080000D03*
D25*
X114605000Y-132080000D03*
X111455000Y-132080000D03*
D22*
X116930000Y-132080000D03*
D26*
X109130000Y-132080000D03*
D25*
X133655000Y-127635000D03*
X130505000Y-127635000D03*
D22*
X135980000Y-127635000D03*
D26*
X128180000Y-127635000D03*
D25*
X152705000Y-125095000D03*
X149555000Y-125095000D03*
D22*
X155030000Y-125095000D03*
D26*
X147230000Y-125095000D03*
D25*
X171755000Y-127635000D03*
X168605000Y-127635000D03*
D22*
X174080000Y-127635000D03*
D26*
X166280000Y-127635000D03*
D25*
X190805000Y-129540000D03*
X187655000Y-129540000D03*
D22*
X193130000Y-129540000D03*
D26*
X185330000Y-129540000D03*
D25*
X141605000Y-136855000D03*
X141605000Y-140005000D03*
D22*
X141605000Y-134530000D03*
D26*
X141605000Y-142330000D03*
D25*
X160655000Y-134315000D03*
X160655000Y-137465000D03*
D22*
X160655000Y-131990000D03*
D26*
X160655000Y-139790000D03*
D27*
X102362000Y-57658000D03*
D28*
X113347000Y-57658000D03*
X91377000Y-57658000D03*
D29*
X147360000Y-53804000D03*
X149860000Y-53804000D03*
X152360000Y-53804000D03*
D30*
X146460000Y-51054000D03*
X153260000Y-51054000D03*
X149000000Y-51054000D03*
X155800000Y-51054000D03*
M02*
