<?xml version="1.0" standalone="no"?>
 <!DOCTYPE svg PUBLIC "-//W3C//DTD SVG 1.1//EN" 
 "http://www.w3.org/Graphics/SVG/1.1/DTD/svg11.dtd"> 
<svg xmlns="http://www.w3.org/2000/svg" version="1.1" 
    width="14.5923cm" height="12.6568cm" viewBox="0 0 57450 49830 ">
<title>SVG Picture created as redox_rev1_routed4_case-brd.svg date 2019/10/26 14:06:36 </title>
  <desc>Picture generated by PCBNEW </desc>
<g style="fill:#000000; fill-opacity:1;stroke:#000000; stroke-opacity:1;
stroke-linecap:round; stroke-linejoin:round; "
 transform="translate(0 0) scale(1 1)">
</g>
<g style="fill:#000000; fill-opacity:0.0; 
stroke:#000000; stroke-width:-0.000393701; stroke-opacity:1; 
stroke-linecap:round; stroke-linejoin:round;">
</g>
<g style="fill:#000000; fill-opacity:0.0; 
stroke:#000000; stroke-width:47.2441; stroke-opacity:1; 
stroke-linecap:round; stroke-linejoin:round;">
<path d="M30969 1569
L30969 7069
" />
<path d="M25469 1569
L30969 1569
" />
<path d="M25469 7069
L25469 1569
" />
<path d="M30969 7069
L25469 7069
" />
<path d="M32969 23069
L32969 17569
" />
<path d="M38469 23069
L32969 23069
" />
<path d="M38469 17569
L38469 23069
" />
<path d="M32969 17569
L38469 17569
" />
<path d="M46463 35563
L51226 38313
" />
<path d="M43713 40326
L46463 35563
" />
<path d="M48476 43076
L43713 40326
" />
<path d="M51226 38313
L48476 43076
" />
<path d="M47969 16569
L53469 16569
" />
<path d="M47969 22069
L47969 16569
" />
<path d="M53469 22069
L47969 22069
" />
<path d="M53469 16569
L53469 22069
" />
<path d="M15969 4319
L15969 9819
" />
<path d="M10469 4319
L15969 4319
" />
<path d="M10469 9819
L10469 4319
" />
<path d="M15969 9819
L10469 9819
" />
<path d="M23469 2569
L23469 8069
" />
<path d="M17969 2569
L23469 2569
" />
<path d="M17969 8069
L17969 2569
" />
<path d="M23469 8069
L17969 8069
" />
<path d="M38469 2569
L38469 8069
" />
<path d="M32969 2569
L38469 2569
" />
<path d="M32969 8069
L32969 2569
" />
<path d="M38469 8069
L32969 8069
" />
<path d="M45969 3319
L45969 8819
" />
<path d="M40469 3319
L45969 3319
" />
<path d="M40469 8819
L40469 3319
" />
<path d="M45969 8819
L40469 8819
" />
<path d="M53469 7069
L53469 12569
" />
<path d="M47969 7069
L53469 7069
" />
<path d="M47969 12569
L47969 7069
" />
<path d="M53469 12569
L47969 12569
" />
<path d="M10469 17319
L10469 11819
" />
<path d="M15969 17319
L10469 17319
" />
<path d="M15969 11819
L15969 17319
" />
<path d="M10469 11819
L15969 11819
" />
<path d="M17969 15569
L17969 10069
" />
<path d="M23469 15569
L17969 15569
" />
<path d="M23469 10069
L23469 15569
" />
<path d="M17969 10069
L23469 10069
" />
<path d="M25469 14569
L25469 9069
" />
<path d="M30969 14569
L25469 14569
" />
<path d="M30969 9069
L30969 14569
" />
<path d="M25469 9069
L30969 9069
" />
<path d="M32969 15569
L32969 10069
" />
<path d="M38469 15569
L32969 15569
" />
<path d="M38469 10069
L38469 15569
" />
<path d="M32969 10069
L38469 10069
" />
<path d="M40469 16319
L40469 10819
" />
<path d="M45969 16319
L40469 16319
" />
<path d="M45969 10819
L45969 16319
" />
<path d="M40469 10819
L45969 10819
" />
<path d="M10469 24819
L10469 19319
" />
<path d="M15969 24819
L10469 24819
" />
<path d="M15969 19319
L15969 24819
" />
<path d="M10469 19319
L15969 19319
" />
<path d="M17969 23069
L17969 17569
" />
<path d="M23469 23069
L17969 23069
" />
<path d="M23469 17569
L23469 23069
" />
<path d="M17969 17569
L23469 17569
" />
<path d="M25469 22069
L25469 16569
" />
<path d="M30969 22069
L25469 22069
" />
<path d="M30969 16569
L30969 22069
" />
<path d="M25469 16569
L30969 16569
" />
<path d="M40469 23819
L40469 18319
" />
<path d="M45969 23819
L40469 23819
" />
<path d="M45969 18319
L45969 23819
" />
<path d="M40469 18319
L45969 18319
" />
<path d="M48463 32076
L51213 27313
" />
<path d="M53226 34826
L48463 32076
" />
<path d="M55976 30063
L53226 34826
" />
<path d="M51213 27313
L55976 30063
" />
<path d="M10469 32319
L10469 26819
" />
<path d="M15969 32319
L10469 32319
" />
<path d="M15969 26819
L15969 32319
" />
<path d="M10469 26819
L15969 26819
" />
<path d="M17969 30569
L17969 25069
" />
<path d="M23469 30569
L17969 30569
" />
<path d="M23469 25069
L23469 30569
" />
<path d="M17969 25069
L23469 25069
" />
<path d="M25469 29569
L25469 24069
" />
<path d="M30969 29569
L25469 29569
" />
<path d="M30969 24069
L30969 29569
" />
<path d="M25469 24069
L30969 24069
" />
<path d="M32969 30569
L32969 25069
" />
<path d="M38469 30569
L32969 30569
" />
<path d="M38469 25069
L38469 30569
" />
<path d="M32969 25069
L38469 25069
" />
<path d="M40469 31319
L40469 25819
" />
<path d="M45969 31319
L40469 31319
" />
<path d="M45969 25819
L45969 31319
" />
<path d="M40469 25819
L45969 25819
" />
<path d="M17969 38069
L17969 32569
" />
<path d="M23469 38069
L17969 38069
" />
<path d="M23469 32569
L23469 38069
" />
<path d="M17969 32569
L23469 32569
" />
<path d="M25469 37069
L25469 31569
" />
<path d="M30969 37069
L25469 37069
" />
<path d="M30969 31569
L30969 37069
" />
<path d="M25469 31569
L30969 31569
" />
<path d="M7469 4319
L7469 9819
" />
<path d="M1969 4319
L7469 4319
" />
<path d="M1969 9819
L1969 4319
" />
<path d="M7469 9819
L1969 9819
" />
<path d="M1969 17319
L1969 11819
" />
<path d="M7469 17319
L1969 17319
" />
<path d="M7469 11819
L7469 17319
" />
<path d="M1969 11819
L7469 11819
" />
<path d="M1969 24819
L1969 19319
" />
<path d="M7469 24819
L1969 24819
" />
<path d="M7469 19319
L7469 24819
" />
<path d="M1969 19319
L7469 19319
" />
<path d="M1969 32319
L1969 26819
" />
<path d="M7469 32319
L1969 32319
" />
<path d="M7469 26819
L7469 32319
" />
<path d="M1969 26819
L7469 26819
" />
<path d="M34851 38514
L36275 33201
" />
<path d="M40164 39937
L34851 38514
" />
<path d="M41587 34625
L40164 39937
" />
<path d="M36275 33201
L41587 34625
" />
</g>
<g style="fill:#000000; fill-opacity:0.0; 
stroke:#000000; stroke-width:120; stroke-opacity:1; 
stroke-linecap:round; stroke-linejoin:round;">
<path d="M26905 3341
L26905 2741
" />
<path d="M27248 3341
L26991 2998
" />
<path d="M27248 2741
L26905 3083
" />
<path d="M27505 3026
L27705 3026
" />
<path d="M27791 3341
L27505 3341
L27505 2741
L27791 2741
" />
<path d="M28162 3055
L28162 3341
" />
<path d="M27962 2741
L28162 3055
L28362 2741
" />
<path d="M28533 3312
L28619 3341
L28762 3341
L28819 3312
L28848 3283
L28876 3226
L28876 3169
L28848 3112
L28819 3083
L28762 3055
L28648 3026
L28591 2998
L28562 2969
L28533 2912
L28533 2855
L28562 2798
L28591 2769
L28648 2741
L28791 2741
L28876 2769
" />
<path d="M29076 2741
L29219 3341
L29333 2912
L29448 3341
L29591 2741
" />
<path d="M34405 22391
L34405 21791
" />
<path d="M34748 22391
L34491 22048
" />
<path d="M34748 21791
L34405 22133
" />
<path d="M35005 22076
L35205 22076
" />
<path d="M35291 22391
L35005 22391
L35005 21791
L35291 21791
" />
<path d="M35662 22105
L35662 22391
" />
<path d="M35462 21791
L35662 22105
L35862 21791
" />
<path d="M36033 22362
L36119 22391
L36262 22391
L36319 22362
L36348 22333
L36376 22276
L36376 22219
L36348 22162
L36319 22133
L36262 22105
L36148 22076
L36091 22048
L36062 22019
L36033 21962
L36033 21905
L36062 21848
L36091 21819
L36148 21791
L36291 21791
L36376 21819
" />
<path d="M36576 21791
L36719 22391
L36833 21962
L36948 22391
L37091 21791
" />
<path d="M45488 39693
L44969 39393
" />
<path d="M45660 39396
L45234 39447
" />
<path d="M45140 39096
L45266 39565
" />
<path d="M45516 39016
L45616 38843
" />
<path d="M45931 38926
L45788 39173
L45269 38873
L45412 38626
" />
<path d="M45869 38462
L46117 38604
" />
<path d="M45497 38478
L45869 38462
L45697 38131
" />
<path d="M46278 38268
L46345 38208
L46417 38085
L46421 38021
L46410 37982
L46375 37929
L46326 37900
L46262 37896
L46223 37907
L46169 37942
L46088 38027
L46034 38062
L45995 38072
L45931 38068
L45882 38040
L45847 37987
L45836 37948
L45840 37884
L45912 37760
L45979 37700
" />
<path d="M46054 37513
L46645 37689
L46331 37376
L46760 37491
L46312 37067
" />
<path d="M49191 20633
L48591 20633
" />
<path d="M49191 20291
L48848 20548
" />
<path d="M48591 20291
L48933 20633
" />
<path d="M48876 20033
L48876 19833
" />
<path d="M49191 19748
L49191 20033
L48591 20033
L48591 19748
" />
<path d="M48905 19376
L49191 19376
" />
<path d="M48591 19576
L48905 19376
L48591 19176
" />
<path d="M49162 19005
L49191 18919
L49191 18776
L49162 18719
L49133 18691
L49076 18662
L49019 18662
L48962 18691
L48933 18719
L48905 18776
L48876 18891
L48848 18948
L48819 18976
L48762 19005
L48705 19005
L48648 18976
L48619 18948
L48591 18891
L48591 18748
L48619 18662
" />
<path d="M48591 18462
L49191 18319
L48762 18205
L49191 18091
L48591 17948
" />
<path d="M11905 5541
L11905 4941
" />
<path d="M12248 5541
L11991 5198
" />
<path d="M12248 4941
L11905 5283
" />
<path d="M12505 5226
L12705 5226
" />
<path d="M12791 5541
L12505 5541
L12505 4941
L12791 4941
" />
<path d="M13162 5255
L13162 5541
" />
<path d="M12962 4941
L13162 5255
L13362 4941
" />
<path d="M13533 5512
L13619 5541
L13762 5541
L13819 5512
L13848 5483
L13876 5426
L13876 5369
L13848 5312
L13819 5283
L13762 5255
L13648 5226
L13591 5198
L13562 5169
L13533 5112
L13533 5055
L13562 4998
L13591 4969
L13648 4941
L13791 4941
L13876 4969
" />
<path d="M14076 4941
L14219 5541
L14333 5112
L14448 5541
L14591 4941
" />
<path d="M19405 3791
L19405 3191
" />
<path d="M19748 3791
L19491 3448
" />
<path d="M19748 3191
L19405 3533
" />
<path d="M20005 3476
L20205 3476
" />
<path d="M20291 3791
L20005 3791
L20005 3191
L20291 3191
" />
<path d="M20662 3505
L20662 3791
" />
<path d="M20462 3191
L20662 3505
L20862 3191
" />
<path d="M21033 3762
L21119 3791
L21262 3791
L21319 3762
L21348 3733
L21376 3676
L21376 3619
L21348 3562
L21319 3533
L21262 3505
L21148 3476
L21091 3448
L21062 3419
L21033 3362
L21033 3305
L21062 3248
L21091 3219
L21148 3191
L21291 3191
L21376 3219
" />
<path d="M21576 3191
L21719 3791
L21833 3362
L21948 3791
L22091 3191
" />
<path d="M34405 3791
L34405 3191
" />
<path d="M34748 3791
L34491 3448
" />
<path d="M34748 3191
L34405 3533
" />
<path d="M35005 3476
L35205 3476
" />
<path d="M35291 3791
L35005 3791
L35005 3191
L35291 3191
" />
<path d="M35662 3505
L35662 3791
" />
<path d="M35462 3191
L35662 3505
L35862 3191
" />
<path d="M36033 3762
L36119 3791
L36262 3791
L36319 3762
L36348 3733
L36376 3676
L36376 3619
L36348 3562
L36319 3533
L36262 3505
L36148 3476
L36091 3448
L36062 3419
L36033 3362
L36033 3305
L36062 3248
L36091 3219
L36148 3191
L36291 3191
L36376 3219
" />
<path d="M36576 3191
L36719 3791
L36833 3362
L36948 3791
L37091 3191
" />
<path d="M41905 4541
L41905 3941
" />
<path d="M42248 4541
L41991 4198
" />
<path d="M42248 3941
L41905 4283
" />
<path d="M42505 4226
L42705 4226
" />
<path d="M42791 4541
L42505 4541
L42505 3941
L42791 3941
" />
<path d="M43162 4255
L43162 4541
" />
<path d="M42962 3941
L43162 4255
L43362 3941
" />
<path d="M43533 4512
L43619 4541
L43762 4541
L43819 4512
L43848 4483
L43876 4426
L43876 4369
L43848 4312
L43819 4283
L43762 4255
L43648 4226
L43591 4198
L43562 4169
L43533 4112
L43533 4055
L43562 3998
L43591 3969
L43648 3941
L43791 3941
L43876 3969
" />
<path d="M44076 3941
L44219 4541
L44333 4112
L44448 4541
L44591 3941
" />
<path d="M47491 11633
L46891 11633
" />
<path d="M47491 11291
L47148 11548
" />
<path d="M46891 11291
L47233 11633
" />
<path d="M47176 11033
L47176 10833
" />
<path d="M47491 10748
L47491 11033
L46891 11033
L46891 10748
" />
<path d="M47205 10376
L47491 10376
" />
<path d="M46891 10576
L47205 10376
L46891 10176
" />
<path d="M47462 10005
L47491 9919
L47491 9776
L47462 9719
L47433 9691
L47376 9662
L47319 9662
L47262 9691
L47233 9719
L47205 9776
L47176 9891
L47148 9948
L47119 9976
L47062 10005
L47005 10005
L46948 9976
L46919 9948
L46891 9891
L46891 9748
L46919 9662
" />
<path d="M46891 9462
L47491 9319
L47062 9205
L47491 9091
L46891 8948
" />
<path d="M11905 16641
L11905 16041
" />
<path d="M12248 16641
L11991 16298
" />
<path d="M12248 16041
L11905 16383
" />
<path d="M12505 16326
L12705 16326
" />
<path d="M12791 16641
L12505 16641
L12505 16041
L12791 16041
" />
<path d="M13162 16355
L13162 16641
" />
<path d="M12962 16041
L13162 16355
L13362 16041
" />
<path d="M13533 16612
L13619 16641
L13762 16641
L13819 16612
L13848 16583
L13876 16526
L13876 16469
L13848 16412
L13819 16383
L13762 16355
L13648 16326
L13591 16298
L13562 16269
L13533 16212
L13533 16155
L13562 16098
L13591 16069
L13648 16041
L13791 16041
L13876 16069
" />
<path d="M14076 16041
L14219 16641
L14333 16212
L14448 16641
L14591 16041
" />
<path d="M19405 14891
L19405 14291
" />
<path d="M19748 14891
L19491 14548
" />
<path d="M19748 14291
L19405 14633
" />
<path d="M20005 14576
L20205 14576
" />
<path d="M20291 14891
L20005 14891
L20005 14291
L20291 14291
" />
<path d="M20662 14605
L20662 14891
" />
<path d="M20462 14291
L20662 14605
L20862 14291
" />
<path d="M21033 14862
L21119 14891
L21262 14891
L21319 14862
L21348 14833
L21376 14776
L21376 14719
L21348 14662
L21319 14633
L21262 14605
L21148 14576
L21091 14548
L21062 14519
L21033 14462
L21033 14405
L21062 14348
L21091 14319
L21148 14291
L21291 14291
L21376 14319
" />
<path d="M21576 14291
L21719 14891
L21833 14462
L21948 14891
L22091 14291
" />
<path d="M26905 13891
L26905 13291
" />
<path d="M27248 13891
L26991 13548
" />
<path d="M27248 13291
L26905 13633
" />
<path d="M27505 13576
L27705 13576
" />
<path d="M27791 13891
L27505 13891
L27505 13291
L27791 13291
" />
<path d="M28162 13605
L28162 13891
" />
<path d="M27962 13291
L28162 13605
L28362 13291
" />
<path d="M28533 13862
L28619 13891
L28762 13891
L28819 13862
L28848 13833
L28876 13776
L28876 13719
L28848 13662
L28819 13633
L28762 13605
L28648 13576
L28591 13548
L28562 13519
L28533 13462
L28533 13405
L28562 13348
L28591 13319
L28648 13291
L28791 13291
L28876 13319
" />
<path d="M29076 13291
L29219 13891
L29333 13462
L29448 13891
L29591 13291
" />
<path d="M34405 14891
L34405 14291
" />
<path d="M34748 14891
L34491 14548
" />
<path d="M34748 14291
L34405 14633
" />
<path d="M35005 14576
L35205 14576
" />
<path d="M35291 14891
L35005 14891
L35005 14291
L35291 14291
" />
<path d="M35662 14605
L35662 14891
" />
<path d="M35462 14291
L35662 14605
L35862 14291
" />
<path d="M36033 14862
L36119 14891
L36262 14891
L36319 14862
L36348 14833
L36376 14776
L36376 14719
L36348 14662
L36319 14633
L36262 14605
L36148 14576
L36091 14548
L36062 14519
L36033 14462
L36033 14405
L36062 14348
L36091 14319
L36148 14291
L36291 14291
L36376 14319
" />
<path d="M36576 14291
L36719 14891
L36833 14462
L36948 14891
L37091 14291
" />
<path d="M41905 15641
L41905 15041
" />
<path d="M42248 15641
L41991 15298
" />
<path d="M42248 15041
L41905 15383
" />
<path d="M42505 15326
L42705 15326
" />
<path d="M42791 15641
L42505 15641
L42505 15041
L42791 15041
" />
<path d="M43162 15355
L43162 15641
" />
<path d="M42962 15041
L43162 15355
L43362 15041
" />
<path d="M43533 15612
L43619 15641
L43762 15641
L43819 15612
L43848 15583
L43876 15526
L43876 15469
L43848 15412
L43819 15383
L43762 15355
L43648 15326
L43591 15298
L43562 15269
L43533 15212
L43533 15155
L43562 15098
L43591 15069
L43648 15041
L43791 15041
L43876 15069
" />
<path d="M44076 15041
L44219 15641
L44333 15212
L44448 15641
L44591 15041
" />
<path d="M11905 24141
L11905 23541
" />
<path d="M12248 24141
L11991 23798
" />
<path d="M12248 23541
L11905 23883
" />
<path d="M12505 23826
L12705 23826
" />
<path d="M12791 24141
L12505 24141
L12505 23541
L12791 23541
" />
<path d="M13162 23855
L13162 24141
" />
<path d="M12962 23541
L13162 23855
L13362 23541
" />
<path d="M13533 24112
L13619 24141
L13762 24141
L13819 24112
L13848 24083
L13876 24026
L13876 23969
L13848 23912
L13819 23883
L13762 23855
L13648 23826
L13591 23798
L13562 23769
L13533 23712
L13533 23655
L13562 23598
L13591 23569
L13648 23541
L13791 23541
L13876 23569
" />
<path d="M14076 23541
L14219 24141
L14333 23712
L14448 24141
L14591 23541
" />
<path d="M19405 22391
L19405 21791
" />
<path d="M19748 22391
L19491 22048
" />
<path d="M19748 21791
L19405 22133
" />
<path d="M20005 22076
L20205 22076
" />
<path d="M20291 22391
L20005 22391
L20005 21791
L20291 21791
" />
<path d="M20662 22105
L20662 22391
" />
<path d="M20462 21791
L20662 22105
L20862 21791
" />
<path d="M21033 22362
L21119 22391
L21262 22391
L21319 22362
L21348 22333
L21376 22276
L21376 22219
L21348 22162
L21319 22133
L21262 22105
L21148 22076
L21091 22048
L21062 22019
L21033 21962
L21033 21905
L21062 21848
L21091 21819
L21148 21791
L21291 21791
L21376 21819
" />
<path d="M21576 21791
L21719 22391
L21833 21962
L21948 22391
L22091 21791
" />
<path d="M26905 21391
L26905 20791
" />
<path d="M27248 21391
L26991 21048
" />
<path d="M27248 20791
L26905 21133
" />
<path d="M27505 21076
L27705 21076
" />
<path d="M27791 21391
L27505 21391
L27505 20791
L27791 20791
" />
<path d="M28162 21105
L28162 21391
" />
<path d="M27962 20791
L28162 21105
L28362 20791
" />
<path d="M28533 21362
L28619 21391
L28762 21391
L28819 21362
L28848 21333
L28876 21276
L28876 21219
L28848 21162
L28819 21133
L28762 21105
L28648 21076
L28591 21048
L28562 21019
L28533 20962
L28533 20905
L28562 20848
L28591 20819
L28648 20791
L28791 20791
L28876 20819
" />
<path d="M29076 20791
L29219 21391
L29333 20962
L29448 21391
L29591 20791
" />
<path d="M41905 23141
L41905 22541
" />
<path d="M42248 23141
L41991 22798
" />
<path d="M42248 22541
L41905 22883
" />
<path d="M42505 22826
L42705 22826
" />
<path d="M42791 23141
L42505 23141
L42505 22541
L42791 22541
" />
<path d="M43162 22855
L43162 23141
" />
<path d="M42962 22541
L43162 22855
L43362 22541
" />
<path d="M43533 23112
L43619 23141
L43762 23141
L43819 23112
L43848 23083
L43876 23026
L43876 22969
L43848 22912
L43819 22883
L43762 22855
L43648 22826
L43591 22798
L43562 22769
L43533 22712
L43533 22655
L43562 22598
L43591 22569
L43648 22541
L43791 22541
L43876 22569
" />
<path d="M44076 22541
L44219 23141
L44333 22712
L44448 23141
L44591 22541
" />
<path d="M50045 32206
L50345 31686
" />
<path d="M50342 32377
L50291 31952
" />
<path d="M50642 31858
L50174 31983
" />
<path d="M50722 32234
L50895 32334
" />
<path d="M50812 32649
L50565 32506
L50865 31986
L51112 32129
" />
<path d="M51277 32587
L51134 32835
" />
<path d="M51261 32215
L51277 32587
L51607 32415
" />
<path d="M51470 32995
L51530 33063
L51654 33135
L51717 33138
L51756 33128
L51810 33093
L51838 33043
L51842 32979
L51832 32940
L51796 32887
L51712 32805
L51677 32752
L51666 32713
L51670 32649
L51699 32600
L51752 32564
L51791 32554
L51855 32558
L51978 32629
L52038 32697
" />
<path d="M52226 32772
L52049 33363
L52363 33049
L52247 33477
L52671 33029
" />
<path d="M11905 31641
L11905 31041
" />
<path d="M12248 31641
L11991 31298
" />
<path d="M12248 31041
L11905 31383
" />
<path d="M12505 31326
L12705 31326
" />
<path d="M12791 31641
L12505 31641
L12505 31041
L12791 31041
" />
<path d="M13162 31355
L13162 31641
" />
<path d="M12962 31041
L13162 31355
L13362 31041
" />
<path d="M13533 31612
L13619 31641
L13762 31641
L13819 31612
L13848 31583
L13876 31526
L13876 31469
L13848 31412
L13819 31383
L13762 31355
L13648 31326
L13591 31298
L13562 31269
L13533 31212
L13533 31155
L13562 31098
L13591 31069
L13648 31041
L13791 31041
L13876 31069
" />
<path d="M14076 31041
L14219 31641
L14333 31212
L14448 31641
L14591 31041
" />
<path d="M19405 29891
L19405 29291
" />
<path d="M19748 29891
L19491 29548
" />
<path d="M19748 29291
L19405 29633
" />
<path d="M20005 29576
L20205 29576
" />
<path d="M20291 29891
L20005 29891
L20005 29291
L20291 29291
" />
<path d="M20662 29605
L20662 29891
" />
<path d="M20462 29291
L20662 29605
L20862 29291
" />
<path d="M21033 29862
L21119 29891
L21262 29891
L21319 29862
L21348 29833
L21376 29776
L21376 29719
L21348 29662
L21319 29633
L21262 29605
L21148 29576
L21091 29548
L21062 29519
L21033 29462
L21033 29405
L21062 29348
L21091 29319
L21148 29291
L21291 29291
L21376 29319
" />
<path d="M21576 29291
L21719 29891
L21833 29462
L21948 29891
L22091 29291
" />
<path d="M26905 28891
L26905 28291
" />
<path d="M27248 28891
L26991 28548
" />
<path d="M27248 28291
L26905 28633
" />
<path d="M27505 28576
L27705 28576
" />
<path d="M27791 28891
L27505 28891
L27505 28291
L27791 28291
" />
<path d="M28162 28605
L28162 28891
" />
<path d="M27962 28291
L28162 28605
L28362 28291
" />
<path d="M28533 28862
L28619 28891
L28762 28891
L28819 28862
L28848 28833
L28876 28776
L28876 28719
L28848 28662
L28819 28633
L28762 28605
L28648 28576
L28591 28548
L28562 28519
L28533 28462
L28533 28405
L28562 28348
L28591 28319
L28648 28291
L28791 28291
L28876 28319
" />
<path d="M29076 28291
L29219 28891
L29333 28462
L29448 28891
L29591 28291
" />
<path d="M34405 29891
L34405 29291
" />
<path d="M34748 29891
L34491 29548
" />
<path d="M34748 29291
L34405 29633
" />
<path d="M35005 29576
L35205 29576
" />
<path d="M35291 29891
L35005 29891
L35005 29291
L35291 29291
" />
<path d="M35662 29605
L35662 29891
" />
<path d="M35462 29291
L35662 29605
L35862 29291
" />
<path d="M36033 29862
L36119 29891
L36262 29891
L36319 29862
L36348 29833
L36376 29776
L36376 29719
L36348 29662
L36319 29633
L36262 29605
L36148 29576
L36091 29548
L36062 29519
L36033 29462
L36033 29405
L36062 29348
L36091 29319
L36148 29291
L36291 29291
L36376 29319
" />
<path d="M36576 29291
L36719 29891
L36833 29462
L36948 29891
L37091 29291
" />
<path d="M41905 30641
L41905 30041
" />
<path d="M42248 30641
L41991 30298
" />
<path d="M42248 30041
L41905 30383
" />
<path d="M42505 30326
L42705 30326
" />
<path d="M42791 30641
L42505 30641
L42505 30041
L42791 30041
" />
<path d="M43162 30355
L43162 30641
" />
<path d="M42962 30041
L43162 30355
L43362 30041
" />
<path d="M43533 30612
L43619 30641
L43762 30641
L43819 30612
L43848 30583
L43876 30526
L43876 30469
L43848 30412
L43819 30383
L43762 30355
L43648 30326
L43591 30298
L43562 30269
L43533 30212
L43533 30155
L43562 30098
L43591 30069
L43648 30041
L43791 30041
L43876 30069
" />
<path d="M44076 30041
L44219 30641
L44333 30212
L44448 30641
L44591 30041
" />
<path d="M19405 37391
L19405 36791
" />
<path d="M19748 37391
L19491 37048
" />
<path d="M19748 36791
L19405 37133
" />
<path d="M20005 37076
L20205 37076
" />
<path d="M20291 37391
L20005 37391
L20005 36791
L20291 36791
" />
<path d="M20662 37105
L20662 37391
" />
<path d="M20462 36791
L20662 37105
L20862 36791
" />
<path d="M21033 37362
L21119 37391
L21262 37391
L21319 37362
L21348 37333
L21376 37276
L21376 37219
L21348 37162
L21319 37133
L21262 37105
L21148 37076
L21091 37048
L21062 37019
L21033 36962
L21033 36905
L21062 36848
L21091 36819
L21148 36791
L21291 36791
L21376 36819
" />
<path d="M21576 36791
L21719 37391
L21833 36962
L21948 37391
L22091 36791
" />
<path d="M26905 36391
L26905 35791
" />
<path d="M27248 36391
L26991 36048
" />
<path d="M27248 35791
L26905 36133
" />
<path d="M27505 36076
L27705 36076
" />
<path d="M27791 36391
L27505 36391
L27505 35791
L27791 35791
" />
<path d="M28162 36105
L28162 36391
" />
<path d="M27962 35791
L28162 36105
L28362 35791
" />
<path d="M28533 36362
L28619 36391
L28762 36391
L28819 36362
L28848 36333
L28876 36276
L28876 36219
L28848 36162
L28819 36133
L28762 36105
L28648 36076
L28591 36048
L28562 36019
L28533 35962
L28533 35905
L28562 35848
L28591 35819
L28648 35791
L28791 35791
L28876 35819
" />
<path d="M29076 35791
L29219 36391
L29333 35962
L29448 36391
L29591 35791
" />
<path d="M3405 5541
L3405 4941
" />
<path d="M3748 5541
L3491 5198
" />
<path d="M3748 4941
L3405 5283
" />
<path d="M4005 5226
L4205 5226
" />
<path d="M4291 5541
L4005 5541
L4005 4941
L4291 4941
" />
<path d="M4662 5255
L4662 5541
" />
<path d="M4462 4941
L4662 5255
L4862 4941
" />
<path d="M5033 5512
L5119 5541
L5262 5541
L5319 5512
L5348 5483
L5376 5426
L5376 5369
L5348 5312
L5319 5283
L5262 5255
L5148 5226
L5091 5198
L5062 5169
L5033 5112
L5033 5055
L5062 4998
L5091 4969
L5148 4941
L5291 4941
L5376 4969
" />
<path d="M5576 4941
L5719 5541
L5833 5112
L5948 5541
L6091 4941
" />
<path d="M3405 16641
L3405 16041
" />
<path d="M3748 16641
L3491 16298
" />
<path d="M3748 16041
L3405 16383
" />
<path d="M4005 16326
L4205 16326
" />
<path d="M4291 16641
L4005 16641
L4005 16041
L4291 16041
" />
<path d="M4662 16355
L4662 16641
" />
<path d="M4462 16041
L4662 16355
L4862 16041
" />
<path d="M5033 16612
L5119 16641
L5262 16641
L5319 16612
L5348 16583
L5376 16526
L5376 16469
L5348 16412
L5319 16383
L5262 16355
L5148 16326
L5091 16298
L5062 16269
L5033 16212
L5033 16155
L5062 16098
L5091 16069
L5148 16041
L5291 16041
L5376 16069
" />
<path d="M5576 16041
L5719 16641
L5833 16212
L5948 16641
L6091 16041
" />
<path d="M3405 24141
L3405 23541
" />
<path d="M3748 24141
L3491 23798
" />
<path d="M3748 23541
L3405 23883
" />
<path d="M4005 23826
L4205 23826
" />
<path d="M4291 24141
L4005 24141
L4005 23541
L4291 23541
" />
<path d="M4662 23855
L4662 24141
" />
<path d="M4462 23541
L4662 23855
L4862 23541
" />
<path d="M5033 24112
L5119 24141
L5262 24141
L5319 24112
L5348 24083
L5376 24026
L5376 23969
L5348 23912
L5319 23883
L5262 23855
L5148 23826
L5091 23798
L5062 23769
L5033 23712
L5033 23655
L5062 23598
L5091 23569
L5148 23541
L5291 23541
L5376 23569
" />
<path d="M5576 23541
L5719 24141
L5833 23712
L5948 24141
L6091 23541
" />
<path d="M3405 31641
L3405 31041
" />
<path d="M3748 31641
L3491 31298
" />
<path d="M3748 31041
L3405 31383
" />
<path d="M4005 31326
L4205 31326
" />
<path d="M4291 31641
L4005 31641
L4005 31041
L4291 31041
" />
<path d="M4662 31355
L4662 31641
" />
<path d="M4462 31041
L4662 31355
L4862 31041
" />
<path d="M5033 31612
L5119 31641
L5262 31641
L5319 31612
L5348 31583
L5376 31526
L5376 31469
L5348 31412
L5319 31383
L5262 31355
L5148 31326
L5091 31298
L5062 31269
L5033 31212
L5033 31155
L5062 31098
L5091 31069
L5148 31041
L5291 31041
L5376 31069
" />
<path d="M5576 31041
L5719 31641
L5833 31212
L5948 31641
L6091 31041
" />
<path d="M36414 38230
L36569 37650
" />
<path d="M36745 38319
L36585 37921
" />
<path d="M36900 37739
L36480 37981
" />
<path d="M37074 38082
L37268 38133
" />
<path d="M37269 38459
L36993 38385
L37148 37806
L37424 37880
" />
<path d="M37702 38279
L37628 38555
" />
<path d="M37590 37924
L37702 38279
L37976 38027
" />
<path d="M37994 38624
L38069 38674
L38207 38711
L38270 38698
L38305 38678
L38347 38630
L38362 38575
L38349 38512
L38329 38477
L38281 38435
L38178 38377
L38131 38335
L38110 38300
L38098 38237
L38112 38182
L38155 38134
L38190 38114
L38252 38101
L38390 38138
L38466 38188
" />
<path d="M38666 38212
L38649 38829
L38870 38444
L38870 38888
L39163 38345
" />
<g >
</g>
</g>
<g style="fill:#000000; fill-opacity:0.0; 
stroke:#000000; stroke-width:39.3701; stroke-opacity:1; 
stroke-linecap:round; stroke-linejoin:round;">
<path d="M53407 19
L54469 1444
" />
<path d="M11219 35194
L1919 35219
" />
<path d="M16585 39103
L11219 35194
" />
<path d="M57432 29746
L48303 45537
" />
<path d="M53407 19
L2019 19
" />
<path d="M54469 1444
L54469 6019
" />
<path d="M19 2019
L19 3319
" />
<path d="M19 2019
L2019 19
" />
<path d="M29419 38119
L25419 38119
" />
<path d="M54469 28019
L57432 29746
" />
<path d="M54469 6019
L54469 28019
" />
<path d="M54369 49819
L54419 49819
" />
<path d="M38069 40419
L29419 38119
" />
<path d="M48303 45537
L38069 40419
" />
<path d="M24419 39119
L25419 38119
" />
<path d="M16585 39103
L24419 39119
" />
<path d="M19 33319
L1919 35219
" />
<path d="M19 3319
L19 33319
" />
<g >
</g>
<g >
</g>
<g >
</g>
<g >
</g>
<g >
</g>
<g >
</g>
<g >
</g>
<g >
</g>
<g >
</g>
<g >
</g>
<g >
</g>
<g >
</g>
<g >
</g>
<g >
</g>
<g >
</g>
<g >
</g>
<g >
</g>
<g >
</g>
<g >
</g>
<g >
</g>
<g >
</g>
<g >
</g>
<g >
</g>
<g >
</g>
<g >
</g>
<g >
</g>
<g >
</g>
<g >
</g>
<g >
</g>
<g >
</g>
<g >
</g>
<g >
</g>
</g> 
</svg>
