999
dxfrw 0.6.3
  0
SECTION
  2
HEADER
  9
$ACADVER
  1
AC1021
  9
$DWGCODEPAGE
  3
ANSI_1252
  9
$INSBASE
 10
0
 20
0
 30
0
  9
$EXTMIN
 10
-422.0463814891186
 20
-129.5497204271473
 30
0
  9
$EXTMAX
 10
420.3373452393125
 20
177.3470450542712
 30
0
  9
$LIMMIN
 10
0
 20
0
  9
$LIMMAX
 10
420
 20
297
  9
$ORTHOMODE
 70
    0
  9
$REGENMODE
 70
    1
  9
$FILLMODE
 70
    1
  9
$QTEXTMODE
 70
    0
  9
$MIRRTEXT
 70
    0
  9
$LTSCALE
 40
1
  9
$ATTMODE
 70
    0
  9
$TEXTSIZE
 40
2.5
  9
$TRACEWID
 40
15.68
  9
$TEXTSTYLE
  7
STANDARD
  9
$CLAYER
  8
0
  9
$CELTYPE
  6
BYLAYER
  9
$CECOLOR
 62
  256
  9
$CELTSCALE
 40
1
  9
$DISPSILH
 70
    0
  9
$DIMSCALE
 40
2.5
  9
$DIMASZ
 40
2.5
  9
$DIMEXO
 40
0.625
  9
$DIMDLI
 40
3.75
  9
$DIMRND
 40
0
  9
$DIMDLE
 40
0
  9
$DIMEXE
 40
1.25
  9
$DIMTP
 40
0
  9
$DIMTM
 40
0
  9
$DIMTXT
 40
2.5
  9
$DIMCEN
 40
2.5
  9
$DIMTSZ
 40
0
  9
$DIMTOL
 70
    0
  9
$DIMLIM
 70
    0
  9
$DIMTIH
 70
    0
  9
$DIMTOH
 70
    0
  9
$DIMSE1
 70
    0
  9
$DIMSE2
 70
    0
  9
$DIMTAD
 70
    1
  9
$DIMZIN
 70
    8
  9
$DIMBLK
  1

  9
$DIMASO
 70
    1
  9
$DIMSHO
 70
    1
  9
$DIMPOST
  1

  9
$DIMAPOST
  1

  9
$DIMALT
 70
    0
  9
$DIMALTD
 70
    3
  9
$DIMALTF
 40
0.03937
  9
$DIMLFAC
 40
1
  9
$DIMTOFL
 70
    1
  9
$DIMTVP
 40
0
  9
$DIMTIX
 70
    0
  9
$DIMSOXD
 70
    0
  9
$DIMSAH
 70
    0
  9
$DIMBLK1
  1

  9
$DIMBLK2
  1

  9
$DIMSTYLE
  2
STANDARD
  9
$DIMCLRD
 70
    0
  9
$DIMCLRE
 70
    0
  9
$DIMCLRT
 70
    0
  9
$DIMTFAC
 40
1
  9
$DIMGAP
 40
0.625
  9
$DIMJUST
 70
    0
  9
$DIMSD1
 70
    0
  9
$DIMSD2
 70
    0
  9
$DIMTOLJ
 70
    0
  9
$DIMTZIN
 70
    8
  9
$DIMALTZ
 70
    0
  9
$DIMALTTZ
 70
    0
  9
$DIMUPT
 70
    0
  9
$DIMDEC
 70
    2
  9
$DIMTDEC
 70
    2
  9
$DIMALTU
 70
    2
  9
$DIMALTTD
 70
    3
  9
$DIMTXSTY
  7
STANDARD
  9
$DIMAUNIT
 70
    0
  9
$DIMADEC
 70
    0
  9
$DIMALTRND
 40
0
  9
$DIMAZIN
 70
    0
  9
$DIMDSEP
 70
   44
  9
$DIMATFIT
 70
    3
  9
$DIMFRAC
 70
    0
  9
$DIMLDRBLK
  1
STANDARD
  9
$DIMLUNIT
 70
    2
  9
$DIMLWD
 70
   -2
  9
$DIMLWE
 70
   -2
  9
$DIMTMOVE
 70
    0
  9
$DIMFXL
 40
1
  9
$DIMFXLON
 70
    0
  9
$DIMJOGANG
 40
0.7854
  9
$DIMTFILL
 70
    0
  9
$DIMTFILLCLR
 70
    0
  9
$DIMARCSYM
 70
    0
  9
$DIMLTYPE
  6

  9
$DIMLTEX1
  6

  9
$DIMLTEX2
  6

  9
$LUNITS
 70
    2
  9
$LUPREC
 70
    4
  9
$SKETCHINC
 40
1
  9
$FILLETRAD
 40
0
  9
$AUNITS
 70
    0
  9
$AUPREC
 70
    2
  9
$MENU
  1
.
  9
$ELEVATION
 40
0
  9
$PELEVATION
 40
0
  9
$THICKNESS
 40
0
  9
$LIMCHECK
 70
    0
  9
$CHAMFERA
 40
0
  9
$CHAMFERB
 40
0
  9
$CHAMFERC
 40
0
  9
$CHAMFERD
 40
0
  9
$SKPOLY
 70
    0
  9
$USRTIMER
 70
    1
  9
$ANGBASE
 50
0
  9
$ANGDIR
 70
    0
  9
$PDMODE
 70
   34
  9
$PDSIZE
 40
0
  9
$PLINEWID
 40
0
  9
$SPLFRAME
 70
    0
  9
$SPLINETYPE
 70
    2
  9
$SPLINESEGS
 70
    8
  9
$HANDSEED
  5
20000
  9
$SURFTAB1
 70
    6
  9
$SURFTAB2
 70
    6
  9
$SURFTYPE
 70
    6
  9
$SURFU
 70
    6
  9
$SURFV
 70
    6
  9
$UCSBASE
  2

  9
$UCSNAME
  2

  9
$UCSORG
 10
0
 20
0
 30
0
  9
$UCSXDIR
 10
1
 20
0
 30
0
  9
$UCSYDIR
 10
0
 20
1
 30
0
  9
$UCSORTHOREF
  2

  9
$UCSORTHOVIEW
 70
    0
  9
$UCSORGTOP
 10
0
 20
0
 30
0
  9
$UCSORGBOTTOM
 10
0
 20
0
 30
0
  9
$UCSORGLEFT
 10
0
 20
0
 30
0
  9
$UCSORGRIGHT
 10
0
 20
0
 30
0
  9
$UCSORGFRONT
 10
0
 20
0
 30
0
  9
$UCSORGBACK
 10
0
 20
0
 30
0
  9
$PUCSBASE
  2

  9
$PUCSNAME
  2

  9
$PUCSORG
 10
0
 20
0
 30
0
  9
$PUCSXDIR
 10
1
 20
0
 30
0
  9
$PUCSYDIR
 10
0
 20
1
 30
0
  9
$PUCSORTHOREF
  2

  9
$PUCSORTHOVIEW
 70
    0
  9
$PUCSORGTOP
 10
0
 20
0
 30
0
  9
$PUCSORGBOTTOM
 10
0
 20
0
 30
0
  9
$PUCSORGLEFT
 10
0
 20
0
 30
0
  9
$PUCSORGRIGHT
 10
0
 20
0
 30
0
  9
$PUCSORGFRONT
 10
0
 20
0
 30
0
  9
$PUCSORGBACK
 10
0
 20
0
 30
0
  9
$USERI1
 70
    0
  9
$USERI2
 70
    0
  9
$USERI3
 70
    0
  9
$USERI4
 70
    0
  9
$USERI5
 70
    0
  9
$USERR1
 40
0
  9
$USERR2
 40
0
  9
$USERR3
 40
0
  9
$USERR4
 40
0
  9
$USERR5
 40
0
  9
$WORLDVIEW
 70
    1
  9
$SHADEDGE
 70
    3
  9
$SHADEDIF
 70
   70
  9
$TILEMODE
 70
    1
  9
$MAXACTVP
 70
   64
  9
$PINSBASE
 10
0
 20
0
 30
0
  9
$PLIMCHECK
 70
    0
  9
$PEXTMIN
 10
0
 20
0
 30
0
  9
$PEXTMAX
 10
0
 20
0
 30
0
  9
$GRIDMODE
 70
    1
  9
$SNAPSTYLE
 70
    0
  9
$PLIMMIN
 10
0
 20
0
  9
$PLIMMAX
 10
210
 20
297
  9
$UNITMODE
 70
    0
  9
$VISRETAIN
 70
    1
  9
$PLINEGEN
 70
    0
  9
$PSLTSCALE
 70
    1
  9
$TREEDEPTH
 70
 3020
  9
$CMLSTYLE
  2
Standard
  9
$CMLJUST
 70
    0
  9
$CMLSCALE
 40
20
  9
$PROXYGRAPHICS
 70
    1
  9
$MEASUREMENT
 70
    1
  9
$CELWEIGHT
370
   -1
  9
$ENDCAPS
280
    0
  9
$JOINSTYLE
280
    0
  9
$LWDISPLAY
290
    0
  9
$INSUNITS
 70
    0
  9
$HYPERLINKBASE
  1

  9
$STYLESHEET
  1

  9
$XEDIT
290
    1
  9
$CEPSNTYPE
380
    0
  9
$PSTYLEMODE
290
    1
  9
$EXTNAMES
290
    1
  9
$PSVPSCALE
 40
1
  9
$OLESTARTUP
290
    0
  9
$SORTENTS
280
  127
  9
$INDEXCTL
280
    0
  9
$HIDETEXT
280
    1
  9
$XCLIPFRAME
290
    0
  9
$HALOGAP
280
    0
  9
$OBSCOLOR
 70
  257
  9
$OBSLTYPE
280
    0
  9
$INTERSECTIONDISPLAY
280
    0
  9
$INTERSECTIONCOLOR
 70
  257
  9
$DIMASSOC
280
    1
  9
$PROJECTNAME
  1

  9
$CAMERADISPLAY
290
    0
  9
$LENSLENGTH
 40
50
  9
$CAMERAHEIGHT
 40
0
  9
$STEPSPERSEC
 40
2
  9
$STEPSIZE
 40
50
  9
$3DDWFPREC
 40
2
  9
$PSOLWIDTH
 40
5
  9
$PSOLHEIGHT
 40
80
  9
$LOFTANG1
 40
1.570796326794897
  9
$LOFTANG2
 40
1.570796326794897
  9
$LOFTMAG1
 40
0
  9
$LOFTMAG2
 40
0
  9
$LOFTPARAM
 70
    7
  9
$LOFTNORMALS
280
    1
  9
$LATITUDE
 40
1
  9
$LONGITUDE
 40
1
  9
$NORTHDIRECTION
 40
0
  9
$TIMEZONE
 70
-8000
  9
$LIGHTGLYPHDISPLAY
280
    1
  9
$TILEMODELIGHTSYNCH
280
    1
  9
$SOLIDHIST
280
    1
  9
$SHOWHIST
280
    1
  9
$DWFFRAME
280
    2
  9
$DGNFRAME
280
    0
  9
$REALWORLDSCALE
290
    1
  9
$INTERFERECOLOR
 62
    1
  9
$CSHADOW
280
    0
  9
$SHADOWPLANELOCATION
 40
0
  0
ENDSEC
  0
SECTION
  2
CLASSES
  0
ENDSEC
  0
SECTION
  2
TABLES
  0
TABLE
  2
VPORT
  5
8
330
0
100
AcDbSymbolTable
 70
    1
  0
VPORT
  5
31
330
2
100
AcDbSymbolTableRecord
100
AcDbViewportTableRecord
  2
*ACTIVE
 70
    0
 10
0
 20
0
 11
1
 21
1
 12
254.4460260839892
 22
184.6944127559458
 13
0
 23
0
 14
10
 24
10
 15
10
 25
10
 16
0
 26
0
 36
1
 17
0
 27
0
 37
0
 40
680.2255925117919
 41
1.644714038128249
 42
50
 43
0
 44
0
 50
0
 51
0
 71
    0
 72
  100
 73
    1
 74
    3
 75
    0
 76
    1
 77
    0
 78
    0
281
    0
 65
    1
110
0
120
0
130
0
111
1
121
0
131
0
112
0
122
1
132
0
 79
    0
146
0
348
10020
 60
    7
 61
    5
292
1
282
    1
141
0
142
0
 63
  250
421
3358443
  0
ENDTAB
  0
TABLE
  2
LTYPE
  5
5
330
0
100
AcDbSymbolTable
 70
    4
  0
LTYPE
  5
14
330
5
100
AcDbSymbolTableRecord
100
AcDbLinetypeTableRecord
  2
ByBlock
 70
    0
  3

 72
   65
 73
    0
 40
0
  0
LTYPE
  5
15
330
5
100
AcDbSymbolTableRecord
100
AcDbLinetypeTableRecord
  2
ByLayer
 70
    0
  3

 72
   65
 73
    0
 40
0
  0
LTYPE
  5
16
330
5
100
AcDbSymbolTableRecord
100
AcDbLinetypeTableRecord
  2
Continuous
 70
    0
  3
Solid line
 72
   65
 73
    0
 40
0
  0
LTYPE
  5
32
330
5
100
AcDbSymbolTableRecord
100
AcDbLinetypeTableRecord
  2
DOT
 70
    0
  3
Dot . . . . . . . . . . . . . . . . . . . . . .
 72
   65
 73
    2
 40
6.35
 49
0
 74
    0
 49
-6.35
 74
    0
  0
LTYPE
  5
33
330
5
100
AcDbSymbolTableRecord
100
AcDbLinetypeTableRecord
  2
DOTTINY
 70
    0
  3
Dot (.15x) .....................................
 72
   65
 73
    2
 40
0.9525
 49
0
 74
    0
 49
-0.9525
 74
    0
  0
LTYPE
  5
34
330
5
100
AcDbSymbolTableRecord
100
AcDbLinetypeTableRecord
  2
DOT2
 70
    0
  3
Dot (.5x) .....................................
 72
   65
 73
    2
 40
3.175
 49
0
 74
    0
 49
-3.175
 74
    0
  0
LTYPE
  5
35
330
5
100
AcDbSymbolTableRecord
100
AcDbLinetypeTableRecord
  2
DOTX2
 70
    0
  3
Dot (2x) .  .  .  .  .  .  .  .  .  .  .  .  .
 72
   65
 73
    2
 40
12.7
 49
0
 74
    0
 49
-12.7
 74
    0
  0
LTYPE
  5
36
330
5
100
AcDbSymbolTableRecord
100
AcDbLinetypeTableRecord
  2
DASHED
 70
    0
  3
Dashed _ _ _ _ _ _ _ _ _ _ _ _ _ _ _ _ _
 72
   65
 73
    2
 40
19.05
 49
12.7
 74
    0
 49
-6.35
 74
    0
  0
LTYPE
  5
37
330
5
100
AcDbSymbolTableRecord
100
AcDbLinetypeTableRecord
  2
DASHEDTINY
 70
    0
  3
Dashed (.15x) _ _ _ _ _ _ _ _ _ _ _ _ _ _ _ _ _
 72
   65
 73
    2
 40
2.8575
 49
1.905
 74
    0
 49
-0.9525
 74
    0
  0
LTYPE
  5
38
330
5
100
AcDbSymbolTableRecord
100
AcDbLinetypeTableRecord
  2
DASHED2
 70
    0
  3
Dashed (.5x) _ _ _ _ _ _ _ _ _ _ _ _ _ _ _ _ _
 72
   65
 73
    2
 40
9.524999999999999
 49
6.35
 74
    0
 49
-3.175
 74
    0
  0
LTYPE
  5
39
330
5
100
AcDbSymbolTableRecord
100
AcDbLinetypeTableRecord
  2
DASHEDX2
 70
    0
  3
Dashed (2x) ____  ____  ____  ____  ____  ___
 72
   65
 73
    2
 40
38.09999999999999
 49
25.4
 74
    0
 49
-12.7
 74
    0
  0
LTYPE
  5
3A
330
5
100
AcDbSymbolTableRecord
100
AcDbLinetypeTableRecord
  2
DASHDOT
 70
    0
  3
Dash dot __ . __ . __ . __ . __ . __ . __ . __
 72
   65
 73
    4
 40
25.4
 49
12.7
 74
    0
 49
-6.35
 74
    0
 49
0
 74
    0
 49
-6.35
 74
    0
  0
LTYPE
  5
3B
330
5
100
AcDbSymbolTableRecord
100
AcDbLinetypeTableRecord
  2
DASHDOTTINY
 70
    0
  3
Dash dot (.15x) _._._._._._._._._._._._._._._.
 72
   65
 73
    4
 40
3.81
 49
1.905
 74
    0
 49
-0.9525
 74
    0
 49
0
 74
    0
 49
-0.9525
 74
    0
  0
LTYPE
  5
3C
330
5
100
AcDbSymbolTableRecord
100
AcDbLinetypeTableRecord
  2
DASHDOT2
 70
    0
  3
Dash dot (.5x) _._._._._._._._._._._._._._._.
 72
   65
 73
    4
 40
12.7
 49
6.35
 74
    0
 49
-3.175
 74
    0
 49
0
 74
    0
 49
-3.175
 74
    0
  0
LTYPE
  5
3D
330
5
100
AcDbSymbolTableRecord
100
AcDbLinetypeTableRecord
  2
DASHDOTX2
 70
    0
  3
Dash dot (2x) ____  .  ____  .  ____  .  ___
 72
   65
 73
    4
 40
50.8
 49
25.4
 74
    0
 49
-12.7
 74
    0
 49
0
 74
    0
 49
-12.7
 74
    0
  0
LTYPE
  5
3E
330
5
100
AcDbSymbolTableRecord
100
AcDbLinetypeTableRecord
  2
DIVIDE
 70
    0
  3
Divide ____ . . ____ . . ____ . . ____ . . ____
 72
   65
 73
    6
 40
31.75
 49
12.7
 74
    0
 49
-6.35
 74
    0
 49
0
 74
    0
 49
-6.35
 74
    0
 49
0
 74
    0
 49
-6.35
 74
    0
  0
LTYPE
  5
3F
330
5
100
AcDbSymbolTableRecord
100
AcDbLinetypeTableRecord
  2
DIVIDETINY
 70
    0
  3
Divide (.15x) __..__..__..__..__..__..__..__.._
 72
   65
 73
    6
 40
4.7625
 49
1.905
 74
    0
 49
-0.9525
 74
    0
 49
0
 74
    0
 49
-0.9525
 74
    0
 49
0
 74
    0
 49
-0.9525
 74
    0
  0
LTYPE
  5
40
330
5
100
AcDbSymbolTableRecord
100
AcDbLinetypeTableRecord
  2
DIVIDE2
 70
    0
  3
Divide (.5x) __..__..__..__..__..__..__..__.._
 72
   65
 73
    6
 40
15.875
 49
6.35
 74
    0
 49
-3.175
 74
    0
 49
0
 74
    0
 49
-3.175
 74
    0
 49
0
 74
    0
 49
-3.175
 74
    0
  0
LTYPE
  5
41
330
5
100
AcDbSymbolTableRecord
100
AcDbLinetypeTableRecord
  2
DIVIDEX2
 70
    0
  3
Divide (2x) ________  .  .  ________  .  .  _
 72
   65
 73
    6
 40
63.5
 49
25.4
 74
    0
 49
-12.7
 74
    0
 49
0
 74
    0
 49
-12.7
 74
    0
 49
0
 74
    0
 49
-12.7
 74
    0
  0
LTYPE
  5
42
330
5
100
AcDbSymbolTableRecord
100
AcDbLinetypeTableRecord
  2
BORDER
 70
    0
  3
Border __ __ . __ __ . __ __ . __ __ . __ __ .
 72
   65
 73
    6
 40
44.45
 49
12.7
 74
    0
 49
-6.35
 74
    0
 49
12.7
 74
    0
 49
-6.35
 74
    0
 49
0
 74
    0
 49
-6.35
 74
    0
  0
LTYPE
  5
43
330
5
100
AcDbSymbolTableRecord
100
AcDbLinetypeTableRecord
  2
BORDERTINY
 70
    0
  3
Border (.15x) __.__.__.__.__.__.__.__.__.__.__.
 72
   65
 73
    6
 40
6.6675
 49
1.905
 74
    0
 49
-0.9525
 74
    0
 49
1.905
 74
    0
 49
-0.9525
 74
    0
 49
0
 74
    0
 49
-0.9525
 74
    0
  0
LTYPE
  5
44
330
5
100
AcDbSymbolTableRecord
100
AcDbLinetypeTableRecord
  2
BORDER2
 70
    0
  3
Border (.5x) __.__.__.__.__.__.__.__.__.__.__.
 72
   65
 73
    6
 40
22.225
 49
6.35
 74
    0
 49
-3.175
 74
    0
 49
6.35
 74
    0
 49
-3.175
 74
    0
 49
0
 74
    0
 49
-3.175
 74
    0
  0
LTYPE
  5
45
330
5
100
AcDbSymbolTableRecord
100
AcDbLinetypeTableRecord
  2
BORDERX2
 70
    0
  3
Border (2x) ____  ____  .  ____  ____  .  ___
 72
   65
 73
    6
 40
88.89999999999999
 49
25.4
 74
    0
 49
-12.7
 74
    0
 49
25.4
 74
    0
 49
-12.7
 74
    0
 49
0
 74
    0
 49
-12.7
 74
    0
  0
LTYPE
  5
46
330
5
100
AcDbSymbolTableRecord
100
AcDbLinetypeTableRecord
  2
CENTER
 70
    0
  3
Center ____ _ ____ _ ____ _ ____ _ ____ _ ____
 72
   65
 73
    4
 40
50.8
 49
31.75
 74
    0
 49
-6.35
 74
    0
 49
6.35
 74
    0
 49
-6.35
 74
    0
  0
LTYPE
  5
47
330
5
100
AcDbSymbolTableRecord
100
AcDbLinetypeTableRecord
  2
CENTERTINY
 70
    0
  3
Center (.15x) ___ _ ___ _ ___ _ ___ _ ___ _ ___
 72
   65
 73
    4
 40
7.62
 49
4.7625
 74
    0
 49
-0.9525
 74
    0
 49
0.9525
 74
    0
 49
-0.9525
 74
    0
  0
LTYPE
  5
48
330
5
100
AcDbSymbolTableRecord
100
AcDbLinetypeTableRecord
  2
CENTER2
 70
    0
  3
Center (.5x) ___ _ ___ _ ___ _ ___ _ ___ _ ___
 72
   65
 73
    4
 40
28.575
 49
19.05
 74
    0
 49
-3.175
 74
    0
 49
3.175
 74
    0
 49
-3.175
 74
    0
  0
LTYPE
  5
49
330
5
100
AcDbSymbolTableRecord
100
AcDbLinetypeTableRecord
  2
CENTERX2
 70
    0
  3
Center (2x) ________  __  ________  __  _____
 72
   65
 73
    4
 40
101.6
 49
63.5
 74
    0
 49
-12.7
 74
    0
 49
12.7
 74
    0
 49
-12.7
 74
    0
  0
ENDTAB
  0
TABLE
  2
LAYER
  5
2
330
0
100
AcDbSymbolTable
 70
    1
  0
LAYER
  5
10
330
2
100
AcDbSymbolTableRecord
100
AcDbLayerTableRecord
  2
0
 70
    0
 62
    7
  6
CONTINUOUS
370
    0
390
F
  0
LAYER
  5
4A
330
2
100
AcDbSymbolTableRecord
100
AcDbLayerTableRecord
  2
BLACK
 70
    0
 62
    7
  6
CONTINUOUS
370
   -3
390
F
  0
LAYER
  5
4B
330
2
100
AcDbSymbolTableRecord
100
AcDbLayerTableRecord
  2
BLUE1
 70
    0
 62
  178
  6
CONTINUOUS
370
   -3
390
F
  0
LAYER
  5
4C
330
2
100
AcDbSymbolTableRecord
100
AcDbLayerTableRecord
  2
BLUE2
 70
    0
 62
    5
  6
CONTINUOUS
370
   -3
390
F
  0
LAYER
  5
4D
330
2
100
AcDbSymbolTableRecord
100
AcDbLayerTableRecord
  2
BLUE3
 70
    0
 62
  171
  6
CONTINUOUS
370
   -3
390
F
  0
LAYER
  5
4E
330
2
100
AcDbSymbolTableRecord
100
AcDbLayerTableRecord
  2
BLUE4
 70
    0
 62
    5
  6
CONTINUOUS
370
   -3
390
F
  0
LAYER
  5
4F
330
2
100
AcDbSymbolTableRecord
100
AcDbLayerTableRecord
  2
BROWN1
 70
    0
 62
   58
  6
CONTINUOUS
370
   -3
390
F
  0
LAYER
  5
50
330
2
100
AcDbSymbolTableRecord
100
AcDbLayerTableRecord
  2
BROWN2
 70
    0
 62
   54
  6
CONTINUOUS
370
   -3
390
F
  0
LAYER
  5
51
330
2
100
AcDbSymbolTableRecord
100
AcDbLayerTableRecord
  2
CYAN1
 70
    0
 62
  138
  6
CONTINUOUS
370
   -3
390
F
  0
LAYER
  5
52
330
2
100
AcDbSymbolTableRecord
100
AcDbLayerTableRecord
  2
CYAN2
 70
    0
 62
    4
  6
CONTINUOUS
370
   -3
390
F
  0
LAYER
  5
53
330
2
100
AcDbSymbolTableRecord
100
AcDbLayerTableRecord
  2
CYAN3
 70
    0
 62
  131
  6
CONTINUOUS
370
   -3
390
F
  0
LAYER
  5
54
330
2
100
AcDbSymbolTableRecord
100
AcDbLayerTableRecord
  2
CYAN4
 70
    0
 62
    4
  6
CONTINUOUS
370
   -3
390
F
  0
LAYER
  5
55
330
2
100
AcDbSymbolTableRecord
100
AcDbLayerTableRecord
  2
GRAY1
 70
    0
 62
  251
  6
CONTINUOUS
370
   -3
390
F
  0
LAYER
  5
56
330
2
100
AcDbSymbolTableRecord
100
AcDbLayerTableRecord
  2
GRAY2
 70
    0
 62
    8
  6
CONTINUOUS
370
   -3
390
F
  0
LAYER
  5
57
330
2
100
AcDbSymbolTableRecord
100
AcDbLayerTableRecord
  2
GRAY3
 70
    0
 62
    9
  6
CONTINUOUS
370
   -3
390
F
  0
LAYER
  5
58
330
2
100
AcDbSymbolTableRecord
100
AcDbLayerTableRecord
  2
GREEN1
 70
    0
 62
   98
  6
CONTINUOUS
370
   -3
390
F
  0
LAYER
  5
59
330
2
100
AcDbSymbolTableRecord
100
AcDbLayerTableRecord
  2
GREEN2
 70
    0
 62
    3
  6
CONTINUOUS
370
   -3
390
F
  0
LAYER
  5
5A
330
2
100
AcDbSymbolTableRecord
100
AcDbLayerTableRecord
  2
GREEN3
 70
    0
 62
   91
  6
CONTINUOUS
370
   -3
390
F
  0
LAYER
  5
5B
330
2
100
AcDbSymbolTableRecord
100
AcDbLayerTableRecord
  2
GREEN4
 70
    0
 62
    3
  6
CONTINUOUS
370
   -3
390
F
  0
LAYER
  5
5C
330
2
100
AcDbSymbolTableRecord
100
AcDbLayerTableRecord
  2
LYELLOW
 70
    0
 62
   51
  6
CONTINUOUS
370
   -3
390
F
  0
LAYER
  5
5D
330
2
100
AcDbSymbolTableRecord
100
AcDbLayerTableRecord
  2
MAGENTA1
 70
    0
 62
  228
  6
CONTINUOUS
370
   -3
390
F
  0
LAYER
  5
5E
330
2
100
AcDbSymbolTableRecord
100
AcDbLayerTableRecord
  2
MAGENTA2
 70
    0
 62
    6
  6
CONTINUOUS
370
   -3
390
F
  0
LAYER
  5
5F
330
2
100
AcDbSymbolTableRecord
100
AcDbLayerTableRecord
  2
MAGENTA3
 70
    0
 62
  221
  6
CONTINUOUS
370
   -3
390
F
  0
LAYER
  5
60
330
2
100
AcDbSymbolTableRecord
100
AcDbLayerTableRecord
  2
MAGENTA4
 70
    0
 62
    6
  6
CONTINUOUS
370
   -3
390
F
  0
LAYER
  5
61
330
2
100
AcDbSymbolTableRecord
100
AcDbLayerTableRecord
  2
RED1
 70
    0
 62
   18
  6
CONTINUOUS
370
   -3
390
F
  0
LAYER
  5
62
330
2
100
AcDbSymbolTableRecord
100
AcDbLayerTableRecord
  2
RED2
 70
    0
 62
    1
  6
CONTINUOUS
370
   -3
390
F
  0
LAYER
  5
63
330
2
100
AcDbSymbolTableRecord
100
AcDbLayerTableRecord
  2
RED3
 70
    0
 62
   11
  6
CONTINUOUS
370
   -3
390
F
  0
LAYER
  5
64
330
2
100
AcDbSymbolTableRecord
100
AcDbLayerTableRecord
  2
RED4
 70
    0
 62
    1
  6
CONTINUOUS
370
   -3
390
F
  0
LAYER
  5
65
330
2
100
AcDbSymbolTableRecord
100
AcDbLayerTableRecord
  2
WHITE
 70
    0
 62
    7
  6
CONTINUOUS
370
   -3
390
F
  0
LAYER
  5
66
330
2
100
AcDbSymbolTableRecord
100
AcDbLayerTableRecord
  2
YELLOW3
 70
    0
 62
    2
  6
CONTINUOUS
370
   -3
390
F
  0
LAYER
  5
67
330
2
100
AcDbSymbolTableRecord
100
AcDbLayerTableRecord
  2
YELLOW4
 70
    0
 62
    2
  6
CONTINUOUS
370
   -3
390
F
  0
ENDTAB
  0
TABLE
  2
STYLE
  5
3
330
0
100
AcDbSymbolTable
 70
    3
  0
STYLE
  5
68
330
2
100
AcDbSymbolTableRecord
100
AcDbTextStyleTableRecord
  2
iso
 70
    0
 40
0
 41
1
 50
0
 71
    0
 42
1
  3
iso
  4

  0
STYLE
  5
69
330
2
100
AcDbSymbolTableRecord
100
AcDbTextStyleTableRecord
  2
standard
 70
    0
 40
0
 41
1
 50
0
 71
    0
 42
1
  3
standard
  4

  0
ENDTAB
  0
TABLE
  2
VIEW
  5
6
330
0
100
AcDbSymbolTable
 70
    0
  0
ENDTAB
  0
TABLE
  2
UCS
  5
7
330
0
100
AcDbSymbolTable
 70
    0
  0
ENDTAB
  0
TABLE
  2
APPID
  5
9
330
0
100
AcDbSymbolTable
 70
    1
  0
APPID
  5
12
330
9
100
AcDbSymbolTableRecord
100
AcDbRegAppTableRecord
  2
ACAD
 70
    0
  0
APPID
  5
6A
330
9
100
AcDbSymbolTableRecord
100
AcDbRegAppTableRecord
  2
LibreCad
 70
    0
  0
ENDTAB
  0
TABLE
  2
DIMSTYLE
  5
A
330
0
100
AcDbSymbolTable
 70
    1
100
AcDbDimStyleTable
 71
    1
  0
DIMSTYLE
105
6B
330
A
100
AcDbSymbolTableRecord
100
AcDbDimStyleTableRecord
  2
Standard
 70
    0
 40
2.5
 41
2.5
 42
0.625
 43
0.38
 44
1.25
 45
0
 46
0
 47
0
 48
0
 49
1
140
2.5
141
0.09
142
0
143
25.4
144
1
145
0
146
1
147
0.625
148
0
 71
    0
 72
    0
 73
    0
 74
    1
 75
    0
 76
    0
 77
    0
 78
    8
 79
    0
170
    0
171
    2
172
    0
173
    0
174
    0
175
    0
176
    0
177
    0
178
    0
179
    0
271
    2
272
    4
273
    2
274
    2
275
    0
276
    0
277
    2
278
   44
279
    0
280
    0
281
    0
282
    0
283
    1
284
    0
285
    0
286
    0
288
    0
289
    3
340
STANDARD
341

371
   -2
372
   -2
  0
ENDTAB
  0
TABLE
  2
BLOCK_RECORD
  5
1
330
0
100
AcDbSymbolTable
 70
    2
  0
BLOCK_RECORD
  5
1F
330
1
100
AcDbSymbolTableRecord
100
AcDbBlockTableRecord
  2
*Model_Space
 70
    0
280
    1
281
    0
  0
BLOCK_RECORD
  5
1E
330
1
100
AcDbSymbolTableRecord
100
AcDbBlockTableRecord
  2
*Paper_Space
 70
    0
280
    1
281
    0
  0
BLOCK_RECORD
  5
6C
330
1
100
AcDbSymbolTableRecord
100
AcDbBlockTableRecord
  2
case-v2-l1
 70
    0
280
    1
281
    0
  0
BLOCK_RECORD
  5
6F
330
1
100
AcDbSymbolTableRecord
100
AcDbBlockTableRecord
  2
case-v2-l2
 70
    0
280
    1
281
    0
  0
BLOCK_RECORD
  5
72
330
1
100
AcDbSymbolTableRecord
100
AcDbBlockTableRecord
  2
case-v2-l3
 70
    0
280
    1
281
    0
  0
BLOCK_RECORD
  5
75
330
1
100
AcDbSymbolTableRecord
100
AcDbBlockTableRecord
  2
case-v2-l4
 70
    0
280
    1
281
    0
  0
BLOCK_RECORD
  5
78
330
1
100
AcDbSymbolTableRecord
100
AcDbBlockTableRecord
  2
case-v2-l1-0
 70
    0
280
    1
281
    0
  0
BLOCK_RECORD
  5
7B
330
1
100
AcDbSymbolTableRecord
100
AcDbBlockTableRecord
  2
case-v2-l2-0
 70
    0
280
    1
281
    0
  0
BLOCK_RECORD
  5
7E
330
1
100
AcDbSymbolTableRecord
100
AcDbBlockTableRecord
  2
case-v2-l3-0
 70
    0
280
    1
281
    0
  0
BLOCK_RECORD
  5
81
330
1
100
AcDbSymbolTableRecord
100
AcDbBlockTableRecord
  2
case-v2-l4-0
 70
    0
280
    1
281
    0
  0
BLOCK_RECORD
  5
84
330
1
100
AcDbSymbolTableRecord
100
AcDbBlockTableRecord
  2
case-v2-l1-1
 70
    0
280
    1
281
    0
  0
BLOCK_RECORD
  5
87
330
1
100
AcDbSymbolTableRecord
100
AcDbBlockTableRecord
  2
case-v2-l2-1
 70
    0
280
    1
281
    0
  0
BLOCK_RECORD
  5
8A
330
1
100
AcDbSymbolTableRecord
100
AcDbBlockTableRecord
  2
case-v2-l3-1
 70
    0
280
    1
281
    0
  0
BLOCK_RECORD
  5
8D
330
1
100
AcDbSymbolTableRecord
100
AcDbBlockTableRecord
  2
case-v2-l4-1
 70
    0
280
    1
281
    0
  0
BLOCK_RECORD
  5
90
330
1
100
AcDbSymbolTableRecord
100
AcDbBlockTableRecord
  2
case-v2-l3-2
 70
    0
280
    1
281
    0
  0
BLOCK_RECORD
  5
93
330
1
100
AcDbSymbolTableRecord
100
AcDbBlockTableRecord
  2
case-v2-l3-3
 70
    0
280
    1
281
    0
  0
BLOCK_RECORD
  5
96
330
1
100
AcDbSymbolTableRecord
100
AcDbBlockTableRecord
  2
redox_rev1_case_v2_l1-Edge_Cuts
 70
    0
280
    1
281
    0
  0
BLOCK_RECORD
  5
99
330
1
100
AcDbSymbolTableRecord
100
AcDbBlockTableRecord
  2
case-v2-l1-2
 70
    0
280
    1
281
    0
  0
BLOCK_RECORD
  5
9C
330
1
100
AcDbSymbolTableRecord
100
AcDbBlockTableRecord
  2
case-v2-l4-2
 70
    0
280
    1
281
    0
  0
BLOCK_RECORD
  5
9F
330
1
100
AcDbSymbolTableRecord
100
AcDbBlockTableRecord
  2
case-v2-l3-4
 70
    0
280
    1
281
    0
  0
BLOCK_RECORD
  5
A2
330
1
100
AcDbSymbolTableRecord
100
AcDbBlockTableRecord
  2
case-v2-l3-5
 70
    0
280
    1
281
    0
  0
BLOCK_RECORD
  5
A5
330
1
100
AcDbSymbolTableRecord
100
AcDbBlockTableRecord
  2
redox_rev1_case_v2_l1-Edge_Cuts-0
 70
    0
280
    1
281
    0
  0
BLOCK_RECORD
  5
A8
330
1
100
AcDbSymbolTableRecord
100
AcDbBlockTableRecord
  2
case-v2-l1-3
 70
    0
280
    1
281
    0
  0
BLOCK_RECORD
  5
AB
330
1
100
AcDbSymbolTableRecord
100
AcDbBlockTableRecord
  2
case-v2-l4-3
 70
    0
280
    1
281
    0
  0
BLOCK_RECORD
  5
AE
330
1
100
AcDbSymbolTableRecord
100
AcDbBlockTableRecord
  2
case-v2-l3-6
 70
    0
280
    1
281
    0
  0
BLOCK_RECORD
  5
B1
330
1
100
AcDbSymbolTableRecord
100
AcDbBlockTableRecord
  2
case-v2-l3-7
 70
    0
280
    1
281
    0
  0
BLOCK_RECORD
  5
B4
330
1
100
AcDbSymbolTableRecord
100
AcDbBlockTableRecord
  2
redox_rev1_case_v2_l1-Edge_Cuts-1
 70
    0
280
    1
281
    0
  0
ENDTAB
  0
ENDSEC
  0
SECTION
  2
BLOCKS
  0
BLOCK
  5
20
330
1F
100
AcDbEntity
  8
0
100
AcDbBlockBegin
  2
*Model_Space
 70
    0
 10
0
 20
0
 30
0
  3
*Model_Space
  1

  0
ENDBLK
  5
21
330
1F
100
AcDbEntity
  8
0
100
AcDbBlockEnd
  0
BLOCK
  5
1C
330
1B
100
AcDbEntity
  8
0
100
AcDbBlockBegin
  2
*Paper_Space
 70
    0
 10
0
 20
0
 30
0
  3
*Paper_Space
  1

  0
ENDBLK
  5
1D
330
1F
100
AcDbEntity
  8
0
100
AcDbBlockEnd
  0
BLOCK
  5
6D
330
6C
100
AcDbEntity
  8
0
100
AcDbBlockBegin
  2
case-v2-l1
 70
    0
 10
0
 20
0
  3
case-v2-l1
  1

  0
LWPOLYLINE
  5
B7
100
AcDbEntity
  8
0
  6
ByLayer
 62
  256
370
   -1
100
AcDbPolyline
 90
   25
 70
    0
 43
0
 10
6343.74
 20
-1968.75
 10
6343.74
 20
-2062.5
 10
7093.74
 20
-2062.5
 10
7093.74
 20
-2136.56
 10
7843.73
 20
-2136.56
 10
7843.73
 20
-2511.56
 10
8593.73
 20
-2511.56
 10
8593.73
 20
-4718.74
 10
8882.859999999999
 20
-4894.43
 10
7933.55
 20
-6537.14
 10
7218.74
 20
-6124.99
 10
7218.74
 20
-6062.49
 10
6562.49
 20
-5874.99
 10
6093.74
 20
-5734.49
 10
5593.74
 20
-5734.49
 10
5593.74
 20
-5843.74
 10
4812.49
 20
-5843.74
 10
4812.49
 20
-5261.799999999999
 10
3132.87
 20
-5261.799999999999
 10
3132.87
 20
-2238.43
 10
4812.49
 20
-2238.43
 10
4812.49
 20
-2062.5
 10
5562.49
 20
-2062.5
 10
5562.49
 20
-1964.81
 10
6343.74
 20
-1964.81
  0
LWPOLYLINE
  5
B8
100
AcDbEntity
  8
0
  6
ByLayer
 62
  256
370
   -1
100
AcDbPolyline
 90
   14
 70
    1
 43
0
 10
3949.99
 20
-1593.75
 10
3343.74
 20
-1593.75
 10
2781.24
 20
-2156.25
 10
2781.24
 20
-5199.99
 10
3312.49
 20
-5687.49
 10
4781.24
 20
-6124.99
 10
5749.99
 20
-6124.99
 10
7656.23
 20
-6718.74
 10
8343.73
 20
-6468.74
 10
9249.98
 20
-5249.99
 10
8999.98
 20
-4599.99
 10
8843.73
 20
-2093.75
 10
8349.98
 20
-1593.75
 10
3949.99
 20
-1593.75
  0
ARC
  5
B9
100
AcDbEntity
  8
0
  6
ByLayer
 62
  256
370
   -1
100
AcDbCircle
 10
8031.230169000286
 20
-1731.38
 40
50
100
AcDbArc
 50
0.1489691945702162
 51
359.8510308054244
  0
ARC
  5
BA
100
AcDbEntity
  8
0
  6
ByLayer
 62
  256
370
   -1
100
AcDbCircle
 10
2931.240169000286
 20
-2331.38
 40
50
100
AcDbArc
 50
0.1489691945702162
 51
359.8510308054244
  0
ARC
  5
BB
100
AcDbEntity
  8
0
  6
ByLayer
 62
  256
370
   -1
100
AcDbCircle
 10
6893.740169000285
 20
-6231.369999999999
 40
50
100
AcDbArc
 50
0.1489691945702162
 51
359.8510308054244
  0
ARC
  5
BC
100
AcDbEntity
  8
0
  6
ByLayer
 62
  256
370
   -1
100
AcDbCircle
 10
3762.490169000286
 20
-5637.619999999999
 40
50
100
AcDbArc
 50
0.1489691945702162
 51
359.8510308054244
  0
ARC
  5
BD
100
AcDbEntity
  8
0
  6
ByLayer
 62
  256
370
   -1
100
AcDbCircle
 10
8787.480169000286
 20
-4500.12
 40
50
100
AcDbArc
 50
0.1489691945702162
 51
359.8510308054244
  0
ENDBLK
  5
6E
330
6C
100
AcDbEntity
  8
0
100
AcDbBlockEnd
  0
BLOCK
  5
70
330
6F
100
AcDbEntity
  8
0
100
AcDbBlockBegin
  2
case-v2-l2
 70
    0
 10
0
 20
0
  3
case-v2-l2
  1

  0
LWPOLYLINE
  5
BE
100
AcDbEntity
  8
0
  6
ByLayer
 62
  256
370
   -1
100
AcDbPolyline
 90
    5
 70
    1
 43
0
 10
8156.23
 20
-4281.24
 10
8156.23
 20
-4718.74
 10
7968.73
 20
-4718.74
 10
7968.73
 20
-4281.24
 10
8156.23
 20
-4281.24
  0
LWPOLYLINE
  5
BF
100
AcDbEntity
  8
0
  6
ByLayer
 62
  256
370
   -1
100
AcDbPolyline
 90
   14
 70
    1
 43
0
 10
3949.99
 20
-1593.75
 10
3343.74
 20
-1593.75
 10
2781.24
 20
-2156.25
 10
2781.24
 20
-5199.99
 10
3312.49
 20
-5687.49
 10
4781.24
 20
-6124.99
 10
5749.99
 20
-6124.99
 10
7656.23
 20
-6718.74
 10
8343.73
 20
-6468.74
 10
9249.98
 20
-5249.99
 10
8999.98
 20
-4599.99
 10
8843.73
 20
-2093.75
 10
8349.98
 20
-1593.75
 10
3949.99
 20
-1593.75
  0
LWPOLYLINE
  5
C0
100
AcDbEntity
  8
0
  6
ByLayer
 62
  256
370
   -1
100
AcDbPolyline
 90
    5
 70
    1
 43
0
 10
5674.99
 20
-2624.99
 10
5674.99
 20
-2075
 10
6224.99
 20
-2075
 10
6224.99
 20
-2624.99
 10
5674.99
 20
-2624.99
  0
LWPOLYLINE
  5
C1
100
AcDbEntity
  8
0
  6
ByLayer
 62
  256
370
   -1
100
AcDbPolyline
 90
    5
 70
    1
 43
0
 10
6974.99
 20
-3674.99
 10
6974.99
 20
-4224.99
 10
6424.99
 20
-4224.99
 10
6424.99
 20
-3674.99
 10
6974.99
 20
-3674.99
  0
LWPOLYLINE
  5
C2
100
AcDbEntity
  8
0
  6
ByLayer
 62
  256
370
   -1
100
AcDbPolyline
 90
    5
 70
    1
 43
0
 10
7975.639999999999
 20
-6225.639999999999
 10
7499.33
 20
-5950.650000000001
 10
7774.33
 20
-5474.33
 10
8250.639999999999
 20
-5749.33
 10
7975.639999999999
 20
-6225.639999999999
  0
LWPOLYLINE
  5
C3
100
AcDbEntity
  8
0
  6
ByLayer
 62
  256
370
   -1
100
AcDbPolyline
 90
    5
 70
    1
 43
0
 10
8474.98
 20
-4124.99
 10
7924.98
 20
-4124.99
 10
7924.98
 20
-3574.99
 10
8474.98
 20
-3574.99
 10
8474.98
 20
-4124.99
  0
LWPOLYLINE
  5
C4
100
AcDbEntity
  8
0
  6
ByLayer
 62
  256
370
   -1
100
AcDbPolyline
 90
    5
 70
    1
 43
0
 10
4174.99
 20
-2899.99
 10
4174.99
 20
-2350
 10
4724.99
 20
-2350
 10
4724.99
 20
-2899.99
 10
4174.99
 20
-2899.99
  0
LWPOLYLINE
  5
C5
100
AcDbEntity
  8
0
  6
ByLayer
 62
  256
370
   -1
100
AcDbPolyline
 90
    5
 70
    1
 43
0
 10
4924.99
 20
-2724.99
 10
4924.99
 20
-2175
 10
5474.99
 20
-2175
 10
5474.99
 20
-2724.99
 10
4924.99
 20
-2724.99
  0
LWPOLYLINE
  5
C6
100
AcDbEntity
  8
0
  6
ByLayer
 62
  256
370
   -1
100
AcDbPolyline
 90
    5
 70
    1
 43
0
 10
6424.99
 20
-2724.99
 10
6424.99
 20
-2175
 10
6974.99
 20
-2175
 10
6974.99
 20
-2724.99
 10
6424.99
 20
-2724.99
  0
LWPOLYLINE
  5
C7
100
AcDbEntity
  8
0
  6
ByLayer
 62
  256
370
   -1
100
AcDbPolyline
 90
    5
 70
    1
 43
0
 10
7174.99
 20
-2799.99
 10
7174.99
 20
-2250
 10
7724.98
 20
-2250
 10
7724.98
 20
-2799.99
 10
7174.99
 20
-2799.99
  0
LWPOLYLINE
  5
C8
100
AcDbEntity
  8
0
  6
ByLayer
 62
  256
370
   -1
100
AcDbPolyline
 90
    5
 70
    1
 43
0
 10
7924.98
 20
-3174.99
 10
7924.98
 20
-2624.99
 10
8474.98
 20
-2624.99
 10
8474.98
 20
-3174.99
 10
7924.98
 20
-3174.99
  0
LWPOLYLINE
  5
C9
100
AcDbEntity
  8
0
  6
ByLayer
 62
  256
370
   -1
100
AcDbPolyline
 90
    5
 70
    1
 43
0
 10
4724.99
 20
-3099.99
 10
4724.99
 20
-3649.99
 10
4174.99
 20
-3649.99
 10
4174.99
 20
-3099.99
 10
4724.99
 20
-3099.99
  0
LWPOLYLINE
  5
CA
100
AcDbEntity
  8
0
  6
ByLayer
 62
  256
370
   -1
100
AcDbPolyline
 90
    5
 70
    1
 43
0
 10
5474.99
 20
-2924.99
 10
5474.99
 20
-3474.99
 10
4924.99
 20
-3474.99
 10
4924.99
 20
-2924.99
 10
5474.99
 20
-2924.99
  0
LWPOLYLINE
  5
CB
100
AcDbEntity
  8
0
  6
ByLayer
 62
  256
370
   -1
100
AcDbPolyline
 90
    5
 70
    1
 43
0
 10
6224.99
 20
-2824.99
 10
6224.99
 20
-3374.99
 10
5674.99
 20
-3374.99
 10
5674.99
 20
-2824.99
 10
6224.99
 20
-2824.99
  0
LWPOLYLINE
  5
CC
100
AcDbEntity
  8
0
  6
ByLayer
 62
  256
370
   -1
100
AcDbPolyline
 90
    5
 70
    1
 43
0
 10
6974.99
 20
-2924.99
 10
6974.99
 20
-3474.99
 10
6424.99
 20
-3474.99
 10
6424.99
 20
-2924.99
 10
6974.99
 20
-2924.99
  0
LWPOLYLINE
  5
CD
100
AcDbEntity
  8
0
  6
ByLayer
 62
  256
370
   -1
100
AcDbPolyline
 90
    5
 70
    1
 43
0
 10
7724.98
 20
-2999.99
 10
7724.98
 20
-3549.99
 10
7174.99
 20
-3549.99
 10
7174.99
 20
-2999.99
 10
7724.98
 20
-2999.99
  0
LWPOLYLINE
  5
CE
100
AcDbEntity
  8
0
  6
ByLayer
 62
  256
370
   -1
100
AcDbPolyline
 90
    5
 70
    1
 43
0
 10
4724.99
 20
-3849.99
 10
4724.99
 20
-4399.99
 10
4174.99
 20
-4399.99
 10
4174.99
 20
-3849.99
 10
4724.99
 20
-3849.99
  0
LWPOLYLINE
  5
CF
100
AcDbEntity
  8
0
  6
ByLayer
 62
  256
370
   -1
100
AcDbPolyline
 90
    5
 70
    1
 43
0
 10
5474.99
 20
-3674.99
 10
5474.99
 20
-4224.99
 10
4924.99
 20
-4224.99
 10
4924.99
 20
-3674.99
 10
5474.99
 20
-3674.99
  0
LWPOLYLINE
  5
D0
100
AcDbEntity
  8
0
  6
ByLayer
 62
  256
370
   -1
100
AcDbPolyline
 90
    5
 70
    1
 43
0
 10
6224.99
 20
-3574.99
 10
6224.99
 20
-4124.99
 10
5674.99
 20
-4124.99
 10
5674.99
 20
-3574.99
 10
6224.99
 20
-3574.99
  0
LWPOLYLINE
  5
D1
100
AcDbEntity
  8
0
  6
ByLayer
 62
  256
370
   -1
100
AcDbPolyline
 90
    5
 70
    1
 43
0
 10
7724.98
 20
-3749.99
 10
7724.98
 20
-4299.99
 10
7174.99
 20
-4299.99
 10
7174.99
 20
-3749.99
 10
7724.98
 20
-3749.99
  0
LWPOLYLINE
  5
D2
100
AcDbEntity
  8
0
  6
ByLayer
 62
  256
370
   -1
100
AcDbPolyline
 90
    5
 70
    1
 43
0
 10
8725.639999999999
 20
-4924.33
 10
8450.639999999999
 20
-5400.650000000001
 10
7974.33
 20
-5125.650000000001
 10
8249.33
 20
-4649.33
 10
8725.639999999999
 20
-4924.33
  0
LWPOLYLINE
  5
D3
100
AcDbEntity
  8
0
  6
ByLayer
 62
  256
370
   -1
100
AcDbPolyline
 90
    5
 70
    1
 43
0
 10
4724.99
 20
-4599.99
 10
4724.99
 20
-5149.99
 10
4174.99
 20
-5149.99
 10
4174.99
 20
-4599.99
 10
4724.99
 20
-4599.99
  0
LWPOLYLINE
  5
D4
100
AcDbEntity
  8
0
  6
ByLayer
 62
  256
370
   -1
100
AcDbPolyline
 90
    5
 70
    1
 43
0
 10
5474.99
 20
-4424.99
 10
5474.99
 20
-4974.99
 10
4924.99
 20
-4974.99
 10
4924.99
 20
-4424.99
 10
5474.99
 20
-4424.99
  0
LWPOLYLINE
  5
D5
100
AcDbEntity
  8
0
  6
ByLayer
 62
  256
370
   -1
100
AcDbPolyline
 90
    5
 70
    1
 43
0
 10
6224.99
 20
-4324.99
 10
6224.99
 20
-4874.99
 10
5674.99
 20
-4874.99
 10
5674.99
 20
-4324.99
 10
6224.99
 20
-4324.99
  0
LWPOLYLINE
  5
D6
100
AcDbEntity
  8
0
  6
ByLayer
 62
  256
370
   -1
100
AcDbPolyline
 90
    5
 70
    1
 43
0
 10
6974.99
 20
-4424.99
 10
6974.99
 20
-4974.99
 10
6424.99
 20
-4974.99
 10
6424.99
 20
-4424.99
 10
6974.99
 20
-4424.99
  0
LWPOLYLINE
  5
D7
100
AcDbEntity
  8
0
  6
ByLayer
 62
  256
370
   -1
100
AcDbPolyline
 90
    5
 70
    1
 43
0
 10
7724.98
 20
-4499.99
 10
7724.98
 20
-5049.99
 10
7174.99
 20
-5049.99
 10
7174.99
 20
-4499.99
 10
7724.98
 20
-4499.99
  0
LWPOLYLINE
  5
D8
100
AcDbEntity
  8
0
  6
ByLayer
 62
  256
370
   -1
100
AcDbPolyline
 90
    5
 70
    1
 43
0
 10
5474.99
 20
-5174.99
 10
5474.99
 20
-5724.99
 10
4924.99
 20
-5724.99
 10
4924.99
 20
-5174.99
 10
5474.99
 20
-5174.99
  0
LWPOLYLINE
  5
D9
100
AcDbEntity
  8
0
  6
ByLayer
 62
  256
370
   -1
100
AcDbPolyline
 90
    5
 70
    1
 43
0
 10
6224.99
 20
-5074.99
 10
6224.99
 20
-5624.99
 10
5674.99
 20
-5624.99
 10
5674.99
 20
-5074.99
 10
6224.99
 20
-5074.99
  0
LWPOLYLINE
  5
DA
100
AcDbEntity
  8
0
  6
ByLayer
 62
  256
370
   -1
100
AcDbPolyline
 90
    5
 70
    1
 43
0
 10
3324.99
 20
-2899.99
 10
3324.99
 20
-2350
 10
3874.99
 20
-2350
 10
3874.99
 20
-2899.99
 10
3324.99
 20
-2899.99
  0
LWPOLYLINE
  5
DB
100
AcDbEntity
  8
0
  6
ByLayer
 62
  256
370
   -1
100
AcDbPolyline
 90
    5
 70
    1
 43
0
 10
3874.99
 20
-3099.99
 10
3874.99
 20
-3649.99
 10
3324.99
 20
-3649.99
 10
3324.99
 20
-3099.99
 10
3874.99
 20
-3099.99
  0
LWPOLYLINE
  5
DC
100
AcDbEntity
  8
0
  6
ByLayer
 62
  256
370
   -1
100
AcDbPolyline
 90
    5
 70
    1
 43
0
 10
3874.99
 20
-3849.99
 10
3874.99
 20
-4399.99
 10
3324.99
 20
-4399.99
 10
3324.99
 20
-3849.99
 10
3874.99
 20
-3849.99
  0
LWPOLYLINE
  5
DD
100
AcDbEntity
  8
0
  6
ByLayer
 62
  256
370
   -1
100
AcDbPolyline
 90
    5
 70
    1
 43
0
 10
3874.99
 20
-4599.99
 10
3874.99
 20
-5149.99
 10
3324.99
 20
-5149.99
 10
3324.99
 20
-4599.99
 10
3874.99
 20
-4599.99
  0
LWPOLYLINE
  5
DE
100
AcDbEntity
  8
0
  6
ByLayer
 62
  256
370
   -1
100
AcDbPolyline
 90
    5
 70
    1
 43
0
 10
7286.79
 20
-5380.53
 10
7144.44
 20
-5911.79
 10
6613.18
 20
-5769.44
 10
6755.53
 20
-5238.18
 10
7286.79
 20
-5380.53
  0
ARC
  5
DF
100
AcDbEntity
  8
0
  6
ByLayer
 62
  256
370
   -1
100
AcDbCircle
 10
8031.230051088973
 20
-1731.335
 40
70.70999999999999
100
AcDbArc
 50
0.06887487528329225
 51
359.9311251247115
  0
ARC
  5
E0
100
AcDbEntity
  8
0
  6
ByLayer
 62
  256
370
   -1
100
AcDbCircle
 10
2931.240051088973
 20
-2331.335
 40
70.70999999999999
100
AcDbArc
 50
0.06887487528329225
 51
359.9311251247115
  0
ARC
  5
E1
100
AcDbEntity
  8
0
  6
ByLayer
 62
  256
370
   -1
100
AcDbCircle
 10
3762.490051088973
 20
-5637.574999999999
 40
70.70999999999999
100
AcDbArc
 50
0.06887487528329225
 51
359.9311251247088
  0
ARC
  5
E2
100
AcDbEntity
  8
0
  6
ByLayer
 62
  256
370
   -1
100
AcDbCircle
 10
6893.740051088973
 20
-6231.324999999999
 40
70.70999999999999
100
AcDbArc
 50
0.06887487528329225
 51
359.9311251247088
  0
ARC
  5
E3
100
AcDbEntity
  8
0
  6
ByLayer
 62
  256
370
   -1
100
AcDbCircle
 10
8787.480051088973
 20
-4500.075000000001
 40
70.70999999999999
100
AcDbArc
 50
0.06887487528329225
 51
359.9311251247115
  0
ENDBLK
  5
71
330
6F
100
AcDbEntity
  8
0
100
AcDbBlockEnd
  0
BLOCK
  5
73
330
72
100
AcDbEntity
  8
0
100
AcDbBlockBegin
  2
case-v2-l3
 70
    0
 10
0
 20
0
  3
case-v2-l3
  1

  0
LWPOLYLINE
  5
E4
100
AcDbEntity
  8
0
  6
ByLayer
 62
  256
370
   -1
100
AcDbPolyline
 90
   32
 70
    1
 43
0
 10
6349.99
 20
-1593.75
 10
6349.99
 20
-1875
 10
8468.73
 20
-1875
 10
8593.73
 20
-2062.5
 10
8593.73
 20
-4712.49
 10
8906.23
 20
-4874.99
 10
7956.23
 20
-6499.99
 10
6899.99
 20
-5968.74
 10
6062.49
 20
-5749.99
 10
5687.49
 20
-5749.99
 10
5593.74
 20
-5843.74
 10
4781.24
 20
-5843.74
 10
4249.99
 20
-5468.74
 10
3312.49
 20
-5468.74
 10
3093.74
 20
-5249.99
 10
3093.74
 20
-2125
 10
3329.99
 20
-1875
 10
3449.99
 20
-1875
 10
3449.99
 20
-1593.75
 10
3343.74
 20
-1593.75
 10
2781.24
 20
-2156.25
 10
2781.24
 20
-5199.99
 10
3312.49
 20
-5687.49
 10
4781.24
 20
-6124.99
 10
5749.99
 20
-6124.99
 10
7656.23
 20
-6718.74
 10
8343.73
 20
-6468.74
 10
9249.98
 20
-5249.99
 10
8999.98
 20
-4599.99
 10
8843.73
 20
-2093.75
 10
8349.98
 20
-1593.75
 10
6349.99
 20
-1593.75
  0
ARC
  5
E5
100
AcDbEntity
  8
0
  6
ByLayer
 62
  256
370
   -1
100
AcDbCircle
 10
8031.230051088973
 20
-1731.335
 40
70.70999999999999
100
AcDbArc
 50
0.06887487528329225
 51
359.9311251247115
  0
ARC
  5
E6
100
AcDbEntity
  8
0
  6
ByLayer
 62
  256
370
   -1
100
AcDbCircle
 10
2931.240051088973
 20
-2331.335
 40
70.70999999999999
100
AcDbArc
 50
0.06887487528329225
 51
359.9311251247115
  0
ARC
  5
E7
100
AcDbEntity
  8
0
  6
ByLayer
 62
  256
370
   -1
100
AcDbCircle
 10
3762.490051088973
 20
-5637.574999999999
 40
70.70999999999999
100
AcDbArc
 50
0.06887487528329225
 51
359.9311251247088
  0
ARC
  5
E8
100
AcDbEntity
  8
0
  6
ByLayer
 62
  256
370
   -1
100
AcDbCircle
 10
6893.740051088973
 20
-6231.324999999999
 40
70.70999999999999
100
AcDbArc
 50
0.06887487528329225
 51
359.9311251247088
  0
ARC
  5
E9
100
AcDbEntity
  8
0
  6
ByLayer
 62
  256
370
   -1
100
AcDbCircle
 10
8787.480051088973
 20
-4500.075000000001
 40
70.70999999999999
100
AcDbArc
 50
0.06887487528329225
 51
359.9311251247115
  0
ENDBLK
  5
74
330
72
100
AcDbEntity
  8
0
100
AcDbBlockEnd
  0
BLOCK
  5
76
330
75
100
AcDbEntity
  8
0
100
AcDbBlockBegin
  2
case-v2-l4
 70
    0
 10
0
 20
0
  3
case-v2-l4
  1

  0
LWPOLYLINE
  5
EA
100
AcDbEntity
  8
0
  6
ByLayer
 62
  256
370
   -1
100
AcDbPolyline
 90
   25
 70
    1
 43
0
 10
9249.98
 20
-5249.99
 10
8999.98
 20
-4599.99
 10
8843.73
 20
-2093.75
 10
8349.98
 20
-1593.75
 10
6349.99
 20
-1593.75
 10
6349.99
 20
-2000
 10
6249.99
 20
-2100
 10
5649.99
 20
-2100
 10
5549.99
 20
-2000
 10
5549.99
 20
-1593.75
 10
4599.99
 20
-1593.75
 10
4599.99
 20
-2749.99
 10
4499.99
 20
-2849.99
 10
3549.99
 20
-2849.99
 10
3449.99
 20
-2749.99
 10
3449.99
 20
-1593.75
 10
3343.74
 20
-1593.75
 10
2781.24
 20
-2156.25
 10
2781.24
 20
-5199.99
 10
3312.49
 20
-5687.49
 10
4781.24
 20
-6124.99
 10
5749.99
 20
-6124.99
 10
7656.23
 20
-6718.74
 10
8343.73
 20
-6468.74
 10
9249.98
 20
-5249.99
  0
ARC
  5
EB
100
AcDbEntity
  8
0
  6
ByLayer
 62
  256
370
   -1
100
AcDbCircle
 10
2931.240169000286
 20
-2331.38
 40
50
100
AcDbArc
 50
0.1489691945702162
 51
359.8510308054244
  0
ARC
  5
EC
100
AcDbEntity
  8
0
  6
ByLayer
 62
  256
370
   -1
100
AcDbCircle
 10
8031.230169000286
 20
-1731.38
 40
50
100
AcDbArc
 50
0.1489691945702162
 51
359.8510308054244
  0
ARC
  5
ED
100
AcDbEntity
  8
0
  6
ByLayer
 62
  256
370
   -1
100
AcDbCircle
 10
8787.480169000286
 20
-4500.12
 40
50
100
AcDbArc
 50
0.1489691945702162
 51
359.8510308054244
  0
ARC
  5
EE
100
AcDbEntity
  8
0
  6
ByLayer
 62
  256
370
   -1
100
AcDbCircle
 10
6893.740169000285
 20
-6231.369999999999
 40
50
100
AcDbArc
 50
0.1489691945702162
 51
359.8510308054244
  0
ARC
  5
EF
100
AcDbEntity
  8
0
  6
ByLayer
 62
  256
370
   -1
100
AcDbCircle
 10
3762.490169000286
 20
-5637.619999999999
 40
50
100
AcDbArc
 50
0.1489691945702162
 51
359.8510308054244
  0
ENDBLK
  5
77
330
75
100
AcDbEntity
  8
0
100
AcDbBlockEnd
  0
BLOCK
  5
79
330
78
100
AcDbEntity
  8
0
100
AcDbBlockBegin
  2
case-v2-l1-0
 70
    0
 10
0
 20
0
  3
case-v2-l1-0
  1

  0
LWPOLYLINE
  5
F0
100
AcDbEntity
  8
0
  6
ByLayer
 62
  256
370
   -1
100
AcDbPolyline
 90
   25
 70
    0
 43
0
 10
-11.43836824166223
 20
15.71962558190309
 10
-11.43836824166223
 20
15.48150058190309
 10
-9.533368241662229
 20
15.48150058190309
 10
-9.533368241662229
 20
15.29338818190309
 10
-7.628393641662227
 20
15.29338818190309
 10
-7.628393641662227
 20
14.34088818190309
 10
-5.72339364166223
 20
14.34088818190309
 10
-5.72339364166223
 20
8.734650981903087
 10
-4.989003441662232
 20
8.288398381903086
 10
-7.400250841662229
 20
4.115914981903086
 10
-9.21586824166223
 20
5.162775981903088
 10
-9.21586824166223
 20
5.321525981903087
 10
-10.88274324166223
 20
5.797775981903087
 10
-12.07336824166223
 20
6.154645981903087
 10
-13.34336824166223
 20
6.154645981903087
 10
-13.34336824166223
 20
5.877150981903087
 10
-15.32774324166223
 20
5.877150981903087
 10
-15.32774324166223
 20
7.355278581903089
 10
-19.59397804166223
 20
7.355278581903089
 10
-19.59397804166223
 20
15.03463838190309
 10
-15.32774324166223
 20
15.03463838190309
 10
-15.32774324166223
 20
15.48150058190309
 10
-13.42274324166223
 20
15.48150058190309
 10
-13.42274324166223
 20
15.72963318190309
 10
-11.43836824166223
 20
15.72963318190309
  0
LWPOLYLINE
  5
F1
100
AcDbEntity
  8
0
  6
ByLayer
 62
  256
370
   -1
100
AcDbPolyline
 90
   14
 70
    1
 43
0
 10
-17.51849324166223
 20
16.67212558190309
 10
-19.05836824166223
 20
16.67212558190309
 10
-20.48711824166223
 20
15.24337558190309
 10
-20.48711824166223
 20
7.512275981903088
 10
-19.13774324166223
 20
6.274025981903088
 10
-15.40711824166223
 20
5.162775981903088
 10
-12.94649324166223
 20
5.162775981903088
 10
-8.104643641662227
 20
3.654650981903087
 10
-6.35839364166223
 20
4.289650981903088
 10
-4.05651864166223
 20
7.385275981903088
 10
-4.691518641662229
 20
9.036275981903088
 10
-5.08839364166223
 20
15.40212558190309
 10
-6.34251864166223
 20
16.67212558190309
 10
-17.51849324166223
 20
16.67212558190309
  0
ARC
  5
F2
100
AcDbEntity
  8
0
  6
ByLayer
 62
  256
370
   -1
100
AcDbCircle
 10
-7.152143212401501
 20
16.32254538190309
 40
0.127
100
AcDbArc
 50
0.1489691945702162
 51
359.8510308054244
  0
ARC
  5
F3
100
AcDbEntity
  8
0
  6
ByLayer
 62
  256
370
   -1
100
AcDbCircle
 10
-20.1061178124015
 20
14.79854538190309
 40
0.127
100
AcDbArc
 50
0.1489691945702162
 51
359.8510308054244
  0
ARC
  5
F4
100
AcDbEntity
  8
0
  6
ByLayer
 62
  256
370
   -1
100
AcDbCircle
 10
-10.0413678124015
 20
4.892570781903089
 40
0.127
100
AcDbArc
 50
0.1489691945702162
 51
359.8510308054244
  0
ARC
  5
F5
100
AcDbEntity
  8
0
  6
ByLayer
 62
  256
370
   -1
100
AcDbCircle
 10
-17.9947428124015
 20
6.400695781903089
 40
0.127
100
AcDbArc
 50
0.1489691945702162
 51
359.8510308054244
  0
ARC
  5
F6
100
AcDbEntity
  8
0
  6
ByLayer
 62
  256
370
   -1
100
AcDbCircle
 10
-5.231268212401503
 20
9.289945781903088
 40
0.127
100
AcDbArc
 50
0.1489691945702162
 51
359.8510308054244
  0
ENDBLK
  5
7A
330
78
100
AcDbEntity
  8
0
100
AcDbBlockEnd
  0
BLOCK
  5
7C
330
7B
100
AcDbEntity
  8
0
100
AcDbBlockBegin
  2
case-v2-l2-0
 70
    0
 10
0
 20
0
  3
case-v2-l2-0
  1

  0
LWPOLYLINE
  5
F7
100
AcDbEntity
  8
0
  6
ByLayer
 62
  256
370
   -1
100
AcDbPolyline
 90
    5
 70
    1
 43
0
 10
-7.186170932372038
 20
-5.797063454683821
 10
-7.186170932372038
 20
-6.908313454683821
 10
-7.662420932372038
 20
-6.908313454683821
 10
-7.662420932372038
 20
-5.797063454683821
 10
-7.186170932372038
 20
-5.797063454683821
  0
LWPOLYLINE
  5
F8
100
AcDbEntity
  8
0
  6
ByLayer
 62
  256
370
   -1
100
AcDbPolyline
 90
   14
 70
    1
 43
0
 10
-17.87002053237204
 20
1.029161145316179
 10
-19.40989553237204
 20
1.029161145316179
 10
-20.83864553237204
 20
-0.3995888546838211
 10
-20.83864553237204
 20
-8.130688454683821
 10
-19.48927053237204
 20
-9.368938454683821
 10
-15.75864553237204
 20
-10.48018845468382
 10
-13.29802053237204
 20
-10.48018845468382
 10
-8.456170932372038
 20
-11.98831345468382
 10
-6.70992093237204
 20
-11.35331345468382
 10
-4.40804593237204
 20
-8.257688454683821
 10
-5.04304593237204
 20
-6.606688454683821
 10
-5.439920932372041
 20
-0.2408388546838211
 10
-6.69404593237204
 20
1.029161145316179
 10
-17.87002053237204
 20
1.029161145316179
  0
LWPOLYLINE
  5
F9
100
AcDbEntity
  8
0
  6
ByLayer
 62
  256
370
   -1
100
AcDbPolyline
 90
    5
 70
    1
 43
0
 10
-13.48852053237204
 20
-1.590188454683822
 10
-13.48852053237204
 20
-0.1932138546838211
 10
-12.09152053237204
 20
-0.1932138546838211
 10
-12.09152053237204
 20
-1.590188454683822
 10
-13.48852053237204
 20
-1.590188454683822
  0
LWPOLYLINE
  5
FA
100
AcDbEntity
  8
0
  6
ByLayer
 62
  256
370
   -1
100
AcDbPolyline
 90
    5
 70
    1
 43
0
 10
-10.18652053237204
 20
-4.257188454683822
 10
-10.18652053237204
 20
-5.654188454683821
 10
-11.58352053237204
 20
-5.654188454683821
 10
-11.58352053237204
 20
-4.257188454683822
 10
-10.18652053237204
 20
-4.257188454683822
  0
LWPOLYLINE
  5
FB
100
AcDbEntity
  8
0
  6
ByLayer
 62
  256
370
   -1
100
AcDbPolyline
 90
    5
 70
    1
 43
0
 10
-7.644869532372041
 20
-10.73583945468382
 10
-8.85469693237204
 20
-10.03736485468382
 10
-8.15619693237204
 20
-8.827512054683821
 10
-6.94636953237204
 20
-9.526012054683822
 10
-7.644869532372041
 20
-10.73583945468382
  0
LWPOLYLINE
  5
FC
100
AcDbEntity
  8
0
  6
ByLayer
 62
  256
370
   -1
100
AcDbPolyline
 90
    5
 70
    1
 43
0
 10
-6.37654593237204
 20
-5.400188454683821
 10
-7.773545932372039
 20
-5.400188454683821
 10
-7.773545932372039
 20
-4.003188454683822
 10
-6.37654593237204
 20
-4.003188454683822
 10
-6.37654593237204
 20
-5.400188454683821
  0
LWPOLYLINE
  5
FD
100
AcDbEntity
  8
0
  6
ByLayer
 62
  256
370
   -1
100
AcDbPolyline
 90
    5
 70
    1
 43
0
 10
-17.29852053237204
 20
-2.288688454683822
 10
-17.29852053237204
 20
-0.8917138546838211
 10
-15.90152053237204
 20
-0.8917138546838211
 10
-15.90152053237204
 20
-2.288688454683822
 10
-17.29852053237204
 20
-2.288688454683822
  0
LWPOLYLINE
  5
FE
100
AcDbEntity
  8
0
  6
ByLayer
 62
  256
370
   -1
100
AcDbPolyline
 90
    5
 70
    1
 43
0
 10
-15.39352053237204
 20
-1.844188454683822
 10
-15.39352053237204
 20
-0.4472138546838211
 10
-13.99652053237204
 20
-0.4472138546838211
 10
-13.99652053237204
 20
-1.844188454683822
 10
-15.39352053237204
 20
-1.844188454683822
  0
LWPOLYLINE
  5
FF
100
AcDbEntity
  8
0
  6
ByLayer
 62
  256
370
   -1
100
AcDbPolyline
 90
    5
 70
    1
 43
0
 10
-11.58352053237204
 20
-1.844188454683822
 10
-11.58352053237204
 20
-0.4472138546838211
 10
-10.18652053237204
 20
-0.4472138546838211
 10
-10.18652053237204
 20
-1.844188454683822
 10
-11.58352053237204
 20
-1.844188454683822
  0
LWPOLYLINE
  5
100
100
AcDbEntity
  8
0
  6
ByLayer
 62
  256
370
   -1
100
AcDbPolyline
 90
    5
 70
    1
 43
0
 10
-9.67852053237204
 20
-2.034688454683822
 10
-9.67852053237204
 20
-0.6377138546838211
 10
-8.281545932372039
 20
-0.6377138546838211
 10
-8.281545932372039
 20
-2.034688454683822
 10
-9.67852053237204
 20
-2.034688454683822
  0
LWPOLYLINE
  5
101
100
AcDbEntity
  8
0
  6
ByLayer
 62
  256
370
   -1
100
AcDbPolyline
 90
    5
 70
    1
 43
0
 10
-7.773545932372039
 20
-2.987188454683822
 10
-7.773545932372039
 20
-1.590188454683822
 10
-6.37654593237204
 20
-1.590188454683822
 10
-6.37654593237204
 20
-2.987188454683822
 10
-7.773545932372039
 20
-2.987188454683822
  0
LWPOLYLINE
  5
102
100
AcDbEntity
  8
0
  6
ByLayer
 62
  256
370
   -1
100
AcDbPolyline
 90
    5
 70
    1
 43
0
 10
-15.90152053237204
 20
-2.796688454683822
 10
-15.90152053237204
 20
-4.193688454683822
 10
-17.29852053237204
 20
-4.193688454683822
 10
-17.29852053237204
 20
-2.796688454683822
 10
-15.90152053237204
 20
-2.796688454683822
  0
LWPOLYLINE
  5
103
100
AcDbEntity
  8
0
  6
ByLayer
 62
  256
370
   -1
100
AcDbPolyline
 90
    5
 70
    1
 43
0
 10
-13.99652053237204
 20
-2.352188454683822
 10
-13.99652053237204
 20
-3.749188454683822
 10
-15.39352053237204
 20
-3.749188454683822
 10
-15.39352053237204
 20
-2.352188454683822
 10
-13.99652053237204
 20
-2.352188454683822
  0
LWPOLYLINE
  5
104
100
AcDbEntity
  8
0
  6
ByLayer
 62
  256
370
   -1
100
AcDbPolyline
 90
    5
 70
    1
 43
0
 10
-12.09152053237204
 20
-2.098188454683822
 10
-12.09152053237204
 20
-3.495188454683822
 10
-13.48852053237204
 20
-3.495188454683822
 10
-13.48852053237204
 20
-2.098188454683822
 10
-12.09152053237204
 20
-2.098188454683822
  0
LWPOLYLINE
  5
105
100
AcDbEntity
  8
0
  6
ByLayer
 62
  256
370
   -1
100
AcDbPolyline
 90
    5
 70
    1
 43
0
 10
-10.18652053237204
 20
-2.352188454683822
 10
-10.18652053237204
 20
-3.749188454683822
 10
-11.58352053237204
 20
-3.749188454683822
 10
-11.58352053237204
 20
-2.352188454683822
 10
-10.18652053237204
 20
-2.352188454683822
  0
LWPOLYLINE
  5
106
100
AcDbEntity
  8
0
  6
ByLayer
 62
  256
370
   -1
100
AcDbPolyline
 90
    5
 70
    1
 43
0
 10
-8.281545932372039
 20
-2.542688454683822
 10
-8.281545932372039
 20
-3.939688454683822
 10
-9.67852053237204
 20
-3.939688454683822
 10
-9.67852053237204
 20
-2.542688454683822
 10
-8.281545932372039
 20
-2.542688454683822
  0
LWPOLYLINE
  5
107
100
AcDbEntity
  8
0
  6
ByLayer
 62
  256
370
   -1
100
AcDbPolyline
 90
    5
 70
    1
 43
0
 10
-15.90152053237204
 20
-4.701688454683822
 10
-15.90152053237204
 20
-6.09868845468382
 10
-17.29852053237204
 20
-6.09868845468382
 10
-17.29852053237204
 20
-4.701688454683822
 10
-15.90152053237204
 20
-4.701688454683822
  0
LWPOLYLINE
  5
108
100
AcDbEntity
  8
0
  6
ByLayer
 62
  256
370
   -1
100
AcDbPolyline
 90
    5
 70
    1
 43
0
 10
-13.99652053237204
 20
-4.257188454683822
 10
-13.99652053237204
 20
-5.654188454683821
 10
-15.39352053237204
 20
-5.654188454683821
 10
-15.39352053237204
 20
-4.257188454683822
 10
-13.99652053237204
 20
-4.257188454683822
  0
LWPOLYLINE
  5
109
100
AcDbEntity
  8
0
  6
ByLayer
 62
  256
370
   -1
100
AcDbPolyline
 90
    5
 70
    1
 43
0
 10
-12.09152053237204
 20
-4.003188454683822
 10
-12.09152053237204
 20
-5.400188454683821
 10
-13.48852053237204
 20
-5.400188454683821
 10
-13.48852053237204
 20
-4.003188454683822
 10
-12.09152053237204
 20
-4.003188454683822
  0
LWPOLYLINE
  5
10A
100
AcDbEntity
  8
0
  6
ByLayer
 62
  256
370
   -1
100
AcDbPolyline
 90
    5
 70
    1
 43
0
 10
-8.281545932372039
 20
-4.447688454683822
 10
-8.281545932372039
 20
-5.844688454683821
 10
-9.67852053237204
 20
-5.844688454683821
 10
-9.67852053237204
 20
-4.447688454683822
 10
-8.281545932372039
 20
-4.447688454683822
  0
LWPOLYLINE
  5
10B
100
AcDbEntity
  8
0
  6
ByLayer
 62
  256
370
   -1
100
AcDbPolyline
 90
    5
 70
    1
 43
0
 10
-5.73986953237204
 20
-7.430512054683821
 10
-6.43836953237204
 20
-8.640364854683822
 10
-7.64819693237204
 20
-7.941864854683823
 10
-6.949696932372039
 20
-6.732012054683821
 10
-5.73986953237204
 20
-7.430512054683821
  0
LWPOLYLINE
  5
10C
100
AcDbEntity
  8
0
  6
ByLayer
 62
  256
370
   -1
100
AcDbPolyline
 90
    5
 70
    1
 43
0
 10
-15.90152053237204
 20
-6.606688454683821
 10
-15.90152053237204
 20
-8.003688454683822
 10
-17.29852053237204
 20
-8.003688454683822
 10
-17.29852053237204
 20
-6.606688454683821
 10
-15.90152053237204
 20
-6.606688454683821
  0
LWPOLYLINE
  5
10D
100
AcDbEntity
  8
0
  6
ByLayer
 62
  256
370
   -1
100
AcDbPolyline
 90
    5
 70
    1
 43
0
 10
-13.99652053237204
 20
-6.162188454683821
 10
-13.99652053237204
 20
-7.559188454683821
 10
-15.39352053237204
 20
-7.559188454683821
 10
-15.39352053237204
 20
-6.162188454683821
 10
-13.99652053237204
 20
-6.162188454683821
  0
LWPOLYLINE
  5
10E
100
AcDbEntity
  8
0
  6
ByLayer
 62
  256
370
   -1
100
AcDbPolyline
 90
    5
 70
    1
 43
0
 10
-12.09152053237204
 20
-5.908188454683821
 10
-12.09152053237204
 20
-7.305188454683821
 10
-13.48852053237204
 20
-7.305188454683821
 10
-13.48852053237204
 20
-5.908188454683821
 10
-12.09152053237204
 20
-5.908188454683821
  0
LWPOLYLINE
  5
10F
100
AcDbEntity
  8
0
  6
ByLayer
 62
  256
370
   -1
100
AcDbPolyline
 90
    5
 70
    1
 43
0
 10
-10.18652053237204
 20
-6.162188454683821
 10
-10.18652053237204
 20
-7.559188454683821
 10
-11.58352053237204
 20
-7.559188454683821
 10
-11.58352053237204
 20
-6.162188454683821
 10
-10.18652053237204
 20
-6.162188454683821
  0
LWPOLYLINE
  5
110
100
AcDbEntity
  8
0
  6
ByLayer
 62
  256
370
   -1
100
AcDbPolyline
 90
    5
 70
    1
 43
0
 10
-8.281545932372039
 20
-6.352688454683821
 10
-8.281545932372039
 20
-7.749688454683821
 10
-9.67852053237204
 20
-7.749688454683821
 10
-9.67852053237204
 20
-6.352688454683821
 10
-8.281545932372039
 20
-6.352688454683821
  0
LWPOLYLINE
  5
111
100
AcDbEntity
  8
0
  6
ByLayer
 62
  256
370
   -1
100
AcDbPolyline
 90
    5
 70
    1
 43
0
 10
-13.99652053237204
 20
-8.067188454683821
 10
-13.99652053237204
 20
-9.464188454683821
 10
-15.39352053237204
 20
-9.464188454683821
 10
-15.39352053237204
 20
-8.067188454683821
 10
-13.99652053237204
 20
-8.067188454683821
  0
LWPOLYLINE
  5
112
100
AcDbEntity
  8
0
  6
ByLayer
 62
  256
370
   -1
100
AcDbPolyline
 90
    5
 70
    1
 43
0
 10
-12.09152053237204
 20
-7.813188454683821
 10
-12.09152053237204
 20
-9.210188454683822
 10
-13.48852053237204
 20
-9.210188454683822
 10
-13.48852053237204
 20
-7.813188454683821
 10
-12.09152053237204
 20
-7.813188454683821
  0
LWPOLYLINE
  5
113
100
AcDbEntity
  8
0
  6
ByLayer
 62
  256
370
   -1
100
AcDbPolyline
 90
    5
 70
    1
 43
0
 10
-19.45752053237204
 20
-2.288688454683822
 10
-19.45752053237204
 20
-0.8917138546838211
 10
-18.06052053237204
 20
-0.8917138546838211
 10
-18.06052053237204
 20
-2.288688454683822
 10
-19.45752053237204
 20
-2.288688454683822
  0
LWPOLYLINE
  5
114
100
AcDbEntity
  8
0
  6
ByLayer
 62
  256
370
   -1
100
AcDbPolyline
 90
    5
 70
    1
 43
0
 10
-18.06052053237204
 20
-2.796688454683822
 10
-18.06052053237204
 20
-4.193688454683822
 10
-19.45752053237204
 20
-4.193688454683822
 10
-19.45752053237204
 20
-2.796688454683822
 10
-18.06052053237204
 20
-2.796688454683822
  0
LWPOLYLINE
  5
115
100
AcDbEntity
  8
0
  6
ByLayer
 62
  256
370
   -1
100
AcDbPolyline
 90
    5
 70
    1
 43
0
 10
-18.06052053237204
 20
-4.701688454683822
 10
-18.06052053237204
 20
-6.09868845468382
 10
-19.45752053237204
 20
-6.09868845468382
 10
-19.45752053237204
 20
-4.701688454683822
 10
-18.06052053237204
 20
-4.701688454683822
  0
LWPOLYLINE
  5
116
100
AcDbEntity
  8
0
  6
ByLayer
 62
  256
370
   -1
100
AcDbPolyline
 90
    5
 70
    1
 43
0
 10
-18.06052053237204
 20
-6.606688454683821
 10
-18.06052053237204
 20
-8.003688454683822
 10
-19.45752053237204
 20
-8.003688454683822
 10
-19.45752053237204
 20
-6.606688454683821
 10
-18.06052053237204
 20
-6.606688454683821
  0
LWPOLYLINE
  5
117
100
AcDbEntity
  8
0
  6
ByLayer
 62
  256
370
   -1
100
AcDbPolyline
 90
    5
 70
    1
 43
0
 10
-9.39454853237204
 20
-8.589260054683821
 10
-9.756117532372041
 20
-9.938660454683822
 10
-11.10551793237204
 20
-9.577091454683821
 10
-10.74394893237204
 20
-8.227691054683822
 10
-9.39454853237204
 20
-8.589260054683821
  0
ARC
  5
118
100
AcDbEntity
  8
0
  6
ByLayer
 62
  256
370
   -1
100
AcDbCircle
 10
-7.503670802606049
 20
0.6796952453161786
 40
0.1796034
100
AcDbArc
 50
0.06887487528329225
 51
359.9311251247115
  0
ARC
  5
119
100
AcDbEntity
  8
0
  6
ByLayer
 62
  256
370
   -1
100
AcDbCircle
 10
-20.45764540260605
 20
-0.8443047546838214
 40
0.1796034
100
AcDbArc
 50
0.06887487528329225
 51
359.9311251247115
  0
ARC
  5
11A
100
AcDbEntity
  8
0
  6
ByLayer
 62
  256
370
   -1
100
AcDbCircle
 10
-18.34627040260605
 20
-9.242154354683819
 40
0.1796034
100
AcDbArc
 50
0.06887487528329225
 51
359.9311251247088
  0
ARC
  5
11B
100
AcDbEntity
  8
0
  6
ByLayer
 62
  256
370
   -1
100
AcDbCircle
 10
-10.39289540260605
 20
-10.75027935468382
 40
0.1796034
100
AcDbArc
 50
0.06887487528329225
 51
359.9311251247088
  0
ARC
  5
11C
100
AcDbEntity
  8
0
  6
ByLayer
 62
  256
370
   -1
100
AcDbCircle
 10
-5.58279580260605
 20
-6.352904354683822
 40
0.1796034
100
AcDbArc
 50
0.06887487528329225
 51
359.9311251247115
  0
ENDBLK
  5
7D
330
7B
100
AcDbEntity
  8
0
100
AcDbBlockEnd
  0
BLOCK
  5
7F
330
7E
100
AcDbEntity
  8
0
100
AcDbBlockBegin
  2
case-v2-l3-0
 70
    0
 10
0
 20
0
  3
case-v2-l3-0
  1

  0
LWPOLYLINE
  5
11D
100
AcDbEntity
  8
0
  6
ByLayer
 62
  256
370
   -1
100
AcDbPolyline
 90
   32
 70
    1
 43
0
 10
9.317616910217104
 20
16.32059829119331
 10
9.317616910217104
 20
15.60622329119331
 10
14.6992165102171
 20
15.60622329119331
 10
15.0167165102171
 20
15.12997329119331
 10
15.0167165102171
 20
8.398998691193306
 10
15.8104665102171
 20
7.986248691193305
 10
13.39746651021711
 20
3.858748691193305
 10
10.7146169102171
 20
5.208123691193305
 10
8.587366910217105
 20
5.763748691193305
 10
7.634866910217105
 20
5.763748691193305
 10
7.396741910217105
 20
5.525623691193305
 10
5.332991910217105
 20
5.525623691193305
 10
3.983616910217105
 20
6.478123691193305
 10
1.602366910217106
 20
6.478123691193305
 10
1.046741910217106
 20
7.033748691193305
 10
1.046741910217106
 20
14.9712232911933
 10
1.646816910217106
 20
15.60622329119331
 10
1.951616910217106
 20
15.60622329119331
 10
1.951616910217106
 20
16.32059829119331
 10
1.681741910217106
 20
16.32059829119331
 10
0.2529919102171056
 20
14.89184829119331
 10
0.2529919102171056
 20
7.160748691193305
 10
1.602366910217106
 20
5.922498691193305
 10
5.332991910217105
 20
4.811248691193305
 10
7.793616910217105
 20
4.811248691193305
 10
12.63546651021711
 20
3.303123691193305
 10
14.3817165102171
 20
3.938123691193305
 10
16.68359151021711
 20
7.033748691193305
 10
16.0485915102171
 20
8.684748691193306
 10
15.6517165102171
 20
15.0505982911933
 10
14.3975915102171
 20
16.32059829119331
 10
9.317616910217104
 20
16.32059829119331
  0
ARC
  5
11E
100
AcDbEntity
  8
0
  6
ByLayer
 62
  256
370
   -1
100
AcDbCircle
 10
13.58796663998309
 20
15.9711323911933
 40
0.1796034
100
AcDbArc
 50
0.06887487528329225
 51
359.9311251247115
  0
ARC
  5
11F
100
AcDbEntity
  8
0
  6
ByLayer
 62
  256
370
   -1
100
AcDbCircle
 10
0.6339920399830969
 20
14.44713239119331
 40
0.1796034
100
AcDbArc
 50
0.06887487528329225
 51
359.9311251247115
  0
ARC
  5
120
100
AcDbEntity
  8
0
  6
ByLayer
 62
  256
370
   -1
100
AcDbCircle
 10
2.745367039983098
 20
6.049282791193306
 40
0.1796034
100
AcDbArc
 50
0.06887487528329225
 51
359.9311251247088
  0
ARC
  5
121
100
AcDbEntity
  8
0
  6
ByLayer
 62
  256
370
   -1
100
AcDbCircle
 10
10.6987420399831
 20
4.541157791193307
 40
0.1796034
100
AcDbArc
 50
0.06887487528329225
 51
359.9311251247088
  0
ARC
  5
122
100
AcDbEntity
  8
0
  6
ByLayer
 62
  256
370
   -1
100
AcDbCircle
 10
15.5088416399831
 20
8.938532791193303
 40
0.1796034
100
AcDbArc
 50
0.06887487528329225
 51
359.9311251247115
  0
ENDBLK
  5
80
330
7E
100
AcDbEntity
  8
0
100
AcDbBlockEnd
  0
BLOCK
  5
82
330
81
100
AcDbEntity
  8
0
100
AcDbBlockBegin
  2
case-v2-l4-0
 70
    0
 10
0
 20
0
  3
case-v2-l4-0
  1

  0
LWPOLYLINE
  5
123
100
AcDbEntity
  8
0
  6
ByLayer
 62
  256
370
   -1
100
AcDbPolyline
 90
   25
 70
    1
 43
0
 10
16.59570968753966
 20
-9.400152149490784
 10
15.96070968753966
 20
-7.749152149490784
 10
15.56383468753966
 20
-1.383302549490784
 10
14.30970968753966
 20
-0.1133025494907839
 10
9.229735087539659
 20
-0.1133025494907839
 10
9.229735087539659
 20
-1.145177549490784
 10
8.975735087539659
 20
-1.399177549490784
 10
7.451735087539659
 20
-1.399177549490784
 10
7.197735087539659
 20
-1.145177549490784
 10
7.197735087539659
 20
-0.1133025494907839
 10
4.784735087539659
 20
-0.1133025494907839
 10
4.784735087539659
 20
-3.050152149490785
 10
4.530735087539659
 20
-3.304152149490785
 10
2.11773508753966
 20
-3.304152149490785
 10
1.86373508753966
 20
-3.050152149490785
 10
1.86373508753966
 20
-0.1133025494907839
 10
1.59386008753966
 20
-0.1133025494907839
 10
0.16511008753966
 20
-1.542052549490784
 10
0.16511008753966
 20
-9.273152149490784
 10
1.51448508753966
 20
-10.51140214949078
 10
5.245110087539659
 20
-11.62265214949078
 10
7.70573508753966
 20
-11.62265214949078
 10
12.54758468753966
 20
-13.13077714949078
 10
14.29383468753966
 20
-12.49577714949078
 10
16.59570968753966
 20
-9.400152149490784
  0
ARC
  5
124
100
AcDbEntity
  8
0
  6
ByLayer
 62
  256
370
   -1
100
AcDbCircle
 10
0.5461105168003861
 20
-1.986882749490785
 40
0.127
100
AcDbArc
 50
0.1489691945702162
 51
359.8510308054244
  0
ARC
  5
125
100
AcDbEntity
  8
0
  6
ByLayer
 62
  256
370
   -1
100
AcDbCircle
 10
13.50008511680038
 20
-0.4628827494907846
 40
0.127
100
AcDbArc
 50
0.1489691945702162
 51
359.8510308054244
  0
ARC
  5
126
100
AcDbEntity
  8
0
  6
ByLayer
 62
  256
370
   -1
100
AcDbCircle
 10
15.42096011680039
 20
-7.495482349490784
 40
0.127
100
AcDbArc
 50
0.1489691945702162
 51
359.8510308054244
  0
ARC
  5
127
100
AcDbEntity
  8
0
  6
ByLayer
 62
  256
370
   -1
100
AcDbCircle
 10
10.61086051680039
 20
-11.89285734949078
 40
0.127
100
AcDbArc
 50
0.1489691945702162
 51
359.8510308054244
  0
ARC
  5
128
100
AcDbEntity
  8
0
  6
ByLayer
 62
  256
370
   -1
100
AcDbCircle
 10
2.657485516800387
 20
-10.38473234949078
 40
0.127
100
AcDbArc
 50
0.1489691945702162
 51
359.8510308054244
  0
ENDBLK
  5
83
330
81
100
AcDbEntity
  8
0
100
AcDbBlockEnd
  0
BLOCK
  5
85
330
84
100
AcDbEntity
  8
0
100
AcDbBlockBegin
  2
case-v2-l1-1
 70
    0
 10
0
 20
0
  3
case-v2-l1-1
  1

  0
LWPOLYLINE
  5
129
100
AcDbEntity
  8
0
  6
ByLayer
 62
  256
370
   -1
100
AcDbPolyline
 90
   25
 70
    0
 43
0
 10
-9.081870060417796
 20
13.1489002932728
 10
-9.081870060417796
 20
12.9107752932728
 10
-7.176870060417794
 20
12.9107752932728
 10
-7.176870060417794
 20
12.7226628932728
 10
-5.271895460417792
 20
12.7226628932728
 10
-5.271895460417792
 20
11.7701628932728
 10
-3.366895460417795
 20
11.7701628932728
 10
-3.366895460417795
 20
6.163925693272795
 10
-2.632505260417796
 20
5.717673093272793
 10
-5.043752660417793
 20
1.545189693272793
 10
-6.859370060417795
 20
2.592050693272795
 10
-6.859370060417795
 20
2.750800693272794
 10
-8.526245060417795
 20
3.227050693272794
 10
-9.716870060417795
 20
3.583920693272794
 10
-10.98687006041779
 20
3.583920693272794
 10
-10.98687006041779
 20
3.306425693272794
 10
-12.97124506041779
 20
3.306425693272794
 10
-12.97124506041779
 20
4.784553293272795
 10
-17.23747986041779
 20
4.784553293272795
 10
-17.23747986041779
 20
12.4639130932728
 10
-12.97124506041779
 20
12.4639130932728
 10
-12.97124506041779
 20
12.9107752932728
 10
-11.0662450604178
 20
12.9107752932728
 10
-11.0662450604178
 20
13.1589078932728
 10
-9.081870060417796
 20
13.1589078932728
  0
LWPOLYLINE
  5
12A
100
AcDbEntity
  8
0
  6
ByLayer
 62
  256
370
   -1
100
AcDbPolyline
 90
   14
 70
    1
 43
0
 10
-15.16199506041779
 20
14.1014002932728
 10
-16.70187006041779
 20
14.1014002932728
 10
-18.13062006041779
 20
12.6726502932728
 10
-18.13062006041779
 20
4.941550693272795
 10
-16.78124506041779
 20
3.703300693272795
 10
-13.0506200604178
 20
2.592050693272795
 10
-10.5899950604178
 20
2.592050693272795
 10
-5.748145460417792
 20
1.083925693272795
 10
-4.001895460417794
 20
1.718925693272795
 10
-1.700020460417794
 20
4.814550693272794
 10
-2.335020460417794
 20
6.465550693272796
 10
-2.731895460417795
 20
12.83140029327279
 10
-3.986020460417795
 20
14.1014002932728
 10
-15.16199506041779
 20
14.1014002932728
  0
ARC
  5
12B
100
AcDbEntity
  8
0
  6
ByLayer
 62
  256
370
   -1
100
AcDbCircle
 10
-4.795645031157067
 20
13.75182009327279
 40
0.127
100
AcDbArc
 50
0.1489691945702162
 51
359.8510308054244
  0
ARC
  5
12C
100
AcDbEntity
  8
0
  6
ByLayer
 62
  256
370
   -1
100
AcDbCircle
 10
-17.74961963115707
 20
12.2278200932728
 40
0.127
100
AcDbArc
 50
0.1489691945702162
 51
359.8510308054244
  0
ARC
  5
12D
100
AcDbEntity
  8
0
  6
ByLayer
 62
  256
370
   -1
100
AcDbCircle
 10
-7.684869631157069
 20
2.321845493272796
 40
0.127
100
AcDbArc
 50
0.1489691945702162
 51
359.8510308054244
  0
ARC
  5
12E
100
AcDbEntity
  8
0
  6
ByLayer
 62
  256
370
   -1
100
AcDbCircle
 10
-15.63824463115707
 20
3.829970493272796
 40
0.127
100
AcDbArc
 50
0.1489691945702162
 51
359.8510308054244
  0
ARC
  5
12F
100
AcDbEntity
  8
0
  6
ByLayer
 62
  256
370
   -1
100
AcDbCircle
 10
-2.874770031157067
 20
6.719220493272795
 40
0.127
100
AcDbArc
 50
0.1489691945702162
 51
359.8510308054244
  0
ENDBLK
  5
86
330
84
100
AcDbEntity
  8
0
100
AcDbBlockEnd
  0
BLOCK
  5
88
330
87
100
AcDbEntity
  8
0
100
AcDbBlockBegin
  2
case-v2-l2-1
 70
    0
 10
0
 20
0
  3
case-v2-l2-1
  1

  0
LWPOLYLINE
  5
130
100
AcDbEntity
  8
0
  6
ByLayer
 62
  256
370
   -1
100
AcDbPolyline
 90
    5
 70
    1
 43
0
 10
-4.829672751127603
 20
-8.367788743314113
 10
-4.829672751127603
 20
-9.479038743314113
 10
-5.305922751127603
 20
-9.479038743314113
 10
-5.305922751127603
 20
-8.367788743314113
 10
-4.829672751127603
 20
-8.367788743314113
  0
LWPOLYLINE
  5
131
100
AcDbEntity
  8
0
  6
ByLayer
 62
  256
370
   -1
100
AcDbPolyline
 90
   14
 70
    1
 43
0
 10
-15.5135223511276
 20
-1.541564143314114
 10
-17.0533973511276
 20
-1.541564143314114
 10
-18.4821473511276
 20
-2.970314143314114
 10
-18.4821473511276
 20
-10.70141374331411
 10
-17.1327723511276
 20
-11.93966374331411
 10
-13.40214735112761
 20
-13.05091374331411
 10
-10.94152235112761
 20
-13.05091374331411
 10
-6.099672751127603
 20
-14.55903874331411
 10
-4.353422751127605
 20
-13.92403874331411
 10
-2.051547751127605
 20
-10.82841374331411
 10
-2.686547751127605
 20
-9.177413743314114
 10
-3.083422751127606
 20
-2.811564143314114
 10
-4.337547751127605
 20
-1.541564143314114
 10
-15.5135223511276
 20
-1.541564143314114
  0
LWPOLYLINE
  5
132
100
AcDbEntity
  8
0
  6
ByLayer
 62
  256
370
   -1
100
AcDbPolyline
 90
    5
 70
    1
 43
0
 10
-11.13202235112761
 20
-4.160913743314115
 10
-11.13202235112761
 20
-2.763939143314114
 10
-9.735022351127606
 20
-2.763939143314114
 10
-9.735022351127606
 20
-4.160913743314115
 10
-11.13202235112761
 20
-4.160913743314115
  0
LWPOLYLINE
  5
133
100
AcDbEntity
  8
0
  6
ByLayer
 62
  256
370
   -1
100
AcDbPolyline
 90
    5
 70
    1
 43
0
 10
-7.830022351127605
 20
-6.827913743314115
 10
-7.830022351127605
 20
-8.224913743314113
 10
-9.227022351127605
 20
-8.224913743314113
 10
-9.227022351127605
 20
-6.827913743314115
 10
-7.830022351127605
 20
-6.827913743314115
  0
LWPOLYLINE
  5
134
100
AcDbEntity
  8
0
  6
ByLayer
 62
  256
370
   -1
100
AcDbPolyline
 90
    5
 70
    1
 43
0
 10
-5.288371351127605
 20
-13.30656474331411
 10
-6.498198751127605
 20
-12.60809014331412
 10
-5.799698751127606
 20
-11.39823734331411
 10
-4.589871351127606
 20
-12.09673734331411
 10
-5.288371351127605
 20
-13.30656474331411
  0
LWPOLYLINE
  5
135
100
AcDbEntity
  8
0
  6
ByLayer
 62
  256
370
   -1
100
AcDbPolyline
 90
    5
 70
    1
 43
0
 10
-4.020047751127604
 20
-7.970913743314114
 10
-5.417047751127603
 20
-7.970913743314114
 10
-5.417047751127603
 20
-6.573913743314115
 10
-4.020047751127604
 20
-6.573913743314115
 10
-4.020047751127604
 20
-7.970913743314114
  0
LWPOLYLINE
  5
136
100
AcDbEntity
  8
0
  6
ByLayer
 62
  256
370
   -1
100
AcDbPolyline
 90
    5
 70
    1
 43
0
 10
-14.94202235112761
 20
-4.859413743314114
 10
-14.94202235112761
 20
-3.462439143314114
 10
-13.54502235112761
 20
-3.462439143314114
 10
-13.54502235112761
 20
-4.859413743314114
 10
-14.94202235112761
 20
-4.859413743314114
  0
LWPOLYLINE
  5
137
100
AcDbEntity
  8
0
  6
ByLayer
 62
  256
370
   -1
100
AcDbPolyline
 90
    5
 70
    1
 43
0
 10
-13.03702235112761
 20
-4.414913743314115
 10
-13.03702235112761
 20
-3.017939143314114
 10
-11.64002235112761
 20
-3.017939143314114
 10
-11.64002235112761
 20
-4.414913743314115
 10
-13.03702235112761
 20
-4.414913743314115
  0
LWPOLYLINE
  5
138
100
AcDbEntity
  8
0
  6
ByLayer
 62
  256
370
   -1
100
AcDbPolyline
 90
    5
 70
    1
 43
0
 10
-9.227022351127605
 20
-4.414913743314115
 10
-9.227022351127605
 20
-3.017939143314114
 10
-7.830022351127605
 20
-3.017939143314114
 10
-7.830022351127605
 20
-4.414913743314115
 10
-9.227022351127605
 20
-4.414913743314115
  0
LWPOLYLINE
  5
139
100
AcDbEntity
  8
0
  6
ByLayer
 62
  256
370
   -1
100
AcDbPolyline
 90
    5
 70
    1
 43
0
 10
-7.322022351127606
 20
-4.605413743314115
 10
-7.322022351127606
 20
-3.208439143314114
 10
-5.925047751127604
 20
-3.208439143314114
 10
-5.925047751127604
 20
-4.605413743314115
 10
-7.322022351127606
 20
-4.605413743314115
  0
LWPOLYLINE
  5
13A
100
AcDbEntity
  8
0
  6
ByLayer
 62
  256
370
   -1
100
AcDbPolyline
 90
    5
 70
    1
 43
0
 10
-5.417047751127603
 20
-5.557913743314115
 10
-5.417047751127603
 20
-4.160913743314115
 10
-4.020047751127604
 20
-4.160913743314115
 10
-4.020047751127604
 20
-5.557913743314115
 10
-5.417047751127603
 20
-5.557913743314115
  0
LWPOLYLINE
  5
13B
100
AcDbEntity
  8
0
  6
ByLayer
 62
  256
370
   -1
100
AcDbPolyline
 90
    5
 70
    1
 43
0
 10
-13.54502235112761
 20
-5.367413743314115
 10
-13.54502235112761
 20
-6.764413743314115
 10
-14.94202235112761
 20
-6.764413743314115
 10
-14.94202235112761
 20
-5.367413743314115
 10
-13.54502235112761
 20
-5.367413743314115
  0
LWPOLYLINE
  5
13C
100
AcDbEntity
  8
0
  6
ByLayer
 62
  256
370
   -1
100
AcDbPolyline
 90
    5
 70
    1
 43
0
 10
-11.64002235112761
 20
-4.922913743314115
 10
-11.64002235112761
 20
-6.319913743314115
 10
-13.03702235112761
 20
-6.319913743314115
 10
-13.03702235112761
 20
-4.922913743314115
 10
-11.64002235112761
 20
-4.922913743314115
  0
LWPOLYLINE
  5
13D
100
AcDbEntity
  8
0
  6
ByLayer
 62
  256
370
   -1
100
AcDbPolyline
 90
    5
 70
    1
 43
0
 10
-9.735022351127606
 20
-4.668913743314114
 10
-9.735022351127606
 20
-6.065913743314114
 10
-11.13202235112761
 20
-6.065913743314114
 10
-11.13202235112761
 20
-4.668913743314114
 10
-9.735022351127606
 20
-4.668913743314114
  0
LWPOLYLINE
  5
13E
100
AcDbEntity
  8
0
  6
ByLayer
 62
  256
370
   -1
100
AcDbPolyline
 90
    5
 70
    1
 43
0
 10
-7.830022351127605
 20
-4.922913743314115
 10
-7.830022351127605
 20
-6.319913743314115
 10
-9.227022351127605
 20
-6.319913743314115
 10
-9.227022351127605
 20
-4.922913743314115
 10
-7.830022351127605
 20
-4.922913743314115
  0
LWPOLYLINE
  5
13F
100
AcDbEntity
  8
0
  6
ByLayer
 62
  256
370
   -1
100
AcDbPolyline
 90
    5
 70
    1
 43
0
 10
-5.925047751127604
 20
-5.113413743314115
 10
-5.925047751127604
 20
-6.510413743314115
 10
-7.322022351127606
 20
-6.510413743314115
 10
-7.322022351127606
 20
-5.113413743314115
 10
-5.925047751127604
 20
-5.113413743314115
  0
LWPOLYLINE
  5
140
100
AcDbEntity
  8
0
  6
ByLayer
 62
  256
370
   -1
100
AcDbPolyline
 90
    5
 70
    1
 43
0
 10
-13.54502235112761
 20
-7.272413743314114
 10
-13.54502235112761
 20
-8.669413743314113
 10
-14.94202235112761
 20
-8.669413743314113
 10
-14.94202235112761
 20
-7.272413743314114
 10
-13.54502235112761
 20
-7.272413743314114
  0
LWPOLYLINE
  5
141
100
AcDbEntity
  8
0
  6
ByLayer
 62
  256
370
   -1
100
AcDbPolyline
 90
    5
 70
    1
 43
0
 10
-11.64002235112761
 20
-6.827913743314115
 10
-11.64002235112761
 20
-8.224913743314113
 10
-13.03702235112761
 20
-8.224913743314113
 10
-13.03702235112761
 20
-6.827913743314115
 10
-11.64002235112761
 20
-6.827913743314115
  0
LWPOLYLINE
  5
142
100
AcDbEntity
  8
0
  6
ByLayer
 62
  256
370
   -1
100
AcDbPolyline
 90
    5
 70
    1
 43
0
 10
-9.735022351127606
 20
-6.573913743314115
 10
-9.735022351127606
 20
-7.970913743314114
 10
-11.13202235112761
 20
-7.970913743314114
 10
-11.13202235112761
 20
-6.573913743314115
 10
-9.735022351127606
 20
-6.573913743314115
  0
LWPOLYLINE
  5
143
100
AcDbEntity
  8
0
  6
ByLayer
 62
  256
370
   -1
100
AcDbPolyline
 90
    5
 70
    1
 43
0
 10
-5.925047751127604
 20
-7.018413743314115
 10
-5.925047751127604
 20
-8.415413743314113
 10
-7.322022351127606
 20
-8.415413743314113
 10
-7.322022351127606
 20
-7.018413743314115
 10
-5.925047751127604
 20
-7.018413743314115
  0
LWPOLYLINE
  5
144
100
AcDbEntity
  8
0
  6
ByLayer
 62
  256
370
   -1
100
AcDbPolyline
 90
    5
 70
    1
 43
0
 10
-3.383371351127605
 20
-10.00123734331411
 10
-4.081871351127605
 20
-11.21109014331411
 10
-5.291698751127605
 20
-10.51259014331412
 10
-4.593198751127604
 20
-9.302737343314114
 10
-3.383371351127605
 20
-10.00123734331411
  0
LWPOLYLINE
  5
145
100
AcDbEntity
  8
0
  6
ByLayer
 62
  256
370
   -1
100
AcDbPolyline
 90
    5
 70
    1
 43
0
 10
-13.54502235112761
 20
-9.177413743314114
 10
-13.54502235112761
 20
-10.57441374331411
 10
-14.94202235112761
 20
-10.57441374331411
 10
-14.94202235112761
 20
-9.177413743314114
 10
-13.54502235112761
 20
-9.177413743314114
  0
LWPOLYLINE
  5
146
100
AcDbEntity
  8
0
  6
ByLayer
 62
  256
370
   -1
100
AcDbPolyline
 90
    5
 70
    1
 43
0
 10
-11.64002235112761
 20
-8.732913743314114
 10
-11.64002235112761
 20
-10.12991374331411
 10
-13.03702235112761
 20
-10.12991374331411
 10
-13.03702235112761
 20
-8.732913743314114
 10
-11.64002235112761
 20
-8.732913743314114
  0
LWPOLYLINE
  5
147
100
AcDbEntity
  8
0
  6
ByLayer
 62
  256
370
   -1
100
AcDbPolyline
 90
    5
 70
    1
 43
0
 10
-9.735022351127606
 20
-8.478913743314115
 10
-9.735022351127606
 20
-9.875913743314113
 10
-11.13202235112761
 20
-9.875913743314113
 10
-11.13202235112761
 20
-8.478913743314115
 10
-9.735022351127606
 20
-8.478913743314115
  0
LWPOLYLINE
  5
148
100
AcDbEntity
  8
0
  6
ByLayer
 62
  256
370
   -1
100
AcDbPolyline
 90
    5
 70
    1
 43
0
 10
-7.830022351127605
 20
-8.732913743314114
 10
-7.830022351127605
 20
-10.12991374331411
 10
-9.227022351127605
 20
-10.12991374331411
 10
-9.227022351127605
 20
-8.732913743314114
 10
-7.830022351127605
 20
-8.732913743314114
  0
LWPOLYLINE
  5
149
100
AcDbEntity
  8
0
  6
ByLayer
 62
  256
370
   -1
100
AcDbPolyline
 90
    5
 70
    1
 43
0
 10
-5.925047751127604
 20
-8.923413743314114
 10
-5.925047751127604
 20
-10.32041374331411
 10
-7.322022351127606
 20
-10.32041374331411
 10
-7.322022351127606
 20
-8.923413743314114
 10
-5.925047751127604
 20
-8.923413743314114
  0
LWPOLYLINE
  5
14A
100
AcDbEntity
  8
0
  6
ByLayer
 62
  256
370
   -1
100
AcDbPolyline
 90
    5
 70
    1
 43
0
 10
-11.64002235112761
 20
-10.63791374331411
 10
-11.64002235112761
 20
-12.03491374331411
 10
-13.03702235112761
 20
-12.03491374331411
 10
-13.03702235112761
 20
-10.63791374331411
 10
-11.64002235112761
 20
-10.63791374331411
  0
LWPOLYLINE
  5
14B
100
AcDbEntity
  8
0
  6
ByLayer
 62
  256
370
   -1
100
AcDbPolyline
 90
    5
 70
    1
 43
0
 10
-9.735022351127606
 20
-10.38391374331411
 10
-9.735022351127606
 20
-11.78091374331411
 10
-11.13202235112761
 20
-11.78091374331411
 10
-11.13202235112761
 20
-10.38391374331411
 10
-9.735022351127606
 20
-10.38391374331411
  0
LWPOLYLINE
  5
14C
100
AcDbEntity
  8
0
  6
ByLayer
 62
  256
370
   -1
100
AcDbPolyline
 90
    5
 70
    1
 43
0
 10
-17.1010223511276
 20
-4.859413743314114
 10
-17.1010223511276
 20
-3.462439143314114
 10
-15.7040223511276
 20
-3.462439143314114
 10
-15.7040223511276
 20
-4.859413743314114
 10
-17.1010223511276
 20
-4.859413743314114
  0
LWPOLYLINE
  5
14D
100
AcDbEntity
  8
0
  6
ByLayer
 62
  256
370
   -1
100
AcDbPolyline
 90
    5
 70
    1
 43
0
 10
-15.7040223511276
 20
-5.367413743314115
 10
-15.7040223511276
 20
-6.764413743314115
 10
-17.1010223511276
 20
-6.764413743314115
 10
-17.1010223511276
 20
-5.367413743314115
 10
-15.7040223511276
 20
-5.367413743314115
  0
LWPOLYLINE
  5
14E
100
AcDbEntity
  8
0
  6
ByLayer
 62
  256
370
   -1
100
AcDbPolyline
 90
    5
 70
    1
 43
0
 10
-15.7040223511276
 20
-7.272413743314114
 10
-15.7040223511276
 20
-8.669413743314113
 10
-17.1010223511276
 20
-8.669413743314113
 10
-17.1010223511276
 20
-7.272413743314114
 10
-15.7040223511276
 20
-7.272413743314114
  0
LWPOLYLINE
  5
14F
100
AcDbEntity
  8
0
  6
ByLayer
 62
  256
370
   -1
100
AcDbPolyline
 90
    5
 70
    1
 43
0
 10
-15.7040223511276
 20
-9.177413743314114
 10
-15.7040223511276
 20
-10.57441374331411
 10
-17.1010223511276
 20
-10.57441374331411
 10
-17.1010223511276
 20
-9.177413743314114
 10
-15.7040223511276
 20
-9.177413743314114
  0
LWPOLYLINE
  5
150
100
AcDbEntity
  8
0
  6
ByLayer
 62
  256
370
   -1
100
AcDbPolyline
 90
    5
 70
    1
 43
0
 10
-7.038050351127605
 20
-11.15998534331411
 10
-7.399619351127606
 20
-12.50938574331411
 10
-8.749019751127603
 20
-12.14781674331411
 10
-8.387450751127606
 20
-10.79841634331411
 10
-7.038050351127605
 20
-11.15998534331411
  0
ARC
  5
151
100
AcDbEntity
  8
0
  6
ByLayer
 62
  256
370
   -1
100
AcDbCircle
 10
-5.147172621361614
 20
-1.891030043314114
 40
0.1796034
100
AcDbArc
 50
0.06887487528329225
 51
359.9311251247115
  0
ARC
  5
152
100
AcDbEntity
  8
0
  6
ByLayer
 62
  256
370
   -1
100
AcDbCircle
 10
-18.10114722136161
 20
-3.415030043314114
 40
0.1796034
100
AcDbArc
 50
0.06887487528329225
 51
359.9311251247115
  0
ARC
  5
153
100
AcDbEntity
  8
0
  6
ByLayer
 62
  256
370
   -1
100
AcDbCircle
 10
-15.98977222136161
 20
-11.81287964331411
 40
0.1796034
100
AcDbArc
 50
0.06887487528329225
 51
359.9311251247088
  0
ARC
  5
154
100
AcDbEntity
  8
0
  6
ByLayer
 62
  256
370
   -1
100
AcDbCircle
 10
-8.036397221361616
 20
-13.32100464331411
 40
0.1796034
100
AcDbArc
 50
0.06887487528329225
 51
359.9311251247088
  0
ARC
  5
155
100
AcDbEntity
  8
0
  6
ByLayer
 62
  256
370
   -1
100
AcDbCircle
 10
-3.226297621361615
 20
-8.923629643314115
 40
0.1796034
100
AcDbArc
 50
0.06887487528329225
 51
359.9311251247115
  0
ENDBLK
  5
89
330
87
100
AcDbEntity
  8
0
100
AcDbBlockEnd
  0
BLOCK
  5
8B
330
8A
100
AcDbEntity
  8
0
100
AcDbBlockBegin
  2
case-v2-l3-1
 70
    0
 10
0
 20
0
  3
case-v2-l3-1
  1

  0
LWPOLYLINE
  5
156
100
AcDbEntity
  8
0
  6
ByLayer
 62
  256
370
   -1
100
AcDbPolyline
 90
   32
 70
    1
 43
0
 10
11.67411509146154
 20
13.74987300256301
 10
11.67411509146154
 20
13.03549800256301
 10
17.05571469146154
 20
13.03549800256301
 10
17.37321469146154
 20
12.55924800256301
 10
17.37321469146154
 20
5.828273402563013
 10
18.16696469146154
 20
5.415523402563013
 10
15.75396469146154
 20
1.288023402563012
 10
13.07111509146154
 20
2.637398402563012
 10
10.94386509146154
 20
3.193023402563012
 10
9.991365091461541
 20
3.193023402563012
 10
9.75324009146154
 20
2.954898402563012
 10
7.68949009146154
 20
2.954898402563012
 10
6.34011509146154
 20
3.907398402563012
 10
3.958865091461541
 20
3.907398402563012
 10
3.403240091461541
 20
4.463023402563012
 10
3.403240091461541
 20
12.40049800256301
 10
4.003315091461541
 20
13.03549800256301
 10
4.308115091461541
 20
13.03549800256301
 10
4.308115091461541
 20
13.74987300256301
 10
4.038240091461541
 20
13.74987300256301
 10
2.609490091461541
 20
12.32112300256301
 10
2.609490091461541
 20
4.590023402563013
 10
3.958865091461541
 20
3.351773402563012
 10
7.68949009146154
 20
2.240523402563012
 10
10.15011509146154
 20
2.240523402563012
 10
14.99196469146154
 20
0.7323984025630121
 10
16.73821469146154
 20
1.367398402563012
 10
19.04008969146154
 20
4.463023402563012
 10
18.40508969146154
 20
6.114023402563014
 10
18.00821469146154
 20
12.47987300256301
 10
16.75408969146154
 20
13.74987300256301
 10
11.67411509146154
 20
13.74987300256301
  0
ARC
  5
157
100
AcDbEntity
  8
0
  6
ByLayer
 62
  256
370
   -1
100
AcDbCircle
 10
15.94446482122753
 20
13.40040710256301
 40
0.1796034
100
AcDbArc
 50
0.06887487528329225
 51
359.9311251247115
  0
ARC
  5
158
100
AcDbEntity
  8
0
  6
ByLayer
 62
  256
370
   -1
100
AcDbCircle
 10
2.990490221227532
 20
11.87640710256301
 40
0.1796034
100
AcDbArc
 50
0.06887487528329225
 51
359.9311251247115
  0
ARC
  5
159
100
AcDbEntity
  8
0
  6
ByLayer
 62
  256
370
   -1
100
AcDbCircle
 10
5.101865221227532
 20
3.478557502563013
 40
0.1796034
100
AcDbArc
 50
0.06887487528329225
 51
359.9311251247088
  0
ARC
  5
15A
100
AcDbEntity
  8
0
  6
ByLayer
 62
  256
370
   -1
100
AcDbCircle
 10
13.05524022122753
 20
1.970432502563014
 40
0.1796034
100
AcDbArc
 50
0.06887487528329225
 51
359.9311251247088
  0
ARC
  5
15B
100
AcDbEntity
  8
0
  6
ByLayer
 62
  256
370
   -1
100
AcDbCircle
 10
17.86533982122753
 20
6.367807502563011
 40
0.1796034
100
AcDbArc
 50
0.06887487528329225
 51
359.9311251247115
  0
ENDBLK
  5
8C
330
8A
100
AcDbEntity
  8
0
100
AcDbBlockEnd
  0
BLOCK
  5
8E
330
8D
100
AcDbEntity
  8
0
100
AcDbBlockBegin
  2
case-v2-l4-1
 70
    0
 10
0
 20
0
  3
case-v2-l4-1
  1

  0
LWPOLYLINE
  5
15C
100
AcDbEntity
  8
0
  6
ByLayer
 62
  256
370
   -1
100
AcDbPolyline
 90
   25
 70
    1
 43
0
 10
18.9522078687841
 20
-11.97087743812108
 10
18.3172078687841
 20
-10.31987743812108
 10
17.92033286878409
 20
-3.954027838121077
 10
16.6662078687841
 20
-2.684027838121077
 10
11.58623326878409
 20
-2.684027838121077
 10
11.58623326878409
 20
-3.715902838121077
 10
11.33223326878409
 20
-3.969902838121077
 10
9.808233268784095
 20
-3.969902838121077
 10
9.554233268784094
 20
-3.715902838121077
 10
9.554233268784094
 20
-2.684027838121077
 10
7.141233268784095
 20
-2.684027838121077
 10
7.141233268784095
 20
-5.620877438121077
 10
6.887233268784094
 20
-5.874877438121078
 10
4.474233268784095
 20
-5.874877438121078
 10
4.220233268784096
 20
-5.620877438121077
 10
4.220233268784096
 20
-2.684027838121077
 10
3.950358268784095
 20
-2.684027838121077
 10
2.521608268784095
 20
-4.112777838121077
 10
2.521608268784095
 20
-11.84387743812108
 10
3.870983268784095
 20
-13.08212743812108
 10
7.601608268784094
 20
-14.19337743812108
 10
10.06223326878409
 20
-14.19337743812108
 10
14.9040828687841
 20
-15.70150243812108
 10
16.65033286878409
 20
-15.06650243812108
 10
18.9522078687841
 20
-11.97087743812108
  0
ARC
  5
15D
100
AcDbEntity
  8
0
  6
ByLayer
 62
  256
370
   -1
100
AcDbCircle
 10
2.902608698044821
 20
-4.557608038121078
 40
0.127
100
AcDbArc
 50
0.1489691945702162
 51
359.8510308054244
  0
ARC
  5
15E
100
AcDbEntity
  8
0
  6
ByLayer
 62
  256
370
   -1
100
AcDbCircle
 10
15.85658329804482
 20
-3.033608038121077
 40
0.127
100
AcDbArc
 50
0.1489691945702162
 51
359.8510308054244
  0
ARC
  5
15F
100
AcDbEntity
  8
0
  6
ByLayer
 62
  256
370
   -1
100
AcDbCircle
 10
17.77745829804482
 20
-10.06620763812108
 40
0.127
100
AcDbArc
 50
0.1489691945702162
 51
359.8510308054244
  0
ARC
  5
160
100
AcDbEntity
  8
0
  6
ByLayer
 62
  256
370
   -1
100
AcDbCircle
 10
12.96735869804482
 20
-14.46358263812107
 40
0.127
100
AcDbArc
 50
0.1489691945702162
 51
359.8510308054244
  0
ARC
  5
161
100
AcDbEntity
  8
0
  6
ByLayer
 62
  256
370
   -1
100
AcDbCircle
 10
5.013983698044822
 20
-12.95545763812108
 40
0.127
100
AcDbArc
 50
0.1489691945702162
 51
359.8510308054244
  0
ENDBLK
  5
8F
330
8D
100
AcDbEntity
  8
0
100
AcDbBlockEnd
  0
BLOCK
  5
91
330
90
100
AcDbEntity
  8
0
100
AcDbBlockBegin
  2
case-v2-l3-2
 70
    0
 10
0
 20
0
  3
case-v2-l3-2
  1

  0
LWPOLYLINE
  5
162
100
AcDbEntity
  8
0
  6
ByLayer
 62
  256
370
   -1
100
AcDbPolyline
 90
   32
 70
    1
 43
0
 10
11.67411509146154
 20
13.74987300256301
 10
11.67411509146154
 20
13.03549800256301
 10
17.05571469146154
 20
13.03549800256301
 10
17.37321469146154
 20
12.55924800256301
 10
17.37321469146154
 20
5.828273402563013
 10
18.16696469146154
 20
5.415523402563013
 10
15.75396469146154
 20
1.288023402563012
 10
13.07111509146154
 20
2.637398402563012
 10
10.94386509146154
 20
3.193023402563012
 10
9.991365091461541
 20
3.193023402563012
 10
9.75324009146154
 20
2.954898402563012
 10
7.68949009146154
 20
2.954898402563012
 10
6.34011509146154
 20
3.907398402563012
 10
3.958865091461541
 20
3.907398402563012
 10
3.403240091461541
 20
4.463023402563012
 10
3.403240091461541
 20
12.40049800256301
 10
4.003315091461541
 20
13.03549800256301
 10
4.308115091461541
 20
13.03549800256301
 10
4.308115091461541
 20
13.74987300256301
 10
4.038240091461541
 20
13.74987300256301
 10
2.609490091461541
 20
12.32112300256301
 10
2.609490091461541
 20
4.590023402563013
 10
3.958865091461541
 20
3.351773402563012
 10
7.68949009146154
 20
2.240523402563012
 10
10.15011509146154
 20
2.240523402563012
 10
14.99196469146154
 20
0.7323984025630121
 10
16.73821469146154
 20
1.367398402563012
 10
19.04008969146154
 20
4.463023402563012
 10
18.40508969146154
 20
6.114023402563014
 10
18.00821469146154
 20
12.47987300256301
 10
16.75408969146154
 20
13.74987300256301
 10
11.67411509146154
 20
13.74987300256301
  0
ARC
  5
163
100
AcDbEntity
  8
0
  6
ByLayer
 62
  256
370
   -1
100
AcDbCircle
 10
15.94446482122753
 20
13.40040710256301
 40
0.1796034
100
AcDbArc
 50
0.06887487528329225
 51
359.9311251247115
  0
ARC
  5
164
100
AcDbEntity
  8
0
  6
ByLayer
 62
  256
370
   -1
100
AcDbCircle
 10
2.990490221227532
 20
11.87640710256301
 40
0.1796034
100
AcDbArc
 50
0.06887487528329225
 51
359.9311251247115
  0
ARC
  5
165
100
AcDbEntity
  8
0
  6
ByLayer
 62
  256
370
   -1
100
AcDbCircle
 10
5.101865221227532
 20
3.478557502563013
 40
0.1796034
100
AcDbArc
 50
0.06887487528329225
 51
359.9311251247088
  0
ARC
  5
166
100
AcDbEntity
  8
0
  6
ByLayer
 62
  256
370
   -1
100
AcDbCircle
 10
13.05524022122753
 20
1.970432502563014
 40
0.1796034
100
AcDbArc
 50
0.06887487528329225
 51
359.9311251247088
  0
ARC
  5
167
100
AcDbEntity
  8
0
  6
ByLayer
 62
  256
370
   -1
100
AcDbCircle
 10
17.86533982122753
 20
6.367807502563011
 40
0.1796034
100
AcDbArc
 50
0.06887487528329225
 51
359.9311251247115
  0
ENDBLK
  5
92
330
90
100
AcDbEntity
  8
0
100
AcDbBlockEnd
  0
BLOCK
  5
94
330
93
100
AcDbEntity
  8
0
100
AcDbBlockBegin
  2
case-v2-l3-3
 70
    0
 10
0
 20
0
  3
case-v2-l3-3
  1

  0
LWPOLYLINE
  5
168
100
AcDbEntity
  8
0
  6
ByLayer
 62
  256
370
   -1
100
AcDbPolyline
 90
   17
 70
    1
 43
0
 10
6.063738063570806
 20
-1.83643161534271
 10
6.857488063570807
 20
-2.249181615342716
 10
4.444488063570795
 20
-6.376681615342727
 10
1.761638463570787
 20
-5.027306615342716
 10
-0.365611536429217
 20
-4.471681615342752
 10
-1.318111536429178
 20
-4.471681615342752
 10
-1.556236536429218
 20
-4.709806615342743
 10
-3.619986536429199
 20
-4.709806615342743
 10
-4.969361536429254
 20
-3.757306615342734
 10
-7.350611536429252
 20
-3.757306615342734
 10
-7.906236536429216
 20
-3.201681615342726
 10
-7.906236536429216
 20
4.735792984657271
 10
-7.306161536429201
 20
5.370792984657262
 10
0.3646384635707633
 20
5.370792984657262
 10
5.746238063570789
 20
5.370792984657262
 10
6.063738063570806
 20
4.89454298465728
 10
6.063738063570806
 20
-1.83643161534271
  0
LWPOLYLINE
  5
169
100
AcDbEntity
  8
0
  6
ByLayer
 62
  256
370
   -1
100
AcDbPolyline
 90
   14
 70
    1
 43
0
 10
0.3646384635707633
 20
6.08516798465728
 10
-7.271236536429178
 20
6.08516798465728
 10
-8.699986536429218
 20
4.656417984657288
 10
-8.699986536429218
 20
-3.074681615342727
 10
-7.350611536429252
 20
-4.312931615342744
 10
-3.619986536429199
 20
-5.424181615342717
 10
-1.159361536429216
 20
-5.424181615342717
 10
3.682488063570808
 20
-6.932306615342735
 10
5.428738063570769
 20
-6.297306615342744
 10
7.730613063570789
 20
-3.201681615342726
 10
7.095613063570752
 20
-1.550681615342749
 10
6.698738063570753
 20
4.815167984657252
 10
5.444613063570824
 20
6.08516798465728
 10
0.3646384635707633
 20
6.08516798465728
  0
LWPOLYLINE
  5
16A
100
AcDbEntity
  8
0
  6
ByLayer
 62
  256
370
   -1
100
AcDbPolyline
 90
    2
 70
    0
 43
0
 10
5.990713063570755
 20
-7.392681615342711
 10
6.003413063570797
 20
-7.392681615342711
  0
ARC
  5
16B
100
AcDbEntity
  8
0
  6
ByLayer
 62
  256
370
   -1
100
AcDbCircle
 10
4.634988193336746
 20
5.735702084657285
 40
0.1796034
100
AcDbArc
 50
0.06887487528329225
 51
359.9311251247115
  0
ARC
  5
16C
100
AcDbEntity
  8
0
  6
ByLayer
 62
  256
370
   -1
100
AcDbCircle
 10
-8.3189864066632
 20
4.211702084657261
 40
0.1796034
100
AcDbArc
 50
0.06887487528329225
 51
359.9311251247115
  0
ARC
  5
16D
100
AcDbEntity
  8
0
  6
ByLayer
 62
  256
370
   -1
100
AcDbCircle
 10
-6.207611406663247
 20
-4.186147515342712
 40
0.1796034
100
AcDbArc
 50
0.06887487528329225
 51
359.9311251247088
  0
ARC
  5
16E
100
AcDbEntity
  8
0
  6
ByLayer
 62
  256
370
   -1
100
AcDbCircle
 10
1.745763593336804
 20
-5.694272515342731
 40
0.1796034
100
AcDbArc
 50
0.06887487528329225
 51
359.9311251247088
  0
ARC
  5
16F
100
AcDbEntity
  8
0
  6
ByLayer
 62
  256
370
   -1
100
AcDbCircle
 10
6.555863193336817
 20
-1.29689751534272
 40
0.1796034
100
AcDbArc
 50
0.06887487528329225
 51
359.9311251247115
  0
ENDBLK
  5
95
330
93
100
AcDbEntity
  8
0
100
AcDbBlockEnd
  0
BLOCK
  5
97
330
96
100
AcDbEntity
  8
0
100
AcDbBlockBegin
  2
redox_rev1_case_v2_l1-Edge_Cuts
 70
    0
 10
0
 20
0
  3
redox_rev1_case_v2_l1-Edge_Cuts
  1

  0
CIRCLE
  5
170
100
AcDbEntity
  8
BLACK
  6
ByLayer
 62
  256
370
   -1
100
AcDbCircle
 10
52.83227440633226
 20
57.03306719437121
 40
1.79605
  0
CIRCLE
  5
171
100
AcDbEntity
  8
BLACK
  6
ByLayer
 62
  256
370
   -1
100
AcDbCircle
 10
72.04027440633223
 20
-13.29313280562879
 40
1.79605
  0
CIRCLE
  5
172
100
AcDbEntity
  8
BLACK
  6
ByLayer
 62
  256
370
   -1
100
AcDbCircle
 10
23.93927440633223
 20
-57.26713280562878
 40
1.79605
  0
CIRCLE
  5
173
100
AcDbEntity
  8
BLACK
  6
ByLayer
 62
  256
370
   -1
100
AcDbCircle
 10
-55.59472559366776
 20
-42.18513280562878
 40
1.79605
  0
CIRCLE
  5
174
100
AcDbEntity
  8
BLACK
  6
ByLayer
 62
  256
370
   -1
100
AcDbCircle
 10
-76.70772559366776
 20
41.79316719437121
 40
1.79605
  0
LINE
  5
175
100
AcDbEntity
  8
BLACK
  6
CONTINUOUS
 62
  256
370
   -1
100
AcDbLine
 10
-9.874725593667737
 20
48.61936719437121
 11
-9.874725593667737
 21
51.10066719437122
  0
LINE
  5
176
100
AcDbEntity
  8
BLACK
  6
CONTINUOUS
 62
  256
370
   -1
100
AcDbLine
 10
-80.51772559366776
 20
46.23816719437121
 11
-80.51772559366776
 21
-31.07313280562879
  0
LINE
  5
177
100
AcDbEntity
  8
BLACK
  6
CONTINUOUS
 62
  256
370
   -1
100
AcDbLine
 10
-71.58672559366772
 20
44.15066719437122
 11
-28.92472559366775
 21
44.15066719437122
  0
LINE
  5
178
100
AcDbEntity
  8
BLACK
  6
CONTINUOUS
 62
  256
370
   -1
100
AcDbLine
 10
9.969274406332257
 20
51.00066719437122
 11
9.969274406332257
 21
48.61936719437121
  0
LINE
  5
179
100
AcDbEntity
  8
BLACK
  6
CONTINUOUS
 62
  256
370
   -1
100
AcDbLine
 10
-28.92472559366775
 20
-32.64313280562878
 11
-71.58672559366772
 21
-32.64313280562878
  0
LINE
  5
17A
100
AcDbEntity
  8
BLACK
  6
CONTINUOUS
 62
  256
370
   -1
100
AcDbLine
 10
48.06927440633228
 20
46.73816719437121
 11
48.06927440633228
 21
37.21316719437121
  0
LINE
  5
17B
100
AcDbEntity
  8
BLACK
  6
CONTINUOUS
 62
  256
370
   -1
100
AcDbLine
 10
-29.71772559366775
 20
-54.56813280562879
 11
-67.02472559366777
 21
-43.45513280562879
  0
LINE
  5
17C
100
AcDbEntity
  8
BLACK
  6
CONTINUOUS
 62
  256
370
   -1
100
AcDbLine
 10
15.52527440633224
 20
-48.2181328056288
 11
3.619274406332234
 21
-44.64913280562878
  0
LINE
  5
17D
100
AcDbEntity
  8
BLACK
  6
CONTINUOUS
 62
  256
370
   -1
100
AcDbLine
 10
-67.02472559366777
 20
-43.45513280562879
 11
-80.51772559366776
 21
-31.07313280562879
  0
LINE
  5
17E
100
AcDbEntity
  8
BLACK
  6
CONTINUOUS
 62
  256
370
   -1
100
AcDbLine
 10
-80.51772559366776
 20
46.23816719437121
 11
-66.23072559366773
 21
60.52556719437121
  0
LINE
  5
17F
100
AcDbEntity
  8
BLACK
  6
CONTINUOUS
 62
  256
370
   -1
100
AcDbLine
 10
-9.080725593667754
 20
-47.42413280562879
 11
-9.080725593667754
 21
-44.64913280562878
  0
LINE
  5
180
100
AcDbEntity
  8
BLACK
  6
CONTINUOUS
 62
  256
370
   -1
100
AcDbLine
 10
15.52527440633224
 20
-48.2181328056288
 11
32.19427440633228
 21
-52.98113280562877
  0
LINE
  5
181
100
AcDbEntity
  8
BLACK
  6
CONTINUOUS
 62
  256
370
   -1
100
AcDbLine
 10
9.969274406332257
 20
48.61936719437121
 11
29.01927440633227
 21
48.61936719437121
  0
LINE
  5
182
100
AcDbEntity
  8
BLACK
  6
CONTINUOUS
 62
  256
370
   -1
100
AcDbLine
 10
-28.92472559366775
 20
-47.42413280562879
 11
-9.080725593667754
 21
-47.42413280562879
  0
LINE
  5
183
100
AcDbEntity
  8
BLACK
  6
CONTINUOUS
 62
  256
370
   -1
100
AcDbLine
 10
-71.58672559366772
 20
-32.64313280562878
 11
-71.58672559366772
 21
44.15066719437122
  0
LINE
  5
184
100
AcDbEntity
  8
BLACK
  6
CONTINUOUS
 62
  256
370
   -1
100
AcDbLine
 10
-9.874725593667737
 20
51.10066719437122
 11
9.969274406332257
 21
51.10066719437122
  0
LINE
  5
185
100
AcDbEntity
  8
BLACK
  6
CONTINUOUS
 62
  256
370
   -1
100
AcDbLine
 10
-28.92472559366775
 20
44.15066719437122
 11
-28.92472559366775
 21
48.61936719437121
  0
LINE
  5
186
100
AcDbEntity
  8
BLACK
  6
CONTINUOUS
 62
  256
370
   -1
100
AcDbLine
 10
29.01927440633227
 20
46.73816719437121
 11
29.01927440633227
 21
48.61936719437121
  0
LINE
  5
187
100
AcDbEntity
  8
BLACK
  6
CONTINUOUS
 62
  256
370
   -1
100
AcDbLine
 10
-28.92472559366775
 20
48.61936719437121
 11
-9.874725593667737
 21
48.61936719437121
  0
LINE
  5
188
100
AcDbEntity
  8
BLACK
  6
CONTINUOUS
 62
  256
370
   -1
100
AcDbLine
 10
-28.92472559366775
 20
-47.42413280562879
 11
-28.92472559366775
 21
-32.64313280562878
  0
LINE
  5
189
100
AcDbEntity
  8
BLACK
  6
CONTINUOUS
 62
  256
370
   -1
100
AcDbLine
 10
29.01927440633227
 20
46.73816719437121
 11
48.06927440633228
 21
46.73816719437121
  0
LINE
  5
18A
100
AcDbEntity
  8
BLACK
  6
CONTINUOUS
 62
  256
370
   -1
100
AcDbLine
 10
60.76927440633227
 20
-63.29913280562879
 11
43.30727440633228
 21
-69.64913280562878
  0
LINE
  5
18B
100
AcDbEntity
  8
BLACK
  6
CONTINUOUS
 62
  256
370
   -1
100
AcDbLine
 10
43.30727440633228
 20
-69.64913280562878
 11
-5.11172559366776
 21
-54.56813280562879
  0
LINE
  5
18C
100
AcDbEntity
  8
BLACK
  6
CONTINUOUS
 62
  256
370
   -1
100
AcDbLine
 10
-5.11172559366776
 20
-54.56813280562879
 11
-29.71772559366775
 21
-54.56813280562879
  0
LINE
  5
18D
100
AcDbEntity
  8
BLACK
  6
CONTINUOUS
 62
  256
370
   -1
100
AcDbLine
 10
-9.080725593667754
 20
-44.64913280562878
 11
3.619274406332234
 21
-44.64913280562878
  0
LINE
  5
18E
100
AcDbEntity
  8
BLACK
  6
CONTINUOUS
 62
  256
370
   -1
100
AcDbLine
 10
77.43827440633225
 20
-15.83313280562878
 11
83.78827440633228
 21
-32.3431328056288
  0
LINE
  5
18F
100
AcDbEntity
  8
BLACK
  6
CONTINUOUS
 62
  256
370
   -1
100
AcDbLine
 10
83.78827440633228
 20
-32.3431328056288
 11
60.76927440633227
 21
-63.29913280562879
  0
LINE
  5
190
100
AcDbEntity
  8
BLACK
  6
CONTINUOUS
 62
  256
370
   -1
100
AcDbLine
 10
73.46927440633226
 20
47.82566719437121
 11
77.43827440633225
 21
-15.83313280562878
  0
LINE
  5
191
100
AcDbEntity
  8
BLACK
  6
CONTINUOUS
 62
  256
370
   -1
100
AcDbLine
 10
60.92827440633226
 20
60.52556719437121
 11
73.46927440633226
 21
47.82566719437121
  0
LINE
  5
192
100
AcDbEntity
  8
BLACK
  6
CONTINUOUS
 62
  256
370
   -1
100
AcDbLine
 10
-66.23072559366773
 20
60.52556719437121
 11
-50.83172559366773
 21
60.52556719437121
  0
LINE
  5
193
100
AcDbEntity
  8
BLACK
  6
CONTINUOUS
 62
  256
370
   -1
100
AcDbLine
 10
-50.83172559366773
 20
60.52556719437121
 11
60.92827440633226
 21
60.52556719437121
  0
LINE
  5
194
100
AcDbEntity
  8
BLACK
  6
CONTINUOUS
 62
  256
370
   -1
100
AcDbLine
 10
50.35027440633223
 20
-65.03713280562879
 11
32.19427440633228
 21
-54.56813280562879
  0
LINE
  5
195
100
AcDbEntity
  8
BLACK
  6
CONTINUOUS
 62
  256
370
   -1
100
AcDbLine
 10
32.19427440633228
 20
-54.56813280562879
 11
32.19427440633228
 21
-52.98113280562877
  0
LINE
  5
196
100
AcDbEntity
  8
BLACK
  6
CONTINUOUS
 62
  256
370
   -1
100
AcDbLine
 10
48.06927440633228
 20
37.21316719437121
 11
67.11927440633224
 21
37.21316719437121
  0
LINE
  5
197
100
AcDbEntity
  8
BLACK
  6
CONTINUOUS
 62
  256
370
   -1
100
AcDbLine
 10
67.11927440633224
 20
37.21316719437121
 11
67.11927440633224
 21
-18.84913280562878
  0
LINE
  5
198
100
AcDbEntity
  8
BLACK
  6
CONTINUOUS
 62
  256
370
   -1
100
AcDbLine
 10
67.11927440633224
 20
-18.84913280562878
 11
74.46327440633223
 21
-23.31213280562878
  0
LINE
  5
199
100
AcDbEntity
  8
BLACK
  6
CONTINUOUS
 62
  256
370
   -1
100
AcDbLine
 10
74.46327440633223
 20
-23.31213280562878
 11
50.35027440633223
 21
-65.03713280562879
  0
ENDBLK
  5
98
330
96
100
AcDbEntity
  8
0
100
AcDbBlockEnd
  0
BLOCK
  5
9A
330
99
100
AcDbEntity
  8
0
100
AcDbBlockBegin
  2
case-v2-l1-2
 70
    0
 10
0
 20
0
  3
case-v2-l1-2
  1

  0
LWPOLYLINE
  5
19A
100
AcDbEntity
  8
0
  6
ByLayer
 62
  256
370
   -1
100
AcDbPolyline
 90
   25
 70
    0
 43
0
 10
19.03504003317124
 20
50.05314403936794
 10
19.03504003317124
 20
47.67189403936797
 10
38.08504003317125
 20
47.67189403936797
 10
38.08504003317125
 20
45.79077003936789
 10
57.13478603317128
 20
45.79077003936789
 10
57.13478603317128
 20
36.26577003936788
 10
76.18478603317129
 20
36.26577003936788
 10
76.18478603317129
 20
-19.79660196063207
 10
83.52868803317122
 20
-24.25912796063216
 10
59.41621403317129
 20
-65.9839619606322
 10
41.26004003317121
 20
-55.51535196063213
 10
41.26004003317121
 20
-53.92785196063215
 10
24.5912900331713
 20
-49.16535196063222
 10
12.68504003317133
 20
-45.59665196063222
 10
-0.0149599668286271
 20
-45.59665196063222
 10
-0.0149599668286271
 20
-48.37160196063209
 10
-19.85870996682863
 20
-48.37160196063209
 10
-19.85870996682863
 20
-33.59032596063216
 10
-62.52105796682869
 20
-33.59032596063216
 10
-62.52105796682869
 20
43.20327203936785
 10
-19.85870996682863
 20
43.20327203936785
 10
-19.85870996682863
 20
47.67189403936797
 10
-0.8087099668287578
 20
47.67189403936797
 10
-0.8087099668287578
 20
50.15322003936788
 10
19.03504003317124
 20
50.15322003936788
  0
LWPOLYLINE
  5
19B
100
AcDbEntity
  8
0
  6
ByLayer
 62
  256
370
   -1
100
AcDbPolyline
 90
   14
 70
    1
 43
0
 10
-41.76620996682871
 20
59.57814403936794
 10
-57.16495996682866
 20
59.57814403936794
 10
-71.4524599668286
 20
45.29064403936786
 10
-71.4524599668286
 20
-32.02035196063207
 10
-57.95870996682865
 20
-44.40285196063215
 10
-20.65245996682876
 20
-55.51535196063213
 10
3.953790033171174
 20
-55.51535196063213
 10
52.37228603317135
 20
-70.5966019606322
 10
69.83478603317124
 20
-64.24660196063215
 10
92.85353603317134
 20
-33.29035196063217
 10
86.50353603317129
 20
-16.78035196063206
 10
82.53478603317134
 20
46.87814403936784
 10
69.99353603317132
 20
59.57814403936794
 10
-41.76620996682871
 20
59.57814403936794
  0
ARC
  5
19C
100
AcDbEntity
  8
0
  6
ByLayer
 62
  256
370
   -1
100
AcDbCircle
 10
61.89729032577858
 20
56.08234203936775
 40
1.27
100
AcDbArc
 50
0.1489691945702162
 51
359.8510308054244
  0
ARC
  5
19D
100
AcDbEntity
  8
0
  6
ByLayer
 62
  256
370
   -1
100
AcDbCircle
 10
-67.64245567422151
 20
40.84234203936788
 40
1.27
100
AcDbArc
 50
0.1489691945702162
 51
359.8510308054244
  0
ARC
  5
19E
100
AcDbEntity
  8
0
  6
ByLayer
 62
  256
370
   -1
100
AcDbCircle
 10
33.00504432577853
 20
-58.2174039606322
 40
1.27
100
AcDbArc
 50
0.1489691945702162
 51
359.8510308054244
  0
ARC
  5
19F
100
AcDbEntity
  8
0
  6
ByLayer
 62
  256
370
   -1
100
AcDbCircle
 10
-46.52870567422141
 20
-43.13615396063213
 40
1.27
100
AcDbArc
 50
0.1489691945702162
 51
359.8510308054244
  0
ARC
  5
1A0
100
AcDbEntity
  8
0
  6
ByLayer
 62
  256
370
   -1
100
AcDbCircle
 10
81.10604032577854
 20
-14.24365396063209
 40
1.27
100
AcDbArc
 50
0.1489691945702162
 51
359.8510308054244
  0
ENDBLK
  5
9B
330
99
100
AcDbEntity
  8
0
100
AcDbBlockEnd
  0
BLOCK
  5
9D
330
9C
100
AcDbEntity
  8
0
100
AcDbBlockBegin
  2
case-v2-l4-2
 70
    0
 10
0
 20
0
  3
case-v2-l4-2
  1

  0
LWPOLYLINE
  5
1A1
100
AcDbEntity
  8
0
  6
ByLayer
 62
  256
370
   -1
100
AcDbPolyline
 90
   25
 70
    1
 43
0
 10
79.54859959470731
 20
-33.14659543176279
 10
73.19859959470726
 20
-16.63659543176283
 10
69.22984959470718
 20
47.02190056823721
 10
56.6885995947073
 20
59.72190056823717
 10
5.888853594707157
 20
59.72190056823717
 10
5.888853594707157
 20
49.40315056823718
 10
3.348853594707251
 20
46.86315056823727
 10
-11.89114640529276
 20
46.86315056823727
 10
-14.43114640529281
 20
49.40315056823718
 10
-14.43114640529281
 20
59.72190056823717
 10
-38.56114640529277
 20
59.72190056823717
 10
-38.56114640529277
 20
30.35340456823715
 10
-41.10114640529268
 20
27.81340456823725
 10
-65.23114640529279
 20
27.81340456823725
 10
-67.7711464052927
 20
30.35340456823715
 10
-67.7711464052927
 20
59.72190056823717
 10
-70.46989640529269
 20
59.72190056823717
 10
-84.75739640529277
 20
45.43440056823724
 10
-84.75739640529277
 20
-31.87659543176284
 10
-71.26364640529268
 20
-44.25909543176277
 10
-33.95739640529278
 20
-55.37159543176276
 10
-9.351146405292852
 20
-55.37159543176276
 10
39.06734959470732
 20
-70.45284543176282
 10
56.52984959470722
 20
-64.10284543176277
 10
79.54859959470731
 20
-33.14659543176279
  0
ARC
  5
1A2
100
AcDbEntity
  8
0
  6
ByLayer
 62
  256
370
   -1
100
AcDbCircle
 10
-80.94739211268553
 20
40.98609856823725
 40
1.27
100
AcDbArc
 50
0.1489691945702162
 51
359.8510308054244
  0
ARC
  5
1A3
100
AcDbEntity
  8
0
  6
ByLayer
 62
  256
370
   -1
100
AcDbCircle
 10
48.59235388731456
 20
56.22609856823726
 40
1.27
100
AcDbArc
 50
0.1489691945702162
 51
359.8510308054244
  0
ARC
  5
1A4
100
AcDbEntity
  8
0
  6
ByLayer
 62
  256
370
   -1
100
AcDbCircle
 10
67.80110388731451
 20
-14.09989743176286
 40
1.27
100
AcDbArc
 50
0.1489691945702162
 51
359.8510308054244
  0
ARC
  5
1A5
100
AcDbEntity
  8
0
  6
ByLayer
 62
  256
370
   -1
100
AcDbCircle
 10
19.7001078873145
 20
-58.07364743176268
 40
1.27
100
AcDbArc
 50
0.1489691945702162
 51
359.8510308054244
  0
ARC
  5
1A6
100
AcDbEntity
  8
0
  6
ByLayer
 62
  256
370
   -1
100
AcDbCircle
 10
-59.83364211268544
 20
-42.99239743176275
 40
1.27
100
AcDbArc
 50
0.1489691945702162
 51
359.8510308054244
  0
ENDBLK
  5
9E
330
9C
100
AcDbEntity
  8
0
100
AcDbBlockEnd
  0
BLOCK
  5
A0
330
9F
100
AcDbEntity
  8
0
100
AcDbBlockBegin
  2
case-v2-l3-4
 70
    0
 10
0
 20
0
  3
case-v2-l3-4
  1

  0
LWPOLYLINE
  5
1A7
100
AcDbEntity
  8
0
  6
ByLayer
 62
  256
370
   -1
100
AcDbPolyline
 90
   17
 70
    1
 43
0
 10
71.60592162852896
 20
-23.49844841587787
 10
79.54342162852896
 20
-27.62594841587792
 10
55.41342162852885
 20
-68.90094841587802
 10
28.58492562852877
 20
-55.40719841587793
 10
7.312425628528736
 20
-49.85094841587829
 10
-2.212574371470879
 20
-49.85094841587829
 10
-4.593824371471271
 20
-52.23219841587819
 10
-25.23132437147108
 20
-52.23219841587819
 10
-38.72507437147164
 20
-42.70719841587811
 10
-62.53757437147161
 20
-42.70719841587811
 10
-68.09382437147126
 20
-37.15094841587801
 10
-68.09382437147126
 20
42.22379758412195
 10
-62.0930743714711
 20
48.57379758412186
 10
14.61492562852854
 20
48.57379758412186
 10
68.43092162852881
 20
48.57379758412186
 10
71.60592162852896
 20
43.81129758412203
 10
71.60592162852896
 20
-23.49844841587787
  0
LWPOLYLINE
  5
1A8
100
AcDbEntity
  8
0
  6
ByLayer
 62
  256
370
   -1
100
AcDbPolyline
 90
   14
 70
    1
 43
0
 10
14.61492562852854
 20
55.71754758412204
 10
-61.74382437147088
 20
55.71754758412204
 10
-76.03132437147127
 20
41.43004758412212
 10
-76.03132437147127
 20
-35.88094841587802
 10
-62.53757437147161
 20
-48.26344841587821
 10
-25.23132437147108
 20
-59.37594841587794
 10
-0.625074371471257
 20
-59.37594841587794
 10
47.79342162852899
 20
-74.45719841587811
 10
65.2559216285286
 20
-68.1071984158782
 10
88.27467162852881
 20
-37.15094841587801
 10
81.92467162852843
 20
-20.64094841587826
 10
77.95592162852842
 20
43.01754758412176
 10
65.41467162852913
 20
55.71754758412204
 10
14.61492562852854
 20
55.71754758412204
  0
LWPOLYLINE
  5
1A9
100
AcDbEntity
  8
0
  6
ByLayer
 62
  256
370
   -1
100
AcDbPolyline
 90
    2
 70
    0
 43
0
 10
70.87567162852847
 20
-79.06094841587786
 10
71.00267162852887
 20
-79.06094841587786
  0
ARC
  5
1AA
100
AcDbEntity
  8
0
  6
ByLayer
 62
  256
370
   -1
100
AcDbCircle
 10
57.31842292618836
 20
52.22288858412208
 40
1.796034
100
AcDbArc
 50
0.06887487528329225
 51
359.9311251247115
  0
ARC
  5
1AB
100
AcDbEntity
  8
0
  6
ByLayer
 62
  256
370
   -1
100
AcDbCircle
 10
-72.22132307381109
 20
36.98288858412185
 40
1.796034
100
AcDbArc
 50
0.06887487528329225
 51
359.9311251247115
  0
ARC
  5
1AC
100
AcDbEntity
  8
0
  6
ByLayer
 62
  256
370
   -1
100
AcDbCircle
 10
-51.10757307381157
 20
-46.99560741587787
 40
1.796034
100
AcDbArc
 50
0.06887487528329225
 51
359.9311251247088
  0
ARC
  5
1AD
100
AcDbEntity
  8
0
  6
ByLayer
 62
  256
370
   -1
100
AcDbCircle
 10
28.42617692618894
 20
-62.07685741587808
 40
1.796034
100
AcDbArc
 50
0.06887487528329225
 51
359.9311251247088
  0
ARC
  5
1AE
100
AcDbEntity
  8
0
  6
ByLayer
 62
  256
370
   -1
100
AcDbCircle
 10
76.5271729261891
 20
-18.10310741587796
 40
1.796034
100
AcDbArc
 50
0.06887487528329225
 51
359.9311251247115
  0
ENDBLK
  5
A1
330
9F
100
AcDbEntity
  8
0
100
AcDbBlockEnd
  0
BLOCK
  5
A3
330
A2
100
AcDbEntity
  8
0
100
AcDbBlockBegin
  2
case-v2-l3-5
 70
    0
 10
0
 20
0
  3
case-v2-l3-5
  1

  0
LWPOLYLINE
  5
1AF
100
AcDbEntity
  8
0
  6
ByLayer
 62
  256
370
   -1
100
AcDbPolyline
 90
   32
 70
    1
 43
0
 10
14.81013107991406
 20
57.85008430081049
 10
14.81013107991406
 20
50.70633430081045
 10
68.62612707991407
 20
50.70633430081045
 10
71.80112707991402
 20
45.94383430081052
 10
71.80112707991402
 20
-21.36591169918944
 10
79.73862707991405
 20
-25.49341169918947
 10
55.60862707991409
 20
-66.76841169918944
 10
28.78013107991397
 20
-53.27466169918949
 10
7.507631079914077
 20
-47.71841169918943
 10
-2.017368920085929
 20
-47.71841169918943
 10
-4.398618920086037
 20
-50.0996616991894
 10
-25.03611892008603
 20
-50.0996616991894
 10
-38.52986892008597
 20
-40.57466169918939
 10
-62.34236892008592
 20
-40.57466169918939
 10
-67.89861892008598
 20
-35.01841169918947
 10
-67.89861892008598
 20
44.35633430081054
 10
-61.89786892008594
 20
50.70633430081045
 10
-58.84986892008594
 20
50.70633430081045
 10
-58.84986892008594
 20
57.85008430081049
 10
-61.54861892008593
 20
57.85008430081049
 10
-75.83611892008601
 20
43.56258430081056
 10
-75.83611892008601
 20
-33.74841169918938
 10
-62.34236892008592
 20
-46.13091169918945
 10
-25.03611892008603
 20
-57.24341169918944
 10
-0.4298689200859513
 20
-57.24341169918944
 10
47.98862707991408
 20
-72.32466169918951
 10
65.45112707991397
 20
-65.97466169918945
 10
88.46987707991407
 20
-35.01841169918947
 10
82.11987707991402
 20
-18.50841169918937
 10
78.15112707991393
 20
45.15008430081053
 10
65.60987707991406
 20
57.85008430081049
 10
14.81013107991406
 20
57.85008430081049
  0
ARC
  5
1B0
100
AcDbEntity
  8
0
  6
ByLayer
 62
  256
370
   -1
100
AcDbCircle
 10
57.51362837757388
 20
54.35542530081051
 40
1.796034
100
AcDbArc
 50
0.06887487528329225
 51
359.9311251247115
  0
ARC
  5
1B1
100
AcDbEntity
  8
0
  6
ByLayer
 62
  256
370
   -1
100
AcDbCircle
 10
-72.02611762242607
 20
39.1154253008105
 40
1.796034
100
AcDbArc
 50
0.06887487528329225
 51
359.9311251247115
  0
ARC
  5
1B2
100
AcDbEntity
  8
0
  6
ByLayer
 62
  256
370
   -1
100
AcDbCircle
 10
-50.91236762242612
 20
-44.86307069918951
 40
1.796034
100
AcDbArc
 50
0.06887487528329225
 51
359.9311251247088
  0
ARC
  5
1B3
100
AcDbEntity
  8
0
  6
ByLayer
 62
  256
370
   -1
100
AcDbCircle
 10
28.62138237757397
 20
-59.94432069918943
 40
1.796034
100
AcDbArc
 50
0.06887487528329225
 51
359.9311251247088
  0
ARC
  5
1B4
100
AcDbEntity
  8
0
  6
ByLayer
 62
  256
370
   -1
100
AcDbCircle
 10
76.72237837757383
 20
-15.97057069918947
 40
1.796034
100
AcDbArc
 50
0.06887487528329225
 51
359.9311251247115
  0
ENDBLK
  5
A4
330
A2
100
AcDbEntity
  8
0
100
AcDbBlockEnd
  0
BLOCK
  5
A6
330
A5
100
AcDbEntity
  8
0
100
AcDbBlockBegin
  2
redox_rev1_case_v2_l1-Edge_Cuts-0
 70
    0
 10
0
 20
0
  3
redox_rev1_case_v2_l1-Edge_Cuts-0
  1

  0
CIRCLE
  5
1B5
100
AcDbEntity
  8
BLACK
  6
ByLayer
 62
  256
370
   -1
100
AcDbCircle
 10
70.51727611408185
 20
149.8931692549642
 40
1.79605
  0
CIRCLE
  5
1B6
100
AcDbEntity
  8
BLACK
  6
ByLayer
 62
  256
370
   -1
100
AcDbCircle
 10
89.72527611408182
 20
79.56696925496418
 40
1.79605
  0
CIRCLE
  5
1B7
100
AcDbEntity
  8
BLACK
  6
ByLayer
 62
  256
370
   -1
100
AcDbCircle
 10
41.62427611408182
 20
35.59296925496418
 40
1.79605
  0
CIRCLE
  5
1B8
100
AcDbEntity
  8
BLACK
  6
ByLayer
 62
  256
370
   -1
100
AcDbCircle
 10
-37.90972388591817
 20
50.67496925496418
 40
1.79605
  0
CIRCLE
  5
1B9
100
AcDbEntity
  8
BLACK
  6
ByLayer
 62
  256
370
   -1
100
AcDbCircle
 10
-59.02272388591817
 20
134.6532692549642
 40
1.79605
  0
LINE
  5
1BA
100
AcDbEntity
  8
BLACK
  6
CONTINUOUS
 62
  256
370
   -1
100
AcDbLine
 10
7.810276114081855
 20
141.4794692549642
 11
7.810276114081855
 21
143.9607692549642
  0
LINE
  5
1BB
100
AcDbEntity
  8
BLACK
  6
CONTINUOUS
 62
  256
370
   -1
100
AcDbLine
 10
-62.83272388591817
 20
139.0982692549642
 11
-62.83272388591817
 21
61.78696925496418
  0
LINE
  5
1BC
100
AcDbEntity
  8
BLACK
  6
CONTINUOUS
 62
  256
370
   -1
100
AcDbLine
 10
-53.90172388591813
 20
137.0107692549642
 11
-11.23972388591816
 21
137.0107692549642
  0
LINE
  5
1BD
100
AcDbEntity
  8
BLACK
  6
CONTINUOUS
 62
  256
370
   -1
100
AcDbLine
 10
27.65427611408185
 20
143.8607692549642
 11
27.65427611408185
 21
141.4794692549642
  0
LINE
  5
1BE
100
AcDbEntity
  8
BLACK
  6
CONTINUOUS
 62
  256
370
   -1
100
AcDbLine
 10
-11.23972388591816
 20
60.21696925496418
 11
-53.90172388591813
 21
60.21696925496418
  0
LINE
  5
1BF
100
AcDbEntity
  8
BLACK
  6
CONTINUOUS
 62
  256
370
   -1
100
AcDbLine
 10
65.75427611408188
 20
139.5982692549642
 11
65.75427611408188
 21
130.0732692549642
  0
LINE
  5
1C0
100
AcDbEntity
  8
BLACK
  6
CONTINUOUS
 62
  256
370
   -1
100
AcDbLine
 10
-12.03272388591816
 20
38.29196925496417
 11
-49.33972388591818
 21
49.40496925496417
  0
LINE
  5
1C1
100
AcDbEntity
  8
BLACK
  6
CONTINUOUS
 62
  256
370
   -1
100
AcDbLine
 10
33.21027611408184
 20
44.64196925496417
 11
21.30427611408183
 21
48.21096925496418
  0
LINE
  5
1C2
100
AcDbEntity
  8
BLACK
  6
CONTINUOUS
 62
  256
370
   -1
100
AcDbLine
 10
-49.33972388591818
 20
49.40496925496417
 11
-62.83272388591817
 21
61.78696925496418
  0
LINE
  5
1C3
100
AcDbEntity
  8
BLACK
  6
CONTINUOUS
 62
  256
370
   -1
100
AcDbLine
 10
-62.83272388591817
 20
139.0982692549642
 11
-48.54572388591814
 21
153.3856692549642
  0
LINE
  5
1C4
100
AcDbEntity
  8
BLACK
  6
CONTINUOUS
 62
  256
370
   -1
100
AcDbLine
 10
8.604276114081838
 20
45.43596925496418
 11
8.604276114081838
 21
48.21096925496418
  0
LINE
  5
1C5
100
AcDbEntity
  8
BLACK
  6
CONTINUOUS
 62
  256
370
   -1
100
AcDbLine
 10
33.21027611408184
 20
44.64196925496417
 11
49.87927611408188
 21
39.8789692549642
  0
LINE
  5
1C6
100
AcDbEntity
  8
BLACK
  6
CONTINUOUS
 62
  256
370
   -1
100
AcDbLine
 10
27.65427611408185
 20
141.4794692549642
 11
46.70427611408186
 21
141.4794692549642
  0
LINE
  5
1C7
100
AcDbEntity
  8
BLACK
  6
CONTINUOUS
 62
  256
370
   -1
100
AcDbLine
 10
-11.23972388591816
 20
45.43596925496418
 11
8.604276114081838
 21
45.43596925496418
  0
LINE
  5
1C8
100
AcDbEntity
  8
BLACK
  6
CONTINUOUS
 62
  256
370
   -1
100
AcDbLine
 10
-53.90172388591813
 20
60.21696925496418
 11
-53.90172388591813
 21
137.0107692549642
  0
LINE
  5
1C9
100
AcDbEntity
  8
BLACK
  6
CONTINUOUS
 62
  256
370
   -1
100
AcDbLine
 10
7.810276114081855
 20
143.9607692549642
 11
27.65427611408185
 21
143.9607692549642
  0
LINE
  5
1CA
100
AcDbEntity
  8
BLACK
  6
CONTINUOUS
 62
  256
370
   -1
100
AcDbLine
 10
-11.23972388591816
 20
137.0107692549642
 11
-11.23972388591816
 21
141.4794692549642
  0
LINE
  5
1CB
100
AcDbEntity
  8
BLACK
  6
CONTINUOUS
 62
  256
370
   -1
100
AcDbLine
 10
46.70427611408186
 20
139.5982692549642
 11
46.70427611408186
 21
141.4794692549642
  0
LINE
  5
1CC
100
AcDbEntity
  8
BLACK
  6
CONTINUOUS
 62
  256
370
   -1
100
AcDbLine
 10
-11.23972388591816
 20
141.4794692549642
 11
7.810276114081855
 21
141.4794692549642
  0
LINE
  5
1CD
100
AcDbEntity
  8
BLACK
  6
CONTINUOUS
 62
  256
370
   -1
100
AcDbLine
 10
-11.23972388591816
 20
45.43596925496418
 11
-11.23972388591816
 21
60.21696925496418
  0
LINE
  5
1CE
100
AcDbEntity
  8
BLACK
  6
CONTINUOUS
 62
  256
370
   -1
100
AcDbLine
 10
46.70427611408186
 20
139.5982692549642
 11
65.75427611408188
 21
139.5982692549642
  0
LINE
  5
1CF
100
AcDbEntity
  8
BLACK
  6
CONTINUOUS
 62
  256
370
   -1
100
AcDbLine
 10
78.45427611408186
 20
29.56096925496418
 11
60.99227611408187
 21
23.21096925496418
  0
LINE
  5
1D0
100
AcDbEntity
  8
BLACK
  6
CONTINUOUS
 62
  256
370
   -1
100
AcDbLine
 10
60.99227611408187
 20
23.21096925496418
 11
12.57327611408183
 21
38.29196925496417
  0
LINE
  5
1D1
100
AcDbEntity
  8
BLACK
  6
CONTINUOUS
 62
  256
370
   -1
100
AcDbLine
 10
12.57327611408183
 20
38.29196925496417
 11
-12.03272388591816
 21
38.29196925496417
  0
LINE
  5
1D2
100
AcDbEntity
  8
BLACK
  6
CONTINUOUS
 62
  256
370
   -1
100
AcDbLine
 10
8.604276114081838
 20
48.21096925496418
 11
21.30427611408183
 21
48.21096925496418
  0
LINE
  5
1D3
100
AcDbEntity
  8
BLACK
  6
CONTINUOUS
 62
  256
370
   -1
100
AcDbLine
 10
95.12327611408185
 20
77.02696925496419
 11
101.4732761140819
 21
60.51696925496417
  0
LINE
  5
1D4
100
AcDbEntity
  8
BLACK
  6
CONTINUOUS
 62
  256
370
   -1
100
AcDbLine
 10
101.4732761140819
 20
60.51696925496417
 11
78.45427611408186
 21
29.56096925496418
  0
LINE
  5
1D5
100
AcDbEntity
  8
BLACK
  6
CONTINUOUS
 62
  256
370
   -1
100
AcDbLine
 10
91.15427611408185
 20
140.6857692549642
 11
95.12327611408185
 21
77.02696925496419
  0
LINE
  5
1D6
100
AcDbEntity
  8
BLACK
  6
CONTINUOUS
 62
  256
370
   -1
100
AcDbLine
 10
78.61327611408186
 20
153.3856692549642
 11
91.15427611408185
 21
140.6857692549642
  0
LINE
  5
1D7
100
AcDbEntity
  8
BLACK
  6
CONTINUOUS
 62
  256
370
   -1
100
AcDbLine
 10
-48.54572388591814
 20
153.3856692549642
 11
-33.14672388591814
 21
153.3856692549642
  0
LINE
  5
1D8
100
AcDbEntity
  8
BLACK
  6
CONTINUOUS
 62
  256
370
   -1
100
AcDbLine
 10
-33.14672388591814
 20
153.3856692549642
 11
78.61327611408186
 21
153.3856692549642
  0
LINE
  5
1D9
100
AcDbEntity
  8
BLACK
  6
CONTINUOUS
 62
  256
370
   -1
100
AcDbLine
 10
68.03527611408182
 20
27.82296925496418
 11
49.87927611408188
 21
38.29196925496417
  0
LINE
  5
1DA
100
AcDbEntity
  8
BLACK
  6
CONTINUOUS
 62
  256
370
   -1
100
AcDbLine
 10
49.87927611408188
 20
38.29196925496417
 11
49.87927611408188
 21
39.8789692549642
  0
LINE
  5
1DB
100
AcDbEntity
  8
BLACK
  6
CONTINUOUS
 62
  256
370
   -1
100
AcDbLine
 10
65.75427611408188
 20
130.0732692549642
 11
84.80427611408183
 21
130.0732692549642
  0
LINE
  5
1DC
100
AcDbEntity
  8
BLACK
  6
CONTINUOUS
 62
  256
370
   -1
100
AcDbLine
 10
84.80427611408183
 20
130.0732692549642
 11
84.80427611408183
 21
74.01096925496418
  0
LINE
  5
1DD
100
AcDbEntity
  8
BLACK
  6
CONTINUOUS
 62
  256
370
   -1
100
AcDbLine
 10
84.80427611408183
 20
74.01096925496418
 11
92.14827611408182
 21
69.54796925496419
  0
LINE
  5
1DE
100
AcDbEntity
  8
BLACK
  6
CONTINUOUS
 62
  256
370
   -1
100
AcDbLine
 10
92.14827611408182
 20
69.54796925496419
 11
68.03527611408182
 21
27.82296925496418
  0
ENDBLK
  5
A7
330
A5
100
AcDbEntity
  8
0
100
AcDbBlockEnd
  0
BLOCK
  5
A9
330
A8
100
AcDbEntity
  8
0
100
AcDbBlockBegin
  2
case-v2-l1-3
 70
    0
 10
0
 20
0
  3
case-v2-l1-3
  1

  0
LWPOLYLINE
  5
1DF
100
AcDbEntity
  8
0
  6
ByLayer
 62
  256
370
   -1
100
AcDbPolyline
 90
   25
 70
    0
 43
0
 10
-260.6638208434188
 20
142.9882288034745
 10
-260.6638208434188
 20
140.6069788034746
 10
-241.6138208434188
 20
140.6069788034746
 10
-241.6138208434188
 20
138.7258548034745
 10
-222.5640748434188
 20
138.7258548034745
 10
-222.5640748434188
 20
129.2008548034745
 10
-203.5140748434188
 20
129.2008548034745
 10
-203.5140748434188
 20
73.13848280347452
 10
-196.1701728434188
 20
68.67595680347443
 10
-220.2826468434188
 20
26.95112280347439
 10
-238.4388208434189
 20
37.41973280347446
 10
-238.4388208434189
 20
39.00723280347444
 10
-255.1075708434188
 20
43.76973280347437
 10
-267.0138208434187
 20
47.33843280347438
 10
-279.7138208434187
 20
47.33843280347438
 10
-279.7138208434187
 20
44.5634828034745
 10
-299.5575708434187
 20
44.5634828034745
 10
-299.5575708434187
 20
59.34475880347443
 10
-342.2199188434188
 20
59.34475880347443
 10
-342.2199188434188
 20
136.1383568034744
 10
-299.5575708434187
 20
136.1383568034744
 10
-299.5575708434187
 20
140.6069788034746
 10
-280.5075708434188
 20
140.6069788034746
 10
-280.5075708434188
 20
143.0883048034745
 10
-260.6638208434188
 20
143.0883048034745
  0
LWPOLYLINE
  5
1E0
100
AcDbEntity
  8
0
  6
ByLayer
 62
  256
370
   -1
100
AcDbPolyline
 90
   14
 70
    1
 43
0
 10
-321.4650708434187
 20
152.5132288034745
 10
-336.8638208434187
 20
152.5132288034745
 10
-351.1513208434187
 20
138.2257288034745
 10
-351.1513208434187
 20
60.91473280347452
 10
-337.6575708434187
 20
48.53223280347444
 10
-300.3513208434188
 20
37.41973280347446
 10
-275.7450708434189
 20
37.41973280347446
 10
-227.3265748434187
 20
22.33848280347439
 10
-209.8640748434188
 20
28.68848280347444
 10
-186.8453248434187
 20
59.64473280347443
 10
-193.1953248434188
 20
76.15473280347453
 10
-197.1640748434187
 20
139.8132288034744
 10
-209.7053248434187
 20
152.5132288034745
 10
-321.4650708434187
 20
152.5132288034745
  0
ARC
  5
1E1
100
AcDbEntity
  8
0
  6
ByLayer
 62
  256
370
   -1
100
AcDbCircle
 10
-217.8015705508115
 20
149.0174268034743
 40
1.27
100
AcDbArc
 50
0.1489691945702162
 51
359.8510308054244
  0
ARC
  5
1E2
100
AcDbEntity
  8
0
  6
ByLayer
 62
  256
370
   -1
100
AcDbCircle
 10
-347.3413165508116
 20
133.7774268034745
 40
1.27
100
AcDbArc
 50
0.1489691945702162
 51
359.8510308054244
  0
ARC
  5
1E3
100
AcDbEntity
  8
0
  6
ByLayer
 62
  256
370
   -1
100
AcDbCircle
 10
-246.6938165508115
 20
34.71768080347439
 40
1.27
100
AcDbArc
 50
0.1489691945702162
 51
359.8510308054244
  0
ARC
  5
1E4
100
AcDbEntity
  8
0
  6
ByLayer
 62
  256
370
   -1
100
AcDbCircle
 10
-326.2275665508115
 20
49.79893080347446
 40
1.27
100
AcDbArc
 50
0.1489691945702162
 51
359.8510308054244
  0
ARC
  5
1E5
100
AcDbEntity
  8
0
  6
ByLayer
 62
  256
370
   -1
100
AcDbCircle
 10
-198.5928205508115
 20
78.6914308034745
 40
1.27
100
AcDbArc
 50
0.1489691945702162
 51
359.8510308054244
  0
ENDBLK
  5
AA
330
A8
100
AcDbEntity
  8
0
100
AcDbBlockEnd
  0
BLOCK
  5
AC
330
AB
100
AcDbEntity
  8
0
100
AcDbBlockBegin
  2
case-v2-l4-3
 70
    0
 10
0
 20
0
  3
case-v2-l4-3
  1

  0
LWPOLYLINE
  5
1E6
100
AcDbEntity
  8
0
  6
ByLayer
 62
  256
370
   -1
100
AcDbPolyline
 90
   25
 70
    1
 43
0
 10
-193.0014086077207
 20
-111.7839748475453
 10
-199.3514086077207
 20
-95.27397484754533
 10
-203.3201586077208
 20
-31.61547884754529
 10
-215.8614086077207
 20
-18.91547884754533
 10
-266.6611546077208
 20
-18.91547884754533
 10
-266.6611546077208
 20
-29.23422884754532
 10
-269.2011546077208
 20
-31.77422884754523
 10
-284.4411546077208
 20
-31.77422884754523
 10
-286.9811546077208
 20
-29.23422884754532
 10
-286.9811546077208
 20
-18.91547884754533
 10
-311.1111546077208
 20
-18.91547884754533
 10
-311.1111546077208
 20
-48.28397484754535
 10
-313.6511546077207
 20
-50.82397484754526
 10
-337.7811546077208
 20
-50.82397484754526
 10
-340.3211546077207
 20
-48.28397484754535
 10
-340.3211546077207
 20
-18.91547884754533
 10
-343.0199046077207
 20
-18.91547884754533
 10
-357.3074046077207
 20
-33.20297884754527
 10
-357.3074046077207
 20
-110.5139748475453
 10
-343.8136546077207
 20
-122.8964748475453
 10
-306.5074046077208
 20
-134.0089748475453
 10
-281.9011546077209
 20
-134.0089748475453
 10
-233.4826586077207
 20
-149.0902248475453
 10
-216.0201586077208
 20
-142.7402248475453
 10
-193.0014086077207
 20
-111.7839748475453
  0
ARC
  5
1E7
100
AcDbEntity
  8
0
  6
ByLayer
 62
  256
370
   -1
100
AcDbCircle
 10
-353.4974003151135
 20
-37.65128084754525
 40
1.27
100
AcDbArc
 50
0.1489691945702162
 51
359.8510308054244
  0
ARC
  5
1E8
100
AcDbEntity
  8
0
  6
ByLayer
 62
  256
370
   -1
100
AcDbCircle
 10
-223.9576543151134
 20
-22.41128084754524
 40
1.27
100
AcDbArc
 50
0.1489691945702162
 51
359.8510308054244
  0
ARC
  5
1E9
100
AcDbEntity
  8
0
  6
ByLayer
 62
  256
370
   -1
100
AcDbCircle
 10
-204.7489043151135
 20
-92.73727684754536
 40
1.27
100
AcDbArc
 50
0.1489691945702162
 51
359.8510308054244
  0
ARC
  5
1EA
100
AcDbEntity
  8
0
  6
ByLayer
 62
  256
370
   -1
100
AcDbCircle
 10
-252.8499003151135
 20
-136.7110268475452
 40
1.27
100
AcDbArc
 50
0.1489691945702162
 51
359.8510308054244
  0
ARC
  5
1EB
100
AcDbEntity
  8
0
  6
ByLayer
 62
  256
370
   -1
100
AcDbCircle
 10
-332.3836503151134
 20
-121.6297768475453
 40
1.27
100
AcDbArc
 50
0.1489691945702162
 51
359.8510308054244
  0
ENDBLK
  5
AD
330
AB
100
AcDbEntity
  8
0
100
AcDbBlockEnd
  0
BLOCK
  5
AF
330
AE
100
AcDbEntity
  8
0
100
AcDbBlockBegin
  2
case-v2-l3-6
 70
    0
 10
0
 20
0
  3
case-v2-l3-6
  1

  0
LWPOLYLINE
  5
1EC
100
AcDbEntity
  8
0
  6
ByLayer
 62
  256
370
   -1
100
AcDbPolyline
 90
   17
 70
    1
 43
0
 10
79.64838088696126
 20
-95.88058174176859
 10
87.58588088696126
 20
-100.0080817417686
 10
63.45588088696115
 20
-141.2830817417687
 10
36.62738488696107
 20
-127.7893317417686
 10
15.35488488696104
 20
-122.233081741769
 10
5.829884886961423
 20
-122.233081741769
 10
3.448634886961031
 20
-124.6143317417689
 10
-17.18886511303878
 20
-124.6143317417689
 10
-30.68261511303933
 20
-115.0893317417688
 10
-54.49511511303931
 20
-115.0893317417688
 10
-60.05136511303895
 20
-109.5330817417687
 10
-60.05136511303895
 20
-30.15833574176877
 10
-54.0506151130388
 20
-23.80833574176886
 10
22.65738488696084
 20
-23.80833574176886
 10
76.47338088696111
 20
-23.80833574176886
 10
79.64838088696126
 20
-28.57083574176869
 10
79.64838088696126
 20
-95.88058174176859
  0
LWPOLYLINE
  5
1ED
100
AcDbEntity
  8
0
  6
ByLayer
 62
  256
370
   -1
100
AcDbPolyline
 90
   14
 70
    1
 43
0
 10
22.65738488696084
 20
-16.66458574176868
 10
-53.70136511303858
 20
-16.66458574176868
 10
-67.98886511303897
 20
-30.9520857417686
 10
-67.98886511303897
 20
-108.2630817417687
 10
-54.49511511303931
 20
-120.6455817417689
 10
-17.18886511303878
 20
-131.7580817417686
 10
7.417384886961045
 20
-131.7580817417686
 10
55.83588088696129
 20
-146.8393317417688
 10
73.2983808869609
 20
-140.4893317417689
 10
96.31713088696111
 20
-109.5330817417687
 10
89.96713088696073
 20
-93.02308174176898
 10
85.99838088696072
 20
-29.36458574176896
 10
73.45713088696144
 20
-16.66458574176868
 10
22.65738488696084
 20
-16.66458574176868
  0
LWPOLYLINE
  5
1EE
100
AcDbEntity
  8
0
  6
ByLayer
 62
  256
370
   -1
100
AcDbPolyline
 90
    2
 70
    0
 43
0
 10
78.91813088696077
 20
-151.4430817417686
 10
79.04513088696118
 20
-151.4430817417686
  0
ARC
  5
1EF
100
AcDbEntity
  8
0
  6
ByLayer
 62
  256
370
   -1
100
AcDbCircle
 10
65.36088218462066
 20
-20.15924474176864
 40
1.796034
100
AcDbArc
 50
0.06887487528329225
 51
359.9311251247115
  0
ARC
  5
1F0
100
AcDbEntity
  8
0
  6
ByLayer
 62
  256
370
   -1
100
AcDbCircle
 10
-64.17886381537879
 20
-35.39924474176888
 40
1.796034
100
AcDbArc
 50
0.06887487528329225
 51
359.9311251247115
  0
ARC
  5
1F1
100
AcDbEntity
  8
0
  6
ByLayer
 62
  256
370
   -1
100
AcDbCircle
 10
-43.06511381537926
 20
-119.3777407417686
 40
1.796034
100
AcDbArc
 50
0.06887487528329225
 51
359.9311251247088
  0
ARC
  5
1F2
100
AcDbEntity
  8
0
  6
ByLayer
 62
  256
370
   -1
100
AcDbCircle
 10
36.46863618462125
 20
-134.4589907417688
 40
1.796034
100
AcDbArc
 50
0.06887487528329225
 51
359.9311251247088
  0
ARC
  5
1F3
100
AcDbEntity
  8
0
  6
ByLayer
 62
  256
370
   -1
100
AcDbCircle
 10
84.5696321846214
 20
-90.48524074176868
 40
1.796034
100
AcDbArc
 50
0.06887487528329225
 51
359.9311251247115
  0
ENDBLK
  5
B0
330
AE
100
AcDbEntity
  8
0
100
AcDbBlockEnd
  0
BLOCK
  5
B2
330
B1
100
AcDbEntity
  8
0
100
AcDbBlockBegin
  2
case-v2-l3-7
 70
    0
 10
0
 20
0
  3
case-v2-l3-7
  1

  0
LWPOLYLINE
  5
1F4
100
AcDbEntity
  8
0
  6
ByLayer
 62
  256
370
   -1
100
AcDbPolyline
 90
   32
 70
    1
 43
0
 10
283.7857129452611
 20
-15.42565560935047
 10
283.7857129452611
 20
-22.56940560935051
 10
337.6017089452611
 20
-22.56940560935051
 10
340.776708945261
 20
-27.33190560935044
 10
340.776708945261
 20
-94.6416516093504
 10
348.7142089452611
 20
-98.76915160935043
 10
324.5842089452611
 20
-140.0441516093504
 10
297.755712945261
 20
-126.5504016093505
 10
276.4832129452611
 20
-120.9941516093504
 10
266.9582129452611
 20
-120.9941516093504
 10
264.576962945261
 20
-123.3754016093504
 10
243.939462945261
 20
-123.3754016093504
 10
230.4457129452611
 20
-113.8504016093504
 10
206.6332129452611
 20
-113.8504016093504
 10
201.076962945261
 20
-108.2941516093504
 10
201.076962945261
 20
-28.91940560935042
 10
207.0777129452611
 20
-22.56940560935051
 10
210.1257129452611
 20
-22.56940560935051
 10
210.1257129452611
 20
-15.42565560935047
 10
207.4269629452611
 20
-15.42565560935047
 10
193.139462945261
 20
-29.71315560935041
 10
193.139462945261
 20
-107.0241516093503
 10
206.6332129452611
 20
-119.4066516093504
 10
243.939462945261
 20
-130.5191516093504
 10
268.5457129452611
 20
-130.5191516093504
 10
316.9642089452611
 20
-145.6004016093505
 10
334.426708945261
 20
-139.2504016093504
 10
357.4454589452611
 20
-108.2941516093504
 10
351.095458945261
 20
-91.78415160935033
 10
347.1267089452609
 20
-28.12565560935043
 10
334.5854589452611
 20
-15.42565560935047
 10
283.7857129452611
 20
-15.42565560935047
  0
ARC
  5
1F5
100
AcDbEntity
  8
0
  6
ByLayer
 62
  256
370
   -1
100
AcDbCircle
 10
326.4892102429209
 20
-18.92031460935046
 40
1.796034
100
AcDbArc
 50
0.06887487528329225
 51
359.9311251247115
  0
ARC
  5
1F6
100
AcDbEntity
  8
0
  6
ByLayer
 62
  256
370
   -1
100
AcDbCircle
 10
196.949464242921
 20
-34.16031460935046
 40
1.796034
100
AcDbArc
 50
0.06887487528329225
 51
359.9311251247115
  0
ARC
  5
1F7
100
AcDbEntity
  8
0
  6
ByLayer
 62
  256
370
   -1
100
AcDbCircle
 10
218.0632142429209
 20
-118.1388106093505
 40
1.796034
100
AcDbArc
 50
0.06887487528329225
 51
359.9311251247088
  0
ARC
  5
1F8
100
AcDbEntity
  8
0
  6
ByLayer
 62
  256
370
   -1
100
AcDbCircle
 10
297.596964242921
 20
-133.2200606093504
 40
1.796034
100
AcDbArc
 50
0.06887487528329225
 51
359.9311251247088
  0
ARC
  5
1F9
100
AcDbEntity
  8
0
  6
ByLayer
 62
  256
370
   -1
100
AcDbCircle
 10
345.6979602429208
 20
-89.24631060935043
 40
1.796034
100
AcDbArc
 50
0.06887487528329225
 51
359.9311251247115
  0
ENDBLK
  5
B3
330
B1
100
AcDbEntity
  8
0
100
AcDbBlockEnd
  0
BLOCK
  5
B5
330
B4
100
AcDbEntity
  8
0
100
AcDbBlockBegin
  2
redox_rev1_case_v2_l1-Edge_Cuts-1
 70
    0
 10
0
 20
0
  3
redox_rev1_case_v2_l1-Edge_Cuts-1
  1

  0
CIRCLE
  5
1FA
100
AcDbEntity
  8
BLACK
  6
ByLayer
 62
  256
370
   -1
100
AcDbCircle
 10
62.21201778014095
 20
52.87569770015605
 40
1.79605
  0
CIRCLE
  5
1FB
100
AcDbEntity
  8
BLACK
  6
ByLayer
 62
  256
370
   -1
100
AcDbCircle
 10
81.42001778014092
 20
-17.45050229984393
 40
1.79605
  0
CIRCLE
  5
1FC
100
AcDbEntity
  8
BLACK
  6
ByLayer
 62
  256
370
   -1
100
AcDbCircle
 10
33.31901778014092
 20
-61.42450229984393
 40
1.79605
  0
CIRCLE
  5
1FD
100
AcDbEntity
  8
BLACK
  6
ByLayer
 62
  256
370
   -1
100
AcDbCircle
 10
-46.21498221985907
 20
-46.34250229984393
 40
1.79605
  0
CIRCLE
  5
1FE
100
AcDbEntity
  8
BLACK
  6
ByLayer
 62
  256
370
   -1
100
AcDbCircle
 10
-67.32798221985907
 20
37.63579770015608
 40
1.79605
  0
LINE
  5
1FF
100
AcDbEntity
  8
BLACK
  6
CONTINUOUS
 62
  256
370
   -1
100
AcDbLine
 10
-0.4949822198590415
 20
44.46199770015605
 11
-0.4949822198590415
 21
46.94329770015608
  0
LINE
  5
200
100
AcDbEntity
  8
BLACK
  6
CONTINUOUS
 62
  256
370
   -1
100
AcDbLine
 10
-71.13798221985907
 20
42.08079770015607
 11
-71.13798221985907
 21
-35.23050229984393
  0
LINE
  5
201
100
AcDbEntity
  8
BLACK
  6
CONTINUOUS
 62
  256
370
   -1
100
AcDbLine
 10
-62.20698221985903
 20
39.99329770015609
 11
-19.54498221985905
 21
39.99329770015609
  0
LINE
  5
202
100
AcDbEntity
  8
BLACK
  6
CONTINUOUS
 62
  256
370
   -1
100
AcDbLine
 10
19.34901778014095
 20
46.84329770015606
 11
19.34901778014095
 21
44.46199770015605
  0
LINE
  5
203
100
AcDbEntity
  8
BLACK
  6
CONTINUOUS
 62
  256
370
   -1
100
AcDbLine
 10
-19.54498221985905
 20
-36.80050229984393
 11
-62.20698221985903
 21
-36.80050229984393
  0
LINE
  5
204
100
AcDbEntity
  8
BLACK
  6
CONTINUOUS
 62
  256
370
   -1
100
AcDbLine
 10
57.44901778014098
 20
42.58079770015607
 11
57.44901778014098
 21
33.05579770015606
  0
LINE
  5
205
100
AcDbEntity
  8
BLACK
  6
CONTINUOUS
 62
  256
370
   -1
100
AcDbLine
 10
-20.33798221985906
 20
-58.72550229984394
 11
-57.64498221985907
 21
-47.61250229984394
  0
LINE
  5
206
100
AcDbEntity
  8
BLACK
  6
CONTINUOUS
 62
  256
370
   -1
100
AcDbLine
 10
24.90501778014094
 20
-52.37550229984394
 11
12.99901778014093
 21
-48.80650229984393
  0
LINE
  5
207
100
AcDbEntity
  8
BLACK
  6
CONTINUOUS
 62
  256
370
   -1
100
AcDbLine
 10
-57.64498221985907
 20
-47.61250229984394
 11
-71.13798221985907
 21
-35.23050229984393
  0
LINE
  5
208
100
AcDbEntity
  8
BLACK
  6
CONTINUOUS
 62
  256
370
   -1
100
AcDbLine
 10
-71.13798221985907
 20
42.08079770015607
 11
-56.85098221985903
 21
56.36819770015606
  0
LINE
  5
209
100
AcDbEntity
  8
BLACK
  6
CONTINUOUS
 62
  256
370
   -1
100
AcDbLine
 10
0.2990177801409413
 20
-51.58150229984393
 11
0.2990177801409413
 21
-48.80650229984393
  0
LINE
  5
20A
100
AcDbEntity
  8
BLACK
  6
CONTINUOUS
 62
  256
370
   -1
100
AcDbLine
 10
24.90501778014094
 20
-52.37550229984394
 11
41.57401778014098
 21
-57.13850229984391
  0
LINE
  5
20B
100
AcDbEntity
  8
BLACK
  6
CONTINUOUS
 62
  256
370
   -1
100
AcDbLine
 10
19.34901778014095
 20
44.46199770015605
 11
38.39901778014097
 21
44.46199770015605
  0
LINE
  5
20C
100
AcDbEntity
  8
BLACK
  6
CONTINUOUS
 62
  256
370
   -1
100
AcDbLine
 10
-19.54498221985905
 20
-51.58150229984393
 11
0.2990177801409413
 21
-51.58150229984393
  0
LINE
  5
20D
100
AcDbEntity
  8
BLACK
  6
CONTINUOUS
 62
  256
370
   -1
100
AcDbLine
 10
-62.20698221985903
 20
-36.80050229984393
 11
-62.20698221985903
 21
39.99329770015609
  0
LINE
  5
20E
100
AcDbEntity
  8
BLACK
  6
CONTINUOUS
 62
  256
370
   -1
100
AcDbLine
 10
-0.4949822198590415
 20
46.94329770015608
 11
19.34901778014095
 21
46.94329770015608
  0
LINE
  5
20F
100
AcDbEntity
  8
BLACK
  6
CONTINUOUS
 62
  256
370
   -1
100
AcDbLine
 10
-19.54498221985905
 20
39.99329770015609
 11
-19.54498221985905
 21
44.46199770015605
  0
LINE
  5
210
100
AcDbEntity
  8
BLACK
  6
CONTINUOUS
 62
  256
370
   -1
100
AcDbLine
 10
38.39901778014097
 20
42.58079770015607
 11
38.39901778014097
 21
44.46199770015605
  0
LINE
  5
211
100
AcDbEntity
  8
BLACK
  6
CONTINUOUS
 62
  256
370
   -1
100
AcDbLine
 10
-19.54498221985905
 20
44.46199770015605
 11
-0.4949822198590415
 21
44.46199770015605
  0
LINE
  5
212
100
AcDbEntity
  8
BLACK
  6
CONTINUOUS
 62
  256
370
   -1
100
AcDbLine
 10
-19.54498221985905
 20
-51.58150229984393
 11
-19.54498221985905
 21
-36.80050229984393
  0
LINE
  5
213
100
AcDbEntity
  8
BLACK
  6
CONTINUOUS
 62
  256
370
   -1
100
AcDbLine
 10
38.39901778014097
 20
42.58079770015607
 11
57.44901778014098
 21
42.58079770015607
  0
LINE
  5
214
100
AcDbEntity
  8
BLACK
  6
CONTINUOUS
 62
  256
370
   -1
100
AcDbLine
 10
70.14901778014097
 20
-67.45650229984393
 11
52.68701778014098
 21
-73.80650229984393
  0
LINE
  5
215
100
AcDbEntity
  8
BLACK
  6
CONTINUOUS
 62
  256
370
   -1
100
AcDbLine
 10
52.68701778014098
 20
-73.80650229984393
 11
4.268017780140935
 21
-58.72550229984394
  0
LINE
  5
216
100
AcDbEntity
  8
BLACK
  6
CONTINUOUS
 62
  256
370
   -1
100
AcDbLine
 10
4.268017780140935
 20
-58.72550229984394
 11
-20.33798221985906
 21
-58.72550229984394
  0
LINE
  5
217
100
AcDbEntity
  8
BLACK
  6
CONTINUOUS
 62
  256
370
   -1
100
AcDbLine
 10
0.2990177801409413
 20
-48.80650229984393
 11
12.99901778014093
 21
-48.80650229984393
  0
LINE
  5
218
100
AcDbEntity
  8
BLACK
  6
CONTINUOUS
 62
  256
370
   -1
100
AcDbLine
 10
86.81801778014095
 20
-19.99050229984393
 11
93.16801778014097
 21
-36.50050229984394
  0
LINE
  5
219
100
AcDbEntity
  8
BLACK
  6
CONTINUOUS
 62
  256
370
   -1
100
AcDbLine
 10
93.16801778014097
 20
-36.50050229984394
 11
70.14901778014097
 21
-67.45650229984393
  0
LINE
  5
21A
100
AcDbEntity
  8
BLACK
  6
CONTINUOUS
 62
  256
370
   -1
100
AcDbLine
 10
82.84901778014095
 20
43.66829770015607
 11
86.81801778014095
 21
-19.99050229984393
  0
LINE
  5
21B
100
AcDbEntity
  8
BLACK
  6
CONTINUOUS
 62
  256
370
   -1
100
AcDbLine
 10
70.30801778014096
 20
56.36819770015606
 11
82.84901778014095
 21
43.66829770015607
  0
LINE
  5
21C
100
AcDbEntity
  8
BLACK
  6
CONTINUOUS
 62
  256
370
   -1
100
AcDbLine
 10
-56.85098221985903
 20
56.36819770015606
 11
-41.45198221985903
 21
56.36819770015606
  0
LINE
  5
21D
100
AcDbEntity
  8
BLACK
  6
CONTINUOUS
 62
  256
370
   -1
100
AcDbLine
 10
-41.45198221985903
 20
56.36819770015606
 11
70.30801778014096
 21
56.36819770015606
  0
LINE
  5
21E
100
AcDbEntity
  8
BLACK
  6
CONTINUOUS
 62
  256
370
   -1
100
AcDbLine
 10
59.73001778014093
 20
-69.19450229984393
 11
41.57401778014098
 21
-58.72550229984394
  0
LINE
  5
21F
100
AcDbEntity
  8
BLACK
  6
CONTINUOUS
 62
  256
370
   -1
100
AcDbLine
 10
41.57401778014098
 20
-58.72550229984394
 11
41.57401778014098
 21
-57.13850229984391
  0
LINE
  5
220
100
AcDbEntity
  8
BLACK
  6
CONTINUOUS
 62
  256
370
   -1
100
AcDbLine
 10
57.44901778014098
 20
33.05579770015606
 11
76.49901778014093
 21
33.05579770015606
  0
LINE
  5
221
100
AcDbEntity
  8
BLACK
  6
CONTINUOUS
 62
  256
370
   -1
100
AcDbLine
 10
76.49901778014093
 20
33.05579770015606
 11
76.49901778014093
 21
-23.00650229984393
  0
LINE
  5
222
100
AcDbEntity
  8
BLACK
  6
CONTINUOUS
 62
  256
370
   -1
100
AcDbLine
 10
76.49901778014093
 20
-23.00650229984393
 11
83.84301778014093
 21
-27.46950229984392
  0
LINE
  5
223
100
AcDbEntity
  8
BLACK
  6
CONTINUOUS
 62
  256
370
   -1
100
AcDbLine
 10
83.84301778014093
 20
-27.46950229984392
 11
59.73001778014093
 21
-69.19450229984393
  0
ENDBLK
  5
B6
330
B4
100
AcDbEntity
  8
0
100
AcDbBlockEnd
  0
ENDSEC
  0
SECTION
  2
ENTITIES
  0
INSERT
  5
224
100
AcDbEntity
  8
0
  6
ByLayer
 62
  256
370
   -1
100
AcDbBlockReference
  2
case-v2-l1-3
 10
-0.4468032921351279
 20
21.89336131462127
 30
0
 41
1
 42
1
 43
0
 50
0
 70
    1
 71
    1
 44
0
 45
0
  0
MTEXT
  5
225
100
AcDbEntity
  8
0
  6
ByLayer
 62
  256
370
   -1
100
AcDbMText
 10
-410.2836530453296
 20
125.1981927691539
 30
0
 40
10
 41
24.444444444446
 71
    1
 72
    1
  1
3mm
  7
standard
210
0
220
0
230
1
 50
0
 73
    2
 44
1
  0
INSERT
  5
226
100
AcDbEntity
  8
0
  6
ByLayer
 62
  256
370
   -1
100
AcDbBlockReference
  2
case-v2-l4-3
 10
-0.4468032921351279
 20
21.89336131462127
 30
0
 41
1
 42
1
 43
0
 50
0
 70
    1
 71
    1
 44
0
 45
0
  0
MTEXT
  5
227
100
AcDbEntity
  8
0
  6
ByLayer
 62
  256
370
   -1
100
AcDbMText
 10
-411.0224472859825
 20
-37.8149048900333
 30
0
 40
10
 41
24.444444444446
 71
    1
 72
    1
  1
3mm
  7
standard
210
0
220
0
230
1
 50
0
 73
    2
 44
1
  0
INSERT
  5
228
100
AcDbEntity
  8
0
  6
ByLayer
 62
  256
370
   -1
100
AcDbBlockReference
  2
case-v2-l3-6
 10
-0.4468032921351279
 20
21.89336131462127
 30
0
 41
1
 42
1
 43
0
 50
0
 70
    1
 71
    1
 44
0
 45
0
  0
MTEXT
  5
229
100
AcDbEntity
  8
0
  6
ByLayer
 62
  256
370
   -1
100
AcDbMText
 10
-129.5958945079114
 20
-34.74579886921554
 30
0
 40
10
 41
33.05555555555649
 71
    1
 72
    1
  1
4 mm
  7
iso
210
0
220
0
230
1
 50
0
 73
    2
 44
1
  0
INSERT
  5
22A
100
AcDbEntity
  8
0
  6
ByLayer
 62
  256
370
   -1
100
AcDbBlockReference
  2
case-v2-l3-7
 10
-0.4468032921351279
 20
21.89336131462127
 30
0
 41
1
 42
1
 43
0
 50
0
 70
    1
 71
    1
 44
0
 45
0
  0
MTEXT
  5
22B
100
AcDbEntity
  8
0
  6
ByLayer
 62
  256
370
   -1
100
AcDbMText
 10
387.281789683756
 20
-42.13665197868939
 30
0
 40
10
 41
33.05555555555649
 71
    1
 72
    1
  1
4 mm
  7
iso
210
0
220
0
230
1
 50
0
 73
    2
 44
1
  0
INSERT
  5
22C
100
AcDbEntity
  8
BLACK
  6
ByLayer
 62
  256
370
   -1
100
AcDbBlockReference
  2
redox_rev1_case_v2_l1-Edge_Cuts-1
 10
-6.617646350994331
 20
120.9788473541151
 30
0
 41
1
 42
1
 43
0
 50
0
 70
    1
 71
    1
 44
0
 45
0
  0
MTEXT
  5
22D
100
AcDbEntity
  8
0
  6
ByLayer
 62
  256
370
   -1
100
AcDbMText
 10
-135.5589730858004
 20
127.0832446826264
 30
0
 40
10
 41
24.444444444446
 71
    1
 72
    1
  1
5mm
  7
standard
210
0
220
0
230
1
 50
0
 73
    2
 44
1
  0
MTEXT
  5
22E
100
AcDbEntity
  8
0
  6
ByLayer
 62
  256
370
   -1
100
AcDbMText
 10
-421.2604478178167
 20
-56.98019116938752
 30
0
 40
20
 41
51.33333333333334
 71
    1
 72
    1
  1
***
  7

210
0
220
0
230
1
 50
0
 73
    2
 44
1
  0
MTEXT
  5
22F
100
AcDbEntity
  8
0
  6
ByLayer
 62
  256
370
   -1
100
AcDbMText
 10
-422.0463814891186
 20
111.9955481605203
 30
0
 40
20
 41
51.33333333333334
 71
    1
 72
    1
  1
***
  7

210
0
220
0
230
1
 50
0
 73
    2
 44
1
  0
ENDSEC
  0
SECTION
  2
OBJECTS
  0
DICTIONARY
  5
C
330
0
100
AcDbDictionary
281
    1
  3
ACAD_GROUP
350
D
  0
DICTIONARY
  5
D
330
C
100
AcDbDictionary
281
    1
  0
ENDSEC
  0
EOF
