%TF.GenerationSoftware,KiCad,Pcbnew,(5.1.2)-2*%
%TF.CreationDate,2020-02-06T17:00:50+08:00*%
%TF.ProjectId,wing-receiver-lite,77696e67-2d72-4656-9365-697665722d6c,rev?*%
%TF.SameCoordinates,Original*%
%TF.FileFunction,Copper,L1,Top*%
%TF.FilePolarity,Positive*%
%FSLAX46Y46*%
G04 Gerber Fmt 4.6, Leading zero omitted, Abs format (unit mm)*
G04 Created by KiCad (PCBNEW (5.1.2)-2) date 2020-02-06 17:00:50*
%MOMM*%
%LPD*%
G04 APERTURE LIST*
%ADD10R,3.800000X2.200000*%
%ADD11R,1.500000X2.200000*%
%ADD12O,1.000000X2.100000*%
%ADD13O,1.000000X1.600000*%
%ADD14R,2.100000X1.800000*%
%ADD15R,0.550000X1.500000*%
%ADD16R,1.500000X0.550000*%
%ADD17C,0.350000*%
%ADD18C,1.150000*%
%ADD19O,1.700000X1.700000*%
%ADD20R,1.700000X1.700000*%
%ADD21C,1.425000*%
%ADD22R,1.000000X1.400000*%
%ADD23R,1.200000X1.400000*%
%ADD24C,0.800000*%
%ADD25C,0.250000*%
%ADD26C,0.254000*%
%ADD27C,0.350000*%
%ADD28O,0.600000X1.700000*%
%ADD29O,0.600000X1.200000*%
G04 APERTURE END LIST*
D10*
X75184000Y-125882000D03*
D11*
X72884000Y-132182000D03*
X75184000Y-132182000D03*
X77484000Y-132182000D03*
D12*
X75436000Y-98855000D03*
X84076000Y-98855000D03*
D13*
X75436000Y-94675000D03*
X84076000Y-94675000D03*
D14*
X78380000Y-104380000D03*
X81280000Y-104380000D03*
X81280000Y-106680000D03*
X78380000Y-106680000D03*
D15*
X84010000Y-121905000D03*
X83210000Y-121905000D03*
X82410000Y-121905000D03*
X81610000Y-121905000D03*
X80810000Y-121905000D03*
X80010000Y-121905000D03*
X79210000Y-121905000D03*
X78410000Y-121905000D03*
X77610000Y-121905000D03*
X76810000Y-121905000D03*
X76010000Y-121905000D03*
D16*
X74310000Y-120205000D03*
X74310000Y-119405000D03*
X74310000Y-118605000D03*
X74310000Y-117805000D03*
X74310000Y-117005000D03*
X74310000Y-116205000D03*
X74310000Y-115405000D03*
X74310000Y-114605000D03*
X74310000Y-113805000D03*
X74310000Y-113005000D03*
X74310000Y-112205000D03*
D15*
X76010000Y-110505000D03*
X76810000Y-110505000D03*
X77610000Y-110505000D03*
X78410000Y-110505000D03*
X79210000Y-110505000D03*
X80010000Y-110505000D03*
X80810000Y-110505000D03*
X81610000Y-110505000D03*
X82410000Y-110505000D03*
X83210000Y-110505000D03*
X84010000Y-110505000D03*
D16*
X85710000Y-112205000D03*
X85710000Y-113005000D03*
X85710000Y-113805000D03*
X85710000Y-114605000D03*
X85710000Y-115405000D03*
X85710000Y-116205000D03*
X85710000Y-117005000D03*
X85710000Y-117805000D03*
X85710000Y-118605000D03*
X85710000Y-119405000D03*
X85710000Y-120205000D03*
D17*
G36*
X71714505Y-101409204D02*
G01*
X71738773Y-101412804D01*
X71762572Y-101418765D01*
X71785671Y-101427030D01*
X71807850Y-101437520D01*
X71828893Y-101450132D01*
X71848599Y-101464747D01*
X71866777Y-101481223D01*
X71883253Y-101499401D01*
X71897868Y-101519107D01*
X71910480Y-101540150D01*
X71920970Y-101562329D01*
X71929235Y-101585428D01*
X71935196Y-101609227D01*
X71938796Y-101633495D01*
X71940000Y-101657999D01*
X71940000Y-102558001D01*
X71938796Y-102582505D01*
X71935196Y-102606773D01*
X71929235Y-102630572D01*
X71920970Y-102653671D01*
X71910480Y-102675850D01*
X71897868Y-102696893D01*
X71883253Y-102716599D01*
X71866777Y-102734777D01*
X71848599Y-102751253D01*
X71828893Y-102765868D01*
X71807850Y-102778480D01*
X71785671Y-102788970D01*
X71762572Y-102797235D01*
X71738773Y-102803196D01*
X71714505Y-102806796D01*
X71690001Y-102808000D01*
X71039999Y-102808000D01*
X71015495Y-102806796D01*
X70991227Y-102803196D01*
X70967428Y-102797235D01*
X70944329Y-102788970D01*
X70922150Y-102778480D01*
X70901107Y-102765868D01*
X70881401Y-102751253D01*
X70863223Y-102734777D01*
X70846747Y-102716599D01*
X70832132Y-102696893D01*
X70819520Y-102675850D01*
X70809030Y-102653671D01*
X70800765Y-102630572D01*
X70794804Y-102606773D01*
X70791204Y-102582505D01*
X70790000Y-102558001D01*
X70790000Y-101657999D01*
X70791204Y-101633495D01*
X70794804Y-101609227D01*
X70800765Y-101585428D01*
X70809030Y-101562329D01*
X70819520Y-101540150D01*
X70832132Y-101519107D01*
X70846747Y-101499401D01*
X70863223Y-101481223D01*
X70881401Y-101464747D01*
X70901107Y-101450132D01*
X70922150Y-101437520D01*
X70944329Y-101427030D01*
X70967428Y-101418765D01*
X70991227Y-101412804D01*
X71015495Y-101409204D01*
X71039999Y-101408000D01*
X71690001Y-101408000D01*
X71714505Y-101409204D01*
X71714505Y-101409204D01*
G37*
D18*
X71365000Y-102108000D03*
D17*
G36*
X73764505Y-101409204D02*
G01*
X73788773Y-101412804D01*
X73812572Y-101418765D01*
X73835671Y-101427030D01*
X73857850Y-101437520D01*
X73878893Y-101450132D01*
X73898599Y-101464747D01*
X73916777Y-101481223D01*
X73933253Y-101499401D01*
X73947868Y-101519107D01*
X73960480Y-101540150D01*
X73970970Y-101562329D01*
X73979235Y-101585428D01*
X73985196Y-101609227D01*
X73988796Y-101633495D01*
X73990000Y-101657999D01*
X73990000Y-102558001D01*
X73988796Y-102582505D01*
X73985196Y-102606773D01*
X73979235Y-102630572D01*
X73970970Y-102653671D01*
X73960480Y-102675850D01*
X73947868Y-102696893D01*
X73933253Y-102716599D01*
X73916777Y-102734777D01*
X73898599Y-102751253D01*
X73878893Y-102765868D01*
X73857850Y-102778480D01*
X73835671Y-102788970D01*
X73812572Y-102797235D01*
X73788773Y-102803196D01*
X73764505Y-102806796D01*
X73740001Y-102808000D01*
X73089999Y-102808000D01*
X73065495Y-102806796D01*
X73041227Y-102803196D01*
X73017428Y-102797235D01*
X72994329Y-102788970D01*
X72972150Y-102778480D01*
X72951107Y-102765868D01*
X72931401Y-102751253D01*
X72913223Y-102734777D01*
X72896747Y-102716599D01*
X72882132Y-102696893D01*
X72869520Y-102675850D01*
X72859030Y-102653671D01*
X72850765Y-102630572D01*
X72844804Y-102606773D01*
X72841204Y-102582505D01*
X72840000Y-102558001D01*
X72840000Y-101657999D01*
X72841204Y-101633495D01*
X72844804Y-101609227D01*
X72850765Y-101585428D01*
X72859030Y-101562329D01*
X72869520Y-101540150D01*
X72882132Y-101519107D01*
X72896747Y-101499401D01*
X72913223Y-101481223D01*
X72931401Y-101464747D01*
X72951107Y-101450132D01*
X72972150Y-101437520D01*
X72994329Y-101427030D01*
X73017428Y-101418765D01*
X73041227Y-101412804D01*
X73065495Y-101409204D01*
X73089999Y-101408000D01*
X73740001Y-101408000D01*
X73764505Y-101409204D01*
X73764505Y-101409204D01*
G37*
D18*
X73415000Y-102108000D03*
D17*
G36*
X88623505Y-106489204D02*
G01*
X88647773Y-106492804D01*
X88671572Y-106498765D01*
X88694671Y-106507030D01*
X88716850Y-106517520D01*
X88737893Y-106530132D01*
X88757599Y-106544747D01*
X88775777Y-106561223D01*
X88792253Y-106579401D01*
X88806868Y-106599107D01*
X88819480Y-106620150D01*
X88829970Y-106642329D01*
X88838235Y-106665428D01*
X88844196Y-106689227D01*
X88847796Y-106713495D01*
X88849000Y-106737999D01*
X88849000Y-107638001D01*
X88847796Y-107662505D01*
X88844196Y-107686773D01*
X88838235Y-107710572D01*
X88829970Y-107733671D01*
X88819480Y-107755850D01*
X88806868Y-107776893D01*
X88792253Y-107796599D01*
X88775777Y-107814777D01*
X88757599Y-107831253D01*
X88737893Y-107845868D01*
X88716850Y-107858480D01*
X88694671Y-107868970D01*
X88671572Y-107877235D01*
X88647773Y-107883196D01*
X88623505Y-107886796D01*
X88599001Y-107888000D01*
X87948999Y-107888000D01*
X87924495Y-107886796D01*
X87900227Y-107883196D01*
X87876428Y-107877235D01*
X87853329Y-107868970D01*
X87831150Y-107858480D01*
X87810107Y-107845868D01*
X87790401Y-107831253D01*
X87772223Y-107814777D01*
X87755747Y-107796599D01*
X87741132Y-107776893D01*
X87728520Y-107755850D01*
X87718030Y-107733671D01*
X87709765Y-107710572D01*
X87703804Y-107686773D01*
X87700204Y-107662505D01*
X87699000Y-107638001D01*
X87699000Y-106737999D01*
X87700204Y-106713495D01*
X87703804Y-106689227D01*
X87709765Y-106665428D01*
X87718030Y-106642329D01*
X87728520Y-106620150D01*
X87741132Y-106599107D01*
X87755747Y-106579401D01*
X87772223Y-106561223D01*
X87790401Y-106544747D01*
X87810107Y-106530132D01*
X87831150Y-106517520D01*
X87853329Y-106507030D01*
X87876428Y-106498765D01*
X87900227Y-106492804D01*
X87924495Y-106489204D01*
X87948999Y-106488000D01*
X88599001Y-106488000D01*
X88623505Y-106489204D01*
X88623505Y-106489204D01*
G37*
D18*
X88274000Y-107188000D03*
D17*
G36*
X86573505Y-106489204D02*
G01*
X86597773Y-106492804D01*
X86621572Y-106498765D01*
X86644671Y-106507030D01*
X86666850Y-106517520D01*
X86687893Y-106530132D01*
X86707599Y-106544747D01*
X86725777Y-106561223D01*
X86742253Y-106579401D01*
X86756868Y-106599107D01*
X86769480Y-106620150D01*
X86779970Y-106642329D01*
X86788235Y-106665428D01*
X86794196Y-106689227D01*
X86797796Y-106713495D01*
X86799000Y-106737999D01*
X86799000Y-107638001D01*
X86797796Y-107662505D01*
X86794196Y-107686773D01*
X86788235Y-107710572D01*
X86779970Y-107733671D01*
X86769480Y-107755850D01*
X86756868Y-107776893D01*
X86742253Y-107796599D01*
X86725777Y-107814777D01*
X86707599Y-107831253D01*
X86687893Y-107845868D01*
X86666850Y-107858480D01*
X86644671Y-107868970D01*
X86621572Y-107877235D01*
X86597773Y-107883196D01*
X86573505Y-107886796D01*
X86549001Y-107888000D01*
X85898999Y-107888000D01*
X85874495Y-107886796D01*
X85850227Y-107883196D01*
X85826428Y-107877235D01*
X85803329Y-107868970D01*
X85781150Y-107858480D01*
X85760107Y-107845868D01*
X85740401Y-107831253D01*
X85722223Y-107814777D01*
X85705747Y-107796599D01*
X85691132Y-107776893D01*
X85678520Y-107755850D01*
X85668030Y-107733671D01*
X85659765Y-107710572D01*
X85653804Y-107686773D01*
X85650204Y-107662505D01*
X85649000Y-107638001D01*
X85649000Y-106737999D01*
X85650204Y-106713495D01*
X85653804Y-106689227D01*
X85659765Y-106665428D01*
X85668030Y-106642329D01*
X85678520Y-106620150D01*
X85691132Y-106599107D01*
X85705747Y-106579401D01*
X85722223Y-106561223D01*
X85740401Y-106544747D01*
X85760107Y-106530132D01*
X85781150Y-106517520D01*
X85803329Y-106507030D01*
X85826428Y-106498765D01*
X85850227Y-106492804D01*
X85874495Y-106489204D01*
X85898999Y-106488000D01*
X86549001Y-106488000D01*
X86573505Y-106489204D01*
X86573505Y-106489204D01*
G37*
D18*
X86224000Y-107188000D03*
D17*
G36*
X71714505Y-106489204D02*
G01*
X71738773Y-106492804D01*
X71762572Y-106498765D01*
X71785671Y-106507030D01*
X71807850Y-106517520D01*
X71828893Y-106530132D01*
X71848599Y-106544747D01*
X71866777Y-106561223D01*
X71883253Y-106579401D01*
X71897868Y-106599107D01*
X71910480Y-106620150D01*
X71920970Y-106642329D01*
X71929235Y-106665428D01*
X71935196Y-106689227D01*
X71938796Y-106713495D01*
X71940000Y-106737999D01*
X71940000Y-107638001D01*
X71938796Y-107662505D01*
X71935196Y-107686773D01*
X71929235Y-107710572D01*
X71920970Y-107733671D01*
X71910480Y-107755850D01*
X71897868Y-107776893D01*
X71883253Y-107796599D01*
X71866777Y-107814777D01*
X71848599Y-107831253D01*
X71828893Y-107845868D01*
X71807850Y-107858480D01*
X71785671Y-107868970D01*
X71762572Y-107877235D01*
X71738773Y-107883196D01*
X71714505Y-107886796D01*
X71690001Y-107888000D01*
X71039999Y-107888000D01*
X71015495Y-107886796D01*
X70991227Y-107883196D01*
X70967428Y-107877235D01*
X70944329Y-107868970D01*
X70922150Y-107858480D01*
X70901107Y-107845868D01*
X70881401Y-107831253D01*
X70863223Y-107814777D01*
X70846747Y-107796599D01*
X70832132Y-107776893D01*
X70819520Y-107755850D01*
X70809030Y-107733671D01*
X70800765Y-107710572D01*
X70794804Y-107686773D01*
X70791204Y-107662505D01*
X70790000Y-107638001D01*
X70790000Y-106737999D01*
X70791204Y-106713495D01*
X70794804Y-106689227D01*
X70800765Y-106665428D01*
X70809030Y-106642329D01*
X70819520Y-106620150D01*
X70832132Y-106599107D01*
X70846747Y-106579401D01*
X70863223Y-106561223D01*
X70881401Y-106544747D01*
X70901107Y-106530132D01*
X70922150Y-106517520D01*
X70944329Y-106507030D01*
X70967428Y-106498765D01*
X70991227Y-106492804D01*
X71015495Y-106489204D01*
X71039999Y-106488000D01*
X71690001Y-106488000D01*
X71714505Y-106489204D01*
X71714505Y-106489204D01*
G37*
D18*
X71365000Y-107188000D03*
D17*
G36*
X73764505Y-106489204D02*
G01*
X73788773Y-106492804D01*
X73812572Y-106498765D01*
X73835671Y-106507030D01*
X73857850Y-106517520D01*
X73878893Y-106530132D01*
X73898599Y-106544747D01*
X73916777Y-106561223D01*
X73933253Y-106579401D01*
X73947868Y-106599107D01*
X73960480Y-106620150D01*
X73970970Y-106642329D01*
X73979235Y-106665428D01*
X73985196Y-106689227D01*
X73988796Y-106713495D01*
X73990000Y-106737999D01*
X73990000Y-107638001D01*
X73988796Y-107662505D01*
X73985196Y-107686773D01*
X73979235Y-107710572D01*
X73970970Y-107733671D01*
X73960480Y-107755850D01*
X73947868Y-107776893D01*
X73933253Y-107796599D01*
X73916777Y-107814777D01*
X73898599Y-107831253D01*
X73878893Y-107845868D01*
X73857850Y-107858480D01*
X73835671Y-107868970D01*
X73812572Y-107877235D01*
X73788773Y-107883196D01*
X73764505Y-107886796D01*
X73740001Y-107888000D01*
X73089999Y-107888000D01*
X73065495Y-107886796D01*
X73041227Y-107883196D01*
X73017428Y-107877235D01*
X72994329Y-107868970D01*
X72972150Y-107858480D01*
X72951107Y-107845868D01*
X72931401Y-107831253D01*
X72913223Y-107814777D01*
X72896747Y-107796599D01*
X72882132Y-107776893D01*
X72869520Y-107755850D01*
X72859030Y-107733671D01*
X72850765Y-107710572D01*
X72844804Y-107686773D01*
X72841204Y-107662505D01*
X72840000Y-107638001D01*
X72840000Y-106737999D01*
X72841204Y-106713495D01*
X72844804Y-106689227D01*
X72850765Y-106665428D01*
X72859030Y-106642329D01*
X72869520Y-106620150D01*
X72882132Y-106599107D01*
X72896747Y-106579401D01*
X72913223Y-106561223D01*
X72931401Y-106544747D01*
X72951107Y-106530132D01*
X72972150Y-106517520D01*
X72994329Y-106507030D01*
X73017428Y-106498765D01*
X73041227Y-106492804D01*
X73065495Y-106489204D01*
X73089999Y-106488000D01*
X73740001Y-106488000D01*
X73764505Y-106489204D01*
X73764505Y-106489204D01*
G37*
D18*
X73415000Y-107188000D03*
D17*
G36*
X71714505Y-96456204D02*
G01*
X71738773Y-96459804D01*
X71762572Y-96465765D01*
X71785671Y-96474030D01*
X71807850Y-96484520D01*
X71828893Y-96497132D01*
X71848599Y-96511747D01*
X71866777Y-96528223D01*
X71883253Y-96546401D01*
X71897868Y-96566107D01*
X71910480Y-96587150D01*
X71920970Y-96609329D01*
X71929235Y-96632428D01*
X71935196Y-96656227D01*
X71938796Y-96680495D01*
X71940000Y-96704999D01*
X71940000Y-97605001D01*
X71938796Y-97629505D01*
X71935196Y-97653773D01*
X71929235Y-97677572D01*
X71920970Y-97700671D01*
X71910480Y-97722850D01*
X71897868Y-97743893D01*
X71883253Y-97763599D01*
X71866777Y-97781777D01*
X71848599Y-97798253D01*
X71828893Y-97812868D01*
X71807850Y-97825480D01*
X71785671Y-97835970D01*
X71762572Y-97844235D01*
X71738773Y-97850196D01*
X71714505Y-97853796D01*
X71690001Y-97855000D01*
X71039999Y-97855000D01*
X71015495Y-97853796D01*
X70991227Y-97850196D01*
X70967428Y-97844235D01*
X70944329Y-97835970D01*
X70922150Y-97825480D01*
X70901107Y-97812868D01*
X70881401Y-97798253D01*
X70863223Y-97781777D01*
X70846747Y-97763599D01*
X70832132Y-97743893D01*
X70819520Y-97722850D01*
X70809030Y-97700671D01*
X70800765Y-97677572D01*
X70794804Y-97653773D01*
X70791204Y-97629505D01*
X70790000Y-97605001D01*
X70790000Y-96704999D01*
X70791204Y-96680495D01*
X70794804Y-96656227D01*
X70800765Y-96632428D01*
X70809030Y-96609329D01*
X70819520Y-96587150D01*
X70832132Y-96566107D01*
X70846747Y-96546401D01*
X70863223Y-96528223D01*
X70881401Y-96511747D01*
X70901107Y-96497132D01*
X70922150Y-96484520D01*
X70944329Y-96474030D01*
X70967428Y-96465765D01*
X70991227Y-96459804D01*
X71015495Y-96456204D01*
X71039999Y-96455000D01*
X71690001Y-96455000D01*
X71714505Y-96456204D01*
X71714505Y-96456204D01*
G37*
D18*
X71365000Y-97155000D03*
D17*
G36*
X73764505Y-96456204D02*
G01*
X73788773Y-96459804D01*
X73812572Y-96465765D01*
X73835671Y-96474030D01*
X73857850Y-96484520D01*
X73878893Y-96497132D01*
X73898599Y-96511747D01*
X73916777Y-96528223D01*
X73933253Y-96546401D01*
X73947868Y-96566107D01*
X73960480Y-96587150D01*
X73970970Y-96609329D01*
X73979235Y-96632428D01*
X73985196Y-96656227D01*
X73988796Y-96680495D01*
X73990000Y-96704999D01*
X73990000Y-97605001D01*
X73988796Y-97629505D01*
X73985196Y-97653773D01*
X73979235Y-97677572D01*
X73970970Y-97700671D01*
X73960480Y-97722850D01*
X73947868Y-97743893D01*
X73933253Y-97763599D01*
X73916777Y-97781777D01*
X73898599Y-97798253D01*
X73878893Y-97812868D01*
X73857850Y-97825480D01*
X73835671Y-97835970D01*
X73812572Y-97844235D01*
X73788773Y-97850196D01*
X73764505Y-97853796D01*
X73740001Y-97855000D01*
X73089999Y-97855000D01*
X73065495Y-97853796D01*
X73041227Y-97850196D01*
X73017428Y-97844235D01*
X72994329Y-97835970D01*
X72972150Y-97825480D01*
X72951107Y-97812868D01*
X72931401Y-97798253D01*
X72913223Y-97781777D01*
X72896747Y-97763599D01*
X72882132Y-97743893D01*
X72869520Y-97722850D01*
X72859030Y-97700671D01*
X72850765Y-97677572D01*
X72844804Y-97653773D01*
X72841204Y-97629505D01*
X72840000Y-97605001D01*
X72840000Y-96704999D01*
X72841204Y-96680495D01*
X72844804Y-96656227D01*
X72850765Y-96632428D01*
X72859030Y-96609329D01*
X72869520Y-96587150D01*
X72882132Y-96566107D01*
X72896747Y-96546401D01*
X72913223Y-96528223D01*
X72931401Y-96511747D01*
X72951107Y-96497132D01*
X72972150Y-96484520D01*
X72994329Y-96474030D01*
X73017428Y-96465765D01*
X73041227Y-96459804D01*
X73065495Y-96456204D01*
X73089999Y-96455000D01*
X73740001Y-96455000D01*
X73764505Y-96456204D01*
X73764505Y-96456204D01*
G37*
D18*
X73415000Y-97155000D03*
D17*
G36*
X73764505Y-103949204D02*
G01*
X73788773Y-103952804D01*
X73812572Y-103958765D01*
X73835671Y-103967030D01*
X73857850Y-103977520D01*
X73878893Y-103990132D01*
X73898599Y-104004747D01*
X73916777Y-104021223D01*
X73933253Y-104039401D01*
X73947868Y-104059107D01*
X73960480Y-104080150D01*
X73970970Y-104102329D01*
X73979235Y-104125428D01*
X73985196Y-104149227D01*
X73988796Y-104173495D01*
X73990000Y-104197999D01*
X73990000Y-105098001D01*
X73988796Y-105122505D01*
X73985196Y-105146773D01*
X73979235Y-105170572D01*
X73970970Y-105193671D01*
X73960480Y-105215850D01*
X73947868Y-105236893D01*
X73933253Y-105256599D01*
X73916777Y-105274777D01*
X73898599Y-105291253D01*
X73878893Y-105305868D01*
X73857850Y-105318480D01*
X73835671Y-105328970D01*
X73812572Y-105337235D01*
X73788773Y-105343196D01*
X73764505Y-105346796D01*
X73740001Y-105348000D01*
X73089999Y-105348000D01*
X73065495Y-105346796D01*
X73041227Y-105343196D01*
X73017428Y-105337235D01*
X72994329Y-105328970D01*
X72972150Y-105318480D01*
X72951107Y-105305868D01*
X72931401Y-105291253D01*
X72913223Y-105274777D01*
X72896747Y-105256599D01*
X72882132Y-105236893D01*
X72869520Y-105215850D01*
X72859030Y-105193671D01*
X72850765Y-105170572D01*
X72844804Y-105146773D01*
X72841204Y-105122505D01*
X72840000Y-105098001D01*
X72840000Y-104197999D01*
X72841204Y-104173495D01*
X72844804Y-104149227D01*
X72850765Y-104125428D01*
X72859030Y-104102329D01*
X72869520Y-104080150D01*
X72882132Y-104059107D01*
X72896747Y-104039401D01*
X72913223Y-104021223D01*
X72931401Y-104004747D01*
X72951107Y-103990132D01*
X72972150Y-103977520D01*
X72994329Y-103967030D01*
X73017428Y-103958765D01*
X73041227Y-103952804D01*
X73065495Y-103949204D01*
X73089999Y-103948000D01*
X73740001Y-103948000D01*
X73764505Y-103949204D01*
X73764505Y-103949204D01*
G37*
D18*
X73415000Y-104648000D03*
D17*
G36*
X71714505Y-103949204D02*
G01*
X71738773Y-103952804D01*
X71762572Y-103958765D01*
X71785671Y-103967030D01*
X71807850Y-103977520D01*
X71828893Y-103990132D01*
X71848599Y-104004747D01*
X71866777Y-104021223D01*
X71883253Y-104039401D01*
X71897868Y-104059107D01*
X71910480Y-104080150D01*
X71920970Y-104102329D01*
X71929235Y-104125428D01*
X71935196Y-104149227D01*
X71938796Y-104173495D01*
X71940000Y-104197999D01*
X71940000Y-105098001D01*
X71938796Y-105122505D01*
X71935196Y-105146773D01*
X71929235Y-105170572D01*
X71920970Y-105193671D01*
X71910480Y-105215850D01*
X71897868Y-105236893D01*
X71883253Y-105256599D01*
X71866777Y-105274777D01*
X71848599Y-105291253D01*
X71828893Y-105305868D01*
X71807850Y-105318480D01*
X71785671Y-105328970D01*
X71762572Y-105337235D01*
X71738773Y-105343196D01*
X71714505Y-105346796D01*
X71690001Y-105348000D01*
X71039999Y-105348000D01*
X71015495Y-105346796D01*
X70991227Y-105343196D01*
X70967428Y-105337235D01*
X70944329Y-105328970D01*
X70922150Y-105318480D01*
X70901107Y-105305868D01*
X70881401Y-105291253D01*
X70863223Y-105274777D01*
X70846747Y-105256599D01*
X70832132Y-105236893D01*
X70819520Y-105215850D01*
X70809030Y-105193671D01*
X70800765Y-105170572D01*
X70794804Y-105146773D01*
X70791204Y-105122505D01*
X70790000Y-105098001D01*
X70790000Y-104197999D01*
X70791204Y-104173495D01*
X70794804Y-104149227D01*
X70800765Y-104125428D01*
X70809030Y-104102329D01*
X70819520Y-104080150D01*
X70832132Y-104059107D01*
X70846747Y-104039401D01*
X70863223Y-104021223D01*
X70881401Y-104004747D01*
X70901107Y-103990132D01*
X70922150Y-103977520D01*
X70944329Y-103967030D01*
X70967428Y-103958765D01*
X70991227Y-103952804D01*
X71015495Y-103949204D01*
X71039999Y-103948000D01*
X71690001Y-103948000D01*
X71714505Y-103949204D01*
X71714505Y-103949204D01*
G37*
D18*
X71365000Y-104648000D03*
D17*
G36*
X86573505Y-103949204D02*
G01*
X86597773Y-103952804D01*
X86621572Y-103958765D01*
X86644671Y-103967030D01*
X86666850Y-103977520D01*
X86687893Y-103990132D01*
X86707599Y-104004747D01*
X86725777Y-104021223D01*
X86742253Y-104039401D01*
X86756868Y-104059107D01*
X86769480Y-104080150D01*
X86779970Y-104102329D01*
X86788235Y-104125428D01*
X86794196Y-104149227D01*
X86797796Y-104173495D01*
X86799000Y-104197999D01*
X86799000Y-105098001D01*
X86797796Y-105122505D01*
X86794196Y-105146773D01*
X86788235Y-105170572D01*
X86779970Y-105193671D01*
X86769480Y-105215850D01*
X86756868Y-105236893D01*
X86742253Y-105256599D01*
X86725777Y-105274777D01*
X86707599Y-105291253D01*
X86687893Y-105305868D01*
X86666850Y-105318480D01*
X86644671Y-105328970D01*
X86621572Y-105337235D01*
X86597773Y-105343196D01*
X86573505Y-105346796D01*
X86549001Y-105348000D01*
X85898999Y-105348000D01*
X85874495Y-105346796D01*
X85850227Y-105343196D01*
X85826428Y-105337235D01*
X85803329Y-105328970D01*
X85781150Y-105318480D01*
X85760107Y-105305868D01*
X85740401Y-105291253D01*
X85722223Y-105274777D01*
X85705747Y-105256599D01*
X85691132Y-105236893D01*
X85678520Y-105215850D01*
X85668030Y-105193671D01*
X85659765Y-105170572D01*
X85653804Y-105146773D01*
X85650204Y-105122505D01*
X85649000Y-105098001D01*
X85649000Y-104197999D01*
X85650204Y-104173495D01*
X85653804Y-104149227D01*
X85659765Y-104125428D01*
X85668030Y-104102329D01*
X85678520Y-104080150D01*
X85691132Y-104059107D01*
X85705747Y-104039401D01*
X85722223Y-104021223D01*
X85740401Y-104004747D01*
X85760107Y-103990132D01*
X85781150Y-103977520D01*
X85803329Y-103967030D01*
X85826428Y-103958765D01*
X85850227Y-103952804D01*
X85874495Y-103949204D01*
X85898999Y-103948000D01*
X86549001Y-103948000D01*
X86573505Y-103949204D01*
X86573505Y-103949204D01*
G37*
D18*
X86224000Y-104648000D03*
D17*
G36*
X88623505Y-103949204D02*
G01*
X88647773Y-103952804D01*
X88671572Y-103958765D01*
X88694671Y-103967030D01*
X88716850Y-103977520D01*
X88737893Y-103990132D01*
X88757599Y-104004747D01*
X88775777Y-104021223D01*
X88792253Y-104039401D01*
X88806868Y-104059107D01*
X88819480Y-104080150D01*
X88829970Y-104102329D01*
X88838235Y-104125428D01*
X88844196Y-104149227D01*
X88847796Y-104173495D01*
X88849000Y-104197999D01*
X88849000Y-105098001D01*
X88847796Y-105122505D01*
X88844196Y-105146773D01*
X88838235Y-105170572D01*
X88829970Y-105193671D01*
X88819480Y-105215850D01*
X88806868Y-105236893D01*
X88792253Y-105256599D01*
X88775777Y-105274777D01*
X88757599Y-105291253D01*
X88737893Y-105305868D01*
X88716850Y-105318480D01*
X88694671Y-105328970D01*
X88671572Y-105337235D01*
X88647773Y-105343196D01*
X88623505Y-105346796D01*
X88599001Y-105348000D01*
X87948999Y-105348000D01*
X87924495Y-105346796D01*
X87900227Y-105343196D01*
X87876428Y-105337235D01*
X87853329Y-105328970D01*
X87831150Y-105318480D01*
X87810107Y-105305868D01*
X87790401Y-105291253D01*
X87772223Y-105274777D01*
X87755747Y-105256599D01*
X87741132Y-105236893D01*
X87728520Y-105215850D01*
X87718030Y-105193671D01*
X87709765Y-105170572D01*
X87703804Y-105146773D01*
X87700204Y-105122505D01*
X87699000Y-105098001D01*
X87699000Y-104197999D01*
X87700204Y-104173495D01*
X87703804Y-104149227D01*
X87709765Y-104125428D01*
X87718030Y-104102329D01*
X87728520Y-104080150D01*
X87741132Y-104059107D01*
X87755747Y-104039401D01*
X87772223Y-104021223D01*
X87790401Y-104004747D01*
X87810107Y-103990132D01*
X87831150Y-103977520D01*
X87853329Y-103967030D01*
X87876428Y-103958765D01*
X87900227Y-103952804D01*
X87924495Y-103949204D01*
X87948999Y-103948000D01*
X88599001Y-103948000D01*
X88623505Y-103949204D01*
X88623505Y-103949204D01*
G37*
D18*
X88274000Y-104648000D03*
D17*
G36*
X88496505Y-101409204D02*
G01*
X88520773Y-101412804D01*
X88544572Y-101418765D01*
X88567671Y-101427030D01*
X88589850Y-101437520D01*
X88610893Y-101450132D01*
X88630599Y-101464747D01*
X88648777Y-101481223D01*
X88665253Y-101499401D01*
X88679868Y-101519107D01*
X88692480Y-101540150D01*
X88702970Y-101562329D01*
X88711235Y-101585428D01*
X88717196Y-101609227D01*
X88720796Y-101633495D01*
X88722000Y-101657999D01*
X88722000Y-102558001D01*
X88720796Y-102582505D01*
X88717196Y-102606773D01*
X88711235Y-102630572D01*
X88702970Y-102653671D01*
X88692480Y-102675850D01*
X88679868Y-102696893D01*
X88665253Y-102716599D01*
X88648777Y-102734777D01*
X88630599Y-102751253D01*
X88610893Y-102765868D01*
X88589850Y-102778480D01*
X88567671Y-102788970D01*
X88544572Y-102797235D01*
X88520773Y-102803196D01*
X88496505Y-102806796D01*
X88472001Y-102808000D01*
X87821999Y-102808000D01*
X87797495Y-102806796D01*
X87773227Y-102803196D01*
X87749428Y-102797235D01*
X87726329Y-102788970D01*
X87704150Y-102778480D01*
X87683107Y-102765868D01*
X87663401Y-102751253D01*
X87645223Y-102734777D01*
X87628747Y-102716599D01*
X87614132Y-102696893D01*
X87601520Y-102675850D01*
X87591030Y-102653671D01*
X87582765Y-102630572D01*
X87576804Y-102606773D01*
X87573204Y-102582505D01*
X87572000Y-102558001D01*
X87572000Y-101657999D01*
X87573204Y-101633495D01*
X87576804Y-101609227D01*
X87582765Y-101585428D01*
X87591030Y-101562329D01*
X87601520Y-101540150D01*
X87614132Y-101519107D01*
X87628747Y-101499401D01*
X87645223Y-101481223D01*
X87663401Y-101464747D01*
X87683107Y-101450132D01*
X87704150Y-101437520D01*
X87726329Y-101427030D01*
X87749428Y-101418765D01*
X87773227Y-101412804D01*
X87797495Y-101409204D01*
X87821999Y-101408000D01*
X88472001Y-101408000D01*
X88496505Y-101409204D01*
X88496505Y-101409204D01*
G37*
D18*
X88147000Y-102108000D03*
D17*
G36*
X86446505Y-101409204D02*
G01*
X86470773Y-101412804D01*
X86494572Y-101418765D01*
X86517671Y-101427030D01*
X86539850Y-101437520D01*
X86560893Y-101450132D01*
X86580599Y-101464747D01*
X86598777Y-101481223D01*
X86615253Y-101499401D01*
X86629868Y-101519107D01*
X86642480Y-101540150D01*
X86652970Y-101562329D01*
X86661235Y-101585428D01*
X86667196Y-101609227D01*
X86670796Y-101633495D01*
X86672000Y-101657999D01*
X86672000Y-102558001D01*
X86670796Y-102582505D01*
X86667196Y-102606773D01*
X86661235Y-102630572D01*
X86652970Y-102653671D01*
X86642480Y-102675850D01*
X86629868Y-102696893D01*
X86615253Y-102716599D01*
X86598777Y-102734777D01*
X86580599Y-102751253D01*
X86560893Y-102765868D01*
X86539850Y-102778480D01*
X86517671Y-102788970D01*
X86494572Y-102797235D01*
X86470773Y-102803196D01*
X86446505Y-102806796D01*
X86422001Y-102808000D01*
X85771999Y-102808000D01*
X85747495Y-102806796D01*
X85723227Y-102803196D01*
X85699428Y-102797235D01*
X85676329Y-102788970D01*
X85654150Y-102778480D01*
X85633107Y-102765868D01*
X85613401Y-102751253D01*
X85595223Y-102734777D01*
X85578747Y-102716599D01*
X85564132Y-102696893D01*
X85551520Y-102675850D01*
X85541030Y-102653671D01*
X85532765Y-102630572D01*
X85526804Y-102606773D01*
X85523204Y-102582505D01*
X85522000Y-102558001D01*
X85522000Y-101657999D01*
X85523204Y-101633495D01*
X85526804Y-101609227D01*
X85532765Y-101585428D01*
X85541030Y-101562329D01*
X85551520Y-101540150D01*
X85564132Y-101519107D01*
X85578747Y-101499401D01*
X85595223Y-101481223D01*
X85613401Y-101464747D01*
X85633107Y-101450132D01*
X85654150Y-101437520D01*
X85676329Y-101427030D01*
X85699428Y-101418765D01*
X85723227Y-101412804D01*
X85747495Y-101409204D01*
X85771999Y-101408000D01*
X86422001Y-101408000D01*
X86446505Y-101409204D01*
X86446505Y-101409204D01*
G37*
D18*
X86097000Y-102108000D03*
D17*
G36*
X88496505Y-93916204D02*
G01*
X88520773Y-93919804D01*
X88544572Y-93925765D01*
X88567671Y-93934030D01*
X88589850Y-93944520D01*
X88610893Y-93957132D01*
X88630599Y-93971747D01*
X88648777Y-93988223D01*
X88665253Y-94006401D01*
X88679868Y-94026107D01*
X88692480Y-94047150D01*
X88702970Y-94069329D01*
X88711235Y-94092428D01*
X88717196Y-94116227D01*
X88720796Y-94140495D01*
X88722000Y-94164999D01*
X88722000Y-95065001D01*
X88720796Y-95089505D01*
X88717196Y-95113773D01*
X88711235Y-95137572D01*
X88702970Y-95160671D01*
X88692480Y-95182850D01*
X88679868Y-95203893D01*
X88665253Y-95223599D01*
X88648777Y-95241777D01*
X88630599Y-95258253D01*
X88610893Y-95272868D01*
X88589850Y-95285480D01*
X88567671Y-95295970D01*
X88544572Y-95304235D01*
X88520773Y-95310196D01*
X88496505Y-95313796D01*
X88472001Y-95315000D01*
X87821999Y-95315000D01*
X87797495Y-95313796D01*
X87773227Y-95310196D01*
X87749428Y-95304235D01*
X87726329Y-95295970D01*
X87704150Y-95285480D01*
X87683107Y-95272868D01*
X87663401Y-95258253D01*
X87645223Y-95241777D01*
X87628747Y-95223599D01*
X87614132Y-95203893D01*
X87601520Y-95182850D01*
X87591030Y-95160671D01*
X87582765Y-95137572D01*
X87576804Y-95113773D01*
X87573204Y-95089505D01*
X87572000Y-95065001D01*
X87572000Y-94164999D01*
X87573204Y-94140495D01*
X87576804Y-94116227D01*
X87582765Y-94092428D01*
X87591030Y-94069329D01*
X87601520Y-94047150D01*
X87614132Y-94026107D01*
X87628747Y-94006401D01*
X87645223Y-93988223D01*
X87663401Y-93971747D01*
X87683107Y-93957132D01*
X87704150Y-93944520D01*
X87726329Y-93934030D01*
X87749428Y-93925765D01*
X87773227Y-93919804D01*
X87797495Y-93916204D01*
X87821999Y-93915000D01*
X88472001Y-93915000D01*
X88496505Y-93916204D01*
X88496505Y-93916204D01*
G37*
D18*
X88147000Y-94615000D03*
D17*
G36*
X86446505Y-93916204D02*
G01*
X86470773Y-93919804D01*
X86494572Y-93925765D01*
X86517671Y-93934030D01*
X86539850Y-93944520D01*
X86560893Y-93957132D01*
X86580599Y-93971747D01*
X86598777Y-93988223D01*
X86615253Y-94006401D01*
X86629868Y-94026107D01*
X86642480Y-94047150D01*
X86652970Y-94069329D01*
X86661235Y-94092428D01*
X86667196Y-94116227D01*
X86670796Y-94140495D01*
X86672000Y-94164999D01*
X86672000Y-95065001D01*
X86670796Y-95089505D01*
X86667196Y-95113773D01*
X86661235Y-95137572D01*
X86652970Y-95160671D01*
X86642480Y-95182850D01*
X86629868Y-95203893D01*
X86615253Y-95223599D01*
X86598777Y-95241777D01*
X86580599Y-95258253D01*
X86560893Y-95272868D01*
X86539850Y-95285480D01*
X86517671Y-95295970D01*
X86494572Y-95304235D01*
X86470773Y-95310196D01*
X86446505Y-95313796D01*
X86422001Y-95315000D01*
X85771999Y-95315000D01*
X85747495Y-95313796D01*
X85723227Y-95310196D01*
X85699428Y-95304235D01*
X85676329Y-95295970D01*
X85654150Y-95285480D01*
X85633107Y-95272868D01*
X85613401Y-95258253D01*
X85595223Y-95241777D01*
X85578747Y-95223599D01*
X85564132Y-95203893D01*
X85551520Y-95182850D01*
X85541030Y-95160671D01*
X85532765Y-95137572D01*
X85526804Y-95113773D01*
X85523204Y-95089505D01*
X85522000Y-95065001D01*
X85522000Y-94164999D01*
X85523204Y-94140495D01*
X85526804Y-94116227D01*
X85532765Y-94092428D01*
X85541030Y-94069329D01*
X85551520Y-94047150D01*
X85564132Y-94026107D01*
X85578747Y-94006401D01*
X85595223Y-93988223D01*
X85613401Y-93971747D01*
X85633107Y-93957132D01*
X85654150Y-93944520D01*
X85676329Y-93934030D01*
X85699428Y-93925765D01*
X85723227Y-93919804D01*
X85747495Y-93916204D01*
X85771999Y-93915000D01*
X86422001Y-93915000D01*
X86446505Y-93916204D01*
X86446505Y-93916204D01*
G37*
D18*
X86097000Y-94615000D03*
D17*
G36*
X71714505Y-93916204D02*
G01*
X71738773Y-93919804D01*
X71762572Y-93925765D01*
X71785671Y-93934030D01*
X71807850Y-93944520D01*
X71828893Y-93957132D01*
X71848599Y-93971747D01*
X71866777Y-93988223D01*
X71883253Y-94006401D01*
X71897868Y-94026107D01*
X71910480Y-94047150D01*
X71920970Y-94069329D01*
X71929235Y-94092428D01*
X71935196Y-94116227D01*
X71938796Y-94140495D01*
X71940000Y-94164999D01*
X71940000Y-95065001D01*
X71938796Y-95089505D01*
X71935196Y-95113773D01*
X71929235Y-95137572D01*
X71920970Y-95160671D01*
X71910480Y-95182850D01*
X71897868Y-95203893D01*
X71883253Y-95223599D01*
X71866777Y-95241777D01*
X71848599Y-95258253D01*
X71828893Y-95272868D01*
X71807850Y-95285480D01*
X71785671Y-95295970D01*
X71762572Y-95304235D01*
X71738773Y-95310196D01*
X71714505Y-95313796D01*
X71690001Y-95315000D01*
X71039999Y-95315000D01*
X71015495Y-95313796D01*
X70991227Y-95310196D01*
X70967428Y-95304235D01*
X70944329Y-95295970D01*
X70922150Y-95285480D01*
X70901107Y-95272868D01*
X70881401Y-95258253D01*
X70863223Y-95241777D01*
X70846747Y-95223599D01*
X70832132Y-95203893D01*
X70819520Y-95182850D01*
X70809030Y-95160671D01*
X70800765Y-95137572D01*
X70794804Y-95113773D01*
X70791204Y-95089505D01*
X70790000Y-95065001D01*
X70790000Y-94164999D01*
X70791204Y-94140495D01*
X70794804Y-94116227D01*
X70800765Y-94092428D01*
X70809030Y-94069329D01*
X70819520Y-94047150D01*
X70832132Y-94026107D01*
X70846747Y-94006401D01*
X70863223Y-93988223D01*
X70881401Y-93971747D01*
X70901107Y-93957132D01*
X70922150Y-93944520D01*
X70944329Y-93934030D01*
X70967428Y-93925765D01*
X70991227Y-93919804D01*
X71015495Y-93916204D01*
X71039999Y-93915000D01*
X71690001Y-93915000D01*
X71714505Y-93916204D01*
X71714505Y-93916204D01*
G37*
D18*
X71365000Y-94615000D03*
D17*
G36*
X73764505Y-93916204D02*
G01*
X73788773Y-93919804D01*
X73812572Y-93925765D01*
X73835671Y-93934030D01*
X73857850Y-93944520D01*
X73878893Y-93957132D01*
X73898599Y-93971747D01*
X73916777Y-93988223D01*
X73933253Y-94006401D01*
X73947868Y-94026107D01*
X73960480Y-94047150D01*
X73970970Y-94069329D01*
X73979235Y-94092428D01*
X73985196Y-94116227D01*
X73988796Y-94140495D01*
X73990000Y-94164999D01*
X73990000Y-95065001D01*
X73988796Y-95089505D01*
X73985196Y-95113773D01*
X73979235Y-95137572D01*
X73970970Y-95160671D01*
X73960480Y-95182850D01*
X73947868Y-95203893D01*
X73933253Y-95223599D01*
X73916777Y-95241777D01*
X73898599Y-95258253D01*
X73878893Y-95272868D01*
X73857850Y-95285480D01*
X73835671Y-95295970D01*
X73812572Y-95304235D01*
X73788773Y-95310196D01*
X73764505Y-95313796D01*
X73740001Y-95315000D01*
X73089999Y-95315000D01*
X73065495Y-95313796D01*
X73041227Y-95310196D01*
X73017428Y-95304235D01*
X72994329Y-95295970D01*
X72972150Y-95285480D01*
X72951107Y-95272868D01*
X72931401Y-95258253D01*
X72913223Y-95241777D01*
X72896747Y-95223599D01*
X72882132Y-95203893D01*
X72869520Y-95182850D01*
X72859030Y-95160671D01*
X72850765Y-95137572D01*
X72844804Y-95113773D01*
X72841204Y-95089505D01*
X72840000Y-95065001D01*
X72840000Y-94164999D01*
X72841204Y-94140495D01*
X72844804Y-94116227D01*
X72850765Y-94092428D01*
X72859030Y-94069329D01*
X72869520Y-94047150D01*
X72882132Y-94026107D01*
X72896747Y-94006401D01*
X72913223Y-93988223D01*
X72931401Y-93971747D01*
X72951107Y-93957132D01*
X72972150Y-93944520D01*
X72994329Y-93934030D01*
X73017428Y-93925765D01*
X73041227Y-93919804D01*
X73065495Y-93916204D01*
X73089999Y-93915000D01*
X73740001Y-93915000D01*
X73764505Y-93916204D01*
X73764505Y-93916204D01*
G37*
D18*
X73415000Y-94615000D03*
D19*
X84328000Y-135382000D03*
X81788000Y-135382000D03*
X79248000Y-135382000D03*
D20*
X76708000Y-135382000D03*
D17*
G36*
X87572504Y-130190204D02*
G01*
X87596773Y-130193804D01*
X87620571Y-130199765D01*
X87643671Y-130208030D01*
X87665849Y-130218520D01*
X87686893Y-130231133D01*
X87706598Y-130245747D01*
X87724777Y-130262223D01*
X87741253Y-130280402D01*
X87755867Y-130300107D01*
X87768480Y-130321151D01*
X87778970Y-130343329D01*
X87787235Y-130366429D01*
X87793196Y-130390227D01*
X87796796Y-130414496D01*
X87798000Y-130439000D01*
X87798000Y-131689000D01*
X87796796Y-131713504D01*
X87793196Y-131737773D01*
X87787235Y-131761571D01*
X87778970Y-131784671D01*
X87768480Y-131806849D01*
X87755867Y-131827893D01*
X87741253Y-131847598D01*
X87724777Y-131865777D01*
X87706598Y-131882253D01*
X87686893Y-131896867D01*
X87665849Y-131909480D01*
X87643671Y-131919970D01*
X87620571Y-131928235D01*
X87596773Y-131934196D01*
X87572504Y-131937796D01*
X87548000Y-131939000D01*
X86623000Y-131939000D01*
X86598496Y-131937796D01*
X86574227Y-131934196D01*
X86550429Y-131928235D01*
X86527329Y-131919970D01*
X86505151Y-131909480D01*
X86484107Y-131896867D01*
X86464402Y-131882253D01*
X86446223Y-131865777D01*
X86429747Y-131847598D01*
X86415133Y-131827893D01*
X86402520Y-131806849D01*
X86392030Y-131784671D01*
X86383765Y-131761571D01*
X86377804Y-131737773D01*
X86374204Y-131713504D01*
X86373000Y-131689000D01*
X86373000Y-130439000D01*
X86374204Y-130414496D01*
X86377804Y-130390227D01*
X86383765Y-130366429D01*
X86392030Y-130343329D01*
X86402520Y-130321151D01*
X86415133Y-130300107D01*
X86429747Y-130280402D01*
X86446223Y-130262223D01*
X86464402Y-130245747D01*
X86484107Y-130231133D01*
X86505151Y-130218520D01*
X86527329Y-130208030D01*
X86550429Y-130199765D01*
X86574227Y-130193804D01*
X86598496Y-130190204D01*
X86623000Y-130189000D01*
X87548000Y-130189000D01*
X87572504Y-130190204D01*
X87572504Y-130190204D01*
G37*
D21*
X87085500Y-131064000D03*
D17*
G36*
X84597504Y-130190204D02*
G01*
X84621773Y-130193804D01*
X84645571Y-130199765D01*
X84668671Y-130208030D01*
X84690849Y-130218520D01*
X84711893Y-130231133D01*
X84731598Y-130245747D01*
X84749777Y-130262223D01*
X84766253Y-130280402D01*
X84780867Y-130300107D01*
X84793480Y-130321151D01*
X84803970Y-130343329D01*
X84812235Y-130366429D01*
X84818196Y-130390227D01*
X84821796Y-130414496D01*
X84823000Y-130439000D01*
X84823000Y-131689000D01*
X84821796Y-131713504D01*
X84818196Y-131737773D01*
X84812235Y-131761571D01*
X84803970Y-131784671D01*
X84793480Y-131806849D01*
X84780867Y-131827893D01*
X84766253Y-131847598D01*
X84749777Y-131865777D01*
X84731598Y-131882253D01*
X84711893Y-131896867D01*
X84690849Y-131909480D01*
X84668671Y-131919970D01*
X84645571Y-131928235D01*
X84621773Y-131934196D01*
X84597504Y-131937796D01*
X84573000Y-131939000D01*
X83648000Y-131939000D01*
X83623496Y-131937796D01*
X83599227Y-131934196D01*
X83575429Y-131928235D01*
X83552329Y-131919970D01*
X83530151Y-131909480D01*
X83509107Y-131896867D01*
X83489402Y-131882253D01*
X83471223Y-131865777D01*
X83454747Y-131847598D01*
X83440133Y-131827893D01*
X83427520Y-131806849D01*
X83417030Y-131784671D01*
X83408765Y-131761571D01*
X83402804Y-131737773D01*
X83399204Y-131713504D01*
X83398000Y-131689000D01*
X83398000Y-130439000D01*
X83399204Y-130414496D01*
X83402804Y-130390227D01*
X83408765Y-130366429D01*
X83417030Y-130343329D01*
X83427520Y-130321151D01*
X83440133Y-130300107D01*
X83454747Y-130280402D01*
X83471223Y-130262223D01*
X83489402Y-130245747D01*
X83509107Y-130231133D01*
X83530151Y-130218520D01*
X83552329Y-130208030D01*
X83575429Y-130199765D01*
X83599227Y-130193804D01*
X83623496Y-130190204D01*
X83648000Y-130189000D01*
X84573000Y-130189000D01*
X84597504Y-130190204D01*
X84597504Y-130190204D01*
G37*
D21*
X84110500Y-131064000D03*
D22*
X88072000Y-99525000D03*
X86172000Y-99525000D03*
X86172000Y-97325000D03*
D23*
X87892000Y-97325000D03*
D17*
G36*
X82146505Y-131635204D02*
G01*
X82170773Y-131638804D01*
X82194572Y-131644765D01*
X82217671Y-131653030D01*
X82239850Y-131663520D01*
X82260893Y-131676132D01*
X82280599Y-131690747D01*
X82298777Y-131707223D01*
X82315253Y-131725401D01*
X82329868Y-131745107D01*
X82342480Y-131766150D01*
X82352970Y-131788329D01*
X82361235Y-131811428D01*
X82367196Y-131835227D01*
X82370796Y-131859495D01*
X82372000Y-131883999D01*
X82372000Y-132784001D01*
X82370796Y-132808505D01*
X82367196Y-132832773D01*
X82361235Y-132856572D01*
X82352970Y-132879671D01*
X82342480Y-132901850D01*
X82329868Y-132922893D01*
X82315253Y-132942599D01*
X82298777Y-132960777D01*
X82280599Y-132977253D01*
X82260893Y-132991868D01*
X82239850Y-133004480D01*
X82217671Y-133014970D01*
X82194572Y-133023235D01*
X82170773Y-133029196D01*
X82146505Y-133032796D01*
X82122001Y-133034000D01*
X81471999Y-133034000D01*
X81447495Y-133032796D01*
X81423227Y-133029196D01*
X81399428Y-133023235D01*
X81376329Y-133014970D01*
X81354150Y-133004480D01*
X81333107Y-132991868D01*
X81313401Y-132977253D01*
X81295223Y-132960777D01*
X81278747Y-132942599D01*
X81264132Y-132922893D01*
X81251520Y-132901850D01*
X81241030Y-132879671D01*
X81232765Y-132856572D01*
X81226804Y-132832773D01*
X81223204Y-132808505D01*
X81222000Y-132784001D01*
X81222000Y-131883999D01*
X81223204Y-131859495D01*
X81226804Y-131835227D01*
X81232765Y-131811428D01*
X81241030Y-131788329D01*
X81251520Y-131766150D01*
X81264132Y-131745107D01*
X81278747Y-131725401D01*
X81295223Y-131707223D01*
X81313401Y-131690747D01*
X81333107Y-131676132D01*
X81354150Y-131663520D01*
X81376329Y-131653030D01*
X81399428Y-131644765D01*
X81423227Y-131638804D01*
X81447495Y-131635204D01*
X81471999Y-131634000D01*
X82122001Y-131634000D01*
X82146505Y-131635204D01*
X82146505Y-131635204D01*
G37*
D18*
X81797000Y-132334000D03*
D17*
G36*
X80096505Y-131635204D02*
G01*
X80120773Y-131638804D01*
X80144572Y-131644765D01*
X80167671Y-131653030D01*
X80189850Y-131663520D01*
X80210893Y-131676132D01*
X80230599Y-131690747D01*
X80248777Y-131707223D01*
X80265253Y-131725401D01*
X80279868Y-131745107D01*
X80292480Y-131766150D01*
X80302970Y-131788329D01*
X80311235Y-131811428D01*
X80317196Y-131835227D01*
X80320796Y-131859495D01*
X80322000Y-131883999D01*
X80322000Y-132784001D01*
X80320796Y-132808505D01*
X80317196Y-132832773D01*
X80311235Y-132856572D01*
X80302970Y-132879671D01*
X80292480Y-132901850D01*
X80279868Y-132922893D01*
X80265253Y-132942599D01*
X80248777Y-132960777D01*
X80230599Y-132977253D01*
X80210893Y-132991868D01*
X80189850Y-133004480D01*
X80167671Y-133014970D01*
X80144572Y-133023235D01*
X80120773Y-133029196D01*
X80096505Y-133032796D01*
X80072001Y-133034000D01*
X79421999Y-133034000D01*
X79397495Y-133032796D01*
X79373227Y-133029196D01*
X79349428Y-133023235D01*
X79326329Y-133014970D01*
X79304150Y-133004480D01*
X79283107Y-132991868D01*
X79263401Y-132977253D01*
X79245223Y-132960777D01*
X79228747Y-132942599D01*
X79214132Y-132922893D01*
X79201520Y-132901850D01*
X79191030Y-132879671D01*
X79182765Y-132856572D01*
X79176804Y-132832773D01*
X79173204Y-132808505D01*
X79172000Y-132784001D01*
X79172000Y-131883999D01*
X79173204Y-131859495D01*
X79176804Y-131835227D01*
X79182765Y-131811428D01*
X79191030Y-131788329D01*
X79201520Y-131766150D01*
X79214132Y-131745107D01*
X79228747Y-131725401D01*
X79245223Y-131707223D01*
X79263401Y-131690747D01*
X79283107Y-131676132D01*
X79304150Y-131663520D01*
X79326329Y-131653030D01*
X79349428Y-131644765D01*
X79373227Y-131638804D01*
X79397495Y-131635204D01*
X79421999Y-131634000D01*
X80072001Y-131634000D01*
X80096505Y-131635204D01*
X80096505Y-131635204D01*
G37*
D18*
X79747000Y-132334000D03*
D17*
G36*
X82146505Y-129349204D02*
G01*
X82170773Y-129352804D01*
X82194572Y-129358765D01*
X82217671Y-129367030D01*
X82239850Y-129377520D01*
X82260893Y-129390132D01*
X82280599Y-129404747D01*
X82298777Y-129421223D01*
X82315253Y-129439401D01*
X82329868Y-129459107D01*
X82342480Y-129480150D01*
X82352970Y-129502329D01*
X82361235Y-129525428D01*
X82367196Y-129549227D01*
X82370796Y-129573495D01*
X82372000Y-129597999D01*
X82372000Y-130498001D01*
X82370796Y-130522505D01*
X82367196Y-130546773D01*
X82361235Y-130570572D01*
X82352970Y-130593671D01*
X82342480Y-130615850D01*
X82329868Y-130636893D01*
X82315253Y-130656599D01*
X82298777Y-130674777D01*
X82280599Y-130691253D01*
X82260893Y-130705868D01*
X82239850Y-130718480D01*
X82217671Y-130728970D01*
X82194572Y-130737235D01*
X82170773Y-130743196D01*
X82146505Y-130746796D01*
X82122001Y-130748000D01*
X81471999Y-130748000D01*
X81447495Y-130746796D01*
X81423227Y-130743196D01*
X81399428Y-130737235D01*
X81376329Y-130728970D01*
X81354150Y-130718480D01*
X81333107Y-130705868D01*
X81313401Y-130691253D01*
X81295223Y-130674777D01*
X81278747Y-130656599D01*
X81264132Y-130636893D01*
X81251520Y-130615850D01*
X81241030Y-130593671D01*
X81232765Y-130570572D01*
X81226804Y-130546773D01*
X81223204Y-130522505D01*
X81222000Y-130498001D01*
X81222000Y-129597999D01*
X81223204Y-129573495D01*
X81226804Y-129549227D01*
X81232765Y-129525428D01*
X81241030Y-129502329D01*
X81251520Y-129480150D01*
X81264132Y-129459107D01*
X81278747Y-129439401D01*
X81295223Y-129421223D01*
X81313401Y-129404747D01*
X81333107Y-129390132D01*
X81354150Y-129377520D01*
X81376329Y-129367030D01*
X81399428Y-129358765D01*
X81423227Y-129352804D01*
X81447495Y-129349204D01*
X81471999Y-129348000D01*
X82122001Y-129348000D01*
X82146505Y-129349204D01*
X82146505Y-129349204D01*
G37*
D18*
X81797000Y-130048000D03*
D17*
G36*
X80096505Y-129349204D02*
G01*
X80120773Y-129352804D01*
X80144572Y-129358765D01*
X80167671Y-129367030D01*
X80189850Y-129377520D01*
X80210893Y-129390132D01*
X80230599Y-129404747D01*
X80248777Y-129421223D01*
X80265253Y-129439401D01*
X80279868Y-129459107D01*
X80292480Y-129480150D01*
X80302970Y-129502329D01*
X80311235Y-129525428D01*
X80317196Y-129549227D01*
X80320796Y-129573495D01*
X80322000Y-129597999D01*
X80322000Y-130498001D01*
X80320796Y-130522505D01*
X80317196Y-130546773D01*
X80311235Y-130570572D01*
X80302970Y-130593671D01*
X80292480Y-130615850D01*
X80279868Y-130636893D01*
X80265253Y-130656599D01*
X80248777Y-130674777D01*
X80230599Y-130691253D01*
X80210893Y-130705868D01*
X80189850Y-130718480D01*
X80167671Y-130728970D01*
X80144572Y-130737235D01*
X80120773Y-130743196D01*
X80096505Y-130746796D01*
X80072001Y-130748000D01*
X79421999Y-130748000D01*
X79397495Y-130746796D01*
X79373227Y-130743196D01*
X79349428Y-130737235D01*
X79326329Y-130728970D01*
X79304150Y-130718480D01*
X79283107Y-130705868D01*
X79263401Y-130691253D01*
X79245223Y-130674777D01*
X79228747Y-130656599D01*
X79214132Y-130636893D01*
X79201520Y-130615850D01*
X79191030Y-130593671D01*
X79182765Y-130570572D01*
X79176804Y-130546773D01*
X79173204Y-130522505D01*
X79172000Y-130498001D01*
X79172000Y-129597999D01*
X79173204Y-129573495D01*
X79176804Y-129549227D01*
X79182765Y-129525428D01*
X79191030Y-129502329D01*
X79201520Y-129480150D01*
X79214132Y-129459107D01*
X79228747Y-129439401D01*
X79245223Y-129421223D01*
X79263401Y-129404747D01*
X79283107Y-129390132D01*
X79304150Y-129377520D01*
X79326329Y-129367030D01*
X79349428Y-129358765D01*
X79373227Y-129352804D01*
X79397495Y-129349204D01*
X79421999Y-129348000D01*
X80072001Y-129348000D01*
X80096505Y-129349204D01*
X80096505Y-129349204D01*
G37*
D18*
X79747000Y-130048000D03*
D17*
G36*
X80230505Y-126816204D02*
G01*
X80254773Y-126819804D01*
X80278572Y-126825765D01*
X80301671Y-126834030D01*
X80323850Y-126844520D01*
X80344893Y-126857132D01*
X80364599Y-126871747D01*
X80382777Y-126888223D01*
X80399253Y-126906401D01*
X80413868Y-126926107D01*
X80426480Y-126947150D01*
X80436970Y-126969329D01*
X80445235Y-126992428D01*
X80451196Y-127016227D01*
X80454796Y-127040495D01*
X80456000Y-127064999D01*
X80456000Y-127715001D01*
X80454796Y-127739505D01*
X80451196Y-127763773D01*
X80445235Y-127787572D01*
X80436970Y-127810671D01*
X80426480Y-127832850D01*
X80413868Y-127853893D01*
X80399253Y-127873599D01*
X80382777Y-127891777D01*
X80364599Y-127908253D01*
X80344893Y-127922868D01*
X80323850Y-127935480D01*
X80301671Y-127945970D01*
X80278572Y-127954235D01*
X80254773Y-127960196D01*
X80230505Y-127963796D01*
X80206001Y-127965000D01*
X79305999Y-127965000D01*
X79281495Y-127963796D01*
X79257227Y-127960196D01*
X79233428Y-127954235D01*
X79210329Y-127945970D01*
X79188150Y-127935480D01*
X79167107Y-127922868D01*
X79147401Y-127908253D01*
X79129223Y-127891777D01*
X79112747Y-127873599D01*
X79098132Y-127853893D01*
X79085520Y-127832850D01*
X79075030Y-127810671D01*
X79066765Y-127787572D01*
X79060804Y-127763773D01*
X79057204Y-127739505D01*
X79056000Y-127715001D01*
X79056000Y-127064999D01*
X79057204Y-127040495D01*
X79060804Y-127016227D01*
X79066765Y-126992428D01*
X79075030Y-126969329D01*
X79085520Y-126947150D01*
X79098132Y-126926107D01*
X79112747Y-126906401D01*
X79129223Y-126888223D01*
X79147401Y-126871747D01*
X79167107Y-126857132D01*
X79188150Y-126844520D01*
X79210329Y-126834030D01*
X79233428Y-126825765D01*
X79257227Y-126819804D01*
X79281495Y-126816204D01*
X79305999Y-126815000D01*
X80206001Y-126815000D01*
X80230505Y-126816204D01*
X80230505Y-126816204D01*
G37*
D18*
X79756000Y-127390000D03*
D17*
G36*
X80230505Y-124766204D02*
G01*
X80254773Y-124769804D01*
X80278572Y-124775765D01*
X80301671Y-124784030D01*
X80323850Y-124794520D01*
X80344893Y-124807132D01*
X80364599Y-124821747D01*
X80382777Y-124838223D01*
X80399253Y-124856401D01*
X80413868Y-124876107D01*
X80426480Y-124897150D01*
X80436970Y-124919329D01*
X80445235Y-124942428D01*
X80451196Y-124966227D01*
X80454796Y-124990495D01*
X80456000Y-125014999D01*
X80456000Y-125665001D01*
X80454796Y-125689505D01*
X80451196Y-125713773D01*
X80445235Y-125737572D01*
X80436970Y-125760671D01*
X80426480Y-125782850D01*
X80413868Y-125803893D01*
X80399253Y-125823599D01*
X80382777Y-125841777D01*
X80364599Y-125858253D01*
X80344893Y-125872868D01*
X80323850Y-125885480D01*
X80301671Y-125895970D01*
X80278572Y-125904235D01*
X80254773Y-125910196D01*
X80230505Y-125913796D01*
X80206001Y-125915000D01*
X79305999Y-125915000D01*
X79281495Y-125913796D01*
X79257227Y-125910196D01*
X79233428Y-125904235D01*
X79210329Y-125895970D01*
X79188150Y-125885480D01*
X79167107Y-125872868D01*
X79147401Y-125858253D01*
X79129223Y-125841777D01*
X79112747Y-125823599D01*
X79098132Y-125803893D01*
X79085520Y-125782850D01*
X79075030Y-125760671D01*
X79066765Y-125737572D01*
X79060804Y-125713773D01*
X79057204Y-125689505D01*
X79056000Y-125665001D01*
X79056000Y-125014999D01*
X79057204Y-124990495D01*
X79060804Y-124966227D01*
X79066765Y-124942428D01*
X79075030Y-124919329D01*
X79085520Y-124897150D01*
X79098132Y-124876107D01*
X79112747Y-124856401D01*
X79129223Y-124838223D01*
X79147401Y-124821747D01*
X79167107Y-124807132D01*
X79188150Y-124794520D01*
X79210329Y-124784030D01*
X79233428Y-124775765D01*
X79257227Y-124769804D01*
X79281495Y-124766204D01*
X79305999Y-124765000D01*
X80206001Y-124765000D01*
X80230505Y-124766204D01*
X80230505Y-124766204D01*
G37*
D18*
X79756000Y-125340000D03*
D17*
G36*
X82516505Y-126816204D02*
G01*
X82540773Y-126819804D01*
X82564572Y-126825765D01*
X82587671Y-126834030D01*
X82609850Y-126844520D01*
X82630893Y-126857132D01*
X82650599Y-126871747D01*
X82668777Y-126888223D01*
X82685253Y-126906401D01*
X82699868Y-126926107D01*
X82712480Y-126947150D01*
X82722970Y-126969329D01*
X82731235Y-126992428D01*
X82737196Y-127016227D01*
X82740796Y-127040495D01*
X82742000Y-127064999D01*
X82742000Y-127715001D01*
X82740796Y-127739505D01*
X82737196Y-127763773D01*
X82731235Y-127787572D01*
X82722970Y-127810671D01*
X82712480Y-127832850D01*
X82699868Y-127853893D01*
X82685253Y-127873599D01*
X82668777Y-127891777D01*
X82650599Y-127908253D01*
X82630893Y-127922868D01*
X82609850Y-127935480D01*
X82587671Y-127945970D01*
X82564572Y-127954235D01*
X82540773Y-127960196D01*
X82516505Y-127963796D01*
X82492001Y-127965000D01*
X81591999Y-127965000D01*
X81567495Y-127963796D01*
X81543227Y-127960196D01*
X81519428Y-127954235D01*
X81496329Y-127945970D01*
X81474150Y-127935480D01*
X81453107Y-127922868D01*
X81433401Y-127908253D01*
X81415223Y-127891777D01*
X81398747Y-127873599D01*
X81384132Y-127853893D01*
X81371520Y-127832850D01*
X81361030Y-127810671D01*
X81352765Y-127787572D01*
X81346804Y-127763773D01*
X81343204Y-127739505D01*
X81342000Y-127715001D01*
X81342000Y-127064999D01*
X81343204Y-127040495D01*
X81346804Y-127016227D01*
X81352765Y-126992428D01*
X81361030Y-126969329D01*
X81371520Y-126947150D01*
X81384132Y-126926107D01*
X81398747Y-126906401D01*
X81415223Y-126888223D01*
X81433401Y-126871747D01*
X81453107Y-126857132D01*
X81474150Y-126844520D01*
X81496329Y-126834030D01*
X81519428Y-126825765D01*
X81543227Y-126819804D01*
X81567495Y-126816204D01*
X81591999Y-126815000D01*
X82492001Y-126815000D01*
X82516505Y-126816204D01*
X82516505Y-126816204D01*
G37*
D18*
X82042000Y-127390000D03*
D17*
G36*
X82516505Y-124766204D02*
G01*
X82540773Y-124769804D01*
X82564572Y-124775765D01*
X82587671Y-124784030D01*
X82609850Y-124794520D01*
X82630893Y-124807132D01*
X82650599Y-124821747D01*
X82668777Y-124838223D01*
X82685253Y-124856401D01*
X82699868Y-124876107D01*
X82712480Y-124897150D01*
X82722970Y-124919329D01*
X82731235Y-124942428D01*
X82737196Y-124966227D01*
X82740796Y-124990495D01*
X82742000Y-125014999D01*
X82742000Y-125665001D01*
X82740796Y-125689505D01*
X82737196Y-125713773D01*
X82731235Y-125737572D01*
X82722970Y-125760671D01*
X82712480Y-125782850D01*
X82699868Y-125803893D01*
X82685253Y-125823599D01*
X82668777Y-125841777D01*
X82650599Y-125858253D01*
X82630893Y-125872868D01*
X82609850Y-125885480D01*
X82587671Y-125895970D01*
X82564572Y-125904235D01*
X82540773Y-125910196D01*
X82516505Y-125913796D01*
X82492001Y-125915000D01*
X81591999Y-125915000D01*
X81567495Y-125913796D01*
X81543227Y-125910196D01*
X81519428Y-125904235D01*
X81496329Y-125895970D01*
X81474150Y-125885480D01*
X81453107Y-125872868D01*
X81433401Y-125858253D01*
X81415223Y-125841777D01*
X81398747Y-125823599D01*
X81384132Y-125803893D01*
X81371520Y-125782850D01*
X81361030Y-125760671D01*
X81352765Y-125737572D01*
X81346804Y-125713773D01*
X81343204Y-125689505D01*
X81342000Y-125665001D01*
X81342000Y-125014999D01*
X81343204Y-124990495D01*
X81346804Y-124966227D01*
X81352765Y-124942428D01*
X81361030Y-124919329D01*
X81371520Y-124897150D01*
X81384132Y-124876107D01*
X81398747Y-124856401D01*
X81415223Y-124838223D01*
X81433401Y-124821747D01*
X81453107Y-124807132D01*
X81474150Y-124794520D01*
X81496329Y-124784030D01*
X81519428Y-124775765D01*
X81543227Y-124769804D01*
X81567495Y-124766204D01*
X81591999Y-124765000D01*
X82492001Y-124765000D01*
X82516505Y-124766204D01*
X82516505Y-124766204D01*
G37*
D18*
X82042000Y-125340000D03*
D17*
G36*
X87088505Y-126816204D02*
G01*
X87112773Y-126819804D01*
X87136572Y-126825765D01*
X87159671Y-126834030D01*
X87181850Y-126844520D01*
X87202893Y-126857132D01*
X87222599Y-126871747D01*
X87240777Y-126888223D01*
X87257253Y-126906401D01*
X87271868Y-126926107D01*
X87284480Y-126947150D01*
X87294970Y-126969329D01*
X87303235Y-126992428D01*
X87309196Y-127016227D01*
X87312796Y-127040495D01*
X87314000Y-127064999D01*
X87314000Y-127715001D01*
X87312796Y-127739505D01*
X87309196Y-127763773D01*
X87303235Y-127787572D01*
X87294970Y-127810671D01*
X87284480Y-127832850D01*
X87271868Y-127853893D01*
X87257253Y-127873599D01*
X87240777Y-127891777D01*
X87222599Y-127908253D01*
X87202893Y-127922868D01*
X87181850Y-127935480D01*
X87159671Y-127945970D01*
X87136572Y-127954235D01*
X87112773Y-127960196D01*
X87088505Y-127963796D01*
X87064001Y-127965000D01*
X86163999Y-127965000D01*
X86139495Y-127963796D01*
X86115227Y-127960196D01*
X86091428Y-127954235D01*
X86068329Y-127945970D01*
X86046150Y-127935480D01*
X86025107Y-127922868D01*
X86005401Y-127908253D01*
X85987223Y-127891777D01*
X85970747Y-127873599D01*
X85956132Y-127853893D01*
X85943520Y-127832850D01*
X85933030Y-127810671D01*
X85924765Y-127787572D01*
X85918804Y-127763773D01*
X85915204Y-127739505D01*
X85914000Y-127715001D01*
X85914000Y-127064999D01*
X85915204Y-127040495D01*
X85918804Y-127016227D01*
X85924765Y-126992428D01*
X85933030Y-126969329D01*
X85943520Y-126947150D01*
X85956132Y-126926107D01*
X85970747Y-126906401D01*
X85987223Y-126888223D01*
X86005401Y-126871747D01*
X86025107Y-126857132D01*
X86046150Y-126844520D01*
X86068329Y-126834030D01*
X86091428Y-126825765D01*
X86115227Y-126819804D01*
X86139495Y-126816204D01*
X86163999Y-126815000D01*
X87064001Y-126815000D01*
X87088505Y-126816204D01*
X87088505Y-126816204D01*
G37*
D18*
X86614000Y-127390000D03*
D17*
G36*
X87088505Y-124766204D02*
G01*
X87112773Y-124769804D01*
X87136572Y-124775765D01*
X87159671Y-124784030D01*
X87181850Y-124794520D01*
X87202893Y-124807132D01*
X87222599Y-124821747D01*
X87240777Y-124838223D01*
X87257253Y-124856401D01*
X87271868Y-124876107D01*
X87284480Y-124897150D01*
X87294970Y-124919329D01*
X87303235Y-124942428D01*
X87309196Y-124966227D01*
X87312796Y-124990495D01*
X87314000Y-125014999D01*
X87314000Y-125665001D01*
X87312796Y-125689505D01*
X87309196Y-125713773D01*
X87303235Y-125737572D01*
X87294970Y-125760671D01*
X87284480Y-125782850D01*
X87271868Y-125803893D01*
X87257253Y-125823599D01*
X87240777Y-125841777D01*
X87222599Y-125858253D01*
X87202893Y-125872868D01*
X87181850Y-125885480D01*
X87159671Y-125895970D01*
X87136572Y-125904235D01*
X87112773Y-125910196D01*
X87088505Y-125913796D01*
X87064001Y-125915000D01*
X86163999Y-125915000D01*
X86139495Y-125913796D01*
X86115227Y-125910196D01*
X86091428Y-125904235D01*
X86068329Y-125895970D01*
X86046150Y-125885480D01*
X86025107Y-125872868D01*
X86005401Y-125858253D01*
X85987223Y-125841777D01*
X85970747Y-125823599D01*
X85956132Y-125803893D01*
X85943520Y-125782850D01*
X85933030Y-125760671D01*
X85924765Y-125737572D01*
X85918804Y-125713773D01*
X85915204Y-125689505D01*
X85914000Y-125665001D01*
X85914000Y-125014999D01*
X85915204Y-124990495D01*
X85918804Y-124966227D01*
X85924765Y-124942428D01*
X85933030Y-124919329D01*
X85943520Y-124897150D01*
X85956132Y-124876107D01*
X85970747Y-124856401D01*
X85987223Y-124838223D01*
X86005401Y-124821747D01*
X86025107Y-124807132D01*
X86046150Y-124794520D01*
X86068329Y-124784030D01*
X86091428Y-124775765D01*
X86115227Y-124769804D01*
X86139495Y-124766204D01*
X86163999Y-124765000D01*
X87064001Y-124765000D01*
X87088505Y-124766204D01*
X87088505Y-124766204D01*
G37*
D18*
X86614000Y-125340000D03*
D17*
G36*
X84802505Y-126816204D02*
G01*
X84826773Y-126819804D01*
X84850572Y-126825765D01*
X84873671Y-126834030D01*
X84895850Y-126844520D01*
X84916893Y-126857132D01*
X84936599Y-126871747D01*
X84954777Y-126888223D01*
X84971253Y-126906401D01*
X84985868Y-126926107D01*
X84998480Y-126947150D01*
X85008970Y-126969329D01*
X85017235Y-126992428D01*
X85023196Y-127016227D01*
X85026796Y-127040495D01*
X85028000Y-127064999D01*
X85028000Y-127715001D01*
X85026796Y-127739505D01*
X85023196Y-127763773D01*
X85017235Y-127787572D01*
X85008970Y-127810671D01*
X84998480Y-127832850D01*
X84985868Y-127853893D01*
X84971253Y-127873599D01*
X84954777Y-127891777D01*
X84936599Y-127908253D01*
X84916893Y-127922868D01*
X84895850Y-127935480D01*
X84873671Y-127945970D01*
X84850572Y-127954235D01*
X84826773Y-127960196D01*
X84802505Y-127963796D01*
X84778001Y-127965000D01*
X83877999Y-127965000D01*
X83853495Y-127963796D01*
X83829227Y-127960196D01*
X83805428Y-127954235D01*
X83782329Y-127945970D01*
X83760150Y-127935480D01*
X83739107Y-127922868D01*
X83719401Y-127908253D01*
X83701223Y-127891777D01*
X83684747Y-127873599D01*
X83670132Y-127853893D01*
X83657520Y-127832850D01*
X83647030Y-127810671D01*
X83638765Y-127787572D01*
X83632804Y-127763773D01*
X83629204Y-127739505D01*
X83628000Y-127715001D01*
X83628000Y-127064999D01*
X83629204Y-127040495D01*
X83632804Y-127016227D01*
X83638765Y-126992428D01*
X83647030Y-126969329D01*
X83657520Y-126947150D01*
X83670132Y-126926107D01*
X83684747Y-126906401D01*
X83701223Y-126888223D01*
X83719401Y-126871747D01*
X83739107Y-126857132D01*
X83760150Y-126844520D01*
X83782329Y-126834030D01*
X83805428Y-126825765D01*
X83829227Y-126819804D01*
X83853495Y-126816204D01*
X83877999Y-126815000D01*
X84778001Y-126815000D01*
X84802505Y-126816204D01*
X84802505Y-126816204D01*
G37*
D18*
X84328000Y-127390000D03*
D17*
G36*
X84802505Y-124766204D02*
G01*
X84826773Y-124769804D01*
X84850572Y-124775765D01*
X84873671Y-124784030D01*
X84895850Y-124794520D01*
X84916893Y-124807132D01*
X84936599Y-124821747D01*
X84954777Y-124838223D01*
X84971253Y-124856401D01*
X84985868Y-124876107D01*
X84998480Y-124897150D01*
X85008970Y-124919329D01*
X85017235Y-124942428D01*
X85023196Y-124966227D01*
X85026796Y-124990495D01*
X85028000Y-125014999D01*
X85028000Y-125665001D01*
X85026796Y-125689505D01*
X85023196Y-125713773D01*
X85017235Y-125737572D01*
X85008970Y-125760671D01*
X84998480Y-125782850D01*
X84985868Y-125803893D01*
X84971253Y-125823599D01*
X84954777Y-125841777D01*
X84936599Y-125858253D01*
X84916893Y-125872868D01*
X84895850Y-125885480D01*
X84873671Y-125895970D01*
X84850572Y-125904235D01*
X84826773Y-125910196D01*
X84802505Y-125913796D01*
X84778001Y-125915000D01*
X83877999Y-125915000D01*
X83853495Y-125913796D01*
X83829227Y-125910196D01*
X83805428Y-125904235D01*
X83782329Y-125895970D01*
X83760150Y-125885480D01*
X83739107Y-125872868D01*
X83719401Y-125858253D01*
X83701223Y-125841777D01*
X83684747Y-125823599D01*
X83670132Y-125803893D01*
X83657520Y-125782850D01*
X83647030Y-125760671D01*
X83638765Y-125737572D01*
X83632804Y-125713773D01*
X83629204Y-125689505D01*
X83628000Y-125665001D01*
X83628000Y-125014999D01*
X83629204Y-124990495D01*
X83632804Y-124966227D01*
X83638765Y-124942428D01*
X83647030Y-124919329D01*
X83657520Y-124897150D01*
X83670132Y-124876107D01*
X83684747Y-124856401D01*
X83701223Y-124838223D01*
X83719401Y-124821747D01*
X83739107Y-124807132D01*
X83760150Y-124794520D01*
X83782329Y-124784030D01*
X83805428Y-124775765D01*
X83829227Y-124769804D01*
X83853495Y-124766204D01*
X83877999Y-124765000D01*
X84778001Y-124765000D01*
X84802505Y-124766204D01*
X84802505Y-124766204D01*
G37*
D18*
X84328000Y-125340000D03*
D17*
G36*
X73764505Y-98996204D02*
G01*
X73788773Y-98999804D01*
X73812572Y-99005765D01*
X73835671Y-99014030D01*
X73857850Y-99024520D01*
X73878893Y-99037132D01*
X73898599Y-99051747D01*
X73916777Y-99068223D01*
X73933253Y-99086401D01*
X73947868Y-99106107D01*
X73960480Y-99127150D01*
X73970970Y-99149329D01*
X73979235Y-99172428D01*
X73985196Y-99196227D01*
X73988796Y-99220495D01*
X73990000Y-99244999D01*
X73990000Y-100145001D01*
X73988796Y-100169505D01*
X73985196Y-100193773D01*
X73979235Y-100217572D01*
X73970970Y-100240671D01*
X73960480Y-100262850D01*
X73947868Y-100283893D01*
X73933253Y-100303599D01*
X73916777Y-100321777D01*
X73898599Y-100338253D01*
X73878893Y-100352868D01*
X73857850Y-100365480D01*
X73835671Y-100375970D01*
X73812572Y-100384235D01*
X73788773Y-100390196D01*
X73764505Y-100393796D01*
X73740001Y-100395000D01*
X73089999Y-100395000D01*
X73065495Y-100393796D01*
X73041227Y-100390196D01*
X73017428Y-100384235D01*
X72994329Y-100375970D01*
X72972150Y-100365480D01*
X72951107Y-100352868D01*
X72931401Y-100338253D01*
X72913223Y-100321777D01*
X72896747Y-100303599D01*
X72882132Y-100283893D01*
X72869520Y-100262850D01*
X72859030Y-100240671D01*
X72850765Y-100217572D01*
X72844804Y-100193773D01*
X72841204Y-100169505D01*
X72840000Y-100145001D01*
X72840000Y-99244999D01*
X72841204Y-99220495D01*
X72844804Y-99196227D01*
X72850765Y-99172428D01*
X72859030Y-99149329D01*
X72869520Y-99127150D01*
X72882132Y-99106107D01*
X72896747Y-99086401D01*
X72913223Y-99068223D01*
X72931401Y-99051747D01*
X72951107Y-99037132D01*
X72972150Y-99024520D01*
X72994329Y-99014030D01*
X73017428Y-99005765D01*
X73041227Y-98999804D01*
X73065495Y-98996204D01*
X73089999Y-98995000D01*
X73740001Y-98995000D01*
X73764505Y-98996204D01*
X73764505Y-98996204D01*
G37*
D18*
X73415000Y-99695000D03*
D17*
G36*
X71714505Y-98996204D02*
G01*
X71738773Y-98999804D01*
X71762572Y-99005765D01*
X71785671Y-99014030D01*
X71807850Y-99024520D01*
X71828893Y-99037132D01*
X71848599Y-99051747D01*
X71866777Y-99068223D01*
X71883253Y-99086401D01*
X71897868Y-99106107D01*
X71910480Y-99127150D01*
X71920970Y-99149329D01*
X71929235Y-99172428D01*
X71935196Y-99196227D01*
X71938796Y-99220495D01*
X71940000Y-99244999D01*
X71940000Y-100145001D01*
X71938796Y-100169505D01*
X71935196Y-100193773D01*
X71929235Y-100217572D01*
X71920970Y-100240671D01*
X71910480Y-100262850D01*
X71897868Y-100283893D01*
X71883253Y-100303599D01*
X71866777Y-100321777D01*
X71848599Y-100338253D01*
X71828893Y-100352868D01*
X71807850Y-100365480D01*
X71785671Y-100375970D01*
X71762572Y-100384235D01*
X71738773Y-100390196D01*
X71714505Y-100393796D01*
X71690001Y-100395000D01*
X71039999Y-100395000D01*
X71015495Y-100393796D01*
X70991227Y-100390196D01*
X70967428Y-100384235D01*
X70944329Y-100375970D01*
X70922150Y-100365480D01*
X70901107Y-100352868D01*
X70881401Y-100338253D01*
X70863223Y-100321777D01*
X70846747Y-100303599D01*
X70832132Y-100283893D01*
X70819520Y-100262850D01*
X70809030Y-100240671D01*
X70800765Y-100217572D01*
X70794804Y-100193773D01*
X70791204Y-100169505D01*
X70790000Y-100145001D01*
X70790000Y-99244999D01*
X70791204Y-99220495D01*
X70794804Y-99196227D01*
X70800765Y-99172428D01*
X70809030Y-99149329D01*
X70819520Y-99127150D01*
X70832132Y-99106107D01*
X70846747Y-99086401D01*
X70863223Y-99068223D01*
X70881401Y-99051747D01*
X70901107Y-99037132D01*
X70922150Y-99024520D01*
X70944329Y-99014030D01*
X70967428Y-99005765D01*
X70991227Y-98999804D01*
X71015495Y-98996204D01*
X71039999Y-98995000D01*
X71690001Y-98995000D01*
X71714505Y-98996204D01*
X71714505Y-98996204D01*
G37*
D18*
X71365000Y-99695000D03*
D17*
G36*
X75912505Y-103811204D02*
G01*
X75936773Y-103814804D01*
X75960572Y-103820765D01*
X75983671Y-103829030D01*
X76005850Y-103839520D01*
X76026893Y-103852132D01*
X76046599Y-103866747D01*
X76064777Y-103883223D01*
X76081253Y-103901401D01*
X76095868Y-103921107D01*
X76108480Y-103942150D01*
X76118970Y-103964329D01*
X76127235Y-103987428D01*
X76133196Y-104011227D01*
X76136796Y-104035495D01*
X76138000Y-104059999D01*
X76138000Y-104710001D01*
X76136796Y-104734505D01*
X76133196Y-104758773D01*
X76127235Y-104782572D01*
X76118970Y-104805671D01*
X76108480Y-104827850D01*
X76095868Y-104848893D01*
X76081253Y-104868599D01*
X76064777Y-104886777D01*
X76046599Y-104903253D01*
X76026893Y-104917868D01*
X76005850Y-104930480D01*
X75983671Y-104940970D01*
X75960572Y-104949235D01*
X75936773Y-104955196D01*
X75912505Y-104958796D01*
X75888001Y-104960000D01*
X74987999Y-104960000D01*
X74963495Y-104958796D01*
X74939227Y-104955196D01*
X74915428Y-104949235D01*
X74892329Y-104940970D01*
X74870150Y-104930480D01*
X74849107Y-104917868D01*
X74829401Y-104903253D01*
X74811223Y-104886777D01*
X74794747Y-104868599D01*
X74780132Y-104848893D01*
X74767520Y-104827850D01*
X74757030Y-104805671D01*
X74748765Y-104782572D01*
X74742804Y-104758773D01*
X74739204Y-104734505D01*
X74738000Y-104710001D01*
X74738000Y-104059999D01*
X74739204Y-104035495D01*
X74742804Y-104011227D01*
X74748765Y-103987428D01*
X74757030Y-103964329D01*
X74767520Y-103942150D01*
X74780132Y-103921107D01*
X74794747Y-103901401D01*
X74811223Y-103883223D01*
X74829401Y-103866747D01*
X74849107Y-103852132D01*
X74870150Y-103839520D01*
X74892329Y-103829030D01*
X74915428Y-103820765D01*
X74939227Y-103814804D01*
X74963495Y-103811204D01*
X74987999Y-103810000D01*
X75888001Y-103810000D01*
X75912505Y-103811204D01*
X75912505Y-103811204D01*
G37*
D18*
X75438000Y-104385000D03*
D17*
G36*
X75912505Y-105861204D02*
G01*
X75936773Y-105864804D01*
X75960572Y-105870765D01*
X75983671Y-105879030D01*
X76005850Y-105889520D01*
X76026893Y-105902132D01*
X76046599Y-105916747D01*
X76064777Y-105933223D01*
X76081253Y-105951401D01*
X76095868Y-105971107D01*
X76108480Y-105992150D01*
X76118970Y-106014329D01*
X76127235Y-106037428D01*
X76133196Y-106061227D01*
X76136796Y-106085495D01*
X76138000Y-106109999D01*
X76138000Y-106760001D01*
X76136796Y-106784505D01*
X76133196Y-106808773D01*
X76127235Y-106832572D01*
X76118970Y-106855671D01*
X76108480Y-106877850D01*
X76095868Y-106898893D01*
X76081253Y-106918599D01*
X76064777Y-106936777D01*
X76046599Y-106953253D01*
X76026893Y-106967868D01*
X76005850Y-106980480D01*
X75983671Y-106990970D01*
X75960572Y-106999235D01*
X75936773Y-107005196D01*
X75912505Y-107008796D01*
X75888001Y-107010000D01*
X74987999Y-107010000D01*
X74963495Y-107008796D01*
X74939227Y-107005196D01*
X74915428Y-106999235D01*
X74892329Y-106990970D01*
X74870150Y-106980480D01*
X74849107Y-106967868D01*
X74829401Y-106953253D01*
X74811223Y-106936777D01*
X74794747Y-106918599D01*
X74780132Y-106898893D01*
X74767520Y-106877850D01*
X74757030Y-106855671D01*
X74748765Y-106832572D01*
X74742804Y-106808773D01*
X74739204Y-106784505D01*
X74738000Y-106760001D01*
X74738000Y-106109999D01*
X74739204Y-106085495D01*
X74742804Y-106061227D01*
X74748765Y-106037428D01*
X74757030Y-106014329D01*
X74767520Y-105992150D01*
X74780132Y-105971107D01*
X74794747Y-105951401D01*
X74811223Y-105933223D01*
X74829401Y-105916747D01*
X74849107Y-105902132D01*
X74870150Y-105889520D01*
X74892329Y-105879030D01*
X74915428Y-105870765D01*
X74939227Y-105864804D01*
X74963495Y-105861204D01*
X74987999Y-105860000D01*
X75888001Y-105860000D01*
X75912505Y-105861204D01*
X75912505Y-105861204D01*
G37*
D18*
X75438000Y-106435000D03*
D17*
G36*
X84675505Y-103811204D02*
G01*
X84699773Y-103814804D01*
X84723572Y-103820765D01*
X84746671Y-103829030D01*
X84768850Y-103839520D01*
X84789893Y-103852132D01*
X84809599Y-103866747D01*
X84827777Y-103883223D01*
X84844253Y-103901401D01*
X84858868Y-103921107D01*
X84871480Y-103942150D01*
X84881970Y-103964329D01*
X84890235Y-103987428D01*
X84896196Y-104011227D01*
X84899796Y-104035495D01*
X84901000Y-104059999D01*
X84901000Y-104710001D01*
X84899796Y-104734505D01*
X84896196Y-104758773D01*
X84890235Y-104782572D01*
X84881970Y-104805671D01*
X84871480Y-104827850D01*
X84858868Y-104848893D01*
X84844253Y-104868599D01*
X84827777Y-104886777D01*
X84809599Y-104903253D01*
X84789893Y-104917868D01*
X84768850Y-104930480D01*
X84746671Y-104940970D01*
X84723572Y-104949235D01*
X84699773Y-104955196D01*
X84675505Y-104958796D01*
X84651001Y-104960000D01*
X83750999Y-104960000D01*
X83726495Y-104958796D01*
X83702227Y-104955196D01*
X83678428Y-104949235D01*
X83655329Y-104940970D01*
X83633150Y-104930480D01*
X83612107Y-104917868D01*
X83592401Y-104903253D01*
X83574223Y-104886777D01*
X83557747Y-104868599D01*
X83543132Y-104848893D01*
X83530520Y-104827850D01*
X83520030Y-104805671D01*
X83511765Y-104782572D01*
X83505804Y-104758773D01*
X83502204Y-104734505D01*
X83501000Y-104710001D01*
X83501000Y-104059999D01*
X83502204Y-104035495D01*
X83505804Y-104011227D01*
X83511765Y-103987428D01*
X83520030Y-103964329D01*
X83530520Y-103942150D01*
X83543132Y-103921107D01*
X83557747Y-103901401D01*
X83574223Y-103883223D01*
X83592401Y-103866747D01*
X83612107Y-103852132D01*
X83633150Y-103839520D01*
X83655329Y-103829030D01*
X83678428Y-103820765D01*
X83702227Y-103814804D01*
X83726495Y-103811204D01*
X83750999Y-103810000D01*
X84651001Y-103810000D01*
X84675505Y-103811204D01*
X84675505Y-103811204D01*
G37*
D18*
X84201000Y-104385000D03*
D17*
G36*
X84675505Y-105861204D02*
G01*
X84699773Y-105864804D01*
X84723572Y-105870765D01*
X84746671Y-105879030D01*
X84768850Y-105889520D01*
X84789893Y-105902132D01*
X84809599Y-105916747D01*
X84827777Y-105933223D01*
X84844253Y-105951401D01*
X84858868Y-105971107D01*
X84871480Y-105992150D01*
X84881970Y-106014329D01*
X84890235Y-106037428D01*
X84896196Y-106061227D01*
X84899796Y-106085495D01*
X84901000Y-106109999D01*
X84901000Y-106760001D01*
X84899796Y-106784505D01*
X84896196Y-106808773D01*
X84890235Y-106832572D01*
X84881970Y-106855671D01*
X84871480Y-106877850D01*
X84858868Y-106898893D01*
X84844253Y-106918599D01*
X84827777Y-106936777D01*
X84809599Y-106953253D01*
X84789893Y-106967868D01*
X84768850Y-106980480D01*
X84746671Y-106990970D01*
X84723572Y-106999235D01*
X84699773Y-107005196D01*
X84675505Y-107008796D01*
X84651001Y-107010000D01*
X83750999Y-107010000D01*
X83726495Y-107008796D01*
X83702227Y-107005196D01*
X83678428Y-106999235D01*
X83655329Y-106990970D01*
X83633150Y-106980480D01*
X83612107Y-106967868D01*
X83592401Y-106953253D01*
X83574223Y-106936777D01*
X83557747Y-106918599D01*
X83543132Y-106898893D01*
X83530520Y-106877850D01*
X83520030Y-106855671D01*
X83511765Y-106832572D01*
X83505804Y-106808773D01*
X83502204Y-106784505D01*
X83501000Y-106760001D01*
X83501000Y-106109999D01*
X83502204Y-106085495D01*
X83505804Y-106061227D01*
X83511765Y-106037428D01*
X83520030Y-106014329D01*
X83530520Y-105992150D01*
X83543132Y-105971107D01*
X83557747Y-105951401D01*
X83574223Y-105933223D01*
X83592401Y-105916747D01*
X83612107Y-105902132D01*
X83633150Y-105889520D01*
X83655329Y-105879030D01*
X83678428Y-105870765D01*
X83702227Y-105864804D01*
X83726495Y-105861204D01*
X83750999Y-105860000D01*
X84651001Y-105860000D01*
X84675505Y-105861204D01*
X84675505Y-105861204D01*
G37*
D18*
X84201000Y-106435000D03*
D24*
X87630000Y-129032000D03*
X77470000Y-129032000D03*
X69596000Y-129286000D03*
X84320100Y-116111100D03*
X72928400Y-114107500D03*
X89634400Y-102062200D03*
X81467600Y-97469700D03*
X80465200Y-98421600D03*
X84703700Y-108708300D03*
X71422700Y-109823400D03*
X75777300Y-107757000D03*
X76183600Y-96913400D03*
X82903700Y-95948900D03*
X73157000Y-108519900D03*
X83304300Y-109050300D03*
D25*
X88079000Y-107188000D02*
X88274000Y-107188000D01*
X85808800Y-105992700D02*
X85934200Y-106118200D01*
X85934200Y-106118200D02*
X87009200Y-106118200D01*
X87009200Y-106118200D02*
X88079000Y-107188000D01*
X88079000Y-107188000D02*
X88079000Y-115711300D01*
X88079000Y-115711300D02*
X86785300Y-117005000D01*
X85710000Y-117005000D02*
X86785300Y-117005000D01*
X83210000Y-124222000D02*
X84328000Y-125340000D01*
X83210000Y-121905000D02*
X83210000Y-124222000D01*
X83210000Y-124222000D02*
X83160000Y-124222000D01*
X83160000Y-124222000D02*
X82042000Y-125340000D01*
X84634700Y-117005000D02*
X83210000Y-118429700D01*
X83210000Y-118429700D02*
X83210000Y-121905000D01*
X74310000Y-112205000D02*
X75385300Y-112205000D01*
X81610000Y-110505000D02*
X81610000Y-111580300D01*
X81610000Y-111580300D02*
X76010000Y-111580300D01*
X76010000Y-111580300D02*
X75385300Y-112205000D01*
X85808800Y-105992700D02*
X85322600Y-106478900D01*
X85322600Y-106478900D02*
X85322600Y-106902000D01*
X85322600Y-106902000D02*
X84888300Y-107336300D01*
X84888300Y-107336300D02*
X84764800Y-107336300D01*
X84764800Y-107336300D02*
X84297700Y-107803400D01*
X84297700Y-107803400D02*
X83958100Y-107803400D01*
X83958100Y-107803400D02*
X83587800Y-108173700D01*
X83587800Y-108173700D02*
X83197500Y-108173700D01*
X83197500Y-108173700D02*
X83046200Y-108325000D01*
X83046200Y-108325000D02*
X83003900Y-108325000D01*
X83003900Y-108325000D02*
X82383800Y-108945100D01*
X82383800Y-108945100D02*
X82383800Y-108987400D01*
X82383800Y-108987400D02*
X81610000Y-109761200D01*
X81610000Y-109761200D02*
X81610000Y-110505000D01*
X79756000Y-125340000D02*
X77396300Y-122980300D01*
X77396300Y-122980300D02*
X76810000Y-122980300D01*
X79756000Y-125340000D02*
X82042000Y-125340000D01*
X76810000Y-121905000D02*
X76810000Y-122980300D01*
X85710000Y-117005000D02*
X84634700Y-117005000D01*
X75503700Y-104380000D02*
X75503700Y-100875400D01*
X79248000Y-135382000D02*
X78072700Y-135382000D01*
X72884000Y-132182000D02*
X72884000Y-133758300D01*
X72884000Y-133758300D02*
X75683000Y-136557300D01*
X75683000Y-136557300D02*
X77705500Y-136557300D01*
X77705500Y-136557300D02*
X78072700Y-136190100D01*
X78072700Y-136190100D02*
X78072700Y-135382000D01*
X79248000Y-135382000D02*
X79248000Y-134206700D01*
X79248000Y-134206700D02*
X79924300Y-134206700D01*
X79924300Y-134206700D02*
X81797000Y-132334000D01*
X84201000Y-104385000D02*
X85808800Y-105992700D01*
X84076000Y-100875400D02*
X84076000Y-104260000D01*
X84076000Y-104260000D02*
X84201000Y-104385000D01*
X81797000Y-132334000D02*
X81797000Y-130048000D01*
X84076000Y-94675000D02*
X86037000Y-94675000D01*
X86037000Y-94675000D02*
X86097000Y-94615000D01*
X75503700Y-100875400D02*
X75503700Y-100298000D01*
X75503700Y-100298000D02*
X75436000Y-100230300D01*
X75503700Y-100875400D02*
X84076000Y-100875400D01*
X84076000Y-100230300D02*
X84076000Y-100875400D01*
X73415000Y-97155000D02*
X73415000Y-94615000D01*
X73567400Y-99542600D02*
X73567400Y-97307400D01*
X73567400Y-97307400D02*
X73415000Y-97155000D01*
X73567400Y-99542600D02*
X73415000Y-99695000D01*
X75436000Y-99542600D02*
X73567400Y-99542600D01*
X75436000Y-99542600D02*
X75436000Y-100230300D01*
X75436000Y-98855000D02*
X75436000Y-99542600D01*
X87892000Y-96299700D02*
X87781700Y-96299700D01*
X87781700Y-96299700D02*
X86097000Y-94615000D01*
X86614000Y-125340000D02*
X84328000Y-125340000D01*
X84076000Y-98855000D02*
X84076000Y-100230300D01*
X87892000Y-97325000D02*
X87892000Y-96299700D01*
X75503700Y-104380000D02*
X75443000Y-104380000D01*
X75443000Y-104380000D02*
X75438000Y-104385000D01*
X78380000Y-104380000D02*
X75503700Y-104380000D01*
X78380000Y-104380000D02*
X78830000Y-104380000D01*
X78830000Y-104380000D02*
X81130000Y-106680000D01*
X81130000Y-106680000D02*
X81280000Y-106680000D01*
X84201000Y-106435000D02*
X83577600Y-107058000D01*
X83577600Y-107058000D02*
X83446600Y-107058000D01*
X83446600Y-107058000D02*
X80810000Y-109695000D01*
X80810000Y-109695000D02*
X80810000Y-110505000D01*
X81280000Y-104380000D02*
X82146000Y-104380000D01*
X82146000Y-104380000D02*
X83577600Y-105812000D01*
X83577600Y-105812000D02*
X84201000Y-106435000D01*
X78380000Y-106680000D02*
X78380000Y-107830000D01*
X78380000Y-107830000D02*
X80010000Y-109460000D01*
X80010000Y-109460000D02*
X80010000Y-110505000D01*
X75438000Y-106435000D02*
X78135000Y-106435000D01*
X78135000Y-106435000D02*
X78380000Y-106680000D01*
X72928400Y-114107500D02*
X69989100Y-111168200D01*
X69989100Y-111168200D02*
X69989100Y-101070900D01*
X69989100Y-101070900D02*
X71365000Y-99695000D01*
X85710000Y-116205000D02*
X84414000Y-116205000D01*
X84414000Y-116205000D02*
X84320100Y-116111100D01*
X77265000Y-114884700D02*
X76010000Y-116139700D01*
X76010000Y-116139700D02*
X76010000Y-120829700D01*
X82384200Y-114172200D02*
X77977500Y-114172200D01*
X77977500Y-114172200D02*
X77265000Y-114884700D01*
X77265000Y-114884700D02*
X75385300Y-113005000D01*
X79756000Y-127390000D02*
X77649400Y-125283400D01*
X77649400Y-125283400D02*
X77649400Y-124820900D01*
X77649400Y-124820900D02*
X76010000Y-123181500D01*
X76010000Y-123181500D02*
X76010000Y-121905000D01*
X82042000Y-127390000D02*
X79756000Y-127390000D01*
X74310000Y-113005000D02*
X75385300Y-113005000D01*
X82384200Y-114172200D02*
X83566800Y-115354800D01*
X83566800Y-115354800D02*
X85659800Y-115354800D01*
X85659800Y-115354800D02*
X85710000Y-115405000D01*
X82410000Y-111580300D02*
X82384200Y-111606100D01*
X82384200Y-111606100D02*
X82384200Y-114172200D01*
X82410000Y-110505000D02*
X82410000Y-111580300D01*
X74310000Y-113005000D02*
X73234700Y-113005000D01*
X73234700Y-113005000D02*
X70451600Y-110221900D01*
X70451600Y-110221900D02*
X70451600Y-105561400D01*
X70451600Y-105561400D02*
X71365000Y-104648000D01*
X84110500Y-127607500D02*
X84328000Y-127390000D01*
X84110500Y-131064000D02*
X84110500Y-127607500D01*
X84110500Y-127607500D02*
X82259500Y-127607500D01*
X82259500Y-127607500D02*
X82042000Y-127390000D01*
X84747300Y-119405000D02*
X84010000Y-120142300D01*
X84010000Y-120142300D02*
X84010000Y-120829700D01*
X84010000Y-121905000D02*
X84010000Y-122980300D01*
X86614000Y-127390000D02*
X87641400Y-126362600D01*
X87641400Y-126362600D02*
X87641400Y-124778800D01*
X87641400Y-124778800D02*
X85842900Y-122980300D01*
X85842900Y-122980300D02*
X84010000Y-122980300D01*
X84328000Y-127390000D02*
X86614000Y-127390000D01*
X85710000Y-119405000D02*
X84747300Y-119405000D01*
X84010000Y-121905000D02*
X84010000Y-120829700D01*
X76010000Y-121905000D02*
X76010000Y-120829700D01*
X87085500Y-131064000D02*
X85854400Y-132295100D01*
X85854400Y-132295100D02*
X83420000Y-132295100D01*
X83420000Y-132295100D02*
X83048600Y-131923700D01*
X83048600Y-131923700D02*
X83048600Y-129706900D01*
X83048600Y-129706900D02*
X82363300Y-129021600D01*
X82363300Y-129021600D02*
X80773400Y-129021600D01*
X80773400Y-129021600D02*
X79747000Y-130048000D01*
X89634400Y-102062200D02*
X90080300Y-102508100D01*
X90080300Y-102508100D02*
X90080300Y-128069200D01*
X90080300Y-128069200D02*
X87085500Y-131064000D01*
X88897300Y-99525000D02*
X89634400Y-100262100D01*
X89634400Y-100262100D02*
X89634400Y-102062200D01*
X79747000Y-130048000D02*
X78559300Y-131235700D01*
X78559300Y-131235700D02*
X78559300Y-132182000D01*
X88072000Y-99525000D02*
X88897300Y-99525000D01*
X77484000Y-132182000D02*
X78559300Y-132182000D01*
X79747000Y-132334000D02*
X77874300Y-134206700D01*
X77874300Y-134206700D02*
X76708000Y-134206700D01*
X75184000Y-132182000D02*
X75184000Y-133607300D01*
X76708000Y-135382000D02*
X76708000Y-134206700D01*
X76708000Y-134206700D02*
X76108600Y-133607300D01*
X76108600Y-133607300D02*
X75184000Y-133607300D01*
X75184000Y-125882000D02*
X77409300Y-125882000D01*
X75184000Y-132182000D02*
X75184000Y-129532600D01*
X75184000Y-129532600D02*
X77409300Y-127307300D01*
X77409300Y-127307300D02*
X77409300Y-125882000D01*
X86172000Y-99525000D02*
X85346700Y-99525000D01*
X85346700Y-99525000D02*
X85195600Y-99676100D01*
X85195600Y-99676100D02*
X85195600Y-103619600D01*
X85195600Y-103619600D02*
X86224000Y-104648000D01*
X86172000Y-99525000D02*
X86172000Y-99177300D01*
X86172000Y-99177300D02*
X84464400Y-97469700D01*
X84464400Y-97469700D02*
X81467600Y-97469700D01*
X85346700Y-97325000D02*
X84711300Y-96689600D01*
X84711300Y-96689600D02*
X81205100Y-96689600D01*
X81205100Y-96689600D02*
X80465200Y-97429500D01*
X80465200Y-97429500D02*
X80465200Y-98421600D01*
X86172000Y-97325000D02*
X85346700Y-97325000D01*
X86172000Y-97325000D02*
X86172000Y-97581300D01*
X86172000Y-97581300D02*
X86172000Y-98350300D01*
X88147000Y-102108000D02*
X86998400Y-100959400D01*
X86998400Y-100959400D02*
X86998400Y-98674700D01*
X86998400Y-98674700D02*
X86674000Y-98350300D01*
X86674000Y-98350300D02*
X86172000Y-98350300D01*
X71365000Y-102108000D02*
X72266400Y-103009400D01*
X72266400Y-103009400D02*
X72266400Y-106034100D01*
X72266400Y-106034100D02*
X71365000Y-106935500D01*
X71365000Y-106935500D02*
X71365000Y-107188000D01*
X86224000Y-107188000D02*
X84703700Y-108708300D01*
X71422700Y-109823400D02*
X71365000Y-109765700D01*
X71365000Y-109765700D02*
X71365000Y-107188000D01*
X75777300Y-107757000D02*
X75937300Y-107757000D01*
X75937300Y-107757000D02*
X77610000Y-109429700D01*
X77610000Y-110505000D02*
X77610000Y-109429700D01*
X71365000Y-94615000D02*
X72391400Y-93588600D01*
X72391400Y-93588600D02*
X73999100Y-93588600D01*
X73999100Y-93588600D02*
X74316400Y-93905900D01*
X74316400Y-93905900D02*
X74316400Y-95046200D01*
X74316400Y-95046200D02*
X76183600Y-96913400D01*
X88147000Y-94615000D02*
X87078100Y-93546100D01*
X87078100Y-93546100D02*
X83680600Y-93546100D01*
X83680600Y-93546100D02*
X82903700Y-94323000D01*
X82903700Y-94323000D02*
X82903700Y-95948900D01*
X85710000Y-117805000D02*
X86785300Y-117805000D01*
X86097000Y-102108000D02*
X87249000Y-103260000D01*
X87249000Y-103260000D02*
X87249000Y-105249500D01*
X87249000Y-105249500D02*
X88117700Y-106118200D01*
X88117700Y-106118200D02*
X88859900Y-106118200D01*
X88859900Y-106118200D02*
X89177500Y-106435800D01*
X89177500Y-106435800D02*
X89177500Y-115412800D01*
X89177500Y-115412800D02*
X86785300Y-117805000D01*
X85710000Y-118605000D02*
X86785300Y-118605000D01*
X88274000Y-104648000D02*
X89629900Y-106003900D01*
X89629900Y-106003900D02*
X89629900Y-115760400D01*
X89629900Y-115760400D02*
X86785300Y-118605000D01*
X73415000Y-104648000D02*
X73415000Y-105522400D01*
X73415000Y-105522400D02*
X72513600Y-106423800D01*
X72513600Y-106423800D02*
X72513600Y-107876500D01*
X72513600Y-107876500D02*
X73157000Y-108519900D01*
X83210000Y-110505000D02*
X83210000Y-109429700D01*
X83304300Y-109050300D02*
X83304300Y-109335400D01*
X83304300Y-109335400D02*
X83210000Y-109429700D01*
X74310000Y-120205000D02*
X73234700Y-120205000D01*
X71365000Y-97155000D02*
X71365000Y-97780200D01*
X71365000Y-97780200D02*
X69527800Y-99617400D01*
X69527800Y-99617400D02*
X69527800Y-116498100D01*
X69527800Y-116498100D02*
X73234700Y-120205000D01*
X74364000Y-107188000D02*
X74364000Y-103057000D01*
X74364000Y-103057000D02*
X73415000Y-102108000D01*
X76810000Y-109429700D02*
X76368400Y-109429700D01*
X76368400Y-109429700D02*
X74364000Y-107425300D01*
X74364000Y-107425300D02*
X74364000Y-107188000D01*
X73415000Y-107188000D02*
X74364000Y-107188000D01*
X76810000Y-110505000D02*
X76810000Y-109429700D01*
D26*
G36*
X90496863Y-131523960D02*
G01*
X90478572Y-131529762D01*
X90421521Y-131554214D01*
X90364106Y-131577879D01*
X90355692Y-131582428D01*
X90138490Y-131701836D01*
X90087225Y-131736938D01*
X90035552Y-131771270D01*
X90028182Y-131777366D01*
X89838310Y-131936688D01*
X89794872Y-131981046D01*
X89750820Y-132024791D01*
X89744775Y-132032203D01*
X89589463Y-132225370D01*
X89555444Y-132277357D01*
X89520749Y-132328795D01*
X89516258Y-132337239D01*
X89401427Y-132556894D01*
X89378175Y-132614446D01*
X89354112Y-132671688D01*
X89351348Y-132680844D01*
X89351346Y-132680849D01*
X89351345Y-132680854D01*
X89281365Y-132918620D01*
X89269723Y-132979651D01*
X89257248Y-133040425D01*
X89256314Y-133049943D01*
X89233850Y-133296783D01*
X89234284Y-133358865D01*
X89233850Y-133420948D01*
X89234783Y-133430467D01*
X89260691Y-133676970D01*
X89273183Y-133737824D01*
X89284810Y-133798774D01*
X89287574Y-133807930D01*
X89360869Y-134044707D01*
X89384923Y-134101929D01*
X89408184Y-134159502D01*
X89412674Y-134167947D01*
X89530562Y-134385977D01*
X89565304Y-134437483D01*
X89599277Y-134489400D01*
X89605321Y-134496811D01*
X89763314Y-134687791D01*
X89807387Y-134731557D01*
X89850806Y-134775895D01*
X89858175Y-134781992D01*
X90050253Y-134938647D01*
X90101955Y-134972998D01*
X90153193Y-135008081D01*
X90161606Y-135012630D01*
X90380454Y-135128993D01*
X90437859Y-135152653D01*
X90494916Y-135177108D01*
X90501000Y-135178991D01*
X90501001Y-136221000D01*
X89027000Y-136221000D01*
X89027000Y-133858000D01*
X89024560Y-133833224D01*
X89017333Y-133809399D01*
X89005597Y-133787443D01*
X88989803Y-133768197D01*
X88970557Y-133752403D01*
X88948601Y-133740667D01*
X88924776Y-133733440D01*
X88900000Y-133731000D01*
X79424802Y-133731000D01*
X79483730Y-133672072D01*
X80072001Y-133672072D01*
X80245255Y-133655008D01*
X80411851Y-133604472D01*
X80565387Y-133522405D01*
X80699962Y-133411962D01*
X80705342Y-133405406D01*
X80770815Y-133485185D01*
X80867506Y-133564537D01*
X80977820Y-133623502D01*
X81097518Y-133659812D01*
X81222000Y-133672072D01*
X81511250Y-133669000D01*
X81670000Y-133510250D01*
X81670000Y-132461000D01*
X81650000Y-132461000D01*
X81650000Y-132207000D01*
X81670000Y-132207000D01*
X81670000Y-130175000D01*
X81650000Y-130175000D01*
X81650000Y-129921000D01*
X81670000Y-129921000D01*
X81670000Y-129901000D01*
X81924000Y-129901000D01*
X81924000Y-129921000D01*
X81944000Y-129921000D01*
X81944000Y-130175000D01*
X81924000Y-130175000D01*
X81924000Y-132207000D01*
X81944000Y-132207000D01*
X81944000Y-132461000D01*
X81924000Y-132461000D01*
X81924000Y-133510250D01*
X82082750Y-133669000D01*
X82372000Y-133672072D01*
X82496482Y-133659812D01*
X82616180Y-133623502D01*
X82726494Y-133564537D01*
X82823185Y-133485185D01*
X82902537Y-133388494D01*
X82961502Y-133278180D01*
X82997812Y-133158482D01*
X83010072Y-133034000D01*
X83009355Y-132937360D01*
X83127753Y-133000646D01*
X83271014Y-133044103D01*
X83382667Y-133055100D01*
X83382677Y-133055100D01*
X83420000Y-133058776D01*
X83457323Y-133055100D01*
X85817078Y-133055100D01*
X85854400Y-133058776D01*
X85891722Y-133055100D01*
X85891733Y-133055100D01*
X86003386Y-133044103D01*
X86146647Y-133000646D01*
X86278676Y-132930074D01*
X86394401Y-132835101D01*
X86418204Y-132806097D01*
X86647229Y-132577072D01*
X87548000Y-132577072D01*
X87721254Y-132560008D01*
X87887850Y-132509472D01*
X88041386Y-132427405D01*
X88175962Y-132316962D01*
X88286405Y-132182386D01*
X88368472Y-132028850D01*
X88419008Y-131862254D01*
X88436072Y-131689000D01*
X88436072Y-130788229D01*
X90476301Y-128748001D01*
X90496863Y-131523960D01*
X90496863Y-131523960D01*
G37*
X90496863Y-131523960D02*
X90478572Y-131529762D01*
X90421521Y-131554214D01*
X90364106Y-131577879D01*
X90355692Y-131582428D01*
X90138490Y-131701836D01*
X90087225Y-131736938D01*
X90035552Y-131771270D01*
X90028182Y-131777366D01*
X89838310Y-131936688D01*
X89794872Y-131981046D01*
X89750820Y-132024791D01*
X89744775Y-132032203D01*
X89589463Y-132225370D01*
X89555444Y-132277357D01*
X89520749Y-132328795D01*
X89516258Y-132337239D01*
X89401427Y-132556894D01*
X89378175Y-132614446D01*
X89354112Y-132671688D01*
X89351348Y-132680844D01*
X89351346Y-132680849D01*
X89351345Y-132680854D01*
X89281365Y-132918620D01*
X89269723Y-132979651D01*
X89257248Y-133040425D01*
X89256314Y-133049943D01*
X89233850Y-133296783D01*
X89234284Y-133358865D01*
X89233850Y-133420948D01*
X89234783Y-133430467D01*
X89260691Y-133676970D01*
X89273183Y-133737824D01*
X89284810Y-133798774D01*
X89287574Y-133807930D01*
X89360869Y-134044707D01*
X89384923Y-134101929D01*
X89408184Y-134159502D01*
X89412674Y-134167947D01*
X89530562Y-134385977D01*
X89565304Y-134437483D01*
X89599277Y-134489400D01*
X89605321Y-134496811D01*
X89763314Y-134687791D01*
X89807387Y-134731557D01*
X89850806Y-134775895D01*
X89858175Y-134781992D01*
X90050253Y-134938647D01*
X90101955Y-134972998D01*
X90153193Y-135008081D01*
X90161606Y-135012630D01*
X90380454Y-135128993D01*
X90437859Y-135152653D01*
X90494916Y-135177108D01*
X90501000Y-135178991D01*
X90501001Y-136221000D01*
X89027000Y-136221000D01*
X89027000Y-133858000D01*
X89024560Y-133833224D01*
X89017333Y-133809399D01*
X89005597Y-133787443D01*
X88989803Y-133768197D01*
X88970557Y-133752403D01*
X88948601Y-133740667D01*
X88924776Y-133733440D01*
X88900000Y-133731000D01*
X79424802Y-133731000D01*
X79483730Y-133672072D01*
X80072001Y-133672072D01*
X80245255Y-133655008D01*
X80411851Y-133604472D01*
X80565387Y-133522405D01*
X80699962Y-133411962D01*
X80705342Y-133405406D01*
X80770815Y-133485185D01*
X80867506Y-133564537D01*
X80977820Y-133623502D01*
X81097518Y-133659812D01*
X81222000Y-133672072D01*
X81511250Y-133669000D01*
X81670000Y-133510250D01*
X81670000Y-132461000D01*
X81650000Y-132461000D01*
X81650000Y-132207000D01*
X81670000Y-132207000D01*
X81670000Y-130175000D01*
X81650000Y-130175000D01*
X81650000Y-129921000D01*
X81670000Y-129921000D01*
X81670000Y-129901000D01*
X81924000Y-129901000D01*
X81924000Y-129921000D01*
X81944000Y-129921000D01*
X81944000Y-130175000D01*
X81924000Y-130175000D01*
X81924000Y-132207000D01*
X81944000Y-132207000D01*
X81944000Y-132461000D01*
X81924000Y-132461000D01*
X81924000Y-133510250D01*
X82082750Y-133669000D01*
X82372000Y-133672072D01*
X82496482Y-133659812D01*
X82616180Y-133623502D01*
X82726494Y-133564537D01*
X82823185Y-133485185D01*
X82902537Y-133388494D01*
X82961502Y-133278180D01*
X82997812Y-133158482D01*
X83010072Y-133034000D01*
X83009355Y-132937360D01*
X83127753Y-133000646D01*
X83271014Y-133044103D01*
X83382667Y-133055100D01*
X83382677Y-133055100D01*
X83420000Y-133058776D01*
X83457323Y-133055100D01*
X85817078Y-133055100D01*
X85854400Y-133058776D01*
X85891722Y-133055100D01*
X85891733Y-133055100D01*
X86003386Y-133044103D01*
X86146647Y-133000646D01*
X86278676Y-132930074D01*
X86394401Y-132835101D01*
X86418204Y-132806097D01*
X86647229Y-132577072D01*
X87548000Y-132577072D01*
X87721254Y-132560008D01*
X87887850Y-132509472D01*
X88041386Y-132427405D01*
X88175962Y-132316962D01*
X88286405Y-132182386D01*
X88368472Y-132028850D01*
X88419008Y-131862254D01*
X88436072Y-131689000D01*
X88436072Y-130788229D01*
X90476301Y-128748001D01*
X90496863Y-131523960D01*
G36*
X72670901Y-120716003D02*
G01*
X72694699Y-120745001D01*
X72810424Y-120839974D01*
X72942453Y-120910546D01*
X73085714Y-120954003D01*
X73143561Y-120959701D01*
X73205506Y-121010537D01*
X73315820Y-121069502D01*
X73435518Y-121105812D01*
X73560000Y-121118072D01*
X75060000Y-121118072D01*
X75100962Y-121114038D01*
X75096928Y-121155000D01*
X75096928Y-122655000D01*
X75109188Y-122779482D01*
X75145498Y-122899180D01*
X75204463Y-123009494D01*
X75250000Y-123064981D01*
X75250000Y-123144177D01*
X75246324Y-123181500D01*
X75250000Y-123218822D01*
X75250000Y-123218832D01*
X75260997Y-123330485D01*
X75283472Y-123404576D01*
X75304454Y-123473746D01*
X75375026Y-123605776D01*
X75414871Y-123654326D01*
X75469999Y-123721501D01*
X75499003Y-123745304D01*
X75897627Y-124143928D01*
X73284000Y-124143928D01*
X73159518Y-124156188D01*
X73039820Y-124192498D01*
X72929506Y-124251463D01*
X72832815Y-124330815D01*
X72753463Y-124427506D01*
X72694498Y-124537820D01*
X72658188Y-124657518D01*
X72645928Y-124782000D01*
X72645928Y-126982000D01*
X72658188Y-127106482D01*
X72694498Y-127226180D01*
X72753463Y-127336494D01*
X72832815Y-127433185D01*
X72929506Y-127512537D01*
X73039820Y-127571502D01*
X73159518Y-127607812D01*
X73284000Y-127620072D01*
X76021726Y-127620072D01*
X74672998Y-128968801D01*
X74644000Y-128992599D01*
X74620202Y-129021597D01*
X74620201Y-129021598D01*
X74549026Y-129108324D01*
X74478454Y-129240354D01*
X74434998Y-129383615D01*
X74420324Y-129532600D01*
X74424001Y-129569932D01*
X74424001Y-130444913D01*
X74309518Y-130456188D01*
X74189820Y-130492498D01*
X74079506Y-130551463D01*
X74034000Y-130588809D01*
X73988494Y-130551463D01*
X73878180Y-130492498D01*
X73758482Y-130456188D01*
X73634000Y-130443928D01*
X73169750Y-130447000D01*
X73011000Y-130605750D01*
X73011000Y-132055000D01*
X73031000Y-132055000D01*
X73031000Y-132309000D01*
X73011000Y-132309000D01*
X73011000Y-132329000D01*
X72757000Y-132329000D01*
X72757000Y-132309000D01*
X71657750Y-132309000D01*
X71499000Y-132467750D01*
X71495928Y-133282000D01*
X71508188Y-133406482D01*
X71544498Y-133526180D01*
X71603463Y-133636494D01*
X71681022Y-133731000D01*
X71120000Y-133731000D01*
X71095224Y-133733440D01*
X71071399Y-133740667D01*
X71049443Y-133752403D01*
X71030197Y-133768197D01*
X71014403Y-133787443D01*
X71002667Y-133809399D01*
X70995440Y-133833224D01*
X70993000Y-133858000D01*
X70993000Y-136221000D01*
X69265000Y-136221000D01*
X69265000Y-135177353D01*
X69287428Y-135170238D01*
X69344479Y-135145786D01*
X69401894Y-135122121D01*
X69410308Y-135117572D01*
X69627510Y-134998164D01*
X69678757Y-134963074D01*
X69730449Y-134928730D01*
X69737818Y-134922634D01*
X69927691Y-134763312D01*
X69971183Y-134718899D01*
X70015180Y-134675208D01*
X70021226Y-134667797D01*
X70176537Y-134474630D01*
X70210544Y-134422661D01*
X70245251Y-134371206D01*
X70249737Y-134362769D01*
X70249740Y-134362764D01*
X70249742Y-134362759D01*
X70364573Y-134143106D01*
X70387830Y-134085543D01*
X70411888Y-134028312D01*
X70414653Y-134019156D01*
X70484635Y-133781379D01*
X70496275Y-133720362D01*
X70508752Y-133659575D01*
X70509686Y-133650057D01*
X70532150Y-133403217D01*
X70531716Y-133341134D01*
X70532150Y-133279052D01*
X70531217Y-133269534D01*
X70505309Y-133023030D01*
X70492817Y-132962176D01*
X70481190Y-132901226D01*
X70478426Y-132892070D01*
X70405131Y-132655294D01*
X70381082Y-132598084D01*
X70357816Y-132540498D01*
X70353326Y-132532053D01*
X70235438Y-132314023D01*
X70200707Y-132262532D01*
X70166723Y-132210600D01*
X70160679Y-132203188D01*
X70002686Y-132012209D01*
X69958633Y-131968462D01*
X69915194Y-131924104D01*
X69907825Y-131918008D01*
X69715747Y-131761353D01*
X69664044Y-131727002D01*
X69612807Y-131691919D01*
X69604393Y-131687370D01*
X69385546Y-131571007D01*
X69328141Y-131547347D01*
X69271084Y-131522892D01*
X69265000Y-131521009D01*
X69265000Y-131082000D01*
X71495928Y-131082000D01*
X71499000Y-131896250D01*
X71657750Y-132055000D01*
X72757000Y-132055000D01*
X72757000Y-130605750D01*
X72598250Y-130447000D01*
X72134000Y-130443928D01*
X72009518Y-130456188D01*
X71889820Y-130492498D01*
X71779506Y-130551463D01*
X71682815Y-130630815D01*
X71603463Y-130727506D01*
X71544498Y-130837820D01*
X71508188Y-130957518D01*
X71495928Y-131082000D01*
X69265000Y-131082000D01*
X69265000Y-117310101D01*
X72670901Y-120716003D01*
X72670901Y-120716003D01*
G37*
X72670901Y-120716003D02*
X72694699Y-120745001D01*
X72810424Y-120839974D01*
X72942453Y-120910546D01*
X73085714Y-120954003D01*
X73143561Y-120959701D01*
X73205506Y-121010537D01*
X73315820Y-121069502D01*
X73435518Y-121105812D01*
X73560000Y-121118072D01*
X75060000Y-121118072D01*
X75100962Y-121114038D01*
X75096928Y-121155000D01*
X75096928Y-122655000D01*
X75109188Y-122779482D01*
X75145498Y-122899180D01*
X75204463Y-123009494D01*
X75250000Y-123064981D01*
X75250000Y-123144177D01*
X75246324Y-123181500D01*
X75250000Y-123218822D01*
X75250000Y-123218832D01*
X75260997Y-123330485D01*
X75283472Y-123404576D01*
X75304454Y-123473746D01*
X75375026Y-123605776D01*
X75414871Y-123654326D01*
X75469999Y-123721501D01*
X75499003Y-123745304D01*
X75897627Y-124143928D01*
X73284000Y-124143928D01*
X73159518Y-124156188D01*
X73039820Y-124192498D01*
X72929506Y-124251463D01*
X72832815Y-124330815D01*
X72753463Y-124427506D01*
X72694498Y-124537820D01*
X72658188Y-124657518D01*
X72645928Y-124782000D01*
X72645928Y-126982000D01*
X72658188Y-127106482D01*
X72694498Y-127226180D01*
X72753463Y-127336494D01*
X72832815Y-127433185D01*
X72929506Y-127512537D01*
X73039820Y-127571502D01*
X73159518Y-127607812D01*
X73284000Y-127620072D01*
X76021726Y-127620072D01*
X74672998Y-128968801D01*
X74644000Y-128992599D01*
X74620202Y-129021597D01*
X74620201Y-129021598D01*
X74549026Y-129108324D01*
X74478454Y-129240354D01*
X74434998Y-129383615D01*
X74420324Y-129532600D01*
X74424001Y-129569932D01*
X74424001Y-130444913D01*
X74309518Y-130456188D01*
X74189820Y-130492498D01*
X74079506Y-130551463D01*
X74034000Y-130588809D01*
X73988494Y-130551463D01*
X73878180Y-130492498D01*
X73758482Y-130456188D01*
X73634000Y-130443928D01*
X73169750Y-130447000D01*
X73011000Y-130605750D01*
X73011000Y-132055000D01*
X73031000Y-132055000D01*
X73031000Y-132309000D01*
X73011000Y-132309000D01*
X73011000Y-132329000D01*
X72757000Y-132329000D01*
X72757000Y-132309000D01*
X71657750Y-132309000D01*
X71499000Y-132467750D01*
X71495928Y-133282000D01*
X71508188Y-133406482D01*
X71544498Y-133526180D01*
X71603463Y-133636494D01*
X71681022Y-133731000D01*
X71120000Y-133731000D01*
X71095224Y-133733440D01*
X71071399Y-133740667D01*
X71049443Y-133752403D01*
X71030197Y-133768197D01*
X71014403Y-133787443D01*
X71002667Y-133809399D01*
X70995440Y-133833224D01*
X70993000Y-133858000D01*
X70993000Y-136221000D01*
X69265000Y-136221000D01*
X69265000Y-135177353D01*
X69287428Y-135170238D01*
X69344479Y-135145786D01*
X69401894Y-135122121D01*
X69410308Y-135117572D01*
X69627510Y-134998164D01*
X69678757Y-134963074D01*
X69730449Y-134928730D01*
X69737818Y-134922634D01*
X69927691Y-134763312D01*
X69971183Y-134718899D01*
X70015180Y-134675208D01*
X70021226Y-134667797D01*
X70176537Y-134474630D01*
X70210544Y-134422661D01*
X70245251Y-134371206D01*
X70249737Y-134362769D01*
X70249740Y-134362764D01*
X70249742Y-134362759D01*
X70364573Y-134143106D01*
X70387830Y-134085543D01*
X70411888Y-134028312D01*
X70414653Y-134019156D01*
X70484635Y-133781379D01*
X70496275Y-133720362D01*
X70508752Y-133659575D01*
X70509686Y-133650057D01*
X70532150Y-133403217D01*
X70531716Y-133341134D01*
X70532150Y-133279052D01*
X70531217Y-133269534D01*
X70505309Y-133023030D01*
X70492817Y-132962176D01*
X70481190Y-132901226D01*
X70478426Y-132892070D01*
X70405131Y-132655294D01*
X70381082Y-132598084D01*
X70357816Y-132540498D01*
X70353326Y-132532053D01*
X70235438Y-132314023D01*
X70200707Y-132262532D01*
X70166723Y-132210600D01*
X70160679Y-132203188D01*
X70002686Y-132012209D01*
X69958633Y-131968462D01*
X69915194Y-131924104D01*
X69907825Y-131918008D01*
X69715747Y-131761353D01*
X69664044Y-131727002D01*
X69612807Y-131691919D01*
X69604393Y-131687370D01*
X69385546Y-131571007D01*
X69328141Y-131547347D01*
X69271084Y-131522892D01*
X69265000Y-131521009D01*
X69265000Y-131082000D01*
X71495928Y-131082000D01*
X71499000Y-131896250D01*
X71657750Y-132055000D01*
X72757000Y-132055000D01*
X72757000Y-130605750D01*
X72598250Y-130447000D01*
X72134000Y-130443928D01*
X72009518Y-130456188D01*
X71889820Y-130492498D01*
X71779506Y-130551463D01*
X71682815Y-130630815D01*
X71603463Y-130727506D01*
X71544498Y-130837820D01*
X71508188Y-130957518D01*
X71495928Y-131082000D01*
X69265000Y-131082000D01*
X69265000Y-117310101D01*
X72670901Y-120716003D01*
G36*
X89320301Y-127754397D02*
G01*
X87523771Y-129550928D01*
X86623000Y-129550928D01*
X86449746Y-129567992D01*
X86283150Y-129618528D01*
X86129614Y-129700595D01*
X85995038Y-129811038D01*
X85884595Y-129945614D01*
X85802528Y-130099150D01*
X85751992Y-130265746D01*
X85734928Y-130439000D01*
X85734928Y-131339771D01*
X85539599Y-131535100D01*
X85461072Y-131535100D01*
X85461072Y-130439000D01*
X85444008Y-130265746D01*
X85393472Y-130099150D01*
X85311405Y-129945614D01*
X85200962Y-129811038D01*
X85066386Y-129700595D01*
X84912850Y-129618528D01*
X84870500Y-129605681D01*
X84870500Y-128593962D01*
X84951255Y-128586008D01*
X85117851Y-128535472D01*
X85271387Y-128453405D01*
X85405962Y-128342962D01*
X85471000Y-128263713D01*
X85536038Y-128342962D01*
X85670613Y-128453405D01*
X85824149Y-128535472D01*
X85990745Y-128586008D01*
X86163999Y-128603072D01*
X87064001Y-128603072D01*
X87237255Y-128586008D01*
X87403851Y-128535472D01*
X87557387Y-128453405D01*
X87691962Y-128342962D01*
X87802405Y-128208387D01*
X87884472Y-128054851D01*
X87935008Y-127888255D01*
X87952072Y-127715001D01*
X87952072Y-127126730D01*
X88152404Y-126926398D01*
X88181401Y-126902601D01*
X88224570Y-126850000D01*
X88276374Y-126786877D01*
X88346946Y-126654847D01*
X88376233Y-126558298D01*
X88390403Y-126511586D01*
X88401400Y-126399933D01*
X88401400Y-126399923D01*
X88405076Y-126362601D01*
X88401400Y-126325278D01*
X88401400Y-124816122D01*
X88405076Y-124778799D01*
X88401400Y-124741476D01*
X88401400Y-124741467D01*
X88390403Y-124629814D01*
X88346946Y-124486553D01*
X88315384Y-124427506D01*
X88276374Y-124354523D01*
X88205199Y-124267797D01*
X88181401Y-124238799D01*
X88152403Y-124215001D01*
X86406704Y-122469303D01*
X86382901Y-122440299D01*
X86267176Y-122345326D01*
X86135147Y-122274754D01*
X85991886Y-122231297D01*
X85880233Y-122220300D01*
X85880222Y-122220300D01*
X85842900Y-122216624D01*
X85805578Y-122220300D01*
X84923072Y-122220300D01*
X84923072Y-121155000D01*
X84919038Y-121114038D01*
X84960000Y-121118072D01*
X86460000Y-121118072D01*
X86584482Y-121105812D01*
X86704180Y-121069502D01*
X86814494Y-121010537D01*
X86911185Y-120931185D01*
X86990537Y-120834494D01*
X87049502Y-120724180D01*
X87085812Y-120604482D01*
X87098072Y-120480000D01*
X87098072Y-119930000D01*
X87085812Y-119805518D01*
X87085655Y-119805000D01*
X87085812Y-119804482D01*
X87098072Y-119680000D01*
X87098072Y-119299575D01*
X87209576Y-119239974D01*
X87325301Y-119145001D01*
X87349104Y-119115997D01*
X89320301Y-117144801D01*
X89320301Y-127754397D01*
X89320301Y-127754397D01*
G37*
X89320301Y-127754397D02*
X87523771Y-129550928D01*
X86623000Y-129550928D01*
X86449746Y-129567992D01*
X86283150Y-129618528D01*
X86129614Y-129700595D01*
X85995038Y-129811038D01*
X85884595Y-129945614D01*
X85802528Y-130099150D01*
X85751992Y-130265746D01*
X85734928Y-130439000D01*
X85734928Y-131339771D01*
X85539599Y-131535100D01*
X85461072Y-131535100D01*
X85461072Y-130439000D01*
X85444008Y-130265746D01*
X85393472Y-130099150D01*
X85311405Y-129945614D01*
X85200962Y-129811038D01*
X85066386Y-129700595D01*
X84912850Y-129618528D01*
X84870500Y-129605681D01*
X84870500Y-128593962D01*
X84951255Y-128586008D01*
X85117851Y-128535472D01*
X85271387Y-128453405D01*
X85405962Y-128342962D01*
X85471000Y-128263713D01*
X85536038Y-128342962D01*
X85670613Y-128453405D01*
X85824149Y-128535472D01*
X85990745Y-128586008D01*
X86163999Y-128603072D01*
X87064001Y-128603072D01*
X87237255Y-128586008D01*
X87403851Y-128535472D01*
X87557387Y-128453405D01*
X87691962Y-128342962D01*
X87802405Y-128208387D01*
X87884472Y-128054851D01*
X87935008Y-127888255D01*
X87952072Y-127715001D01*
X87952072Y-127126730D01*
X88152404Y-126926398D01*
X88181401Y-126902601D01*
X88224570Y-126850000D01*
X88276374Y-126786877D01*
X88346946Y-126654847D01*
X88376233Y-126558298D01*
X88390403Y-126511586D01*
X88401400Y-126399933D01*
X88401400Y-126399923D01*
X88405076Y-126362601D01*
X88401400Y-126325278D01*
X88401400Y-124816122D01*
X88405076Y-124778799D01*
X88401400Y-124741476D01*
X88401400Y-124741467D01*
X88390403Y-124629814D01*
X88346946Y-124486553D01*
X88315384Y-124427506D01*
X88276374Y-124354523D01*
X88205199Y-124267797D01*
X88181401Y-124238799D01*
X88152403Y-124215001D01*
X86406704Y-122469303D01*
X86382901Y-122440299D01*
X86267176Y-122345326D01*
X86135147Y-122274754D01*
X85991886Y-122231297D01*
X85880233Y-122220300D01*
X85880222Y-122220300D01*
X85842900Y-122216624D01*
X85805578Y-122220300D01*
X84923072Y-122220300D01*
X84923072Y-121155000D01*
X84919038Y-121114038D01*
X84960000Y-121118072D01*
X86460000Y-121118072D01*
X86584482Y-121105812D01*
X86704180Y-121069502D01*
X86814494Y-121010537D01*
X86911185Y-120931185D01*
X86990537Y-120834494D01*
X87049502Y-120724180D01*
X87085812Y-120604482D01*
X87098072Y-120480000D01*
X87098072Y-119930000D01*
X87085812Y-119805518D01*
X87085655Y-119805000D01*
X87085812Y-119804482D01*
X87098072Y-119680000D01*
X87098072Y-119299575D01*
X87209576Y-119239974D01*
X87325301Y-119145001D01*
X87349104Y-119115997D01*
X89320301Y-117144801D01*
X89320301Y-127754397D01*
G36*
X78417928Y-127126730D02*
G01*
X78417928Y-127715001D01*
X78434992Y-127888255D01*
X78485528Y-128054851D01*
X78567595Y-128208387D01*
X78678038Y-128342962D01*
X78812613Y-128453405D01*
X78966149Y-128535472D01*
X79132745Y-128586008D01*
X79305999Y-128603072D01*
X80117126Y-128603072D01*
X80010270Y-128709928D01*
X79421999Y-128709928D01*
X79248745Y-128726992D01*
X79082149Y-128777528D01*
X78928613Y-128859595D01*
X78794038Y-128970038D01*
X78683595Y-129104613D01*
X78601528Y-129258149D01*
X78550992Y-129424745D01*
X78533928Y-129597999D01*
X78533928Y-130186270D01*
X78272481Y-130447718D01*
X78234000Y-130443928D01*
X76734000Y-130443928D01*
X76609518Y-130456188D01*
X76489820Y-130492498D01*
X76379506Y-130551463D01*
X76334000Y-130588809D01*
X76288494Y-130551463D01*
X76178180Y-130492498D01*
X76058482Y-130456188D01*
X75944000Y-130444913D01*
X75944000Y-129847401D01*
X77920309Y-127871094D01*
X77949301Y-127847301D01*
X77973095Y-127818308D01*
X77973099Y-127818304D01*
X78044273Y-127731577D01*
X78044274Y-127731576D01*
X78114846Y-127599547D01*
X78158303Y-127456286D01*
X78169300Y-127344633D01*
X78169300Y-127344624D01*
X78172976Y-127307301D01*
X78169300Y-127269978D01*
X78169300Y-126878102D01*
X78417928Y-127126730D01*
X78417928Y-127126730D01*
G37*
X78417928Y-127126730D02*
X78417928Y-127715001D01*
X78434992Y-127888255D01*
X78485528Y-128054851D01*
X78567595Y-128208387D01*
X78678038Y-128342962D01*
X78812613Y-128453405D01*
X78966149Y-128535472D01*
X79132745Y-128586008D01*
X79305999Y-128603072D01*
X80117126Y-128603072D01*
X80010270Y-128709928D01*
X79421999Y-128709928D01*
X79248745Y-128726992D01*
X79082149Y-128777528D01*
X78928613Y-128859595D01*
X78794038Y-128970038D01*
X78683595Y-129104613D01*
X78601528Y-129258149D01*
X78550992Y-129424745D01*
X78533928Y-129597999D01*
X78533928Y-130186270D01*
X78272481Y-130447718D01*
X78234000Y-130443928D01*
X76734000Y-130443928D01*
X76609518Y-130456188D01*
X76489820Y-130492498D01*
X76379506Y-130551463D01*
X76334000Y-130588809D01*
X76288494Y-130551463D01*
X76178180Y-130492498D01*
X76058482Y-130456188D01*
X75944000Y-130444913D01*
X75944000Y-129847401D01*
X77920309Y-127871094D01*
X77949301Y-127847301D01*
X77973095Y-127818308D01*
X77973099Y-127818304D01*
X78044273Y-127731577D01*
X78044274Y-127731576D01*
X78114846Y-127599547D01*
X78158303Y-127456286D01*
X78169300Y-127344633D01*
X78169300Y-127344624D01*
X78172976Y-127307301D01*
X78169300Y-127269978D01*
X78169300Y-126878102D01*
X78417928Y-127126730D01*
G36*
X83255299Y-123071439D02*
G01*
X83260997Y-123129286D01*
X83304454Y-123272547D01*
X83375026Y-123404576D01*
X83469999Y-123520301D01*
X83585724Y-123615274D01*
X83717753Y-123685846D01*
X83861014Y-123729303D01*
X83972667Y-123740300D01*
X84010000Y-123743977D01*
X84047333Y-123740300D01*
X85528099Y-123740300D01*
X85914732Y-124126933D01*
X85914000Y-124126928D01*
X85789518Y-124139188D01*
X85669820Y-124175498D01*
X85559506Y-124234463D01*
X85471000Y-124307098D01*
X85382494Y-124234463D01*
X85272180Y-124175498D01*
X85152482Y-124139188D01*
X85028000Y-124126928D01*
X84613750Y-124130000D01*
X84455000Y-124288750D01*
X84455000Y-125213000D01*
X86487000Y-125213000D01*
X86487000Y-125193000D01*
X86741000Y-125193000D01*
X86741000Y-125213000D01*
X86761000Y-125213000D01*
X86761000Y-125467000D01*
X86741000Y-125467000D01*
X86741000Y-125487000D01*
X86487000Y-125487000D01*
X86487000Y-125467000D01*
X84455000Y-125467000D01*
X84455000Y-125487000D01*
X84201000Y-125487000D01*
X84201000Y-125467000D01*
X82169000Y-125467000D01*
X82169000Y-125487000D01*
X81915000Y-125487000D01*
X81915000Y-125467000D01*
X79883000Y-125467000D01*
X79883000Y-125487000D01*
X79629000Y-125487000D01*
X79629000Y-125467000D01*
X79609000Y-125467000D01*
X79609000Y-125213000D01*
X79629000Y-125213000D01*
X79629000Y-124288750D01*
X79883000Y-124288750D01*
X79883000Y-125213000D01*
X81915000Y-125213000D01*
X81915000Y-124288750D01*
X82169000Y-124288750D01*
X82169000Y-125213000D01*
X84201000Y-125213000D01*
X84201000Y-124288750D01*
X84042250Y-124130000D01*
X83628000Y-124126928D01*
X83503518Y-124139188D01*
X83383820Y-124175498D01*
X83273506Y-124234463D01*
X83185000Y-124307098D01*
X83096494Y-124234463D01*
X82986180Y-124175498D01*
X82866482Y-124139188D01*
X82742000Y-124126928D01*
X82327750Y-124130000D01*
X82169000Y-124288750D01*
X81915000Y-124288750D01*
X81756250Y-124130000D01*
X81342000Y-124126928D01*
X81217518Y-124139188D01*
X81097820Y-124175498D01*
X80987506Y-124234463D01*
X80899000Y-124307098D01*
X80810494Y-124234463D01*
X80700180Y-124175498D01*
X80580482Y-124139188D01*
X80456000Y-124126928D01*
X80041750Y-124130000D01*
X79883000Y-124288750D01*
X79629000Y-124288750D01*
X79470250Y-124130000D01*
X79056000Y-124126928D01*
X78931518Y-124139188D01*
X78811820Y-124175498D01*
X78701506Y-124234463D01*
X78604815Y-124313815D01*
X78525463Y-124410506D01*
X78466498Y-124520820D01*
X78430188Y-124640518D01*
X78417928Y-124765000D01*
X78420205Y-124979404D01*
X78409400Y-124968599D01*
X78409400Y-124858225D01*
X78413076Y-124820900D01*
X78409400Y-124783575D01*
X78409400Y-124783568D01*
X78398403Y-124671914D01*
X78354946Y-124528653D01*
X78284374Y-124396624D01*
X78189401Y-124280899D01*
X78160403Y-124257101D01*
X77185739Y-123282437D01*
X77209337Y-123280454D01*
X77210518Y-123280812D01*
X77335000Y-123293072D01*
X77885000Y-123293072D01*
X78009482Y-123280812D01*
X78010000Y-123280655D01*
X78010518Y-123280812D01*
X78135000Y-123293072D01*
X78685000Y-123293072D01*
X78809482Y-123280812D01*
X78810000Y-123280655D01*
X78810518Y-123280812D01*
X78935000Y-123293072D01*
X79485000Y-123293072D01*
X79609482Y-123280812D01*
X79610000Y-123280655D01*
X79610518Y-123280812D01*
X79735000Y-123293072D01*
X80285000Y-123293072D01*
X80409482Y-123280812D01*
X80410000Y-123280655D01*
X80410518Y-123280812D01*
X80535000Y-123293072D01*
X81085000Y-123293072D01*
X81209482Y-123280812D01*
X81210000Y-123280655D01*
X81210518Y-123280812D01*
X81335000Y-123293072D01*
X81885000Y-123293072D01*
X82009482Y-123280812D01*
X82010000Y-123280655D01*
X82010518Y-123280812D01*
X82135000Y-123293072D01*
X82685000Y-123293072D01*
X82809482Y-123280812D01*
X82810663Y-123280454D01*
X82924250Y-123290000D01*
X83016333Y-123197917D01*
X83039494Y-123185537D01*
X83136185Y-123106185D01*
X83210000Y-123016241D01*
X83255299Y-123071439D01*
X83255299Y-123071439D01*
G37*
X83255299Y-123071439D02*
X83260997Y-123129286D01*
X83304454Y-123272547D01*
X83375026Y-123404576D01*
X83469999Y-123520301D01*
X83585724Y-123615274D01*
X83717753Y-123685846D01*
X83861014Y-123729303D01*
X83972667Y-123740300D01*
X84010000Y-123743977D01*
X84047333Y-123740300D01*
X85528099Y-123740300D01*
X85914732Y-124126933D01*
X85914000Y-124126928D01*
X85789518Y-124139188D01*
X85669820Y-124175498D01*
X85559506Y-124234463D01*
X85471000Y-124307098D01*
X85382494Y-124234463D01*
X85272180Y-124175498D01*
X85152482Y-124139188D01*
X85028000Y-124126928D01*
X84613750Y-124130000D01*
X84455000Y-124288750D01*
X84455000Y-125213000D01*
X86487000Y-125213000D01*
X86487000Y-125193000D01*
X86741000Y-125193000D01*
X86741000Y-125213000D01*
X86761000Y-125213000D01*
X86761000Y-125467000D01*
X86741000Y-125467000D01*
X86741000Y-125487000D01*
X86487000Y-125487000D01*
X86487000Y-125467000D01*
X84455000Y-125467000D01*
X84455000Y-125487000D01*
X84201000Y-125487000D01*
X84201000Y-125467000D01*
X82169000Y-125467000D01*
X82169000Y-125487000D01*
X81915000Y-125487000D01*
X81915000Y-125467000D01*
X79883000Y-125467000D01*
X79883000Y-125487000D01*
X79629000Y-125487000D01*
X79629000Y-125467000D01*
X79609000Y-125467000D01*
X79609000Y-125213000D01*
X79629000Y-125213000D01*
X79629000Y-124288750D01*
X79883000Y-124288750D01*
X79883000Y-125213000D01*
X81915000Y-125213000D01*
X81915000Y-124288750D01*
X82169000Y-124288750D01*
X82169000Y-125213000D01*
X84201000Y-125213000D01*
X84201000Y-124288750D01*
X84042250Y-124130000D01*
X83628000Y-124126928D01*
X83503518Y-124139188D01*
X83383820Y-124175498D01*
X83273506Y-124234463D01*
X83185000Y-124307098D01*
X83096494Y-124234463D01*
X82986180Y-124175498D01*
X82866482Y-124139188D01*
X82742000Y-124126928D01*
X82327750Y-124130000D01*
X82169000Y-124288750D01*
X81915000Y-124288750D01*
X81756250Y-124130000D01*
X81342000Y-124126928D01*
X81217518Y-124139188D01*
X81097820Y-124175498D01*
X80987506Y-124234463D01*
X80899000Y-124307098D01*
X80810494Y-124234463D01*
X80700180Y-124175498D01*
X80580482Y-124139188D01*
X80456000Y-124126928D01*
X80041750Y-124130000D01*
X79883000Y-124288750D01*
X79629000Y-124288750D01*
X79470250Y-124130000D01*
X79056000Y-124126928D01*
X78931518Y-124139188D01*
X78811820Y-124175498D01*
X78701506Y-124234463D01*
X78604815Y-124313815D01*
X78525463Y-124410506D01*
X78466498Y-124520820D01*
X78430188Y-124640518D01*
X78417928Y-124765000D01*
X78420205Y-124979404D01*
X78409400Y-124968599D01*
X78409400Y-124858225D01*
X78413076Y-124820900D01*
X78409400Y-124783575D01*
X78409400Y-124783568D01*
X78398403Y-124671914D01*
X78354946Y-124528653D01*
X78284374Y-124396624D01*
X78189401Y-124280899D01*
X78160403Y-124257101D01*
X77185739Y-123282437D01*
X77209337Y-123280454D01*
X77210518Y-123280812D01*
X77335000Y-123293072D01*
X77885000Y-123293072D01*
X78009482Y-123280812D01*
X78010000Y-123280655D01*
X78010518Y-123280812D01*
X78135000Y-123293072D01*
X78685000Y-123293072D01*
X78809482Y-123280812D01*
X78810000Y-123280655D01*
X78810518Y-123280812D01*
X78935000Y-123293072D01*
X79485000Y-123293072D01*
X79609482Y-123280812D01*
X79610000Y-123280655D01*
X79610518Y-123280812D01*
X79735000Y-123293072D01*
X80285000Y-123293072D01*
X80409482Y-123280812D01*
X80410000Y-123280655D01*
X80410518Y-123280812D01*
X80535000Y-123293072D01*
X81085000Y-123293072D01*
X81209482Y-123280812D01*
X81210000Y-123280655D01*
X81210518Y-123280812D01*
X81335000Y-123293072D01*
X81885000Y-123293072D01*
X82009482Y-123280812D01*
X82010000Y-123280655D01*
X82010518Y-123280812D01*
X82135000Y-123293072D01*
X82685000Y-123293072D01*
X82809482Y-123280812D01*
X82810663Y-123280454D01*
X82924250Y-123290000D01*
X83016333Y-123197917D01*
X83039494Y-123185537D01*
X83136185Y-123106185D01*
X83210000Y-123016241D01*
X83255299Y-123071439D01*
G36*
X83003000Y-115865802D02*
G01*
X83026799Y-115894801D01*
X83055797Y-115918599D01*
X83142523Y-115989774D01*
X83266450Y-116056015D01*
X83274553Y-116060346D01*
X83285100Y-116063545D01*
X83285100Y-116213039D01*
X83324874Y-116412998D01*
X83402895Y-116601356D01*
X83516163Y-116770874D01*
X83660326Y-116915037D01*
X83829844Y-117028305D01*
X84018202Y-117106326D01*
X84218161Y-117146100D01*
X84422039Y-117146100D01*
X84459752Y-117138598D01*
X84429463Y-117175506D01*
X84417083Y-117198667D01*
X84325000Y-117290750D01*
X84334546Y-117404337D01*
X84334188Y-117405518D01*
X84321928Y-117530000D01*
X84321928Y-118080000D01*
X84334188Y-118204482D01*
X84334345Y-118205000D01*
X84334188Y-118205518D01*
X84321928Y-118330000D01*
X84321928Y-118770925D01*
X84207299Y-118864999D01*
X84183501Y-118893998D01*
X83499002Y-119578497D01*
X83469999Y-119602299D01*
X83418543Y-119664999D01*
X83375026Y-119718024D01*
X83341512Y-119780724D01*
X83304454Y-119850054D01*
X83260997Y-119993315D01*
X83250000Y-120104968D01*
X83250000Y-120104978D01*
X83246324Y-120142300D01*
X83250000Y-120179622D01*
X83250000Y-120745019D01*
X83210000Y-120793759D01*
X83136185Y-120703815D01*
X83039494Y-120624463D01*
X83016333Y-120612083D01*
X82924250Y-120520000D01*
X82810663Y-120529546D01*
X82809482Y-120529188D01*
X82685000Y-120516928D01*
X82135000Y-120516928D01*
X82010518Y-120529188D01*
X82010000Y-120529345D01*
X82009482Y-120529188D01*
X81885000Y-120516928D01*
X81335000Y-120516928D01*
X81210518Y-120529188D01*
X81210000Y-120529345D01*
X81209482Y-120529188D01*
X81085000Y-120516928D01*
X80535000Y-120516928D01*
X80410518Y-120529188D01*
X80410000Y-120529345D01*
X80409482Y-120529188D01*
X80285000Y-120516928D01*
X79735000Y-120516928D01*
X79610518Y-120529188D01*
X79610000Y-120529345D01*
X79609482Y-120529188D01*
X79485000Y-120516928D01*
X78935000Y-120516928D01*
X78810518Y-120529188D01*
X78810000Y-120529345D01*
X78809482Y-120529188D01*
X78685000Y-120516928D01*
X78135000Y-120516928D01*
X78010518Y-120529188D01*
X78010000Y-120529345D01*
X78009482Y-120529188D01*
X77885000Y-120516928D01*
X77335000Y-120516928D01*
X77210518Y-120529188D01*
X77209337Y-120529546D01*
X77095750Y-120520000D01*
X77003667Y-120612083D01*
X76980506Y-120624463D01*
X76883815Y-120703815D01*
X76810000Y-120793759D01*
X76770000Y-120745019D01*
X76770000Y-116454501D01*
X77776005Y-115448497D01*
X77805001Y-115424701D01*
X77828801Y-115395700D01*
X78292302Y-114932200D01*
X82069399Y-114932200D01*
X83003000Y-115865802D01*
X83003000Y-115865802D01*
G37*
X83003000Y-115865802D02*
X83026799Y-115894801D01*
X83055797Y-115918599D01*
X83142523Y-115989774D01*
X83266450Y-116056015D01*
X83274553Y-116060346D01*
X83285100Y-116063545D01*
X83285100Y-116213039D01*
X83324874Y-116412998D01*
X83402895Y-116601356D01*
X83516163Y-116770874D01*
X83660326Y-116915037D01*
X83829844Y-117028305D01*
X84018202Y-117106326D01*
X84218161Y-117146100D01*
X84422039Y-117146100D01*
X84459752Y-117138598D01*
X84429463Y-117175506D01*
X84417083Y-117198667D01*
X84325000Y-117290750D01*
X84334546Y-117404337D01*
X84334188Y-117405518D01*
X84321928Y-117530000D01*
X84321928Y-118080000D01*
X84334188Y-118204482D01*
X84334345Y-118205000D01*
X84334188Y-118205518D01*
X84321928Y-118330000D01*
X84321928Y-118770925D01*
X84207299Y-118864999D01*
X84183501Y-118893998D01*
X83499002Y-119578497D01*
X83469999Y-119602299D01*
X83418543Y-119664999D01*
X83375026Y-119718024D01*
X83341512Y-119780724D01*
X83304454Y-119850054D01*
X83260997Y-119993315D01*
X83250000Y-120104968D01*
X83250000Y-120104978D01*
X83246324Y-120142300D01*
X83250000Y-120179622D01*
X83250000Y-120745019D01*
X83210000Y-120793759D01*
X83136185Y-120703815D01*
X83039494Y-120624463D01*
X83016333Y-120612083D01*
X82924250Y-120520000D01*
X82810663Y-120529546D01*
X82809482Y-120529188D01*
X82685000Y-120516928D01*
X82135000Y-120516928D01*
X82010518Y-120529188D01*
X82010000Y-120529345D01*
X82009482Y-120529188D01*
X81885000Y-120516928D01*
X81335000Y-120516928D01*
X81210518Y-120529188D01*
X81210000Y-120529345D01*
X81209482Y-120529188D01*
X81085000Y-120516928D01*
X80535000Y-120516928D01*
X80410518Y-120529188D01*
X80410000Y-120529345D01*
X80409482Y-120529188D01*
X80285000Y-120516928D01*
X79735000Y-120516928D01*
X79610518Y-120529188D01*
X79610000Y-120529345D01*
X79609482Y-120529188D01*
X79485000Y-120516928D01*
X78935000Y-120516928D01*
X78810518Y-120529188D01*
X78810000Y-120529345D01*
X78809482Y-120529188D01*
X78685000Y-120516928D01*
X78135000Y-120516928D01*
X78010518Y-120529188D01*
X78010000Y-120529345D01*
X78009482Y-120529188D01*
X77885000Y-120516928D01*
X77335000Y-120516928D01*
X77210518Y-120529188D01*
X77209337Y-120529546D01*
X77095750Y-120520000D01*
X77003667Y-120612083D01*
X76980506Y-120624463D01*
X76883815Y-120703815D01*
X76810000Y-120793759D01*
X76770000Y-120745019D01*
X76770000Y-116454501D01*
X77776005Y-115448497D01*
X77805001Y-115424701D01*
X77828801Y-115395700D01*
X78292302Y-114932200D01*
X82069399Y-114932200D01*
X83003000Y-115865802D01*
G36*
X88401000Y-107061000D02*
G01*
X88417500Y-107061000D01*
X88417500Y-107315000D01*
X88401000Y-107315000D01*
X88401000Y-108364250D01*
X88417500Y-108380750D01*
X88417501Y-115097997D01*
X87098072Y-116417427D01*
X87098072Y-115930000D01*
X87085812Y-115805518D01*
X87085655Y-115805000D01*
X87085812Y-115804482D01*
X87098072Y-115680000D01*
X87098072Y-115130000D01*
X87085812Y-115005518D01*
X87085655Y-115005000D01*
X87085812Y-115004482D01*
X87098072Y-114880000D01*
X87098072Y-114330000D01*
X87085812Y-114205518D01*
X87085655Y-114205000D01*
X87085812Y-114204482D01*
X87098072Y-114080000D01*
X87098072Y-113530000D01*
X87085812Y-113405518D01*
X87085655Y-113405000D01*
X87085812Y-113404482D01*
X87098072Y-113280000D01*
X87098072Y-112730000D01*
X87085812Y-112605518D01*
X87085655Y-112605000D01*
X87085812Y-112604482D01*
X87098072Y-112480000D01*
X87098072Y-111930000D01*
X87085812Y-111805518D01*
X87049502Y-111685820D01*
X86990537Y-111575506D01*
X86911185Y-111478815D01*
X86814494Y-111399463D01*
X86704180Y-111340498D01*
X86584482Y-111304188D01*
X86460000Y-111291928D01*
X84960000Y-111291928D01*
X84919038Y-111295962D01*
X84923072Y-111255000D01*
X84923072Y-109755000D01*
X84919685Y-109720615D01*
X85005598Y-109703526D01*
X85193956Y-109625505D01*
X85363474Y-109512237D01*
X85507637Y-109368074D01*
X85620905Y-109198556D01*
X85698926Y-109010198D01*
X85738700Y-108810239D01*
X85738700Y-108748101D01*
X85960729Y-108526072D01*
X86549001Y-108526072D01*
X86722255Y-108509008D01*
X86888851Y-108458472D01*
X87042387Y-108376405D01*
X87176962Y-108265962D01*
X87182342Y-108259406D01*
X87247815Y-108339185D01*
X87344506Y-108418537D01*
X87454820Y-108477502D01*
X87574518Y-108513812D01*
X87699000Y-108526072D01*
X87988250Y-108523000D01*
X88147000Y-108364250D01*
X88147000Y-107315000D01*
X88127000Y-107315000D01*
X88127000Y-107061000D01*
X88147000Y-107061000D01*
X88147000Y-107041000D01*
X88401000Y-107041000D01*
X88401000Y-107061000D01*
X88401000Y-107061000D01*
G37*
X88401000Y-107061000D02*
X88417500Y-107061000D01*
X88417500Y-107315000D01*
X88401000Y-107315000D01*
X88401000Y-108364250D01*
X88417500Y-108380750D01*
X88417501Y-115097997D01*
X87098072Y-116417427D01*
X87098072Y-115930000D01*
X87085812Y-115805518D01*
X87085655Y-115805000D01*
X87085812Y-115804482D01*
X87098072Y-115680000D01*
X87098072Y-115130000D01*
X87085812Y-115005518D01*
X87085655Y-115005000D01*
X87085812Y-115004482D01*
X87098072Y-114880000D01*
X87098072Y-114330000D01*
X87085812Y-114205518D01*
X87085655Y-114205000D01*
X87085812Y-114204482D01*
X87098072Y-114080000D01*
X87098072Y-113530000D01*
X87085812Y-113405518D01*
X87085655Y-113405000D01*
X87085812Y-113404482D01*
X87098072Y-113280000D01*
X87098072Y-112730000D01*
X87085812Y-112605518D01*
X87085655Y-112605000D01*
X87085812Y-112604482D01*
X87098072Y-112480000D01*
X87098072Y-111930000D01*
X87085812Y-111805518D01*
X87049502Y-111685820D01*
X86990537Y-111575506D01*
X86911185Y-111478815D01*
X86814494Y-111399463D01*
X86704180Y-111340498D01*
X86584482Y-111304188D01*
X86460000Y-111291928D01*
X84960000Y-111291928D01*
X84919038Y-111295962D01*
X84923072Y-111255000D01*
X84923072Y-109755000D01*
X84919685Y-109720615D01*
X85005598Y-109703526D01*
X85193956Y-109625505D01*
X85363474Y-109512237D01*
X85507637Y-109368074D01*
X85620905Y-109198556D01*
X85698926Y-109010198D01*
X85738700Y-108810239D01*
X85738700Y-108748101D01*
X85960729Y-108526072D01*
X86549001Y-108526072D01*
X86722255Y-108509008D01*
X86888851Y-108458472D01*
X87042387Y-108376405D01*
X87176962Y-108265962D01*
X87182342Y-108259406D01*
X87247815Y-108339185D01*
X87344506Y-108418537D01*
X87454820Y-108477502D01*
X87574518Y-108513812D01*
X87699000Y-108526072D01*
X87988250Y-108523000D01*
X88147000Y-108364250D01*
X88147000Y-107315000D01*
X88127000Y-107315000D01*
X88127000Y-107061000D01*
X88147000Y-107061000D01*
X88147000Y-107041000D01*
X88401000Y-107041000D01*
X88401000Y-107061000D01*
G36*
X75231482Y-109367583D02*
G01*
X75204463Y-109400506D01*
X75145498Y-109510820D01*
X75109188Y-109630518D01*
X75096928Y-109755000D01*
X75096928Y-111255000D01*
X75100972Y-111296064D01*
X75056787Y-111291936D01*
X74595750Y-111295000D01*
X74437000Y-111453750D01*
X74437000Y-112078000D01*
X75536250Y-112078000D01*
X75695000Y-111919250D01*
X75692448Y-111888881D01*
X75735000Y-111893072D01*
X76285000Y-111893072D01*
X76409482Y-111880812D01*
X76410000Y-111880655D01*
X76410518Y-111880812D01*
X76535000Y-111893072D01*
X77085000Y-111893072D01*
X77209482Y-111880812D01*
X77210000Y-111880655D01*
X77210518Y-111880812D01*
X77335000Y-111893072D01*
X77885000Y-111893072D01*
X78009482Y-111880812D01*
X78010000Y-111880655D01*
X78010518Y-111880812D01*
X78135000Y-111893072D01*
X78685000Y-111893072D01*
X78809482Y-111880812D01*
X78810000Y-111880655D01*
X78810518Y-111880812D01*
X78935000Y-111893072D01*
X79485000Y-111893072D01*
X79609482Y-111880812D01*
X79610000Y-111880655D01*
X79610518Y-111880812D01*
X79735000Y-111893072D01*
X80285000Y-111893072D01*
X80409482Y-111880812D01*
X80410000Y-111880655D01*
X80410518Y-111880812D01*
X80535000Y-111893072D01*
X81085000Y-111893072D01*
X81209482Y-111880812D01*
X81210663Y-111880454D01*
X81324250Y-111890000D01*
X81416333Y-111797917D01*
X81439494Y-111785537D01*
X81536185Y-111706185D01*
X81610000Y-111616241D01*
X81623094Y-111632196D01*
X81624200Y-111643423D01*
X81624201Y-113412200D01*
X78014822Y-113412200D01*
X77977499Y-113408524D01*
X77940176Y-113412200D01*
X77940167Y-113412200D01*
X77828514Y-113423197D01*
X77685253Y-113466654D01*
X77553224Y-113537226D01*
X77437499Y-113632199D01*
X77413701Y-113661198D01*
X77265000Y-113809898D01*
X75949104Y-112494003D01*
X75925301Y-112464999D01*
X75809576Y-112370026D01*
X75677547Y-112299454D01*
X75534286Y-112255997D01*
X75476439Y-112250299D01*
X75414494Y-112199463D01*
X75304180Y-112140498D01*
X75184482Y-112104188D01*
X75060000Y-112091928D01*
X74163000Y-112091928D01*
X74163000Y-112078000D01*
X74183000Y-112078000D01*
X74183000Y-111453750D01*
X74024250Y-111295000D01*
X73563213Y-111291936D01*
X73438671Y-111303570D01*
X73318792Y-111339276D01*
X73208182Y-111397684D01*
X73111092Y-111476549D01*
X73031254Y-111572839D01*
X72977219Y-111672718D01*
X71992174Y-110687673D01*
X72082474Y-110627337D01*
X72226637Y-110483174D01*
X72339905Y-110313656D01*
X72417926Y-110125298D01*
X72457700Y-109925339D01*
X72457700Y-109721461D01*
X72417926Y-109521502D01*
X72339905Y-109333144D01*
X72226637Y-109163626D01*
X72125000Y-109061989D01*
X72125000Y-108636921D01*
X72161774Y-108821798D01*
X72239795Y-109010156D01*
X72353063Y-109179674D01*
X72497226Y-109323837D01*
X72666744Y-109437105D01*
X72855102Y-109515126D01*
X73055061Y-109554900D01*
X73258939Y-109554900D01*
X73458898Y-109515126D01*
X73647256Y-109437105D01*
X73816774Y-109323837D01*
X73960937Y-109179674D01*
X74074205Y-109010156D01*
X74152226Y-108821798D01*
X74192000Y-108621839D01*
X74192000Y-108417961D01*
X74188506Y-108400395D01*
X74233387Y-108376405D01*
X74237186Y-108373287D01*
X75231482Y-109367583D01*
X75231482Y-109367583D01*
G37*
X75231482Y-109367583D02*
X75204463Y-109400506D01*
X75145498Y-109510820D01*
X75109188Y-109630518D01*
X75096928Y-109755000D01*
X75096928Y-111255000D01*
X75100972Y-111296064D01*
X75056787Y-111291936D01*
X74595750Y-111295000D01*
X74437000Y-111453750D01*
X74437000Y-112078000D01*
X75536250Y-112078000D01*
X75695000Y-111919250D01*
X75692448Y-111888881D01*
X75735000Y-111893072D01*
X76285000Y-111893072D01*
X76409482Y-111880812D01*
X76410000Y-111880655D01*
X76410518Y-111880812D01*
X76535000Y-111893072D01*
X77085000Y-111893072D01*
X77209482Y-111880812D01*
X77210000Y-111880655D01*
X77210518Y-111880812D01*
X77335000Y-111893072D01*
X77885000Y-111893072D01*
X78009482Y-111880812D01*
X78010000Y-111880655D01*
X78010518Y-111880812D01*
X78135000Y-111893072D01*
X78685000Y-111893072D01*
X78809482Y-111880812D01*
X78810000Y-111880655D01*
X78810518Y-111880812D01*
X78935000Y-111893072D01*
X79485000Y-111893072D01*
X79609482Y-111880812D01*
X79610000Y-111880655D01*
X79610518Y-111880812D01*
X79735000Y-111893072D01*
X80285000Y-111893072D01*
X80409482Y-111880812D01*
X80410000Y-111880655D01*
X80410518Y-111880812D01*
X80535000Y-111893072D01*
X81085000Y-111893072D01*
X81209482Y-111880812D01*
X81210663Y-111880454D01*
X81324250Y-111890000D01*
X81416333Y-111797917D01*
X81439494Y-111785537D01*
X81536185Y-111706185D01*
X81610000Y-111616241D01*
X81623094Y-111632196D01*
X81624200Y-111643423D01*
X81624201Y-113412200D01*
X78014822Y-113412200D01*
X77977499Y-113408524D01*
X77940176Y-113412200D01*
X77940167Y-113412200D01*
X77828514Y-113423197D01*
X77685253Y-113466654D01*
X77553224Y-113537226D01*
X77437499Y-113632199D01*
X77413701Y-113661198D01*
X77265000Y-113809898D01*
X75949104Y-112494003D01*
X75925301Y-112464999D01*
X75809576Y-112370026D01*
X75677547Y-112299454D01*
X75534286Y-112255997D01*
X75476439Y-112250299D01*
X75414494Y-112199463D01*
X75304180Y-112140498D01*
X75184482Y-112104188D01*
X75060000Y-112091928D01*
X74163000Y-112091928D01*
X74163000Y-112078000D01*
X74183000Y-112078000D01*
X74183000Y-111453750D01*
X74024250Y-111295000D01*
X73563213Y-111291936D01*
X73438671Y-111303570D01*
X73318792Y-111339276D01*
X73208182Y-111397684D01*
X73111092Y-111476549D01*
X73031254Y-111572839D01*
X72977219Y-111672718D01*
X71992174Y-110687673D01*
X72082474Y-110627337D01*
X72226637Y-110483174D01*
X72339905Y-110313656D01*
X72417926Y-110125298D01*
X72457700Y-109925339D01*
X72457700Y-109721461D01*
X72417926Y-109521502D01*
X72339905Y-109333144D01*
X72226637Y-109163626D01*
X72125000Y-109061989D01*
X72125000Y-108636921D01*
X72161774Y-108821798D01*
X72239795Y-109010156D01*
X72353063Y-109179674D01*
X72497226Y-109323837D01*
X72666744Y-109437105D01*
X72855102Y-109515126D01*
X73055061Y-109554900D01*
X73258939Y-109554900D01*
X73458898Y-109515126D01*
X73647256Y-109437105D01*
X73816774Y-109323837D01*
X73960937Y-109179674D01*
X74074205Y-109010156D01*
X74152226Y-108821798D01*
X74192000Y-108621839D01*
X74192000Y-108417961D01*
X74188506Y-108400395D01*
X74233387Y-108376405D01*
X74237186Y-108373287D01*
X75231482Y-109367583D01*
G36*
X84663899Y-107673300D02*
G01*
X84601761Y-107673300D01*
X84401802Y-107713074D01*
X84213444Y-107791095D01*
X84043926Y-107904363D01*
X83899763Y-108048526D01*
X83828224Y-108155591D01*
X83794556Y-108133095D01*
X83606198Y-108055074D01*
X83537968Y-108041502D01*
X83792390Y-107787042D01*
X83800782Y-107784496D01*
X83869620Y-107763639D01*
X83869725Y-107763583D01*
X83869847Y-107763546D01*
X83937291Y-107727496D01*
X84001672Y-107693110D01*
X84001766Y-107693033D01*
X84001876Y-107692974D01*
X84056589Y-107648072D01*
X84651001Y-107648072D01*
X84693292Y-107643907D01*
X84663899Y-107673300D01*
X84663899Y-107673300D01*
G37*
X84663899Y-107673300D02*
X84601761Y-107673300D01*
X84401802Y-107713074D01*
X84213444Y-107791095D01*
X84043926Y-107904363D01*
X83899763Y-108048526D01*
X83828224Y-108155591D01*
X83794556Y-108133095D01*
X83606198Y-108055074D01*
X83537968Y-108041502D01*
X83792390Y-107787042D01*
X83800782Y-107784496D01*
X83869620Y-107763639D01*
X83869725Y-107763583D01*
X83869847Y-107763546D01*
X83937291Y-107727496D01*
X84001672Y-107693110D01*
X84001766Y-107693033D01*
X84001876Y-107692974D01*
X84056589Y-107648072D01*
X84651001Y-107648072D01*
X84693292Y-107643907D01*
X84663899Y-107673300D01*
G36*
X81407000Y-106553000D02*
G01*
X81427000Y-106553000D01*
X81427000Y-106807000D01*
X81407000Y-106807000D01*
X81407000Y-106827000D01*
X81153000Y-106827000D01*
X81153000Y-106807000D01*
X81133000Y-106807000D01*
X81133000Y-106553000D01*
X81153000Y-106553000D01*
X81153000Y-106533000D01*
X81407000Y-106533000D01*
X81407000Y-106553000D01*
X81407000Y-106553000D01*
G37*
X81407000Y-106553000D02*
X81427000Y-106553000D01*
X81427000Y-106807000D01*
X81407000Y-106807000D01*
X81407000Y-106827000D01*
X81153000Y-106827000D01*
X81153000Y-106807000D01*
X81133000Y-106807000D01*
X81133000Y-106553000D01*
X81153000Y-106553000D01*
X81153000Y-106533000D01*
X81407000Y-106533000D01*
X81407000Y-106553000D01*
G36*
X82392702Y-93759197D02*
G01*
X82363699Y-93782999D01*
X82308571Y-93850174D01*
X82268726Y-93898724D01*
X82230427Y-93970376D01*
X82198154Y-94030754D01*
X82154697Y-94174015D01*
X82143700Y-94285668D01*
X82143700Y-94285678D01*
X82140024Y-94323000D01*
X82143700Y-94360323D01*
X82143701Y-95245188D01*
X82099763Y-95289126D01*
X81986495Y-95458644D01*
X81908474Y-95647002D01*
X81868700Y-95846961D01*
X81868700Y-95929600D01*
X81242433Y-95929600D01*
X81205100Y-95925923D01*
X81167767Y-95929600D01*
X81056114Y-95940597D01*
X80912853Y-95984054D01*
X80780824Y-96054626D01*
X80665099Y-96149599D01*
X80641301Y-96178598D01*
X79954202Y-96865697D01*
X79925199Y-96889499D01*
X79885569Y-96937789D01*
X79830226Y-97005224D01*
X79774195Y-97110050D01*
X79759654Y-97137254D01*
X79716197Y-97280515D01*
X79705200Y-97392168D01*
X79705200Y-97392178D01*
X79701524Y-97429500D01*
X79705200Y-97466823D01*
X79705200Y-97717889D01*
X79661263Y-97761826D01*
X79547995Y-97931344D01*
X79469974Y-98119702D01*
X79430200Y-98319661D01*
X79430200Y-98523539D01*
X79469974Y-98723498D01*
X79547995Y-98911856D01*
X79661263Y-99081374D01*
X79805426Y-99225537D01*
X79974944Y-99338805D01*
X80163302Y-99416826D01*
X80363261Y-99456600D01*
X80567139Y-99456600D01*
X80767098Y-99416826D01*
X80955456Y-99338805D01*
X81124974Y-99225537D01*
X81269137Y-99081374D01*
X81382405Y-98911856D01*
X81460426Y-98723498D01*
X81500200Y-98523539D01*
X81500200Y-98504700D01*
X81569539Y-98504700D01*
X81697860Y-98479176D01*
X81722892Y-98605022D01*
X81795259Y-98779731D01*
X81900319Y-98936964D01*
X82034036Y-99070681D01*
X82191269Y-99175741D01*
X82365978Y-99248108D01*
X82551448Y-99285000D01*
X82740552Y-99285000D01*
X82926022Y-99248108D01*
X82941000Y-99241904D01*
X82941000Y-99532000D01*
X82987585Y-99750987D01*
X83075997Y-99956678D01*
X83202839Y-100141169D01*
X83363236Y-100297369D01*
X83551024Y-100419276D01*
X83774126Y-100499119D01*
X83949000Y-100372954D01*
X83949000Y-98982000D01*
X83929000Y-98982000D01*
X83929000Y-98728000D01*
X83949000Y-98728000D01*
X83949000Y-98708000D01*
X84203000Y-98708000D01*
X84203000Y-98728000D01*
X84223000Y-98728000D01*
X84223000Y-98982000D01*
X84203000Y-98982000D01*
X84203000Y-100372954D01*
X84377874Y-100499119D01*
X84435600Y-100478460D01*
X84435601Y-103226149D01*
X84328000Y-103333750D01*
X84328000Y-104258000D01*
X84348000Y-104258000D01*
X84348000Y-104512000D01*
X84328000Y-104512000D01*
X84328000Y-104532000D01*
X84074000Y-104532000D01*
X84074000Y-104512000D01*
X84054000Y-104512000D01*
X84054000Y-104258000D01*
X84074000Y-104258000D01*
X84074000Y-103333750D01*
X83915250Y-103175000D01*
X83501000Y-103171928D01*
X83376518Y-103184188D01*
X83256820Y-103220498D01*
X83146506Y-103279463D01*
X83049815Y-103358815D01*
X82970463Y-103455506D01*
X82966407Y-103463094D01*
X82955812Y-103355518D01*
X82919502Y-103235820D01*
X82860537Y-103125506D01*
X82781185Y-103028815D01*
X82684494Y-102949463D01*
X82574180Y-102890498D01*
X82454482Y-102854188D01*
X82330000Y-102841928D01*
X80230000Y-102841928D01*
X80105518Y-102854188D01*
X79985820Y-102890498D01*
X79875506Y-102949463D01*
X79830000Y-102986809D01*
X79784494Y-102949463D01*
X79674180Y-102890498D01*
X79554482Y-102854188D01*
X79430000Y-102841928D01*
X78665750Y-102845000D01*
X78507000Y-103003750D01*
X78507000Y-104253000D01*
X78527000Y-104253000D01*
X78527000Y-104507000D01*
X78507000Y-104507000D01*
X78507000Y-104527000D01*
X78253000Y-104527000D01*
X78253000Y-104507000D01*
X76853750Y-104507000D01*
X76731500Y-104629250D01*
X76614250Y-104512000D01*
X75565000Y-104512000D01*
X75565000Y-104532000D01*
X75311000Y-104532000D01*
X75311000Y-104512000D01*
X75291000Y-104512000D01*
X75291000Y-104258000D01*
X75311000Y-104258000D01*
X75311000Y-103333750D01*
X75565000Y-103333750D01*
X75565000Y-104258000D01*
X76614250Y-104258000D01*
X76736500Y-104135750D01*
X76853750Y-104253000D01*
X78253000Y-104253000D01*
X78253000Y-103003750D01*
X78094250Y-102845000D01*
X77330000Y-102841928D01*
X77205518Y-102854188D01*
X77085820Y-102890498D01*
X76975506Y-102949463D01*
X76878815Y-103028815D01*
X76799463Y-103125506D01*
X76740498Y-103235820D01*
X76704188Y-103355518D01*
X76691928Y-103480000D01*
X76692025Y-103499449D01*
X76668537Y-103455506D01*
X76589185Y-103358815D01*
X76492494Y-103279463D01*
X76382180Y-103220498D01*
X76262482Y-103184188D01*
X76138000Y-103171928D01*
X75723750Y-103175000D01*
X75565000Y-103333750D01*
X75311000Y-103333750D01*
X75152250Y-103175000D01*
X75124000Y-103174791D01*
X75124000Y-103094325D01*
X75127676Y-103057000D01*
X75124000Y-103019675D01*
X75124000Y-103019667D01*
X75113003Y-102908014D01*
X75069546Y-102764753D01*
X74998974Y-102632724D01*
X74904001Y-102516999D01*
X74875003Y-102493201D01*
X74628072Y-102246270D01*
X74628072Y-101657999D01*
X74611008Y-101484745D01*
X74560472Y-101318149D01*
X74478405Y-101164613D01*
X74367962Y-101030038D01*
X74281595Y-100959158D01*
X74344494Y-100925537D01*
X74441185Y-100846185D01*
X74520537Y-100749494D01*
X74579502Y-100639180D01*
X74615812Y-100519482D01*
X74628072Y-100395000D01*
X74626650Y-100203311D01*
X74723236Y-100297369D01*
X74911024Y-100419276D01*
X75134126Y-100499119D01*
X75309000Y-100372954D01*
X75309000Y-98982000D01*
X75289000Y-98982000D01*
X75289000Y-98728000D01*
X75309000Y-98728000D01*
X75309000Y-98708000D01*
X75563000Y-98708000D01*
X75563000Y-98728000D01*
X75583000Y-98728000D01*
X75583000Y-98982000D01*
X75563000Y-98982000D01*
X75563000Y-100372954D01*
X75737874Y-100499119D01*
X75960976Y-100419276D01*
X76148764Y-100297369D01*
X76309161Y-100141169D01*
X76436003Y-99956678D01*
X76524415Y-99750987D01*
X76571000Y-99532000D01*
X76571000Y-99241904D01*
X76585978Y-99248108D01*
X76771448Y-99285000D01*
X76960552Y-99285000D01*
X77146022Y-99248108D01*
X77320731Y-99175741D01*
X77477964Y-99070681D01*
X77611681Y-98936964D01*
X77716741Y-98779731D01*
X77789108Y-98605022D01*
X77826000Y-98419552D01*
X77826000Y-98230448D01*
X77789108Y-98044978D01*
X77716741Y-97870269D01*
X77611681Y-97713036D01*
X77477964Y-97579319D01*
X77320731Y-97474259D01*
X77146022Y-97401892D01*
X77104922Y-97393717D01*
X77178826Y-97215298D01*
X77218600Y-97015339D01*
X77218600Y-96811461D01*
X77178826Y-96611502D01*
X77100805Y-96423144D01*
X76987537Y-96253626D01*
X76843374Y-96109463D01*
X76673856Y-95996195D01*
X76485498Y-95918174D01*
X76285539Y-95878400D01*
X76223402Y-95878400D01*
X76180989Y-95835987D01*
X76309161Y-95711169D01*
X76436003Y-95526678D01*
X76524415Y-95320987D01*
X76571000Y-95102000D01*
X76571000Y-94802000D01*
X75563000Y-94802000D01*
X75563000Y-94822000D01*
X75309000Y-94822000D01*
X75309000Y-94802000D01*
X75289000Y-94802000D01*
X75289000Y-94548000D01*
X75309000Y-94548000D01*
X75309000Y-94528000D01*
X75563000Y-94528000D01*
X75563000Y-94548000D01*
X76571000Y-94548000D01*
X76571000Y-94248000D01*
X76524415Y-94029013D01*
X76436003Y-93823322D01*
X76316152Y-93649000D01*
X82502899Y-93649000D01*
X82392702Y-93759197D01*
X82392702Y-93759197D01*
G37*
X82392702Y-93759197D02*
X82363699Y-93782999D01*
X82308571Y-93850174D01*
X82268726Y-93898724D01*
X82230427Y-93970376D01*
X82198154Y-94030754D01*
X82154697Y-94174015D01*
X82143700Y-94285668D01*
X82143700Y-94285678D01*
X82140024Y-94323000D01*
X82143700Y-94360323D01*
X82143701Y-95245188D01*
X82099763Y-95289126D01*
X81986495Y-95458644D01*
X81908474Y-95647002D01*
X81868700Y-95846961D01*
X81868700Y-95929600D01*
X81242433Y-95929600D01*
X81205100Y-95925923D01*
X81167767Y-95929600D01*
X81056114Y-95940597D01*
X80912853Y-95984054D01*
X80780824Y-96054626D01*
X80665099Y-96149599D01*
X80641301Y-96178598D01*
X79954202Y-96865697D01*
X79925199Y-96889499D01*
X79885569Y-96937789D01*
X79830226Y-97005224D01*
X79774195Y-97110050D01*
X79759654Y-97137254D01*
X79716197Y-97280515D01*
X79705200Y-97392168D01*
X79705200Y-97392178D01*
X79701524Y-97429500D01*
X79705200Y-97466823D01*
X79705200Y-97717889D01*
X79661263Y-97761826D01*
X79547995Y-97931344D01*
X79469974Y-98119702D01*
X79430200Y-98319661D01*
X79430200Y-98523539D01*
X79469974Y-98723498D01*
X79547995Y-98911856D01*
X79661263Y-99081374D01*
X79805426Y-99225537D01*
X79974944Y-99338805D01*
X80163302Y-99416826D01*
X80363261Y-99456600D01*
X80567139Y-99456600D01*
X80767098Y-99416826D01*
X80955456Y-99338805D01*
X81124974Y-99225537D01*
X81269137Y-99081374D01*
X81382405Y-98911856D01*
X81460426Y-98723498D01*
X81500200Y-98523539D01*
X81500200Y-98504700D01*
X81569539Y-98504700D01*
X81697860Y-98479176D01*
X81722892Y-98605022D01*
X81795259Y-98779731D01*
X81900319Y-98936964D01*
X82034036Y-99070681D01*
X82191269Y-99175741D01*
X82365978Y-99248108D01*
X82551448Y-99285000D01*
X82740552Y-99285000D01*
X82926022Y-99248108D01*
X82941000Y-99241904D01*
X82941000Y-99532000D01*
X82987585Y-99750987D01*
X83075997Y-99956678D01*
X83202839Y-100141169D01*
X83363236Y-100297369D01*
X83551024Y-100419276D01*
X83774126Y-100499119D01*
X83949000Y-100372954D01*
X83949000Y-98982000D01*
X83929000Y-98982000D01*
X83929000Y-98728000D01*
X83949000Y-98728000D01*
X83949000Y-98708000D01*
X84203000Y-98708000D01*
X84203000Y-98728000D01*
X84223000Y-98728000D01*
X84223000Y-98982000D01*
X84203000Y-98982000D01*
X84203000Y-100372954D01*
X84377874Y-100499119D01*
X84435600Y-100478460D01*
X84435601Y-103226149D01*
X84328000Y-103333750D01*
X84328000Y-104258000D01*
X84348000Y-104258000D01*
X84348000Y-104512000D01*
X84328000Y-104512000D01*
X84328000Y-104532000D01*
X84074000Y-104532000D01*
X84074000Y-104512000D01*
X84054000Y-104512000D01*
X84054000Y-104258000D01*
X84074000Y-104258000D01*
X84074000Y-103333750D01*
X83915250Y-103175000D01*
X83501000Y-103171928D01*
X83376518Y-103184188D01*
X83256820Y-103220498D01*
X83146506Y-103279463D01*
X83049815Y-103358815D01*
X82970463Y-103455506D01*
X82966407Y-103463094D01*
X82955812Y-103355518D01*
X82919502Y-103235820D01*
X82860537Y-103125506D01*
X82781185Y-103028815D01*
X82684494Y-102949463D01*
X82574180Y-102890498D01*
X82454482Y-102854188D01*
X82330000Y-102841928D01*
X80230000Y-102841928D01*
X80105518Y-102854188D01*
X79985820Y-102890498D01*
X79875506Y-102949463D01*
X79830000Y-102986809D01*
X79784494Y-102949463D01*
X79674180Y-102890498D01*
X79554482Y-102854188D01*
X79430000Y-102841928D01*
X78665750Y-102845000D01*
X78507000Y-103003750D01*
X78507000Y-104253000D01*
X78527000Y-104253000D01*
X78527000Y-104507000D01*
X78507000Y-104507000D01*
X78507000Y-104527000D01*
X78253000Y-104527000D01*
X78253000Y-104507000D01*
X76853750Y-104507000D01*
X76731500Y-104629250D01*
X76614250Y-104512000D01*
X75565000Y-104512000D01*
X75565000Y-104532000D01*
X75311000Y-104532000D01*
X75311000Y-104512000D01*
X75291000Y-104512000D01*
X75291000Y-104258000D01*
X75311000Y-104258000D01*
X75311000Y-103333750D01*
X75565000Y-103333750D01*
X75565000Y-104258000D01*
X76614250Y-104258000D01*
X76736500Y-104135750D01*
X76853750Y-104253000D01*
X78253000Y-104253000D01*
X78253000Y-103003750D01*
X78094250Y-102845000D01*
X77330000Y-102841928D01*
X77205518Y-102854188D01*
X77085820Y-102890498D01*
X76975506Y-102949463D01*
X76878815Y-103028815D01*
X76799463Y-103125506D01*
X76740498Y-103235820D01*
X76704188Y-103355518D01*
X76691928Y-103480000D01*
X76692025Y-103499449D01*
X76668537Y-103455506D01*
X76589185Y-103358815D01*
X76492494Y-103279463D01*
X76382180Y-103220498D01*
X76262482Y-103184188D01*
X76138000Y-103171928D01*
X75723750Y-103175000D01*
X75565000Y-103333750D01*
X75311000Y-103333750D01*
X75152250Y-103175000D01*
X75124000Y-103174791D01*
X75124000Y-103094325D01*
X75127676Y-103057000D01*
X75124000Y-103019675D01*
X75124000Y-103019667D01*
X75113003Y-102908014D01*
X75069546Y-102764753D01*
X74998974Y-102632724D01*
X74904001Y-102516999D01*
X74875003Y-102493201D01*
X74628072Y-102246270D01*
X74628072Y-101657999D01*
X74611008Y-101484745D01*
X74560472Y-101318149D01*
X74478405Y-101164613D01*
X74367962Y-101030038D01*
X74281595Y-100959158D01*
X74344494Y-100925537D01*
X74441185Y-100846185D01*
X74520537Y-100749494D01*
X74579502Y-100639180D01*
X74615812Y-100519482D01*
X74628072Y-100395000D01*
X74626650Y-100203311D01*
X74723236Y-100297369D01*
X74911024Y-100419276D01*
X75134126Y-100499119D01*
X75309000Y-100372954D01*
X75309000Y-98982000D01*
X75289000Y-98982000D01*
X75289000Y-98728000D01*
X75309000Y-98728000D01*
X75309000Y-98708000D01*
X75563000Y-98708000D01*
X75563000Y-98728000D01*
X75583000Y-98728000D01*
X75583000Y-98982000D01*
X75563000Y-98982000D01*
X75563000Y-100372954D01*
X75737874Y-100499119D01*
X75960976Y-100419276D01*
X76148764Y-100297369D01*
X76309161Y-100141169D01*
X76436003Y-99956678D01*
X76524415Y-99750987D01*
X76571000Y-99532000D01*
X76571000Y-99241904D01*
X76585978Y-99248108D01*
X76771448Y-99285000D01*
X76960552Y-99285000D01*
X77146022Y-99248108D01*
X77320731Y-99175741D01*
X77477964Y-99070681D01*
X77611681Y-98936964D01*
X77716741Y-98779731D01*
X77789108Y-98605022D01*
X77826000Y-98419552D01*
X77826000Y-98230448D01*
X77789108Y-98044978D01*
X77716741Y-97870269D01*
X77611681Y-97713036D01*
X77477964Y-97579319D01*
X77320731Y-97474259D01*
X77146022Y-97401892D01*
X77104922Y-97393717D01*
X77178826Y-97215298D01*
X77218600Y-97015339D01*
X77218600Y-96811461D01*
X77178826Y-96611502D01*
X77100805Y-96423144D01*
X76987537Y-96253626D01*
X76843374Y-96109463D01*
X76673856Y-95996195D01*
X76485498Y-95918174D01*
X76285539Y-95878400D01*
X76223402Y-95878400D01*
X76180989Y-95835987D01*
X76309161Y-95711169D01*
X76436003Y-95526678D01*
X76524415Y-95320987D01*
X76571000Y-95102000D01*
X76571000Y-94802000D01*
X75563000Y-94802000D01*
X75563000Y-94822000D01*
X75309000Y-94822000D01*
X75309000Y-94802000D01*
X75289000Y-94802000D01*
X75289000Y-94548000D01*
X75309000Y-94548000D01*
X75309000Y-94528000D01*
X75563000Y-94528000D01*
X75563000Y-94548000D01*
X76571000Y-94548000D01*
X76571000Y-94248000D01*
X76524415Y-94029013D01*
X76436003Y-93823322D01*
X76316152Y-93649000D01*
X82502899Y-93649000D01*
X82392702Y-93759197D01*
G36*
X73542000Y-94488000D02*
G01*
X73556401Y-94488000D01*
X73556401Y-94742000D01*
X73542000Y-94742000D01*
X73542000Y-95791250D01*
X73635750Y-95885000D01*
X73542000Y-95978750D01*
X73542000Y-97028000D01*
X74466250Y-97028000D01*
X74625000Y-96869250D01*
X74628072Y-96455000D01*
X74625633Y-96430234D01*
X75148600Y-96953202D01*
X75148600Y-97015339D01*
X75188374Y-97215298D01*
X75208886Y-97264817D01*
X75134126Y-97210881D01*
X74911024Y-97290724D01*
X74723236Y-97412631D01*
X74625497Y-97507812D01*
X74625000Y-97440750D01*
X74466250Y-97282000D01*
X73542000Y-97282000D01*
X73542000Y-98331250D01*
X73635750Y-98425000D01*
X73542000Y-98518750D01*
X73542000Y-99568000D01*
X73562000Y-99568000D01*
X73562000Y-99822000D01*
X73542000Y-99822000D01*
X73542000Y-99842000D01*
X73288000Y-99842000D01*
X73288000Y-99822000D01*
X73268000Y-99822000D01*
X73268000Y-99568000D01*
X73288000Y-99568000D01*
X73288000Y-98518750D01*
X73194250Y-98425000D01*
X73288000Y-98331250D01*
X73288000Y-97282000D01*
X73268000Y-97282000D01*
X73268000Y-97028000D01*
X73288000Y-97028000D01*
X73288000Y-95978750D01*
X73194250Y-95885000D01*
X73288000Y-95791250D01*
X73288000Y-94742000D01*
X73268000Y-94742000D01*
X73268000Y-94488000D01*
X73288000Y-94488000D01*
X73288000Y-94468000D01*
X73542000Y-94468000D01*
X73542000Y-94488000D01*
X73542000Y-94488000D01*
G37*
X73542000Y-94488000D02*
X73556401Y-94488000D01*
X73556401Y-94742000D01*
X73542000Y-94742000D01*
X73542000Y-95791250D01*
X73635750Y-95885000D01*
X73542000Y-95978750D01*
X73542000Y-97028000D01*
X74466250Y-97028000D01*
X74625000Y-96869250D01*
X74628072Y-96455000D01*
X74625633Y-96430234D01*
X75148600Y-96953202D01*
X75148600Y-97015339D01*
X75188374Y-97215298D01*
X75208886Y-97264817D01*
X75134126Y-97210881D01*
X74911024Y-97290724D01*
X74723236Y-97412631D01*
X74625497Y-97507812D01*
X74625000Y-97440750D01*
X74466250Y-97282000D01*
X73542000Y-97282000D01*
X73542000Y-98331250D01*
X73635750Y-98425000D01*
X73542000Y-98518750D01*
X73542000Y-99568000D01*
X73562000Y-99568000D01*
X73562000Y-99822000D01*
X73542000Y-99822000D01*
X73542000Y-99842000D01*
X73288000Y-99842000D01*
X73288000Y-99822000D01*
X73268000Y-99822000D01*
X73268000Y-99568000D01*
X73288000Y-99568000D01*
X73288000Y-98518750D01*
X73194250Y-98425000D01*
X73288000Y-98331250D01*
X73288000Y-97282000D01*
X73268000Y-97282000D01*
X73268000Y-97028000D01*
X73288000Y-97028000D01*
X73288000Y-95978750D01*
X73194250Y-95885000D01*
X73288000Y-95791250D01*
X73288000Y-94742000D01*
X73268000Y-94742000D01*
X73268000Y-94488000D01*
X73288000Y-94488000D01*
X73288000Y-94468000D01*
X73542000Y-94468000D01*
X73542000Y-94488000D01*
G36*
X90247000Y-94692647D02*
G01*
X90224572Y-94699762D01*
X90167521Y-94724214D01*
X90110106Y-94747879D01*
X90101692Y-94752428D01*
X89884490Y-94871836D01*
X89833225Y-94906938D01*
X89781552Y-94941270D01*
X89774182Y-94947366D01*
X89584310Y-95106688D01*
X89540872Y-95151046D01*
X89496820Y-95194791D01*
X89490775Y-95202203D01*
X89335463Y-95395370D01*
X89301444Y-95447357D01*
X89266749Y-95498795D01*
X89262258Y-95507239D01*
X89147427Y-95726894D01*
X89124175Y-95784446D01*
X89100112Y-95841688D01*
X89097348Y-95850844D01*
X89097346Y-95850849D01*
X89097345Y-95850854D01*
X89027365Y-96088620D01*
X89015733Y-96149599D01*
X89003248Y-96210425D01*
X89002314Y-96219943D01*
X89000190Y-96243277D01*
X88943185Y-96173815D01*
X88846494Y-96094463D01*
X88736180Y-96035498D01*
X88616482Y-95999188D01*
X88492000Y-95986928D01*
X88177750Y-95990000D01*
X88019000Y-96148750D01*
X88019000Y-97198000D01*
X88968250Y-97198000D01*
X89070153Y-97096097D01*
X89106869Y-97214707D01*
X89130923Y-97271929D01*
X89154184Y-97329502D01*
X89158674Y-97337947D01*
X89276562Y-97555977D01*
X89311304Y-97607483D01*
X89345277Y-97659400D01*
X89351321Y-97666811D01*
X89509314Y-97857791D01*
X89553387Y-97901557D01*
X89596806Y-97945895D01*
X89604175Y-97951992D01*
X89796253Y-98108647D01*
X89847955Y-98142998D01*
X89899193Y-98178081D01*
X89907606Y-98182630D01*
X90126454Y-98298993D01*
X90183859Y-98322653D01*
X90240916Y-98347108D01*
X90250053Y-98349936D01*
X90251132Y-98350262D01*
X90262085Y-99828942D01*
X90174401Y-99722099D01*
X90145404Y-99698302D01*
X89461103Y-99014002D01*
X89437301Y-98984999D01*
X89321576Y-98890026D01*
X89210072Y-98830425D01*
X89210072Y-98825000D01*
X89197812Y-98700518D01*
X89161502Y-98580820D01*
X89102537Y-98470506D01*
X89024631Y-98375577D01*
X89081502Y-98269180D01*
X89117812Y-98149482D01*
X89130072Y-98025000D01*
X89127000Y-97610750D01*
X88968250Y-97452000D01*
X88019000Y-97452000D01*
X88019000Y-97472000D01*
X87765000Y-97472000D01*
X87765000Y-97452000D01*
X87745000Y-97452000D01*
X87745000Y-97198000D01*
X87765000Y-97198000D01*
X87765000Y-96148750D01*
X87606250Y-95990000D01*
X87292000Y-95986928D01*
X87167518Y-95999188D01*
X87047820Y-96035498D01*
X86982000Y-96070680D01*
X86916180Y-96035498D01*
X86796482Y-95999188D01*
X86672000Y-95986928D01*
X85672000Y-95986928D01*
X85547518Y-95999188D01*
X85427820Y-96035498D01*
X85317506Y-96094463D01*
X85250812Y-96149197D01*
X85135576Y-96054626D01*
X85003547Y-95984054D01*
X84860286Y-95940597D01*
X84748633Y-95929600D01*
X84748622Y-95929600D01*
X84711300Y-95925924D01*
X84696287Y-95927403D01*
X84788764Y-95867369D01*
X84949161Y-95711169D01*
X84985493Y-95658325D01*
X84991463Y-95669494D01*
X85070815Y-95766185D01*
X85167506Y-95845537D01*
X85277820Y-95904502D01*
X85397518Y-95940812D01*
X85522000Y-95953072D01*
X85811250Y-95950000D01*
X85970000Y-95791250D01*
X85970000Y-94742000D01*
X85045750Y-94742000D01*
X84985750Y-94802000D01*
X84203000Y-94802000D01*
X84203000Y-94822000D01*
X83949000Y-94822000D01*
X83949000Y-94802000D01*
X83929000Y-94802000D01*
X83929000Y-94548000D01*
X83949000Y-94548000D01*
X83949000Y-94528000D01*
X84203000Y-94528000D01*
X84203000Y-94548000D01*
X85211000Y-94548000D01*
X85211000Y-94488000D01*
X85970000Y-94488000D01*
X85970000Y-94468000D01*
X86224000Y-94468000D01*
X86224000Y-94488000D01*
X86244000Y-94488000D01*
X86244000Y-94742000D01*
X86224000Y-94742000D01*
X86224000Y-95791250D01*
X86382750Y-95950000D01*
X86672000Y-95953072D01*
X86796482Y-95940812D01*
X86916180Y-95904502D01*
X87026494Y-95845537D01*
X87123185Y-95766185D01*
X87188658Y-95686406D01*
X87194038Y-95692962D01*
X87328613Y-95803405D01*
X87482149Y-95885472D01*
X87648745Y-95936008D01*
X87821999Y-95953072D01*
X88472001Y-95953072D01*
X88645255Y-95936008D01*
X88811851Y-95885472D01*
X88965387Y-95803405D01*
X89099962Y-95692962D01*
X89210405Y-95558387D01*
X89292472Y-95404851D01*
X89343008Y-95238255D01*
X89360072Y-95065001D01*
X89360072Y-94164999D01*
X89343008Y-93991745D01*
X89292472Y-93825149D01*
X89210405Y-93671613D01*
X89191847Y-93649000D01*
X90247001Y-93649000D01*
X90247000Y-94692647D01*
X90247000Y-94692647D01*
G37*
X90247000Y-94692647D02*
X90224572Y-94699762D01*
X90167521Y-94724214D01*
X90110106Y-94747879D01*
X90101692Y-94752428D01*
X89884490Y-94871836D01*
X89833225Y-94906938D01*
X89781552Y-94941270D01*
X89774182Y-94947366D01*
X89584310Y-95106688D01*
X89540872Y-95151046D01*
X89496820Y-95194791D01*
X89490775Y-95202203D01*
X89335463Y-95395370D01*
X89301444Y-95447357D01*
X89266749Y-95498795D01*
X89262258Y-95507239D01*
X89147427Y-95726894D01*
X89124175Y-95784446D01*
X89100112Y-95841688D01*
X89097348Y-95850844D01*
X89097346Y-95850849D01*
X89097345Y-95850854D01*
X89027365Y-96088620D01*
X89015733Y-96149599D01*
X89003248Y-96210425D01*
X89002314Y-96219943D01*
X89000190Y-96243277D01*
X88943185Y-96173815D01*
X88846494Y-96094463D01*
X88736180Y-96035498D01*
X88616482Y-95999188D01*
X88492000Y-95986928D01*
X88177750Y-95990000D01*
X88019000Y-96148750D01*
X88019000Y-97198000D01*
X88968250Y-97198000D01*
X89070153Y-97096097D01*
X89106869Y-97214707D01*
X89130923Y-97271929D01*
X89154184Y-97329502D01*
X89158674Y-97337947D01*
X89276562Y-97555977D01*
X89311304Y-97607483D01*
X89345277Y-97659400D01*
X89351321Y-97666811D01*
X89509314Y-97857791D01*
X89553387Y-97901557D01*
X89596806Y-97945895D01*
X89604175Y-97951992D01*
X89796253Y-98108647D01*
X89847955Y-98142998D01*
X89899193Y-98178081D01*
X89907606Y-98182630D01*
X90126454Y-98298993D01*
X90183859Y-98322653D01*
X90240916Y-98347108D01*
X90250053Y-98349936D01*
X90251132Y-98350262D01*
X90262085Y-99828942D01*
X90174401Y-99722099D01*
X90145404Y-99698302D01*
X89461103Y-99014002D01*
X89437301Y-98984999D01*
X89321576Y-98890026D01*
X89210072Y-98830425D01*
X89210072Y-98825000D01*
X89197812Y-98700518D01*
X89161502Y-98580820D01*
X89102537Y-98470506D01*
X89024631Y-98375577D01*
X89081502Y-98269180D01*
X89117812Y-98149482D01*
X89130072Y-98025000D01*
X89127000Y-97610750D01*
X88968250Y-97452000D01*
X88019000Y-97452000D01*
X88019000Y-97472000D01*
X87765000Y-97472000D01*
X87765000Y-97452000D01*
X87745000Y-97452000D01*
X87745000Y-97198000D01*
X87765000Y-97198000D01*
X87765000Y-96148750D01*
X87606250Y-95990000D01*
X87292000Y-95986928D01*
X87167518Y-95999188D01*
X87047820Y-96035498D01*
X86982000Y-96070680D01*
X86916180Y-96035498D01*
X86796482Y-95999188D01*
X86672000Y-95986928D01*
X85672000Y-95986928D01*
X85547518Y-95999188D01*
X85427820Y-96035498D01*
X85317506Y-96094463D01*
X85250812Y-96149197D01*
X85135576Y-96054626D01*
X85003547Y-95984054D01*
X84860286Y-95940597D01*
X84748633Y-95929600D01*
X84748622Y-95929600D01*
X84711300Y-95925924D01*
X84696287Y-95927403D01*
X84788764Y-95867369D01*
X84949161Y-95711169D01*
X84985493Y-95658325D01*
X84991463Y-95669494D01*
X85070815Y-95766185D01*
X85167506Y-95845537D01*
X85277820Y-95904502D01*
X85397518Y-95940812D01*
X85522000Y-95953072D01*
X85811250Y-95950000D01*
X85970000Y-95791250D01*
X85970000Y-94742000D01*
X85045750Y-94742000D01*
X84985750Y-94802000D01*
X84203000Y-94802000D01*
X84203000Y-94822000D01*
X83949000Y-94822000D01*
X83949000Y-94802000D01*
X83929000Y-94802000D01*
X83929000Y-94548000D01*
X83949000Y-94548000D01*
X83949000Y-94528000D01*
X84203000Y-94528000D01*
X84203000Y-94548000D01*
X85211000Y-94548000D01*
X85211000Y-94488000D01*
X85970000Y-94488000D01*
X85970000Y-94468000D01*
X86224000Y-94468000D01*
X86224000Y-94488000D01*
X86244000Y-94488000D01*
X86244000Y-94742000D01*
X86224000Y-94742000D01*
X86224000Y-95791250D01*
X86382750Y-95950000D01*
X86672000Y-95953072D01*
X86796482Y-95940812D01*
X86916180Y-95904502D01*
X87026494Y-95845537D01*
X87123185Y-95766185D01*
X87188658Y-95686406D01*
X87194038Y-95692962D01*
X87328613Y-95803405D01*
X87482149Y-95885472D01*
X87648745Y-95936008D01*
X87821999Y-95953072D01*
X88472001Y-95953072D01*
X88645255Y-95936008D01*
X88811851Y-95885472D01*
X88965387Y-95803405D01*
X89099962Y-95692962D01*
X89210405Y-95558387D01*
X89292472Y-95404851D01*
X89343008Y-95238255D01*
X89360072Y-95065001D01*
X89360072Y-94164999D01*
X89343008Y-93991745D01*
X89292472Y-93825149D01*
X89210405Y-93671613D01*
X89191847Y-93649000D01*
X90247001Y-93649000D01*
X90247000Y-94692647D01*
D27*
X87630000Y-129032000D03*
X77470000Y-129032000D03*
X69596000Y-129286000D03*
X84320100Y-116111100D03*
X72928400Y-114107500D03*
X89634400Y-102062200D03*
X81467600Y-97469700D03*
X80465200Y-98421600D03*
X84703700Y-108708300D03*
X71422700Y-109823400D03*
X75777300Y-107757000D03*
X76183600Y-96913400D03*
X82903700Y-95948900D03*
X73157000Y-108519900D03*
X83304300Y-109050300D03*
X82646000Y-98325000D03*
X76866000Y-98325000D03*
D28*
X75436000Y-98855000D03*
X84076000Y-98855000D03*
D29*
X75436000Y-94675000D03*
X84076000Y-94675000D03*
D27*
X84328000Y-135382000D03*
X81788000Y-135382000D03*
X79248000Y-135382000D03*
X76708000Y-135382000D03*
M02*
