%TF.GenerationSoftware,KiCad,Pcbnew,(5.1.2)-2*%
%TF.CreationDate,2020-02-06T17:00:50+08:00*%
%TF.ProjectId,wing-receiver-lite,77696e67-2d72-4656-9365-697665722d6c,rev?*%
%TF.SameCoordinates,Original*%
%TF.FileFunction,Soldermask,Bot*%
%TF.FilePolarity,Negative*%
%FSLAX46Y46*%
G04 Gerber Fmt 4.6, Leading zero omitted, Abs format (unit mm)*
G04 Created by KiCad (PCBNEW (5.1.2)-2) date 2020-02-06 17:00:50*
%MOMM*%
%LPD*%
G04 APERTURE LIST*
%ADD10R,0.600000X2.450000*%
%ADD11R,0.300000X2.450000*%
%ADD12C,0.650000*%
%ADD13R,1.500000X1.500000*%
%ADD14O,1.700000X1.700000*%
%ADD15R,1.700000X1.700000*%
%ADD16R,1.198880X0.698500*%
%ADD17R,0.698500X1.198880*%
G04 APERTURE END LIST*
D10*
X82981000Y-100270000D03*
X76531000Y-100270000D03*
X82206000Y-100270000D03*
X77306000Y-100270000D03*
D11*
X78006000Y-100270000D03*
X81506000Y-100270000D03*
X78506000Y-100270000D03*
X81006000Y-100270000D03*
X79006000Y-100270000D03*
X80506000Y-100270000D03*
X80006000Y-100270000D03*
X79506000Y-100270000D03*
D12*
X82646000Y-98325000D03*
X76866000Y-98325000D03*
D13*
X83656000Y-105664000D03*
X75856000Y-105664000D03*
D14*
X84328000Y-135382000D03*
X81788000Y-135382000D03*
X79248000Y-135382000D03*
D15*
X76708000Y-135382000D03*
D16*
X71247000Y-112776000D03*
X88773000Y-120396000D03*
X88773000Y-121666000D03*
D17*
X73025000Y-110998000D03*
D16*
X71247000Y-115316000D03*
X71247000Y-116586000D03*
X71247000Y-117856000D03*
X71247000Y-119126000D03*
X71247000Y-120396000D03*
X71247000Y-121666000D03*
X71247000Y-122936000D03*
X71247000Y-124206000D03*
X71247000Y-125476000D03*
X88773000Y-126746000D03*
X88773000Y-125476000D03*
X88773000Y-124206000D03*
X88773000Y-122936000D03*
X88773000Y-119126000D03*
X88773000Y-117856000D03*
X88773000Y-116586000D03*
X88773000Y-115316000D03*
X88773000Y-114046000D03*
X88773000Y-112776000D03*
D17*
X86995000Y-110998000D03*
X85725000Y-110998000D03*
X84455000Y-110998000D03*
X83185000Y-110998000D03*
X81915000Y-110998000D03*
X80645000Y-110998000D03*
X79375000Y-110998000D03*
X78105000Y-110998000D03*
X76835000Y-110998000D03*
X75565000Y-110998000D03*
X74295000Y-110998000D03*
D16*
X71247000Y-126746000D03*
X71247000Y-114046000D03*
M02*
