%TF.GenerationSoftware,KiCad,Pcbnew,(5.1.2)-2*%
%TF.CreationDate,2020-02-06T17:00:50+08:00*%
%TF.ProjectId,wing-receiver-lite,77696e67-2d72-4656-9365-697665722d6c,rev?*%
%TF.SameCoordinates,Original*%
%TF.FileFunction,Soldermask,Top*%
%TF.FilePolarity,Negative*%
%FSLAX46Y46*%
G04 Gerber Fmt 4.6, Leading zero omitted, Abs format (unit mm)*
G04 Created by KiCad (PCBNEW (5.1.2)-2) date 2020-02-06 17:00:50*
%MOMM*%
%LPD*%
G04 APERTURE LIST*
%ADD10R,3.800000X2.200000*%
%ADD11R,1.500000X2.200000*%
%ADD12C,0.650000*%
%ADD13O,1.000000X2.100000*%
%ADD14O,1.000000X1.600000*%
%ADD15R,2.100000X1.800000*%
%ADD16R,0.550000X1.500000*%
%ADD17R,1.500000X0.550000*%
%ADD18C,0.350000*%
%ADD19C,1.150000*%
%ADD20O,1.700000X1.700000*%
%ADD21R,1.700000X1.700000*%
%ADD22C,1.425000*%
%ADD23R,1.000000X1.400000*%
%ADD24R,1.200000X1.400000*%
G04 APERTURE END LIST*
D10*
X75184000Y-125882000D03*
D11*
X72884000Y-132182000D03*
X75184000Y-132182000D03*
X77484000Y-132182000D03*
D12*
X82646000Y-98325000D03*
X76866000Y-98325000D03*
D13*
X75436000Y-98855000D03*
X84076000Y-98855000D03*
D14*
X75436000Y-94675000D03*
X84076000Y-94675000D03*
D15*
X78380000Y-104380000D03*
X81280000Y-104380000D03*
X81280000Y-106680000D03*
X78380000Y-106680000D03*
D16*
X84010000Y-121905000D03*
X83210000Y-121905000D03*
X82410000Y-121905000D03*
X81610000Y-121905000D03*
X80810000Y-121905000D03*
X80010000Y-121905000D03*
X79210000Y-121905000D03*
X78410000Y-121905000D03*
X77610000Y-121905000D03*
X76810000Y-121905000D03*
X76010000Y-121905000D03*
D17*
X74310000Y-120205000D03*
X74310000Y-119405000D03*
X74310000Y-118605000D03*
X74310000Y-117805000D03*
X74310000Y-117005000D03*
X74310000Y-116205000D03*
X74310000Y-115405000D03*
X74310000Y-114605000D03*
X74310000Y-113805000D03*
X74310000Y-113005000D03*
X74310000Y-112205000D03*
D16*
X76010000Y-110505000D03*
X76810000Y-110505000D03*
X77610000Y-110505000D03*
X78410000Y-110505000D03*
X79210000Y-110505000D03*
X80010000Y-110505000D03*
X80810000Y-110505000D03*
X81610000Y-110505000D03*
X82410000Y-110505000D03*
X83210000Y-110505000D03*
X84010000Y-110505000D03*
D17*
X85710000Y-112205000D03*
X85710000Y-113005000D03*
X85710000Y-113805000D03*
X85710000Y-114605000D03*
X85710000Y-115405000D03*
X85710000Y-116205000D03*
X85710000Y-117005000D03*
X85710000Y-117805000D03*
X85710000Y-118605000D03*
X85710000Y-119405000D03*
X85710000Y-120205000D03*
D18*
G36*
X71714505Y-101409204D02*
G01*
X71738773Y-101412804D01*
X71762572Y-101418765D01*
X71785671Y-101427030D01*
X71807850Y-101437520D01*
X71828893Y-101450132D01*
X71848599Y-101464747D01*
X71866777Y-101481223D01*
X71883253Y-101499401D01*
X71897868Y-101519107D01*
X71910480Y-101540150D01*
X71920970Y-101562329D01*
X71929235Y-101585428D01*
X71935196Y-101609227D01*
X71938796Y-101633495D01*
X71940000Y-101657999D01*
X71940000Y-102558001D01*
X71938796Y-102582505D01*
X71935196Y-102606773D01*
X71929235Y-102630572D01*
X71920970Y-102653671D01*
X71910480Y-102675850D01*
X71897868Y-102696893D01*
X71883253Y-102716599D01*
X71866777Y-102734777D01*
X71848599Y-102751253D01*
X71828893Y-102765868D01*
X71807850Y-102778480D01*
X71785671Y-102788970D01*
X71762572Y-102797235D01*
X71738773Y-102803196D01*
X71714505Y-102806796D01*
X71690001Y-102808000D01*
X71039999Y-102808000D01*
X71015495Y-102806796D01*
X70991227Y-102803196D01*
X70967428Y-102797235D01*
X70944329Y-102788970D01*
X70922150Y-102778480D01*
X70901107Y-102765868D01*
X70881401Y-102751253D01*
X70863223Y-102734777D01*
X70846747Y-102716599D01*
X70832132Y-102696893D01*
X70819520Y-102675850D01*
X70809030Y-102653671D01*
X70800765Y-102630572D01*
X70794804Y-102606773D01*
X70791204Y-102582505D01*
X70790000Y-102558001D01*
X70790000Y-101657999D01*
X70791204Y-101633495D01*
X70794804Y-101609227D01*
X70800765Y-101585428D01*
X70809030Y-101562329D01*
X70819520Y-101540150D01*
X70832132Y-101519107D01*
X70846747Y-101499401D01*
X70863223Y-101481223D01*
X70881401Y-101464747D01*
X70901107Y-101450132D01*
X70922150Y-101437520D01*
X70944329Y-101427030D01*
X70967428Y-101418765D01*
X70991227Y-101412804D01*
X71015495Y-101409204D01*
X71039999Y-101408000D01*
X71690001Y-101408000D01*
X71714505Y-101409204D01*
X71714505Y-101409204D01*
G37*
D19*
X71365000Y-102108000D03*
D18*
G36*
X73764505Y-101409204D02*
G01*
X73788773Y-101412804D01*
X73812572Y-101418765D01*
X73835671Y-101427030D01*
X73857850Y-101437520D01*
X73878893Y-101450132D01*
X73898599Y-101464747D01*
X73916777Y-101481223D01*
X73933253Y-101499401D01*
X73947868Y-101519107D01*
X73960480Y-101540150D01*
X73970970Y-101562329D01*
X73979235Y-101585428D01*
X73985196Y-101609227D01*
X73988796Y-101633495D01*
X73990000Y-101657999D01*
X73990000Y-102558001D01*
X73988796Y-102582505D01*
X73985196Y-102606773D01*
X73979235Y-102630572D01*
X73970970Y-102653671D01*
X73960480Y-102675850D01*
X73947868Y-102696893D01*
X73933253Y-102716599D01*
X73916777Y-102734777D01*
X73898599Y-102751253D01*
X73878893Y-102765868D01*
X73857850Y-102778480D01*
X73835671Y-102788970D01*
X73812572Y-102797235D01*
X73788773Y-102803196D01*
X73764505Y-102806796D01*
X73740001Y-102808000D01*
X73089999Y-102808000D01*
X73065495Y-102806796D01*
X73041227Y-102803196D01*
X73017428Y-102797235D01*
X72994329Y-102788970D01*
X72972150Y-102778480D01*
X72951107Y-102765868D01*
X72931401Y-102751253D01*
X72913223Y-102734777D01*
X72896747Y-102716599D01*
X72882132Y-102696893D01*
X72869520Y-102675850D01*
X72859030Y-102653671D01*
X72850765Y-102630572D01*
X72844804Y-102606773D01*
X72841204Y-102582505D01*
X72840000Y-102558001D01*
X72840000Y-101657999D01*
X72841204Y-101633495D01*
X72844804Y-101609227D01*
X72850765Y-101585428D01*
X72859030Y-101562329D01*
X72869520Y-101540150D01*
X72882132Y-101519107D01*
X72896747Y-101499401D01*
X72913223Y-101481223D01*
X72931401Y-101464747D01*
X72951107Y-101450132D01*
X72972150Y-101437520D01*
X72994329Y-101427030D01*
X73017428Y-101418765D01*
X73041227Y-101412804D01*
X73065495Y-101409204D01*
X73089999Y-101408000D01*
X73740001Y-101408000D01*
X73764505Y-101409204D01*
X73764505Y-101409204D01*
G37*
D19*
X73415000Y-102108000D03*
D18*
G36*
X88623505Y-106489204D02*
G01*
X88647773Y-106492804D01*
X88671572Y-106498765D01*
X88694671Y-106507030D01*
X88716850Y-106517520D01*
X88737893Y-106530132D01*
X88757599Y-106544747D01*
X88775777Y-106561223D01*
X88792253Y-106579401D01*
X88806868Y-106599107D01*
X88819480Y-106620150D01*
X88829970Y-106642329D01*
X88838235Y-106665428D01*
X88844196Y-106689227D01*
X88847796Y-106713495D01*
X88849000Y-106737999D01*
X88849000Y-107638001D01*
X88847796Y-107662505D01*
X88844196Y-107686773D01*
X88838235Y-107710572D01*
X88829970Y-107733671D01*
X88819480Y-107755850D01*
X88806868Y-107776893D01*
X88792253Y-107796599D01*
X88775777Y-107814777D01*
X88757599Y-107831253D01*
X88737893Y-107845868D01*
X88716850Y-107858480D01*
X88694671Y-107868970D01*
X88671572Y-107877235D01*
X88647773Y-107883196D01*
X88623505Y-107886796D01*
X88599001Y-107888000D01*
X87948999Y-107888000D01*
X87924495Y-107886796D01*
X87900227Y-107883196D01*
X87876428Y-107877235D01*
X87853329Y-107868970D01*
X87831150Y-107858480D01*
X87810107Y-107845868D01*
X87790401Y-107831253D01*
X87772223Y-107814777D01*
X87755747Y-107796599D01*
X87741132Y-107776893D01*
X87728520Y-107755850D01*
X87718030Y-107733671D01*
X87709765Y-107710572D01*
X87703804Y-107686773D01*
X87700204Y-107662505D01*
X87699000Y-107638001D01*
X87699000Y-106737999D01*
X87700204Y-106713495D01*
X87703804Y-106689227D01*
X87709765Y-106665428D01*
X87718030Y-106642329D01*
X87728520Y-106620150D01*
X87741132Y-106599107D01*
X87755747Y-106579401D01*
X87772223Y-106561223D01*
X87790401Y-106544747D01*
X87810107Y-106530132D01*
X87831150Y-106517520D01*
X87853329Y-106507030D01*
X87876428Y-106498765D01*
X87900227Y-106492804D01*
X87924495Y-106489204D01*
X87948999Y-106488000D01*
X88599001Y-106488000D01*
X88623505Y-106489204D01*
X88623505Y-106489204D01*
G37*
D19*
X88274000Y-107188000D03*
D18*
G36*
X86573505Y-106489204D02*
G01*
X86597773Y-106492804D01*
X86621572Y-106498765D01*
X86644671Y-106507030D01*
X86666850Y-106517520D01*
X86687893Y-106530132D01*
X86707599Y-106544747D01*
X86725777Y-106561223D01*
X86742253Y-106579401D01*
X86756868Y-106599107D01*
X86769480Y-106620150D01*
X86779970Y-106642329D01*
X86788235Y-106665428D01*
X86794196Y-106689227D01*
X86797796Y-106713495D01*
X86799000Y-106737999D01*
X86799000Y-107638001D01*
X86797796Y-107662505D01*
X86794196Y-107686773D01*
X86788235Y-107710572D01*
X86779970Y-107733671D01*
X86769480Y-107755850D01*
X86756868Y-107776893D01*
X86742253Y-107796599D01*
X86725777Y-107814777D01*
X86707599Y-107831253D01*
X86687893Y-107845868D01*
X86666850Y-107858480D01*
X86644671Y-107868970D01*
X86621572Y-107877235D01*
X86597773Y-107883196D01*
X86573505Y-107886796D01*
X86549001Y-107888000D01*
X85898999Y-107888000D01*
X85874495Y-107886796D01*
X85850227Y-107883196D01*
X85826428Y-107877235D01*
X85803329Y-107868970D01*
X85781150Y-107858480D01*
X85760107Y-107845868D01*
X85740401Y-107831253D01*
X85722223Y-107814777D01*
X85705747Y-107796599D01*
X85691132Y-107776893D01*
X85678520Y-107755850D01*
X85668030Y-107733671D01*
X85659765Y-107710572D01*
X85653804Y-107686773D01*
X85650204Y-107662505D01*
X85649000Y-107638001D01*
X85649000Y-106737999D01*
X85650204Y-106713495D01*
X85653804Y-106689227D01*
X85659765Y-106665428D01*
X85668030Y-106642329D01*
X85678520Y-106620150D01*
X85691132Y-106599107D01*
X85705747Y-106579401D01*
X85722223Y-106561223D01*
X85740401Y-106544747D01*
X85760107Y-106530132D01*
X85781150Y-106517520D01*
X85803329Y-106507030D01*
X85826428Y-106498765D01*
X85850227Y-106492804D01*
X85874495Y-106489204D01*
X85898999Y-106488000D01*
X86549001Y-106488000D01*
X86573505Y-106489204D01*
X86573505Y-106489204D01*
G37*
D19*
X86224000Y-107188000D03*
D18*
G36*
X71714505Y-106489204D02*
G01*
X71738773Y-106492804D01*
X71762572Y-106498765D01*
X71785671Y-106507030D01*
X71807850Y-106517520D01*
X71828893Y-106530132D01*
X71848599Y-106544747D01*
X71866777Y-106561223D01*
X71883253Y-106579401D01*
X71897868Y-106599107D01*
X71910480Y-106620150D01*
X71920970Y-106642329D01*
X71929235Y-106665428D01*
X71935196Y-106689227D01*
X71938796Y-106713495D01*
X71940000Y-106737999D01*
X71940000Y-107638001D01*
X71938796Y-107662505D01*
X71935196Y-107686773D01*
X71929235Y-107710572D01*
X71920970Y-107733671D01*
X71910480Y-107755850D01*
X71897868Y-107776893D01*
X71883253Y-107796599D01*
X71866777Y-107814777D01*
X71848599Y-107831253D01*
X71828893Y-107845868D01*
X71807850Y-107858480D01*
X71785671Y-107868970D01*
X71762572Y-107877235D01*
X71738773Y-107883196D01*
X71714505Y-107886796D01*
X71690001Y-107888000D01*
X71039999Y-107888000D01*
X71015495Y-107886796D01*
X70991227Y-107883196D01*
X70967428Y-107877235D01*
X70944329Y-107868970D01*
X70922150Y-107858480D01*
X70901107Y-107845868D01*
X70881401Y-107831253D01*
X70863223Y-107814777D01*
X70846747Y-107796599D01*
X70832132Y-107776893D01*
X70819520Y-107755850D01*
X70809030Y-107733671D01*
X70800765Y-107710572D01*
X70794804Y-107686773D01*
X70791204Y-107662505D01*
X70790000Y-107638001D01*
X70790000Y-106737999D01*
X70791204Y-106713495D01*
X70794804Y-106689227D01*
X70800765Y-106665428D01*
X70809030Y-106642329D01*
X70819520Y-106620150D01*
X70832132Y-106599107D01*
X70846747Y-106579401D01*
X70863223Y-106561223D01*
X70881401Y-106544747D01*
X70901107Y-106530132D01*
X70922150Y-106517520D01*
X70944329Y-106507030D01*
X70967428Y-106498765D01*
X70991227Y-106492804D01*
X71015495Y-106489204D01*
X71039999Y-106488000D01*
X71690001Y-106488000D01*
X71714505Y-106489204D01*
X71714505Y-106489204D01*
G37*
D19*
X71365000Y-107188000D03*
D18*
G36*
X73764505Y-106489204D02*
G01*
X73788773Y-106492804D01*
X73812572Y-106498765D01*
X73835671Y-106507030D01*
X73857850Y-106517520D01*
X73878893Y-106530132D01*
X73898599Y-106544747D01*
X73916777Y-106561223D01*
X73933253Y-106579401D01*
X73947868Y-106599107D01*
X73960480Y-106620150D01*
X73970970Y-106642329D01*
X73979235Y-106665428D01*
X73985196Y-106689227D01*
X73988796Y-106713495D01*
X73990000Y-106737999D01*
X73990000Y-107638001D01*
X73988796Y-107662505D01*
X73985196Y-107686773D01*
X73979235Y-107710572D01*
X73970970Y-107733671D01*
X73960480Y-107755850D01*
X73947868Y-107776893D01*
X73933253Y-107796599D01*
X73916777Y-107814777D01*
X73898599Y-107831253D01*
X73878893Y-107845868D01*
X73857850Y-107858480D01*
X73835671Y-107868970D01*
X73812572Y-107877235D01*
X73788773Y-107883196D01*
X73764505Y-107886796D01*
X73740001Y-107888000D01*
X73089999Y-107888000D01*
X73065495Y-107886796D01*
X73041227Y-107883196D01*
X73017428Y-107877235D01*
X72994329Y-107868970D01*
X72972150Y-107858480D01*
X72951107Y-107845868D01*
X72931401Y-107831253D01*
X72913223Y-107814777D01*
X72896747Y-107796599D01*
X72882132Y-107776893D01*
X72869520Y-107755850D01*
X72859030Y-107733671D01*
X72850765Y-107710572D01*
X72844804Y-107686773D01*
X72841204Y-107662505D01*
X72840000Y-107638001D01*
X72840000Y-106737999D01*
X72841204Y-106713495D01*
X72844804Y-106689227D01*
X72850765Y-106665428D01*
X72859030Y-106642329D01*
X72869520Y-106620150D01*
X72882132Y-106599107D01*
X72896747Y-106579401D01*
X72913223Y-106561223D01*
X72931401Y-106544747D01*
X72951107Y-106530132D01*
X72972150Y-106517520D01*
X72994329Y-106507030D01*
X73017428Y-106498765D01*
X73041227Y-106492804D01*
X73065495Y-106489204D01*
X73089999Y-106488000D01*
X73740001Y-106488000D01*
X73764505Y-106489204D01*
X73764505Y-106489204D01*
G37*
D19*
X73415000Y-107188000D03*
D18*
G36*
X71714505Y-96456204D02*
G01*
X71738773Y-96459804D01*
X71762572Y-96465765D01*
X71785671Y-96474030D01*
X71807850Y-96484520D01*
X71828893Y-96497132D01*
X71848599Y-96511747D01*
X71866777Y-96528223D01*
X71883253Y-96546401D01*
X71897868Y-96566107D01*
X71910480Y-96587150D01*
X71920970Y-96609329D01*
X71929235Y-96632428D01*
X71935196Y-96656227D01*
X71938796Y-96680495D01*
X71940000Y-96704999D01*
X71940000Y-97605001D01*
X71938796Y-97629505D01*
X71935196Y-97653773D01*
X71929235Y-97677572D01*
X71920970Y-97700671D01*
X71910480Y-97722850D01*
X71897868Y-97743893D01*
X71883253Y-97763599D01*
X71866777Y-97781777D01*
X71848599Y-97798253D01*
X71828893Y-97812868D01*
X71807850Y-97825480D01*
X71785671Y-97835970D01*
X71762572Y-97844235D01*
X71738773Y-97850196D01*
X71714505Y-97853796D01*
X71690001Y-97855000D01*
X71039999Y-97855000D01*
X71015495Y-97853796D01*
X70991227Y-97850196D01*
X70967428Y-97844235D01*
X70944329Y-97835970D01*
X70922150Y-97825480D01*
X70901107Y-97812868D01*
X70881401Y-97798253D01*
X70863223Y-97781777D01*
X70846747Y-97763599D01*
X70832132Y-97743893D01*
X70819520Y-97722850D01*
X70809030Y-97700671D01*
X70800765Y-97677572D01*
X70794804Y-97653773D01*
X70791204Y-97629505D01*
X70790000Y-97605001D01*
X70790000Y-96704999D01*
X70791204Y-96680495D01*
X70794804Y-96656227D01*
X70800765Y-96632428D01*
X70809030Y-96609329D01*
X70819520Y-96587150D01*
X70832132Y-96566107D01*
X70846747Y-96546401D01*
X70863223Y-96528223D01*
X70881401Y-96511747D01*
X70901107Y-96497132D01*
X70922150Y-96484520D01*
X70944329Y-96474030D01*
X70967428Y-96465765D01*
X70991227Y-96459804D01*
X71015495Y-96456204D01*
X71039999Y-96455000D01*
X71690001Y-96455000D01*
X71714505Y-96456204D01*
X71714505Y-96456204D01*
G37*
D19*
X71365000Y-97155000D03*
D18*
G36*
X73764505Y-96456204D02*
G01*
X73788773Y-96459804D01*
X73812572Y-96465765D01*
X73835671Y-96474030D01*
X73857850Y-96484520D01*
X73878893Y-96497132D01*
X73898599Y-96511747D01*
X73916777Y-96528223D01*
X73933253Y-96546401D01*
X73947868Y-96566107D01*
X73960480Y-96587150D01*
X73970970Y-96609329D01*
X73979235Y-96632428D01*
X73985196Y-96656227D01*
X73988796Y-96680495D01*
X73990000Y-96704999D01*
X73990000Y-97605001D01*
X73988796Y-97629505D01*
X73985196Y-97653773D01*
X73979235Y-97677572D01*
X73970970Y-97700671D01*
X73960480Y-97722850D01*
X73947868Y-97743893D01*
X73933253Y-97763599D01*
X73916777Y-97781777D01*
X73898599Y-97798253D01*
X73878893Y-97812868D01*
X73857850Y-97825480D01*
X73835671Y-97835970D01*
X73812572Y-97844235D01*
X73788773Y-97850196D01*
X73764505Y-97853796D01*
X73740001Y-97855000D01*
X73089999Y-97855000D01*
X73065495Y-97853796D01*
X73041227Y-97850196D01*
X73017428Y-97844235D01*
X72994329Y-97835970D01*
X72972150Y-97825480D01*
X72951107Y-97812868D01*
X72931401Y-97798253D01*
X72913223Y-97781777D01*
X72896747Y-97763599D01*
X72882132Y-97743893D01*
X72869520Y-97722850D01*
X72859030Y-97700671D01*
X72850765Y-97677572D01*
X72844804Y-97653773D01*
X72841204Y-97629505D01*
X72840000Y-97605001D01*
X72840000Y-96704999D01*
X72841204Y-96680495D01*
X72844804Y-96656227D01*
X72850765Y-96632428D01*
X72859030Y-96609329D01*
X72869520Y-96587150D01*
X72882132Y-96566107D01*
X72896747Y-96546401D01*
X72913223Y-96528223D01*
X72931401Y-96511747D01*
X72951107Y-96497132D01*
X72972150Y-96484520D01*
X72994329Y-96474030D01*
X73017428Y-96465765D01*
X73041227Y-96459804D01*
X73065495Y-96456204D01*
X73089999Y-96455000D01*
X73740001Y-96455000D01*
X73764505Y-96456204D01*
X73764505Y-96456204D01*
G37*
D19*
X73415000Y-97155000D03*
D18*
G36*
X73764505Y-103949204D02*
G01*
X73788773Y-103952804D01*
X73812572Y-103958765D01*
X73835671Y-103967030D01*
X73857850Y-103977520D01*
X73878893Y-103990132D01*
X73898599Y-104004747D01*
X73916777Y-104021223D01*
X73933253Y-104039401D01*
X73947868Y-104059107D01*
X73960480Y-104080150D01*
X73970970Y-104102329D01*
X73979235Y-104125428D01*
X73985196Y-104149227D01*
X73988796Y-104173495D01*
X73990000Y-104197999D01*
X73990000Y-105098001D01*
X73988796Y-105122505D01*
X73985196Y-105146773D01*
X73979235Y-105170572D01*
X73970970Y-105193671D01*
X73960480Y-105215850D01*
X73947868Y-105236893D01*
X73933253Y-105256599D01*
X73916777Y-105274777D01*
X73898599Y-105291253D01*
X73878893Y-105305868D01*
X73857850Y-105318480D01*
X73835671Y-105328970D01*
X73812572Y-105337235D01*
X73788773Y-105343196D01*
X73764505Y-105346796D01*
X73740001Y-105348000D01*
X73089999Y-105348000D01*
X73065495Y-105346796D01*
X73041227Y-105343196D01*
X73017428Y-105337235D01*
X72994329Y-105328970D01*
X72972150Y-105318480D01*
X72951107Y-105305868D01*
X72931401Y-105291253D01*
X72913223Y-105274777D01*
X72896747Y-105256599D01*
X72882132Y-105236893D01*
X72869520Y-105215850D01*
X72859030Y-105193671D01*
X72850765Y-105170572D01*
X72844804Y-105146773D01*
X72841204Y-105122505D01*
X72840000Y-105098001D01*
X72840000Y-104197999D01*
X72841204Y-104173495D01*
X72844804Y-104149227D01*
X72850765Y-104125428D01*
X72859030Y-104102329D01*
X72869520Y-104080150D01*
X72882132Y-104059107D01*
X72896747Y-104039401D01*
X72913223Y-104021223D01*
X72931401Y-104004747D01*
X72951107Y-103990132D01*
X72972150Y-103977520D01*
X72994329Y-103967030D01*
X73017428Y-103958765D01*
X73041227Y-103952804D01*
X73065495Y-103949204D01*
X73089999Y-103948000D01*
X73740001Y-103948000D01*
X73764505Y-103949204D01*
X73764505Y-103949204D01*
G37*
D19*
X73415000Y-104648000D03*
D18*
G36*
X71714505Y-103949204D02*
G01*
X71738773Y-103952804D01*
X71762572Y-103958765D01*
X71785671Y-103967030D01*
X71807850Y-103977520D01*
X71828893Y-103990132D01*
X71848599Y-104004747D01*
X71866777Y-104021223D01*
X71883253Y-104039401D01*
X71897868Y-104059107D01*
X71910480Y-104080150D01*
X71920970Y-104102329D01*
X71929235Y-104125428D01*
X71935196Y-104149227D01*
X71938796Y-104173495D01*
X71940000Y-104197999D01*
X71940000Y-105098001D01*
X71938796Y-105122505D01*
X71935196Y-105146773D01*
X71929235Y-105170572D01*
X71920970Y-105193671D01*
X71910480Y-105215850D01*
X71897868Y-105236893D01*
X71883253Y-105256599D01*
X71866777Y-105274777D01*
X71848599Y-105291253D01*
X71828893Y-105305868D01*
X71807850Y-105318480D01*
X71785671Y-105328970D01*
X71762572Y-105337235D01*
X71738773Y-105343196D01*
X71714505Y-105346796D01*
X71690001Y-105348000D01*
X71039999Y-105348000D01*
X71015495Y-105346796D01*
X70991227Y-105343196D01*
X70967428Y-105337235D01*
X70944329Y-105328970D01*
X70922150Y-105318480D01*
X70901107Y-105305868D01*
X70881401Y-105291253D01*
X70863223Y-105274777D01*
X70846747Y-105256599D01*
X70832132Y-105236893D01*
X70819520Y-105215850D01*
X70809030Y-105193671D01*
X70800765Y-105170572D01*
X70794804Y-105146773D01*
X70791204Y-105122505D01*
X70790000Y-105098001D01*
X70790000Y-104197999D01*
X70791204Y-104173495D01*
X70794804Y-104149227D01*
X70800765Y-104125428D01*
X70809030Y-104102329D01*
X70819520Y-104080150D01*
X70832132Y-104059107D01*
X70846747Y-104039401D01*
X70863223Y-104021223D01*
X70881401Y-104004747D01*
X70901107Y-103990132D01*
X70922150Y-103977520D01*
X70944329Y-103967030D01*
X70967428Y-103958765D01*
X70991227Y-103952804D01*
X71015495Y-103949204D01*
X71039999Y-103948000D01*
X71690001Y-103948000D01*
X71714505Y-103949204D01*
X71714505Y-103949204D01*
G37*
D19*
X71365000Y-104648000D03*
D18*
G36*
X86573505Y-103949204D02*
G01*
X86597773Y-103952804D01*
X86621572Y-103958765D01*
X86644671Y-103967030D01*
X86666850Y-103977520D01*
X86687893Y-103990132D01*
X86707599Y-104004747D01*
X86725777Y-104021223D01*
X86742253Y-104039401D01*
X86756868Y-104059107D01*
X86769480Y-104080150D01*
X86779970Y-104102329D01*
X86788235Y-104125428D01*
X86794196Y-104149227D01*
X86797796Y-104173495D01*
X86799000Y-104197999D01*
X86799000Y-105098001D01*
X86797796Y-105122505D01*
X86794196Y-105146773D01*
X86788235Y-105170572D01*
X86779970Y-105193671D01*
X86769480Y-105215850D01*
X86756868Y-105236893D01*
X86742253Y-105256599D01*
X86725777Y-105274777D01*
X86707599Y-105291253D01*
X86687893Y-105305868D01*
X86666850Y-105318480D01*
X86644671Y-105328970D01*
X86621572Y-105337235D01*
X86597773Y-105343196D01*
X86573505Y-105346796D01*
X86549001Y-105348000D01*
X85898999Y-105348000D01*
X85874495Y-105346796D01*
X85850227Y-105343196D01*
X85826428Y-105337235D01*
X85803329Y-105328970D01*
X85781150Y-105318480D01*
X85760107Y-105305868D01*
X85740401Y-105291253D01*
X85722223Y-105274777D01*
X85705747Y-105256599D01*
X85691132Y-105236893D01*
X85678520Y-105215850D01*
X85668030Y-105193671D01*
X85659765Y-105170572D01*
X85653804Y-105146773D01*
X85650204Y-105122505D01*
X85649000Y-105098001D01*
X85649000Y-104197999D01*
X85650204Y-104173495D01*
X85653804Y-104149227D01*
X85659765Y-104125428D01*
X85668030Y-104102329D01*
X85678520Y-104080150D01*
X85691132Y-104059107D01*
X85705747Y-104039401D01*
X85722223Y-104021223D01*
X85740401Y-104004747D01*
X85760107Y-103990132D01*
X85781150Y-103977520D01*
X85803329Y-103967030D01*
X85826428Y-103958765D01*
X85850227Y-103952804D01*
X85874495Y-103949204D01*
X85898999Y-103948000D01*
X86549001Y-103948000D01*
X86573505Y-103949204D01*
X86573505Y-103949204D01*
G37*
D19*
X86224000Y-104648000D03*
D18*
G36*
X88623505Y-103949204D02*
G01*
X88647773Y-103952804D01*
X88671572Y-103958765D01*
X88694671Y-103967030D01*
X88716850Y-103977520D01*
X88737893Y-103990132D01*
X88757599Y-104004747D01*
X88775777Y-104021223D01*
X88792253Y-104039401D01*
X88806868Y-104059107D01*
X88819480Y-104080150D01*
X88829970Y-104102329D01*
X88838235Y-104125428D01*
X88844196Y-104149227D01*
X88847796Y-104173495D01*
X88849000Y-104197999D01*
X88849000Y-105098001D01*
X88847796Y-105122505D01*
X88844196Y-105146773D01*
X88838235Y-105170572D01*
X88829970Y-105193671D01*
X88819480Y-105215850D01*
X88806868Y-105236893D01*
X88792253Y-105256599D01*
X88775777Y-105274777D01*
X88757599Y-105291253D01*
X88737893Y-105305868D01*
X88716850Y-105318480D01*
X88694671Y-105328970D01*
X88671572Y-105337235D01*
X88647773Y-105343196D01*
X88623505Y-105346796D01*
X88599001Y-105348000D01*
X87948999Y-105348000D01*
X87924495Y-105346796D01*
X87900227Y-105343196D01*
X87876428Y-105337235D01*
X87853329Y-105328970D01*
X87831150Y-105318480D01*
X87810107Y-105305868D01*
X87790401Y-105291253D01*
X87772223Y-105274777D01*
X87755747Y-105256599D01*
X87741132Y-105236893D01*
X87728520Y-105215850D01*
X87718030Y-105193671D01*
X87709765Y-105170572D01*
X87703804Y-105146773D01*
X87700204Y-105122505D01*
X87699000Y-105098001D01*
X87699000Y-104197999D01*
X87700204Y-104173495D01*
X87703804Y-104149227D01*
X87709765Y-104125428D01*
X87718030Y-104102329D01*
X87728520Y-104080150D01*
X87741132Y-104059107D01*
X87755747Y-104039401D01*
X87772223Y-104021223D01*
X87790401Y-104004747D01*
X87810107Y-103990132D01*
X87831150Y-103977520D01*
X87853329Y-103967030D01*
X87876428Y-103958765D01*
X87900227Y-103952804D01*
X87924495Y-103949204D01*
X87948999Y-103948000D01*
X88599001Y-103948000D01*
X88623505Y-103949204D01*
X88623505Y-103949204D01*
G37*
D19*
X88274000Y-104648000D03*
D18*
G36*
X88496505Y-101409204D02*
G01*
X88520773Y-101412804D01*
X88544572Y-101418765D01*
X88567671Y-101427030D01*
X88589850Y-101437520D01*
X88610893Y-101450132D01*
X88630599Y-101464747D01*
X88648777Y-101481223D01*
X88665253Y-101499401D01*
X88679868Y-101519107D01*
X88692480Y-101540150D01*
X88702970Y-101562329D01*
X88711235Y-101585428D01*
X88717196Y-101609227D01*
X88720796Y-101633495D01*
X88722000Y-101657999D01*
X88722000Y-102558001D01*
X88720796Y-102582505D01*
X88717196Y-102606773D01*
X88711235Y-102630572D01*
X88702970Y-102653671D01*
X88692480Y-102675850D01*
X88679868Y-102696893D01*
X88665253Y-102716599D01*
X88648777Y-102734777D01*
X88630599Y-102751253D01*
X88610893Y-102765868D01*
X88589850Y-102778480D01*
X88567671Y-102788970D01*
X88544572Y-102797235D01*
X88520773Y-102803196D01*
X88496505Y-102806796D01*
X88472001Y-102808000D01*
X87821999Y-102808000D01*
X87797495Y-102806796D01*
X87773227Y-102803196D01*
X87749428Y-102797235D01*
X87726329Y-102788970D01*
X87704150Y-102778480D01*
X87683107Y-102765868D01*
X87663401Y-102751253D01*
X87645223Y-102734777D01*
X87628747Y-102716599D01*
X87614132Y-102696893D01*
X87601520Y-102675850D01*
X87591030Y-102653671D01*
X87582765Y-102630572D01*
X87576804Y-102606773D01*
X87573204Y-102582505D01*
X87572000Y-102558001D01*
X87572000Y-101657999D01*
X87573204Y-101633495D01*
X87576804Y-101609227D01*
X87582765Y-101585428D01*
X87591030Y-101562329D01*
X87601520Y-101540150D01*
X87614132Y-101519107D01*
X87628747Y-101499401D01*
X87645223Y-101481223D01*
X87663401Y-101464747D01*
X87683107Y-101450132D01*
X87704150Y-101437520D01*
X87726329Y-101427030D01*
X87749428Y-101418765D01*
X87773227Y-101412804D01*
X87797495Y-101409204D01*
X87821999Y-101408000D01*
X88472001Y-101408000D01*
X88496505Y-101409204D01*
X88496505Y-101409204D01*
G37*
D19*
X88147000Y-102108000D03*
D18*
G36*
X86446505Y-101409204D02*
G01*
X86470773Y-101412804D01*
X86494572Y-101418765D01*
X86517671Y-101427030D01*
X86539850Y-101437520D01*
X86560893Y-101450132D01*
X86580599Y-101464747D01*
X86598777Y-101481223D01*
X86615253Y-101499401D01*
X86629868Y-101519107D01*
X86642480Y-101540150D01*
X86652970Y-101562329D01*
X86661235Y-101585428D01*
X86667196Y-101609227D01*
X86670796Y-101633495D01*
X86672000Y-101657999D01*
X86672000Y-102558001D01*
X86670796Y-102582505D01*
X86667196Y-102606773D01*
X86661235Y-102630572D01*
X86652970Y-102653671D01*
X86642480Y-102675850D01*
X86629868Y-102696893D01*
X86615253Y-102716599D01*
X86598777Y-102734777D01*
X86580599Y-102751253D01*
X86560893Y-102765868D01*
X86539850Y-102778480D01*
X86517671Y-102788970D01*
X86494572Y-102797235D01*
X86470773Y-102803196D01*
X86446505Y-102806796D01*
X86422001Y-102808000D01*
X85771999Y-102808000D01*
X85747495Y-102806796D01*
X85723227Y-102803196D01*
X85699428Y-102797235D01*
X85676329Y-102788970D01*
X85654150Y-102778480D01*
X85633107Y-102765868D01*
X85613401Y-102751253D01*
X85595223Y-102734777D01*
X85578747Y-102716599D01*
X85564132Y-102696893D01*
X85551520Y-102675850D01*
X85541030Y-102653671D01*
X85532765Y-102630572D01*
X85526804Y-102606773D01*
X85523204Y-102582505D01*
X85522000Y-102558001D01*
X85522000Y-101657999D01*
X85523204Y-101633495D01*
X85526804Y-101609227D01*
X85532765Y-101585428D01*
X85541030Y-101562329D01*
X85551520Y-101540150D01*
X85564132Y-101519107D01*
X85578747Y-101499401D01*
X85595223Y-101481223D01*
X85613401Y-101464747D01*
X85633107Y-101450132D01*
X85654150Y-101437520D01*
X85676329Y-101427030D01*
X85699428Y-101418765D01*
X85723227Y-101412804D01*
X85747495Y-101409204D01*
X85771999Y-101408000D01*
X86422001Y-101408000D01*
X86446505Y-101409204D01*
X86446505Y-101409204D01*
G37*
D19*
X86097000Y-102108000D03*
D18*
G36*
X88496505Y-93916204D02*
G01*
X88520773Y-93919804D01*
X88544572Y-93925765D01*
X88567671Y-93934030D01*
X88589850Y-93944520D01*
X88610893Y-93957132D01*
X88630599Y-93971747D01*
X88648777Y-93988223D01*
X88665253Y-94006401D01*
X88679868Y-94026107D01*
X88692480Y-94047150D01*
X88702970Y-94069329D01*
X88711235Y-94092428D01*
X88717196Y-94116227D01*
X88720796Y-94140495D01*
X88722000Y-94164999D01*
X88722000Y-95065001D01*
X88720796Y-95089505D01*
X88717196Y-95113773D01*
X88711235Y-95137572D01*
X88702970Y-95160671D01*
X88692480Y-95182850D01*
X88679868Y-95203893D01*
X88665253Y-95223599D01*
X88648777Y-95241777D01*
X88630599Y-95258253D01*
X88610893Y-95272868D01*
X88589850Y-95285480D01*
X88567671Y-95295970D01*
X88544572Y-95304235D01*
X88520773Y-95310196D01*
X88496505Y-95313796D01*
X88472001Y-95315000D01*
X87821999Y-95315000D01*
X87797495Y-95313796D01*
X87773227Y-95310196D01*
X87749428Y-95304235D01*
X87726329Y-95295970D01*
X87704150Y-95285480D01*
X87683107Y-95272868D01*
X87663401Y-95258253D01*
X87645223Y-95241777D01*
X87628747Y-95223599D01*
X87614132Y-95203893D01*
X87601520Y-95182850D01*
X87591030Y-95160671D01*
X87582765Y-95137572D01*
X87576804Y-95113773D01*
X87573204Y-95089505D01*
X87572000Y-95065001D01*
X87572000Y-94164999D01*
X87573204Y-94140495D01*
X87576804Y-94116227D01*
X87582765Y-94092428D01*
X87591030Y-94069329D01*
X87601520Y-94047150D01*
X87614132Y-94026107D01*
X87628747Y-94006401D01*
X87645223Y-93988223D01*
X87663401Y-93971747D01*
X87683107Y-93957132D01*
X87704150Y-93944520D01*
X87726329Y-93934030D01*
X87749428Y-93925765D01*
X87773227Y-93919804D01*
X87797495Y-93916204D01*
X87821999Y-93915000D01*
X88472001Y-93915000D01*
X88496505Y-93916204D01*
X88496505Y-93916204D01*
G37*
D19*
X88147000Y-94615000D03*
D18*
G36*
X86446505Y-93916204D02*
G01*
X86470773Y-93919804D01*
X86494572Y-93925765D01*
X86517671Y-93934030D01*
X86539850Y-93944520D01*
X86560893Y-93957132D01*
X86580599Y-93971747D01*
X86598777Y-93988223D01*
X86615253Y-94006401D01*
X86629868Y-94026107D01*
X86642480Y-94047150D01*
X86652970Y-94069329D01*
X86661235Y-94092428D01*
X86667196Y-94116227D01*
X86670796Y-94140495D01*
X86672000Y-94164999D01*
X86672000Y-95065001D01*
X86670796Y-95089505D01*
X86667196Y-95113773D01*
X86661235Y-95137572D01*
X86652970Y-95160671D01*
X86642480Y-95182850D01*
X86629868Y-95203893D01*
X86615253Y-95223599D01*
X86598777Y-95241777D01*
X86580599Y-95258253D01*
X86560893Y-95272868D01*
X86539850Y-95285480D01*
X86517671Y-95295970D01*
X86494572Y-95304235D01*
X86470773Y-95310196D01*
X86446505Y-95313796D01*
X86422001Y-95315000D01*
X85771999Y-95315000D01*
X85747495Y-95313796D01*
X85723227Y-95310196D01*
X85699428Y-95304235D01*
X85676329Y-95295970D01*
X85654150Y-95285480D01*
X85633107Y-95272868D01*
X85613401Y-95258253D01*
X85595223Y-95241777D01*
X85578747Y-95223599D01*
X85564132Y-95203893D01*
X85551520Y-95182850D01*
X85541030Y-95160671D01*
X85532765Y-95137572D01*
X85526804Y-95113773D01*
X85523204Y-95089505D01*
X85522000Y-95065001D01*
X85522000Y-94164999D01*
X85523204Y-94140495D01*
X85526804Y-94116227D01*
X85532765Y-94092428D01*
X85541030Y-94069329D01*
X85551520Y-94047150D01*
X85564132Y-94026107D01*
X85578747Y-94006401D01*
X85595223Y-93988223D01*
X85613401Y-93971747D01*
X85633107Y-93957132D01*
X85654150Y-93944520D01*
X85676329Y-93934030D01*
X85699428Y-93925765D01*
X85723227Y-93919804D01*
X85747495Y-93916204D01*
X85771999Y-93915000D01*
X86422001Y-93915000D01*
X86446505Y-93916204D01*
X86446505Y-93916204D01*
G37*
D19*
X86097000Y-94615000D03*
D18*
G36*
X71714505Y-93916204D02*
G01*
X71738773Y-93919804D01*
X71762572Y-93925765D01*
X71785671Y-93934030D01*
X71807850Y-93944520D01*
X71828893Y-93957132D01*
X71848599Y-93971747D01*
X71866777Y-93988223D01*
X71883253Y-94006401D01*
X71897868Y-94026107D01*
X71910480Y-94047150D01*
X71920970Y-94069329D01*
X71929235Y-94092428D01*
X71935196Y-94116227D01*
X71938796Y-94140495D01*
X71940000Y-94164999D01*
X71940000Y-95065001D01*
X71938796Y-95089505D01*
X71935196Y-95113773D01*
X71929235Y-95137572D01*
X71920970Y-95160671D01*
X71910480Y-95182850D01*
X71897868Y-95203893D01*
X71883253Y-95223599D01*
X71866777Y-95241777D01*
X71848599Y-95258253D01*
X71828893Y-95272868D01*
X71807850Y-95285480D01*
X71785671Y-95295970D01*
X71762572Y-95304235D01*
X71738773Y-95310196D01*
X71714505Y-95313796D01*
X71690001Y-95315000D01*
X71039999Y-95315000D01*
X71015495Y-95313796D01*
X70991227Y-95310196D01*
X70967428Y-95304235D01*
X70944329Y-95295970D01*
X70922150Y-95285480D01*
X70901107Y-95272868D01*
X70881401Y-95258253D01*
X70863223Y-95241777D01*
X70846747Y-95223599D01*
X70832132Y-95203893D01*
X70819520Y-95182850D01*
X70809030Y-95160671D01*
X70800765Y-95137572D01*
X70794804Y-95113773D01*
X70791204Y-95089505D01*
X70790000Y-95065001D01*
X70790000Y-94164999D01*
X70791204Y-94140495D01*
X70794804Y-94116227D01*
X70800765Y-94092428D01*
X70809030Y-94069329D01*
X70819520Y-94047150D01*
X70832132Y-94026107D01*
X70846747Y-94006401D01*
X70863223Y-93988223D01*
X70881401Y-93971747D01*
X70901107Y-93957132D01*
X70922150Y-93944520D01*
X70944329Y-93934030D01*
X70967428Y-93925765D01*
X70991227Y-93919804D01*
X71015495Y-93916204D01*
X71039999Y-93915000D01*
X71690001Y-93915000D01*
X71714505Y-93916204D01*
X71714505Y-93916204D01*
G37*
D19*
X71365000Y-94615000D03*
D18*
G36*
X73764505Y-93916204D02*
G01*
X73788773Y-93919804D01*
X73812572Y-93925765D01*
X73835671Y-93934030D01*
X73857850Y-93944520D01*
X73878893Y-93957132D01*
X73898599Y-93971747D01*
X73916777Y-93988223D01*
X73933253Y-94006401D01*
X73947868Y-94026107D01*
X73960480Y-94047150D01*
X73970970Y-94069329D01*
X73979235Y-94092428D01*
X73985196Y-94116227D01*
X73988796Y-94140495D01*
X73990000Y-94164999D01*
X73990000Y-95065001D01*
X73988796Y-95089505D01*
X73985196Y-95113773D01*
X73979235Y-95137572D01*
X73970970Y-95160671D01*
X73960480Y-95182850D01*
X73947868Y-95203893D01*
X73933253Y-95223599D01*
X73916777Y-95241777D01*
X73898599Y-95258253D01*
X73878893Y-95272868D01*
X73857850Y-95285480D01*
X73835671Y-95295970D01*
X73812572Y-95304235D01*
X73788773Y-95310196D01*
X73764505Y-95313796D01*
X73740001Y-95315000D01*
X73089999Y-95315000D01*
X73065495Y-95313796D01*
X73041227Y-95310196D01*
X73017428Y-95304235D01*
X72994329Y-95295970D01*
X72972150Y-95285480D01*
X72951107Y-95272868D01*
X72931401Y-95258253D01*
X72913223Y-95241777D01*
X72896747Y-95223599D01*
X72882132Y-95203893D01*
X72869520Y-95182850D01*
X72859030Y-95160671D01*
X72850765Y-95137572D01*
X72844804Y-95113773D01*
X72841204Y-95089505D01*
X72840000Y-95065001D01*
X72840000Y-94164999D01*
X72841204Y-94140495D01*
X72844804Y-94116227D01*
X72850765Y-94092428D01*
X72859030Y-94069329D01*
X72869520Y-94047150D01*
X72882132Y-94026107D01*
X72896747Y-94006401D01*
X72913223Y-93988223D01*
X72931401Y-93971747D01*
X72951107Y-93957132D01*
X72972150Y-93944520D01*
X72994329Y-93934030D01*
X73017428Y-93925765D01*
X73041227Y-93919804D01*
X73065495Y-93916204D01*
X73089999Y-93915000D01*
X73740001Y-93915000D01*
X73764505Y-93916204D01*
X73764505Y-93916204D01*
G37*
D19*
X73415000Y-94615000D03*
D20*
X84328000Y-135382000D03*
X81788000Y-135382000D03*
X79248000Y-135382000D03*
D21*
X76708000Y-135382000D03*
D18*
G36*
X87572504Y-130190204D02*
G01*
X87596773Y-130193804D01*
X87620571Y-130199765D01*
X87643671Y-130208030D01*
X87665849Y-130218520D01*
X87686893Y-130231133D01*
X87706598Y-130245747D01*
X87724777Y-130262223D01*
X87741253Y-130280402D01*
X87755867Y-130300107D01*
X87768480Y-130321151D01*
X87778970Y-130343329D01*
X87787235Y-130366429D01*
X87793196Y-130390227D01*
X87796796Y-130414496D01*
X87798000Y-130439000D01*
X87798000Y-131689000D01*
X87796796Y-131713504D01*
X87793196Y-131737773D01*
X87787235Y-131761571D01*
X87778970Y-131784671D01*
X87768480Y-131806849D01*
X87755867Y-131827893D01*
X87741253Y-131847598D01*
X87724777Y-131865777D01*
X87706598Y-131882253D01*
X87686893Y-131896867D01*
X87665849Y-131909480D01*
X87643671Y-131919970D01*
X87620571Y-131928235D01*
X87596773Y-131934196D01*
X87572504Y-131937796D01*
X87548000Y-131939000D01*
X86623000Y-131939000D01*
X86598496Y-131937796D01*
X86574227Y-131934196D01*
X86550429Y-131928235D01*
X86527329Y-131919970D01*
X86505151Y-131909480D01*
X86484107Y-131896867D01*
X86464402Y-131882253D01*
X86446223Y-131865777D01*
X86429747Y-131847598D01*
X86415133Y-131827893D01*
X86402520Y-131806849D01*
X86392030Y-131784671D01*
X86383765Y-131761571D01*
X86377804Y-131737773D01*
X86374204Y-131713504D01*
X86373000Y-131689000D01*
X86373000Y-130439000D01*
X86374204Y-130414496D01*
X86377804Y-130390227D01*
X86383765Y-130366429D01*
X86392030Y-130343329D01*
X86402520Y-130321151D01*
X86415133Y-130300107D01*
X86429747Y-130280402D01*
X86446223Y-130262223D01*
X86464402Y-130245747D01*
X86484107Y-130231133D01*
X86505151Y-130218520D01*
X86527329Y-130208030D01*
X86550429Y-130199765D01*
X86574227Y-130193804D01*
X86598496Y-130190204D01*
X86623000Y-130189000D01*
X87548000Y-130189000D01*
X87572504Y-130190204D01*
X87572504Y-130190204D01*
G37*
D22*
X87085500Y-131064000D03*
D18*
G36*
X84597504Y-130190204D02*
G01*
X84621773Y-130193804D01*
X84645571Y-130199765D01*
X84668671Y-130208030D01*
X84690849Y-130218520D01*
X84711893Y-130231133D01*
X84731598Y-130245747D01*
X84749777Y-130262223D01*
X84766253Y-130280402D01*
X84780867Y-130300107D01*
X84793480Y-130321151D01*
X84803970Y-130343329D01*
X84812235Y-130366429D01*
X84818196Y-130390227D01*
X84821796Y-130414496D01*
X84823000Y-130439000D01*
X84823000Y-131689000D01*
X84821796Y-131713504D01*
X84818196Y-131737773D01*
X84812235Y-131761571D01*
X84803970Y-131784671D01*
X84793480Y-131806849D01*
X84780867Y-131827893D01*
X84766253Y-131847598D01*
X84749777Y-131865777D01*
X84731598Y-131882253D01*
X84711893Y-131896867D01*
X84690849Y-131909480D01*
X84668671Y-131919970D01*
X84645571Y-131928235D01*
X84621773Y-131934196D01*
X84597504Y-131937796D01*
X84573000Y-131939000D01*
X83648000Y-131939000D01*
X83623496Y-131937796D01*
X83599227Y-131934196D01*
X83575429Y-131928235D01*
X83552329Y-131919970D01*
X83530151Y-131909480D01*
X83509107Y-131896867D01*
X83489402Y-131882253D01*
X83471223Y-131865777D01*
X83454747Y-131847598D01*
X83440133Y-131827893D01*
X83427520Y-131806849D01*
X83417030Y-131784671D01*
X83408765Y-131761571D01*
X83402804Y-131737773D01*
X83399204Y-131713504D01*
X83398000Y-131689000D01*
X83398000Y-130439000D01*
X83399204Y-130414496D01*
X83402804Y-130390227D01*
X83408765Y-130366429D01*
X83417030Y-130343329D01*
X83427520Y-130321151D01*
X83440133Y-130300107D01*
X83454747Y-130280402D01*
X83471223Y-130262223D01*
X83489402Y-130245747D01*
X83509107Y-130231133D01*
X83530151Y-130218520D01*
X83552329Y-130208030D01*
X83575429Y-130199765D01*
X83599227Y-130193804D01*
X83623496Y-130190204D01*
X83648000Y-130189000D01*
X84573000Y-130189000D01*
X84597504Y-130190204D01*
X84597504Y-130190204D01*
G37*
D22*
X84110500Y-131064000D03*
D23*
X88072000Y-99525000D03*
X86172000Y-99525000D03*
X86172000Y-97325000D03*
D24*
X87892000Y-97325000D03*
D18*
G36*
X82146505Y-131635204D02*
G01*
X82170773Y-131638804D01*
X82194572Y-131644765D01*
X82217671Y-131653030D01*
X82239850Y-131663520D01*
X82260893Y-131676132D01*
X82280599Y-131690747D01*
X82298777Y-131707223D01*
X82315253Y-131725401D01*
X82329868Y-131745107D01*
X82342480Y-131766150D01*
X82352970Y-131788329D01*
X82361235Y-131811428D01*
X82367196Y-131835227D01*
X82370796Y-131859495D01*
X82372000Y-131883999D01*
X82372000Y-132784001D01*
X82370796Y-132808505D01*
X82367196Y-132832773D01*
X82361235Y-132856572D01*
X82352970Y-132879671D01*
X82342480Y-132901850D01*
X82329868Y-132922893D01*
X82315253Y-132942599D01*
X82298777Y-132960777D01*
X82280599Y-132977253D01*
X82260893Y-132991868D01*
X82239850Y-133004480D01*
X82217671Y-133014970D01*
X82194572Y-133023235D01*
X82170773Y-133029196D01*
X82146505Y-133032796D01*
X82122001Y-133034000D01*
X81471999Y-133034000D01*
X81447495Y-133032796D01*
X81423227Y-133029196D01*
X81399428Y-133023235D01*
X81376329Y-133014970D01*
X81354150Y-133004480D01*
X81333107Y-132991868D01*
X81313401Y-132977253D01*
X81295223Y-132960777D01*
X81278747Y-132942599D01*
X81264132Y-132922893D01*
X81251520Y-132901850D01*
X81241030Y-132879671D01*
X81232765Y-132856572D01*
X81226804Y-132832773D01*
X81223204Y-132808505D01*
X81222000Y-132784001D01*
X81222000Y-131883999D01*
X81223204Y-131859495D01*
X81226804Y-131835227D01*
X81232765Y-131811428D01*
X81241030Y-131788329D01*
X81251520Y-131766150D01*
X81264132Y-131745107D01*
X81278747Y-131725401D01*
X81295223Y-131707223D01*
X81313401Y-131690747D01*
X81333107Y-131676132D01*
X81354150Y-131663520D01*
X81376329Y-131653030D01*
X81399428Y-131644765D01*
X81423227Y-131638804D01*
X81447495Y-131635204D01*
X81471999Y-131634000D01*
X82122001Y-131634000D01*
X82146505Y-131635204D01*
X82146505Y-131635204D01*
G37*
D19*
X81797000Y-132334000D03*
D18*
G36*
X80096505Y-131635204D02*
G01*
X80120773Y-131638804D01*
X80144572Y-131644765D01*
X80167671Y-131653030D01*
X80189850Y-131663520D01*
X80210893Y-131676132D01*
X80230599Y-131690747D01*
X80248777Y-131707223D01*
X80265253Y-131725401D01*
X80279868Y-131745107D01*
X80292480Y-131766150D01*
X80302970Y-131788329D01*
X80311235Y-131811428D01*
X80317196Y-131835227D01*
X80320796Y-131859495D01*
X80322000Y-131883999D01*
X80322000Y-132784001D01*
X80320796Y-132808505D01*
X80317196Y-132832773D01*
X80311235Y-132856572D01*
X80302970Y-132879671D01*
X80292480Y-132901850D01*
X80279868Y-132922893D01*
X80265253Y-132942599D01*
X80248777Y-132960777D01*
X80230599Y-132977253D01*
X80210893Y-132991868D01*
X80189850Y-133004480D01*
X80167671Y-133014970D01*
X80144572Y-133023235D01*
X80120773Y-133029196D01*
X80096505Y-133032796D01*
X80072001Y-133034000D01*
X79421999Y-133034000D01*
X79397495Y-133032796D01*
X79373227Y-133029196D01*
X79349428Y-133023235D01*
X79326329Y-133014970D01*
X79304150Y-133004480D01*
X79283107Y-132991868D01*
X79263401Y-132977253D01*
X79245223Y-132960777D01*
X79228747Y-132942599D01*
X79214132Y-132922893D01*
X79201520Y-132901850D01*
X79191030Y-132879671D01*
X79182765Y-132856572D01*
X79176804Y-132832773D01*
X79173204Y-132808505D01*
X79172000Y-132784001D01*
X79172000Y-131883999D01*
X79173204Y-131859495D01*
X79176804Y-131835227D01*
X79182765Y-131811428D01*
X79191030Y-131788329D01*
X79201520Y-131766150D01*
X79214132Y-131745107D01*
X79228747Y-131725401D01*
X79245223Y-131707223D01*
X79263401Y-131690747D01*
X79283107Y-131676132D01*
X79304150Y-131663520D01*
X79326329Y-131653030D01*
X79349428Y-131644765D01*
X79373227Y-131638804D01*
X79397495Y-131635204D01*
X79421999Y-131634000D01*
X80072001Y-131634000D01*
X80096505Y-131635204D01*
X80096505Y-131635204D01*
G37*
D19*
X79747000Y-132334000D03*
D18*
G36*
X82146505Y-129349204D02*
G01*
X82170773Y-129352804D01*
X82194572Y-129358765D01*
X82217671Y-129367030D01*
X82239850Y-129377520D01*
X82260893Y-129390132D01*
X82280599Y-129404747D01*
X82298777Y-129421223D01*
X82315253Y-129439401D01*
X82329868Y-129459107D01*
X82342480Y-129480150D01*
X82352970Y-129502329D01*
X82361235Y-129525428D01*
X82367196Y-129549227D01*
X82370796Y-129573495D01*
X82372000Y-129597999D01*
X82372000Y-130498001D01*
X82370796Y-130522505D01*
X82367196Y-130546773D01*
X82361235Y-130570572D01*
X82352970Y-130593671D01*
X82342480Y-130615850D01*
X82329868Y-130636893D01*
X82315253Y-130656599D01*
X82298777Y-130674777D01*
X82280599Y-130691253D01*
X82260893Y-130705868D01*
X82239850Y-130718480D01*
X82217671Y-130728970D01*
X82194572Y-130737235D01*
X82170773Y-130743196D01*
X82146505Y-130746796D01*
X82122001Y-130748000D01*
X81471999Y-130748000D01*
X81447495Y-130746796D01*
X81423227Y-130743196D01*
X81399428Y-130737235D01*
X81376329Y-130728970D01*
X81354150Y-130718480D01*
X81333107Y-130705868D01*
X81313401Y-130691253D01*
X81295223Y-130674777D01*
X81278747Y-130656599D01*
X81264132Y-130636893D01*
X81251520Y-130615850D01*
X81241030Y-130593671D01*
X81232765Y-130570572D01*
X81226804Y-130546773D01*
X81223204Y-130522505D01*
X81222000Y-130498001D01*
X81222000Y-129597999D01*
X81223204Y-129573495D01*
X81226804Y-129549227D01*
X81232765Y-129525428D01*
X81241030Y-129502329D01*
X81251520Y-129480150D01*
X81264132Y-129459107D01*
X81278747Y-129439401D01*
X81295223Y-129421223D01*
X81313401Y-129404747D01*
X81333107Y-129390132D01*
X81354150Y-129377520D01*
X81376329Y-129367030D01*
X81399428Y-129358765D01*
X81423227Y-129352804D01*
X81447495Y-129349204D01*
X81471999Y-129348000D01*
X82122001Y-129348000D01*
X82146505Y-129349204D01*
X82146505Y-129349204D01*
G37*
D19*
X81797000Y-130048000D03*
D18*
G36*
X80096505Y-129349204D02*
G01*
X80120773Y-129352804D01*
X80144572Y-129358765D01*
X80167671Y-129367030D01*
X80189850Y-129377520D01*
X80210893Y-129390132D01*
X80230599Y-129404747D01*
X80248777Y-129421223D01*
X80265253Y-129439401D01*
X80279868Y-129459107D01*
X80292480Y-129480150D01*
X80302970Y-129502329D01*
X80311235Y-129525428D01*
X80317196Y-129549227D01*
X80320796Y-129573495D01*
X80322000Y-129597999D01*
X80322000Y-130498001D01*
X80320796Y-130522505D01*
X80317196Y-130546773D01*
X80311235Y-130570572D01*
X80302970Y-130593671D01*
X80292480Y-130615850D01*
X80279868Y-130636893D01*
X80265253Y-130656599D01*
X80248777Y-130674777D01*
X80230599Y-130691253D01*
X80210893Y-130705868D01*
X80189850Y-130718480D01*
X80167671Y-130728970D01*
X80144572Y-130737235D01*
X80120773Y-130743196D01*
X80096505Y-130746796D01*
X80072001Y-130748000D01*
X79421999Y-130748000D01*
X79397495Y-130746796D01*
X79373227Y-130743196D01*
X79349428Y-130737235D01*
X79326329Y-130728970D01*
X79304150Y-130718480D01*
X79283107Y-130705868D01*
X79263401Y-130691253D01*
X79245223Y-130674777D01*
X79228747Y-130656599D01*
X79214132Y-130636893D01*
X79201520Y-130615850D01*
X79191030Y-130593671D01*
X79182765Y-130570572D01*
X79176804Y-130546773D01*
X79173204Y-130522505D01*
X79172000Y-130498001D01*
X79172000Y-129597999D01*
X79173204Y-129573495D01*
X79176804Y-129549227D01*
X79182765Y-129525428D01*
X79191030Y-129502329D01*
X79201520Y-129480150D01*
X79214132Y-129459107D01*
X79228747Y-129439401D01*
X79245223Y-129421223D01*
X79263401Y-129404747D01*
X79283107Y-129390132D01*
X79304150Y-129377520D01*
X79326329Y-129367030D01*
X79349428Y-129358765D01*
X79373227Y-129352804D01*
X79397495Y-129349204D01*
X79421999Y-129348000D01*
X80072001Y-129348000D01*
X80096505Y-129349204D01*
X80096505Y-129349204D01*
G37*
D19*
X79747000Y-130048000D03*
D18*
G36*
X80230505Y-126816204D02*
G01*
X80254773Y-126819804D01*
X80278572Y-126825765D01*
X80301671Y-126834030D01*
X80323850Y-126844520D01*
X80344893Y-126857132D01*
X80364599Y-126871747D01*
X80382777Y-126888223D01*
X80399253Y-126906401D01*
X80413868Y-126926107D01*
X80426480Y-126947150D01*
X80436970Y-126969329D01*
X80445235Y-126992428D01*
X80451196Y-127016227D01*
X80454796Y-127040495D01*
X80456000Y-127064999D01*
X80456000Y-127715001D01*
X80454796Y-127739505D01*
X80451196Y-127763773D01*
X80445235Y-127787572D01*
X80436970Y-127810671D01*
X80426480Y-127832850D01*
X80413868Y-127853893D01*
X80399253Y-127873599D01*
X80382777Y-127891777D01*
X80364599Y-127908253D01*
X80344893Y-127922868D01*
X80323850Y-127935480D01*
X80301671Y-127945970D01*
X80278572Y-127954235D01*
X80254773Y-127960196D01*
X80230505Y-127963796D01*
X80206001Y-127965000D01*
X79305999Y-127965000D01*
X79281495Y-127963796D01*
X79257227Y-127960196D01*
X79233428Y-127954235D01*
X79210329Y-127945970D01*
X79188150Y-127935480D01*
X79167107Y-127922868D01*
X79147401Y-127908253D01*
X79129223Y-127891777D01*
X79112747Y-127873599D01*
X79098132Y-127853893D01*
X79085520Y-127832850D01*
X79075030Y-127810671D01*
X79066765Y-127787572D01*
X79060804Y-127763773D01*
X79057204Y-127739505D01*
X79056000Y-127715001D01*
X79056000Y-127064999D01*
X79057204Y-127040495D01*
X79060804Y-127016227D01*
X79066765Y-126992428D01*
X79075030Y-126969329D01*
X79085520Y-126947150D01*
X79098132Y-126926107D01*
X79112747Y-126906401D01*
X79129223Y-126888223D01*
X79147401Y-126871747D01*
X79167107Y-126857132D01*
X79188150Y-126844520D01*
X79210329Y-126834030D01*
X79233428Y-126825765D01*
X79257227Y-126819804D01*
X79281495Y-126816204D01*
X79305999Y-126815000D01*
X80206001Y-126815000D01*
X80230505Y-126816204D01*
X80230505Y-126816204D01*
G37*
D19*
X79756000Y-127390000D03*
D18*
G36*
X80230505Y-124766204D02*
G01*
X80254773Y-124769804D01*
X80278572Y-124775765D01*
X80301671Y-124784030D01*
X80323850Y-124794520D01*
X80344893Y-124807132D01*
X80364599Y-124821747D01*
X80382777Y-124838223D01*
X80399253Y-124856401D01*
X80413868Y-124876107D01*
X80426480Y-124897150D01*
X80436970Y-124919329D01*
X80445235Y-124942428D01*
X80451196Y-124966227D01*
X80454796Y-124990495D01*
X80456000Y-125014999D01*
X80456000Y-125665001D01*
X80454796Y-125689505D01*
X80451196Y-125713773D01*
X80445235Y-125737572D01*
X80436970Y-125760671D01*
X80426480Y-125782850D01*
X80413868Y-125803893D01*
X80399253Y-125823599D01*
X80382777Y-125841777D01*
X80364599Y-125858253D01*
X80344893Y-125872868D01*
X80323850Y-125885480D01*
X80301671Y-125895970D01*
X80278572Y-125904235D01*
X80254773Y-125910196D01*
X80230505Y-125913796D01*
X80206001Y-125915000D01*
X79305999Y-125915000D01*
X79281495Y-125913796D01*
X79257227Y-125910196D01*
X79233428Y-125904235D01*
X79210329Y-125895970D01*
X79188150Y-125885480D01*
X79167107Y-125872868D01*
X79147401Y-125858253D01*
X79129223Y-125841777D01*
X79112747Y-125823599D01*
X79098132Y-125803893D01*
X79085520Y-125782850D01*
X79075030Y-125760671D01*
X79066765Y-125737572D01*
X79060804Y-125713773D01*
X79057204Y-125689505D01*
X79056000Y-125665001D01*
X79056000Y-125014999D01*
X79057204Y-124990495D01*
X79060804Y-124966227D01*
X79066765Y-124942428D01*
X79075030Y-124919329D01*
X79085520Y-124897150D01*
X79098132Y-124876107D01*
X79112747Y-124856401D01*
X79129223Y-124838223D01*
X79147401Y-124821747D01*
X79167107Y-124807132D01*
X79188150Y-124794520D01*
X79210329Y-124784030D01*
X79233428Y-124775765D01*
X79257227Y-124769804D01*
X79281495Y-124766204D01*
X79305999Y-124765000D01*
X80206001Y-124765000D01*
X80230505Y-124766204D01*
X80230505Y-124766204D01*
G37*
D19*
X79756000Y-125340000D03*
D18*
G36*
X82516505Y-126816204D02*
G01*
X82540773Y-126819804D01*
X82564572Y-126825765D01*
X82587671Y-126834030D01*
X82609850Y-126844520D01*
X82630893Y-126857132D01*
X82650599Y-126871747D01*
X82668777Y-126888223D01*
X82685253Y-126906401D01*
X82699868Y-126926107D01*
X82712480Y-126947150D01*
X82722970Y-126969329D01*
X82731235Y-126992428D01*
X82737196Y-127016227D01*
X82740796Y-127040495D01*
X82742000Y-127064999D01*
X82742000Y-127715001D01*
X82740796Y-127739505D01*
X82737196Y-127763773D01*
X82731235Y-127787572D01*
X82722970Y-127810671D01*
X82712480Y-127832850D01*
X82699868Y-127853893D01*
X82685253Y-127873599D01*
X82668777Y-127891777D01*
X82650599Y-127908253D01*
X82630893Y-127922868D01*
X82609850Y-127935480D01*
X82587671Y-127945970D01*
X82564572Y-127954235D01*
X82540773Y-127960196D01*
X82516505Y-127963796D01*
X82492001Y-127965000D01*
X81591999Y-127965000D01*
X81567495Y-127963796D01*
X81543227Y-127960196D01*
X81519428Y-127954235D01*
X81496329Y-127945970D01*
X81474150Y-127935480D01*
X81453107Y-127922868D01*
X81433401Y-127908253D01*
X81415223Y-127891777D01*
X81398747Y-127873599D01*
X81384132Y-127853893D01*
X81371520Y-127832850D01*
X81361030Y-127810671D01*
X81352765Y-127787572D01*
X81346804Y-127763773D01*
X81343204Y-127739505D01*
X81342000Y-127715001D01*
X81342000Y-127064999D01*
X81343204Y-127040495D01*
X81346804Y-127016227D01*
X81352765Y-126992428D01*
X81361030Y-126969329D01*
X81371520Y-126947150D01*
X81384132Y-126926107D01*
X81398747Y-126906401D01*
X81415223Y-126888223D01*
X81433401Y-126871747D01*
X81453107Y-126857132D01*
X81474150Y-126844520D01*
X81496329Y-126834030D01*
X81519428Y-126825765D01*
X81543227Y-126819804D01*
X81567495Y-126816204D01*
X81591999Y-126815000D01*
X82492001Y-126815000D01*
X82516505Y-126816204D01*
X82516505Y-126816204D01*
G37*
D19*
X82042000Y-127390000D03*
D18*
G36*
X82516505Y-124766204D02*
G01*
X82540773Y-124769804D01*
X82564572Y-124775765D01*
X82587671Y-124784030D01*
X82609850Y-124794520D01*
X82630893Y-124807132D01*
X82650599Y-124821747D01*
X82668777Y-124838223D01*
X82685253Y-124856401D01*
X82699868Y-124876107D01*
X82712480Y-124897150D01*
X82722970Y-124919329D01*
X82731235Y-124942428D01*
X82737196Y-124966227D01*
X82740796Y-124990495D01*
X82742000Y-125014999D01*
X82742000Y-125665001D01*
X82740796Y-125689505D01*
X82737196Y-125713773D01*
X82731235Y-125737572D01*
X82722970Y-125760671D01*
X82712480Y-125782850D01*
X82699868Y-125803893D01*
X82685253Y-125823599D01*
X82668777Y-125841777D01*
X82650599Y-125858253D01*
X82630893Y-125872868D01*
X82609850Y-125885480D01*
X82587671Y-125895970D01*
X82564572Y-125904235D01*
X82540773Y-125910196D01*
X82516505Y-125913796D01*
X82492001Y-125915000D01*
X81591999Y-125915000D01*
X81567495Y-125913796D01*
X81543227Y-125910196D01*
X81519428Y-125904235D01*
X81496329Y-125895970D01*
X81474150Y-125885480D01*
X81453107Y-125872868D01*
X81433401Y-125858253D01*
X81415223Y-125841777D01*
X81398747Y-125823599D01*
X81384132Y-125803893D01*
X81371520Y-125782850D01*
X81361030Y-125760671D01*
X81352765Y-125737572D01*
X81346804Y-125713773D01*
X81343204Y-125689505D01*
X81342000Y-125665001D01*
X81342000Y-125014999D01*
X81343204Y-124990495D01*
X81346804Y-124966227D01*
X81352765Y-124942428D01*
X81361030Y-124919329D01*
X81371520Y-124897150D01*
X81384132Y-124876107D01*
X81398747Y-124856401D01*
X81415223Y-124838223D01*
X81433401Y-124821747D01*
X81453107Y-124807132D01*
X81474150Y-124794520D01*
X81496329Y-124784030D01*
X81519428Y-124775765D01*
X81543227Y-124769804D01*
X81567495Y-124766204D01*
X81591999Y-124765000D01*
X82492001Y-124765000D01*
X82516505Y-124766204D01*
X82516505Y-124766204D01*
G37*
D19*
X82042000Y-125340000D03*
D18*
G36*
X87088505Y-126816204D02*
G01*
X87112773Y-126819804D01*
X87136572Y-126825765D01*
X87159671Y-126834030D01*
X87181850Y-126844520D01*
X87202893Y-126857132D01*
X87222599Y-126871747D01*
X87240777Y-126888223D01*
X87257253Y-126906401D01*
X87271868Y-126926107D01*
X87284480Y-126947150D01*
X87294970Y-126969329D01*
X87303235Y-126992428D01*
X87309196Y-127016227D01*
X87312796Y-127040495D01*
X87314000Y-127064999D01*
X87314000Y-127715001D01*
X87312796Y-127739505D01*
X87309196Y-127763773D01*
X87303235Y-127787572D01*
X87294970Y-127810671D01*
X87284480Y-127832850D01*
X87271868Y-127853893D01*
X87257253Y-127873599D01*
X87240777Y-127891777D01*
X87222599Y-127908253D01*
X87202893Y-127922868D01*
X87181850Y-127935480D01*
X87159671Y-127945970D01*
X87136572Y-127954235D01*
X87112773Y-127960196D01*
X87088505Y-127963796D01*
X87064001Y-127965000D01*
X86163999Y-127965000D01*
X86139495Y-127963796D01*
X86115227Y-127960196D01*
X86091428Y-127954235D01*
X86068329Y-127945970D01*
X86046150Y-127935480D01*
X86025107Y-127922868D01*
X86005401Y-127908253D01*
X85987223Y-127891777D01*
X85970747Y-127873599D01*
X85956132Y-127853893D01*
X85943520Y-127832850D01*
X85933030Y-127810671D01*
X85924765Y-127787572D01*
X85918804Y-127763773D01*
X85915204Y-127739505D01*
X85914000Y-127715001D01*
X85914000Y-127064999D01*
X85915204Y-127040495D01*
X85918804Y-127016227D01*
X85924765Y-126992428D01*
X85933030Y-126969329D01*
X85943520Y-126947150D01*
X85956132Y-126926107D01*
X85970747Y-126906401D01*
X85987223Y-126888223D01*
X86005401Y-126871747D01*
X86025107Y-126857132D01*
X86046150Y-126844520D01*
X86068329Y-126834030D01*
X86091428Y-126825765D01*
X86115227Y-126819804D01*
X86139495Y-126816204D01*
X86163999Y-126815000D01*
X87064001Y-126815000D01*
X87088505Y-126816204D01*
X87088505Y-126816204D01*
G37*
D19*
X86614000Y-127390000D03*
D18*
G36*
X87088505Y-124766204D02*
G01*
X87112773Y-124769804D01*
X87136572Y-124775765D01*
X87159671Y-124784030D01*
X87181850Y-124794520D01*
X87202893Y-124807132D01*
X87222599Y-124821747D01*
X87240777Y-124838223D01*
X87257253Y-124856401D01*
X87271868Y-124876107D01*
X87284480Y-124897150D01*
X87294970Y-124919329D01*
X87303235Y-124942428D01*
X87309196Y-124966227D01*
X87312796Y-124990495D01*
X87314000Y-125014999D01*
X87314000Y-125665001D01*
X87312796Y-125689505D01*
X87309196Y-125713773D01*
X87303235Y-125737572D01*
X87294970Y-125760671D01*
X87284480Y-125782850D01*
X87271868Y-125803893D01*
X87257253Y-125823599D01*
X87240777Y-125841777D01*
X87222599Y-125858253D01*
X87202893Y-125872868D01*
X87181850Y-125885480D01*
X87159671Y-125895970D01*
X87136572Y-125904235D01*
X87112773Y-125910196D01*
X87088505Y-125913796D01*
X87064001Y-125915000D01*
X86163999Y-125915000D01*
X86139495Y-125913796D01*
X86115227Y-125910196D01*
X86091428Y-125904235D01*
X86068329Y-125895970D01*
X86046150Y-125885480D01*
X86025107Y-125872868D01*
X86005401Y-125858253D01*
X85987223Y-125841777D01*
X85970747Y-125823599D01*
X85956132Y-125803893D01*
X85943520Y-125782850D01*
X85933030Y-125760671D01*
X85924765Y-125737572D01*
X85918804Y-125713773D01*
X85915204Y-125689505D01*
X85914000Y-125665001D01*
X85914000Y-125014999D01*
X85915204Y-124990495D01*
X85918804Y-124966227D01*
X85924765Y-124942428D01*
X85933030Y-124919329D01*
X85943520Y-124897150D01*
X85956132Y-124876107D01*
X85970747Y-124856401D01*
X85987223Y-124838223D01*
X86005401Y-124821747D01*
X86025107Y-124807132D01*
X86046150Y-124794520D01*
X86068329Y-124784030D01*
X86091428Y-124775765D01*
X86115227Y-124769804D01*
X86139495Y-124766204D01*
X86163999Y-124765000D01*
X87064001Y-124765000D01*
X87088505Y-124766204D01*
X87088505Y-124766204D01*
G37*
D19*
X86614000Y-125340000D03*
D18*
G36*
X84802505Y-126816204D02*
G01*
X84826773Y-126819804D01*
X84850572Y-126825765D01*
X84873671Y-126834030D01*
X84895850Y-126844520D01*
X84916893Y-126857132D01*
X84936599Y-126871747D01*
X84954777Y-126888223D01*
X84971253Y-126906401D01*
X84985868Y-126926107D01*
X84998480Y-126947150D01*
X85008970Y-126969329D01*
X85017235Y-126992428D01*
X85023196Y-127016227D01*
X85026796Y-127040495D01*
X85028000Y-127064999D01*
X85028000Y-127715001D01*
X85026796Y-127739505D01*
X85023196Y-127763773D01*
X85017235Y-127787572D01*
X85008970Y-127810671D01*
X84998480Y-127832850D01*
X84985868Y-127853893D01*
X84971253Y-127873599D01*
X84954777Y-127891777D01*
X84936599Y-127908253D01*
X84916893Y-127922868D01*
X84895850Y-127935480D01*
X84873671Y-127945970D01*
X84850572Y-127954235D01*
X84826773Y-127960196D01*
X84802505Y-127963796D01*
X84778001Y-127965000D01*
X83877999Y-127965000D01*
X83853495Y-127963796D01*
X83829227Y-127960196D01*
X83805428Y-127954235D01*
X83782329Y-127945970D01*
X83760150Y-127935480D01*
X83739107Y-127922868D01*
X83719401Y-127908253D01*
X83701223Y-127891777D01*
X83684747Y-127873599D01*
X83670132Y-127853893D01*
X83657520Y-127832850D01*
X83647030Y-127810671D01*
X83638765Y-127787572D01*
X83632804Y-127763773D01*
X83629204Y-127739505D01*
X83628000Y-127715001D01*
X83628000Y-127064999D01*
X83629204Y-127040495D01*
X83632804Y-127016227D01*
X83638765Y-126992428D01*
X83647030Y-126969329D01*
X83657520Y-126947150D01*
X83670132Y-126926107D01*
X83684747Y-126906401D01*
X83701223Y-126888223D01*
X83719401Y-126871747D01*
X83739107Y-126857132D01*
X83760150Y-126844520D01*
X83782329Y-126834030D01*
X83805428Y-126825765D01*
X83829227Y-126819804D01*
X83853495Y-126816204D01*
X83877999Y-126815000D01*
X84778001Y-126815000D01*
X84802505Y-126816204D01*
X84802505Y-126816204D01*
G37*
D19*
X84328000Y-127390000D03*
D18*
G36*
X84802505Y-124766204D02*
G01*
X84826773Y-124769804D01*
X84850572Y-124775765D01*
X84873671Y-124784030D01*
X84895850Y-124794520D01*
X84916893Y-124807132D01*
X84936599Y-124821747D01*
X84954777Y-124838223D01*
X84971253Y-124856401D01*
X84985868Y-124876107D01*
X84998480Y-124897150D01*
X85008970Y-124919329D01*
X85017235Y-124942428D01*
X85023196Y-124966227D01*
X85026796Y-124990495D01*
X85028000Y-125014999D01*
X85028000Y-125665001D01*
X85026796Y-125689505D01*
X85023196Y-125713773D01*
X85017235Y-125737572D01*
X85008970Y-125760671D01*
X84998480Y-125782850D01*
X84985868Y-125803893D01*
X84971253Y-125823599D01*
X84954777Y-125841777D01*
X84936599Y-125858253D01*
X84916893Y-125872868D01*
X84895850Y-125885480D01*
X84873671Y-125895970D01*
X84850572Y-125904235D01*
X84826773Y-125910196D01*
X84802505Y-125913796D01*
X84778001Y-125915000D01*
X83877999Y-125915000D01*
X83853495Y-125913796D01*
X83829227Y-125910196D01*
X83805428Y-125904235D01*
X83782329Y-125895970D01*
X83760150Y-125885480D01*
X83739107Y-125872868D01*
X83719401Y-125858253D01*
X83701223Y-125841777D01*
X83684747Y-125823599D01*
X83670132Y-125803893D01*
X83657520Y-125782850D01*
X83647030Y-125760671D01*
X83638765Y-125737572D01*
X83632804Y-125713773D01*
X83629204Y-125689505D01*
X83628000Y-125665001D01*
X83628000Y-125014999D01*
X83629204Y-124990495D01*
X83632804Y-124966227D01*
X83638765Y-124942428D01*
X83647030Y-124919329D01*
X83657520Y-124897150D01*
X83670132Y-124876107D01*
X83684747Y-124856401D01*
X83701223Y-124838223D01*
X83719401Y-124821747D01*
X83739107Y-124807132D01*
X83760150Y-124794520D01*
X83782329Y-124784030D01*
X83805428Y-124775765D01*
X83829227Y-124769804D01*
X83853495Y-124766204D01*
X83877999Y-124765000D01*
X84778001Y-124765000D01*
X84802505Y-124766204D01*
X84802505Y-124766204D01*
G37*
D19*
X84328000Y-125340000D03*
D18*
G36*
X73764505Y-98996204D02*
G01*
X73788773Y-98999804D01*
X73812572Y-99005765D01*
X73835671Y-99014030D01*
X73857850Y-99024520D01*
X73878893Y-99037132D01*
X73898599Y-99051747D01*
X73916777Y-99068223D01*
X73933253Y-99086401D01*
X73947868Y-99106107D01*
X73960480Y-99127150D01*
X73970970Y-99149329D01*
X73979235Y-99172428D01*
X73985196Y-99196227D01*
X73988796Y-99220495D01*
X73990000Y-99244999D01*
X73990000Y-100145001D01*
X73988796Y-100169505D01*
X73985196Y-100193773D01*
X73979235Y-100217572D01*
X73970970Y-100240671D01*
X73960480Y-100262850D01*
X73947868Y-100283893D01*
X73933253Y-100303599D01*
X73916777Y-100321777D01*
X73898599Y-100338253D01*
X73878893Y-100352868D01*
X73857850Y-100365480D01*
X73835671Y-100375970D01*
X73812572Y-100384235D01*
X73788773Y-100390196D01*
X73764505Y-100393796D01*
X73740001Y-100395000D01*
X73089999Y-100395000D01*
X73065495Y-100393796D01*
X73041227Y-100390196D01*
X73017428Y-100384235D01*
X72994329Y-100375970D01*
X72972150Y-100365480D01*
X72951107Y-100352868D01*
X72931401Y-100338253D01*
X72913223Y-100321777D01*
X72896747Y-100303599D01*
X72882132Y-100283893D01*
X72869520Y-100262850D01*
X72859030Y-100240671D01*
X72850765Y-100217572D01*
X72844804Y-100193773D01*
X72841204Y-100169505D01*
X72840000Y-100145001D01*
X72840000Y-99244999D01*
X72841204Y-99220495D01*
X72844804Y-99196227D01*
X72850765Y-99172428D01*
X72859030Y-99149329D01*
X72869520Y-99127150D01*
X72882132Y-99106107D01*
X72896747Y-99086401D01*
X72913223Y-99068223D01*
X72931401Y-99051747D01*
X72951107Y-99037132D01*
X72972150Y-99024520D01*
X72994329Y-99014030D01*
X73017428Y-99005765D01*
X73041227Y-98999804D01*
X73065495Y-98996204D01*
X73089999Y-98995000D01*
X73740001Y-98995000D01*
X73764505Y-98996204D01*
X73764505Y-98996204D01*
G37*
D19*
X73415000Y-99695000D03*
D18*
G36*
X71714505Y-98996204D02*
G01*
X71738773Y-98999804D01*
X71762572Y-99005765D01*
X71785671Y-99014030D01*
X71807850Y-99024520D01*
X71828893Y-99037132D01*
X71848599Y-99051747D01*
X71866777Y-99068223D01*
X71883253Y-99086401D01*
X71897868Y-99106107D01*
X71910480Y-99127150D01*
X71920970Y-99149329D01*
X71929235Y-99172428D01*
X71935196Y-99196227D01*
X71938796Y-99220495D01*
X71940000Y-99244999D01*
X71940000Y-100145001D01*
X71938796Y-100169505D01*
X71935196Y-100193773D01*
X71929235Y-100217572D01*
X71920970Y-100240671D01*
X71910480Y-100262850D01*
X71897868Y-100283893D01*
X71883253Y-100303599D01*
X71866777Y-100321777D01*
X71848599Y-100338253D01*
X71828893Y-100352868D01*
X71807850Y-100365480D01*
X71785671Y-100375970D01*
X71762572Y-100384235D01*
X71738773Y-100390196D01*
X71714505Y-100393796D01*
X71690001Y-100395000D01*
X71039999Y-100395000D01*
X71015495Y-100393796D01*
X70991227Y-100390196D01*
X70967428Y-100384235D01*
X70944329Y-100375970D01*
X70922150Y-100365480D01*
X70901107Y-100352868D01*
X70881401Y-100338253D01*
X70863223Y-100321777D01*
X70846747Y-100303599D01*
X70832132Y-100283893D01*
X70819520Y-100262850D01*
X70809030Y-100240671D01*
X70800765Y-100217572D01*
X70794804Y-100193773D01*
X70791204Y-100169505D01*
X70790000Y-100145001D01*
X70790000Y-99244999D01*
X70791204Y-99220495D01*
X70794804Y-99196227D01*
X70800765Y-99172428D01*
X70809030Y-99149329D01*
X70819520Y-99127150D01*
X70832132Y-99106107D01*
X70846747Y-99086401D01*
X70863223Y-99068223D01*
X70881401Y-99051747D01*
X70901107Y-99037132D01*
X70922150Y-99024520D01*
X70944329Y-99014030D01*
X70967428Y-99005765D01*
X70991227Y-98999804D01*
X71015495Y-98996204D01*
X71039999Y-98995000D01*
X71690001Y-98995000D01*
X71714505Y-98996204D01*
X71714505Y-98996204D01*
G37*
D19*
X71365000Y-99695000D03*
D18*
G36*
X75912505Y-103811204D02*
G01*
X75936773Y-103814804D01*
X75960572Y-103820765D01*
X75983671Y-103829030D01*
X76005850Y-103839520D01*
X76026893Y-103852132D01*
X76046599Y-103866747D01*
X76064777Y-103883223D01*
X76081253Y-103901401D01*
X76095868Y-103921107D01*
X76108480Y-103942150D01*
X76118970Y-103964329D01*
X76127235Y-103987428D01*
X76133196Y-104011227D01*
X76136796Y-104035495D01*
X76138000Y-104059999D01*
X76138000Y-104710001D01*
X76136796Y-104734505D01*
X76133196Y-104758773D01*
X76127235Y-104782572D01*
X76118970Y-104805671D01*
X76108480Y-104827850D01*
X76095868Y-104848893D01*
X76081253Y-104868599D01*
X76064777Y-104886777D01*
X76046599Y-104903253D01*
X76026893Y-104917868D01*
X76005850Y-104930480D01*
X75983671Y-104940970D01*
X75960572Y-104949235D01*
X75936773Y-104955196D01*
X75912505Y-104958796D01*
X75888001Y-104960000D01*
X74987999Y-104960000D01*
X74963495Y-104958796D01*
X74939227Y-104955196D01*
X74915428Y-104949235D01*
X74892329Y-104940970D01*
X74870150Y-104930480D01*
X74849107Y-104917868D01*
X74829401Y-104903253D01*
X74811223Y-104886777D01*
X74794747Y-104868599D01*
X74780132Y-104848893D01*
X74767520Y-104827850D01*
X74757030Y-104805671D01*
X74748765Y-104782572D01*
X74742804Y-104758773D01*
X74739204Y-104734505D01*
X74738000Y-104710001D01*
X74738000Y-104059999D01*
X74739204Y-104035495D01*
X74742804Y-104011227D01*
X74748765Y-103987428D01*
X74757030Y-103964329D01*
X74767520Y-103942150D01*
X74780132Y-103921107D01*
X74794747Y-103901401D01*
X74811223Y-103883223D01*
X74829401Y-103866747D01*
X74849107Y-103852132D01*
X74870150Y-103839520D01*
X74892329Y-103829030D01*
X74915428Y-103820765D01*
X74939227Y-103814804D01*
X74963495Y-103811204D01*
X74987999Y-103810000D01*
X75888001Y-103810000D01*
X75912505Y-103811204D01*
X75912505Y-103811204D01*
G37*
D19*
X75438000Y-104385000D03*
D18*
G36*
X75912505Y-105861204D02*
G01*
X75936773Y-105864804D01*
X75960572Y-105870765D01*
X75983671Y-105879030D01*
X76005850Y-105889520D01*
X76026893Y-105902132D01*
X76046599Y-105916747D01*
X76064777Y-105933223D01*
X76081253Y-105951401D01*
X76095868Y-105971107D01*
X76108480Y-105992150D01*
X76118970Y-106014329D01*
X76127235Y-106037428D01*
X76133196Y-106061227D01*
X76136796Y-106085495D01*
X76138000Y-106109999D01*
X76138000Y-106760001D01*
X76136796Y-106784505D01*
X76133196Y-106808773D01*
X76127235Y-106832572D01*
X76118970Y-106855671D01*
X76108480Y-106877850D01*
X76095868Y-106898893D01*
X76081253Y-106918599D01*
X76064777Y-106936777D01*
X76046599Y-106953253D01*
X76026893Y-106967868D01*
X76005850Y-106980480D01*
X75983671Y-106990970D01*
X75960572Y-106999235D01*
X75936773Y-107005196D01*
X75912505Y-107008796D01*
X75888001Y-107010000D01*
X74987999Y-107010000D01*
X74963495Y-107008796D01*
X74939227Y-107005196D01*
X74915428Y-106999235D01*
X74892329Y-106990970D01*
X74870150Y-106980480D01*
X74849107Y-106967868D01*
X74829401Y-106953253D01*
X74811223Y-106936777D01*
X74794747Y-106918599D01*
X74780132Y-106898893D01*
X74767520Y-106877850D01*
X74757030Y-106855671D01*
X74748765Y-106832572D01*
X74742804Y-106808773D01*
X74739204Y-106784505D01*
X74738000Y-106760001D01*
X74738000Y-106109999D01*
X74739204Y-106085495D01*
X74742804Y-106061227D01*
X74748765Y-106037428D01*
X74757030Y-106014329D01*
X74767520Y-105992150D01*
X74780132Y-105971107D01*
X74794747Y-105951401D01*
X74811223Y-105933223D01*
X74829401Y-105916747D01*
X74849107Y-105902132D01*
X74870150Y-105889520D01*
X74892329Y-105879030D01*
X74915428Y-105870765D01*
X74939227Y-105864804D01*
X74963495Y-105861204D01*
X74987999Y-105860000D01*
X75888001Y-105860000D01*
X75912505Y-105861204D01*
X75912505Y-105861204D01*
G37*
D19*
X75438000Y-106435000D03*
D18*
G36*
X84675505Y-103811204D02*
G01*
X84699773Y-103814804D01*
X84723572Y-103820765D01*
X84746671Y-103829030D01*
X84768850Y-103839520D01*
X84789893Y-103852132D01*
X84809599Y-103866747D01*
X84827777Y-103883223D01*
X84844253Y-103901401D01*
X84858868Y-103921107D01*
X84871480Y-103942150D01*
X84881970Y-103964329D01*
X84890235Y-103987428D01*
X84896196Y-104011227D01*
X84899796Y-104035495D01*
X84901000Y-104059999D01*
X84901000Y-104710001D01*
X84899796Y-104734505D01*
X84896196Y-104758773D01*
X84890235Y-104782572D01*
X84881970Y-104805671D01*
X84871480Y-104827850D01*
X84858868Y-104848893D01*
X84844253Y-104868599D01*
X84827777Y-104886777D01*
X84809599Y-104903253D01*
X84789893Y-104917868D01*
X84768850Y-104930480D01*
X84746671Y-104940970D01*
X84723572Y-104949235D01*
X84699773Y-104955196D01*
X84675505Y-104958796D01*
X84651001Y-104960000D01*
X83750999Y-104960000D01*
X83726495Y-104958796D01*
X83702227Y-104955196D01*
X83678428Y-104949235D01*
X83655329Y-104940970D01*
X83633150Y-104930480D01*
X83612107Y-104917868D01*
X83592401Y-104903253D01*
X83574223Y-104886777D01*
X83557747Y-104868599D01*
X83543132Y-104848893D01*
X83530520Y-104827850D01*
X83520030Y-104805671D01*
X83511765Y-104782572D01*
X83505804Y-104758773D01*
X83502204Y-104734505D01*
X83501000Y-104710001D01*
X83501000Y-104059999D01*
X83502204Y-104035495D01*
X83505804Y-104011227D01*
X83511765Y-103987428D01*
X83520030Y-103964329D01*
X83530520Y-103942150D01*
X83543132Y-103921107D01*
X83557747Y-103901401D01*
X83574223Y-103883223D01*
X83592401Y-103866747D01*
X83612107Y-103852132D01*
X83633150Y-103839520D01*
X83655329Y-103829030D01*
X83678428Y-103820765D01*
X83702227Y-103814804D01*
X83726495Y-103811204D01*
X83750999Y-103810000D01*
X84651001Y-103810000D01*
X84675505Y-103811204D01*
X84675505Y-103811204D01*
G37*
D19*
X84201000Y-104385000D03*
D18*
G36*
X84675505Y-105861204D02*
G01*
X84699773Y-105864804D01*
X84723572Y-105870765D01*
X84746671Y-105879030D01*
X84768850Y-105889520D01*
X84789893Y-105902132D01*
X84809599Y-105916747D01*
X84827777Y-105933223D01*
X84844253Y-105951401D01*
X84858868Y-105971107D01*
X84871480Y-105992150D01*
X84881970Y-106014329D01*
X84890235Y-106037428D01*
X84896196Y-106061227D01*
X84899796Y-106085495D01*
X84901000Y-106109999D01*
X84901000Y-106760001D01*
X84899796Y-106784505D01*
X84896196Y-106808773D01*
X84890235Y-106832572D01*
X84881970Y-106855671D01*
X84871480Y-106877850D01*
X84858868Y-106898893D01*
X84844253Y-106918599D01*
X84827777Y-106936777D01*
X84809599Y-106953253D01*
X84789893Y-106967868D01*
X84768850Y-106980480D01*
X84746671Y-106990970D01*
X84723572Y-106999235D01*
X84699773Y-107005196D01*
X84675505Y-107008796D01*
X84651001Y-107010000D01*
X83750999Y-107010000D01*
X83726495Y-107008796D01*
X83702227Y-107005196D01*
X83678428Y-106999235D01*
X83655329Y-106990970D01*
X83633150Y-106980480D01*
X83612107Y-106967868D01*
X83592401Y-106953253D01*
X83574223Y-106936777D01*
X83557747Y-106918599D01*
X83543132Y-106898893D01*
X83530520Y-106877850D01*
X83520030Y-106855671D01*
X83511765Y-106832572D01*
X83505804Y-106808773D01*
X83502204Y-106784505D01*
X83501000Y-106760001D01*
X83501000Y-106109999D01*
X83502204Y-106085495D01*
X83505804Y-106061227D01*
X83511765Y-106037428D01*
X83520030Y-106014329D01*
X83530520Y-105992150D01*
X83543132Y-105971107D01*
X83557747Y-105951401D01*
X83574223Y-105933223D01*
X83592401Y-105916747D01*
X83612107Y-105902132D01*
X83633150Y-105889520D01*
X83655329Y-105879030D01*
X83678428Y-105870765D01*
X83702227Y-105864804D01*
X83726495Y-105861204D01*
X83750999Y-105860000D01*
X84651001Y-105860000D01*
X84675505Y-105861204D01*
X84675505Y-105861204D01*
G37*
D19*
X84201000Y-106435000D03*
M02*
