M48
; DRILL file {KiCad (5.1.2)-2} date 2020/1/16 16:08:28
; FORMAT={-:-/ absolute / inch / decimal}
; #@! TF.CreationDate,2020-01-16T16:08:28+08:00
; #@! TF.GenerationSoftware,Kicad,Pcbnew,(5.1.2)-2
; #@! TF.FileFunction,Plated,1,2,PTH
FMAT,2
INCH
T1C0.0157
T2C0.0236
T3C0.0394
%
G90
G05
T1
X3.2708Y-3.9381
X3.475Y-2.4753
X3.5012Y-4.6104
X3.5529Y-3.6575
X3.5829Y-3.7924
X3.6004Y-3.8306
X3.6014Y-3.8708
X3.6116Y-3.9104
X3.6532Y-2.4753
X3.6532Y-3.499
X3.6663Y-3.6797
X3.6806Y-3.5678
X3.6814Y-4.0062
X3.7035Y-3.0615
X3.728Y-3.9144
X3.7321Y-3.0282
X3.7454Y-3.8508
X3.7457Y-4.0203
X3.7522Y-3.4585
X3.7907Y-4.2672
X3.7985Y-5.6004
X3.8274Y-4.3412
X3.8386Y-3.9887
X3.8406Y-3.7082
X3.8787Y-3.166
X3.906Y-3.976
X3.9904Y-4.0439
X4.0917Y-2.5337
X4.1094Y-3.0098
X4.1094Y-3.2003
X4.3005Y-2.5717
X4.3629Y-3.6318
X4.4223Y-5.5452
X4.474Y-2.7002
X4.6247Y-3.5392
X4.6247Y-4.3449
X4.8574Y-3.6155
T3
X5.55Y-2.5
X5.65Y-2.5
X5.75Y-2.5
X3.55Y-5.34
X3.65Y-5.34
X3.75Y-5.34
X3.85Y-5.34
X3.17Y-5.26
X3.17Y-5.36
X3.17Y-5.46
X3.17Y-5.56
T2
G00X4.3299Y-2.3406
M15
G01X4.3299Y-2.3642
M16
G05
G00X4.3299Y-2.4953
M15
G01X4.3299Y-2.5386
M16
G05
G00X4.6701Y-2.3406
M15
G01X4.6701Y-2.3642
M16
G05
G00X4.6701Y-2.4953
M15
G01X4.6701Y-2.5386
M16
G05
T0
M30
