G04 #@! TF.GenerationSoftware,KiCad,Pcbnew,(5.1.2)-2*
G04 #@! TF.CreationDate,2020-01-16T16:08:25+08:00*
G04 #@! TF.ProjectId,wingxx-receiver-v4,77696e67-7878-42d7-9265-636569766572,rev?*
G04 #@! TF.SameCoordinates,Original*
G04 #@! TF.FileFunction,Copper,L1,Top*
G04 #@! TF.FilePolarity,Positive*
%FSLAX46Y46*%
G04 Gerber Fmt 4.6, Leading zero omitted, Abs format (unit mm)*
G04 Created by KiCad (PCBNEW (5.1.2)-2) date 2020-01-16 16:08:25*
%MOMM*%
%LPD*%
G04 APERTURE LIST*
%ADD10O,1.700000X1.700000*%
%ADD11R,1.700000X1.700000*%
%ADD12O,1.000000X2.100000*%
%ADD13O,1.000000X1.600000*%
%ADD14C,0.800000*%
%ADD15C,0.250000*%
%ADD16C,0.254000*%
G04 APERTURE END LIST*
D10*
X97790000Y-135636000D03*
X95250000Y-135636000D03*
X92710000Y-135636000D03*
D11*
X90170000Y-135636000D03*
D12*
X109980000Y-63930000D03*
X118620000Y-63930000D03*
D13*
X109980000Y-59750000D03*
X118620000Y-59750000D03*
D10*
X146050000Y-63500000D03*
X143510000Y-63500000D03*
D11*
X140970000Y-63500000D03*
D10*
X80518000Y-133604000D03*
X80518000Y-136144000D03*
X80518000Y-138684000D03*
D11*
X80518000Y-141224000D03*
D14*
X94795400Y-76916200D03*
X95140400Y-102116100D03*
X94070100Y-77760900D03*
X93508300Y-101756400D03*
X88930700Y-117103200D03*
X90242700Y-92900300D03*
X95134300Y-97811500D03*
X97215100Y-110266800D03*
X104378500Y-76447700D03*
X104378500Y-81287400D03*
X117468400Y-110360200D03*
X117468400Y-89895300D03*
X94692200Y-99426100D03*
X96284700Y-108387600D03*
X98518700Y-80415700D03*
X112326500Y-140848100D03*
X101357100Y-102715000D03*
X96481200Y-142249000D03*
X99213600Y-100990000D03*
X110818200Y-92246700D03*
X113639700Y-68585900D03*
X103929500Y-64355400D03*
X109233200Y-65321800D03*
X97500300Y-101314100D03*
X123377300Y-91834000D03*
X95305600Y-87845300D03*
X97551700Y-94188600D03*
X83079300Y-100028900D03*
X93122900Y-93463900D03*
X88265000Y-62873000D03*
X93487700Y-90622000D03*
X92790200Y-62873000D03*
X92790200Y-88874600D03*
X91735900Y-99324500D03*
X91475400Y-98318400D03*
X91450800Y-97297100D03*
X91006700Y-96326500D03*
D15*
X95140400Y-102116100D02*
X93958700Y-100934400D01*
X93958700Y-100934400D02*
X93958700Y-97324500D01*
X93958700Y-97324500D02*
X94717900Y-96565300D01*
X94717900Y-96565300D02*
X94717900Y-88504800D01*
X94717900Y-88504800D02*
X94579700Y-88366600D01*
X94579700Y-88366600D02*
X94579700Y-80234900D01*
X94579700Y-80234900D02*
X94795400Y-80019200D01*
X94795400Y-80019200D02*
X94795400Y-76916200D01*
X94070100Y-77760900D02*
X94070100Y-88948600D01*
X94070100Y-88948600D02*
X94213100Y-89091600D01*
X94213100Y-89091600D02*
X94213100Y-95470500D01*
X94213100Y-95470500D02*
X93508300Y-96175300D01*
X93508300Y-96175300D02*
X93508300Y-101756400D01*
X90242700Y-92900300D02*
X89006300Y-94136700D01*
X89006300Y-94136700D02*
X89006300Y-107643400D01*
X89006300Y-107643400D02*
X89006200Y-107643400D01*
X89006200Y-107643400D02*
X87709700Y-108939900D01*
X87709700Y-108939900D02*
X87709700Y-115882200D01*
X87709700Y-115882200D02*
X88930700Y-117103200D01*
X97215100Y-110266800D02*
X97215100Y-102157900D01*
X97215100Y-102157900D02*
X96766400Y-101709200D01*
X96766400Y-101709200D02*
X96766400Y-98261800D01*
X96766400Y-98261800D02*
X96316100Y-97811500D01*
X104378500Y-81287400D02*
X104378500Y-85176700D01*
X104378500Y-85176700D02*
X99812600Y-89742600D01*
X99812600Y-89742600D02*
X99812600Y-94315000D01*
X99812600Y-94315000D02*
X96316100Y-97811500D01*
X96316100Y-97811500D02*
X95134300Y-97811500D01*
X104378500Y-81287400D02*
X104378500Y-76447700D01*
X117468400Y-110360200D02*
X117468400Y-89895300D01*
X80518000Y-138684000D02*
X96463800Y-138684000D01*
X96463800Y-138684000D02*
X98983500Y-136164300D01*
X98983500Y-136164300D02*
X98983500Y-131449400D01*
X98983500Y-131449400D02*
X96284700Y-128750600D01*
X96284700Y-128750600D02*
X96284700Y-108387600D01*
X96284700Y-108387600D02*
X96284700Y-101018600D01*
X96284700Y-101018600D02*
X94692200Y-99426100D01*
X94692200Y-99426100D02*
X94409000Y-99142900D01*
X94409000Y-99142900D02*
X94409000Y-97511100D01*
X94409000Y-97511100D02*
X94850000Y-97070100D01*
X94850000Y-97070100D02*
X95728000Y-97070100D01*
X95728000Y-97070100D02*
X98518700Y-94279400D01*
X98518700Y-94279400D02*
X98518700Y-80415700D01*
X109980000Y-59750000D02*
X109980000Y-60875300D01*
X109642600Y-63592600D02*
X103408700Y-63592600D01*
X103408700Y-63592600D02*
X98518700Y-68482600D01*
X98518700Y-68482600D02*
X98518700Y-80415700D01*
X109980000Y-63930000D02*
X109642600Y-63592600D01*
X109980000Y-60875300D02*
X109642600Y-61212700D01*
X109642600Y-61212700D02*
X109642600Y-63592600D01*
X118620000Y-61869100D02*
X118620000Y-63930000D01*
X118620000Y-59750000D02*
X118620000Y-61869100D01*
X144874700Y-63500000D02*
X144874700Y-63123400D01*
X144874700Y-63123400D02*
X143620400Y-61869100D01*
X143620400Y-61869100D02*
X118620000Y-61869100D01*
X146050000Y-63500000D02*
X144874700Y-63500000D01*
X101357100Y-102715000D02*
X101357100Y-108132700D01*
X101357100Y-108132700D02*
X112326500Y-119102100D01*
X112326500Y-119102100D02*
X112326500Y-140848100D01*
X96481200Y-142249000D02*
X99458500Y-139271700D01*
X99458500Y-139271700D02*
X99458500Y-128498800D01*
X99458500Y-128498800D02*
X98518700Y-127559000D01*
X98518700Y-127559000D02*
X98518700Y-101684900D01*
X98518700Y-101684900D02*
X99213600Y-100990000D01*
X113639700Y-68585900D02*
X113639700Y-88030300D01*
X113639700Y-88030300D02*
X110818200Y-90851800D01*
X110818200Y-90851800D02*
X110818200Y-92246700D01*
X113639700Y-68585900D02*
X112497300Y-68585900D01*
X112497300Y-68585900D02*
X109233200Y-65321800D01*
X109233200Y-65321800D02*
X104895900Y-65321800D01*
X104895900Y-65321800D02*
X103929500Y-64355400D01*
X97500300Y-101314100D02*
X97500300Y-101136500D01*
X97500300Y-101136500D02*
X105664800Y-92972000D01*
X105664800Y-92972000D02*
X111118700Y-92972000D01*
X111118700Y-92972000D02*
X111756900Y-92333800D01*
X111756900Y-92333800D02*
X111756900Y-90550000D01*
X111756900Y-90550000D02*
X139982300Y-62324600D01*
X139982300Y-62324600D02*
X141967300Y-62324600D01*
X141967300Y-62324600D02*
X142334700Y-62692000D01*
X142334700Y-62692000D02*
X142334700Y-63500000D01*
X143510000Y-63500000D02*
X142334700Y-63500000D01*
X140970000Y-64675300D02*
X140455800Y-64675300D01*
X140455800Y-64675300D02*
X136548900Y-68582200D01*
X136548900Y-68582200D02*
X136548900Y-78662400D01*
X136548900Y-78662400D02*
X123377300Y-91834000D01*
X140970000Y-63500000D02*
X140970000Y-64675300D01*
X97551700Y-94188600D02*
X97551700Y-90091400D01*
X97551700Y-90091400D02*
X95305600Y-87845300D01*
X93122900Y-93463900D02*
X91818400Y-92159400D01*
X91818400Y-92159400D02*
X89889200Y-92159400D01*
X89889200Y-92159400D02*
X83079300Y-98969300D01*
X83079300Y-98969300D02*
X83079300Y-100028900D01*
X88265000Y-62873000D02*
X91992600Y-66600600D01*
X91992600Y-66600600D02*
X91992600Y-89126900D01*
X91992600Y-89126900D02*
X93487700Y-90622000D01*
X92790200Y-62873000D02*
X92790200Y-88874600D01*
X97790000Y-135636000D02*
X97790000Y-134460700D01*
X91735900Y-99324500D02*
X92145300Y-99733900D01*
X92145300Y-99733900D02*
X92145300Y-102376200D01*
X92145300Y-102376200D02*
X95109200Y-105340100D01*
X95109200Y-105340100D02*
X95109200Y-131779900D01*
X95109200Y-131779900D02*
X97790000Y-134460700D01*
X95250000Y-134460700D02*
X94208500Y-133419200D01*
X94208500Y-133419200D02*
X94208500Y-107027400D01*
X94208500Y-107027400D02*
X91463900Y-104282800D01*
X91463900Y-104282800D02*
X91463900Y-100078100D01*
X91463900Y-100078100D02*
X91463800Y-100078100D01*
X91463800Y-100078100D02*
X91010600Y-99624900D01*
X91010600Y-99624900D02*
X91010600Y-98783200D01*
X91010600Y-98783200D02*
X91475400Y-98318400D01*
X95250000Y-135636000D02*
X95250000Y-134460700D01*
X92710000Y-134460700D02*
X92710000Y-106165800D01*
X92710000Y-106165800D02*
X90560300Y-104016100D01*
X90560300Y-104016100D02*
X90560300Y-98187600D01*
X90560300Y-98187600D02*
X91450800Y-97297100D01*
X92710000Y-135636000D02*
X92710000Y-134460700D01*
X91006700Y-96326500D02*
X90110000Y-97223200D01*
X90110000Y-97223200D02*
X90110000Y-104592100D01*
X90110000Y-104592100D02*
X92031900Y-106514000D01*
X92031900Y-106514000D02*
X92031900Y-132598800D01*
X92031900Y-132598800D02*
X90170000Y-134460700D01*
X90170000Y-135636000D02*
X90170000Y-134460700D01*
D16*
G36*
X108845000Y-60177000D02*
G01*
X108891585Y-60395987D01*
X108979997Y-60601678D01*
X109106839Y-60786169D01*
X109267236Y-60942369D01*
X109455024Y-61064276D01*
X109678126Y-61144119D01*
X109853000Y-61017954D01*
X109853000Y-59877000D01*
X109833000Y-59877000D01*
X109833000Y-59817000D01*
X110127000Y-59817000D01*
X110127000Y-59877000D01*
X110107000Y-59877000D01*
X110107000Y-61017954D01*
X110281874Y-61144119D01*
X110504976Y-61064276D01*
X110692764Y-60942369D01*
X110853161Y-60786169D01*
X110980003Y-60601678D01*
X111068415Y-60395987D01*
X111115000Y-60177000D01*
X111115000Y-59817000D01*
X117485000Y-59817000D01*
X117485000Y-60177000D01*
X117531585Y-60395987D01*
X117619997Y-60601678D01*
X117746839Y-60786169D01*
X117907236Y-60942369D01*
X118095024Y-61064276D01*
X118318126Y-61144119D01*
X118493000Y-61017954D01*
X118493000Y-59877000D01*
X118473000Y-59877000D01*
X118473000Y-59817000D01*
X118767000Y-59817000D01*
X118767000Y-59877000D01*
X118747000Y-59877000D01*
X118747000Y-61017954D01*
X118921874Y-61144119D01*
X119144976Y-61064276D01*
X119332764Y-60942369D01*
X119493161Y-60786169D01*
X119620003Y-60601678D01*
X119708415Y-60395987D01*
X119755000Y-60177000D01*
X119755000Y-59817000D01*
X149807394Y-59817000D01*
X152273000Y-62282606D01*
X152273000Y-144727394D01*
X149807394Y-147193000D01*
X137083000Y-147193000D01*
X137083000Y-144907000D01*
X137160000Y-144907000D01*
X137184776Y-144904560D01*
X137208601Y-144897333D01*
X137230557Y-144885597D01*
X137249803Y-144869803D01*
X137265597Y-144850557D01*
X137277333Y-144828601D01*
X137284560Y-144804776D01*
X137287000Y-144780000D01*
X137287000Y-130810000D01*
X137284560Y-130785224D01*
X137277333Y-130761399D01*
X137265597Y-130739443D01*
X137249803Y-130720197D01*
X137230557Y-130704403D01*
X137208601Y-130692667D01*
X137184776Y-130685440D01*
X137160000Y-130683000D01*
X118110000Y-130683000D01*
X118085224Y-130685440D01*
X118061399Y-130692667D01*
X118039443Y-130704403D01*
X118020197Y-130720197D01*
X118004403Y-130739443D01*
X117992667Y-130761399D01*
X117985440Y-130785224D01*
X117983000Y-130810000D01*
X117983000Y-144780000D01*
X117985440Y-144804776D01*
X117992667Y-144828601D01*
X118004403Y-144850557D01*
X118020197Y-144869803D01*
X118039443Y-144885597D01*
X118061399Y-144897333D01*
X118085224Y-144904560D01*
X118110000Y-144907000D01*
X126569000Y-144907000D01*
X126569000Y-147193000D01*
X78792606Y-147193000D01*
X76327000Y-144727394D01*
X76327000Y-140374000D01*
X79029928Y-140374000D01*
X79029928Y-142074000D01*
X79042188Y-142198482D01*
X79078498Y-142318180D01*
X79137463Y-142428494D01*
X79216815Y-142525185D01*
X79313506Y-142604537D01*
X79423820Y-142663502D01*
X79543518Y-142699812D01*
X79668000Y-142712072D01*
X81368000Y-142712072D01*
X81492482Y-142699812D01*
X81612180Y-142663502D01*
X81722494Y-142604537D01*
X81819185Y-142525185D01*
X81898537Y-142428494D01*
X81957502Y-142318180D01*
X81993812Y-142198482D01*
X82006072Y-142074000D01*
X82006072Y-140374000D01*
X81993812Y-140249518D01*
X81957502Y-140129820D01*
X81898537Y-140019506D01*
X81819185Y-139922815D01*
X81722494Y-139843463D01*
X81612180Y-139784498D01*
X81531534Y-139760034D01*
X81615588Y-139684269D01*
X81789641Y-139450920D01*
X81914825Y-139188099D01*
X81959476Y-139040890D01*
X81838155Y-138811000D01*
X80645000Y-138811000D01*
X80645000Y-138831000D01*
X80391000Y-138831000D01*
X80391000Y-138811000D01*
X79197845Y-138811000D01*
X79076524Y-139040890D01*
X79121175Y-139188099D01*
X79246359Y-139450920D01*
X79420412Y-139684269D01*
X79504466Y-139760034D01*
X79423820Y-139784498D01*
X79313506Y-139843463D01*
X79216815Y-139922815D01*
X79137463Y-140019506D01*
X79078498Y-140129820D01*
X79042188Y-140249518D01*
X79029928Y-140374000D01*
X76327000Y-140374000D01*
X76327000Y-133604000D01*
X79025815Y-133604000D01*
X79054487Y-133895111D01*
X79139401Y-134175034D01*
X79277294Y-134433014D01*
X79462866Y-134659134D01*
X79688986Y-134844706D01*
X79743791Y-134874000D01*
X79688986Y-134903294D01*
X79462866Y-135088866D01*
X79277294Y-135314986D01*
X79139401Y-135572966D01*
X79054487Y-135852889D01*
X79025815Y-136144000D01*
X79054487Y-136435111D01*
X79139401Y-136715034D01*
X79277294Y-136973014D01*
X79462866Y-137199134D01*
X79688986Y-137384706D01*
X79753523Y-137419201D01*
X79636645Y-137488822D01*
X79420412Y-137683731D01*
X79246359Y-137917080D01*
X79121175Y-138179901D01*
X79076524Y-138327110D01*
X79197845Y-138557000D01*
X80391000Y-138557000D01*
X80391000Y-138537000D01*
X80645000Y-138537000D01*
X80645000Y-138557000D01*
X81838155Y-138557000D01*
X81959476Y-138327110D01*
X81914825Y-138179901D01*
X81789641Y-137917080D01*
X81615588Y-137683731D01*
X81399355Y-137488822D01*
X81282477Y-137419201D01*
X81347014Y-137384706D01*
X81573134Y-137199134D01*
X81758706Y-136973014D01*
X81896599Y-136715034D01*
X81981513Y-136435111D01*
X82010185Y-136144000D01*
X81981513Y-135852889D01*
X81896599Y-135572966D01*
X81758706Y-135314986D01*
X81573134Y-135088866D01*
X81347014Y-134903294D01*
X81292209Y-134874000D01*
X81347014Y-134844706D01*
X81573134Y-134659134D01*
X81758706Y-134433014D01*
X81896599Y-134175034D01*
X81981513Y-133895111D01*
X82010185Y-133604000D01*
X81981513Y-133312889D01*
X81896599Y-133032966D01*
X81758706Y-132774986D01*
X81573134Y-132548866D01*
X81347014Y-132363294D01*
X81089034Y-132225401D01*
X80809111Y-132140487D01*
X80590950Y-132119000D01*
X80445050Y-132119000D01*
X80226889Y-132140487D01*
X79946966Y-132225401D01*
X79688986Y-132363294D01*
X79462866Y-132548866D01*
X79277294Y-132774986D01*
X79139401Y-133032966D01*
X79054487Y-133312889D01*
X79025815Y-133604000D01*
X76327000Y-133604000D01*
X76327000Y-126059652D01*
X79159100Y-126059652D01*
X79159100Y-126352348D01*
X79216202Y-126639421D01*
X79328212Y-126909838D01*
X79490826Y-127153206D01*
X79697794Y-127360174D01*
X79941162Y-127522788D01*
X80211579Y-127634798D01*
X80498652Y-127691900D01*
X80791348Y-127691900D01*
X81078421Y-127634798D01*
X81348838Y-127522788D01*
X81592206Y-127360174D01*
X81799174Y-127153206D01*
X81961788Y-126909838D01*
X82073798Y-126639421D01*
X82130900Y-126352348D01*
X82130900Y-126059652D01*
X82079451Y-125801000D01*
X82125279Y-125801000D01*
X82537756Y-125718953D01*
X82926302Y-125558012D01*
X83232708Y-125353279D01*
X83197127Y-125439178D01*
X83096100Y-125947076D01*
X83096100Y-126464924D01*
X83197127Y-126972822D01*
X83395299Y-127451251D01*
X83683000Y-127881826D01*
X84049174Y-128248000D01*
X84479749Y-128535701D01*
X84958178Y-128733873D01*
X85466076Y-128834900D01*
X85983924Y-128834900D01*
X86491822Y-128733873D01*
X86970251Y-128535701D01*
X87400826Y-128248000D01*
X87767000Y-127881826D01*
X88054701Y-127451251D01*
X88252873Y-126972822D01*
X88353900Y-126464924D01*
X88353900Y-125947076D01*
X88252873Y-125439178D01*
X88054701Y-124960749D01*
X87767000Y-124530174D01*
X87400826Y-124164000D01*
X86970251Y-123876299D01*
X86491822Y-123678127D01*
X85983924Y-123577100D01*
X85466076Y-123577100D01*
X84958178Y-123678127D01*
X84479749Y-123876299D01*
X84049174Y-124164000D01*
X83978763Y-124234411D01*
X84050000Y-123876279D01*
X84050000Y-123455721D01*
X83967953Y-123043244D01*
X83807012Y-122654698D01*
X83573363Y-122305017D01*
X83275983Y-122007637D01*
X82926302Y-121773988D01*
X82537756Y-121613047D01*
X82125279Y-121531000D01*
X81704721Y-121531000D01*
X81292244Y-121613047D01*
X80903698Y-121773988D01*
X80554017Y-122007637D01*
X80256637Y-122305017D01*
X80022988Y-122654698D01*
X79862047Y-123043244D01*
X79780000Y-123455721D01*
X79780000Y-123876279D01*
X79862047Y-124288756D01*
X80022988Y-124677302D01*
X80116150Y-124816730D01*
X79941162Y-124889212D01*
X79697794Y-125051826D01*
X79490826Y-125258794D01*
X79328212Y-125502162D01*
X79216202Y-125772579D01*
X79159100Y-126059652D01*
X76327000Y-126059652D01*
X76327000Y-120915721D01*
X86130000Y-120915721D01*
X86130000Y-121336279D01*
X86212047Y-121748756D01*
X86372988Y-122137302D01*
X86606637Y-122486983D01*
X86904017Y-122784363D01*
X87253698Y-123018012D01*
X87642244Y-123178953D01*
X88054721Y-123261000D01*
X88475279Y-123261000D01*
X88887756Y-123178953D01*
X89276302Y-123018012D01*
X89625983Y-122784363D01*
X89923363Y-122486983D01*
X90157012Y-122137302D01*
X90317953Y-121748756D01*
X90400000Y-121336279D01*
X90400000Y-120915721D01*
X90317953Y-120503244D01*
X90157012Y-120114698D01*
X89923363Y-119765017D01*
X89625983Y-119467637D01*
X89276302Y-119233988D01*
X88887756Y-119073047D01*
X88475279Y-118991000D01*
X88054721Y-118991000D01*
X87642244Y-119073047D01*
X87253698Y-119233988D01*
X86904017Y-119467637D01*
X86606637Y-119765017D01*
X86372988Y-120114698D01*
X86212047Y-120503244D01*
X86130000Y-120915721D01*
X76327000Y-120915721D01*
X76327000Y-112025721D01*
X81050000Y-112025721D01*
X81050000Y-112446279D01*
X81132047Y-112858756D01*
X81292988Y-113247302D01*
X81526637Y-113596983D01*
X81824017Y-113894363D01*
X82173698Y-114128012D01*
X82562244Y-114288953D01*
X82974721Y-114371000D01*
X83395279Y-114371000D01*
X83807756Y-114288953D01*
X84196302Y-114128012D01*
X84545983Y-113894363D01*
X84843363Y-113596983D01*
X85077012Y-113247302D01*
X85237953Y-112858756D01*
X85320000Y-112446279D01*
X85320000Y-112025721D01*
X85237953Y-111613244D01*
X85077012Y-111224698D01*
X84843363Y-110875017D01*
X84545983Y-110577637D01*
X84196302Y-110343988D01*
X83807756Y-110183047D01*
X83395279Y-110101000D01*
X82974721Y-110101000D01*
X82562244Y-110183047D01*
X82173698Y-110343988D01*
X81824017Y-110577637D01*
X81526637Y-110875017D01*
X81292988Y-111224698D01*
X81132047Y-111613244D01*
X81050000Y-112025721D01*
X76327000Y-112025721D01*
X76327000Y-107009652D01*
X79159100Y-107009652D01*
X79159100Y-107302348D01*
X79216202Y-107589421D01*
X79328212Y-107859838D01*
X79490826Y-108103206D01*
X79697794Y-108310174D01*
X79941162Y-108472788D01*
X80211579Y-108584798D01*
X80498652Y-108641900D01*
X80791348Y-108641900D01*
X81078421Y-108584798D01*
X81348838Y-108472788D01*
X81592206Y-108310174D01*
X81799174Y-108103206D01*
X81961788Y-107859838D01*
X82073798Y-107589421D01*
X82130900Y-107302348D01*
X82130900Y-107009652D01*
X82073798Y-106722579D01*
X81961788Y-106452162D01*
X81799174Y-106208794D01*
X81592206Y-106001826D01*
X81348838Y-105839212D01*
X81078421Y-105727202D01*
X80791348Y-105670100D01*
X80498652Y-105670100D01*
X80211579Y-105727202D01*
X79941162Y-105839212D01*
X79697794Y-106001826D01*
X79490826Y-106208794D01*
X79328212Y-106452162D01*
X79216202Y-106722579D01*
X79159100Y-107009652D01*
X76327000Y-107009652D01*
X76327000Y-99926961D01*
X82044300Y-99926961D01*
X82044300Y-100130839D01*
X82084074Y-100330798D01*
X82162095Y-100519156D01*
X82275363Y-100688674D01*
X82419526Y-100832837D01*
X82589044Y-100946105D01*
X82777402Y-101024126D01*
X82977361Y-101063900D01*
X83181239Y-101063900D01*
X83381198Y-101024126D01*
X83569556Y-100946105D01*
X83739074Y-100832837D01*
X83883237Y-100688674D01*
X83996505Y-100519156D01*
X84074526Y-100330798D01*
X84114300Y-100130839D01*
X84114300Y-99926961D01*
X84074526Y-99727002D01*
X83996505Y-99538644D01*
X83883237Y-99369126D01*
X83839300Y-99325189D01*
X83839300Y-99284101D01*
X88246300Y-94877102D01*
X88246301Y-106373312D01*
X88054701Y-105910749D01*
X87767000Y-105480174D01*
X87400826Y-105114000D01*
X86970251Y-104826299D01*
X86491822Y-104628127D01*
X85983924Y-104527100D01*
X85466076Y-104527100D01*
X84958178Y-104628127D01*
X84479749Y-104826299D01*
X84049174Y-105114000D01*
X83683000Y-105480174D01*
X83395299Y-105910749D01*
X83197127Y-106389178D01*
X83096100Y-106897076D01*
X83096100Y-107414924D01*
X83197127Y-107922822D01*
X83395299Y-108401251D01*
X83683000Y-108831826D01*
X84049174Y-109198000D01*
X84479749Y-109485701D01*
X84958178Y-109683873D01*
X85466076Y-109784900D01*
X85983924Y-109784900D01*
X86491822Y-109683873D01*
X86949700Y-109494213D01*
X86949701Y-115844868D01*
X86946024Y-115882200D01*
X86960698Y-116031185D01*
X87004154Y-116174446D01*
X87074726Y-116306476D01*
X87145901Y-116393202D01*
X87169700Y-116422201D01*
X87198698Y-116445999D01*
X87895700Y-117143002D01*
X87895700Y-117205139D01*
X87935474Y-117405098D01*
X88013495Y-117593456D01*
X88126763Y-117762974D01*
X88270926Y-117907137D01*
X88440444Y-118020405D01*
X88628802Y-118098426D01*
X88828761Y-118138200D01*
X89032639Y-118138200D01*
X89232598Y-118098426D01*
X89420956Y-118020405D01*
X89590474Y-117907137D01*
X89734637Y-117762974D01*
X89847905Y-117593456D01*
X89925926Y-117405098D01*
X89965700Y-117205139D01*
X89965700Y-117001261D01*
X89925926Y-116801302D01*
X89847905Y-116612944D01*
X89734637Y-116443426D01*
X89590474Y-116299263D01*
X89420956Y-116185995D01*
X89232598Y-116107974D01*
X89032639Y-116068200D01*
X88970502Y-116068200D01*
X88469700Y-115567399D01*
X88469700Y-111551932D01*
X88523698Y-111588012D01*
X88912244Y-111748953D01*
X89324721Y-111831000D01*
X89745279Y-111831000D01*
X90157756Y-111748953D01*
X90546302Y-111588012D01*
X90895983Y-111354363D01*
X91193363Y-111056983D01*
X91271900Y-110939444D01*
X91271901Y-124791070D01*
X91238421Y-124777202D01*
X90951348Y-124720100D01*
X90658652Y-124720100D01*
X90371579Y-124777202D01*
X90101162Y-124889212D01*
X89857794Y-125051826D01*
X89650826Y-125258794D01*
X89488212Y-125502162D01*
X89376202Y-125772579D01*
X89319100Y-126059652D01*
X89319100Y-126352348D01*
X89376202Y-126639421D01*
X89488212Y-126909838D01*
X89650826Y-127153206D01*
X89857794Y-127360174D01*
X90101162Y-127522788D01*
X90371579Y-127634798D01*
X90658652Y-127691900D01*
X90951348Y-127691900D01*
X91238421Y-127634798D01*
X91271901Y-127620930D01*
X91271901Y-132283997D01*
X89658998Y-133896901D01*
X89630000Y-133920699D01*
X89606203Y-133949696D01*
X89606201Y-133949698D01*
X89535026Y-134036424D01*
X89475425Y-134147928D01*
X89320000Y-134147928D01*
X89195518Y-134160188D01*
X89075820Y-134196498D01*
X88965506Y-134255463D01*
X88868815Y-134334815D01*
X88789463Y-134431506D01*
X88730498Y-134541820D01*
X88694188Y-134661518D01*
X88681928Y-134786000D01*
X88681928Y-136486000D01*
X88694188Y-136610482D01*
X88730498Y-136730180D01*
X88789463Y-136840494D01*
X88868815Y-136937185D01*
X88965506Y-137016537D01*
X89075820Y-137075502D01*
X89195518Y-137111812D01*
X89320000Y-137124072D01*
X91020000Y-137124072D01*
X91144482Y-137111812D01*
X91264180Y-137075502D01*
X91374494Y-137016537D01*
X91471185Y-136937185D01*
X91550537Y-136840494D01*
X91609502Y-136730180D01*
X91630393Y-136661313D01*
X91654866Y-136691134D01*
X91880986Y-136876706D01*
X92138966Y-137014599D01*
X92418889Y-137099513D01*
X92637050Y-137121000D01*
X92782950Y-137121000D01*
X93001111Y-137099513D01*
X93281034Y-137014599D01*
X93539014Y-136876706D01*
X93765134Y-136691134D01*
X93950706Y-136465014D01*
X93980000Y-136410209D01*
X94009294Y-136465014D01*
X94194866Y-136691134D01*
X94420986Y-136876706D01*
X94678966Y-137014599D01*
X94958889Y-137099513D01*
X95177050Y-137121000D01*
X95322950Y-137121000D01*
X95541111Y-137099513D01*
X95821034Y-137014599D01*
X96079014Y-136876706D01*
X96305134Y-136691134D01*
X96490706Y-136465014D01*
X96520000Y-136410209D01*
X96549294Y-136465014D01*
X96734866Y-136691134D01*
X96960986Y-136876706D01*
X97218966Y-137014599D01*
X97498889Y-137099513D01*
X97717050Y-137121000D01*
X97862950Y-137121000D01*
X98081111Y-137099513D01*
X98361034Y-137014599D01*
X98619014Y-136876706D01*
X98698500Y-136811473D01*
X98698500Y-138956898D01*
X96441399Y-141214000D01*
X96379261Y-141214000D01*
X96179302Y-141253774D01*
X95990944Y-141331795D01*
X95821426Y-141445063D01*
X95677263Y-141589226D01*
X95563995Y-141758744D01*
X95485974Y-141947102D01*
X95446200Y-142147061D01*
X95446200Y-142350939D01*
X95485974Y-142550898D01*
X95563995Y-142739256D01*
X95677263Y-142908774D01*
X95821426Y-143052937D01*
X95990944Y-143166205D01*
X96179302Y-143244226D01*
X96379261Y-143284000D01*
X96583139Y-143284000D01*
X96783098Y-143244226D01*
X96971456Y-143166205D01*
X97140974Y-143052937D01*
X97285137Y-142908774D01*
X97398405Y-142739256D01*
X97476426Y-142550898D01*
X97516200Y-142350939D01*
X97516200Y-142288801D01*
X99969504Y-139835498D01*
X99998501Y-139811701D01*
X100050625Y-139748188D01*
X100093474Y-139695977D01*
X100164046Y-139563947D01*
X100164046Y-139563946D01*
X100207503Y-139420686D01*
X100218500Y-139309033D01*
X100218500Y-139309024D01*
X100222176Y-139271701D01*
X100218500Y-139234378D01*
X100218500Y-128536123D01*
X100222176Y-128498800D01*
X100218500Y-128461477D01*
X100218500Y-128461467D01*
X100207503Y-128349814D01*
X100164046Y-128206553D01*
X100157322Y-128193974D01*
X100093474Y-128074523D01*
X100022299Y-127987797D01*
X99998501Y-127958799D01*
X99969503Y-127935001D01*
X99726402Y-127691900D01*
X99841348Y-127691900D01*
X100128421Y-127634798D01*
X100398838Y-127522788D01*
X100642206Y-127360174D01*
X100849174Y-127153206D01*
X101011788Y-126909838D01*
X101123798Y-126639421D01*
X101180900Y-126352348D01*
X101180900Y-126059652D01*
X101129451Y-125801000D01*
X101175279Y-125801000D01*
X101587756Y-125718953D01*
X101976302Y-125558012D01*
X102282708Y-125353279D01*
X102247127Y-125439178D01*
X102146100Y-125947076D01*
X102146100Y-126464924D01*
X102247127Y-126972822D01*
X102445299Y-127451251D01*
X102733000Y-127881826D01*
X103099174Y-128248000D01*
X103529749Y-128535701D01*
X104008178Y-128733873D01*
X104516076Y-128834900D01*
X105033924Y-128834900D01*
X105541822Y-128733873D01*
X106020251Y-128535701D01*
X106450826Y-128248000D01*
X106817000Y-127881826D01*
X107104701Y-127451251D01*
X107302873Y-126972822D01*
X107403900Y-126464924D01*
X107403900Y-126059652D01*
X108369100Y-126059652D01*
X108369100Y-126352348D01*
X108426202Y-126639421D01*
X108538212Y-126909838D01*
X108700826Y-127153206D01*
X108907794Y-127360174D01*
X109151162Y-127522788D01*
X109421579Y-127634798D01*
X109708652Y-127691900D01*
X110001348Y-127691900D01*
X110288421Y-127634798D01*
X110558838Y-127522788D01*
X110802206Y-127360174D01*
X111009174Y-127153206D01*
X111171788Y-126909838D01*
X111283798Y-126639421D01*
X111340900Y-126352348D01*
X111340900Y-126059652D01*
X111283798Y-125772579D01*
X111171788Y-125502162D01*
X111009174Y-125258794D01*
X110802206Y-125051826D01*
X110558838Y-124889212D01*
X110288421Y-124777202D01*
X110001348Y-124720100D01*
X109708652Y-124720100D01*
X109421579Y-124777202D01*
X109151162Y-124889212D01*
X108907794Y-125051826D01*
X108700826Y-125258794D01*
X108538212Y-125502162D01*
X108426202Y-125772579D01*
X108369100Y-126059652D01*
X107403900Y-126059652D01*
X107403900Y-125947076D01*
X107302873Y-125439178D01*
X107104701Y-124960749D01*
X106817000Y-124530174D01*
X106450826Y-124164000D01*
X106020251Y-123876299D01*
X105541822Y-123678127D01*
X105033924Y-123577100D01*
X104516076Y-123577100D01*
X104008178Y-123678127D01*
X103529749Y-123876299D01*
X103099174Y-124164000D01*
X103028763Y-124234411D01*
X103100000Y-123876279D01*
X103100000Y-123455721D01*
X103017953Y-123043244D01*
X102857012Y-122654698D01*
X102623363Y-122305017D01*
X102325983Y-122007637D01*
X101976302Y-121773988D01*
X101587756Y-121613047D01*
X101175279Y-121531000D01*
X100754721Y-121531000D01*
X100342244Y-121613047D01*
X99953698Y-121773988D01*
X99604017Y-122007637D01*
X99306637Y-122305017D01*
X99278700Y-122346828D01*
X99278700Y-120915721D01*
X105180000Y-120915721D01*
X105180000Y-121336279D01*
X105262047Y-121748756D01*
X105422988Y-122137302D01*
X105656637Y-122486983D01*
X105954017Y-122784363D01*
X106303698Y-123018012D01*
X106692244Y-123178953D01*
X107104721Y-123261000D01*
X107525279Y-123261000D01*
X107937756Y-123178953D01*
X108326302Y-123018012D01*
X108675983Y-122784363D01*
X108973363Y-122486983D01*
X109207012Y-122137302D01*
X109367953Y-121748756D01*
X109450000Y-121336279D01*
X109450000Y-120915721D01*
X109367953Y-120503244D01*
X109207012Y-120114698D01*
X108973363Y-119765017D01*
X108675983Y-119467637D01*
X108326302Y-119233988D01*
X107937756Y-119073047D01*
X107525279Y-118991000D01*
X107104721Y-118991000D01*
X106692244Y-119073047D01*
X106303698Y-119233988D01*
X105954017Y-119467637D01*
X105656637Y-119765017D01*
X105422988Y-120114698D01*
X105262047Y-120503244D01*
X105180000Y-120915721D01*
X99278700Y-120915721D01*
X99278700Y-108588204D01*
X99548652Y-108641900D01*
X99841348Y-108641900D01*
X100128421Y-108584798D01*
X100398838Y-108472788D01*
X100621031Y-108324322D01*
X100651554Y-108424946D01*
X100722126Y-108556976D01*
X100791822Y-108641900D01*
X100817100Y-108672701D01*
X100846098Y-108696499D01*
X102250599Y-110101000D01*
X102024721Y-110101000D01*
X101612244Y-110183047D01*
X101223698Y-110343988D01*
X100874017Y-110577637D01*
X100576637Y-110875017D01*
X100342988Y-111224698D01*
X100182047Y-111613244D01*
X100100000Y-112025721D01*
X100100000Y-112446279D01*
X100182047Y-112858756D01*
X100342988Y-113247302D01*
X100576637Y-113596983D01*
X100874017Y-113894363D01*
X101223698Y-114128012D01*
X101612244Y-114288953D01*
X102024721Y-114371000D01*
X102445279Y-114371000D01*
X102857756Y-114288953D01*
X103246302Y-114128012D01*
X103595983Y-113894363D01*
X103893363Y-113596983D01*
X104127012Y-113247302D01*
X104287953Y-112858756D01*
X104370000Y-112446279D01*
X104370000Y-112220401D01*
X111566500Y-119416902D01*
X111566501Y-140144388D01*
X111522563Y-140188326D01*
X111409295Y-140357844D01*
X111331274Y-140546202D01*
X111291500Y-140746161D01*
X111291500Y-140950039D01*
X111331274Y-141149998D01*
X111409295Y-141338356D01*
X111522563Y-141507874D01*
X111666726Y-141652037D01*
X111836244Y-141765305D01*
X112024602Y-141843326D01*
X112224561Y-141883100D01*
X112428439Y-141883100D01*
X112628398Y-141843326D01*
X112816756Y-141765305D01*
X112986274Y-141652037D01*
X113130437Y-141507874D01*
X113243705Y-141338356D01*
X113321726Y-141149998D01*
X113361500Y-140950039D01*
X113361500Y-140746161D01*
X113321726Y-140546202D01*
X113243705Y-140357844D01*
X113130437Y-140188326D01*
X113086500Y-140144389D01*
X113086500Y-126059652D01*
X117259100Y-126059652D01*
X117259100Y-126352348D01*
X117316202Y-126639421D01*
X117428212Y-126909838D01*
X117590826Y-127153206D01*
X117797794Y-127360174D01*
X118041162Y-127522788D01*
X118311579Y-127634798D01*
X118598652Y-127691900D01*
X118891348Y-127691900D01*
X119178421Y-127634798D01*
X119448838Y-127522788D01*
X119692206Y-127360174D01*
X119899174Y-127153206D01*
X120061788Y-126909838D01*
X120173798Y-126639421D01*
X120230900Y-126352348D01*
X120230900Y-126059652D01*
X120179451Y-125801000D01*
X120225279Y-125801000D01*
X120637756Y-125718953D01*
X121026302Y-125558012D01*
X121332708Y-125353279D01*
X121297127Y-125439178D01*
X121196100Y-125947076D01*
X121196100Y-126464924D01*
X121297127Y-126972822D01*
X121495299Y-127451251D01*
X121783000Y-127881826D01*
X122149174Y-128248000D01*
X122579749Y-128535701D01*
X123058178Y-128733873D01*
X123566076Y-128834900D01*
X124083924Y-128834900D01*
X124591822Y-128733873D01*
X125070251Y-128535701D01*
X125500826Y-128248000D01*
X125867000Y-127881826D01*
X126154701Y-127451251D01*
X126352873Y-126972822D01*
X126453900Y-126464924D01*
X126453900Y-126059652D01*
X127419100Y-126059652D01*
X127419100Y-126352348D01*
X127476202Y-126639421D01*
X127588212Y-126909838D01*
X127750826Y-127153206D01*
X127957794Y-127360174D01*
X128201162Y-127522788D01*
X128471579Y-127634798D01*
X128758652Y-127691900D01*
X129051348Y-127691900D01*
X129338421Y-127634798D01*
X129608838Y-127522788D01*
X129852206Y-127360174D01*
X130059174Y-127153206D01*
X130221788Y-126909838D01*
X130333798Y-126639421D01*
X130390900Y-126352348D01*
X130390900Y-126059652D01*
X136309100Y-126059652D01*
X136309100Y-126352348D01*
X136366202Y-126639421D01*
X136478212Y-126909838D01*
X136640826Y-127153206D01*
X136847794Y-127360174D01*
X137091162Y-127522788D01*
X137361579Y-127634798D01*
X137648652Y-127691900D01*
X137941348Y-127691900D01*
X138228421Y-127634798D01*
X138498838Y-127522788D01*
X138742206Y-127360174D01*
X138949174Y-127153206D01*
X139111788Y-126909838D01*
X139223798Y-126639421D01*
X139280900Y-126352348D01*
X139280900Y-126059652D01*
X139229451Y-125801000D01*
X139275279Y-125801000D01*
X139687756Y-125718953D01*
X140076302Y-125558012D01*
X140382708Y-125353279D01*
X140347127Y-125439178D01*
X140246100Y-125947076D01*
X140246100Y-126464924D01*
X140347127Y-126972822D01*
X140545299Y-127451251D01*
X140833000Y-127881826D01*
X141199174Y-128248000D01*
X141629749Y-128535701D01*
X142108178Y-128733873D01*
X142616076Y-128834900D01*
X143133924Y-128834900D01*
X143641822Y-128733873D01*
X144120251Y-128535701D01*
X144550826Y-128248000D01*
X144917000Y-127881826D01*
X145204701Y-127451251D01*
X145402873Y-126972822D01*
X145503900Y-126464924D01*
X145503900Y-126059652D01*
X146469100Y-126059652D01*
X146469100Y-126352348D01*
X146526202Y-126639421D01*
X146638212Y-126909838D01*
X146800826Y-127153206D01*
X147007794Y-127360174D01*
X147251162Y-127522788D01*
X147521579Y-127634798D01*
X147808652Y-127691900D01*
X148101348Y-127691900D01*
X148388421Y-127634798D01*
X148658838Y-127522788D01*
X148902206Y-127360174D01*
X149109174Y-127153206D01*
X149271788Y-126909838D01*
X149383798Y-126639421D01*
X149440900Y-126352348D01*
X149440900Y-126059652D01*
X149383798Y-125772579D01*
X149271788Y-125502162D01*
X149109174Y-125258794D01*
X148902206Y-125051826D01*
X148658838Y-124889212D01*
X148388421Y-124777202D01*
X148101348Y-124720100D01*
X147808652Y-124720100D01*
X147521579Y-124777202D01*
X147251162Y-124889212D01*
X147007794Y-125051826D01*
X146800826Y-125258794D01*
X146638212Y-125502162D01*
X146526202Y-125772579D01*
X146469100Y-126059652D01*
X145503900Y-126059652D01*
X145503900Y-125947076D01*
X145402873Y-125439178D01*
X145204701Y-124960749D01*
X144917000Y-124530174D01*
X144550826Y-124164000D01*
X144120251Y-123876299D01*
X143641822Y-123678127D01*
X143133924Y-123577100D01*
X142616076Y-123577100D01*
X142108178Y-123678127D01*
X141629749Y-123876299D01*
X141199174Y-124164000D01*
X141128763Y-124234411D01*
X141200000Y-123876279D01*
X141200000Y-123455721D01*
X141117953Y-123043244D01*
X140957012Y-122654698D01*
X140723363Y-122305017D01*
X140425983Y-122007637D01*
X140076302Y-121773988D01*
X139687756Y-121613047D01*
X139275279Y-121531000D01*
X138854721Y-121531000D01*
X138442244Y-121613047D01*
X138053698Y-121773988D01*
X137704017Y-122007637D01*
X137406637Y-122305017D01*
X137172988Y-122654698D01*
X137012047Y-123043244D01*
X136930000Y-123455721D01*
X136930000Y-123876279D01*
X137012047Y-124288756D01*
X137172988Y-124677302D01*
X137266150Y-124816730D01*
X137091162Y-124889212D01*
X136847794Y-125051826D01*
X136640826Y-125258794D01*
X136478212Y-125502162D01*
X136366202Y-125772579D01*
X136309100Y-126059652D01*
X130390900Y-126059652D01*
X130333798Y-125772579D01*
X130221788Y-125502162D01*
X130059174Y-125258794D01*
X129852206Y-125051826D01*
X129608838Y-124889212D01*
X129338421Y-124777202D01*
X129051348Y-124720100D01*
X128758652Y-124720100D01*
X128471579Y-124777202D01*
X128201162Y-124889212D01*
X127957794Y-125051826D01*
X127750826Y-125258794D01*
X127588212Y-125502162D01*
X127476202Y-125772579D01*
X127419100Y-126059652D01*
X126453900Y-126059652D01*
X126453900Y-125947076D01*
X126352873Y-125439178D01*
X126154701Y-124960749D01*
X125867000Y-124530174D01*
X125500826Y-124164000D01*
X125070251Y-123876299D01*
X124591822Y-123678127D01*
X124083924Y-123577100D01*
X123566076Y-123577100D01*
X123058178Y-123678127D01*
X122579749Y-123876299D01*
X122149174Y-124164000D01*
X122078763Y-124234411D01*
X122150000Y-123876279D01*
X122150000Y-123455721D01*
X122067953Y-123043244D01*
X121907012Y-122654698D01*
X121673363Y-122305017D01*
X121375983Y-122007637D01*
X121026302Y-121773988D01*
X120637756Y-121613047D01*
X120225279Y-121531000D01*
X119804721Y-121531000D01*
X119392244Y-121613047D01*
X119003698Y-121773988D01*
X118654017Y-122007637D01*
X118356637Y-122305017D01*
X118122988Y-122654698D01*
X117962047Y-123043244D01*
X117880000Y-123455721D01*
X117880000Y-123876279D01*
X117962047Y-124288756D01*
X118122988Y-124677302D01*
X118216150Y-124816730D01*
X118041162Y-124889212D01*
X117797794Y-125051826D01*
X117590826Y-125258794D01*
X117428212Y-125502162D01*
X117316202Y-125772579D01*
X117259100Y-126059652D01*
X113086500Y-126059652D01*
X113086500Y-120915721D01*
X124230000Y-120915721D01*
X124230000Y-121336279D01*
X124312047Y-121748756D01*
X124472988Y-122137302D01*
X124706637Y-122486983D01*
X125004017Y-122784363D01*
X125353698Y-123018012D01*
X125742244Y-123178953D01*
X126154721Y-123261000D01*
X126575279Y-123261000D01*
X126987756Y-123178953D01*
X127376302Y-123018012D01*
X127725983Y-122784363D01*
X128023363Y-122486983D01*
X128257012Y-122137302D01*
X128417953Y-121748756D01*
X128500000Y-121336279D01*
X128500000Y-120915721D01*
X143280000Y-120915721D01*
X143280000Y-121336279D01*
X143362047Y-121748756D01*
X143522988Y-122137302D01*
X143756637Y-122486983D01*
X144054017Y-122784363D01*
X144403698Y-123018012D01*
X144792244Y-123178953D01*
X145204721Y-123261000D01*
X145625279Y-123261000D01*
X146037756Y-123178953D01*
X146426302Y-123018012D01*
X146775983Y-122784363D01*
X147073363Y-122486983D01*
X147307012Y-122137302D01*
X147467953Y-121748756D01*
X147550000Y-121336279D01*
X147550000Y-120915721D01*
X147467953Y-120503244D01*
X147307012Y-120114698D01*
X147073363Y-119765017D01*
X146775983Y-119467637D01*
X146426302Y-119233988D01*
X146037756Y-119073047D01*
X145625279Y-118991000D01*
X145204721Y-118991000D01*
X144792244Y-119073047D01*
X144403698Y-119233988D01*
X144054017Y-119467637D01*
X143756637Y-119765017D01*
X143522988Y-120114698D01*
X143362047Y-120503244D01*
X143280000Y-120915721D01*
X128500000Y-120915721D01*
X128417953Y-120503244D01*
X128257012Y-120114698D01*
X128023363Y-119765017D01*
X127725983Y-119467637D01*
X127376302Y-119233988D01*
X126987756Y-119073047D01*
X126575279Y-118991000D01*
X126154721Y-118991000D01*
X125742244Y-119073047D01*
X125353698Y-119233988D01*
X125004017Y-119467637D01*
X124706637Y-119765017D01*
X124472988Y-120114698D01*
X124312047Y-120503244D01*
X124230000Y-120915721D01*
X113086500Y-120915721D01*
X113086500Y-119139422D01*
X113090176Y-119102099D01*
X113086500Y-119064776D01*
X113086500Y-119064767D01*
X113075503Y-118953114D01*
X113032046Y-118809853D01*
X112961474Y-118677824D01*
X112866501Y-118562099D01*
X112837504Y-118538302D01*
X106324923Y-112025721D01*
X119150000Y-112025721D01*
X119150000Y-112446279D01*
X119232047Y-112858756D01*
X119392988Y-113247302D01*
X119626637Y-113596983D01*
X119924017Y-113894363D01*
X120273698Y-114128012D01*
X120662244Y-114288953D01*
X121074721Y-114371000D01*
X121495279Y-114371000D01*
X121907756Y-114288953D01*
X122296302Y-114128012D01*
X122645983Y-113894363D01*
X122943363Y-113596983D01*
X123177012Y-113247302D01*
X123337953Y-112858756D01*
X123420000Y-112446279D01*
X123420000Y-112025721D01*
X138200000Y-112025721D01*
X138200000Y-112446279D01*
X138282047Y-112858756D01*
X138442988Y-113247302D01*
X138676637Y-113596983D01*
X138974017Y-113894363D01*
X139323698Y-114128012D01*
X139712244Y-114288953D01*
X140124721Y-114371000D01*
X140545279Y-114371000D01*
X140957756Y-114288953D01*
X141346302Y-114128012D01*
X141695983Y-113894363D01*
X141993363Y-113596983D01*
X142227012Y-113247302D01*
X142387953Y-112858756D01*
X142470000Y-112446279D01*
X142470000Y-112025721D01*
X142387953Y-111613244D01*
X142227012Y-111224698D01*
X141993363Y-110875017D01*
X141695983Y-110577637D01*
X141346302Y-110343988D01*
X140957756Y-110183047D01*
X140545279Y-110101000D01*
X140124721Y-110101000D01*
X139712244Y-110183047D01*
X139323698Y-110343988D01*
X138974017Y-110577637D01*
X138676637Y-110875017D01*
X138442988Y-111224698D01*
X138282047Y-111613244D01*
X138200000Y-112025721D01*
X123420000Y-112025721D01*
X123337953Y-111613244D01*
X123177012Y-111224698D01*
X122943363Y-110875017D01*
X122645983Y-110577637D01*
X122296302Y-110343988D01*
X121907756Y-110183047D01*
X121495279Y-110101000D01*
X121074721Y-110101000D01*
X120662244Y-110183047D01*
X120273698Y-110343988D01*
X119924017Y-110577637D01*
X119626637Y-110875017D01*
X119392988Y-111224698D01*
X119232047Y-111613244D01*
X119150000Y-112025721D01*
X106324923Y-112025721D01*
X103965323Y-109666122D01*
X104008178Y-109683873D01*
X104516076Y-109784900D01*
X105033924Y-109784900D01*
X105541822Y-109683873D01*
X106020251Y-109485701D01*
X106450826Y-109198000D01*
X106521237Y-109127589D01*
X106450000Y-109485721D01*
X106450000Y-109906279D01*
X106532047Y-110318756D01*
X106692988Y-110707302D01*
X106926637Y-111056983D01*
X107224017Y-111354363D01*
X107573698Y-111588012D01*
X107962244Y-111748953D01*
X108374721Y-111831000D01*
X108795279Y-111831000D01*
X109207756Y-111748953D01*
X109596302Y-111588012D01*
X109945983Y-111354363D01*
X110243363Y-111056983D01*
X110477012Y-110707302D01*
X110637953Y-110318756D01*
X110720000Y-109906279D01*
X110720000Y-109485721D01*
X110637953Y-109073244D01*
X110477012Y-108684698D01*
X110383850Y-108545270D01*
X110558838Y-108472788D01*
X110802206Y-108310174D01*
X111009174Y-108103206D01*
X111171788Y-107859838D01*
X111283798Y-107589421D01*
X111340900Y-107302348D01*
X111340900Y-107009652D01*
X111283798Y-106722579D01*
X111171788Y-106452162D01*
X111009174Y-106208794D01*
X110802206Y-106001826D01*
X110558838Y-105839212D01*
X110288421Y-105727202D01*
X110001348Y-105670100D01*
X109708652Y-105670100D01*
X109421579Y-105727202D01*
X109151162Y-105839212D01*
X108907794Y-106001826D01*
X108700826Y-106208794D01*
X108538212Y-106452162D01*
X108426202Y-106722579D01*
X108369100Y-107009652D01*
X108369100Y-107302348D01*
X108420549Y-107561000D01*
X108374721Y-107561000D01*
X107962244Y-107643047D01*
X107573698Y-107803988D01*
X107267292Y-108008721D01*
X107302873Y-107922822D01*
X107403900Y-107414924D01*
X107403900Y-106897076D01*
X107302873Y-106389178D01*
X107104701Y-105910749D01*
X106817000Y-105480174D01*
X106450826Y-105114000D01*
X106020251Y-104826299D01*
X105541822Y-104628127D01*
X105033924Y-104527100D01*
X104516076Y-104527100D01*
X104008178Y-104628127D01*
X103529749Y-104826299D01*
X103099174Y-105114000D01*
X102733000Y-105480174D01*
X102445299Y-105910749D01*
X102247127Y-106389178D01*
X102146100Y-106897076D01*
X102146100Y-107414924D01*
X102247127Y-107922822D01*
X102264878Y-107965677D01*
X102117100Y-107817899D01*
X102117100Y-103418711D01*
X102161037Y-103374774D01*
X102274305Y-103205256D01*
X102352326Y-103016898D01*
X102392100Y-102816939D01*
X102392100Y-102613061D01*
X102352326Y-102413102D01*
X102274305Y-102224744D01*
X102161037Y-102055226D01*
X102016874Y-101911063D01*
X101847356Y-101797795D01*
X101658998Y-101719774D01*
X101459039Y-101680000D01*
X101255161Y-101680000D01*
X101055202Y-101719774D01*
X100866844Y-101797795D01*
X100697326Y-101911063D01*
X100553163Y-102055226D01*
X100439895Y-102224744D01*
X100361874Y-102413102D01*
X100322100Y-102613061D01*
X100322100Y-102816939D01*
X100361874Y-103016898D01*
X100439895Y-103205256D01*
X100553163Y-103374774D01*
X100597100Y-103418711D01*
X100597101Y-105971687D01*
X100398838Y-105839212D01*
X100128421Y-105727202D01*
X99841348Y-105670100D01*
X99548652Y-105670100D01*
X99278700Y-105723796D01*
X99278700Y-102025000D01*
X99315539Y-102025000D01*
X99515498Y-101985226D01*
X99703856Y-101907205D01*
X99873374Y-101793937D01*
X100017537Y-101649774D01*
X100130805Y-101480256D01*
X100208826Y-101291898D01*
X100248600Y-101091939D01*
X100248600Y-100888061D01*
X100208826Y-100688102D01*
X100130805Y-100499744D01*
X100017537Y-100330226D01*
X99873374Y-100186063D01*
X99703856Y-100072795D01*
X99657859Y-100053742D01*
X105979602Y-93732000D01*
X111081378Y-93732000D01*
X111118700Y-93735676D01*
X111156022Y-93732000D01*
X111156033Y-93732000D01*
X111267686Y-93721003D01*
X111410947Y-93677546D01*
X111542976Y-93606974D01*
X111658701Y-93512001D01*
X111682503Y-93482998D01*
X112267904Y-92897598D01*
X112296901Y-92873801D01*
X112362085Y-92794374D01*
X112391874Y-92758077D01*
X112462446Y-92626047D01*
X112471052Y-92597676D01*
X112505903Y-92482786D01*
X112516900Y-92371133D01*
X112516900Y-92371124D01*
X112520576Y-92333801D01*
X112516900Y-92296478D01*
X112516900Y-90864801D01*
X117880000Y-85501701D01*
X117880000Y-85776479D01*
X117962047Y-86188956D01*
X118122988Y-86577502D01*
X118216150Y-86716930D01*
X118041162Y-86789412D01*
X117797794Y-86952026D01*
X117590826Y-87158994D01*
X117428212Y-87402362D01*
X117316202Y-87672779D01*
X117259100Y-87959852D01*
X117259100Y-88252548D01*
X117316202Y-88539621D01*
X117428212Y-88810038D01*
X117461796Y-88860300D01*
X117366461Y-88860300D01*
X117166502Y-88900074D01*
X116978144Y-88978095D01*
X116808626Y-89091363D01*
X116664463Y-89235526D01*
X116551195Y-89405044D01*
X116473174Y-89593402D01*
X116433400Y-89793361D01*
X116433400Y-89997239D01*
X116473174Y-90197198D01*
X116551195Y-90385556D01*
X116664463Y-90555074D01*
X116708401Y-90599012D01*
X116708400Y-109656489D01*
X116664463Y-109700426D01*
X116551195Y-109869944D01*
X116473174Y-110058302D01*
X116433400Y-110258261D01*
X116433400Y-110462139D01*
X116473174Y-110662098D01*
X116551195Y-110850456D01*
X116664463Y-111019974D01*
X116808626Y-111164137D01*
X116978144Y-111277405D01*
X117166502Y-111355426D01*
X117366461Y-111395200D01*
X117570339Y-111395200D01*
X117770298Y-111355426D01*
X117958656Y-111277405D01*
X118128174Y-111164137D01*
X118272337Y-111019974D01*
X118385605Y-110850456D01*
X118463626Y-110662098D01*
X118503400Y-110462139D01*
X118503400Y-110258261D01*
X118463626Y-110058302D01*
X118385605Y-109869944D01*
X118272337Y-109700426D01*
X118228400Y-109656489D01*
X118228400Y-108550344D01*
X118311579Y-108584798D01*
X118598652Y-108641900D01*
X118891348Y-108641900D01*
X119178421Y-108584798D01*
X119448838Y-108472788D01*
X119692206Y-108310174D01*
X119899174Y-108103206D01*
X120061788Y-107859838D01*
X120173798Y-107589421D01*
X120230900Y-107302348D01*
X120230900Y-107009652D01*
X120208508Y-106897076D01*
X121196100Y-106897076D01*
X121196100Y-107414924D01*
X121297127Y-107922822D01*
X121495299Y-108401251D01*
X121783000Y-108831826D01*
X122149174Y-109198000D01*
X122579749Y-109485701D01*
X123058178Y-109683873D01*
X123566076Y-109784900D01*
X124083924Y-109784900D01*
X124591822Y-109683873D01*
X125070251Y-109485701D01*
X125500826Y-109198000D01*
X125571237Y-109127589D01*
X125500000Y-109485721D01*
X125500000Y-109906279D01*
X125582047Y-110318756D01*
X125742988Y-110707302D01*
X125976637Y-111056983D01*
X126274017Y-111354363D01*
X126623698Y-111588012D01*
X127012244Y-111748953D01*
X127424721Y-111831000D01*
X127845279Y-111831000D01*
X128257756Y-111748953D01*
X128646302Y-111588012D01*
X128995983Y-111354363D01*
X129293363Y-111056983D01*
X129527012Y-110707302D01*
X129687953Y-110318756D01*
X129770000Y-109906279D01*
X129770000Y-109485721D01*
X129687953Y-109073244D01*
X129527012Y-108684698D01*
X129433850Y-108545270D01*
X129608838Y-108472788D01*
X129852206Y-108310174D01*
X130059174Y-108103206D01*
X130221788Y-107859838D01*
X130333798Y-107589421D01*
X130390900Y-107302348D01*
X130390900Y-107009652D01*
X136309100Y-107009652D01*
X136309100Y-107302348D01*
X136366202Y-107589421D01*
X136478212Y-107859838D01*
X136640826Y-108103206D01*
X136847794Y-108310174D01*
X137091162Y-108472788D01*
X137361579Y-108584798D01*
X137648652Y-108641900D01*
X137941348Y-108641900D01*
X138228421Y-108584798D01*
X138498838Y-108472788D01*
X138742206Y-108310174D01*
X138949174Y-108103206D01*
X139111788Y-107859838D01*
X139223798Y-107589421D01*
X139280900Y-107302348D01*
X139280900Y-107009652D01*
X139258508Y-106897076D01*
X140246100Y-106897076D01*
X140246100Y-107414924D01*
X140347127Y-107922822D01*
X140545299Y-108401251D01*
X140833000Y-108831826D01*
X141199174Y-109198000D01*
X141629749Y-109485701D01*
X142108178Y-109683873D01*
X142616076Y-109784900D01*
X143133924Y-109784900D01*
X143641822Y-109683873D01*
X144120251Y-109485701D01*
X144550826Y-109198000D01*
X144621237Y-109127589D01*
X144550000Y-109485721D01*
X144550000Y-109906279D01*
X144632047Y-110318756D01*
X144792988Y-110707302D01*
X145026637Y-111056983D01*
X145324017Y-111354363D01*
X145673698Y-111588012D01*
X146062244Y-111748953D01*
X146474721Y-111831000D01*
X146895279Y-111831000D01*
X147307756Y-111748953D01*
X147696302Y-111588012D01*
X148045983Y-111354363D01*
X148343363Y-111056983D01*
X148577012Y-110707302D01*
X148737953Y-110318756D01*
X148820000Y-109906279D01*
X148820000Y-109485721D01*
X148737953Y-109073244D01*
X148577012Y-108684698D01*
X148483850Y-108545270D01*
X148658838Y-108472788D01*
X148902206Y-108310174D01*
X149109174Y-108103206D01*
X149271788Y-107859838D01*
X149383798Y-107589421D01*
X149440900Y-107302348D01*
X149440900Y-107009652D01*
X149383798Y-106722579D01*
X149271788Y-106452162D01*
X149109174Y-106208794D01*
X148902206Y-106001826D01*
X148658838Y-105839212D01*
X148388421Y-105727202D01*
X148101348Y-105670100D01*
X147808652Y-105670100D01*
X147521579Y-105727202D01*
X147251162Y-105839212D01*
X147007794Y-106001826D01*
X146800826Y-106208794D01*
X146638212Y-106452162D01*
X146526202Y-106722579D01*
X146469100Y-107009652D01*
X146469100Y-107302348D01*
X146520549Y-107561000D01*
X146474721Y-107561000D01*
X146062244Y-107643047D01*
X145673698Y-107803988D01*
X145367292Y-108008721D01*
X145402873Y-107922822D01*
X145503900Y-107414924D01*
X145503900Y-106897076D01*
X145402873Y-106389178D01*
X145204701Y-105910749D01*
X144917000Y-105480174D01*
X144550826Y-105114000D01*
X144120251Y-104826299D01*
X143641822Y-104628127D01*
X143133924Y-104527100D01*
X142616076Y-104527100D01*
X142108178Y-104628127D01*
X141629749Y-104826299D01*
X141199174Y-105114000D01*
X140833000Y-105480174D01*
X140545299Y-105910749D01*
X140347127Y-106389178D01*
X140246100Y-106897076D01*
X139258508Y-106897076D01*
X139223798Y-106722579D01*
X139111788Y-106452162D01*
X138949174Y-106208794D01*
X138742206Y-106001826D01*
X138498838Y-105839212D01*
X138228421Y-105727202D01*
X137941348Y-105670100D01*
X137648652Y-105670100D01*
X137361579Y-105727202D01*
X137091162Y-105839212D01*
X136847794Y-106001826D01*
X136640826Y-106208794D01*
X136478212Y-106452162D01*
X136366202Y-106722579D01*
X136309100Y-107009652D01*
X130390900Y-107009652D01*
X130333798Y-106722579D01*
X130221788Y-106452162D01*
X130059174Y-106208794D01*
X129852206Y-106001826D01*
X129608838Y-105839212D01*
X129338421Y-105727202D01*
X129051348Y-105670100D01*
X128758652Y-105670100D01*
X128471579Y-105727202D01*
X128201162Y-105839212D01*
X127957794Y-106001826D01*
X127750826Y-106208794D01*
X127588212Y-106452162D01*
X127476202Y-106722579D01*
X127419100Y-107009652D01*
X127419100Y-107302348D01*
X127470549Y-107561000D01*
X127424721Y-107561000D01*
X127012244Y-107643047D01*
X126623698Y-107803988D01*
X126317292Y-108008721D01*
X126352873Y-107922822D01*
X126453900Y-107414924D01*
X126453900Y-106897076D01*
X126352873Y-106389178D01*
X126154701Y-105910749D01*
X125867000Y-105480174D01*
X125500826Y-105114000D01*
X125070251Y-104826299D01*
X124591822Y-104628127D01*
X124083924Y-104527100D01*
X123566076Y-104527100D01*
X123058178Y-104628127D01*
X122579749Y-104826299D01*
X122149174Y-105114000D01*
X121783000Y-105480174D01*
X121495299Y-105910749D01*
X121297127Y-106389178D01*
X121196100Y-106897076D01*
X120208508Y-106897076D01*
X120173798Y-106722579D01*
X120061788Y-106452162D01*
X119899174Y-106208794D01*
X119692206Y-106001826D01*
X119448838Y-105839212D01*
X119178421Y-105727202D01*
X118891348Y-105670100D01*
X118598652Y-105670100D01*
X118311579Y-105727202D01*
X118228400Y-105761656D01*
X118228400Y-90599011D01*
X118272337Y-90555074D01*
X118385605Y-90385556D01*
X118463626Y-90197198D01*
X118503400Y-89997239D01*
X118503400Y-89793361D01*
X118463626Y-89593402D01*
X118450914Y-89562713D01*
X118598652Y-89592100D01*
X118891348Y-89592100D01*
X119178421Y-89534998D01*
X119448838Y-89422988D01*
X119692206Y-89260374D01*
X119899174Y-89053406D01*
X120061788Y-88810038D01*
X120173798Y-88539621D01*
X120230900Y-88252548D01*
X120230900Y-87959852D01*
X120179451Y-87701200D01*
X120225279Y-87701200D01*
X120637756Y-87619153D01*
X121026302Y-87458212D01*
X121332708Y-87253479D01*
X121297127Y-87339378D01*
X121196100Y-87847276D01*
X121196100Y-88365124D01*
X121297127Y-88873022D01*
X121495299Y-89351451D01*
X121783000Y-89782026D01*
X122149174Y-90148200D01*
X122579749Y-90435901D01*
X123058178Y-90634073D01*
X123428721Y-90707778D01*
X123337499Y-90799000D01*
X123275361Y-90799000D01*
X123075402Y-90838774D01*
X122887044Y-90916795D01*
X122717526Y-91030063D01*
X122573363Y-91174226D01*
X122460095Y-91343744D01*
X122382074Y-91532102D01*
X122342300Y-91732061D01*
X122342300Y-91935939D01*
X122382074Y-92135898D01*
X122460095Y-92324256D01*
X122573363Y-92493774D01*
X122717526Y-92637937D01*
X122887044Y-92751205D01*
X123075402Y-92829226D01*
X123275361Y-92869000D01*
X123479239Y-92869000D01*
X123679198Y-92829226D01*
X123867556Y-92751205D01*
X124037074Y-92637937D01*
X124181237Y-92493774D01*
X124294505Y-92324256D01*
X124372526Y-92135898D01*
X124412300Y-91935939D01*
X124412300Y-91873801D01*
X127555364Y-88730737D01*
X127588212Y-88810038D01*
X127750826Y-89053406D01*
X127957794Y-89260374D01*
X128201162Y-89422988D01*
X128471579Y-89534998D01*
X128758652Y-89592100D01*
X129051348Y-89592100D01*
X129338421Y-89534998D01*
X129608838Y-89422988D01*
X129852206Y-89260374D01*
X130059174Y-89053406D01*
X130221788Y-88810038D01*
X130333798Y-88539621D01*
X130390900Y-88252548D01*
X130390900Y-87959852D01*
X136309100Y-87959852D01*
X136309100Y-88252548D01*
X136366202Y-88539621D01*
X136478212Y-88810038D01*
X136640826Y-89053406D01*
X136847794Y-89260374D01*
X137091162Y-89422988D01*
X137361579Y-89534998D01*
X137648652Y-89592100D01*
X137941348Y-89592100D01*
X138228421Y-89534998D01*
X138498838Y-89422988D01*
X138742206Y-89260374D01*
X138949174Y-89053406D01*
X139111788Y-88810038D01*
X139223798Y-88539621D01*
X139280900Y-88252548D01*
X139280900Y-87959852D01*
X139229451Y-87701200D01*
X139275279Y-87701200D01*
X139687756Y-87619153D01*
X140076302Y-87458212D01*
X140382708Y-87253479D01*
X140347127Y-87339378D01*
X140246100Y-87847276D01*
X140246100Y-88365124D01*
X140347127Y-88873022D01*
X140545299Y-89351451D01*
X140833000Y-89782026D01*
X141199174Y-90148200D01*
X141629749Y-90435901D01*
X142108178Y-90634073D01*
X142616076Y-90735100D01*
X143133924Y-90735100D01*
X143641822Y-90634073D01*
X144120251Y-90435901D01*
X144550826Y-90148200D01*
X144917000Y-89782026D01*
X145204701Y-89351451D01*
X145402873Y-88873022D01*
X145503900Y-88365124D01*
X145503900Y-87959852D01*
X146469100Y-87959852D01*
X146469100Y-88252548D01*
X146526202Y-88539621D01*
X146638212Y-88810038D01*
X146800826Y-89053406D01*
X147007794Y-89260374D01*
X147251162Y-89422988D01*
X147521579Y-89534998D01*
X147808652Y-89592100D01*
X148101348Y-89592100D01*
X148388421Y-89534998D01*
X148658838Y-89422988D01*
X148902206Y-89260374D01*
X149109174Y-89053406D01*
X149271788Y-88810038D01*
X149383798Y-88539621D01*
X149440900Y-88252548D01*
X149440900Y-87959852D01*
X149383798Y-87672779D01*
X149271788Y-87402362D01*
X149109174Y-87158994D01*
X148902206Y-86952026D01*
X148658838Y-86789412D01*
X148388421Y-86677402D01*
X148101348Y-86620300D01*
X147808652Y-86620300D01*
X147521579Y-86677402D01*
X147251162Y-86789412D01*
X147007794Y-86952026D01*
X146800826Y-87158994D01*
X146638212Y-87402362D01*
X146526202Y-87672779D01*
X146469100Y-87959852D01*
X145503900Y-87959852D01*
X145503900Y-87847276D01*
X145402873Y-87339378D01*
X145204701Y-86860949D01*
X144917000Y-86430374D01*
X144550826Y-86064200D01*
X144120251Y-85776499D01*
X143641822Y-85578327D01*
X143133924Y-85477300D01*
X142616076Y-85477300D01*
X142108178Y-85578327D01*
X141629749Y-85776499D01*
X141199174Y-86064200D01*
X141128763Y-86134611D01*
X141200000Y-85776479D01*
X141200000Y-85355921D01*
X141117953Y-84943444D01*
X140957012Y-84554898D01*
X140723363Y-84205217D01*
X140425983Y-83907837D01*
X140076302Y-83674188D01*
X139687756Y-83513247D01*
X139275279Y-83431200D01*
X138854721Y-83431200D01*
X138442244Y-83513247D01*
X138053698Y-83674188D01*
X137704017Y-83907837D01*
X137406637Y-84205217D01*
X137172988Y-84554898D01*
X137012047Y-84943444D01*
X136930000Y-85355921D01*
X136930000Y-85776479D01*
X137012047Y-86188956D01*
X137172988Y-86577502D01*
X137266150Y-86716930D01*
X137091162Y-86789412D01*
X136847794Y-86952026D01*
X136640826Y-87158994D01*
X136478212Y-87402362D01*
X136366202Y-87672779D01*
X136309100Y-87959852D01*
X130390900Y-87959852D01*
X130333798Y-87672779D01*
X130221788Y-87402362D01*
X130059174Y-87158994D01*
X129852206Y-86952026D01*
X129608838Y-86789412D01*
X129529537Y-86756565D01*
X133470181Y-82815921D01*
X143280000Y-82815921D01*
X143280000Y-83236479D01*
X143362047Y-83648956D01*
X143522988Y-84037502D01*
X143756637Y-84387183D01*
X144054017Y-84684563D01*
X144403698Y-84918212D01*
X144792244Y-85079153D01*
X145204721Y-85161200D01*
X145625279Y-85161200D01*
X146037756Y-85079153D01*
X146426302Y-84918212D01*
X146775983Y-84684563D01*
X147073363Y-84387183D01*
X147307012Y-84037502D01*
X147467953Y-83648956D01*
X147550000Y-83236479D01*
X147550000Y-82815921D01*
X147467953Y-82403444D01*
X147307012Y-82014898D01*
X147073363Y-81665217D01*
X146775983Y-81367837D01*
X146426302Y-81134188D01*
X146037756Y-80973247D01*
X145625279Y-80891200D01*
X145204721Y-80891200D01*
X144792244Y-80973247D01*
X144403698Y-81134188D01*
X144054017Y-81367837D01*
X143756637Y-81665217D01*
X143522988Y-82014898D01*
X143362047Y-82403444D01*
X143280000Y-82815921D01*
X133470181Y-82815921D01*
X137059903Y-79226199D01*
X137088901Y-79202401D01*
X137183874Y-79086676D01*
X137254446Y-78954647D01*
X137297903Y-78811386D01*
X137308900Y-78699733D01*
X137308900Y-78699724D01*
X137312576Y-78662401D01*
X137308900Y-78625078D01*
X137308900Y-73925921D01*
X138200000Y-73925921D01*
X138200000Y-74346479D01*
X138282047Y-74758956D01*
X138442988Y-75147502D01*
X138676637Y-75497183D01*
X138974017Y-75794563D01*
X139323698Y-76028212D01*
X139712244Y-76189153D01*
X140124721Y-76271200D01*
X140545279Y-76271200D01*
X140957756Y-76189153D01*
X141346302Y-76028212D01*
X141695983Y-75794563D01*
X141993363Y-75497183D01*
X142227012Y-75147502D01*
X142387953Y-74758956D01*
X142470000Y-74346479D01*
X142470000Y-73925921D01*
X142387953Y-73513444D01*
X142227012Y-73124898D01*
X141993363Y-72775217D01*
X141695983Y-72477837D01*
X141346302Y-72244188D01*
X140957756Y-72083247D01*
X140545279Y-72001200D01*
X140124721Y-72001200D01*
X139712244Y-72083247D01*
X139323698Y-72244188D01*
X138974017Y-72477837D01*
X138676637Y-72775217D01*
X138442988Y-73124898D01*
X138282047Y-73513444D01*
X138200000Y-73925921D01*
X137308900Y-73925921D01*
X137308900Y-70463178D01*
X137361579Y-70484998D01*
X137648652Y-70542100D01*
X137941348Y-70542100D01*
X138228421Y-70484998D01*
X138498838Y-70372988D01*
X138742206Y-70210374D01*
X138949174Y-70003406D01*
X139111788Y-69760038D01*
X139223798Y-69489621D01*
X139280900Y-69202548D01*
X139280900Y-68909852D01*
X139258508Y-68797276D01*
X140246100Y-68797276D01*
X140246100Y-69315124D01*
X140347127Y-69823022D01*
X140545299Y-70301451D01*
X140833000Y-70732026D01*
X141199174Y-71098200D01*
X141629749Y-71385901D01*
X142108178Y-71584073D01*
X142616076Y-71685100D01*
X143133924Y-71685100D01*
X143641822Y-71584073D01*
X144120251Y-71385901D01*
X144550826Y-71098200D01*
X144621237Y-71027789D01*
X144550000Y-71385921D01*
X144550000Y-71806479D01*
X144632047Y-72218956D01*
X144792988Y-72607502D01*
X145026637Y-72957183D01*
X145324017Y-73254563D01*
X145673698Y-73488212D01*
X146062244Y-73649153D01*
X146474721Y-73731200D01*
X146895279Y-73731200D01*
X147307756Y-73649153D01*
X147696302Y-73488212D01*
X148045983Y-73254563D01*
X148343363Y-72957183D01*
X148577012Y-72607502D01*
X148737953Y-72218956D01*
X148820000Y-71806479D01*
X148820000Y-71385921D01*
X148737953Y-70973444D01*
X148577012Y-70584898D01*
X148483850Y-70445470D01*
X148658838Y-70372988D01*
X148902206Y-70210374D01*
X149109174Y-70003406D01*
X149271788Y-69760038D01*
X149383798Y-69489621D01*
X149440900Y-69202548D01*
X149440900Y-68909852D01*
X149383798Y-68622779D01*
X149271788Y-68352362D01*
X149109174Y-68108994D01*
X148902206Y-67902026D01*
X148658838Y-67739412D01*
X148388421Y-67627402D01*
X148101348Y-67570300D01*
X147808652Y-67570300D01*
X147521579Y-67627402D01*
X147251162Y-67739412D01*
X147007794Y-67902026D01*
X146800826Y-68108994D01*
X146638212Y-68352362D01*
X146526202Y-68622779D01*
X146469100Y-68909852D01*
X146469100Y-69202548D01*
X146520549Y-69461200D01*
X146474721Y-69461200D01*
X146062244Y-69543247D01*
X145673698Y-69704188D01*
X145367292Y-69908921D01*
X145402873Y-69823022D01*
X145503900Y-69315124D01*
X145503900Y-68797276D01*
X145402873Y-68289378D01*
X145204701Y-67810949D01*
X144917000Y-67380374D01*
X144550826Y-67014200D01*
X144120251Y-66726499D01*
X143641822Y-66528327D01*
X143133924Y-66427300D01*
X142616076Y-66427300D01*
X142108178Y-66528327D01*
X141629749Y-66726499D01*
X141199174Y-67014200D01*
X140833000Y-67380374D01*
X140545299Y-67810949D01*
X140347127Y-68289378D01*
X140246100Y-68797276D01*
X139258508Y-68797276D01*
X139223798Y-68622779D01*
X139111788Y-68352362D01*
X138949174Y-68108994D01*
X138742206Y-67902026D01*
X138498838Y-67739412D01*
X138475964Y-67729937D01*
X140770602Y-65435300D01*
X140932667Y-65435300D01*
X140970000Y-65438977D01*
X141118986Y-65424303D01*
X141262247Y-65380846D01*
X141394276Y-65310274D01*
X141510001Y-65215301D01*
X141604974Y-65099576D01*
X141664575Y-64988072D01*
X141820000Y-64988072D01*
X141944482Y-64975812D01*
X142064180Y-64939502D01*
X142174494Y-64880537D01*
X142271185Y-64801185D01*
X142350537Y-64704494D01*
X142409502Y-64594180D01*
X142430393Y-64525313D01*
X142454866Y-64555134D01*
X142680986Y-64740706D01*
X142938966Y-64878599D01*
X143218889Y-64963513D01*
X143437050Y-64985000D01*
X143582950Y-64985000D01*
X143801111Y-64963513D01*
X144081034Y-64878599D01*
X144339014Y-64740706D01*
X144565134Y-64555134D01*
X144750706Y-64329014D01*
X144785201Y-64264477D01*
X144854822Y-64381355D01*
X145049731Y-64597588D01*
X145283080Y-64771641D01*
X145545901Y-64896825D01*
X145693110Y-64941476D01*
X145923000Y-64820155D01*
X145923000Y-63627000D01*
X146177000Y-63627000D01*
X146177000Y-64820155D01*
X146406890Y-64941476D01*
X146554099Y-64896825D01*
X146816920Y-64771641D01*
X147050269Y-64597588D01*
X147245178Y-64381355D01*
X147394157Y-64131252D01*
X147491481Y-63856891D01*
X147370814Y-63627000D01*
X146177000Y-63627000D01*
X145923000Y-63627000D01*
X145903000Y-63627000D01*
X145903000Y-63373000D01*
X145923000Y-63373000D01*
X145923000Y-62179845D01*
X146177000Y-62179845D01*
X146177000Y-63373000D01*
X147370814Y-63373000D01*
X147491481Y-63143109D01*
X147394157Y-62868748D01*
X147245178Y-62618645D01*
X147050269Y-62402412D01*
X146816920Y-62228359D01*
X146554099Y-62103175D01*
X146406890Y-62058524D01*
X146177000Y-62179845D01*
X145923000Y-62179845D01*
X145693110Y-62058524D01*
X145545901Y-62103175D01*
X145283080Y-62228359D01*
X145049731Y-62402412D01*
X144854822Y-62618645D01*
X144785201Y-62735523D01*
X144750706Y-62670986D01*
X144565134Y-62444866D01*
X144339014Y-62259294D01*
X144081034Y-62121401D01*
X143801111Y-62036487D01*
X143582950Y-62015000D01*
X143437050Y-62015000D01*
X143218889Y-62036487D01*
X142938966Y-62121401D01*
X142876841Y-62154607D01*
X142874701Y-62151999D01*
X142845698Y-62128197D01*
X142531104Y-61813603D01*
X142507301Y-61784599D01*
X142391576Y-61689626D01*
X142259547Y-61619054D01*
X142116286Y-61575597D01*
X142004633Y-61564600D01*
X142004622Y-61564600D01*
X141967300Y-61560924D01*
X141929978Y-61564600D01*
X140019622Y-61564600D01*
X139982299Y-61560924D01*
X139944976Y-61564600D01*
X139944967Y-61564600D01*
X139833314Y-61575597D01*
X139690053Y-61619054D01*
X139558024Y-61689626D01*
X139558022Y-61689627D01*
X139558023Y-61689627D01*
X139471296Y-61760801D01*
X139471292Y-61760805D01*
X139442299Y-61784599D01*
X139418505Y-61813592D01*
X129770000Y-71462098D01*
X129770000Y-71385921D01*
X129687953Y-70973444D01*
X129527012Y-70584898D01*
X129433850Y-70445470D01*
X129608838Y-70372988D01*
X129852206Y-70210374D01*
X130059174Y-70003406D01*
X130221788Y-69760038D01*
X130333798Y-69489621D01*
X130390900Y-69202548D01*
X130390900Y-68909852D01*
X130333798Y-68622779D01*
X130221788Y-68352362D01*
X130059174Y-68108994D01*
X129852206Y-67902026D01*
X129608838Y-67739412D01*
X129338421Y-67627402D01*
X129051348Y-67570300D01*
X128758652Y-67570300D01*
X128471579Y-67627402D01*
X128201162Y-67739412D01*
X127957794Y-67902026D01*
X127750826Y-68108994D01*
X127588212Y-68352362D01*
X127476202Y-68622779D01*
X127419100Y-68909852D01*
X127419100Y-69202548D01*
X127470549Y-69461200D01*
X127424721Y-69461200D01*
X127012244Y-69543247D01*
X126623698Y-69704188D01*
X126317292Y-69908921D01*
X126352873Y-69823022D01*
X126453900Y-69315124D01*
X126453900Y-68797276D01*
X126352873Y-68289378D01*
X126154701Y-67810949D01*
X125867000Y-67380374D01*
X125500826Y-67014200D01*
X125070251Y-66726499D01*
X124591822Y-66528327D01*
X124083924Y-66427300D01*
X123566076Y-66427300D01*
X123058178Y-66528327D01*
X122579749Y-66726499D01*
X122149174Y-67014200D01*
X121783000Y-67380374D01*
X121495299Y-67810949D01*
X121297127Y-68289378D01*
X121196100Y-68797276D01*
X121196100Y-69315124D01*
X121297127Y-69823022D01*
X121495299Y-70301451D01*
X121783000Y-70732026D01*
X122149174Y-71098200D01*
X122579749Y-71385901D01*
X123058178Y-71584073D01*
X123566076Y-71685100D01*
X124083924Y-71685100D01*
X124591822Y-71584073D01*
X125070251Y-71385901D01*
X125500826Y-71098200D01*
X125571237Y-71027789D01*
X125500000Y-71385921D01*
X125500000Y-71806479D01*
X125582047Y-72218956D01*
X125742988Y-72607502D01*
X125976637Y-72957183D01*
X126274017Y-73254563D01*
X126623698Y-73488212D01*
X127012244Y-73649153D01*
X127424721Y-73731200D01*
X127500898Y-73731200D01*
X114399700Y-86832399D01*
X114399700Y-73925921D01*
X119150000Y-73925921D01*
X119150000Y-74346479D01*
X119232047Y-74758956D01*
X119392988Y-75147502D01*
X119626637Y-75497183D01*
X119924017Y-75794563D01*
X120273698Y-76028212D01*
X120662244Y-76189153D01*
X121074721Y-76271200D01*
X121495279Y-76271200D01*
X121907756Y-76189153D01*
X122296302Y-76028212D01*
X122645983Y-75794563D01*
X122943363Y-75497183D01*
X123177012Y-75147502D01*
X123337953Y-74758956D01*
X123420000Y-74346479D01*
X123420000Y-73925921D01*
X123337953Y-73513444D01*
X123177012Y-73124898D01*
X122943363Y-72775217D01*
X122645983Y-72477837D01*
X122296302Y-72244188D01*
X121907756Y-72083247D01*
X121495279Y-72001200D01*
X121074721Y-72001200D01*
X120662244Y-72083247D01*
X120273698Y-72244188D01*
X119924017Y-72477837D01*
X119626637Y-72775217D01*
X119392988Y-73124898D01*
X119232047Y-73513444D01*
X119150000Y-73925921D01*
X114399700Y-73925921D01*
X114399700Y-69289611D01*
X114443637Y-69245674D01*
X114556905Y-69076156D01*
X114625790Y-68909852D01*
X117259100Y-68909852D01*
X117259100Y-69202548D01*
X117316202Y-69489621D01*
X117428212Y-69760038D01*
X117590826Y-70003406D01*
X117797794Y-70210374D01*
X118041162Y-70372988D01*
X118311579Y-70484998D01*
X118598652Y-70542100D01*
X118891348Y-70542100D01*
X119178421Y-70484998D01*
X119448838Y-70372988D01*
X119692206Y-70210374D01*
X119899174Y-70003406D01*
X120061788Y-69760038D01*
X120173798Y-69489621D01*
X120230900Y-69202548D01*
X120230900Y-68909852D01*
X120173798Y-68622779D01*
X120061788Y-68352362D01*
X119899174Y-68108994D01*
X119692206Y-67902026D01*
X119448838Y-67739412D01*
X119178421Y-67627402D01*
X118891348Y-67570300D01*
X118598652Y-67570300D01*
X118311579Y-67627402D01*
X118041162Y-67739412D01*
X117797794Y-67902026D01*
X117590826Y-68108994D01*
X117428212Y-68352362D01*
X117316202Y-68622779D01*
X117259100Y-68909852D01*
X114625790Y-68909852D01*
X114634926Y-68887798D01*
X114674700Y-68687839D01*
X114674700Y-68483961D01*
X114634926Y-68284002D01*
X114556905Y-68095644D01*
X114443637Y-67926126D01*
X114299474Y-67781963D01*
X114129956Y-67668695D01*
X113941598Y-67590674D01*
X113741639Y-67550900D01*
X113537761Y-67550900D01*
X113337802Y-67590674D01*
X113149444Y-67668695D01*
X112979926Y-67781963D01*
X112935989Y-67825900D01*
X112812103Y-67825900D01*
X110486934Y-65500733D01*
X110504976Y-65494276D01*
X110692764Y-65372369D01*
X110853161Y-65216169D01*
X110980003Y-65031678D01*
X111068415Y-64825987D01*
X111115000Y-64607000D01*
X111115000Y-64316904D01*
X111129978Y-64323108D01*
X111315448Y-64360000D01*
X111504552Y-64360000D01*
X111690022Y-64323108D01*
X111864731Y-64250741D01*
X112021964Y-64145681D01*
X112155681Y-64011964D01*
X112260741Y-63854731D01*
X112333108Y-63680022D01*
X112370000Y-63494552D01*
X112370000Y-63305448D01*
X116230000Y-63305448D01*
X116230000Y-63494552D01*
X116266892Y-63680022D01*
X116339259Y-63854731D01*
X116444319Y-64011964D01*
X116578036Y-64145681D01*
X116735269Y-64250741D01*
X116909978Y-64323108D01*
X117095448Y-64360000D01*
X117284552Y-64360000D01*
X117470022Y-64323108D01*
X117485000Y-64316904D01*
X117485000Y-64607000D01*
X117531585Y-64825987D01*
X117619997Y-65031678D01*
X117746839Y-65216169D01*
X117907236Y-65372369D01*
X118095024Y-65494276D01*
X118318126Y-65574119D01*
X118493000Y-65447954D01*
X118493000Y-64057000D01*
X118747000Y-64057000D01*
X118747000Y-65447954D01*
X118921874Y-65574119D01*
X119144976Y-65494276D01*
X119332764Y-65372369D01*
X119493161Y-65216169D01*
X119620003Y-65031678D01*
X119708415Y-64825987D01*
X119755000Y-64607000D01*
X119755000Y-64057000D01*
X118747000Y-64057000D01*
X118493000Y-64057000D01*
X118473000Y-64057000D01*
X118473000Y-63803000D01*
X118493000Y-63803000D01*
X118493000Y-62412046D01*
X118747000Y-62412046D01*
X118747000Y-63803000D01*
X119755000Y-63803000D01*
X119755000Y-63253000D01*
X119708415Y-63034013D01*
X119620003Y-62828322D01*
X119493161Y-62643831D01*
X119332764Y-62487631D01*
X119144976Y-62365724D01*
X118921874Y-62285881D01*
X118747000Y-62412046D01*
X118493000Y-62412046D01*
X118318126Y-62285881D01*
X118095024Y-62365724D01*
X117907236Y-62487631D01*
X117762884Y-62628206D01*
X117644731Y-62549259D01*
X117470022Y-62476892D01*
X117284552Y-62440000D01*
X117095448Y-62440000D01*
X116909978Y-62476892D01*
X116735269Y-62549259D01*
X116578036Y-62654319D01*
X116444319Y-62788036D01*
X116339259Y-62945269D01*
X116266892Y-63119978D01*
X116230000Y-63305448D01*
X112370000Y-63305448D01*
X112333108Y-63119978D01*
X112260741Y-62945269D01*
X112155681Y-62788036D01*
X112021964Y-62654319D01*
X111864731Y-62549259D01*
X111690022Y-62476892D01*
X111504552Y-62440000D01*
X111315448Y-62440000D01*
X111129978Y-62476892D01*
X110955269Y-62549259D01*
X110837116Y-62628206D01*
X110692764Y-62487631D01*
X110504976Y-62365724D01*
X110281874Y-62285881D01*
X110107000Y-62412046D01*
X110107000Y-63803000D01*
X110127000Y-63803000D01*
X110127000Y-64057000D01*
X110107000Y-64057000D01*
X110107000Y-64077000D01*
X109853000Y-64077000D01*
X109853000Y-64057000D01*
X108845000Y-64057000D01*
X108845000Y-64362322D01*
X108742944Y-64404595D01*
X108573426Y-64517863D01*
X108529489Y-64561800D01*
X105210702Y-64561800D01*
X104964500Y-64315598D01*
X104964500Y-64253461D01*
X104924726Y-64053502D01*
X104846705Y-63865144D01*
X104733437Y-63695626D01*
X104589274Y-63551463D01*
X104419756Y-63438195D01*
X104231398Y-63360174D01*
X104031439Y-63320400D01*
X103827561Y-63320400D01*
X103627602Y-63360174D01*
X103439244Y-63438195D01*
X103269726Y-63551463D01*
X103125563Y-63695626D01*
X103012295Y-63865144D01*
X102934274Y-64053502D01*
X102894500Y-64253461D01*
X102894500Y-64457339D01*
X102934274Y-64657298D01*
X103012295Y-64845656D01*
X103125563Y-65015174D01*
X103269726Y-65159337D01*
X103439244Y-65272605D01*
X103627602Y-65350626D01*
X103827561Y-65390400D01*
X103889698Y-65390400D01*
X104332100Y-65832802D01*
X104355899Y-65861801D01*
X104384897Y-65885599D01*
X104471623Y-65956774D01*
X104603653Y-66027346D01*
X104746914Y-66070803D01*
X104858567Y-66081800D01*
X104858577Y-66081800D01*
X104895900Y-66085476D01*
X104933222Y-66081800D01*
X108529489Y-66081800D01*
X108573426Y-66125737D01*
X108742944Y-66239005D01*
X108931302Y-66317026D01*
X109131261Y-66356800D01*
X109193399Y-66356800D01*
X110610589Y-67773991D01*
X110558838Y-67739412D01*
X110288421Y-67627402D01*
X110001348Y-67570300D01*
X109708652Y-67570300D01*
X109421579Y-67627402D01*
X109151162Y-67739412D01*
X108907794Y-67902026D01*
X108700826Y-68108994D01*
X108538212Y-68352362D01*
X108426202Y-68622779D01*
X108369100Y-68909852D01*
X108369100Y-69202548D01*
X108420549Y-69461200D01*
X108374721Y-69461200D01*
X107962244Y-69543247D01*
X107573698Y-69704188D01*
X107267292Y-69908921D01*
X107302873Y-69823022D01*
X107403900Y-69315124D01*
X107403900Y-68797276D01*
X107302873Y-68289378D01*
X107104701Y-67810949D01*
X106817000Y-67380374D01*
X106450826Y-67014200D01*
X106020251Y-66726499D01*
X105541822Y-66528327D01*
X105033924Y-66427300D01*
X104516076Y-66427300D01*
X104008178Y-66528327D01*
X103529749Y-66726499D01*
X103099174Y-67014200D01*
X102733000Y-67380374D01*
X102445299Y-67810949D01*
X102247127Y-68289378D01*
X102146100Y-68797276D01*
X102146100Y-69315124D01*
X102247127Y-69823022D01*
X102445299Y-70301451D01*
X102733000Y-70732026D01*
X103099174Y-71098200D01*
X103529749Y-71385901D01*
X104008178Y-71584073D01*
X104516076Y-71685100D01*
X105033924Y-71685100D01*
X105541822Y-71584073D01*
X106020251Y-71385901D01*
X106450826Y-71098200D01*
X106521237Y-71027789D01*
X106450000Y-71385921D01*
X106450000Y-71806479D01*
X106532047Y-72218956D01*
X106692988Y-72607502D01*
X106926637Y-72957183D01*
X107224017Y-73254563D01*
X107573698Y-73488212D01*
X107962244Y-73649153D01*
X108374721Y-73731200D01*
X108795279Y-73731200D01*
X109207756Y-73649153D01*
X109596302Y-73488212D01*
X109945983Y-73254563D01*
X110243363Y-72957183D01*
X110477012Y-72607502D01*
X110637953Y-72218956D01*
X110720000Y-71806479D01*
X110720000Y-71385921D01*
X110637953Y-70973444D01*
X110477012Y-70584898D01*
X110383850Y-70445470D01*
X110558838Y-70372988D01*
X110802206Y-70210374D01*
X111009174Y-70003406D01*
X111171788Y-69760038D01*
X111283798Y-69489621D01*
X111340900Y-69202548D01*
X111340900Y-68909852D01*
X111283798Y-68622779D01*
X111171788Y-68352362D01*
X111137210Y-68300612D01*
X111933505Y-69096908D01*
X111957299Y-69125901D01*
X111986292Y-69149695D01*
X111986296Y-69149699D01*
X112050694Y-69202548D01*
X112073024Y-69220874D01*
X112205053Y-69291446D01*
X112348314Y-69334903D01*
X112459967Y-69345900D01*
X112459976Y-69345900D01*
X112497299Y-69349576D01*
X112534622Y-69345900D01*
X112879700Y-69345900D01*
X112879701Y-87715497D01*
X110307203Y-90287996D01*
X110278199Y-90311799D01*
X110224219Y-90377574D01*
X110183226Y-90427524D01*
X110133764Y-90520061D01*
X110112654Y-90559554D01*
X110069197Y-90702815D01*
X110058200Y-90814468D01*
X110058200Y-90814478D01*
X110054524Y-90851800D01*
X110058200Y-90889123D01*
X110058200Y-91542989D01*
X110014263Y-91586926D01*
X109900995Y-91756444D01*
X109822974Y-91944802D01*
X109783200Y-92144761D01*
X109783200Y-92212000D01*
X105702125Y-92212000D01*
X105664800Y-92208324D01*
X105627475Y-92212000D01*
X105627467Y-92212000D01*
X105515814Y-92222997D01*
X105372553Y-92266454D01*
X105240524Y-92337026D01*
X105124799Y-92431999D01*
X105101001Y-92460997D01*
X97526400Y-100035599D01*
X97526400Y-98299122D01*
X97530076Y-98261799D01*
X97526400Y-98224476D01*
X97526400Y-98224467D01*
X97515403Y-98112814D01*
X97471946Y-97969553D01*
X97401374Y-97837524D01*
X97384923Y-97817478D01*
X100323603Y-94878799D01*
X100352601Y-94855001D01*
X100447574Y-94739276D01*
X100518146Y-94607247D01*
X100561603Y-94463986D01*
X100572600Y-94352333D01*
X100572600Y-94352325D01*
X100576276Y-94315000D01*
X100572600Y-94277675D01*
X100572600Y-90057401D01*
X102165806Y-88464195D01*
X102247127Y-88873022D01*
X102445299Y-89351451D01*
X102733000Y-89782026D01*
X103099174Y-90148200D01*
X103529749Y-90435901D01*
X104008178Y-90634073D01*
X104516076Y-90735100D01*
X105033924Y-90735100D01*
X105541822Y-90634073D01*
X106020251Y-90435901D01*
X106450826Y-90148200D01*
X106817000Y-89782026D01*
X107104701Y-89351451D01*
X107302873Y-88873022D01*
X107403900Y-88365124D01*
X107403900Y-87959852D01*
X108369100Y-87959852D01*
X108369100Y-88252548D01*
X108426202Y-88539621D01*
X108538212Y-88810038D01*
X108700826Y-89053406D01*
X108907794Y-89260374D01*
X109151162Y-89422988D01*
X109421579Y-89534998D01*
X109708652Y-89592100D01*
X110001348Y-89592100D01*
X110288421Y-89534998D01*
X110558838Y-89422988D01*
X110802206Y-89260374D01*
X111009174Y-89053406D01*
X111171788Y-88810038D01*
X111283798Y-88539621D01*
X111340900Y-88252548D01*
X111340900Y-87959852D01*
X111283798Y-87672779D01*
X111171788Y-87402362D01*
X111009174Y-87158994D01*
X110802206Y-86952026D01*
X110558838Y-86789412D01*
X110288421Y-86677402D01*
X110001348Y-86620300D01*
X109708652Y-86620300D01*
X109421579Y-86677402D01*
X109151162Y-86789412D01*
X108907794Y-86952026D01*
X108700826Y-87158994D01*
X108538212Y-87402362D01*
X108426202Y-87672779D01*
X108369100Y-87959852D01*
X107403900Y-87959852D01*
X107403900Y-87847276D01*
X107302873Y-87339378D01*
X107104701Y-86860949D01*
X106817000Y-86430374D01*
X106450826Y-86064200D01*
X106020251Y-85776499D01*
X105541822Y-85578327D01*
X105075193Y-85485509D01*
X105084046Y-85468947D01*
X105127503Y-85325686D01*
X105138500Y-85214033D01*
X105138500Y-85214025D01*
X105142176Y-85176700D01*
X105138500Y-85139375D01*
X105138500Y-82815921D01*
X105180000Y-82815921D01*
X105180000Y-83236479D01*
X105262047Y-83648956D01*
X105422988Y-84037502D01*
X105656637Y-84387183D01*
X105954017Y-84684563D01*
X106303698Y-84918212D01*
X106692244Y-85079153D01*
X107104721Y-85161200D01*
X107525279Y-85161200D01*
X107937756Y-85079153D01*
X108326302Y-84918212D01*
X108675983Y-84684563D01*
X108973363Y-84387183D01*
X109207012Y-84037502D01*
X109367953Y-83648956D01*
X109450000Y-83236479D01*
X109450000Y-82815921D01*
X109367953Y-82403444D01*
X109207012Y-82014898D01*
X108973363Y-81665217D01*
X108675983Y-81367837D01*
X108326302Y-81134188D01*
X107937756Y-80973247D01*
X107525279Y-80891200D01*
X107104721Y-80891200D01*
X106692244Y-80973247D01*
X106303698Y-81134188D01*
X105954017Y-81367837D01*
X105656637Y-81665217D01*
X105422988Y-82014898D01*
X105262047Y-82403444D01*
X105180000Y-82815921D01*
X105138500Y-82815921D01*
X105138500Y-81991111D01*
X105182437Y-81947174D01*
X105295705Y-81777656D01*
X105373726Y-81589298D01*
X105413500Y-81389339D01*
X105413500Y-81185461D01*
X105373726Y-80985502D01*
X105295705Y-80797144D01*
X105182437Y-80627626D01*
X105138500Y-80583689D01*
X105138500Y-77151411D01*
X105182437Y-77107474D01*
X105295705Y-76937956D01*
X105373726Y-76749598D01*
X105413500Y-76549639D01*
X105413500Y-76345761D01*
X105373726Y-76145802D01*
X105295705Y-75957444D01*
X105182437Y-75787926D01*
X105038274Y-75643763D01*
X104868756Y-75530495D01*
X104680398Y-75452474D01*
X104480439Y-75412700D01*
X104276561Y-75412700D01*
X104076602Y-75452474D01*
X103888244Y-75530495D01*
X103803280Y-75587266D01*
X103893363Y-75497183D01*
X104127012Y-75147502D01*
X104287953Y-74758956D01*
X104370000Y-74346479D01*
X104370000Y-73925921D01*
X104287953Y-73513444D01*
X104127012Y-73124898D01*
X103893363Y-72775217D01*
X103595983Y-72477837D01*
X103246302Y-72244188D01*
X102857756Y-72083247D01*
X102445279Y-72001200D01*
X102024721Y-72001200D01*
X101612244Y-72083247D01*
X101223698Y-72244188D01*
X100874017Y-72477837D01*
X100576637Y-72775217D01*
X100342988Y-73124898D01*
X100182047Y-73513444D01*
X100100000Y-73925921D01*
X100100000Y-74346479D01*
X100182047Y-74758956D01*
X100342988Y-75147502D01*
X100576637Y-75497183D01*
X100874017Y-75794563D01*
X101223698Y-76028212D01*
X101612244Y-76189153D01*
X102024721Y-76271200D01*
X102445279Y-76271200D01*
X102857756Y-76189153D01*
X103246302Y-76028212D01*
X103549275Y-75825772D01*
X103461295Y-75957444D01*
X103383274Y-76145802D01*
X103343500Y-76345761D01*
X103343500Y-76549639D01*
X103383274Y-76749598D01*
X103461295Y-76937956D01*
X103574563Y-77107474D01*
X103618501Y-77151412D01*
X103618500Y-80583689D01*
X103574563Y-80627626D01*
X103461295Y-80797144D01*
X103383274Y-80985502D01*
X103343500Y-81185461D01*
X103343500Y-81389339D01*
X103383274Y-81589298D01*
X103461295Y-81777656D01*
X103574563Y-81947174D01*
X103618500Y-81991111D01*
X103618501Y-84861897D01*
X103100000Y-85380398D01*
X103100000Y-85355921D01*
X103017953Y-84943444D01*
X102857012Y-84554898D01*
X102623363Y-84205217D01*
X102325983Y-83907837D01*
X101976302Y-83674188D01*
X101587756Y-83513247D01*
X101175279Y-83431200D01*
X100754721Y-83431200D01*
X100342244Y-83513247D01*
X99953698Y-83674188D01*
X99604017Y-83907837D01*
X99306637Y-84205217D01*
X99072988Y-84554898D01*
X98912047Y-84943444D01*
X98830000Y-85355921D01*
X98830000Y-85776479D01*
X98912047Y-86188956D01*
X99072988Y-86577502D01*
X99166150Y-86716930D01*
X98991162Y-86789412D01*
X98747794Y-86952026D01*
X98540826Y-87158994D01*
X98378212Y-87402362D01*
X98266202Y-87672779D01*
X98209100Y-87959852D01*
X98209100Y-88252548D01*
X98266202Y-88539621D01*
X98378212Y-88810038D01*
X98540826Y-89053406D01*
X98747794Y-89260374D01*
X98991162Y-89422988D01*
X99101492Y-89468688D01*
X99063597Y-89593615D01*
X99052600Y-89705268D01*
X99052600Y-89705278D01*
X99048924Y-89742600D01*
X99052600Y-89779923D01*
X99052601Y-94000197D01*
X98536055Y-94516744D01*
X98546926Y-94490498D01*
X98586700Y-94290539D01*
X98586700Y-94086661D01*
X98546926Y-93886702D01*
X98468905Y-93698344D01*
X98355637Y-93528826D01*
X98311700Y-93484889D01*
X98311700Y-90128722D01*
X98315376Y-90091399D01*
X98311700Y-90054076D01*
X98311700Y-90054067D01*
X98300703Y-89942414D01*
X98257246Y-89799153D01*
X98229003Y-89746314D01*
X98186674Y-89667123D01*
X98115499Y-89580397D01*
X98091701Y-89551399D01*
X98062703Y-89527601D01*
X96340600Y-87805499D01*
X96340600Y-87743361D01*
X96300826Y-87543402D01*
X96222805Y-87355044D01*
X96109537Y-87185526D01*
X95965374Y-87041363D01*
X95795856Y-86928095D01*
X95607498Y-86850074D01*
X95407539Y-86810300D01*
X95339700Y-86810300D01*
X95339700Y-80553963D01*
X95430374Y-80443476D01*
X95500946Y-80311447D01*
X95544403Y-80168186D01*
X95555400Y-80056533D01*
X95555400Y-80056523D01*
X95559076Y-80019200D01*
X95555400Y-79981877D01*
X95555400Y-77619911D01*
X95599337Y-77575974D01*
X95712605Y-77406456D01*
X95790626Y-77218098D01*
X95830400Y-77018139D01*
X95830400Y-76814261D01*
X95790626Y-76614302D01*
X95712605Y-76425944D01*
X95599337Y-76256426D01*
X95455174Y-76112263D01*
X95285656Y-75998995D01*
X95097298Y-75920974D01*
X94897339Y-75881200D01*
X94693461Y-75881200D01*
X94493502Y-75920974D01*
X94305144Y-75998995D01*
X94135626Y-76112263D01*
X93991463Y-76256426D01*
X93878195Y-76425944D01*
X93800174Y-76614302D01*
X93770141Y-76765288D01*
X93768202Y-76765674D01*
X93579844Y-76843695D01*
X93550200Y-76863502D01*
X93550200Y-68909852D01*
X98209100Y-68909852D01*
X98209100Y-69202548D01*
X98266202Y-69489621D01*
X98378212Y-69760038D01*
X98540826Y-70003406D01*
X98747794Y-70210374D01*
X98991162Y-70372988D01*
X99261579Y-70484998D01*
X99548652Y-70542100D01*
X99841348Y-70542100D01*
X100128421Y-70484998D01*
X100398838Y-70372988D01*
X100642206Y-70210374D01*
X100849174Y-70003406D01*
X101011788Y-69760038D01*
X101123798Y-69489621D01*
X101180900Y-69202548D01*
X101180900Y-68909852D01*
X101123798Y-68622779D01*
X101011788Y-68352362D01*
X100849174Y-68108994D01*
X100642206Y-67902026D01*
X100398838Y-67739412D01*
X100128421Y-67627402D01*
X99841348Y-67570300D01*
X99548652Y-67570300D01*
X99261579Y-67627402D01*
X98991162Y-67739412D01*
X98747794Y-67902026D01*
X98540826Y-68108994D01*
X98378212Y-68352362D01*
X98266202Y-68622779D01*
X98209100Y-68909852D01*
X93550200Y-68909852D01*
X93550200Y-63576711D01*
X93594137Y-63532774D01*
X93707405Y-63363256D01*
X93753074Y-63253000D01*
X108845000Y-63253000D01*
X108845000Y-63803000D01*
X109853000Y-63803000D01*
X109853000Y-62412046D01*
X109678126Y-62285881D01*
X109455024Y-62365724D01*
X109267236Y-62487631D01*
X109106839Y-62643831D01*
X108979997Y-62828322D01*
X108891585Y-63034013D01*
X108845000Y-63253000D01*
X93753074Y-63253000D01*
X93785426Y-63174898D01*
X93825200Y-62974939D01*
X93825200Y-62771061D01*
X93785426Y-62571102D01*
X93707405Y-62382744D01*
X93594137Y-62213226D01*
X93449974Y-62069063D01*
X93280456Y-61955795D01*
X93092098Y-61877774D01*
X92892139Y-61838000D01*
X92688261Y-61838000D01*
X92488302Y-61877774D01*
X92299944Y-61955795D01*
X92130426Y-62069063D01*
X91986263Y-62213226D01*
X91872995Y-62382744D01*
X91794974Y-62571102D01*
X91755200Y-62771061D01*
X91755200Y-62974939D01*
X91794974Y-63174898D01*
X91872995Y-63363256D01*
X91986263Y-63532774D01*
X92030200Y-63576711D01*
X92030200Y-65563397D01*
X89300000Y-62833199D01*
X89300000Y-62771061D01*
X89260226Y-62571102D01*
X89182205Y-62382744D01*
X89068937Y-62213226D01*
X88924774Y-62069063D01*
X88755256Y-61955795D01*
X88566898Y-61877774D01*
X88366939Y-61838000D01*
X88163061Y-61838000D01*
X87963102Y-61877774D01*
X87774744Y-61955795D01*
X87605226Y-62069063D01*
X87461063Y-62213226D01*
X87347795Y-62382744D01*
X87269774Y-62571102D01*
X87230000Y-62771061D01*
X87230000Y-62974939D01*
X87269774Y-63174898D01*
X87347795Y-63363256D01*
X87461063Y-63532774D01*
X87605226Y-63676937D01*
X87774744Y-63790205D01*
X87963102Y-63868226D01*
X88163061Y-63908000D01*
X88225199Y-63908000D01*
X91232600Y-66915403D01*
X91232600Y-67626244D01*
X90951348Y-67570300D01*
X90658652Y-67570300D01*
X90371579Y-67627402D01*
X90101162Y-67739412D01*
X89857794Y-67902026D01*
X89650826Y-68108994D01*
X89488212Y-68352362D01*
X89376202Y-68622779D01*
X89319100Y-68909852D01*
X89319100Y-69202548D01*
X89370549Y-69461200D01*
X89324721Y-69461200D01*
X88912244Y-69543247D01*
X88523698Y-69704188D01*
X88217292Y-69908921D01*
X88252873Y-69823022D01*
X88353900Y-69315124D01*
X88353900Y-68797276D01*
X88252873Y-68289378D01*
X88054701Y-67810949D01*
X87767000Y-67380374D01*
X87400826Y-67014200D01*
X86970251Y-66726499D01*
X86491822Y-66528327D01*
X85983924Y-66427300D01*
X85466076Y-66427300D01*
X84958178Y-66528327D01*
X84479749Y-66726499D01*
X84049174Y-67014200D01*
X83683000Y-67380374D01*
X83395299Y-67810949D01*
X83197127Y-68289378D01*
X83096100Y-68797276D01*
X83096100Y-69315124D01*
X83197127Y-69823022D01*
X83395299Y-70301451D01*
X83683000Y-70732026D01*
X84049174Y-71098200D01*
X84479749Y-71385901D01*
X84958178Y-71584073D01*
X85466076Y-71685100D01*
X85983924Y-71685100D01*
X86491822Y-71584073D01*
X86970251Y-71385901D01*
X87400826Y-71098200D01*
X87471237Y-71027789D01*
X87400000Y-71385921D01*
X87400000Y-71806479D01*
X87482047Y-72218956D01*
X87642988Y-72607502D01*
X87876637Y-72957183D01*
X88174017Y-73254563D01*
X88523698Y-73488212D01*
X88912244Y-73649153D01*
X89324721Y-73731200D01*
X89745279Y-73731200D01*
X90157756Y-73649153D01*
X90546302Y-73488212D01*
X90895983Y-73254563D01*
X91193363Y-72957183D01*
X91232600Y-72898460D01*
X91232601Y-86676244D01*
X90951348Y-86620300D01*
X90658652Y-86620300D01*
X90371579Y-86677402D01*
X90101162Y-86789412D01*
X89857794Y-86952026D01*
X89650826Y-87158994D01*
X89488212Y-87402362D01*
X89376202Y-87672779D01*
X89319100Y-87959852D01*
X89319100Y-88252548D01*
X89376202Y-88539621D01*
X89488212Y-88810038D01*
X89650826Y-89053406D01*
X89857794Y-89260374D01*
X90101162Y-89422988D01*
X90371579Y-89534998D01*
X90658652Y-89592100D01*
X90951348Y-89592100D01*
X91238421Y-89534998D01*
X91328938Y-89497505D01*
X91357626Y-89551176D01*
X91423630Y-89631601D01*
X91452600Y-89666901D01*
X91481598Y-89690699D01*
X92452700Y-90661802D01*
X92452700Y-90723939D01*
X92492474Y-90923898D01*
X92570495Y-91112256D01*
X92683763Y-91281774D01*
X92827926Y-91425937D01*
X92997444Y-91539205D01*
X93185802Y-91617226D01*
X93385761Y-91657000D01*
X93453100Y-91657000D01*
X93453101Y-92480397D01*
X93424798Y-92468674D01*
X93224839Y-92428900D01*
X93162702Y-92428900D01*
X92382204Y-91648403D01*
X92358401Y-91619399D01*
X92242676Y-91524426D01*
X92110647Y-91453854D01*
X91967386Y-91410397D01*
X91855733Y-91399400D01*
X91855722Y-91399400D01*
X91818400Y-91395724D01*
X91781078Y-91399400D01*
X89926523Y-91399400D01*
X89889200Y-91395724D01*
X89851877Y-91399400D01*
X89851867Y-91399400D01*
X89740214Y-91410397D01*
X89596953Y-91453854D01*
X89464923Y-91524426D01*
X89391360Y-91584798D01*
X89349199Y-91619399D01*
X89325401Y-91648397D01*
X82568303Y-98405496D01*
X82539299Y-98429299D01*
X82497817Y-98479846D01*
X82444326Y-98545024D01*
X82373755Y-98677053D01*
X82373754Y-98677054D01*
X82330297Y-98820315D01*
X82319300Y-98931968D01*
X82319300Y-98931978D01*
X82315624Y-98969300D01*
X82319300Y-99006623D01*
X82319300Y-99325189D01*
X82275363Y-99369126D01*
X82162095Y-99538644D01*
X82084074Y-99727002D01*
X82044300Y-99926961D01*
X76327000Y-99926961D01*
X76327000Y-87959852D01*
X79159100Y-87959852D01*
X79159100Y-88252548D01*
X79216202Y-88539621D01*
X79328212Y-88810038D01*
X79490826Y-89053406D01*
X79697794Y-89260374D01*
X79941162Y-89422988D01*
X80211579Y-89534998D01*
X80498652Y-89592100D01*
X80791348Y-89592100D01*
X81078421Y-89534998D01*
X81348838Y-89422988D01*
X81592206Y-89260374D01*
X81799174Y-89053406D01*
X81961788Y-88810038D01*
X82073798Y-88539621D01*
X82130900Y-88252548D01*
X82130900Y-87959852D01*
X82079451Y-87701200D01*
X82125279Y-87701200D01*
X82537756Y-87619153D01*
X82926302Y-87458212D01*
X83232708Y-87253479D01*
X83197127Y-87339378D01*
X83096100Y-87847276D01*
X83096100Y-88365124D01*
X83197127Y-88873022D01*
X83395299Y-89351451D01*
X83683000Y-89782026D01*
X84049174Y-90148200D01*
X84479749Y-90435901D01*
X84958178Y-90634073D01*
X85466076Y-90735100D01*
X85983924Y-90735100D01*
X86491822Y-90634073D01*
X86970251Y-90435901D01*
X87400826Y-90148200D01*
X87767000Y-89782026D01*
X88054701Y-89351451D01*
X88252873Y-88873022D01*
X88353900Y-88365124D01*
X88353900Y-87847276D01*
X88252873Y-87339378D01*
X88054701Y-86860949D01*
X87767000Y-86430374D01*
X87400826Y-86064200D01*
X86970251Y-85776499D01*
X86491822Y-85578327D01*
X85983924Y-85477300D01*
X85466076Y-85477300D01*
X84958178Y-85578327D01*
X84479749Y-85776499D01*
X84049174Y-86064200D01*
X83978763Y-86134611D01*
X84050000Y-85776479D01*
X84050000Y-85355921D01*
X83967953Y-84943444D01*
X83807012Y-84554898D01*
X83573363Y-84205217D01*
X83275983Y-83907837D01*
X82926302Y-83674188D01*
X82537756Y-83513247D01*
X82125279Y-83431200D01*
X81704721Y-83431200D01*
X81292244Y-83513247D01*
X80903698Y-83674188D01*
X80554017Y-83907837D01*
X80256637Y-84205217D01*
X80022988Y-84554898D01*
X79862047Y-84943444D01*
X79780000Y-85355921D01*
X79780000Y-85776479D01*
X79862047Y-86188956D01*
X80022988Y-86577502D01*
X80116150Y-86716930D01*
X79941162Y-86789412D01*
X79697794Y-86952026D01*
X79490826Y-87158994D01*
X79328212Y-87402362D01*
X79216202Y-87672779D01*
X79159100Y-87959852D01*
X76327000Y-87959852D01*
X76327000Y-82815921D01*
X86130000Y-82815921D01*
X86130000Y-83236479D01*
X86212047Y-83648956D01*
X86372988Y-84037502D01*
X86606637Y-84387183D01*
X86904017Y-84684563D01*
X87253698Y-84918212D01*
X87642244Y-85079153D01*
X88054721Y-85161200D01*
X88475279Y-85161200D01*
X88887756Y-85079153D01*
X89276302Y-84918212D01*
X89625983Y-84684563D01*
X89923363Y-84387183D01*
X90157012Y-84037502D01*
X90317953Y-83648956D01*
X90400000Y-83236479D01*
X90400000Y-82815921D01*
X90317953Y-82403444D01*
X90157012Y-82014898D01*
X89923363Y-81665217D01*
X89625983Y-81367837D01*
X89276302Y-81134188D01*
X88887756Y-80973247D01*
X88475279Y-80891200D01*
X88054721Y-80891200D01*
X87642244Y-80973247D01*
X87253698Y-81134188D01*
X86904017Y-81367837D01*
X86606637Y-81665217D01*
X86372988Y-82014898D01*
X86212047Y-82403444D01*
X86130000Y-82815921D01*
X76327000Y-82815921D01*
X76327000Y-73925921D01*
X81050000Y-73925921D01*
X81050000Y-74346479D01*
X81132047Y-74758956D01*
X81292988Y-75147502D01*
X81526637Y-75497183D01*
X81824017Y-75794563D01*
X82173698Y-76028212D01*
X82562244Y-76189153D01*
X82974721Y-76271200D01*
X83395279Y-76271200D01*
X83807756Y-76189153D01*
X84196302Y-76028212D01*
X84545983Y-75794563D01*
X84843363Y-75497183D01*
X85077012Y-75147502D01*
X85237953Y-74758956D01*
X85320000Y-74346479D01*
X85320000Y-73925921D01*
X85237953Y-73513444D01*
X85077012Y-73124898D01*
X84843363Y-72775217D01*
X84545983Y-72477837D01*
X84196302Y-72244188D01*
X83807756Y-72083247D01*
X83395279Y-72001200D01*
X82974721Y-72001200D01*
X82562244Y-72083247D01*
X82173698Y-72244188D01*
X81824017Y-72477837D01*
X81526637Y-72775217D01*
X81292988Y-73124898D01*
X81132047Y-73513444D01*
X81050000Y-73925921D01*
X76327000Y-73925921D01*
X76327000Y-68909852D01*
X79159100Y-68909852D01*
X79159100Y-69202548D01*
X79216202Y-69489621D01*
X79328212Y-69760038D01*
X79490826Y-70003406D01*
X79697794Y-70210374D01*
X79941162Y-70372988D01*
X80211579Y-70484998D01*
X80498652Y-70542100D01*
X80791348Y-70542100D01*
X81078421Y-70484998D01*
X81348838Y-70372988D01*
X81592206Y-70210374D01*
X81799174Y-70003406D01*
X81961788Y-69760038D01*
X82073798Y-69489621D01*
X82130900Y-69202548D01*
X82130900Y-68909852D01*
X82073798Y-68622779D01*
X81961788Y-68352362D01*
X81799174Y-68108994D01*
X81592206Y-67902026D01*
X81348838Y-67739412D01*
X81078421Y-67627402D01*
X80791348Y-67570300D01*
X80498652Y-67570300D01*
X80211579Y-67627402D01*
X79941162Y-67739412D01*
X79697794Y-67902026D01*
X79490826Y-68108994D01*
X79328212Y-68352362D01*
X79216202Y-68622779D01*
X79159100Y-68909852D01*
X76327000Y-68909852D01*
X76327000Y-62282606D01*
X78792606Y-59817000D01*
X108845000Y-59817000D01*
X108845000Y-60177000D01*
X108845000Y-60177000D01*
G37*
X108845000Y-60177000D02*
X108891585Y-60395987D01*
X108979997Y-60601678D01*
X109106839Y-60786169D01*
X109267236Y-60942369D01*
X109455024Y-61064276D01*
X109678126Y-61144119D01*
X109853000Y-61017954D01*
X109853000Y-59877000D01*
X109833000Y-59877000D01*
X109833000Y-59817000D01*
X110127000Y-59817000D01*
X110127000Y-59877000D01*
X110107000Y-59877000D01*
X110107000Y-61017954D01*
X110281874Y-61144119D01*
X110504976Y-61064276D01*
X110692764Y-60942369D01*
X110853161Y-60786169D01*
X110980003Y-60601678D01*
X111068415Y-60395987D01*
X111115000Y-60177000D01*
X111115000Y-59817000D01*
X117485000Y-59817000D01*
X117485000Y-60177000D01*
X117531585Y-60395987D01*
X117619997Y-60601678D01*
X117746839Y-60786169D01*
X117907236Y-60942369D01*
X118095024Y-61064276D01*
X118318126Y-61144119D01*
X118493000Y-61017954D01*
X118493000Y-59877000D01*
X118473000Y-59877000D01*
X118473000Y-59817000D01*
X118767000Y-59817000D01*
X118767000Y-59877000D01*
X118747000Y-59877000D01*
X118747000Y-61017954D01*
X118921874Y-61144119D01*
X119144976Y-61064276D01*
X119332764Y-60942369D01*
X119493161Y-60786169D01*
X119620003Y-60601678D01*
X119708415Y-60395987D01*
X119755000Y-60177000D01*
X119755000Y-59817000D01*
X149807394Y-59817000D01*
X152273000Y-62282606D01*
X152273000Y-144727394D01*
X149807394Y-147193000D01*
X137083000Y-147193000D01*
X137083000Y-144907000D01*
X137160000Y-144907000D01*
X137184776Y-144904560D01*
X137208601Y-144897333D01*
X137230557Y-144885597D01*
X137249803Y-144869803D01*
X137265597Y-144850557D01*
X137277333Y-144828601D01*
X137284560Y-144804776D01*
X137287000Y-144780000D01*
X137287000Y-130810000D01*
X137284560Y-130785224D01*
X137277333Y-130761399D01*
X137265597Y-130739443D01*
X137249803Y-130720197D01*
X137230557Y-130704403D01*
X137208601Y-130692667D01*
X137184776Y-130685440D01*
X137160000Y-130683000D01*
X118110000Y-130683000D01*
X118085224Y-130685440D01*
X118061399Y-130692667D01*
X118039443Y-130704403D01*
X118020197Y-130720197D01*
X118004403Y-130739443D01*
X117992667Y-130761399D01*
X117985440Y-130785224D01*
X117983000Y-130810000D01*
X117983000Y-144780000D01*
X117985440Y-144804776D01*
X117992667Y-144828601D01*
X118004403Y-144850557D01*
X118020197Y-144869803D01*
X118039443Y-144885597D01*
X118061399Y-144897333D01*
X118085224Y-144904560D01*
X118110000Y-144907000D01*
X126569000Y-144907000D01*
X126569000Y-147193000D01*
X78792606Y-147193000D01*
X76327000Y-144727394D01*
X76327000Y-140374000D01*
X79029928Y-140374000D01*
X79029928Y-142074000D01*
X79042188Y-142198482D01*
X79078498Y-142318180D01*
X79137463Y-142428494D01*
X79216815Y-142525185D01*
X79313506Y-142604537D01*
X79423820Y-142663502D01*
X79543518Y-142699812D01*
X79668000Y-142712072D01*
X81368000Y-142712072D01*
X81492482Y-142699812D01*
X81612180Y-142663502D01*
X81722494Y-142604537D01*
X81819185Y-142525185D01*
X81898537Y-142428494D01*
X81957502Y-142318180D01*
X81993812Y-142198482D01*
X82006072Y-142074000D01*
X82006072Y-140374000D01*
X81993812Y-140249518D01*
X81957502Y-140129820D01*
X81898537Y-140019506D01*
X81819185Y-139922815D01*
X81722494Y-139843463D01*
X81612180Y-139784498D01*
X81531534Y-139760034D01*
X81615588Y-139684269D01*
X81789641Y-139450920D01*
X81914825Y-139188099D01*
X81959476Y-139040890D01*
X81838155Y-138811000D01*
X80645000Y-138811000D01*
X80645000Y-138831000D01*
X80391000Y-138831000D01*
X80391000Y-138811000D01*
X79197845Y-138811000D01*
X79076524Y-139040890D01*
X79121175Y-139188099D01*
X79246359Y-139450920D01*
X79420412Y-139684269D01*
X79504466Y-139760034D01*
X79423820Y-139784498D01*
X79313506Y-139843463D01*
X79216815Y-139922815D01*
X79137463Y-140019506D01*
X79078498Y-140129820D01*
X79042188Y-140249518D01*
X79029928Y-140374000D01*
X76327000Y-140374000D01*
X76327000Y-133604000D01*
X79025815Y-133604000D01*
X79054487Y-133895111D01*
X79139401Y-134175034D01*
X79277294Y-134433014D01*
X79462866Y-134659134D01*
X79688986Y-134844706D01*
X79743791Y-134874000D01*
X79688986Y-134903294D01*
X79462866Y-135088866D01*
X79277294Y-135314986D01*
X79139401Y-135572966D01*
X79054487Y-135852889D01*
X79025815Y-136144000D01*
X79054487Y-136435111D01*
X79139401Y-136715034D01*
X79277294Y-136973014D01*
X79462866Y-137199134D01*
X79688986Y-137384706D01*
X79753523Y-137419201D01*
X79636645Y-137488822D01*
X79420412Y-137683731D01*
X79246359Y-137917080D01*
X79121175Y-138179901D01*
X79076524Y-138327110D01*
X79197845Y-138557000D01*
X80391000Y-138557000D01*
X80391000Y-138537000D01*
X80645000Y-138537000D01*
X80645000Y-138557000D01*
X81838155Y-138557000D01*
X81959476Y-138327110D01*
X81914825Y-138179901D01*
X81789641Y-137917080D01*
X81615588Y-137683731D01*
X81399355Y-137488822D01*
X81282477Y-137419201D01*
X81347014Y-137384706D01*
X81573134Y-137199134D01*
X81758706Y-136973014D01*
X81896599Y-136715034D01*
X81981513Y-136435111D01*
X82010185Y-136144000D01*
X81981513Y-135852889D01*
X81896599Y-135572966D01*
X81758706Y-135314986D01*
X81573134Y-135088866D01*
X81347014Y-134903294D01*
X81292209Y-134874000D01*
X81347014Y-134844706D01*
X81573134Y-134659134D01*
X81758706Y-134433014D01*
X81896599Y-134175034D01*
X81981513Y-133895111D01*
X82010185Y-133604000D01*
X81981513Y-133312889D01*
X81896599Y-133032966D01*
X81758706Y-132774986D01*
X81573134Y-132548866D01*
X81347014Y-132363294D01*
X81089034Y-132225401D01*
X80809111Y-132140487D01*
X80590950Y-132119000D01*
X80445050Y-132119000D01*
X80226889Y-132140487D01*
X79946966Y-132225401D01*
X79688986Y-132363294D01*
X79462866Y-132548866D01*
X79277294Y-132774986D01*
X79139401Y-133032966D01*
X79054487Y-133312889D01*
X79025815Y-133604000D01*
X76327000Y-133604000D01*
X76327000Y-126059652D01*
X79159100Y-126059652D01*
X79159100Y-126352348D01*
X79216202Y-126639421D01*
X79328212Y-126909838D01*
X79490826Y-127153206D01*
X79697794Y-127360174D01*
X79941162Y-127522788D01*
X80211579Y-127634798D01*
X80498652Y-127691900D01*
X80791348Y-127691900D01*
X81078421Y-127634798D01*
X81348838Y-127522788D01*
X81592206Y-127360174D01*
X81799174Y-127153206D01*
X81961788Y-126909838D01*
X82073798Y-126639421D01*
X82130900Y-126352348D01*
X82130900Y-126059652D01*
X82079451Y-125801000D01*
X82125279Y-125801000D01*
X82537756Y-125718953D01*
X82926302Y-125558012D01*
X83232708Y-125353279D01*
X83197127Y-125439178D01*
X83096100Y-125947076D01*
X83096100Y-126464924D01*
X83197127Y-126972822D01*
X83395299Y-127451251D01*
X83683000Y-127881826D01*
X84049174Y-128248000D01*
X84479749Y-128535701D01*
X84958178Y-128733873D01*
X85466076Y-128834900D01*
X85983924Y-128834900D01*
X86491822Y-128733873D01*
X86970251Y-128535701D01*
X87400826Y-128248000D01*
X87767000Y-127881826D01*
X88054701Y-127451251D01*
X88252873Y-126972822D01*
X88353900Y-126464924D01*
X88353900Y-125947076D01*
X88252873Y-125439178D01*
X88054701Y-124960749D01*
X87767000Y-124530174D01*
X87400826Y-124164000D01*
X86970251Y-123876299D01*
X86491822Y-123678127D01*
X85983924Y-123577100D01*
X85466076Y-123577100D01*
X84958178Y-123678127D01*
X84479749Y-123876299D01*
X84049174Y-124164000D01*
X83978763Y-124234411D01*
X84050000Y-123876279D01*
X84050000Y-123455721D01*
X83967953Y-123043244D01*
X83807012Y-122654698D01*
X83573363Y-122305017D01*
X83275983Y-122007637D01*
X82926302Y-121773988D01*
X82537756Y-121613047D01*
X82125279Y-121531000D01*
X81704721Y-121531000D01*
X81292244Y-121613047D01*
X80903698Y-121773988D01*
X80554017Y-122007637D01*
X80256637Y-122305017D01*
X80022988Y-122654698D01*
X79862047Y-123043244D01*
X79780000Y-123455721D01*
X79780000Y-123876279D01*
X79862047Y-124288756D01*
X80022988Y-124677302D01*
X80116150Y-124816730D01*
X79941162Y-124889212D01*
X79697794Y-125051826D01*
X79490826Y-125258794D01*
X79328212Y-125502162D01*
X79216202Y-125772579D01*
X79159100Y-126059652D01*
X76327000Y-126059652D01*
X76327000Y-120915721D01*
X86130000Y-120915721D01*
X86130000Y-121336279D01*
X86212047Y-121748756D01*
X86372988Y-122137302D01*
X86606637Y-122486983D01*
X86904017Y-122784363D01*
X87253698Y-123018012D01*
X87642244Y-123178953D01*
X88054721Y-123261000D01*
X88475279Y-123261000D01*
X88887756Y-123178953D01*
X89276302Y-123018012D01*
X89625983Y-122784363D01*
X89923363Y-122486983D01*
X90157012Y-122137302D01*
X90317953Y-121748756D01*
X90400000Y-121336279D01*
X90400000Y-120915721D01*
X90317953Y-120503244D01*
X90157012Y-120114698D01*
X89923363Y-119765017D01*
X89625983Y-119467637D01*
X89276302Y-119233988D01*
X88887756Y-119073047D01*
X88475279Y-118991000D01*
X88054721Y-118991000D01*
X87642244Y-119073047D01*
X87253698Y-119233988D01*
X86904017Y-119467637D01*
X86606637Y-119765017D01*
X86372988Y-120114698D01*
X86212047Y-120503244D01*
X86130000Y-120915721D01*
X76327000Y-120915721D01*
X76327000Y-112025721D01*
X81050000Y-112025721D01*
X81050000Y-112446279D01*
X81132047Y-112858756D01*
X81292988Y-113247302D01*
X81526637Y-113596983D01*
X81824017Y-113894363D01*
X82173698Y-114128012D01*
X82562244Y-114288953D01*
X82974721Y-114371000D01*
X83395279Y-114371000D01*
X83807756Y-114288953D01*
X84196302Y-114128012D01*
X84545983Y-113894363D01*
X84843363Y-113596983D01*
X85077012Y-113247302D01*
X85237953Y-112858756D01*
X85320000Y-112446279D01*
X85320000Y-112025721D01*
X85237953Y-111613244D01*
X85077012Y-111224698D01*
X84843363Y-110875017D01*
X84545983Y-110577637D01*
X84196302Y-110343988D01*
X83807756Y-110183047D01*
X83395279Y-110101000D01*
X82974721Y-110101000D01*
X82562244Y-110183047D01*
X82173698Y-110343988D01*
X81824017Y-110577637D01*
X81526637Y-110875017D01*
X81292988Y-111224698D01*
X81132047Y-111613244D01*
X81050000Y-112025721D01*
X76327000Y-112025721D01*
X76327000Y-107009652D01*
X79159100Y-107009652D01*
X79159100Y-107302348D01*
X79216202Y-107589421D01*
X79328212Y-107859838D01*
X79490826Y-108103206D01*
X79697794Y-108310174D01*
X79941162Y-108472788D01*
X80211579Y-108584798D01*
X80498652Y-108641900D01*
X80791348Y-108641900D01*
X81078421Y-108584798D01*
X81348838Y-108472788D01*
X81592206Y-108310174D01*
X81799174Y-108103206D01*
X81961788Y-107859838D01*
X82073798Y-107589421D01*
X82130900Y-107302348D01*
X82130900Y-107009652D01*
X82073798Y-106722579D01*
X81961788Y-106452162D01*
X81799174Y-106208794D01*
X81592206Y-106001826D01*
X81348838Y-105839212D01*
X81078421Y-105727202D01*
X80791348Y-105670100D01*
X80498652Y-105670100D01*
X80211579Y-105727202D01*
X79941162Y-105839212D01*
X79697794Y-106001826D01*
X79490826Y-106208794D01*
X79328212Y-106452162D01*
X79216202Y-106722579D01*
X79159100Y-107009652D01*
X76327000Y-107009652D01*
X76327000Y-99926961D01*
X82044300Y-99926961D01*
X82044300Y-100130839D01*
X82084074Y-100330798D01*
X82162095Y-100519156D01*
X82275363Y-100688674D01*
X82419526Y-100832837D01*
X82589044Y-100946105D01*
X82777402Y-101024126D01*
X82977361Y-101063900D01*
X83181239Y-101063900D01*
X83381198Y-101024126D01*
X83569556Y-100946105D01*
X83739074Y-100832837D01*
X83883237Y-100688674D01*
X83996505Y-100519156D01*
X84074526Y-100330798D01*
X84114300Y-100130839D01*
X84114300Y-99926961D01*
X84074526Y-99727002D01*
X83996505Y-99538644D01*
X83883237Y-99369126D01*
X83839300Y-99325189D01*
X83839300Y-99284101D01*
X88246300Y-94877102D01*
X88246301Y-106373312D01*
X88054701Y-105910749D01*
X87767000Y-105480174D01*
X87400826Y-105114000D01*
X86970251Y-104826299D01*
X86491822Y-104628127D01*
X85983924Y-104527100D01*
X85466076Y-104527100D01*
X84958178Y-104628127D01*
X84479749Y-104826299D01*
X84049174Y-105114000D01*
X83683000Y-105480174D01*
X83395299Y-105910749D01*
X83197127Y-106389178D01*
X83096100Y-106897076D01*
X83096100Y-107414924D01*
X83197127Y-107922822D01*
X83395299Y-108401251D01*
X83683000Y-108831826D01*
X84049174Y-109198000D01*
X84479749Y-109485701D01*
X84958178Y-109683873D01*
X85466076Y-109784900D01*
X85983924Y-109784900D01*
X86491822Y-109683873D01*
X86949700Y-109494213D01*
X86949701Y-115844868D01*
X86946024Y-115882200D01*
X86960698Y-116031185D01*
X87004154Y-116174446D01*
X87074726Y-116306476D01*
X87145901Y-116393202D01*
X87169700Y-116422201D01*
X87198698Y-116445999D01*
X87895700Y-117143002D01*
X87895700Y-117205139D01*
X87935474Y-117405098D01*
X88013495Y-117593456D01*
X88126763Y-117762974D01*
X88270926Y-117907137D01*
X88440444Y-118020405D01*
X88628802Y-118098426D01*
X88828761Y-118138200D01*
X89032639Y-118138200D01*
X89232598Y-118098426D01*
X89420956Y-118020405D01*
X89590474Y-117907137D01*
X89734637Y-117762974D01*
X89847905Y-117593456D01*
X89925926Y-117405098D01*
X89965700Y-117205139D01*
X89965700Y-117001261D01*
X89925926Y-116801302D01*
X89847905Y-116612944D01*
X89734637Y-116443426D01*
X89590474Y-116299263D01*
X89420956Y-116185995D01*
X89232598Y-116107974D01*
X89032639Y-116068200D01*
X88970502Y-116068200D01*
X88469700Y-115567399D01*
X88469700Y-111551932D01*
X88523698Y-111588012D01*
X88912244Y-111748953D01*
X89324721Y-111831000D01*
X89745279Y-111831000D01*
X90157756Y-111748953D01*
X90546302Y-111588012D01*
X90895983Y-111354363D01*
X91193363Y-111056983D01*
X91271900Y-110939444D01*
X91271901Y-124791070D01*
X91238421Y-124777202D01*
X90951348Y-124720100D01*
X90658652Y-124720100D01*
X90371579Y-124777202D01*
X90101162Y-124889212D01*
X89857794Y-125051826D01*
X89650826Y-125258794D01*
X89488212Y-125502162D01*
X89376202Y-125772579D01*
X89319100Y-126059652D01*
X89319100Y-126352348D01*
X89376202Y-126639421D01*
X89488212Y-126909838D01*
X89650826Y-127153206D01*
X89857794Y-127360174D01*
X90101162Y-127522788D01*
X90371579Y-127634798D01*
X90658652Y-127691900D01*
X90951348Y-127691900D01*
X91238421Y-127634798D01*
X91271901Y-127620930D01*
X91271901Y-132283997D01*
X89658998Y-133896901D01*
X89630000Y-133920699D01*
X89606203Y-133949696D01*
X89606201Y-133949698D01*
X89535026Y-134036424D01*
X89475425Y-134147928D01*
X89320000Y-134147928D01*
X89195518Y-134160188D01*
X89075820Y-134196498D01*
X88965506Y-134255463D01*
X88868815Y-134334815D01*
X88789463Y-134431506D01*
X88730498Y-134541820D01*
X88694188Y-134661518D01*
X88681928Y-134786000D01*
X88681928Y-136486000D01*
X88694188Y-136610482D01*
X88730498Y-136730180D01*
X88789463Y-136840494D01*
X88868815Y-136937185D01*
X88965506Y-137016537D01*
X89075820Y-137075502D01*
X89195518Y-137111812D01*
X89320000Y-137124072D01*
X91020000Y-137124072D01*
X91144482Y-137111812D01*
X91264180Y-137075502D01*
X91374494Y-137016537D01*
X91471185Y-136937185D01*
X91550537Y-136840494D01*
X91609502Y-136730180D01*
X91630393Y-136661313D01*
X91654866Y-136691134D01*
X91880986Y-136876706D01*
X92138966Y-137014599D01*
X92418889Y-137099513D01*
X92637050Y-137121000D01*
X92782950Y-137121000D01*
X93001111Y-137099513D01*
X93281034Y-137014599D01*
X93539014Y-136876706D01*
X93765134Y-136691134D01*
X93950706Y-136465014D01*
X93980000Y-136410209D01*
X94009294Y-136465014D01*
X94194866Y-136691134D01*
X94420986Y-136876706D01*
X94678966Y-137014599D01*
X94958889Y-137099513D01*
X95177050Y-137121000D01*
X95322950Y-137121000D01*
X95541111Y-137099513D01*
X95821034Y-137014599D01*
X96079014Y-136876706D01*
X96305134Y-136691134D01*
X96490706Y-136465014D01*
X96520000Y-136410209D01*
X96549294Y-136465014D01*
X96734866Y-136691134D01*
X96960986Y-136876706D01*
X97218966Y-137014599D01*
X97498889Y-137099513D01*
X97717050Y-137121000D01*
X97862950Y-137121000D01*
X98081111Y-137099513D01*
X98361034Y-137014599D01*
X98619014Y-136876706D01*
X98698500Y-136811473D01*
X98698500Y-138956898D01*
X96441399Y-141214000D01*
X96379261Y-141214000D01*
X96179302Y-141253774D01*
X95990944Y-141331795D01*
X95821426Y-141445063D01*
X95677263Y-141589226D01*
X95563995Y-141758744D01*
X95485974Y-141947102D01*
X95446200Y-142147061D01*
X95446200Y-142350939D01*
X95485974Y-142550898D01*
X95563995Y-142739256D01*
X95677263Y-142908774D01*
X95821426Y-143052937D01*
X95990944Y-143166205D01*
X96179302Y-143244226D01*
X96379261Y-143284000D01*
X96583139Y-143284000D01*
X96783098Y-143244226D01*
X96971456Y-143166205D01*
X97140974Y-143052937D01*
X97285137Y-142908774D01*
X97398405Y-142739256D01*
X97476426Y-142550898D01*
X97516200Y-142350939D01*
X97516200Y-142288801D01*
X99969504Y-139835498D01*
X99998501Y-139811701D01*
X100050625Y-139748188D01*
X100093474Y-139695977D01*
X100164046Y-139563947D01*
X100164046Y-139563946D01*
X100207503Y-139420686D01*
X100218500Y-139309033D01*
X100218500Y-139309024D01*
X100222176Y-139271701D01*
X100218500Y-139234378D01*
X100218500Y-128536123D01*
X100222176Y-128498800D01*
X100218500Y-128461477D01*
X100218500Y-128461467D01*
X100207503Y-128349814D01*
X100164046Y-128206553D01*
X100157322Y-128193974D01*
X100093474Y-128074523D01*
X100022299Y-127987797D01*
X99998501Y-127958799D01*
X99969503Y-127935001D01*
X99726402Y-127691900D01*
X99841348Y-127691900D01*
X100128421Y-127634798D01*
X100398838Y-127522788D01*
X100642206Y-127360174D01*
X100849174Y-127153206D01*
X101011788Y-126909838D01*
X101123798Y-126639421D01*
X101180900Y-126352348D01*
X101180900Y-126059652D01*
X101129451Y-125801000D01*
X101175279Y-125801000D01*
X101587756Y-125718953D01*
X101976302Y-125558012D01*
X102282708Y-125353279D01*
X102247127Y-125439178D01*
X102146100Y-125947076D01*
X102146100Y-126464924D01*
X102247127Y-126972822D01*
X102445299Y-127451251D01*
X102733000Y-127881826D01*
X103099174Y-128248000D01*
X103529749Y-128535701D01*
X104008178Y-128733873D01*
X104516076Y-128834900D01*
X105033924Y-128834900D01*
X105541822Y-128733873D01*
X106020251Y-128535701D01*
X106450826Y-128248000D01*
X106817000Y-127881826D01*
X107104701Y-127451251D01*
X107302873Y-126972822D01*
X107403900Y-126464924D01*
X107403900Y-126059652D01*
X108369100Y-126059652D01*
X108369100Y-126352348D01*
X108426202Y-126639421D01*
X108538212Y-126909838D01*
X108700826Y-127153206D01*
X108907794Y-127360174D01*
X109151162Y-127522788D01*
X109421579Y-127634798D01*
X109708652Y-127691900D01*
X110001348Y-127691900D01*
X110288421Y-127634798D01*
X110558838Y-127522788D01*
X110802206Y-127360174D01*
X111009174Y-127153206D01*
X111171788Y-126909838D01*
X111283798Y-126639421D01*
X111340900Y-126352348D01*
X111340900Y-126059652D01*
X111283798Y-125772579D01*
X111171788Y-125502162D01*
X111009174Y-125258794D01*
X110802206Y-125051826D01*
X110558838Y-124889212D01*
X110288421Y-124777202D01*
X110001348Y-124720100D01*
X109708652Y-124720100D01*
X109421579Y-124777202D01*
X109151162Y-124889212D01*
X108907794Y-125051826D01*
X108700826Y-125258794D01*
X108538212Y-125502162D01*
X108426202Y-125772579D01*
X108369100Y-126059652D01*
X107403900Y-126059652D01*
X107403900Y-125947076D01*
X107302873Y-125439178D01*
X107104701Y-124960749D01*
X106817000Y-124530174D01*
X106450826Y-124164000D01*
X106020251Y-123876299D01*
X105541822Y-123678127D01*
X105033924Y-123577100D01*
X104516076Y-123577100D01*
X104008178Y-123678127D01*
X103529749Y-123876299D01*
X103099174Y-124164000D01*
X103028763Y-124234411D01*
X103100000Y-123876279D01*
X103100000Y-123455721D01*
X103017953Y-123043244D01*
X102857012Y-122654698D01*
X102623363Y-122305017D01*
X102325983Y-122007637D01*
X101976302Y-121773988D01*
X101587756Y-121613047D01*
X101175279Y-121531000D01*
X100754721Y-121531000D01*
X100342244Y-121613047D01*
X99953698Y-121773988D01*
X99604017Y-122007637D01*
X99306637Y-122305017D01*
X99278700Y-122346828D01*
X99278700Y-120915721D01*
X105180000Y-120915721D01*
X105180000Y-121336279D01*
X105262047Y-121748756D01*
X105422988Y-122137302D01*
X105656637Y-122486983D01*
X105954017Y-122784363D01*
X106303698Y-123018012D01*
X106692244Y-123178953D01*
X107104721Y-123261000D01*
X107525279Y-123261000D01*
X107937756Y-123178953D01*
X108326302Y-123018012D01*
X108675983Y-122784363D01*
X108973363Y-122486983D01*
X109207012Y-122137302D01*
X109367953Y-121748756D01*
X109450000Y-121336279D01*
X109450000Y-120915721D01*
X109367953Y-120503244D01*
X109207012Y-120114698D01*
X108973363Y-119765017D01*
X108675983Y-119467637D01*
X108326302Y-119233988D01*
X107937756Y-119073047D01*
X107525279Y-118991000D01*
X107104721Y-118991000D01*
X106692244Y-119073047D01*
X106303698Y-119233988D01*
X105954017Y-119467637D01*
X105656637Y-119765017D01*
X105422988Y-120114698D01*
X105262047Y-120503244D01*
X105180000Y-120915721D01*
X99278700Y-120915721D01*
X99278700Y-108588204D01*
X99548652Y-108641900D01*
X99841348Y-108641900D01*
X100128421Y-108584798D01*
X100398838Y-108472788D01*
X100621031Y-108324322D01*
X100651554Y-108424946D01*
X100722126Y-108556976D01*
X100791822Y-108641900D01*
X100817100Y-108672701D01*
X100846098Y-108696499D01*
X102250599Y-110101000D01*
X102024721Y-110101000D01*
X101612244Y-110183047D01*
X101223698Y-110343988D01*
X100874017Y-110577637D01*
X100576637Y-110875017D01*
X100342988Y-111224698D01*
X100182047Y-111613244D01*
X100100000Y-112025721D01*
X100100000Y-112446279D01*
X100182047Y-112858756D01*
X100342988Y-113247302D01*
X100576637Y-113596983D01*
X100874017Y-113894363D01*
X101223698Y-114128012D01*
X101612244Y-114288953D01*
X102024721Y-114371000D01*
X102445279Y-114371000D01*
X102857756Y-114288953D01*
X103246302Y-114128012D01*
X103595983Y-113894363D01*
X103893363Y-113596983D01*
X104127012Y-113247302D01*
X104287953Y-112858756D01*
X104370000Y-112446279D01*
X104370000Y-112220401D01*
X111566500Y-119416902D01*
X111566501Y-140144388D01*
X111522563Y-140188326D01*
X111409295Y-140357844D01*
X111331274Y-140546202D01*
X111291500Y-140746161D01*
X111291500Y-140950039D01*
X111331274Y-141149998D01*
X111409295Y-141338356D01*
X111522563Y-141507874D01*
X111666726Y-141652037D01*
X111836244Y-141765305D01*
X112024602Y-141843326D01*
X112224561Y-141883100D01*
X112428439Y-141883100D01*
X112628398Y-141843326D01*
X112816756Y-141765305D01*
X112986274Y-141652037D01*
X113130437Y-141507874D01*
X113243705Y-141338356D01*
X113321726Y-141149998D01*
X113361500Y-140950039D01*
X113361500Y-140746161D01*
X113321726Y-140546202D01*
X113243705Y-140357844D01*
X113130437Y-140188326D01*
X113086500Y-140144389D01*
X113086500Y-126059652D01*
X117259100Y-126059652D01*
X117259100Y-126352348D01*
X117316202Y-126639421D01*
X117428212Y-126909838D01*
X117590826Y-127153206D01*
X117797794Y-127360174D01*
X118041162Y-127522788D01*
X118311579Y-127634798D01*
X118598652Y-127691900D01*
X118891348Y-127691900D01*
X119178421Y-127634798D01*
X119448838Y-127522788D01*
X119692206Y-127360174D01*
X119899174Y-127153206D01*
X120061788Y-126909838D01*
X120173798Y-126639421D01*
X120230900Y-126352348D01*
X120230900Y-126059652D01*
X120179451Y-125801000D01*
X120225279Y-125801000D01*
X120637756Y-125718953D01*
X121026302Y-125558012D01*
X121332708Y-125353279D01*
X121297127Y-125439178D01*
X121196100Y-125947076D01*
X121196100Y-126464924D01*
X121297127Y-126972822D01*
X121495299Y-127451251D01*
X121783000Y-127881826D01*
X122149174Y-128248000D01*
X122579749Y-128535701D01*
X123058178Y-128733873D01*
X123566076Y-128834900D01*
X124083924Y-128834900D01*
X124591822Y-128733873D01*
X125070251Y-128535701D01*
X125500826Y-128248000D01*
X125867000Y-127881826D01*
X126154701Y-127451251D01*
X126352873Y-126972822D01*
X126453900Y-126464924D01*
X126453900Y-126059652D01*
X127419100Y-126059652D01*
X127419100Y-126352348D01*
X127476202Y-126639421D01*
X127588212Y-126909838D01*
X127750826Y-127153206D01*
X127957794Y-127360174D01*
X128201162Y-127522788D01*
X128471579Y-127634798D01*
X128758652Y-127691900D01*
X129051348Y-127691900D01*
X129338421Y-127634798D01*
X129608838Y-127522788D01*
X129852206Y-127360174D01*
X130059174Y-127153206D01*
X130221788Y-126909838D01*
X130333798Y-126639421D01*
X130390900Y-126352348D01*
X130390900Y-126059652D01*
X136309100Y-126059652D01*
X136309100Y-126352348D01*
X136366202Y-126639421D01*
X136478212Y-126909838D01*
X136640826Y-127153206D01*
X136847794Y-127360174D01*
X137091162Y-127522788D01*
X137361579Y-127634798D01*
X137648652Y-127691900D01*
X137941348Y-127691900D01*
X138228421Y-127634798D01*
X138498838Y-127522788D01*
X138742206Y-127360174D01*
X138949174Y-127153206D01*
X139111788Y-126909838D01*
X139223798Y-126639421D01*
X139280900Y-126352348D01*
X139280900Y-126059652D01*
X139229451Y-125801000D01*
X139275279Y-125801000D01*
X139687756Y-125718953D01*
X140076302Y-125558012D01*
X140382708Y-125353279D01*
X140347127Y-125439178D01*
X140246100Y-125947076D01*
X140246100Y-126464924D01*
X140347127Y-126972822D01*
X140545299Y-127451251D01*
X140833000Y-127881826D01*
X141199174Y-128248000D01*
X141629749Y-128535701D01*
X142108178Y-128733873D01*
X142616076Y-128834900D01*
X143133924Y-128834900D01*
X143641822Y-128733873D01*
X144120251Y-128535701D01*
X144550826Y-128248000D01*
X144917000Y-127881826D01*
X145204701Y-127451251D01*
X145402873Y-126972822D01*
X145503900Y-126464924D01*
X145503900Y-126059652D01*
X146469100Y-126059652D01*
X146469100Y-126352348D01*
X146526202Y-126639421D01*
X146638212Y-126909838D01*
X146800826Y-127153206D01*
X147007794Y-127360174D01*
X147251162Y-127522788D01*
X147521579Y-127634798D01*
X147808652Y-127691900D01*
X148101348Y-127691900D01*
X148388421Y-127634798D01*
X148658838Y-127522788D01*
X148902206Y-127360174D01*
X149109174Y-127153206D01*
X149271788Y-126909838D01*
X149383798Y-126639421D01*
X149440900Y-126352348D01*
X149440900Y-126059652D01*
X149383798Y-125772579D01*
X149271788Y-125502162D01*
X149109174Y-125258794D01*
X148902206Y-125051826D01*
X148658838Y-124889212D01*
X148388421Y-124777202D01*
X148101348Y-124720100D01*
X147808652Y-124720100D01*
X147521579Y-124777202D01*
X147251162Y-124889212D01*
X147007794Y-125051826D01*
X146800826Y-125258794D01*
X146638212Y-125502162D01*
X146526202Y-125772579D01*
X146469100Y-126059652D01*
X145503900Y-126059652D01*
X145503900Y-125947076D01*
X145402873Y-125439178D01*
X145204701Y-124960749D01*
X144917000Y-124530174D01*
X144550826Y-124164000D01*
X144120251Y-123876299D01*
X143641822Y-123678127D01*
X143133924Y-123577100D01*
X142616076Y-123577100D01*
X142108178Y-123678127D01*
X141629749Y-123876299D01*
X141199174Y-124164000D01*
X141128763Y-124234411D01*
X141200000Y-123876279D01*
X141200000Y-123455721D01*
X141117953Y-123043244D01*
X140957012Y-122654698D01*
X140723363Y-122305017D01*
X140425983Y-122007637D01*
X140076302Y-121773988D01*
X139687756Y-121613047D01*
X139275279Y-121531000D01*
X138854721Y-121531000D01*
X138442244Y-121613047D01*
X138053698Y-121773988D01*
X137704017Y-122007637D01*
X137406637Y-122305017D01*
X137172988Y-122654698D01*
X137012047Y-123043244D01*
X136930000Y-123455721D01*
X136930000Y-123876279D01*
X137012047Y-124288756D01*
X137172988Y-124677302D01*
X137266150Y-124816730D01*
X137091162Y-124889212D01*
X136847794Y-125051826D01*
X136640826Y-125258794D01*
X136478212Y-125502162D01*
X136366202Y-125772579D01*
X136309100Y-126059652D01*
X130390900Y-126059652D01*
X130333798Y-125772579D01*
X130221788Y-125502162D01*
X130059174Y-125258794D01*
X129852206Y-125051826D01*
X129608838Y-124889212D01*
X129338421Y-124777202D01*
X129051348Y-124720100D01*
X128758652Y-124720100D01*
X128471579Y-124777202D01*
X128201162Y-124889212D01*
X127957794Y-125051826D01*
X127750826Y-125258794D01*
X127588212Y-125502162D01*
X127476202Y-125772579D01*
X127419100Y-126059652D01*
X126453900Y-126059652D01*
X126453900Y-125947076D01*
X126352873Y-125439178D01*
X126154701Y-124960749D01*
X125867000Y-124530174D01*
X125500826Y-124164000D01*
X125070251Y-123876299D01*
X124591822Y-123678127D01*
X124083924Y-123577100D01*
X123566076Y-123577100D01*
X123058178Y-123678127D01*
X122579749Y-123876299D01*
X122149174Y-124164000D01*
X122078763Y-124234411D01*
X122150000Y-123876279D01*
X122150000Y-123455721D01*
X122067953Y-123043244D01*
X121907012Y-122654698D01*
X121673363Y-122305017D01*
X121375983Y-122007637D01*
X121026302Y-121773988D01*
X120637756Y-121613047D01*
X120225279Y-121531000D01*
X119804721Y-121531000D01*
X119392244Y-121613047D01*
X119003698Y-121773988D01*
X118654017Y-122007637D01*
X118356637Y-122305017D01*
X118122988Y-122654698D01*
X117962047Y-123043244D01*
X117880000Y-123455721D01*
X117880000Y-123876279D01*
X117962047Y-124288756D01*
X118122988Y-124677302D01*
X118216150Y-124816730D01*
X118041162Y-124889212D01*
X117797794Y-125051826D01*
X117590826Y-125258794D01*
X117428212Y-125502162D01*
X117316202Y-125772579D01*
X117259100Y-126059652D01*
X113086500Y-126059652D01*
X113086500Y-120915721D01*
X124230000Y-120915721D01*
X124230000Y-121336279D01*
X124312047Y-121748756D01*
X124472988Y-122137302D01*
X124706637Y-122486983D01*
X125004017Y-122784363D01*
X125353698Y-123018012D01*
X125742244Y-123178953D01*
X126154721Y-123261000D01*
X126575279Y-123261000D01*
X126987756Y-123178953D01*
X127376302Y-123018012D01*
X127725983Y-122784363D01*
X128023363Y-122486983D01*
X128257012Y-122137302D01*
X128417953Y-121748756D01*
X128500000Y-121336279D01*
X128500000Y-120915721D01*
X143280000Y-120915721D01*
X143280000Y-121336279D01*
X143362047Y-121748756D01*
X143522988Y-122137302D01*
X143756637Y-122486983D01*
X144054017Y-122784363D01*
X144403698Y-123018012D01*
X144792244Y-123178953D01*
X145204721Y-123261000D01*
X145625279Y-123261000D01*
X146037756Y-123178953D01*
X146426302Y-123018012D01*
X146775983Y-122784363D01*
X147073363Y-122486983D01*
X147307012Y-122137302D01*
X147467953Y-121748756D01*
X147550000Y-121336279D01*
X147550000Y-120915721D01*
X147467953Y-120503244D01*
X147307012Y-120114698D01*
X147073363Y-119765017D01*
X146775983Y-119467637D01*
X146426302Y-119233988D01*
X146037756Y-119073047D01*
X145625279Y-118991000D01*
X145204721Y-118991000D01*
X144792244Y-119073047D01*
X144403698Y-119233988D01*
X144054017Y-119467637D01*
X143756637Y-119765017D01*
X143522988Y-120114698D01*
X143362047Y-120503244D01*
X143280000Y-120915721D01*
X128500000Y-120915721D01*
X128417953Y-120503244D01*
X128257012Y-120114698D01*
X128023363Y-119765017D01*
X127725983Y-119467637D01*
X127376302Y-119233988D01*
X126987756Y-119073047D01*
X126575279Y-118991000D01*
X126154721Y-118991000D01*
X125742244Y-119073047D01*
X125353698Y-119233988D01*
X125004017Y-119467637D01*
X124706637Y-119765017D01*
X124472988Y-120114698D01*
X124312047Y-120503244D01*
X124230000Y-120915721D01*
X113086500Y-120915721D01*
X113086500Y-119139422D01*
X113090176Y-119102099D01*
X113086500Y-119064776D01*
X113086500Y-119064767D01*
X113075503Y-118953114D01*
X113032046Y-118809853D01*
X112961474Y-118677824D01*
X112866501Y-118562099D01*
X112837504Y-118538302D01*
X106324923Y-112025721D01*
X119150000Y-112025721D01*
X119150000Y-112446279D01*
X119232047Y-112858756D01*
X119392988Y-113247302D01*
X119626637Y-113596983D01*
X119924017Y-113894363D01*
X120273698Y-114128012D01*
X120662244Y-114288953D01*
X121074721Y-114371000D01*
X121495279Y-114371000D01*
X121907756Y-114288953D01*
X122296302Y-114128012D01*
X122645983Y-113894363D01*
X122943363Y-113596983D01*
X123177012Y-113247302D01*
X123337953Y-112858756D01*
X123420000Y-112446279D01*
X123420000Y-112025721D01*
X138200000Y-112025721D01*
X138200000Y-112446279D01*
X138282047Y-112858756D01*
X138442988Y-113247302D01*
X138676637Y-113596983D01*
X138974017Y-113894363D01*
X139323698Y-114128012D01*
X139712244Y-114288953D01*
X140124721Y-114371000D01*
X140545279Y-114371000D01*
X140957756Y-114288953D01*
X141346302Y-114128012D01*
X141695983Y-113894363D01*
X141993363Y-113596983D01*
X142227012Y-113247302D01*
X142387953Y-112858756D01*
X142470000Y-112446279D01*
X142470000Y-112025721D01*
X142387953Y-111613244D01*
X142227012Y-111224698D01*
X141993363Y-110875017D01*
X141695983Y-110577637D01*
X141346302Y-110343988D01*
X140957756Y-110183047D01*
X140545279Y-110101000D01*
X140124721Y-110101000D01*
X139712244Y-110183047D01*
X139323698Y-110343988D01*
X138974017Y-110577637D01*
X138676637Y-110875017D01*
X138442988Y-111224698D01*
X138282047Y-111613244D01*
X138200000Y-112025721D01*
X123420000Y-112025721D01*
X123337953Y-111613244D01*
X123177012Y-111224698D01*
X122943363Y-110875017D01*
X122645983Y-110577637D01*
X122296302Y-110343988D01*
X121907756Y-110183047D01*
X121495279Y-110101000D01*
X121074721Y-110101000D01*
X120662244Y-110183047D01*
X120273698Y-110343988D01*
X119924017Y-110577637D01*
X119626637Y-110875017D01*
X119392988Y-111224698D01*
X119232047Y-111613244D01*
X119150000Y-112025721D01*
X106324923Y-112025721D01*
X103965323Y-109666122D01*
X104008178Y-109683873D01*
X104516076Y-109784900D01*
X105033924Y-109784900D01*
X105541822Y-109683873D01*
X106020251Y-109485701D01*
X106450826Y-109198000D01*
X106521237Y-109127589D01*
X106450000Y-109485721D01*
X106450000Y-109906279D01*
X106532047Y-110318756D01*
X106692988Y-110707302D01*
X106926637Y-111056983D01*
X107224017Y-111354363D01*
X107573698Y-111588012D01*
X107962244Y-111748953D01*
X108374721Y-111831000D01*
X108795279Y-111831000D01*
X109207756Y-111748953D01*
X109596302Y-111588012D01*
X109945983Y-111354363D01*
X110243363Y-111056983D01*
X110477012Y-110707302D01*
X110637953Y-110318756D01*
X110720000Y-109906279D01*
X110720000Y-109485721D01*
X110637953Y-109073244D01*
X110477012Y-108684698D01*
X110383850Y-108545270D01*
X110558838Y-108472788D01*
X110802206Y-108310174D01*
X111009174Y-108103206D01*
X111171788Y-107859838D01*
X111283798Y-107589421D01*
X111340900Y-107302348D01*
X111340900Y-107009652D01*
X111283798Y-106722579D01*
X111171788Y-106452162D01*
X111009174Y-106208794D01*
X110802206Y-106001826D01*
X110558838Y-105839212D01*
X110288421Y-105727202D01*
X110001348Y-105670100D01*
X109708652Y-105670100D01*
X109421579Y-105727202D01*
X109151162Y-105839212D01*
X108907794Y-106001826D01*
X108700826Y-106208794D01*
X108538212Y-106452162D01*
X108426202Y-106722579D01*
X108369100Y-107009652D01*
X108369100Y-107302348D01*
X108420549Y-107561000D01*
X108374721Y-107561000D01*
X107962244Y-107643047D01*
X107573698Y-107803988D01*
X107267292Y-108008721D01*
X107302873Y-107922822D01*
X107403900Y-107414924D01*
X107403900Y-106897076D01*
X107302873Y-106389178D01*
X107104701Y-105910749D01*
X106817000Y-105480174D01*
X106450826Y-105114000D01*
X106020251Y-104826299D01*
X105541822Y-104628127D01*
X105033924Y-104527100D01*
X104516076Y-104527100D01*
X104008178Y-104628127D01*
X103529749Y-104826299D01*
X103099174Y-105114000D01*
X102733000Y-105480174D01*
X102445299Y-105910749D01*
X102247127Y-106389178D01*
X102146100Y-106897076D01*
X102146100Y-107414924D01*
X102247127Y-107922822D01*
X102264878Y-107965677D01*
X102117100Y-107817899D01*
X102117100Y-103418711D01*
X102161037Y-103374774D01*
X102274305Y-103205256D01*
X102352326Y-103016898D01*
X102392100Y-102816939D01*
X102392100Y-102613061D01*
X102352326Y-102413102D01*
X102274305Y-102224744D01*
X102161037Y-102055226D01*
X102016874Y-101911063D01*
X101847356Y-101797795D01*
X101658998Y-101719774D01*
X101459039Y-101680000D01*
X101255161Y-101680000D01*
X101055202Y-101719774D01*
X100866844Y-101797795D01*
X100697326Y-101911063D01*
X100553163Y-102055226D01*
X100439895Y-102224744D01*
X100361874Y-102413102D01*
X100322100Y-102613061D01*
X100322100Y-102816939D01*
X100361874Y-103016898D01*
X100439895Y-103205256D01*
X100553163Y-103374774D01*
X100597100Y-103418711D01*
X100597101Y-105971687D01*
X100398838Y-105839212D01*
X100128421Y-105727202D01*
X99841348Y-105670100D01*
X99548652Y-105670100D01*
X99278700Y-105723796D01*
X99278700Y-102025000D01*
X99315539Y-102025000D01*
X99515498Y-101985226D01*
X99703856Y-101907205D01*
X99873374Y-101793937D01*
X100017537Y-101649774D01*
X100130805Y-101480256D01*
X100208826Y-101291898D01*
X100248600Y-101091939D01*
X100248600Y-100888061D01*
X100208826Y-100688102D01*
X100130805Y-100499744D01*
X100017537Y-100330226D01*
X99873374Y-100186063D01*
X99703856Y-100072795D01*
X99657859Y-100053742D01*
X105979602Y-93732000D01*
X111081378Y-93732000D01*
X111118700Y-93735676D01*
X111156022Y-93732000D01*
X111156033Y-93732000D01*
X111267686Y-93721003D01*
X111410947Y-93677546D01*
X111542976Y-93606974D01*
X111658701Y-93512001D01*
X111682503Y-93482998D01*
X112267904Y-92897598D01*
X112296901Y-92873801D01*
X112362085Y-92794374D01*
X112391874Y-92758077D01*
X112462446Y-92626047D01*
X112471052Y-92597676D01*
X112505903Y-92482786D01*
X112516900Y-92371133D01*
X112516900Y-92371124D01*
X112520576Y-92333801D01*
X112516900Y-92296478D01*
X112516900Y-90864801D01*
X117880000Y-85501701D01*
X117880000Y-85776479D01*
X117962047Y-86188956D01*
X118122988Y-86577502D01*
X118216150Y-86716930D01*
X118041162Y-86789412D01*
X117797794Y-86952026D01*
X117590826Y-87158994D01*
X117428212Y-87402362D01*
X117316202Y-87672779D01*
X117259100Y-87959852D01*
X117259100Y-88252548D01*
X117316202Y-88539621D01*
X117428212Y-88810038D01*
X117461796Y-88860300D01*
X117366461Y-88860300D01*
X117166502Y-88900074D01*
X116978144Y-88978095D01*
X116808626Y-89091363D01*
X116664463Y-89235526D01*
X116551195Y-89405044D01*
X116473174Y-89593402D01*
X116433400Y-89793361D01*
X116433400Y-89997239D01*
X116473174Y-90197198D01*
X116551195Y-90385556D01*
X116664463Y-90555074D01*
X116708401Y-90599012D01*
X116708400Y-109656489D01*
X116664463Y-109700426D01*
X116551195Y-109869944D01*
X116473174Y-110058302D01*
X116433400Y-110258261D01*
X116433400Y-110462139D01*
X116473174Y-110662098D01*
X116551195Y-110850456D01*
X116664463Y-111019974D01*
X116808626Y-111164137D01*
X116978144Y-111277405D01*
X117166502Y-111355426D01*
X117366461Y-111395200D01*
X117570339Y-111395200D01*
X117770298Y-111355426D01*
X117958656Y-111277405D01*
X118128174Y-111164137D01*
X118272337Y-111019974D01*
X118385605Y-110850456D01*
X118463626Y-110662098D01*
X118503400Y-110462139D01*
X118503400Y-110258261D01*
X118463626Y-110058302D01*
X118385605Y-109869944D01*
X118272337Y-109700426D01*
X118228400Y-109656489D01*
X118228400Y-108550344D01*
X118311579Y-108584798D01*
X118598652Y-108641900D01*
X118891348Y-108641900D01*
X119178421Y-108584798D01*
X119448838Y-108472788D01*
X119692206Y-108310174D01*
X119899174Y-108103206D01*
X120061788Y-107859838D01*
X120173798Y-107589421D01*
X120230900Y-107302348D01*
X120230900Y-107009652D01*
X120208508Y-106897076D01*
X121196100Y-106897076D01*
X121196100Y-107414924D01*
X121297127Y-107922822D01*
X121495299Y-108401251D01*
X121783000Y-108831826D01*
X122149174Y-109198000D01*
X122579749Y-109485701D01*
X123058178Y-109683873D01*
X123566076Y-109784900D01*
X124083924Y-109784900D01*
X124591822Y-109683873D01*
X125070251Y-109485701D01*
X125500826Y-109198000D01*
X125571237Y-109127589D01*
X125500000Y-109485721D01*
X125500000Y-109906279D01*
X125582047Y-110318756D01*
X125742988Y-110707302D01*
X125976637Y-111056983D01*
X126274017Y-111354363D01*
X126623698Y-111588012D01*
X127012244Y-111748953D01*
X127424721Y-111831000D01*
X127845279Y-111831000D01*
X128257756Y-111748953D01*
X128646302Y-111588012D01*
X128995983Y-111354363D01*
X129293363Y-111056983D01*
X129527012Y-110707302D01*
X129687953Y-110318756D01*
X129770000Y-109906279D01*
X129770000Y-109485721D01*
X129687953Y-109073244D01*
X129527012Y-108684698D01*
X129433850Y-108545270D01*
X129608838Y-108472788D01*
X129852206Y-108310174D01*
X130059174Y-108103206D01*
X130221788Y-107859838D01*
X130333798Y-107589421D01*
X130390900Y-107302348D01*
X130390900Y-107009652D01*
X136309100Y-107009652D01*
X136309100Y-107302348D01*
X136366202Y-107589421D01*
X136478212Y-107859838D01*
X136640826Y-108103206D01*
X136847794Y-108310174D01*
X137091162Y-108472788D01*
X137361579Y-108584798D01*
X137648652Y-108641900D01*
X137941348Y-108641900D01*
X138228421Y-108584798D01*
X138498838Y-108472788D01*
X138742206Y-108310174D01*
X138949174Y-108103206D01*
X139111788Y-107859838D01*
X139223798Y-107589421D01*
X139280900Y-107302348D01*
X139280900Y-107009652D01*
X139258508Y-106897076D01*
X140246100Y-106897076D01*
X140246100Y-107414924D01*
X140347127Y-107922822D01*
X140545299Y-108401251D01*
X140833000Y-108831826D01*
X141199174Y-109198000D01*
X141629749Y-109485701D01*
X142108178Y-109683873D01*
X142616076Y-109784900D01*
X143133924Y-109784900D01*
X143641822Y-109683873D01*
X144120251Y-109485701D01*
X144550826Y-109198000D01*
X144621237Y-109127589D01*
X144550000Y-109485721D01*
X144550000Y-109906279D01*
X144632047Y-110318756D01*
X144792988Y-110707302D01*
X145026637Y-111056983D01*
X145324017Y-111354363D01*
X145673698Y-111588012D01*
X146062244Y-111748953D01*
X146474721Y-111831000D01*
X146895279Y-111831000D01*
X147307756Y-111748953D01*
X147696302Y-111588012D01*
X148045983Y-111354363D01*
X148343363Y-111056983D01*
X148577012Y-110707302D01*
X148737953Y-110318756D01*
X148820000Y-109906279D01*
X148820000Y-109485721D01*
X148737953Y-109073244D01*
X148577012Y-108684698D01*
X148483850Y-108545270D01*
X148658838Y-108472788D01*
X148902206Y-108310174D01*
X149109174Y-108103206D01*
X149271788Y-107859838D01*
X149383798Y-107589421D01*
X149440900Y-107302348D01*
X149440900Y-107009652D01*
X149383798Y-106722579D01*
X149271788Y-106452162D01*
X149109174Y-106208794D01*
X148902206Y-106001826D01*
X148658838Y-105839212D01*
X148388421Y-105727202D01*
X148101348Y-105670100D01*
X147808652Y-105670100D01*
X147521579Y-105727202D01*
X147251162Y-105839212D01*
X147007794Y-106001826D01*
X146800826Y-106208794D01*
X146638212Y-106452162D01*
X146526202Y-106722579D01*
X146469100Y-107009652D01*
X146469100Y-107302348D01*
X146520549Y-107561000D01*
X146474721Y-107561000D01*
X146062244Y-107643047D01*
X145673698Y-107803988D01*
X145367292Y-108008721D01*
X145402873Y-107922822D01*
X145503900Y-107414924D01*
X145503900Y-106897076D01*
X145402873Y-106389178D01*
X145204701Y-105910749D01*
X144917000Y-105480174D01*
X144550826Y-105114000D01*
X144120251Y-104826299D01*
X143641822Y-104628127D01*
X143133924Y-104527100D01*
X142616076Y-104527100D01*
X142108178Y-104628127D01*
X141629749Y-104826299D01*
X141199174Y-105114000D01*
X140833000Y-105480174D01*
X140545299Y-105910749D01*
X140347127Y-106389178D01*
X140246100Y-106897076D01*
X139258508Y-106897076D01*
X139223798Y-106722579D01*
X139111788Y-106452162D01*
X138949174Y-106208794D01*
X138742206Y-106001826D01*
X138498838Y-105839212D01*
X138228421Y-105727202D01*
X137941348Y-105670100D01*
X137648652Y-105670100D01*
X137361579Y-105727202D01*
X137091162Y-105839212D01*
X136847794Y-106001826D01*
X136640826Y-106208794D01*
X136478212Y-106452162D01*
X136366202Y-106722579D01*
X136309100Y-107009652D01*
X130390900Y-107009652D01*
X130333798Y-106722579D01*
X130221788Y-106452162D01*
X130059174Y-106208794D01*
X129852206Y-106001826D01*
X129608838Y-105839212D01*
X129338421Y-105727202D01*
X129051348Y-105670100D01*
X128758652Y-105670100D01*
X128471579Y-105727202D01*
X128201162Y-105839212D01*
X127957794Y-106001826D01*
X127750826Y-106208794D01*
X127588212Y-106452162D01*
X127476202Y-106722579D01*
X127419100Y-107009652D01*
X127419100Y-107302348D01*
X127470549Y-107561000D01*
X127424721Y-107561000D01*
X127012244Y-107643047D01*
X126623698Y-107803988D01*
X126317292Y-108008721D01*
X126352873Y-107922822D01*
X126453900Y-107414924D01*
X126453900Y-106897076D01*
X126352873Y-106389178D01*
X126154701Y-105910749D01*
X125867000Y-105480174D01*
X125500826Y-105114000D01*
X125070251Y-104826299D01*
X124591822Y-104628127D01*
X124083924Y-104527100D01*
X123566076Y-104527100D01*
X123058178Y-104628127D01*
X122579749Y-104826299D01*
X122149174Y-105114000D01*
X121783000Y-105480174D01*
X121495299Y-105910749D01*
X121297127Y-106389178D01*
X121196100Y-106897076D01*
X120208508Y-106897076D01*
X120173798Y-106722579D01*
X120061788Y-106452162D01*
X119899174Y-106208794D01*
X119692206Y-106001826D01*
X119448838Y-105839212D01*
X119178421Y-105727202D01*
X118891348Y-105670100D01*
X118598652Y-105670100D01*
X118311579Y-105727202D01*
X118228400Y-105761656D01*
X118228400Y-90599011D01*
X118272337Y-90555074D01*
X118385605Y-90385556D01*
X118463626Y-90197198D01*
X118503400Y-89997239D01*
X118503400Y-89793361D01*
X118463626Y-89593402D01*
X118450914Y-89562713D01*
X118598652Y-89592100D01*
X118891348Y-89592100D01*
X119178421Y-89534998D01*
X119448838Y-89422988D01*
X119692206Y-89260374D01*
X119899174Y-89053406D01*
X120061788Y-88810038D01*
X120173798Y-88539621D01*
X120230900Y-88252548D01*
X120230900Y-87959852D01*
X120179451Y-87701200D01*
X120225279Y-87701200D01*
X120637756Y-87619153D01*
X121026302Y-87458212D01*
X121332708Y-87253479D01*
X121297127Y-87339378D01*
X121196100Y-87847276D01*
X121196100Y-88365124D01*
X121297127Y-88873022D01*
X121495299Y-89351451D01*
X121783000Y-89782026D01*
X122149174Y-90148200D01*
X122579749Y-90435901D01*
X123058178Y-90634073D01*
X123428721Y-90707778D01*
X123337499Y-90799000D01*
X123275361Y-90799000D01*
X123075402Y-90838774D01*
X122887044Y-90916795D01*
X122717526Y-91030063D01*
X122573363Y-91174226D01*
X122460095Y-91343744D01*
X122382074Y-91532102D01*
X122342300Y-91732061D01*
X122342300Y-91935939D01*
X122382074Y-92135898D01*
X122460095Y-92324256D01*
X122573363Y-92493774D01*
X122717526Y-92637937D01*
X122887044Y-92751205D01*
X123075402Y-92829226D01*
X123275361Y-92869000D01*
X123479239Y-92869000D01*
X123679198Y-92829226D01*
X123867556Y-92751205D01*
X124037074Y-92637937D01*
X124181237Y-92493774D01*
X124294505Y-92324256D01*
X124372526Y-92135898D01*
X124412300Y-91935939D01*
X124412300Y-91873801D01*
X127555364Y-88730737D01*
X127588212Y-88810038D01*
X127750826Y-89053406D01*
X127957794Y-89260374D01*
X128201162Y-89422988D01*
X128471579Y-89534998D01*
X128758652Y-89592100D01*
X129051348Y-89592100D01*
X129338421Y-89534998D01*
X129608838Y-89422988D01*
X129852206Y-89260374D01*
X130059174Y-89053406D01*
X130221788Y-88810038D01*
X130333798Y-88539621D01*
X130390900Y-88252548D01*
X130390900Y-87959852D01*
X136309100Y-87959852D01*
X136309100Y-88252548D01*
X136366202Y-88539621D01*
X136478212Y-88810038D01*
X136640826Y-89053406D01*
X136847794Y-89260374D01*
X137091162Y-89422988D01*
X137361579Y-89534998D01*
X137648652Y-89592100D01*
X137941348Y-89592100D01*
X138228421Y-89534998D01*
X138498838Y-89422988D01*
X138742206Y-89260374D01*
X138949174Y-89053406D01*
X139111788Y-88810038D01*
X139223798Y-88539621D01*
X139280900Y-88252548D01*
X139280900Y-87959852D01*
X139229451Y-87701200D01*
X139275279Y-87701200D01*
X139687756Y-87619153D01*
X140076302Y-87458212D01*
X140382708Y-87253479D01*
X140347127Y-87339378D01*
X140246100Y-87847276D01*
X140246100Y-88365124D01*
X140347127Y-88873022D01*
X140545299Y-89351451D01*
X140833000Y-89782026D01*
X141199174Y-90148200D01*
X141629749Y-90435901D01*
X142108178Y-90634073D01*
X142616076Y-90735100D01*
X143133924Y-90735100D01*
X143641822Y-90634073D01*
X144120251Y-90435901D01*
X144550826Y-90148200D01*
X144917000Y-89782026D01*
X145204701Y-89351451D01*
X145402873Y-88873022D01*
X145503900Y-88365124D01*
X145503900Y-87959852D01*
X146469100Y-87959852D01*
X146469100Y-88252548D01*
X146526202Y-88539621D01*
X146638212Y-88810038D01*
X146800826Y-89053406D01*
X147007794Y-89260374D01*
X147251162Y-89422988D01*
X147521579Y-89534998D01*
X147808652Y-89592100D01*
X148101348Y-89592100D01*
X148388421Y-89534998D01*
X148658838Y-89422988D01*
X148902206Y-89260374D01*
X149109174Y-89053406D01*
X149271788Y-88810038D01*
X149383798Y-88539621D01*
X149440900Y-88252548D01*
X149440900Y-87959852D01*
X149383798Y-87672779D01*
X149271788Y-87402362D01*
X149109174Y-87158994D01*
X148902206Y-86952026D01*
X148658838Y-86789412D01*
X148388421Y-86677402D01*
X148101348Y-86620300D01*
X147808652Y-86620300D01*
X147521579Y-86677402D01*
X147251162Y-86789412D01*
X147007794Y-86952026D01*
X146800826Y-87158994D01*
X146638212Y-87402362D01*
X146526202Y-87672779D01*
X146469100Y-87959852D01*
X145503900Y-87959852D01*
X145503900Y-87847276D01*
X145402873Y-87339378D01*
X145204701Y-86860949D01*
X144917000Y-86430374D01*
X144550826Y-86064200D01*
X144120251Y-85776499D01*
X143641822Y-85578327D01*
X143133924Y-85477300D01*
X142616076Y-85477300D01*
X142108178Y-85578327D01*
X141629749Y-85776499D01*
X141199174Y-86064200D01*
X141128763Y-86134611D01*
X141200000Y-85776479D01*
X141200000Y-85355921D01*
X141117953Y-84943444D01*
X140957012Y-84554898D01*
X140723363Y-84205217D01*
X140425983Y-83907837D01*
X140076302Y-83674188D01*
X139687756Y-83513247D01*
X139275279Y-83431200D01*
X138854721Y-83431200D01*
X138442244Y-83513247D01*
X138053698Y-83674188D01*
X137704017Y-83907837D01*
X137406637Y-84205217D01*
X137172988Y-84554898D01*
X137012047Y-84943444D01*
X136930000Y-85355921D01*
X136930000Y-85776479D01*
X137012047Y-86188956D01*
X137172988Y-86577502D01*
X137266150Y-86716930D01*
X137091162Y-86789412D01*
X136847794Y-86952026D01*
X136640826Y-87158994D01*
X136478212Y-87402362D01*
X136366202Y-87672779D01*
X136309100Y-87959852D01*
X130390900Y-87959852D01*
X130333798Y-87672779D01*
X130221788Y-87402362D01*
X130059174Y-87158994D01*
X129852206Y-86952026D01*
X129608838Y-86789412D01*
X129529537Y-86756565D01*
X133470181Y-82815921D01*
X143280000Y-82815921D01*
X143280000Y-83236479D01*
X143362047Y-83648956D01*
X143522988Y-84037502D01*
X143756637Y-84387183D01*
X144054017Y-84684563D01*
X144403698Y-84918212D01*
X144792244Y-85079153D01*
X145204721Y-85161200D01*
X145625279Y-85161200D01*
X146037756Y-85079153D01*
X146426302Y-84918212D01*
X146775983Y-84684563D01*
X147073363Y-84387183D01*
X147307012Y-84037502D01*
X147467953Y-83648956D01*
X147550000Y-83236479D01*
X147550000Y-82815921D01*
X147467953Y-82403444D01*
X147307012Y-82014898D01*
X147073363Y-81665217D01*
X146775983Y-81367837D01*
X146426302Y-81134188D01*
X146037756Y-80973247D01*
X145625279Y-80891200D01*
X145204721Y-80891200D01*
X144792244Y-80973247D01*
X144403698Y-81134188D01*
X144054017Y-81367837D01*
X143756637Y-81665217D01*
X143522988Y-82014898D01*
X143362047Y-82403444D01*
X143280000Y-82815921D01*
X133470181Y-82815921D01*
X137059903Y-79226199D01*
X137088901Y-79202401D01*
X137183874Y-79086676D01*
X137254446Y-78954647D01*
X137297903Y-78811386D01*
X137308900Y-78699733D01*
X137308900Y-78699724D01*
X137312576Y-78662401D01*
X137308900Y-78625078D01*
X137308900Y-73925921D01*
X138200000Y-73925921D01*
X138200000Y-74346479D01*
X138282047Y-74758956D01*
X138442988Y-75147502D01*
X138676637Y-75497183D01*
X138974017Y-75794563D01*
X139323698Y-76028212D01*
X139712244Y-76189153D01*
X140124721Y-76271200D01*
X140545279Y-76271200D01*
X140957756Y-76189153D01*
X141346302Y-76028212D01*
X141695983Y-75794563D01*
X141993363Y-75497183D01*
X142227012Y-75147502D01*
X142387953Y-74758956D01*
X142470000Y-74346479D01*
X142470000Y-73925921D01*
X142387953Y-73513444D01*
X142227012Y-73124898D01*
X141993363Y-72775217D01*
X141695983Y-72477837D01*
X141346302Y-72244188D01*
X140957756Y-72083247D01*
X140545279Y-72001200D01*
X140124721Y-72001200D01*
X139712244Y-72083247D01*
X139323698Y-72244188D01*
X138974017Y-72477837D01*
X138676637Y-72775217D01*
X138442988Y-73124898D01*
X138282047Y-73513444D01*
X138200000Y-73925921D01*
X137308900Y-73925921D01*
X137308900Y-70463178D01*
X137361579Y-70484998D01*
X137648652Y-70542100D01*
X137941348Y-70542100D01*
X138228421Y-70484998D01*
X138498838Y-70372988D01*
X138742206Y-70210374D01*
X138949174Y-70003406D01*
X139111788Y-69760038D01*
X139223798Y-69489621D01*
X139280900Y-69202548D01*
X139280900Y-68909852D01*
X139258508Y-68797276D01*
X140246100Y-68797276D01*
X140246100Y-69315124D01*
X140347127Y-69823022D01*
X140545299Y-70301451D01*
X140833000Y-70732026D01*
X141199174Y-71098200D01*
X141629749Y-71385901D01*
X142108178Y-71584073D01*
X142616076Y-71685100D01*
X143133924Y-71685100D01*
X143641822Y-71584073D01*
X144120251Y-71385901D01*
X144550826Y-71098200D01*
X144621237Y-71027789D01*
X144550000Y-71385921D01*
X144550000Y-71806479D01*
X144632047Y-72218956D01*
X144792988Y-72607502D01*
X145026637Y-72957183D01*
X145324017Y-73254563D01*
X145673698Y-73488212D01*
X146062244Y-73649153D01*
X146474721Y-73731200D01*
X146895279Y-73731200D01*
X147307756Y-73649153D01*
X147696302Y-73488212D01*
X148045983Y-73254563D01*
X148343363Y-72957183D01*
X148577012Y-72607502D01*
X148737953Y-72218956D01*
X148820000Y-71806479D01*
X148820000Y-71385921D01*
X148737953Y-70973444D01*
X148577012Y-70584898D01*
X148483850Y-70445470D01*
X148658838Y-70372988D01*
X148902206Y-70210374D01*
X149109174Y-70003406D01*
X149271788Y-69760038D01*
X149383798Y-69489621D01*
X149440900Y-69202548D01*
X149440900Y-68909852D01*
X149383798Y-68622779D01*
X149271788Y-68352362D01*
X149109174Y-68108994D01*
X148902206Y-67902026D01*
X148658838Y-67739412D01*
X148388421Y-67627402D01*
X148101348Y-67570300D01*
X147808652Y-67570300D01*
X147521579Y-67627402D01*
X147251162Y-67739412D01*
X147007794Y-67902026D01*
X146800826Y-68108994D01*
X146638212Y-68352362D01*
X146526202Y-68622779D01*
X146469100Y-68909852D01*
X146469100Y-69202548D01*
X146520549Y-69461200D01*
X146474721Y-69461200D01*
X146062244Y-69543247D01*
X145673698Y-69704188D01*
X145367292Y-69908921D01*
X145402873Y-69823022D01*
X145503900Y-69315124D01*
X145503900Y-68797276D01*
X145402873Y-68289378D01*
X145204701Y-67810949D01*
X144917000Y-67380374D01*
X144550826Y-67014200D01*
X144120251Y-66726499D01*
X143641822Y-66528327D01*
X143133924Y-66427300D01*
X142616076Y-66427300D01*
X142108178Y-66528327D01*
X141629749Y-66726499D01*
X141199174Y-67014200D01*
X140833000Y-67380374D01*
X140545299Y-67810949D01*
X140347127Y-68289378D01*
X140246100Y-68797276D01*
X139258508Y-68797276D01*
X139223798Y-68622779D01*
X139111788Y-68352362D01*
X138949174Y-68108994D01*
X138742206Y-67902026D01*
X138498838Y-67739412D01*
X138475964Y-67729937D01*
X140770602Y-65435300D01*
X140932667Y-65435300D01*
X140970000Y-65438977D01*
X141118986Y-65424303D01*
X141262247Y-65380846D01*
X141394276Y-65310274D01*
X141510001Y-65215301D01*
X141604974Y-65099576D01*
X141664575Y-64988072D01*
X141820000Y-64988072D01*
X141944482Y-64975812D01*
X142064180Y-64939502D01*
X142174494Y-64880537D01*
X142271185Y-64801185D01*
X142350537Y-64704494D01*
X142409502Y-64594180D01*
X142430393Y-64525313D01*
X142454866Y-64555134D01*
X142680986Y-64740706D01*
X142938966Y-64878599D01*
X143218889Y-64963513D01*
X143437050Y-64985000D01*
X143582950Y-64985000D01*
X143801111Y-64963513D01*
X144081034Y-64878599D01*
X144339014Y-64740706D01*
X144565134Y-64555134D01*
X144750706Y-64329014D01*
X144785201Y-64264477D01*
X144854822Y-64381355D01*
X145049731Y-64597588D01*
X145283080Y-64771641D01*
X145545901Y-64896825D01*
X145693110Y-64941476D01*
X145923000Y-64820155D01*
X145923000Y-63627000D01*
X146177000Y-63627000D01*
X146177000Y-64820155D01*
X146406890Y-64941476D01*
X146554099Y-64896825D01*
X146816920Y-64771641D01*
X147050269Y-64597588D01*
X147245178Y-64381355D01*
X147394157Y-64131252D01*
X147491481Y-63856891D01*
X147370814Y-63627000D01*
X146177000Y-63627000D01*
X145923000Y-63627000D01*
X145903000Y-63627000D01*
X145903000Y-63373000D01*
X145923000Y-63373000D01*
X145923000Y-62179845D01*
X146177000Y-62179845D01*
X146177000Y-63373000D01*
X147370814Y-63373000D01*
X147491481Y-63143109D01*
X147394157Y-62868748D01*
X147245178Y-62618645D01*
X147050269Y-62402412D01*
X146816920Y-62228359D01*
X146554099Y-62103175D01*
X146406890Y-62058524D01*
X146177000Y-62179845D01*
X145923000Y-62179845D01*
X145693110Y-62058524D01*
X145545901Y-62103175D01*
X145283080Y-62228359D01*
X145049731Y-62402412D01*
X144854822Y-62618645D01*
X144785201Y-62735523D01*
X144750706Y-62670986D01*
X144565134Y-62444866D01*
X144339014Y-62259294D01*
X144081034Y-62121401D01*
X143801111Y-62036487D01*
X143582950Y-62015000D01*
X143437050Y-62015000D01*
X143218889Y-62036487D01*
X142938966Y-62121401D01*
X142876841Y-62154607D01*
X142874701Y-62151999D01*
X142845698Y-62128197D01*
X142531104Y-61813603D01*
X142507301Y-61784599D01*
X142391576Y-61689626D01*
X142259547Y-61619054D01*
X142116286Y-61575597D01*
X142004633Y-61564600D01*
X142004622Y-61564600D01*
X141967300Y-61560924D01*
X141929978Y-61564600D01*
X140019622Y-61564600D01*
X139982299Y-61560924D01*
X139944976Y-61564600D01*
X139944967Y-61564600D01*
X139833314Y-61575597D01*
X139690053Y-61619054D01*
X139558024Y-61689626D01*
X139558022Y-61689627D01*
X139558023Y-61689627D01*
X139471296Y-61760801D01*
X139471292Y-61760805D01*
X139442299Y-61784599D01*
X139418505Y-61813592D01*
X129770000Y-71462098D01*
X129770000Y-71385921D01*
X129687953Y-70973444D01*
X129527012Y-70584898D01*
X129433850Y-70445470D01*
X129608838Y-70372988D01*
X129852206Y-70210374D01*
X130059174Y-70003406D01*
X130221788Y-69760038D01*
X130333798Y-69489621D01*
X130390900Y-69202548D01*
X130390900Y-68909852D01*
X130333798Y-68622779D01*
X130221788Y-68352362D01*
X130059174Y-68108994D01*
X129852206Y-67902026D01*
X129608838Y-67739412D01*
X129338421Y-67627402D01*
X129051348Y-67570300D01*
X128758652Y-67570300D01*
X128471579Y-67627402D01*
X128201162Y-67739412D01*
X127957794Y-67902026D01*
X127750826Y-68108994D01*
X127588212Y-68352362D01*
X127476202Y-68622779D01*
X127419100Y-68909852D01*
X127419100Y-69202548D01*
X127470549Y-69461200D01*
X127424721Y-69461200D01*
X127012244Y-69543247D01*
X126623698Y-69704188D01*
X126317292Y-69908921D01*
X126352873Y-69823022D01*
X126453900Y-69315124D01*
X126453900Y-68797276D01*
X126352873Y-68289378D01*
X126154701Y-67810949D01*
X125867000Y-67380374D01*
X125500826Y-67014200D01*
X125070251Y-66726499D01*
X124591822Y-66528327D01*
X124083924Y-66427300D01*
X123566076Y-66427300D01*
X123058178Y-66528327D01*
X122579749Y-66726499D01*
X122149174Y-67014200D01*
X121783000Y-67380374D01*
X121495299Y-67810949D01*
X121297127Y-68289378D01*
X121196100Y-68797276D01*
X121196100Y-69315124D01*
X121297127Y-69823022D01*
X121495299Y-70301451D01*
X121783000Y-70732026D01*
X122149174Y-71098200D01*
X122579749Y-71385901D01*
X123058178Y-71584073D01*
X123566076Y-71685100D01*
X124083924Y-71685100D01*
X124591822Y-71584073D01*
X125070251Y-71385901D01*
X125500826Y-71098200D01*
X125571237Y-71027789D01*
X125500000Y-71385921D01*
X125500000Y-71806479D01*
X125582047Y-72218956D01*
X125742988Y-72607502D01*
X125976637Y-72957183D01*
X126274017Y-73254563D01*
X126623698Y-73488212D01*
X127012244Y-73649153D01*
X127424721Y-73731200D01*
X127500898Y-73731200D01*
X114399700Y-86832399D01*
X114399700Y-73925921D01*
X119150000Y-73925921D01*
X119150000Y-74346479D01*
X119232047Y-74758956D01*
X119392988Y-75147502D01*
X119626637Y-75497183D01*
X119924017Y-75794563D01*
X120273698Y-76028212D01*
X120662244Y-76189153D01*
X121074721Y-76271200D01*
X121495279Y-76271200D01*
X121907756Y-76189153D01*
X122296302Y-76028212D01*
X122645983Y-75794563D01*
X122943363Y-75497183D01*
X123177012Y-75147502D01*
X123337953Y-74758956D01*
X123420000Y-74346479D01*
X123420000Y-73925921D01*
X123337953Y-73513444D01*
X123177012Y-73124898D01*
X122943363Y-72775217D01*
X122645983Y-72477837D01*
X122296302Y-72244188D01*
X121907756Y-72083247D01*
X121495279Y-72001200D01*
X121074721Y-72001200D01*
X120662244Y-72083247D01*
X120273698Y-72244188D01*
X119924017Y-72477837D01*
X119626637Y-72775217D01*
X119392988Y-73124898D01*
X119232047Y-73513444D01*
X119150000Y-73925921D01*
X114399700Y-73925921D01*
X114399700Y-69289611D01*
X114443637Y-69245674D01*
X114556905Y-69076156D01*
X114625790Y-68909852D01*
X117259100Y-68909852D01*
X117259100Y-69202548D01*
X117316202Y-69489621D01*
X117428212Y-69760038D01*
X117590826Y-70003406D01*
X117797794Y-70210374D01*
X118041162Y-70372988D01*
X118311579Y-70484998D01*
X118598652Y-70542100D01*
X118891348Y-70542100D01*
X119178421Y-70484998D01*
X119448838Y-70372988D01*
X119692206Y-70210374D01*
X119899174Y-70003406D01*
X120061788Y-69760038D01*
X120173798Y-69489621D01*
X120230900Y-69202548D01*
X120230900Y-68909852D01*
X120173798Y-68622779D01*
X120061788Y-68352362D01*
X119899174Y-68108994D01*
X119692206Y-67902026D01*
X119448838Y-67739412D01*
X119178421Y-67627402D01*
X118891348Y-67570300D01*
X118598652Y-67570300D01*
X118311579Y-67627402D01*
X118041162Y-67739412D01*
X117797794Y-67902026D01*
X117590826Y-68108994D01*
X117428212Y-68352362D01*
X117316202Y-68622779D01*
X117259100Y-68909852D01*
X114625790Y-68909852D01*
X114634926Y-68887798D01*
X114674700Y-68687839D01*
X114674700Y-68483961D01*
X114634926Y-68284002D01*
X114556905Y-68095644D01*
X114443637Y-67926126D01*
X114299474Y-67781963D01*
X114129956Y-67668695D01*
X113941598Y-67590674D01*
X113741639Y-67550900D01*
X113537761Y-67550900D01*
X113337802Y-67590674D01*
X113149444Y-67668695D01*
X112979926Y-67781963D01*
X112935989Y-67825900D01*
X112812103Y-67825900D01*
X110486934Y-65500733D01*
X110504976Y-65494276D01*
X110692764Y-65372369D01*
X110853161Y-65216169D01*
X110980003Y-65031678D01*
X111068415Y-64825987D01*
X111115000Y-64607000D01*
X111115000Y-64316904D01*
X111129978Y-64323108D01*
X111315448Y-64360000D01*
X111504552Y-64360000D01*
X111690022Y-64323108D01*
X111864731Y-64250741D01*
X112021964Y-64145681D01*
X112155681Y-64011964D01*
X112260741Y-63854731D01*
X112333108Y-63680022D01*
X112370000Y-63494552D01*
X112370000Y-63305448D01*
X116230000Y-63305448D01*
X116230000Y-63494552D01*
X116266892Y-63680022D01*
X116339259Y-63854731D01*
X116444319Y-64011964D01*
X116578036Y-64145681D01*
X116735269Y-64250741D01*
X116909978Y-64323108D01*
X117095448Y-64360000D01*
X117284552Y-64360000D01*
X117470022Y-64323108D01*
X117485000Y-64316904D01*
X117485000Y-64607000D01*
X117531585Y-64825987D01*
X117619997Y-65031678D01*
X117746839Y-65216169D01*
X117907236Y-65372369D01*
X118095024Y-65494276D01*
X118318126Y-65574119D01*
X118493000Y-65447954D01*
X118493000Y-64057000D01*
X118747000Y-64057000D01*
X118747000Y-65447954D01*
X118921874Y-65574119D01*
X119144976Y-65494276D01*
X119332764Y-65372369D01*
X119493161Y-65216169D01*
X119620003Y-65031678D01*
X119708415Y-64825987D01*
X119755000Y-64607000D01*
X119755000Y-64057000D01*
X118747000Y-64057000D01*
X118493000Y-64057000D01*
X118473000Y-64057000D01*
X118473000Y-63803000D01*
X118493000Y-63803000D01*
X118493000Y-62412046D01*
X118747000Y-62412046D01*
X118747000Y-63803000D01*
X119755000Y-63803000D01*
X119755000Y-63253000D01*
X119708415Y-63034013D01*
X119620003Y-62828322D01*
X119493161Y-62643831D01*
X119332764Y-62487631D01*
X119144976Y-62365724D01*
X118921874Y-62285881D01*
X118747000Y-62412046D01*
X118493000Y-62412046D01*
X118318126Y-62285881D01*
X118095024Y-62365724D01*
X117907236Y-62487631D01*
X117762884Y-62628206D01*
X117644731Y-62549259D01*
X117470022Y-62476892D01*
X117284552Y-62440000D01*
X117095448Y-62440000D01*
X116909978Y-62476892D01*
X116735269Y-62549259D01*
X116578036Y-62654319D01*
X116444319Y-62788036D01*
X116339259Y-62945269D01*
X116266892Y-63119978D01*
X116230000Y-63305448D01*
X112370000Y-63305448D01*
X112333108Y-63119978D01*
X112260741Y-62945269D01*
X112155681Y-62788036D01*
X112021964Y-62654319D01*
X111864731Y-62549259D01*
X111690022Y-62476892D01*
X111504552Y-62440000D01*
X111315448Y-62440000D01*
X111129978Y-62476892D01*
X110955269Y-62549259D01*
X110837116Y-62628206D01*
X110692764Y-62487631D01*
X110504976Y-62365724D01*
X110281874Y-62285881D01*
X110107000Y-62412046D01*
X110107000Y-63803000D01*
X110127000Y-63803000D01*
X110127000Y-64057000D01*
X110107000Y-64057000D01*
X110107000Y-64077000D01*
X109853000Y-64077000D01*
X109853000Y-64057000D01*
X108845000Y-64057000D01*
X108845000Y-64362322D01*
X108742944Y-64404595D01*
X108573426Y-64517863D01*
X108529489Y-64561800D01*
X105210702Y-64561800D01*
X104964500Y-64315598D01*
X104964500Y-64253461D01*
X104924726Y-64053502D01*
X104846705Y-63865144D01*
X104733437Y-63695626D01*
X104589274Y-63551463D01*
X104419756Y-63438195D01*
X104231398Y-63360174D01*
X104031439Y-63320400D01*
X103827561Y-63320400D01*
X103627602Y-63360174D01*
X103439244Y-63438195D01*
X103269726Y-63551463D01*
X103125563Y-63695626D01*
X103012295Y-63865144D01*
X102934274Y-64053502D01*
X102894500Y-64253461D01*
X102894500Y-64457339D01*
X102934274Y-64657298D01*
X103012295Y-64845656D01*
X103125563Y-65015174D01*
X103269726Y-65159337D01*
X103439244Y-65272605D01*
X103627602Y-65350626D01*
X103827561Y-65390400D01*
X103889698Y-65390400D01*
X104332100Y-65832802D01*
X104355899Y-65861801D01*
X104384897Y-65885599D01*
X104471623Y-65956774D01*
X104603653Y-66027346D01*
X104746914Y-66070803D01*
X104858567Y-66081800D01*
X104858577Y-66081800D01*
X104895900Y-66085476D01*
X104933222Y-66081800D01*
X108529489Y-66081800D01*
X108573426Y-66125737D01*
X108742944Y-66239005D01*
X108931302Y-66317026D01*
X109131261Y-66356800D01*
X109193399Y-66356800D01*
X110610589Y-67773991D01*
X110558838Y-67739412D01*
X110288421Y-67627402D01*
X110001348Y-67570300D01*
X109708652Y-67570300D01*
X109421579Y-67627402D01*
X109151162Y-67739412D01*
X108907794Y-67902026D01*
X108700826Y-68108994D01*
X108538212Y-68352362D01*
X108426202Y-68622779D01*
X108369100Y-68909852D01*
X108369100Y-69202548D01*
X108420549Y-69461200D01*
X108374721Y-69461200D01*
X107962244Y-69543247D01*
X107573698Y-69704188D01*
X107267292Y-69908921D01*
X107302873Y-69823022D01*
X107403900Y-69315124D01*
X107403900Y-68797276D01*
X107302873Y-68289378D01*
X107104701Y-67810949D01*
X106817000Y-67380374D01*
X106450826Y-67014200D01*
X106020251Y-66726499D01*
X105541822Y-66528327D01*
X105033924Y-66427300D01*
X104516076Y-66427300D01*
X104008178Y-66528327D01*
X103529749Y-66726499D01*
X103099174Y-67014200D01*
X102733000Y-67380374D01*
X102445299Y-67810949D01*
X102247127Y-68289378D01*
X102146100Y-68797276D01*
X102146100Y-69315124D01*
X102247127Y-69823022D01*
X102445299Y-70301451D01*
X102733000Y-70732026D01*
X103099174Y-71098200D01*
X103529749Y-71385901D01*
X104008178Y-71584073D01*
X104516076Y-71685100D01*
X105033924Y-71685100D01*
X105541822Y-71584073D01*
X106020251Y-71385901D01*
X106450826Y-71098200D01*
X106521237Y-71027789D01*
X106450000Y-71385921D01*
X106450000Y-71806479D01*
X106532047Y-72218956D01*
X106692988Y-72607502D01*
X106926637Y-72957183D01*
X107224017Y-73254563D01*
X107573698Y-73488212D01*
X107962244Y-73649153D01*
X108374721Y-73731200D01*
X108795279Y-73731200D01*
X109207756Y-73649153D01*
X109596302Y-73488212D01*
X109945983Y-73254563D01*
X110243363Y-72957183D01*
X110477012Y-72607502D01*
X110637953Y-72218956D01*
X110720000Y-71806479D01*
X110720000Y-71385921D01*
X110637953Y-70973444D01*
X110477012Y-70584898D01*
X110383850Y-70445470D01*
X110558838Y-70372988D01*
X110802206Y-70210374D01*
X111009174Y-70003406D01*
X111171788Y-69760038D01*
X111283798Y-69489621D01*
X111340900Y-69202548D01*
X111340900Y-68909852D01*
X111283798Y-68622779D01*
X111171788Y-68352362D01*
X111137210Y-68300612D01*
X111933505Y-69096908D01*
X111957299Y-69125901D01*
X111986292Y-69149695D01*
X111986296Y-69149699D01*
X112050694Y-69202548D01*
X112073024Y-69220874D01*
X112205053Y-69291446D01*
X112348314Y-69334903D01*
X112459967Y-69345900D01*
X112459976Y-69345900D01*
X112497299Y-69349576D01*
X112534622Y-69345900D01*
X112879700Y-69345900D01*
X112879701Y-87715497D01*
X110307203Y-90287996D01*
X110278199Y-90311799D01*
X110224219Y-90377574D01*
X110183226Y-90427524D01*
X110133764Y-90520061D01*
X110112654Y-90559554D01*
X110069197Y-90702815D01*
X110058200Y-90814468D01*
X110058200Y-90814478D01*
X110054524Y-90851800D01*
X110058200Y-90889123D01*
X110058200Y-91542989D01*
X110014263Y-91586926D01*
X109900995Y-91756444D01*
X109822974Y-91944802D01*
X109783200Y-92144761D01*
X109783200Y-92212000D01*
X105702125Y-92212000D01*
X105664800Y-92208324D01*
X105627475Y-92212000D01*
X105627467Y-92212000D01*
X105515814Y-92222997D01*
X105372553Y-92266454D01*
X105240524Y-92337026D01*
X105124799Y-92431999D01*
X105101001Y-92460997D01*
X97526400Y-100035599D01*
X97526400Y-98299122D01*
X97530076Y-98261799D01*
X97526400Y-98224476D01*
X97526400Y-98224467D01*
X97515403Y-98112814D01*
X97471946Y-97969553D01*
X97401374Y-97837524D01*
X97384923Y-97817478D01*
X100323603Y-94878799D01*
X100352601Y-94855001D01*
X100447574Y-94739276D01*
X100518146Y-94607247D01*
X100561603Y-94463986D01*
X100572600Y-94352333D01*
X100572600Y-94352325D01*
X100576276Y-94315000D01*
X100572600Y-94277675D01*
X100572600Y-90057401D01*
X102165806Y-88464195D01*
X102247127Y-88873022D01*
X102445299Y-89351451D01*
X102733000Y-89782026D01*
X103099174Y-90148200D01*
X103529749Y-90435901D01*
X104008178Y-90634073D01*
X104516076Y-90735100D01*
X105033924Y-90735100D01*
X105541822Y-90634073D01*
X106020251Y-90435901D01*
X106450826Y-90148200D01*
X106817000Y-89782026D01*
X107104701Y-89351451D01*
X107302873Y-88873022D01*
X107403900Y-88365124D01*
X107403900Y-87959852D01*
X108369100Y-87959852D01*
X108369100Y-88252548D01*
X108426202Y-88539621D01*
X108538212Y-88810038D01*
X108700826Y-89053406D01*
X108907794Y-89260374D01*
X109151162Y-89422988D01*
X109421579Y-89534998D01*
X109708652Y-89592100D01*
X110001348Y-89592100D01*
X110288421Y-89534998D01*
X110558838Y-89422988D01*
X110802206Y-89260374D01*
X111009174Y-89053406D01*
X111171788Y-88810038D01*
X111283798Y-88539621D01*
X111340900Y-88252548D01*
X111340900Y-87959852D01*
X111283798Y-87672779D01*
X111171788Y-87402362D01*
X111009174Y-87158994D01*
X110802206Y-86952026D01*
X110558838Y-86789412D01*
X110288421Y-86677402D01*
X110001348Y-86620300D01*
X109708652Y-86620300D01*
X109421579Y-86677402D01*
X109151162Y-86789412D01*
X108907794Y-86952026D01*
X108700826Y-87158994D01*
X108538212Y-87402362D01*
X108426202Y-87672779D01*
X108369100Y-87959852D01*
X107403900Y-87959852D01*
X107403900Y-87847276D01*
X107302873Y-87339378D01*
X107104701Y-86860949D01*
X106817000Y-86430374D01*
X106450826Y-86064200D01*
X106020251Y-85776499D01*
X105541822Y-85578327D01*
X105075193Y-85485509D01*
X105084046Y-85468947D01*
X105127503Y-85325686D01*
X105138500Y-85214033D01*
X105138500Y-85214025D01*
X105142176Y-85176700D01*
X105138500Y-85139375D01*
X105138500Y-82815921D01*
X105180000Y-82815921D01*
X105180000Y-83236479D01*
X105262047Y-83648956D01*
X105422988Y-84037502D01*
X105656637Y-84387183D01*
X105954017Y-84684563D01*
X106303698Y-84918212D01*
X106692244Y-85079153D01*
X107104721Y-85161200D01*
X107525279Y-85161200D01*
X107937756Y-85079153D01*
X108326302Y-84918212D01*
X108675983Y-84684563D01*
X108973363Y-84387183D01*
X109207012Y-84037502D01*
X109367953Y-83648956D01*
X109450000Y-83236479D01*
X109450000Y-82815921D01*
X109367953Y-82403444D01*
X109207012Y-82014898D01*
X108973363Y-81665217D01*
X108675983Y-81367837D01*
X108326302Y-81134188D01*
X107937756Y-80973247D01*
X107525279Y-80891200D01*
X107104721Y-80891200D01*
X106692244Y-80973247D01*
X106303698Y-81134188D01*
X105954017Y-81367837D01*
X105656637Y-81665217D01*
X105422988Y-82014898D01*
X105262047Y-82403444D01*
X105180000Y-82815921D01*
X105138500Y-82815921D01*
X105138500Y-81991111D01*
X105182437Y-81947174D01*
X105295705Y-81777656D01*
X105373726Y-81589298D01*
X105413500Y-81389339D01*
X105413500Y-81185461D01*
X105373726Y-80985502D01*
X105295705Y-80797144D01*
X105182437Y-80627626D01*
X105138500Y-80583689D01*
X105138500Y-77151411D01*
X105182437Y-77107474D01*
X105295705Y-76937956D01*
X105373726Y-76749598D01*
X105413500Y-76549639D01*
X105413500Y-76345761D01*
X105373726Y-76145802D01*
X105295705Y-75957444D01*
X105182437Y-75787926D01*
X105038274Y-75643763D01*
X104868756Y-75530495D01*
X104680398Y-75452474D01*
X104480439Y-75412700D01*
X104276561Y-75412700D01*
X104076602Y-75452474D01*
X103888244Y-75530495D01*
X103803280Y-75587266D01*
X103893363Y-75497183D01*
X104127012Y-75147502D01*
X104287953Y-74758956D01*
X104370000Y-74346479D01*
X104370000Y-73925921D01*
X104287953Y-73513444D01*
X104127012Y-73124898D01*
X103893363Y-72775217D01*
X103595983Y-72477837D01*
X103246302Y-72244188D01*
X102857756Y-72083247D01*
X102445279Y-72001200D01*
X102024721Y-72001200D01*
X101612244Y-72083247D01*
X101223698Y-72244188D01*
X100874017Y-72477837D01*
X100576637Y-72775217D01*
X100342988Y-73124898D01*
X100182047Y-73513444D01*
X100100000Y-73925921D01*
X100100000Y-74346479D01*
X100182047Y-74758956D01*
X100342988Y-75147502D01*
X100576637Y-75497183D01*
X100874017Y-75794563D01*
X101223698Y-76028212D01*
X101612244Y-76189153D01*
X102024721Y-76271200D01*
X102445279Y-76271200D01*
X102857756Y-76189153D01*
X103246302Y-76028212D01*
X103549275Y-75825772D01*
X103461295Y-75957444D01*
X103383274Y-76145802D01*
X103343500Y-76345761D01*
X103343500Y-76549639D01*
X103383274Y-76749598D01*
X103461295Y-76937956D01*
X103574563Y-77107474D01*
X103618501Y-77151412D01*
X103618500Y-80583689D01*
X103574563Y-80627626D01*
X103461295Y-80797144D01*
X103383274Y-80985502D01*
X103343500Y-81185461D01*
X103343500Y-81389339D01*
X103383274Y-81589298D01*
X103461295Y-81777656D01*
X103574563Y-81947174D01*
X103618500Y-81991111D01*
X103618501Y-84861897D01*
X103100000Y-85380398D01*
X103100000Y-85355921D01*
X103017953Y-84943444D01*
X102857012Y-84554898D01*
X102623363Y-84205217D01*
X102325983Y-83907837D01*
X101976302Y-83674188D01*
X101587756Y-83513247D01*
X101175279Y-83431200D01*
X100754721Y-83431200D01*
X100342244Y-83513247D01*
X99953698Y-83674188D01*
X99604017Y-83907837D01*
X99306637Y-84205217D01*
X99072988Y-84554898D01*
X98912047Y-84943444D01*
X98830000Y-85355921D01*
X98830000Y-85776479D01*
X98912047Y-86188956D01*
X99072988Y-86577502D01*
X99166150Y-86716930D01*
X98991162Y-86789412D01*
X98747794Y-86952026D01*
X98540826Y-87158994D01*
X98378212Y-87402362D01*
X98266202Y-87672779D01*
X98209100Y-87959852D01*
X98209100Y-88252548D01*
X98266202Y-88539621D01*
X98378212Y-88810038D01*
X98540826Y-89053406D01*
X98747794Y-89260374D01*
X98991162Y-89422988D01*
X99101492Y-89468688D01*
X99063597Y-89593615D01*
X99052600Y-89705268D01*
X99052600Y-89705278D01*
X99048924Y-89742600D01*
X99052600Y-89779923D01*
X99052601Y-94000197D01*
X98536055Y-94516744D01*
X98546926Y-94490498D01*
X98586700Y-94290539D01*
X98586700Y-94086661D01*
X98546926Y-93886702D01*
X98468905Y-93698344D01*
X98355637Y-93528826D01*
X98311700Y-93484889D01*
X98311700Y-90128722D01*
X98315376Y-90091399D01*
X98311700Y-90054076D01*
X98311700Y-90054067D01*
X98300703Y-89942414D01*
X98257246Y-89799153D01*
X98229003Y-89746314D01*
X98186674Y-89667123D01*
X98115499Y-89580397D01*
X98091701Y-89551399D01*
X98062703Y-89527601D01*
X96340600Y-87805499D01*
X96340600Y-87743361D01*
X96300826Y-87543402D01*
X96222805Y-87355044D01*
X96109537Y-87185526D01*
X95965374Y-87041363D01*
X95795856Y-86928095D01*
X95607498Y-86850074D01*
X95407539Y-86810300D01*
X95339700Y-86810300D01*
X95339700Y-80553963D01*
X95430374Y-80443476D01*
X95500946Y-80311447D01*
X95544403Y-80168186D01*
X95555400Y-80056533D01*
X95555400Y-80056523D01*
X95559076Y-80019200D01*
X95555400Y-79981877D01*
X95555400Y-77619911D01*
X95599337Y-77575974D01*
X95712605Y-77406456D01*
X95790626Y-77218098D01*
X95830400Y-77018139D01*
X95830400Y-76814261D01*
X95790626Y-76614302D01*
X95712605Y-76425944D01*
X95599337Y-76256426D01*
X95455174Y-76112263D01*
X95285656Y-75998995D01*
X95097298Y-75920974D01*
X94897339Y-75881200D01*
X94693461Y-75881200D01*
X94493502Y-75920974D01*
X94305144Y-75998995D01*
X94135626Y-76112263D01*
X93991463Y-76256426D01*
X93878195Y-76425944D01*
X93800174Y-76614302D01*
X93770141Y-76765288D01*
X93768202Y-76765674D01*
X93579844Y-76843695D01*
X93550200Y-76863502D01*
X93550200Y-68909852D01*
X98209100Y-68909852D01*
X98209100Y-69202548D01*
X98266202Y-69489621D01*
X98378212Y-69760038D01*
X98540826Y-70003406D01*
X98747794Y-70210374D01*
X98991162Y-70372988D01*
X99261579Y-70484998D01*
X99548652Y-70542100D01*
X99841348Y-70542100D01*
X100128421Y-70484998D01*
X100398838Y-70372988D01*
X100642206Y-70210374D01*
X100849174Y-70003406D01*
X101011788Y-69760038D01*
X101123798Y-69489621D01*
X101180900Y-69202548D01*
X101180900Y-68909852D01*
X101123798Y-68622779D01*
X101011788Y-68352362D01*
X100849174Y-68108994D01*
X100642206Y-67902026D01*
X100398838Y-67739412D01*
X100128421Y-67627402D01*
X99841348Y-67570300D01*
X99548652Y-67570300D01*
X99261579Y-67627402D01*
X98991162Y-67739412D01*
X98747794Y-67902026D01*
X98540826Y-68108994D01*
X98378212Y-68352362D01*
X98266202Y-68622779D01*
X98209100Y-68909852D01*
X93550200Y-68909852D01*
X93550200Y-63576711D01*
X93594137Y-63532774D01*
X93707405Y-63363256D01*
X93753074Y-63253000D01*
X108845000Y-63253000D01*
X108845000Y-63803000D01*
X109853000Y-63803000D01*
X109853000Y-62412046D01*
X109678126Y-62285881D01*
X109455024Y-62365724D01*
X109267236Y-62487631D01*
X109106839Y-62643831D01*
X108979997Y-62828322D01*
X108891585Y-63034013D01*
X108845000Y-63253000D01*
X93753074Y-63253000D01*
X93785426Y-63174898D01*
X93825200Y-62974939D01*
X93825200Y-62771061D01*
X93785426Y-62571102D01*
X93707405Y-62382744D01*
X93594137Y-62213226D01*
X93449974Y-62069063D01*
X93280456Y-61955795D01*
X93092098Y-61877774D01*
X92892139Y-61838000D01*
X92688261Y-61838000D01*
X92488302Y-61877774D01*
X92299944Y-61955795D01*
X92130426Y-62069063D01*
X91986263Y-62213226D01*
X91872995Y-62382744D01*
X91794974Y-62571102D01*
X91755200Y-62771061D01*
X91755200Y-62974939D01*
X91794974Y-63174898D01*
X91872995Y-63363256D01*
X91986263Y-63532774D01*
X92030200Y-63576711D01*
X92030200Y-65563397D01*
X89300000Y-62833199D01*
X89300000Y-62771061D01*
X89260226Y-62571102D01*
X89182205Y-62382744D01*
X89068937Y-62213226D01*
X88924774Y-62069063D01*
X88755256Y-61955795D01*
X88566898Y-61877774D01*
X88366939Y-61838000D01*
X88163061Y-61838000D01*
X87963102Y-61877774D01*
X87774744Y-61955795D01*
X87605226Y-62069063D01*
X87461063Y-62213226D01*
X87347795Y-62382744D01*
X87269774Y-62571102D01*
X87230000Y-62771061D01*
X87230000Y-62974939D01*
X87269774Y-63174898D01*
X87347795Y-63363256D01*
X87461063Y-63532774D01*
X87605226Y-63676937D01*
X87774744Y-63790205D01*
X87963102Y-63868226D01*
X88163061Y-63908000D01*
X88225199Y-63908000D01*
X91232600Y-66915403D01*
X91232600Y-67626244D01*
X90951348Y-67570300D01*
X90658652Y-67570300D01*
X90371579Y-67627402D01*
X90101162Y-67739412D01*
X89857794Y-67902026D01*
X89650826Y-68108994D01*
X89488212Y-68352362D01*
X89376202Y-68622779D01*
X89319100Y-68909852D01*
X89319100Y-69202548D01*
X89370549Y-69461200D01*
X89324721Y-69461200D01*
X88912244Y-69543247D01*
X88523698Y-69704188D01*
X88217292Y-69908921D01*
X88252873Y-69823022D01*
X88353900Y-69315124D01*
X88353900Y-68797276D01*
X88252873Y-68289378D01*
X88054701Y-67810949D01*
X87767000Y-67380374D01*
X87400826Y-67014200D01*
X86970251Y-66726499D01*
X86491822Y-66528327D01*
X85983924Y-66427300D01*
X85466076Y-66427300D01*
X84958178Y-66528327D01*
X84479749Y-66726499D01*
X84049174Y-67014200D01*
X83683000Y-67380374D01*
X83395299Y-67810949D01*
X83197127Y-68289378D01*
X83096100Y-68797276D01*
X83096100Y-69315124D01*
X83197127Y-69823022D01*
X83395299Y-70301451D01*
X83683000Y-70732026D01*
X84049174Y-71098200D01*
X84479749Y-71385901D01*
X84958178Y-71584073D01*
X85466076Y-71685100D01*
X85983924Y-71685100D01*
X86491822Y-71584073D01*
X86970251Y-71385901D01*
X87400826Y-71098200D01*
X87471237Y-71027789D01*
X87400000Y-71385921D01*
X87400000Y-71806479D01*
X87482047Y-72218956D01*
X87642988Y-72607502D01*
X87876637Y-72957183D01*
X88174017Y-73254563D01*
X88523698Y-73488212D01*
X88912244Y-73649153D01*
X89324721Y-73731200D01*
X89745279Y-73731200D01*
X90157756Y-73649153D01*
X90546302Y-73488212D01*
X90895983Y-73254563D01*
X91193363Y-72957183D01*
X91232600Y-72898460D01*
X91232601Y-86676244D01*
X90951348Y-86620300D01*
X90658652Y-86620300D01*
X90371579Y-86677402D01*
X90101162Y-86789412D01*
X89857794Y-86952026D01*
X89650826Y-87158994D01*
X89488212Y-87402362D01*
X89376202Y-87672779D01*
X89319100Y-87959852D01*
X89319100Y-88252548D01*
X89376202Y-88539621D01*
X89488212Y-88810038D01*
X89650826Y-89053406D01*
X89857794Y-89260374D01*
X90101162Y-89422988D01*
X90371579Y-89534998D01*
X90658652Y-89592100D01*
X90951348Y-89592100D01*
X91238421Y-89534998D01*
X91328938Y-89497505D01*
X91357626Y-89551176D01*
X91423630Y-89631601D01*
X91452600Y-89666901D01*
X91481598Y-89690699D01*
X92452700Y-90661802D01*
X92452700Y-90723939D01*
X92492474Y-90923898D01*
X92570495Y-91112256D01*
X92683763Y-91281774D01*
X92827926Y-91425937D01*
X92997444Y-91539205D01*
X93185802Y-91617226D01*
X93385761Y-91657000D01*
X93453100Y-91657000D01*
X93453101Y-92480397D01*
X93424798Y-92468674D01*
X93224839Y-92428900D01*
X93162702Y-92428900D01*
X92382204Y-91648403D01*
X92358401Y-91619399D01*
X92242676Y-91524426D01*
X92110647Y-91453854D01*
X91967386Y-91410397D01*
X91855733Y-91399400D01*
X91855722Y-91399400D01*
X91818400Y-91395724D01*
X91781078Y-91399400D01*
X89926523Y-91399400D01*
X89889200Y-91395724D01*
X89851877Y-91399400D01*
X89851867Y-91399400D01*
X89740214Y-91410397D01*
X89596953Y-91453854D01*
X89464923Y-91524426D01*
X89391360Y-91584798D01*
X89349199Y-91619399D01*
X89325401Y-91648397D01*
X82568303Y-98405496D01*
X82539299Y-98429299D01*
X82497817Y-98479846D01*
X82444326Y-98545024D01*
X82373755Y-98677053D01*
X82373754Y-98677054D01*
X82330297Y-98820315D01*
X82319300Y-98931968D01*
X82319300Y-98931978D01*
X82315624Y-98969300D01*
X82319300Y-99006623D01*
X82319300Y-99325189D01*
X82275363Y-99369126D01*
X82162095Y-99538644D01*
X82084074Y-99727002D01*
X82044300Y-99926961D01*
X76327000Y-99926961D01*
X76327000Y-87959852D01*
X79159100Y-87959852D01*
X79159100Y-88252548D01*
X79216202Y-88539621D01*
X79328212Y-88810038D01*
X79490826Y-89053406D01*
X79697794Y-89260374D01*
X79941162Y-89422988D01*
X80211579Y-89534998D01*
X80498652Y-89592100D01*
X80791348Y-89592100D01*
X81078421Y-89534998D01*
X81348838Y-89422988D01*
X81592206Y-89260374D01*
X81799174Y-89053406D01*
X81961788Y-88810038D01*
X82073798Y-88539621D01*
X82130900Y-88252548D01*
X82130900Y-87959852D01*
X82079451Y-87701200D01*
X82125279Y-87701200D01*
X82537756Y-87619153D01*
X82926302Y-87458212D01*
X83232708Y-87253479D01*
X83197127Y-87339378D01*
X83096100Y-87847276D01*
X83096100Y-88365124D01*
X83197127Y-88873022D01*
X83395299Y-89351451D01*
X83683000Y-89782026D01*
X84049174Y-90148200D01*
X84479749Y-90435901D01*
X84958178Y-90634073D01*
X85466076Y-90735100D01*
X85983924Y-90735100D01*
X86491822Y-90634073D01*
X86970251Y-90435901D01*
X87400826Y-90148200D01*
X87767000Y-89782026D01*
X88054701Y-89351451D01*
X88252873Y-88873022D01*
X88353900Y-88365124D01*
X88353900Y-87847276D01*
X88252873Y-87339378D01*
X88054701Y-86860949D01*
X87767000Y-86430374D01*
X87400826Y-86064200D01*
X86970251Y-85776499D01*
X86491822Y-85578327D01*
X85983924Y-85477300D01*
X85466076Y-85477300D01*
X84958178Y-85578327D01*
X84479749Y-85776499D01*
X84049174Y-86064200D01*
X83978763Y-86134611D01*
X84050000Y-85776479D01*
X84050000Y-85355921D01*
X83967953Y-84943444D01*
X83807012Y-84554898D01*
X83573363Y-84205217D01*
X83275983Y-83907837D01*
X82926302Y-83674188D01*
X82537756Y-83513247D01*
X82125279Y-83431200D01*
X81704721Y-83431200D01*
X81292244Y-83513247D01*
X80903698Y-83674188D01*
X80554017Y-83907837D01*
X80256637Y-84205217D01*
X80022988Y-84554898D01*
X79862047Y-84943444D01*
X79780000Y-85355921D01*
X79780000Y-85776479D01*
X79862047Y-86188956D01*
X80022988Y-86577502D01*
X80116150Y-86716930D01*
X79941162Y-86789412D01*
X79697794Y-86952026D01*
X79490826Y-87158994D01*
X79328212Y-87402362D01*
X79216202Y-87672779D01*
X79159100Y-87959852D01*
X76327000Y-87959852D01*
X76327000Y-82815921D01*
X86130000Y-82815921D01*
X86130000Y-83236479D01*
X86212047Y-83648956D01*
X86372988Y-84037502D01*
X86606637Y-84387183D01*
X86904017Y-84684563D01*
X87253698Y-84918212D01*
X87642244Y-85079153D01*
X88054721Y-85161200D01*
X88475279Y-85161200D01*
X88887756Y-85079153D01*
X89276302Y-84918212D01*
X89625983Y-84684563D01*
X89923363Y-84387183D01*
X90157012Y-84037502D01*
X90317953Y-83648956D01*
X90400000Y-83236479D01*
X90400000Y-82815921D01*
X90317953Y-82403444D01*
X90157012Y-82014898D01*
X89923363Y-81665217D01*
X89625983Y-81367837D01*
X89276302Y-81134188D01*
X88887756Y-80973247D01*
X88475279Y-80891200D01*
X88054721Y-80891200D01*
X87642244Y-80973247D01*
X87253698Y-81134188D01*
X86904017Y-81367837D01*
X86606637Y-81665217D01*
X86372988Y-82014898D01*
X86212047Y-82403444D01*
X86130000Y-82815921D01*
X76327000Y-82815921D01*
X76327000Y-73925921D01*
X81050000Y-73925921D01*
X81050000Y-74346479D01*
X81132047Y-74758956D01*
X81292988Y-75147502D01*
X81526637Y-75497183D01*
X81824017Y-75794563D01*
X82173698Y-76028212D01*
X82562244Y-76189153D01*
X82974721Y-76271200D01*
X83395279Y-76271200D01*
X83807756Y-76189153D01*
X84196302Y-76028212D01*
X84545983Y-75794563D01*
X84843363Y-75497183D01*
X85077012Y-75147502D01*
X85237953Y-74758956D01*
X85320000Y-74346479D01*
X85320000Y-73925921D01*
X85237953Y-73513444D01*
X85077012Y-73124898D01*
X84843363Y-72775217D01*
X84545983Y-72477837D01*
X84196302Y-72244188D01*
X83807756Y-72083247D01*
X83395279Y-72001200D01*
X82974721Y-72001200D01*
X82562244Y-72083247D01*
X82173698Y-72244188D01*
X81824017Y-72477837D01*
X81526637Y-72775217D01*
X81292988Y-73124898D01*
X81132047Y-73513444D01*
X81050000Y-73925921D01*
X76327000Y-73925921D01*
X76327000Y-68909852D01*
X79159100Y-68909852D01*
X79159100Y-69202548D01*
X79216202Y-69489621D01*
X79328212Y-69760038D01*
X79490826Y-70003406D01*
X79697794Y-70210374D01*
X79941162Y-70372988D01*
X80211579Y-70484998D01*
X80498652Y-70542100D01*
X80791348Y-70542100D01*
X81078421Y-70484998D01*
X81348838Y-70372988D01*
X81592206Y-70210374D01*
X81799174Y-70003406D01*
X81961788Y-69760038D01*
X82073798Y-69489621D01*
X82130900Y-69202548D01*
X82130900Y-68909852D01*
X82073798Y-68622779D01*
X81961788Y-68352362D01*
X81799174Y-68108994D01*
X81592206Y-67902026D01*
X81348838Y-67739412D01*
X81078421Y-67627402D01*
X80791348Y-67570300D01*
X80498652Y-67570300D01*
X80211579Y-67627402D01*
X79941162Y-67739412D01*
X79697794Y-67902026D01*
X79490826Y-68108994D01*
X79328212Y-68352362D01*
X79216202Y-68622779D01*
X79159100Y-68909852D01*
X76327000Y-68909852D01*
X76327000Y-62282606D01*
X78792606Y-59817000D01*
X108845000Y-59817000D01*
X108845000Y-60177000D01*
G36*
X96226399Y-102249201D02*
G01*
X96255403Y-102273004D01*
X96455101Y-102472702D01*
X96455100Y-109563089D01*
X96411163Y-109607026D01*
X96297895Y-109776544D01*
X96219874Y-109964902D01*
X96180100Y-110164861D01*
X96180100Y-110368739D01*
X96219874Y-110568698D01*
X96297895Y-110757056D01*
X96411163Y-110926574D01*
X96555326Y-111070737D01*
X96724844Y-111184005D01*
X96913202Y-111262026D01*
X97113161Y-111301800D01*
X97317039Y-111301800D01*
X97516998Y-111262026D01*
X97705356Y-111184005D01*
X97758701Y-111148361D01*
X97758700Y-127521678D01*
X97755024Y-127559000D01*
X97758700Y-127596322D01*
X97758700Y-127596332D01*
X97769697Y-127707985D01*
X97795563Y-127793254D01*
X97813154Y-127851246D01*
X97883726Y-127983276D01*
X97923571Y-128031826D01*
X97978699Y-128099001D01*
X98007702Y-128122804D01*
X98698501Y-128813603D01*
X98698500Y-134460527D01*
X98619014Y-134395294D01*
X98543246Y-134354795D01*
X98539003Y-134311714D01*
X98495546Y-134168453D01*
X98424974Y-134036424D01*
X98330001Y-133920699D01*
X98301003Y-133896901D01*
X95869200Y-131465099D01*
X95869200Y-105377433D01*
X95872877Y-105340100D01*
X95858203Y-105191114D01*
X95814746Y-105047853D01*
X95744174Y-104915824D01*
X95649201Y-104800099D01*
X95620204Y-104776302D01*
X93631143Y-102787242D01*
X93810198Y-102751626D01*
X93998556Y-102673605D01*
X94168074Y-102560337D01*
X94193572Y-102534839D01*
X94223195Y-102606356D01*
X94336463Y-102775874D01*
X94480626Y-102920037D01*
X94650144Y-103033305D01*
X94838502Y-103111326D01*
X95038461Y-103151100D01*
X95242339Y-103151100D01*
X95442298Y-103111326D01*
X95630656Y-103033305D01*
X95800174Y-102920037D01*
X95944337Y-102775874D01*
X96057605Y-102606356D01*
X96135626Y-102417998D01*
X96175400Y-102218039D01*
X96175400Y-102187058D01*
X96226399Y-102249201D01*
X96226399Y-102249201D01*
G37*
X96226399Y-102249201D02*
X96255403Y-102273004D01*
X96455101Y-102472702D01*
X96455100Y-109563089D01*
X96411163Y-109607026D01*
X96297895Y-109776544D01*
X96219874Y-109964902D01*
X96180100Y-110164861D01*
X96180100Y-110368739D01*
X96219874Y-110568698D01*
X96297895Y-110757056D01*
X96411163Y-110926574D01*
X96555326Y-111070737D01*
X96724844Y-111184005D01*
X96913202Y-111262026D01*
X97113161Y-111301800D01*
X97317039Y-111301800D01*
X97516998Y-111262026D01*
X97705356Y-111184005D01*
X97758701Y-111148361D01*
X97758700Y-127521678D01*
X97755024Y-127559000D01*
X97758700Y-127596322D01*
X97758700Y-127596332D01*
X97769697Y-127707985D01*
X97795563Y-127793254D01*
X97813154Y-127851246D01*
X97883726Y-127983276D01*
X97923571Y-128031826D01*
X97978699Y-128099001D01*
X98007702Y-128122804D01*
X98698501Y-128813603D01*
X98698500Y-134460527D01*
X98619014Y-134395294D01*
X98543246Y-134354795D01*
X98539003Y-134311714D01*
X98495546Y-134168453D01*
X98424974Y-134036424D01*
X98330001Y-133920699D01*
X98301003Y-133896901D01*
X95869200Y-131465099D01*
X95869200Y-105377433D01*
X95872877Y-105340100D01*
X95858203Y-105191114D01*
X95814746Y-105047853D01*
X95744174Y-104915824D01*
X95649201Y-104800099D01*
X95620204Y-104776302D01*
X93631143Y-102787242D01*
X93810198Y-102751626D01*
X93998556Y-102673605D01*
X94168074Y-102560337D01*
X94193572Y-102534839D01*
X94223195Y-102606356D01*
X94336463Y-102775874D01*
X94480626Y-102920037D01*
X94650144Y-103033305D01*
X94838502Y-103111326D01*
X95038461Y-103151100D01*
X95242339Y-103151100D01*
X95442298Y-103111326D01*
X95630656Y-103033305D01*
X95800174Y-102920037D01*
X95944337Y-102775874D01*
X96057605Y-102606356D01*
X96135626Y-102417998D01*
X96175400Y-102218039D01*
X96175400Y-102187058D01*
X96226399Y-102249201D01*
G36*
X96006401Y-98576602D02*
G01*
X96006400Y-101549210D01*
X95944337Y-101456326D01*
X95800174Y-101312163D01*
X95630656Y-101198895D01*
X95442298Y-101120874D01*
X95242339Y-101081100D01*
X95180202Y-101081100D01*
X94718700Y-100619599D01*
X94718700Y-98759629D01*
X94832402Y-98806726D01*
X95032361Y-98846500D01*
X95236239Y-98846500D01*
X95436198Y-98806726D01*
X95624556Y-98728705D01*
X95794074Y-98615437D01*
X95838011Y-98571500D01*
X96001299Y-98571500D01*
X96006401Y-98576602D01*
X96006401Y-98576602D01*
G37*
X96006401Y-98576602D02*
X96006400Y-101549210D01*
X95944337Y-101456326D01*
X95800174Y-101312163D01*
X95630656Y-101198895D01*
X95442298Y-101120874D01*
X95242339Y-101081100D01*
X95180202Y-101081100D01*
X94718700Y-100619599D01*
X94718700Y-98759629D01*
X94832402Y-98806726D01*
X95032361Y-98846500D01*
X95236239Y-98846500D01*
X95436198Y-98806726D01*
X95624556Y-98728705D01*
X95794074Y-98615437D01*
X95838011Y-98571500D01*
X96001299Y-98571500D01*
X96006401Y-98576602D01*
G36*
X96791701Y-90406203D02*
G01*
X96791700Y-93484889D01*
X96747763Y-93528826D01*
X96634495Y-93698344D01*
X96556474Y-93886702D01*
X96516700Y-94086661D01*
X96516700Y-94290539D01*
X96556474Y-94490498D01*
X96634495Y-94678856D01*
X96747763Y-94848374D01*
X96891926Y-94992537D01*
X97061444Y-95105805D01*
X97249802Y-95183826D01*
X97449761Y-95223600D01*
X97653639Y-95223600D01*
X97853598Y-95183826D01*
X97879844Y-95172955D01*
X96001299Y-97051500D01*
X95838011Y-97051500D01*
X95794074Y-97007563D01*
X95624556Y-96894295D01*
X95436198Y-96816274D01*
X95435979Y-96816230D01*
X95466903Y-96714286D01*
X95477900Y-96602633D01*
X95477900Y-96602623D01*
X95481576Y-96565300D01*
X95477900Y-96527977D01*
X95477900Y-89092401D01*
X96791701Y-90406203D01*
X96791701Y-90406203D01*
G37*
X96791701Y-90406203D02*
X96791700Y-93484889D01*
X96747763Y-93528826D01*
X96634495Y-93698344D01*
X96556474Y-93886702D01*
X96516700Y-94086661D01*
X96516700Y-94290539D01*
X96556474Y-94490498D01*
X96634495Y-94678856D01*
X96747763Y-94848374D01*
X96891926Y-94992537D01*
X97061444Y-95105805D01*
X97249802Y-95183826D01*
X97449761Y-95223600D01*
X97653639Y-95223600D01*
X97853598Y-95183826D01*
X97879844Y-95172955D01*
X96001299Y-97051500D01*
X95838011Y-97051500D01*
X95794074Y-97007563D01*
X95624556Y-96894295D01*
X95436198Y-96816274D01*
X95435979Y-96816230D01*
X95466903Y-96714286D01*
X95477900Y-96602633D01*
X95477900Y-96602623D01*
X95481576Y-96565300D01*
X95477900Y-96527977D01*
X95477900Y-89092401D01*
X96791701Y-90406203D01*
M02*
