  0
SECTION
  2
HEADER
  9
$ANGBASE
  50
0.0
  9
$ANGDIR
  70
  1
  9
$MEASUREMENT
  70
0
  0
ENDSEC
  0
SECTION
  2
TABLES
  0
TABLE
  2
LTYPE
  70
4
  0
LTYPE
  5
40F
  2
CONTINUOUS
  70
0
  3
Solid line
  72
65
  73
0
  40
0.0
  0
LTYPE
  5
410
  2
DASHDOT
 70
0
  3
Dash Dot ____ _ ____ _
 72
65
 73
4
 40
2.0
 49
1.25
 49
-0.25
 49
0.25
 49
-0.25
  0
LTYPE
  5
411
  2
DASHED
 70
0
  3
Dashed __ __ __ __ __
 72
65
 73
2
 40
0.75
 49
0.5
 49
-0.25
  0
LTYPE
  5
43B
  2
DOTTED
 70
0
  3
Dotted .  .  .  .
 72
65
 73
2
 40
0.2
 49
0.0
 49
-0.2
  0
ENDTAB
  0
TABLE
  2
STYLE
  70
4
  0
STYLE
  2
KICAD
  70
0
  40
0
  41
1
  42
1
  50
0
  71
0
  3
isocp.shx
  0
STYLE
  2
KICADB
  70
0
  40
0
  41
1
  42
1
  50
0
  71
0
  3
isocp.shx
  0
STYLE
  2
KICADI
  70
0
  40
0
  41
1
  42
1
  50
15
  71
0
  3
isocp.shx
  0
STYLE
  2
KICADBI
  70
0
  40
0
  41
1
  42
1
  50
15
  71
0
  3
isocp.shx
  0
ENDTAB
  0
TABLE
  2
LAYER
  70
30
  0
LAYER
  2
BLACK
  70
0
  62
7
  6
CONTINUOUS
  0
LAYER
  2
GRAY1
  70
0
  62
251
  6
CONTINUOUS
  0
LAYER
  2
GRAY2
  70
0
  62
8
  6
CONTINUOUS
  0
LAYER
  2
GRAY3
  70
0
  62
9
  6
CONTINUOUS
  0
LAYER
  2
WHITE
  70
0
  62
7
  6
CONTINUOUS
  0
LAYER
  2
LYELLOW
  70
0
  62
51
  6
CONTINUOUS
  0
LAYER
  2
BLUE1
  70
0
  62
178
  6
CONTINUOUS
  0
LAYER
  2
GREEN1
  70
0
  62
98
  6
CONTINUOUS
  0
LAYER
  2
CYAN1
  70
0
  62
138
  6
CONTINUOUS
  0
LAYER
  2
RED1
  70
0
  62
18
  6
CONTINUOUS
  0
LAYER
  2
MAGENTA1
  70
0
  62
228
  6
CONTINUOUS
  0
LAYER
  2
BROWN1
  70
0
  62
58
  6
CONTINUOUS
  0
LAYER
  2
BLUE2
  70
0
  62
5
  6
CONTINUOUS
  0
LAYER
  2
GREEN2
  70
0
  62
3
  6
CONTINUOUS
  0
LAYER
  2
CYAN2
  70
0
  62
4
  6
CONTINUOUS
  0
LAYER
  2
RED2
  70
0
  62
1
  6
CONTINUOUS
  0
LAYER
  2
MAGENTA2
  70
0
  62
6
  6
CONTINUOUS
  0
LAYER
  2
BROWN2
  70
0
  62
54
  6
CONTINUOUS
  0
LAYER
  2
BLUE3
  70
0
  62
171
  6
CONTINUOUS
  0
LAYER
  2
GREEN3
  70
0
  62
91
  6
CONTINUOUS
  0
LAYER
  2
CYAN3
  70
0
  62
131
  6
CONTINUOUS
  0
LAYER
  2
RED3
  70
0
  62
11
  6
CONTINUOUS
  0
LAYER
  2
MAGENTA3
  70
0
  62
221
  6
CONTINUOUS
  0
LAYER
  2
YELLOW3
  70
0
  62
2
  6
CONTINUOUS
  0
LAYER
  2
BLUE4
  70
0
  62
5
  6
CONTINUOUS
  0
LAYER
  2
GREEN4
  70
0
  62
3
  6
CONTINUOUS
  0
LAYER
  2
CYAN4
  70
0
  62
4
  6
CONTINUOUS
  0
LAYER
  2
RED4
  70
0
  62
1
  6
CONTINUOUS
  0
LAYER
  2
MAGENTA4
  70
0
  62
6
  6
CONTINUOUS
  0
LAYER
  2
YELLOW4
  70
0
  62
2
  6
CONTINUOUS
  0
ENDTAB
  0
ENDSEC
  0
SECTION
  2
ENTITIES
0
LINE
8
BLACK
6
CONTINUOUS
10
56.642
20
-122.428
11
56.642
21
-129.54
0
LINE
8
BLACK
6
CONTINUOUS
10
53.721
20
-129.54
11
53.721
21
-122.428
0
LINE
8
BLACK
6
CONTINUOUS
10
53.721
20
-122.428
11
56.642
21
-122.428
0
LINE
8
BLACK
6
CONTINUOUS
10
56.642
20
-129.54
11
53.721
21
-129.54
0
LINE
8
BLACK
6
CONTINUOUS
10
148.59
20
-50.165
11
224.79
21
-50.165
0
LINE
8
BLACK
6
CONTINUOUS
10
224.79
20
26.67
11
148.59
21
26.67
0
LINE
8
BLACK
6
CONTINUOUS
10
148.59
20
26.67
11
148.59
21
-50.165
0
LINE
8
BLACK
6
CONTINUOUS
10
224.79
20
-50.165
11
224.79
21
26.67
0
CIRCLE
8
BLACK
10
144.78
20
-65.405
40
1.27
0
LINE
8
BLACK
6
CONTINUOUS
10
146.05
20
-70.485
11
227.33
21
-70.485
0
LINE
8
BLACK
6
CONTINUOUS
10
233.68
20
-64.135
11
233.68
21
28.575
0
CIRCLE
8
BLACK
10
172.72
20
31.115
40
1.27
0
ARC
8
BLACK
10
146.05
20
28.575
40
6.35
50
90
51
180
0
CIRCLE
8
BLACK
10
228.6
20
29.845
40
1.27
0
CIRCLE
8
BLACK
10
200.66
20
31.115
40
1.27
0
CIRCLE
8
BLACK
10
228.6
20
-65.405
40
1.27
0
LINE
8
BLACK
6
CONTINUOUS
10
227.33
20
34.925
11
146.05
21
34.925
0
ARC
8
BLACK
10
227.33
20
-64.135
40
6.35
50
-90
51
-0
0
ARC
8
BLACK
10
146.05
20
-64.135
40
6.35
50
180
51
270
0
LINE
8
BLACK
6
CONTINUOUS
10
139.7
20
28.575
11
139.7
21
-64.135
0
ARC
8
BLACK
10
227.33
20
28.575
40
6.35
50
-0
51
90
0
CIRCLE
8
BLACK
10
144.78
20
29.845
40
1.27
0
LINE
8
BLACK
6
CONTINUOUS
10
226.06
20
-164.465
11
226.06
21
-87.63
0
LINE
8
BLACK
6
CONTINUOUS
10
149.86
20
-164.465
11
226.06
21
-164.465
0
LINE
8
BLACK
6
CONTINUOUS
10
149.86
20
-87.63
11
149.86
21
-164.465
0
LINE
8
BLACK
6
CONTINUOUS
10
226.06
20
-87.63
11
149.86
21
-87.63
0
LINE
8
BLACK
6
CONTINUOUS
10
147.32
20
-184.785
11
228.6
21
-184.785
0
CIRCLE
8
BLACK
10
229.87
20
-179.705
40
1.79605
0
LINE
8
BLACK
6
CONTINUOUS
10
228.6
20
-79.375
11
147.32
21
-79.375
0
LINE
8
BLACK
6
CONTINUOUS
10
234.95
20
-178.435
11
234.95
21
-85.725
0
CIRCLE
8
BLACK
10
146.05
20
-179.705
40
1.79605
0
ARC
8
BLACK
10
228.6
20
-85.725
40
6.35
50
-0
51
90
0
ARC
8
BLACK
10
147.32
20
-178.435
40
6.35
50
180
51
270
0
ARC
8
BLACK
10
228.6
20
-178.435
40
6.35
50
-90
51
-0
0
CIRCLE
8
BLACK
10
229.87
20
-84.455
40
1.79605
0
CIRCLE
8
BLACK
10
201.93
20
-83.185
40
1.79605
0
CIRCLE
8
BLACK
10
173.99
20
-83.185
40
1.79605
0
LINE
8
BLACK
6
CONTINUOUS
10
140.97
20
-85.725
11
140.97
21
-178.435
0
CIRCLE
8
BLACK
10
146.05
20
-84.455
40
1.79605
0
ARC
8
BLACK
10
147.32
20
-85.725
40
6.35
50
90
51
180
0
LINE
8
BLACK
6
CONTINUOUS
10
78.105
20
-86.36
11
89.535
21
-86.36
0
LINE
8
BLACK
6
CONTINUOUS
10
94.615
20
-79.375
11
124.46
21
-79.375
0
LINE
8
BLACK
6
CONTINUOUS
10
89.535
20
-86.36
11
94.615
21
-79.375
0
LINE
8
BLACK
6
CONTINUOUS
10
78.105
20
-86.36
11
72.39
21
-79.375
0
LINE
8
BLACK
6
CONTINUOUS
10
198.755
20
-194.945
11
228.6
21
-194.945
0
LINE
8
BLACK
6
CONTINUOUS
10
193.675
20
-201.93
11
223.52
21
-201.93
0
LINE
8
BLACK
6
CONTINUOUS
10
193.675
20
-201.93
11
198.755
21
-194.945
0
LINE
8
BLACK
6
CONTINUOUS
10
182.245
20
-201.93
11
176.53
21
-194.945
0
LINE
8
BLACK
6
CONTINUOUS
10
227.965
20
-206.375
11
227.965
21
-288.925
0
LINE
8
BLACK
6
CONTINUOUS
10
152.4
20
-293.37
11
147.955
21
-288.925
0
LINE
8
BLACK
6
CONTINUOUS
10
152.4
20
-201.93
11
182.245
21
-201.93
0
LINE
8
BLACK
6
CONTINUOUS
10
147.32
20
-300.355
11
228.6
21
-300.355
0
ARC
8
BLACK
10
147.32
20
-294.005
40
6.35
50
180
51
270
0
ARC
8
BLACK
10
147.32
20
-201.295
40
6.35
50
90
51
180
0
CIRCLE
8
BLACK
10
229.87
20
-200.025
40
1.79605
0
CIRCLE
8
BLACK
10
146.05
20
-295.275
40
1.79605
0
LINE
8
BLACK
6
CONTINUOUS
10
227.965
20
-288.925
11
223.52
21
-293.37
0
ARC
8
BLACK
10
228.6
20
-294.005
40
6.35
50
-90
51
-0
0
LINE
8
BLACK
6
CONTINUOUS
10
223.52
20
-293.37
11
152.4
21
-293.37
0
LINE
8
BLACK
6
CONTINUOUS
10
147.955
20
-288.925
11
147.955
21
-206.375
0
LINE
8
BLACK
6
CONTINUOUS
10
234.95
20
-294.005
11
234.95
21
-201.295
0
ARC
8
BLACK
10
228.6
20
-201.295
40
6.35
50
-0
51
90
0
CIRCLE
8
BLACK
10
229.87
20
-295.275
40
1.79605
0
LINE
8
BLACK
6
CONTINUOUS
10
176.53
20
-194.945
11
147.32
21
-194.945
0
CIRCLE
8
BLACK
10
173.99
20
-198.755
40
1.79605
0
LINE
8
BLACK
6
CONTINUOUS
10
147.955
20
-206.375
11
152.4
21
-201.93
0
CIRCLE
8
BLACK
10
146.05
20
-200.025
40
1.79605
0
CIRCLE
8
BLACK
10
201.93
20
-198.755
40
1.79605
0
LINE
8
BLACK
6
CONTINUOUS
10
223.52
20
-201.93
11
227.965
21
-206.375
0
LINE
8
BLACK
6
CONTINUOUS
10
140.97
20
-201.295
11
140.97
21
-294.005
0
CIRCLE
8
BLACK
10
41.91
20
-200.025
40
1.79605
0
LINE
8
BLACK
6
CONTINUOUS
10
48.26
20
-293.37
11
43.815
21
-288.925
0
LINE
8
BLACK
6
CONTINUOUS
10
119.38
20
-201.93
11
123.825
21
-206.375
0
LINE
8
BLACK
6
CONTINUOUS
10
130.81
20
-294.005
11
130.81
21
-201.295
0
LINE
8
BLACK
6
CONTINUOUS
10
43.815
20
-206.375
11
48.26
21
-201.93
0
ARC
8
BLACK
10
43.18
20
-294.005
40
6.35
50
180
51
270
0
LINE
8
BLACK
6
CONTINUOUS
10
43.18
20
-300.355
11
124.46
21
-300.355
0
ARC
8
BLACK
10
43.18
20
-201.295
40
6.35
50
90
51
180
0
LINE
8
BLACK
6
CONTINUOUS
10
36.83
20
-201.295
11
36.83
21
-294.005
0
ARC
8
BLACK
10
124.46
20
-294.005
40
6.35
50
-90
51
-0
0
LINE
8
BLACK
6
CONTINUOUS
10
124.46
20
-194.945
11
43.18
21
-194.945
0
CIRCLE
8
BLACK
10
125.73
20
-200.025
40
1.79605
0
ARC
8
BLACK
10
124.46
20
-201.295
40
6.35
50
-0
51
90
0
CIRCLE
8
BLACK
10
97.79
20
-198.755
40
1.79605
0
CIRCLE
8
BLACK
10
69.85
20
-198.755
40
1.79605
0
LINE
8
BLACK
6
CONTINUOUS
10
123.825
20
-288.925
11
119.38
21
-293.37
0
LINE
8
BLACK
6
CONTINUOUS
10
48.26
20
-201.93
11
119.38
21
-201.93
0
LINE
8
BLACK
6
CONTINUOUS
10
123.825
20
-206.375
11
123.825
21
-288.925
0
CIRCLE
8
BLACK
10
41.91
20
-295.275
40
1.79605
0
LINE
8
BLACK
6
CONTINUOUS
10
119.38
20
-293.37
11
48.26
21
-293.37
0
LINE
8
BLACK
6
CONTINUOUS
10
43.815
20
-288.925
11
43.815
21
-206.375
0
CIRCLE
8
BLACK
10
125.73
20
-295.275
40
1.79605
0
LINE
8
BLACK
6
CONTINUOUS
10
43.18
20
-184.785
11
124.46
21
-184.785
0
LINE
8
BLACK
6
CONTINUOUS
10
72.39
20
-79.375
11
43.18
21
-79.375
0
CIRCLE
8
BLACK
10
125.73
20
-179.705
40
1.27
0
LINE
8
BLACK
6
CONTINUOUS
10
130.81
20
-178.435
11
130.81
21
-85.725
0
CIRCLE
8
BLACK
10
97.79
20
-83.185
40
1.27
0
ARC
8
BLACK
10
124.46
20
-85.725
40
6.35
50
-0
51
90
0
ARC
8
BLACK
10
43.18
20
-178.435
40
6.35
50
180
51
270
0
ARC
8
BLACK
10
124.46
20
-178.435
40
6.35
50
-90
51
-0
0
CIRCLE
8
BLACK
10
125.73
20
-84.455
40
1.27
0
LINE
8
BLACK
6
CONTINUOUS
10
36.83
20
-85.725
11
36.83
21
-178.435
0
CIRCLE
8
BLACK
10
69.85
20
-83.185
40
1.27
0
CIRCLE
8
BLACK
10
41.91
20
-179.705
40
1.27
0
ARC
8
BLACK
10
43.18
20
-85.725
40
6.35
50
90
51
180
0
CIRCLE
8
BLACK
10
41.91
20
-84.455
40
1.27
0
CIRCLE
8
BLACK
10
97.79
20
31.115
40
1.79605
0
CIRCLE
8
BLACK
10
69.85
20
31.115
40
1.79605
0
CIRCLE
8
BLACK
10
125.73
20
29.845
40
1.79605
0
CIRCLE
8
BLACK
10
41.91
20
29.845
40
1.79605
0
CIRCLE
8
BLACK
10
125.73
20
-65.405
40
1.79605
0
CIRCLE
8
BLACK
10
41.91
20
-65.405
40
1.79605
0
ARC
8
BLACK
10
124.46
20
-64.135
40
6.35
50
-90
51
-0
0
ARC
8
BLACK
10
124.46
20
28.575
40
6.35
50
-0
51
90
0
ARC
8
BLACK
10
43.18
20
28.575
40
6.35
50
90
51
180
0
ARC
8
BLACK
10
43.18
20
-64.135
40
6.35
50
180
51
270
0
LINE
8
BLACK
6
CONTINUOUS
10
124.46
20
34.925
11
43.18
21
34.925
0
LINE
8
BLACK
6
CONTINUOUS
10
130.81
20
-64.135
11
130.81
21
28.575
0
LINE
8
BLACK
6
CONTINUOUS
10
43.18
20
-70.485
11
124.46
21
-70.485
0
LINE
8
BLACK
6
CONTINUOUS
10
36.83
20
28.575
11
36.83
21
-64.135
0
LINE
8
BLACK
6
CONTINUOUS
10
48.26
20
-9.3662
11
48.26
21
4.6038
0
LINE
8
BLACK
6
CONTINUOUS
10
62.23
20
-9.3662
11
48.26
21
-9.3662
0
LINE
8
BLACK
6
CONTINUOUS
10
62.23
20
4.6038
11
62.23
21
-9.3662
0
LINE
8
BLACK
6
CONTINUOUS
10
48.26
20
4.6038
11
62.23
21
4.6038
0
LINE
8
BLACK
6
CONTINUOUS
10
81.28
20
-14.446
11
81.28
21
-28.416
0
LINE
8
BLACK
6
CONTINUOUS
10
67.31
20
-14.446
11
81.28
21
-14.446
0
LINE
8
BLACK
6
CONTINUOUS
10
67.31
20
-28.416
11
67.31
21
-14.446
0
LINE
8
BLACK
6
CONTINUOUS
10
81.28
20
-28.416
11
67.31
21
-28.416
0
LINE
8
BLACK
6
CONTINUOUS
10
100.33
20
23.6538
11
100.33
21
9.6838
0
LINE
8
BLACK
6
CONTINUOUS
10
86.36
20
23.6538
11
100.33
21
23.6538
0
LINE
8
BLACK
6
CONTINUOUS
10
86.36
20
9.6838
11
86.36
21
23.6538
0
LINE
8
BLACK
6
CONTINUOUS
10
100.33
20
9.6838
11
86.36
21
9.6838
0
LINE
8
BLACK
6
CONTINUOUS
10
100.33
20
-14.446
11
100.33
21
-28.416
0
LINE
8
BLACK
6
CONTINUOUS
10
86.36
20
-14.446
11
100.33
21
-14.446
0
LINE
8
BLACK
6
CONTINUOUS
10
86.36
20
-28.416
11
86.36
21
-14.446
0
LINE
8
BLACK
6
CONTINUOUS
10
100.33
20
-28.416
11
86.36
21
-28.416
0
LINE
8
BLACK
6
CONTINUOUS
10
119.38
20
-14.446
11
119.38
21
-28.416
0
LINE
8
BLACK
6
CONTINUOUS
10
105.41
20
-14.446
11
119.38
21
-14.446
0
LINE
8
BLACK
6
CONTINUOUS
10
105.41
20
-28.416
11
105.41
21
-14.446
0
LINE
8
BLACK
6
CONTINUOUS
10
119.38
20
-28.416
11
105.41
21
-28.416
0
LINE
8
BLACK
6
CONTINUOUS
10
62.23
20
-14.446
11
62.23
21
-28.416
0
LINE
8
BLACK
6
CONTINUOUS
10
48.26
20
-14.446
11
62.23
21
-14.446
0
LINE
8
BLACK
6
CONTINUOUS
10
48.26
20
-28.416
11
48.26
21
-14.446
0
LINE
8
BLACK
6
CONTINUOUS
10
62.23
20
-28.416
11
48.26
21
-28.416
0
LINE
8
BLACK
6
CONTINUOUS
10
67.31
20
-47.466
11
67.31
21
-33.496
0
LINE
8
BLACK
6
CONTINUOUS
10
81.28
20
-47.466
11
67.31
21
-47.466
0
LINE
8
BLACK
6
CONTINUOUS
10
81.28
20
-33.496
11
81.28
21
-47.466
0
LINE
8
BLACK
6
CONTINUOUS
10
67.31
20
-33.496
11
81.28
21
-33.496
0
LINE
8
BLACK
6
CONTINUOUS
10
119.38
20
23.6538
11
119.38
21
9.6838
0
LINE
8
BLACK
6
CONTINUOUS
10
105.41
20
23.6538
11
119.38
21
23.6538
0
LINE
8
BLACK
6
CONTINUOUS
10
105.41
20
9.6838
11
105.41
21
23.6538
0
LINE
8
BLACK
6
CONTINUOUS
10
119.38
20
9.6838
11
105.41
21
9.6838
0
LINE
8
BLACK
6
CONTINUOUS
10
86.36
20
-47.466
11
86.36
21
-33.496
0
LINE
8
BLACK
6
CONTINUOUS
10
100.33
20
-47.466
11
86.36
21
-47.466
0
LINE
8
BLACK
6
CONTINUOUS
10
100.33
20
-33.496
11
100.33
21
-47.466
0
LINE
8
BLACK
6
CONTINUOUS
10
86.36
20
-33.496
11
100.33
21
-33.496
0
LINE
8
BLACK
6
CONTINUOUS
10
105.41
20
-47.466
11
105.41
21
-33.496
0
LINE
8
BLACK
6
CONTINUOUS
10
119.38
20
-47.466
11
105.41
21
-47.466
0
LINE
8
BLACK
6
CONTINUOUS
10
119.38
20
-33.496
11
119.38
21
-47.466
0
LINE
8
BLACK
6
CONTINUOUS
10
105.41
20
-33.496
11
119.38
21
-33.496
0
LINE
8
BLACK
6
CONTINUOUS
10
62.23
20
23.6538
11
62.23
21
9.6838
0
LINE
8
BLACK
6
CONTINUOUS
10
48.26
20
23.6538
11
62.23
21
23.6538
0
LINE
8
BLACK
6
CONTINUOUS
10
48.26
20
9.6838
11
48.26
21
23.6538
0
LINE
8
BLACK
6
CONTINUOUS
10
62.23
20
9.6838
11
48.26
21
9.6838
0
LINE
8
BLACK
6
CONTINUOUS
10
48.26
20
-47.466
11
48.26
21
-33.496
0
LINE
8
BLACK
6
CONTINUOUS
10
62.23
20
-47.466
11
48.26
21
-47.466
0
LINE
8
BLACK
6
CONTINUOUS
10
62.23
20
-33.496
11
62.23
21
-47.466
0
LINE
8
BLACK
6
CONTINUOUS
10
48.26
20
-33.496
11
62.23
21
-33.496
0
LINE
8
BLACK
6
CONTINUOUS
10
81.28
20
23.6538
11
81.28
21
9.6838
0
LINE
8
BLACK
6
CONTINUOUS
10
67.31
20
23.6538
11
81.28
21
23.6538
0
LINE
8
BLACK
6
CONTINUOUS
10
67.31
20
9.6838
11
67.31
21
23.6538
0
LINE
8
BLACK
6
CONTINUOUS
10
81.28
20
9.6838
11
67.31
21
9.6838
0
LINE
8
BLACK
6
CONTINUOUS
10
105.41
20
-9.3662
11
105.41
21
4.6038
0
LINE
8
BLACK
6
CONTINUOUS
10
119.38
20
-9.3662
11
105.41
21
-9.3662
0
LINE
8
BLACK
6
CONTINUOUS
10
119.38
20
4.6038
11
119.38
21
-9.3662
0
LINE
8
BLACK
6
CONTINUOUS
10
105.41
20
4.6038
11
119.38
21
4.6038
0
LINE
8
BLACK
6
CONTINUOUS
10
67.31
20
-9.3662
11
67.31
21
4.6038
0
LINE
8
BLACK
6
CONTINUOUS
10
81.28
20
-9.3662
11
67.31
21
-9.3662
0
LINE
8
BLACK
6
CONTINUOUS
10
81.28
20
4.6038
11
81.28
21
-9.3662
0
LINE
8
BLACK
6
CONTINUOUS
10
67.31
20
4.6038
11
81.28
21
4.6038
0
LINE
8
BLACK
6
CONTINUOUS
10
86.36
20
-9.3662
11
86.36
21
4.6038
0
LINE
8
BLACK
6
CONTINUOUS
10
100.33
20
-9.3662
11
86.36
21
-9.3662
0
LINE
8
BLACK
6
CONTINUOUS
10
100.33
20
4.6038
11
100.33
21
-9.3662
0
LINE
8
BLACK
6
CONTINUOUS
10
86.36
20
4.6038
11
100.33
21
4.6038
  0
ENDSEC
  0
EOF
