M48
; DRILL file {KiCad (5.1.2)-2} date 2020/8/26 23:28:28
; FORMAT={-:-/ absolute / metric / decimal}
; #@! TF.CreationDate,2020-08-26T23:28:28+08:00
; #@! TF.GenerationSoftware,Kicad,Pcbnew,(5.1.2)-2
; #@! TF.FileFunction,Plated,1,2,PTH
FMAT,2
METRIC
T1C0.400
T2C0.600
T3C1.000
%
G90
G05
T1
X70.14Y-102.761
X71.365Y-109.949
X72.357Y-95.607
X72.643Y-103.429
X73.317Y-108.995
X79.031Y-97.713
X83.625Y-96.725
X83.828Y-109.114
X85.394Y-107.522
X85.612Y-109.796
X88.49Y-108.086
X88.601Y-109.869
X89.286Y-97.9
X89.452Y-99.672
X90.419Y-112.357
T3
X76.2Y-135.382
X78.74Y-135.382
X81.28Y-135.382
X83.82Y-135.382
T2
G00X75.463Y-93.933
M15
G01X75.463Y-94.533
M16
G05
G00X75.463Y-97.863
M15
G01X75.463Y-98.963
M16
G05
G00X84.099Y-94.533
M15
G01X84.099Y-93.933
M16
G05
G00X84.101Y-98.963
M15
G01X84.101Y-97.863
M16
G05
T0
M30
