G04 #@! TF.GenerationSoftware,KiCad,Pcbnew,(5.1.2)-2*
G04 #@! TF.CreationDate,2019-12-29T19:31:18+08:00*
G04 #@! TF.ProjectId,redox-receiver,7265646f-782d-4726-9563-65697665722e,rev?*
G04 #@! TF.SameCoordinates,Original*
G04 #@! TF.FileFunction,Legend,Top*
G04 #@! TF.FilePolarity,Positive*
%FSLAX46Y46*%
G04 Gerber Fmt 4.6, Leading zero omitted, Abs format (unit mm)*
G04 Created by KiCad (PCBNEW (5.1.2)-2) date 2019-12-29 19:31:18*
%MOMM*%
%LPD*%
G04 APERTURE LIST*
%ADD10C,0.150000*%
%ADD11C,0.120000*%
G04 APERTURE END LIST*
D10*
X168120000Y-142700000D02*
X168120000Y-136700000D01*
X168120000Y-136700000D02*
X167870000Y-136700000D01*
X168120000Y-142700000D02*
X167870000Y-142700000D01*
X164620000Y-142700000D02*
X164870000Y-142700000D01*
X164620000Y-142700000D02*
X164620000Y-136700000D01*
X164620000Y-136700000D02*
X164870000Y-136700000D01*
D11*
X93920000Y-59750000D02*
X93920000Y-58420000D01*
X95250000Y-59750000D02*
X93920000Y-59750000D01*
X96520000Y-59750000D02*
X96520000Y-57090000D01*
X96520000Y-57090000D02*
X101660000Y-57090000D01*
X96520000Y-59750000D02*
X101660000Y-59750000D01*
X101660000Y-59750000D02*
X101660000Y-57090000D01*
X157420000Y-134560000D02*
X158750000Y-134560000D01*
X157420000Y-135890000D02*
X157420000Y-134560000D01*
X157420000Y-137160000D02*
X160080000Y-137160000D01*
X160080000Y-137160000D02*
X160080000Y-144840000D01*
X157420000Y-137160000D02*
X157420000Y-144840000D01*
X157420000Y-144840000D02*
X160080000Y-144840000D01*
D10*
X159225000Y-131719000D02*
X164625000Y-131719000D01*
X164625000Y-130219000D02*
X159225000Y-130219000D01*
X159225000Y-130219000D02*
X159225000Y-131719000D01*
X164625000Y-130219000D02*
X164625000Y-131719000D01*
X162425000Y-130469000D02*
X162425000Y-131469000D01*
X162425000Y-131469000D02*
X161525000Y-130969000D01*
X161525000Y-130969000D02*
X162425000Y-130469000D01*
X161425000Y-130469000D02*
X161425000Y-131469000D01*
X140175000Y-131719000D02*
X145575000Y-131719000D01*
X145575000Y-130219000D02*
X140175000Y-130219000D01*
X140175000Y-130219000D02*
X140175000Y-131719000D01*
X145575000Y-130219000D02*
X145575000Y-131719000D01*
X143375000Y-130469000D02*
X143375000Y-131469000D01*
X143375000Y-131469000D02*
X142475000Y-130969000D01*
X142475000Y-130969000D02*
X143375000Y-130469000D01*
X142375000Y-130469000D02*
X142375000Y-131469000D01*
X121125000Y-117431000D02*
X126525000Y-117431000D01*
X126525000Y-115931000D02*
X121125000Y-115931000D01*
X121125000Y-115931000D02*
X121125000Y-117431000D01*
X126525000Y-115931000D02*
X126525000Y-117431000D01*
X124325000Y-116181000D02*
X124325000Y-117181000D01*
X124325000Y-117181000D02*
X123425000Y-116681000D01*
X123425000Y-116681000D02*
X124325000Y-116181000D01*
X123325000Y-116181000D02*
X123325000Y-117181000D01*
X102075000Y-131719000D02*
X107475000Y-131719000D01*
X107475000Y-130219000D02*
X102075000Y-130219000D01*
X102075000Y-130219000D02*
X102075000Y-131719000D01*
X107475000Y-130219000D02*
X107475000Y-131719000D01*
X105275000Y-130469000D02*
X105275000Y-131469000D01*
X105275000Y-131469000D02*
X104375000Y-130969000D01*
X104375000Y-130969000D02*
X105275000Y-130469000D01*
X104275000Y-130469000D02*
X104275000Y-131469000D01*
X83025000Y-131719000D02*
X88425000Y-131719000D01*
X88425000Y-130219000D02*
X83025000Y-130219000D01*
X83025000Y-130219000D02*
X83025000Y-131719000D01*
X88425000Y-130219000D02*
X88425000Y-131719000D01*
X86225000Y-130469000D02*
X86225000Y-131469000D01*
X86225000Y-131469000D02*
X85325000Y-130969000D01*
X85325000Y-130969000D02*
X86225000Y-130469000D01*
X85225000Y-130469000D02*
X85225000Y-131469000D01*
X140175000Y-112669000D02*
X145575000Y-112669000D01*
X145575000Y-111169000D02*
X140175000Y-111169000D01*
X140175000Y-111169000D02*
X140175000Y-112669000D01*
X145575000Y-111169000D02*
X145575000Y-112669000D01*
X143375000Y-111419000D02*
X143375000Y-112419000D01*
X143375000Y-112419000D02*
X142475000Y-111919000D01*
X142475000Y-111919000D02*
X143375000Y-111419000D01*
X142375000Y-111419000D02*
X142375000Y-112419000D01*
X121092000Y-112669000D02*
X126492000Y-112669000D01*
X126492000Y-111169000D02*
X121092000Y-111169000D01*
X121092000Y-111169000D02*
X121092000Y-112669000D01*
X126492000Y-111169000D02*
X126492000Y-112669000D01*
X124292000Y-111419000D02*
X124292000Y-112419000D01*
X124292000Y-112419000D02*
X123392000Y-111919000D01*
X123392000Y-111919000D02*
X124292000Y-111419000D01*
X123292000Y-111419000D02*
X123292000Y-112419000D01*
X102075000Y-112669000D02*
X107475000Y-112669000D01*
X107475000Y-111169000D02*
X102075000Y-111169000D01*
X102075000Y-111169000D02*
X102075000Y-112669000D01*
X107475000Y-111169000D02*
X107475000Y-112669000D01*
X105275000Y-111419000D02*
X105275000Y-112419000D01*
X105275000Y-112419000D02*
X104375000Y-111919000D01*
X104375000Y-111919000D02*
X105275000Y-111419000D01*
X104275000Y-111419000D02*
X104275000Y-112419000D01*
X83025000Y-112669000D02*
X88425000Y-112669000D01*
X88425000Y-111169000D02*
X83025000Y-111169000D01*
X83025000Y-111169000D02*
X83025000Y-112669000D01*
X88425000Y-111169000D02*
X88425000Y-112669000D01*
X86225000Y-111419000D02*
X86225000Y-112419000D01*
X86225000Y-112419000D02*
X85325000Y-111919000D01*
X85325000Y-111919000D02*
X86225000Y-111419000D01*
X85225000Y-111419000D02*
X85225000Y-112419000D01*
X140175000Y-84093800D02*
X145575000Y-84093800D01*
X145575000Y-82593800D02*
X140175000Y-82593800D01*
X140175000Y-82593800D02*
X140175000Y-84093800D01*
X145575000Y-82593800D02*
X145575000Y-84093800D01*
X143375000Y-82843800D02*
X143375000Y-83843800D01*
X143375000Y-83843800D02*
X142475000Y-83343800D01*
X142475000Y-83343800D02*
X143375000Y-82843800D01*
X142375000Y-82843800D02*
X142375000Y-83843800D01*
X121125000Y-84093800D02*
X126525000Y-84093800D01*
X126525000Y-82593800D02*
X121125000Y-82593800D01*
X121125000Y-82593800D02*
X121125000Y-84093800D01*
X126525000Y-82593800D02*
X126525000Y-84093800D01*
X124325000Y-82843800D02*
X124325000Y-83843800D01*
X124325000Y-83843800D02*
X123425000Y-83343800D01*
X123425000Y-83343800D02*
X124325000Y-82843800D01*
X123325000Y-82843800D02*
X123325000Y-83843800D01*
X102075000Y-84093800D02*
X107475000Y-84093800D01*
X107475000Y-82593800D02*
X102075000Y-82593800D01*
X102075000Y-82593800D02*
X102075000Y-84093800D01*
X107475000Y-82593800D02*
X107475000Y-84093800D01*
X105275000Y-82843800D02*
X105275000Y-83843800D01*
X105275000Y-83843800D02*
X104375000Y-83343800D01*
X104375000Y-83343800D02*
X105275000Y-82843800D01*
X104275000Y-82843800D02*
X104275000Y-83843800D01*
X83025000Y-84093800D02*
X88425000Y-84093800D01*
X88425000Y-82593800D02*
X83025000Y-82593800D01*
X83025000Y-82593800D02*
X83025000Y-84093800D01*
X88425000Y-82593800D02*
X88425000Y-84093800D01*
X86225000Y-82843800D02*
X86225000Y-83843800D01*
X86225000Y-83843800D02*
X85325000Y-83343800D01*
X85325000Y-83343800D02*
X86225000Y-82843800D01*
X85225000Y-82843800D02*
X85225000Y-83843800D01*
X159225000Y-79331200D02*
X164625000Y-79331200D01*
X164625000Y-77831200D02*
X159225000Y-77831200D01*
X159225000Y-77831200D02*
X159225000Y-79331200D01*
X164625000Y-77831200D02*
X164625000Y-79331200D01*
X162425000Y-78081200D02*
X162425000Y-79081200D01*
X162425000Y-79081200D02*
X161525000Y-78581200D01*
X161525000Y-78581200D02*
X162425000Y-78081200D01*
X161425000Y-78081200D02*
X161425000Y-79081200D01*
X140175000Y-79331200D02*
X145575000Y-79331200D01*
X145575000Y-77831200D02*
X140175000Y-77831200D01*
X140175000Y-77831200D02*
X140175000Y-79331200D01*
X145575000Y-77831200D02*
X145575000Y-79331200D01*
X143375000Y-78081200D02*
X143375000Y-79081200D01*
X143375000Y-79081200D02*
X142475000Y-78581200D01*
X142475000Y-78581200D02*
X143375000Y-78081200D01*
X142375000Y-78081200D02*
X142375000Y-79081200D01*
X121125000Y-79331200D02*
X126525000Y-79331200D01*
X126525000Y-77831200D02*
X121125000Y-77831200D01*
X121125000Y-77831200D02*
X121125000Y-79331200D01*
X126525000Y-77831200D02*
X126525000Y-79331200D01*
X124325000Y-78081200D02*
X124325000Y-79081200D01*
X124325000Y-79081200D02*
X123425000Y-78581200D01*
X123425000Y-78581200D02*
X124325000Y-78081200D01*
X123325000Y-78081200D02*
X123325000Y-79081200D01*
X102075000Y-79331200D02*
X107475000Y-79331200D01*
X107475000Y-77831200D02*
X102075000Y-77831200D01*
X102075000Y-77831200D02*
X102075000Y-79331200D01*
X107475000Y-77831200D02*
X107475000Y-79331200D01*
X105275000Y-78081200D02*
X105275000Y-79081200D01*
X105275000Y-79081200D02*
X104375000Y-78581200D01*
X104375000Y-78581200D02*
X105275000Y-78081200D01*
X104275000Y-78081200D02*
X104275000Y-79081200D01*
X83025000Y-79331200D02*
X88425000Y-79331200D01*
X88425000Y-77831200D02*
X83025000Y-77831200D01*
X83025000Y-77831200D02*
X83025000Y-79331200D01*
X88425000Y-77831200D02*
X88425000Y-79331200D01*
X86225000Y-78081200D02*
X86225000Y-79081200D01*
X86225000Y-79081200D02*
X85325000Y-78581200D01*
X85325000Y-78581200D02*
X86225000Y-78081200D01*
X85225000Y-78081200D02*
X85225000Y-79081200D01*
D11*
X166430000Y-57090000D02*
X166430000Y-58420000D01*
X165100000Y-57090000D02*
X166430000Y-57090000D01*
X163830000Y-57090000D02*
X163830000Y-59750000D01*
X163830000Y-59750000D02*
X156150000Y-59750000D01*
X163830000Y-57090000D02*
X156150000Y-57090000D01*
X156150000Y-57090000D02*
X156150000Y-59750000D01*
D10*
X166774761Y-142771428D02*
X166822380Y-142628571D01*
X166822380Y-142390476D01*
X166774761Y-142295238D01*
X166727142Y-142247619D01*
X166631904Y-142200000D01*
X166536666Y-142200000D01*
X166441428Y-142247619D01*
X166393809Y-142295238D01*
X166346190Y-142390476D01*
X166298571Y-142580952D01*
X166250952Y-142676190D01*
X166203333Y-142723809D01*
X166108095Y-142771428D01*
X166012857Y-142771428D01*
X165917619Y-142723809D01*
X165870000Y-142676190D01*
X165822380Y-142580952D01*
X165822380Y-142342857D01*
X165870000Y-142200000D01*
X165822380Y-141866666D02*
X166822380Y-141628571D01*
X166108095Y-141438095D01*
X166822380Y-141247619D01*
X165822380Y-141009523D01*
X166917619Y-140866666D02*
X166917619Y-140104761D01*
X166774761Y-139914285D02*
X166822380Y-139771428D01*
X166822380Y-139533333D01*
X166774761Y-139438095D01*
X166727142Y-139390476D01*
X166631904Y-139342857D01*
X166536666Y-139342857D01*
X166441428Y-139390476D01*
X166393809Y-139438095D01*
X166346190Y-139533333D01*
X166298571Y-139723809D01*
X166250952Y-139819047D01*
X166203333Y-139866666D01*
X166108095Y-139914285D01*
X166012857Y-139914285D01*
X165917619Y-139866666D01*
X165870000Y-139819047D01*
X165822380Y-139723809D01*
X165822380Y-139485714D01*
X165870000Y-139342857D01*
X166822380Y-138914285D02*
X165822380Y-138914285D01*
X165822380Y-138533333D01*
X165870000Y-138438095D01*
X165917619Y-138390476D01*
X166012857Y-138342857D01*
X166155714Y-138342857D01*
X166250952Y-138390476D01*
X166298571Y-138438095D01*
X166346190Y-138533333D01*
X166346190Y-138914285D01*
X166774761Y-137961904D02*
X166822380Y-137819047D01*
X166822380Y-137580952D01*
X166774761Y-137485714D01*
X166727142Y-137438095D01*
X166631904Y-137390476D01*
X166536666Y-137390476D01*
X166441428Y-137438095D01*
X166393809Y-137485714D01*
X166346190Y-137580952D01*
X166298571Y-137771428D01*
X166250952Y-137866666D01*
X166203333Y-137914285D01*
X166108095Y-137961904D01*
X166012857Y-137961904D01*
X165917619Y-137914285D01*
X165870000Y-137866666D01*
X165822380Y-137771428D01*
X165822380Y-137533333D01*
X165870000Y-137390476D01*
X165822380Y-137104761D02*
X165822380Y-136533333D01*
X166822380Y-136819047D02*
X165822380Y-136819047D01*
X93277142Y-66848571D02*
X93324761Y-66896190D01*
X93372380Y-67039047D01*
X93372380Y-67134285D01*
X93324761Y-67277142D01*
X93229523Y-67372380D01*
X93134285Y-67420000D01*
X92943809Y-67467619D01*
X92800952Y-67467619D01*
X92610476Y-67420000D01*
X92515238Y-67372380D01*
X92420000Y-67277142D01*
X92372380Y-67134285D01*
X92372380Y-67039047D01*
X92420000Y-66896190D01*
X92467619Y-66848571D01*
X93372380Y-66277142D02*
X93324761Y-66372380D01*
X93277142Y-66420000D01*
X93181904Y-66467619D01*
X92896190Y-66467619D01*
X92800952Y-66420000D01*
X92753333Y-66372380D01*
X92705714Y-66277142D01*
X92705714Y-66134285D01*
X92753333Y-66039047D01*
X92800952Y-65991428D01*
X92896190Y-65943809D01*
X93181904Y-65943809D01*
X93277142Y-65991428D01*
X93324761Y-66039047D01*
X93372380Y-66134285D01*
X93372380Y-66277142D01*
X92705714Y-65515238D02*
X93372380Y-65515238D01*
X92800952Y-65515238D02*
X92753333Y-65467619D01*
X92705714Y-65372380D01*
X92705714Y-65229523D01*
X92753333Y-65134285D01*
X92848571Y-65086666D01*
X93372380Y-65086666D01*
X92705714Y-64610476D02*
X93372380Y-64610476D01*
X92800952Y-64610476D02*
X92753333Y-64562857D01*
X92705714Y-64467619D01*
X92705714Y-64324761D01*
X92753333Y-64229523D01*
X92848571Y-64181904D01*
X93372380Y-64181904D01*
X92848571Y-63372380D02*
X92848571Y-63705714D01*
X93372380Y-63705714D02*
X92372380Y-63705714D01*
X92372380Y-63229523D01*
X93324761Y-62467619D02*
X93372380Y-62562857D01*
X93372380Y-62753333D01*
X93324761Y-62848571D01*
X93229523Y-62896190D01*
X92848571Y-62896190D01*
X92753333Y-62848571D01*
X92705714Y-62753333D01*
X92705714Y-62562857D01*
X92753333Y-62467619D01*
X92848571Y-62420000D01*
X92943809Y-62420000D01*
X93039047Y-62896190D01*
X93372380Y-61991428D02*
X92705714Y-61991428D01*
X92800952Y-61991428D02*
X92753333Y-61943809D01*
X92705714Y-61848571D01*
X92705714Y-61705714D01*
X92753333Y-61610476D01*
X92848571Y-61562857D01*
X93372380Y-61562857D01*
X92848571Y-61562857D02*
X92753333Y-61515238D01*
X92705714Y-61420000D01*
X92705714Y-61277142D01*
X92753333Y-61181904D01*
X92848571Y-61134285D01*
X93372380Y-61134285D01*
X93372380Y-60229523D02*
X92848571Y-60229523D01*
X92753333Y-60277142D01*
X92705714Y-60372380D01*
X92705714Y-60562857D01*
X92753333Y-60658095D01*
X93324761Y-60229523D02*
X93372380Y-60324761D01*
X93372380Y-60562857D01*
X93324761Y-60658095D01*
X93229523Y-60705714D01*
X93134285Y-60705714D01*
X93039047Y-60658095D01*
X92991428Y-60562857D01*
X92991428Y-60324761D01*
X92943809Y-60229523D01*
X93372380Y-59610476D02*
X93324761Y-59705714D01*
X93229523Y-59753333D01*
X92372380Y-59753333D01*
X93324761Y-58848571D02*
X93372380Y-58943809D01*
X93372380Y-59134285D01*
X93324761Y-59229523D01*
X93229523Y-59277142D01*
X92848571Y-59277142D01*
X92753333Y-59229523D01*
X92705714Y-59134285D01*
X92705714Y-58943809D01*
X92753333Y-58848571D01*
X92848571Y-58800952D01*
X92943809Y-58800952D01*
X93039047Y-59277142D01*
X93467619Y-58610476D02*
X93467619Y-57848571D01*
X92372380Y-57610476D02*
X93181904Y-57610476D01*
X93277142Y-57562857D01*
X93324761Y-57515238D01*
X93372380Y-57420000D01*
X93372380Y-57229523D01*
X93324761Y-57134285D01*
X93277142Y-57086666D01*
X93181904Y-57039047D01*
X92372380Y-57039047D01*
X92705714Y-56562857D02*
X93372380Y-56562857D01*
X92800952Y-56562857D02*
X92753333Y-56515238D01*
X92705714Y-56420000D01*
X92705714Y-56277142D01*
X92753333Y-56181904D01*
X92848571Y-56134285D01*
X93372380Y-56134285D01*
X93372380Y-55229523D02*
X92372380Y-55229523D01*
X93324761Y-55229523D02*
X93372380Y-55324761D01*
X93372380Y-55515238D01*
X93324761Y-55610476D01*
X93277142Y-55658095D01*
X93181904Y-55705714D01*
X92896190Y-55705714D01*
X92800952Y-55658095D01*
X92753333Y-55610476D01*
X92705714Y-55515238D01*
X92705714Y-55324761D01*
X92753333Y-55229523D01*
X93324761Y-54372380D02*
X93372380Y-54467619D01*
X93372380Y-54658095D01*
X93324761Y-54753333D01*
X93229523Y-54800952D01*
X92848571Y-54800952D01*
X92753333Y-54753333D01*
X92705714Y-54658095D01*
X92705714Y-54467619D01*
X92753333Y-54372380D01*
X92848571Y-54324761D01*
X92943809Y-54324761D01*
X93039047Y-54800952D01*
X93372380Y-53896190D02*
X92705714Y-53896190D01*
X92896190Y-53896190D02*
X92800952Y-53848571D01*
X92753333Y-53800952D01*
X92705714Y-53705714D01*
X92705714Y-53610476D01*
X92705714Y-52848571D02*
X93515238Y-52848571D01*
X93610476Y-52896190D01*
X93658095Y-52943809D01*
X93705714Y-53039047D01*
X93705714Y-53181904D01*
X93658095Y-53277142D01*
X93324761Y-52848571D02*
X93372380Y-52943809D01*
X93372380Y-53134285D01*
X93324761Y-53229523D01*
X93277142Y-53277142D01*
X93181904Y-53324761D01*
X92896190Y-53324761D01*
X92800952Y-53277142D01*
X92753333Y-53229523D01*
X92705714Y-53134285D01*
X92705714Y-52943809D01*
X92753333Y-52848571D01*
X93372380Y-52229523D02*
X93324761Y-52324761D01*
X93229523Y-52372380D01*
X92372380Y-52372380D01*
X93372380Y-51705714D02*
X93324761Y-51800952D01*
X93277142Y-51848571D01*
X93181904Y-51896190D01*
X92896190Y-51896190D01*
X92800952Y-51848571D01*
X92753333Y-51800952D01*
X92705714Y-51705714D01*
X92705714Y-51562857D01*
X92753333Y-51467619D01*
X92800952Y-51420000D01*
X92896190Y-51372380D01*
X93181904Y-51372380D01*
X93277142Y-51420000D01*
X93324761Y-51467619D01*
X93372380Y-51562857D01*
X93372380Y-51705714D01*
X92705714Y-51039047D02*
X93372380Y-50848571D01*
X92896190Y-50658095D01*
X93372380Y-50467619D01*
X92705714Y-50277142D01*
X93372380Y-49372380D02*
X93372380Y-49943809D01*
X93372380Y-49658095D02*
X92372380Y-49658095D01*
X92515238Y-49753333D01*
X92610476Y-49848571D01*
X92658095Y-49943809D01*
X152750000Y-134012380D02*
X152750000Y-133012380D01*
X153130952Y-133012380D01*
X153226190Y-133060000D01*
X153273809Y-133107619D01*
X153321428Y-133202857D01*
X153321428Y-133345714D01*
X153273809Y-133440952D01*
X153226190Y-133488571D01*
X153130952Y-133536190D01*
X152750000Y-133536190D01*
X154321428Y-134012380D02*
X153988095Y-133536190D01*
X153750000Y-134012380D02*
X153750000Y-133012380D01*
X154130952Y-133012380D01*
X154226190Y-133060000D01*
X154273809Y-133107619D01*
X154321428Y-133202857D01*
X154321428Y-133345714D01*
X154273809Y-133440952D01*
X154226190Y-133488571D01*
X154130952Y-133536190D01*
X153750000Y-133536190D01*
X154940476Y-133012380D02*
X155130952Y-133012380D01*
X155226190Y-133060000D01*
X155321428Y-133155238D01*
X155369047Y-133345714D01*
X155369047Y-133679047D01*
X155321428Y-133869523D01*
X155226190Y-133964761D01*
X155130952Y-134012380D01*
X154940476Y-134012380D01*
X154845238Y-133964761D01*
X154750000Y-133869523D01*
X154702380Y-133679047D01*
X154702380Y-133345714D01*
X154750000Y-133155238D01*
X154845238Y-133060000D01*
X154940476Y-133012380D01*
X156321428Y-133060000D02*
X156226190Y-133012380D01*
X156083333Y-133012380D01*
X155940476Y-133060000D01*
X155845238Y-133155238D01*
X155797619Y-133250476D01*
X155750000Y-133440952D01*
X155750000Y-133583809D01*
X155797619Y-133774285D01*
X155845238Y-133869523D01*
X155940476Y-133964761D01*
X156083333Y-134012380D01*
X156178571Y-134012380D01*
X156321428Y-133964761D01*
X156369047Y-133917142D01*
X156369047Y-133583809D01*
X156178571Y-133583809D01*
X157369047Y-134012380D02*
X157035714Y-133536190D01*
X156797619Y-134012380D02*
X156797619Y-133012380D01*
X157178571Y-133012380D01*
X157273809Y-133060000D01*
X157321428Y-133107619D01*
X157369047Y-133202857D01*
X157369047Y-133345714D01*
X157321428Y-133440952D01*
X157273809Y-133488571D01*
X157178571Y-133536190D01*
X156797619Y-133536190D01*
X157559523Y-134107619D02*
X158321428Y-134107619D01*
X158559523Y-134012380D02*
X158559523Y-133012380D01*
X158559523Y-133488571D02*
X159130952Y-133488571D01*
X159130952Y-134012380D02*
X159130952Y-133012380D01*
X159607142Y-133488571D02*
X159940476Y-133488571D01*
X160083333Y-134012380D02*
X159607142Y-134012380D01*
X159607142Y-133012380D01*
X160083333Y-133012380D01*
X160464285Y-133726666D02*
X160940476Y-133726666D01*
X160369047Y-134012380D02*
X160702380Y-133012380D01*
X161035714Y-134012380D01*
X161369047Y-134012380D02*
X161369047Y-133012380D01*
X161607142Y-133012380D01*
X161750000Y-133060000D01*
X161845238Y-133155238D01*
X161892857Y-133250476D01*
X161940476Y-133440952D01*
X161940476Y-133583809D01*
X161892857Y-133774285D01*
X161845238Y-133869523D01*
X161750000Y-133964761D01*
X161607142Y-134012380D01*
X161369047Y-134012380D01*
X162369047Y-133488571D02*
X162702380Y-133488571D01*
X162845238Y-134012380D02*
X162369047Y-134012380D01*
X162369047Y-133012380D01*
X162845238Y-133012380D01*
X163845238Y-134012380D02*
X163511904Y-133536190D01*
X163273809Y-134012380D02*
X163273809Y-133012380D01*
X163654761Y-133012380D01*
X163750000Y-133060000D01*
X163797619Y-133107619D01*
X163845238Y-133202857D01*
X163845238Y-133345714D01*
X163797619Y-133440952D01*
X163750000Y-133488571D01*
X163654761Y-133536190D01*
X163273809Y-133536190D01*
X164797619Y-134012380D02*
X164226190Y-134012380D01*
X164511904Y-134012380D02*
X164511904Y-133012380D01*
X164416666Y-133155238D01*
X164321428Y-133250476D01*
X164226190Y-133298095D01*
X167787142Y-65372380D02*
X167834761Y-65420000D01*
X167882380Y-65562857D01*
X167882380Y-65658095D01*
X167834761Y-65800952D01*
X167739523Y-65896190D01*
X167644285Y-65943809D01*
X167453809Y-65991428D01*
X167310952Y-65991428D01*
X167120476Y-65943809D01*
X167025238Y-65896190D01*
X166930000Y-65800952D01*
X166882380Y-65658095D01*
X166882380Y-65562857D01*
X166930000Y-65420000D01*
X166977619Y-65372380D01*
X167882380Y-64800952D02*
X167834761Y-64896190D01*
X167787142Y-64943809D01*
X167691904Y-64991428D01*
X167406190Y-64991428D01*
X167310952Y-64943809D01*
X167263333Y-64896190D01*
X167215714Y-64800952D01*
X167215714Y-64658095D01*
X167263333Y-64562857D01*
X167310952Y-64515238D01*
X167406190Y-64467619D01*
X167691904Y-64467619D01*
X167787142Y-64515238D01*
X167834761Y-64562857D01*
X167882380Y-64658095D01*
X167882380Y-64800952D01*
X167215714Y-64039047D02*
X167882380Y-64039047D01*
X167310952Y-64039047D02*
X167263333Y-63991428D01*
X167215714Y-63896190D01*
X167215714Y-63753333D01*
X167263333Y-63658095D01*
X167358571Y-63610476D01*
X167882380Y-63610476D01*
X167215714Y-63134285D02*
X167882380Y-63134285D01*
X167310952Y-63134285D02*
X167263333Y-63086666D01*
X167215714Y-62991428D01*
X167215714Y-62848571D01*
X167263333Y-62753333D01*
X167358571Y-62705714D01*
X167882380Y-62705714D01*
X167358571Y-61896190D02*
X167358571Y-62229523D01*
X167882380Y-62229523D02*
X166882380Y-62229523D01*
X166882380Y-61753333D01*
X167834761Y-60991428D02*
X167882380Y-61086666D01*
X167882380Y-61277142D01*
X167834761Y-61372380D01*
X167739523Y-61420000D01*
X167358571Y-61420000D01*
X167263333Y-61372380D01*
X167215714Y-61277142D01*
X167215714Y-61086666D01*
X167263333Y-60991428D01*
X167358571Y-60943809D01*
X167453809Y-60943809D01*
X167549047Y-61420000D01*
X167882380Y-60515238D02*
X167215714Y-60515238D01*
X167310952Y-60515238D02*
X167263333Y-60467619D01*
X167215714Y-60372380D01*
X167215714Y-60229523D01*
X167263333Y-60134285D01*
X167358571Y-60086666D01*
X167882380Y-60086666D01*
X167358571Y-60086666D02*
X167263333Y-60039047D01*
X167215714Y-59943809D01*
X167215714Y-59800952D01*
X167263333Y-59705714D01*
X167358571Y-59658095D01*
X167882380Y-59658095D01*
X167882380Y-58753333D02*
X167358571Y-58753333D01*
X167263333Y-58800952D01*
X167215714Y-58896190D01*
X167215714Y-59086666D01*
X167263333Y-59181904D01*
X167834761Y-58753333D02*
X167882380Y-58848571D01*
X167882380Y-59086666D01*
X167834761Y-59181904D01*
X167739523Y-59229523D01*
X167644285Y-59229523D01*
X167549047Y-59181904D01*
X167501428Y-59086666D01*
X167501428Y-58848571D01*
X167453809Y-58753333D01*
X167882380Y-58134285D02*
X167834761Y-58229523D01*
X167739523Y-58277142D01*
X166882380Y-58277142D01*
X167834761Y-57372380D02*
X167882380Y-57467619D01*
X167882380Y-57658095D01*
X167834761Y-57753333D01*
X167739523Y-57800952D01*
X167358571Y-57800952D01*
X167263333Y-57753333D01*
X167215714Y-57658095D01*
X167215714Y-57467619D01*
X167263333Y-57372380D01*
X167358571Y-57324761D01*
X167453809Y-57324761D01*
X167549047Y-57800952D01*
X167977619Y-57134285D02*
X167977619Y-56372380D01*
X166882380Y-56134285D02*
X167691904Y-56134285D01*
X167787142Y-56086666D01*
X167834761Y-56039047D01*
X167882380Y-55943809D01*
X167882380Y-55753333D01*
X167834761Y-55658095D01*
X167787142Y-55610476D01*
X167691904Y-55562857D01*
X166882380Y-55562857D01*
X167834761Y-55134285D02*
X167882380Y-54991428D01*
X167882380Y-54753333D01*
X167834761Y-54658095D01*
X167787142Y-54610476D01*
X167691904Y-54562857D01*
X167596666Y-54562857D01*
X167501428Y-54610476D01*
X167453809Y-54658095D01*
X167406190Y-54753333D01*
X167358571Y-54943809D01*
X167310952Y-55039047D01*
X167263333Y-55086666D01*
X167168095Y-55134285D01*
X167072857Y-55134285D01*
X166977619Y-55086666D01*
X166930000Y-55039047D01*
X166882380Y-54943809D01*
X166882380Y-54705714D01*
X166930000Y-54562857D01*
X167358571Y-53800952D02*
X167406190Y-53658095D01*
X167453809Y-53610476D01*
X167549047Y-53562857D01*
X167691904Y-53562857D01*
X167787142Y-53610476D01*
X167834761Y-53658095D01*
X167882380Y-53753333D01*
X167882380Y-54134285D01*
X166882380Y-54134285D01*
X166882380Y-53800952D01*
X166930000Y-53705714D01*
X166977619Y-53658095D01*
X167072857Y-53610476D01*
X167168095Y-53610476D01*
X167263333Y-53658095D01*
X167310952Y-53705714D01*
X167358571Y-53800952D01*
X167358571Y-54134285D01*
X167977619Y-53372380D02*
X167977619Y-52610476D01*
X167787142Y-51800952D02*
X167834761Y-51848571D01*
X167882380Y-51991428D01*
X167882380Y-52086666D01*
X167834761Y-52229523D01*
X167739523Y-52324761D01*
X167644285Y-52372380D01*
X167453809Y-52420000D01*
X167310952Y-52420000D01*
X167120476Y-52372380D01*
X167025238Y-52324761D01*
X166930000Y-52229523D01*
X166882380Y-52086666D01*
X166882380Y-51991428D01*
X166930000Y-51848571D01*
X166977619Y-51800952D01*
X167882380Y-50848571D02*
X167882380Y-51420000D01*
X167882380Y-51134285D02*
X166882380Y-51134285D01*
X167025238Y-51229523D01*
X167120476Y-51324761D01*
X167168095Y-51420000D01*
M02*
