M48
; DRILL file {KiCad (5.1.2)-2} date 2019/12/29 19:29:11
; FORMAT={-:-/ absolute / inch / decimal}
; #@! TF.CreationDate,2019-12-29T19:29:11+08:00
; #@! TF.GenerationSoftware,Kicad,Pcbnew,(5.1.2)-2
; #@! TF.FileFunction,Plated,1,2,PTH
FMAT,2
INCH
T1C0.0157
T2C0.0236
T3C0.0394
T4C0.0430
T5C0.0512
%
G90
G05
T1
X3.3697Y-3.2813
X3.3699Y-5.1878
X3.4449Y-4.3634
X3.4563Y-3.0509
X3.4943Y-5.1563
X3.4963Y-3.2814
X3.6226Y-3.9272
X4.1057Y-4.4063
X4.1102Y-3.1253
X4.1949Y-4.3639
X4.1949Y-5.1992
X4.2342Y-3.0544
X4.2461Y-3.2814
X4.4704Y-3.9561
X4.8051Y-3.1361
X4.8051Y-3.3248
X4.8136Y-4.4496
X4.8556Y-4.5937
X4.8818Y-4.3781
X4.8838Y-3.8987
X4.8953Y-4.5937
X5.0064Y-3.2854
X5.0191Y-3.0343
X5.5058Y-3.2814
X5.6117Y-4.393
X5.6339Y-5.1285
X5.6949Y-3.325
X5.6949Y-4.3632
X5.7063Y-3.0508
X5.7957Y-4.406
X6.4339Y-3.0512
X6.4385Y-5.1998
T3
X3.75Y-2.3
X3.85Y-2.3
X3.95Y-2.3
X6.2Y-2.3
X6.3Y-2.3
X6.4Y-2.3
X6.5Y-2.3
X6.25Y-5.35
X6.25Y-5.45
X6.25Y-5.55
X6.25Y-5.65
T4
X6.075Y-3.4
X6.075Y-3.5
X6.075Y-3.6
X6.075Y-3.7
X6.075Y-3.8
X6.075Y-3.9
X6.075Y-4.0
X6.075Y-4.1
X6.075Y-4.2
X6.075Y-4.3
X6.075Y-4.4
X6.075Y-4.5
X6.675Y-3.4
X6.675Y-3.5
X6.675Y-3.6
X6.675Y-3.7
X6.675Y-3.8
X6.675Y-3.9
X6.675Y-4.0
X6.675Y-4.1
X6.675Y-4.2
X6.675Y-4.3
X6.675Y-4.4
X6.675Y-4.5
T5
X6.55Y-5.372
X6.55Y-5.628
T2
G00X4.7049Y-2.2906
M15
G01X4.7049Y-2.3142
M16
G05
G00X4.7049Y-2.4453
M15
G01X4.7049Y-2.4886
M16
G05
G00X5.0451Y-2.2906
M15
G01X5.0451Y-2.3142
M16
G05
G00X5.0451Y-2.4453
M15
G01X5.0451Y-2.4886
M16
G05
T0
M30
