G04 #@! TF.GenerationSoftware,KiCad,Pcbnew,(5.1.2)-2*
G04 #@! TF.CreationDate,2019-12-29T19:31:18+08:00*
G04 #@! TF.ProjectId,redox-receiver,7265646f-782d-4726-9563-65697665722e,rev?*
G04 #@! TF.SameCoordinates,Original*
G04 #@! TF.FileFunction,Soldermask,Top*
G04 #@! TF.FilePolarity,Negative*
%FSLAX46Y46*%
G04 Gerber Fmt 4.6, Leading zero omitted, Abs format (unit mm)*
G04 Created by KiCad (PCBNEW (5.1.2)-2) date 2019-12-29 19:31:18*
%MOMM*%
%LPD*%
G04 APERTURE LIST*
%ADD10C,2.000000*%
%ADD11C,1.752600*%
%ADD12R,1.752600X1.752600*%
%ADD13C,0.650000*%
%ADD14O,1.000000X2.100000*%
%ADD15O,1.000000X1.600000*%
%ADD16O,1.700000X1.700000*%
%ADD17R,1.700000X1.700000*%
%ADD18C,1.701800*%
%ADD19C,3.987800*%
%ADD20C,3.000000*%
%ADD21R,1.300000X0.950000*%
G04 APERTURE END LIST*
D10*
X166370000Y-136450000D03*
X166370000Y-142950000D03*
D11*
X169545000Y-86360000D03*
X154305000Y-114300000D03*
X169545000Y-88900000D03*
X169545000Y-91440000D03*
X169545000Y-93980000D03*
X169545000Y-96520000D03*
X169545000Y-99060000D03*
X169545000Y-101600000D03*
X169545000Y-104140000D03*
X169545000Y-106680000D03*
X169545000Y-109220000D03*
X169545000Y-111760000D03*
X169545000Y-114300000D03*
X154305000Y-111760000D03*
X154305000Y-109220000D03*
X154305000Y-106680000D03*
X154305000Y-104140000D03*
X154305000Y-101600000D03*
X154305000Y-99060000D03*
X154305000Y-96520000D03*
X154305000Y-93980000D03*
X154305000Y-91440000D03*
X154305000Y-88900000D03*
D12*
X154305000Y-86360000D03*
D13*
X126715000Y-62130000D03*
X120935000Y-62130000D03*
D14*
X119505000Y-62660000D03*
X128145000Y-62660000D03*
D15*
X119505000Y-58480000D03*
X128145000Y-58480000D03*
D16*
X100330000Y-58420000D03*
X97790000Y-58420000D03*
D17*
X95250000Y-58420000D03*
D16*
X158750000Y-143510000D03*
X158750000Y-140970000D03*
X158750000Y-138430000D03*
D17*
X158750000Y-135890000D03*
D18*
X156845000Y-126206000D03*
X167005000Y-126206000D03*
D19*
X161925000Y-126206000D03*
D20*
X158115000Y-123666000D03*
X164465000Y-121126000D03*
D18*
X137795000Y-126206000D03*
X147955000Y-126206000D03*
D19*
X142875000Y-126206000D03*
D20*
X139065000Y-123666000D03*
X145415000Y-121126000D03*
D18*
X118745000Y-126206000D03*
X128905000Y-126206000D03*
D19*
X123825000Y-126206000D03*
D20*
X120015000Y-123666000D03*
X126365000Y-121126000D03*
D18*
X99695000Y-126206000D03*
X109855000Y-126206000D03*
D19*
X104775000Y-126206000D03*
D20*
X100965000Y-123666000D03*
X107315000Y-121126000D03*
D18*
X80645000Y-126206000D03*
X90805000Y-126206000D03*
D19*
X85725000Y-126206000D03*
D20*
X81915000Y-123666000D03*
X88265000Y-121126000D03*
D18*
X137795000Y-107156000D03*
X147955000Y-107156000D03*
D19*
X142875000Y-107156000D03*
D20*
X139065000Y-104616000D03*
X145415000Y-102076000D03*
D18*
X118745000Y-107156000D03*
X128905000Y-107156000D03*
D19*
X123825000Y-107156000D03*
D20*
X120015000Y-104616000D03*
X126365000Y-102076000D03*
D18*
X99695000Y-107156000D03*
X109855000Y-107156000D03*
D19*
X104775000Y-107156000D03*
D20*
X100965000Y-104616000D03*
X107315000Y-102076000D03*
D18*
X80645000Y-107156000D03*
X90805000Y-107156000D03*
D19*
X85725000Y-107156000D03*
D20*
X81915000Y-104616000D03*
X88265000Y-102076000D03*
D18*
X147955000Y-88106200D03*
X137795000Y-88106200D03*
D19*
X142875000Y-88106200D03*
D20*
X146685000Y-90646200D03*
X140335000Y-93186200D03*
D18*
X128905000Y-88106200D03*
X118745000Y-88106200D03*
D19*
X123825000Y-88106200D03*
D20*
X127635000Y-90646200D03*
X121285000Y-93186200D03*
D18*
X109855000Y-88106200D03*
X99695000Y-88106200D03*
D19*
X104775000Y-88106200D03*
D20*
X108585000Y-90646200D03*
X102235000Y-93186200D03*
D18*
X90805000Y-88106200D03*
X80645000Y-88106200D03*
D19*
X85725000Y-88106200D03*
D20*
X89535000Y-90646200D03*
X83185000Y-93186200D03*
D18*
X167005000Y-69056200D03*
X156845000Y-69056200D03*
D19*
X161925000Y-69056200D03*
D20*
X165735000Y-71596200D03*
X159385000Y-74136200D03*
D18*
X147955000Y-69056200D03*
X137795000Y-69056200D03*
D19*
X142875000Y-69056200D03*
D20*
X146685000Y-71596200D03*
X140335000Y-74136200D03*
D18*
X128905000Y-69056200D03*
X118745000Y-69056200D03*
D19*
X123825000Y-69056200D03*
D20*
X127635000Y-71596200D03*
X121285000Y-74136200D03*
D18*
X109855000Y-69056200D03*
X99695000Y-69056200D03*
D19*
X104775000Y-69056200D03*
D20*
X108585000Y-71596200D03*
X102235000Y-74136200D03*
D18*
X90805000Y-69056200D03*
X80645000Y-69056200D03*
D19*
X85725000Y-69056200D03*
D20*
X89535000Y-71596200D03*
X83185000Y-74136200D03*
D21*
X163700000Y-130969000D03*
X160150000Y-130969000D03*
X144650000Y-130969000D03*
X141100000Y-130969000D03*
X125600000Y-116681000D03*
X122050000Y-116681000D03*
X106550000Y-130969000D03*
X103000000Y-130969000D03*
X87500000Y-130969000D03*
X83950000Y-130969000D03*
X144650000Y-111919000D03*
X141100000Y-111919000D03*
X125567000Y-111919000D03*
X122017000Y-111919000D03*
X106550000Y-111919000D03*
X103000000Y-111919000D03*
X87500000Y-111919000D03*
X83950000Y-111919000D03*
X144650000Y-83343800D03*
X141100000Y-83343800D03*
X125600000Y-83343800D03*
X122050000Y-83343800D03*
X106550000Y-83343800D03*
X103000000Y-83343800D03*
X87500000Y-83343800D03*
X83950000Y-83343800D03*
X163700000Y-78581200D03*
X160150000Y-78581200D03*
X144650000Y-78581200D03*
X141100000Y-78581200D03*
X125600000Y-78581200D03*
X122050000Y-78581200D03*
X106550000Y-78581200D03*
X103000000Y-78581200D03*
X87500000Y-78581200D03*
X83950000Y-78581200D03*
D16*
X157480000Y-58420000D03*
X160020000Y-58420000D03*
X162560000Y-58420000D03*
D17*
X165100000Y-58420000D03*
M02*
