G04 #@! TF.GenerationSoftware,KiCad,Pcbnew,(5.1.2)-2*
G04 #@! TF.CreationDate,2019-12-29T19:31:18+08:00*
G04 #@! TF.ProjectId,redox-receiver,7265646f-782d-4726-9563-65697665722e,rev?*
G04 #@! TF.SameCoordinates,Original*
G04 #@! TF.FileFunction,Legend,Bot*
G04 #@! TF.FilePolarity,Positive*
%FSLAX46Y46*%
G04 Gerber Fmt 4.6, Leading zero omitted, Abs format (unit mm)*
G04 Created by KiCad (PCBNEW (5.1.2)-2) date 2019-12-29 19:31:18*
%MOMM*%
%LPD*%
G04 APERTURE LIST*
%ADD10C,0.300000*%
%ADD11C,0.010000*%
%ADD12C,0.150000*%
%ADD13C,0.100000*%
%ADD14C,0.381000*%
%ADD15C,0.120000*%
%ADD16C,0.152400*%
G04 APERTURE END LIST*
D10*
X105444285Y-140378571D02*
X105444285Y-138878571D01*
X105444285Y-140307142D02*
X105587142Y-140378571D01*
X105872857Y-140378571D01*
X106015714Y-140307142D01*
X106087142Y-140235714D01*
X106158571Y-140092857D01*
X106158571Y-139664285D01*
X106087142Y-139521428D01*
X106015714Y-139450000D01*
X105872857Y-139378571D01*
X105587142Y-139378571D01*
X105444285Y-139450000D01*
X104158571Y-140307142D02*
X104301428Y-140378571D01*
X104587142Y-140378571D01*
X104730000Y-140307142D01*
X104801428Y-140164285D01*
X104801428Y-139592857D01*
X104730000Y-139450000D01*
X104587142Y-139378571D01*
X104301428Y-139378571D01*
X104158571Y-139450000D01*
X104087142Y-139592857D01*
X104087142Y-139735714D01*
X104801428Y-139878571D01*
X103515714Y-140307142D02*
X103372857Y-140378571D01*
X103087142Y-140378571D01*
X102944285Y-140307142D01*
X102872857Y-140164285D01*
X102872857Y-140092857D01*
X102944285Y-139950000D01*
X103087142Y-139878571D01*
X103301428Y-139878571D01*
X103444285Y-139807142D01*
X103515714Y-139664285D01*
X103515714Y-139592857D01*
X103444285Y-139450000D01*
X103301428Y-139378571D01*
X103087142Y-139378571D01*
X102944285Y-139450000D01*
X102230000Y-140378571D02*
X102230000Y-139378571D01*
X102230000Y-138878571D02*
X102301428Y-138950000D01*
X102230000Y-139021428D01*
X102158571Y-138950000D01*
X102230000Y-138878571D01*
X102230000Y-139021428D01*
X100872857Y-139378571D02*
X100872857Y-140592857D01*
X100944285Y-140735714D01*
X101015714Y-140807142D01*
X101158571Y-140878571D01*
X101372857Y-140878571D01*
X101515714Y-140807142D01*
X100872857Y-140307142D02*
X101015714Y-140378571D01*
X101301428Y-140378571D01*
X101444285Y-140307142D01*
X101515714Y-140235714D01*
X101587142Y-140092857D01*
X101587142Y-139664285D01*
X101515714Y-139521428D01*
X101444285Y-139450000D01*
X101301428Y-139378571D01*
X101015714Y-139378571D01*
X100872857Y-139450000D01*
X100158571Y-139378571D02*
X100158571Y-140378571D01*
X100158571Y-139521428D02*
X100087142Y-139450000D01*
X99944285Y-139378571D01*
X99730000Y-139378571D01*
X99587142Y-139450000D01*
X99515714Y-139592857D01*
X99515714Y-140378571D01*
X98230000Y-140307142D02*
X98372857Y-140378571D01*
X98658571Y-140378571D01*
X98801428Y-140307142D01*
X98872857Y-140164285D01*
X98872857Y-139592857D01*
X98801428Y-139450000D01*
X98658571Y-139378571D01*
X98372857Y-139378571D01*
X98230000Y-139450000D01*
X98158571Y-139592857D01*
X98158571Y-139735714D01*
X98872857Y-139878571D01*
X96872857Y-140378571D02*
X96872857Y-138878571D01*
X96872857Y-140307142D02*
X97015714Y-140378571D01*
X97301428Y-140378571D01*
X97444285Y-140307142D01*
X97515714Y-140235714D01*
X97587142Y-140092857D01*
X97587142Y-139664285D01*
X97515714Y-139521428D01*
X97444285Y-139450000D01*
X97301428Y-139378571D01*
X97015714Y-139378571D01*
X96872857Y-139450000D01*
X95015714Y-140378571D02*
X95015714Y-138878571D01*
X95015714Y-139450000D02*
X94872857Y-139378571D01*
X94587142Y-139378571D01*
X94444285Y-139450000D01*
X94372857Y-139521428D01*
X94301428Y-139664285D01*
X94301428Y-140092857D01*
X94372857Y-140235714D01*
X94444285Y-140307142D01*
X94587142Y-140378571D01*
X94872857Y-140378571D01*
X95015714Y-140307142D01*
X93801428Y-139378571D02*
X93444285Y-140378571D01*
X93087142Y-139378571D02*
X93444285Y-140378571D01*
X93587142Y-140735714D01*
X93658571Y-140807142D01*
X93801428Y-140878571D01*
X90872857Y-139592857D02*
X91372857Y-139592857D01*
X91372857Y-140378571D02*
X91372857Y-138878571D01*
X90658571Y-138878571D01*
X89301428Y-140378571D02*
X90158571Y-140378571D01*
X89730000Y-140378571D02*
X89730000Y-138878571D01*
X89872857Y-139092857D01*
X90015714Y-139235714D01*
X90158571Y-139307142D01*
X88015714Y-139378571D02*
X88015714Y-140378571D01*
X88372857Y-138807142D02*
X88730000Y-139878571D01*
X87801428Y-139878571D01*
X86658571Y-140307142D02*
X86801428Y-140378571D01*
X87087142Y-140378571D01*
X87230000Y-140307142D01*
X87301428Y-140164285D01*
X87301428Y-139592857D01*
X87230000Y-139450000D01*
X87087142Y-139378571D01*
X86801428Y-139378571D01*
X86658571Y-139450000D01*
X86587142Y-139592857D01*
X86587142Y-139735714D01*
X87301428Y-139878571D01*
X85301428Y-140378571D02*
X85301428Y-139592857D01*
X85372857Y-139450000D01*
X85515714Y-139378571D01*
X85801428Y-139378571D01*
X85944285Y-139450000D01*
X85301428Y-140307142D02*
X85444285Y-140378571D01*
X85801428Y-140378571D01*
X85944285Y-140307142D01*
X86015714Y-140164285D01*
X86015714Y-140021428D01*
X85944285Y-139878571D01*
X85801428Y-139807142D01*
X85444285Y-139807142D01*
X85301428Y-139735714D01*
X83944285Y-139378571D02*
X83944285Y-140592857D01*
X84015714Y-140735714D01*
X84087142Y-140807142D01*
X84230000Y-140878571D01*
X84444285Y-140878571D01*
X84587142Y-140807142D01*
X83944285Y-140307142D02*
X84087142Y-140378571D01*
X84372857Y-140378571D01*
X84515714Y-140307142D01*
X84587142Y-140235714D01*
X84658571Y-140092857D01*
X84658571Y-139664285D01*
X84587142Y-139521428D01*
X84515714Y-139450000D01*
X84372857Y-139378571D01*
X84087142Y-139378571D01*
X83944285Y-139450000D01*
X83015714Y-140378571D02*
X83158571Y-140307142D01*
X83230000Y-140164285D01*
X83230000Y-138878571D01*
X81872857Y-140307142D02*
X82015714Y-140378571D01*
X82301428Y-140378571D01*
X82444285Y-140307142D01*
X82515714Y-140164285D01*
X82515714Y-139592857D01*
X82444285Y-139450000D01*
X82301428Y-139378571D01*
X82015714Y-139378571D01*
X81872857Y-139450000D01*
X81801428Y-139592857D01*
X81801428Y-139735714D01*
X82515714Y-139878571D01*
D11*
G36*
X103923822Y-142984148D02*
G01*
X103782795Y-142978420D01*
X103641769Y-142972692D01*
X103632000Y-142748000D01*
X103622230Y-142523308D01*
X103407307Y-142523308D01*
X103396283Y-142984148D01*
X103255257Y-142978420D01*
X103114230Y-142972692D01*
X103094692Y-142523308D01*
X102879769Y-142523308D01*
X102868745Y-142984148D01*
X102727719Y-142978420D01*
X102586692Y-142972692D01*
X102567154Y-142523308D01*
X102352230Y-142523308D01*
X102346719Y-142753728D01*
X102341207Y-142984148D01*
X102200180Y-142978420D01*
X102059154Y-142972692D01*
X102049384Y-142748000D01*
X102039615Y-142523308D01*
X101824692Y-142523308D01*
X101819187Y-142752884D01*
X101813683Y-142982461D01*
X101720091Y-142982461D01*
X101580839Y-143000638D01*
X101455743Y-143052068D01*
X101349453Y-143132102D01*
X101266618Y-143236092D01*
X101211888Y-143359387D01*
X101189910Y-143497340D01*
X101189692Y-143512860D01*
X101189692Y-143606452D01*
X100960115Y-143611957D01*
X100730538Y-143617461D01*
X100724527Y-143723074D01*
X100725295Y-143799302D01*
X100738521Y-143839942D01*
X100744066Y-143844890D01*
X100773266Y-143851580D01*
X100832216Y-143856986D01*
X100911592Y-143860455D01*
X100979654Y-143861393D01*
X101189692Y-143861692D01*
X101189692Y-144133991D01*
X100960115Y-144139495D01*
X100730538Y-144145000D01*
X100724527Y-144250612D01*
X100725295Y-144326840D01*
X100738521Y-144367480D01*
X100744066Y-144372428D01*
X100773266Y-144379119D01*
X100832216Y-144384525D01*
X100911592Y-144387993D01*
X100979654Y-144388931D01*
X101189692Y-144389231D01*
X101189692Y-144661529D01*
X100960115Y-144667034D01*
X100730538Y-144672538D01*
X100724754Y-144782370D01*
X100723134Y-144834586D01*
X100728566Y-144871070D01*
X100746843Y-144894655D01*
X100783757Y-144908172D01*
X100845103Y-144914452D01*
X100936673Y-144916327D01*
X100999192Y-144916502D01*
X101189692Y-144916769D01*
X101189692Y-145189067D01*
X100730538Y-145200077D01*
X100724754Y-145309909D01*
X100723134Y-145362124D01*
X100728566Y-145398609D01*
X100746843Y-145422194D01*
X100783757Y-145435710D01*
X100845103Y-145441990D01*
X100936673Y-145443865D01*
X100999192Y-145444041D01*
X101189692Y-145444308D01*
X101189692Y-145716606D01*
X100960115Y-145722111D01*
X100730538Y-145727615D01*
X100724754Y-145837447D01*
X100723134Y-145889663D01*
X100728566Y-145926147D01*
X100746843Y-145949732D01*
X100783757Y-145963249D01*
X100845103Y-145969529D01*
X100936673Y-145971404D01*
X100999192Y-145971579D01*
X101189692Y-145971846D01*
X101189883Y-146074423D01*
X101208457Y-146208358D01*
X101260843Y-146329062D01*
X101342813Y-146432249D01*
X101450139Y-146513631D01*
X101578591Y-146568919D01*
X101700361Y-146592116D01*
X101814923Y-146602504D01*
X101814923Y-146812321D01*
X101816350Y-146917354D01*
X101822819Y-146989196D01*
X101837609Y-147033694D01*
X101863998Y-147056695D01*
X101905265Y-147064046D01*
X101955133Y-147062309D01*
X102039615Y-147056231D01*
X102049384Y-146831538D01*
X102059154Y-146606846D01*
X102200807Y-146601105D01*
X102342461Y-146595365D01*
X102342461Y-146808752D01*
X102343835Y-146914613D01*
X102350099Y-146987251D01*
X102364470Y-147032480D01*
X102390165Y-147056118D01*
X102430400Y-147063982D01*
X102482671Y-147062309D01*
X102567154Y-147056231D01*
X102572658Y-146826654D01*
X102578163Y-146597077D01*
X102870000Y-146597077D01*
X102870000Y-146809608D01*
X102871386Y-146915271D01*
X102877698Y-146987718D01*
X102892168Y-147032773D01*
X102918027Y-147056258D01*
X102958506Y-147063999D01*
X103010210Y-147062309D01*
X103094692Y-147056231D01*
X103100197Y-146826654D01*
X103105701Y-146597077D01*
X103397538Y-146597077D01*
X103397538Y-146809608D01*
X103398924Y-146915271D01*
X103405237Y-146987718D01*
X103419707Y-147032773D01*
X103445566Y-147056258D01*
X103486045Y-147063999D01*
X103537748Y-147062309D01*
X103622230Y-147056231D01*
X103633240Y-146597077D01*
X103925077Y-146597077D01*
X103925077Y-146808092D01*
X103927445Y-146920985D01*
X103934444Y-146998558D01*
X103945912Y-147039199D01*
X103948523Y-147042554D01*
X103980845Y-147056382D01*
X104033761Y-147064378D01*
X104090549Y-147065661D01*
X104134487Y-147059351D01*
X104146513Y-147052974D01*
X104151738Y-147029280D01*
X104155964Y-146974964D01*
X104158715Y-146898479D01*
X104159538Y-146821338D01*
X104159538Y-146602728D01*
X104285556Y-146590960D01*
X104436495Y-146559978D01*
X104563672Y-146498403D01*
X104665487Y-146407827D01*
X104740337Y-146289842D01*
X104786624Y-146146039D01*
X104796665Y-146082648D01*
X104809688Y-145971846D01*
X105003667Y-145971846D01*
X105111642Y-145970173D01*
X105186517Y-145963348D01*
X105234192Y-145948662D01*
X105260569Y-145923404D01*
X105271548Y-145884867D01*
X105273230Y-145848066D01*
X105268031Y-145790692D01*
X105255043Y-145748679D01*
X105249784Y-145741292D01*
X105216186Y-145729012D01*
X105145356Y-145721170D01*
X105038907Y-145717929D01*
X105015323Y-145717846D01*
X104804307Y-145717846D01*
X104804307Y-145444308D01*
X105000977Y-145444308D01*
X105109554Y-145442674D01*
X105185004Y-145435990D01*
X105233204Y-145421585D01*
X105260032Y-145396787D01*
X105271364Y-145358923D01*
X105273230Y-145320528D01*
X105268031Y-145263153D01*
X105255043Y-145221140D01*
X105249784Y-145213754D01*
X105216186Y-145201473D01*
X105145356Y-145193632D01*
X105038907Y-145190390D01*
X105015323Y-145190308D01*
X104804307Y-145190308D01*
X104804307Y-144916769D01*
X105000977Y-144916769D01*
X105109554Y-144915135D01*
X105185004Y-144908452D01*
X105233204Y-144894047D01*
X105260032Y-144869249D01*
X105271364Y-144831385D01*
X105273231Y-144792989D01*
X105268031Y-144735615D01*
X105255043Y-144693602D01*
X105249784Y-144686215D01*
X105216186Y-144673935D01*
X105145356Y-144666093D01*
X105038907Y-144662852D01*
X105015323Y-144662769D01*
X104804307Y-144662769D01*
X104804307Y-144412884D01*
X104019392Y-144412884D01*
X104019019Y-144551634D01*
X104016917Y-144660723D01*
X104012920Y-144744847D01*
X104006857Y-144808699D01*
X103998561Y-144856977D01*
X103995636Y-144869031D01*
X103935929Y-145025320D01*
X103845237Y-145158738D01*
X103725137Y-145268020D01*
X103577207Y-145351899D01*
X103403022Y-145409108D01*
X103299133Y-145428391D01*
X103143538Y-145450395D01*
X103143538Y-145648598D01*
X103140850Y-145760980D01*
X103132803Y-145835171D01*
X103119426Y-145870910D01*
X103119282Y-145871056D01*
X103082003Y-145885695D01*
X103012675Y-145890565D01*
X102977628Y-145889617D01*
X102860230Y-145883923D01*
X102854706Y-145664115D01*
X102851845Y-145568752D01*
X102848076Y-145505792D01*
X102842040Y-145468567D01*
X102832379Y-145450406D01*
X102817732Y-145444638D01*
X102809921Y-145444308D01*
X102744624Y-145437952D01*
X102656687Y-145421213D01*
X102560000Y-145397581D01*
X102468455Y-145370546D01*
X102395942Y-145343598D01*
X102380847Y-145336496D01*
X102276363Y-145268434D01*
X102175416Y-145176216D01*
X102091975Y-145073346D01*
X102067213Y-145033288D01*
X102037095Y-144976459D01*
X102013260Y-144922320D01*
X101994984Y-144865396D01*
X101981543Y-144800211D01*
X101972212Y-144721288D01*
X101966267Y-144623151D01*
X101962985Y-144500325D01*
X101961640Y-144347334D01*
X101961461Y-144233763D01*
X101961461Y-143716834D01*
X102029846Y-143702735D01*
X102099536Y-143696921D01*
X102166615Y-143702738D01*
X102235000Y-143716841D01*
X102246437Y-144233767D01*
X102251084Y-144403910D01*
X102256889Y-144550747D01*
X102263634Y-144670597D01*
X102271101Y-144759781D01*
X102279071Y-144814620D01*
X102281411Y-144823468D01*
X102338037Y-144937774D01*
X102425517Y-145036523D01*
X102537007Y-145114443D01*
X102665662Y-145166262D01*
X102747647Y-145182558D01*
X102849987Y-145195279D01*
X102855109Y-144456013D01*
X102860230Y-143716747D01*
X102928615Y-143702691D01*
X102998302Y-143696917D01*
X103065384Y-143702764D01*
X103133769Y-143716894D01*
X103138891Y-144455784D01*
X103144012Y-145194673D01*
X103236583Y-145181307D01*
X103383700Y-145143336D01*
X103510084Y-145076480D01*
X103611370Y-144983734D01*
X103678832Y-144877692D01*
X103691161Y-144848746D01*
X103700933Y-144817358D01*
X103708559Y-144778464D01*
X103714451Y-144727000D01*
X103719023Y-144657902D01*
X103722687Y-144566105D01*
X103725854Y-144446547D01*
X103728938Y-144294163D01*
X103729692Y-144253235D01*
X103739461Y-143716702D01*
X103807846Y-143702668D01*
X103877535Y-143696909D01*
X103944615Y-143702761D01*
X104013000Y-143716886D01*
X104018206Y-144239777D01*
X104019392Y-144412884D01*
X104804307Y-144412884D01*
X104804307Y-144389231D01*
X105000977Y-144389231D01*
X105109554Y-144387597D01*
X105185004Y-144380913D01*
X105233204Y-144366509D01*
X105260032Y-144341710D01*
X105271364Y-144303846D01*
X105273230Y-144265451D01*
X105268031Y-144208076D01*
X105255043Y-144166063D01*
X105249784Y-144158677D01*
X105216186Y-144146396D01*
X105145356Y-144138555D01*
X105038907Y-144135313D01*
X105015323Y-144135231D01*
X104804307Y-144135231D01*
X104804307Y-143861692D01*
X105000977Y-143861692D01*
X105109554Y-143860058D01*
X105185004Y-143853375D01*
X105233204Y-143838970D01*
X105260032Y-143814172D01*
X105271364Y-143776308D01*
X105273230Y-143737912D01*
X105268031Y-143680538D01*
X105255043Y-143638525D01*
X105249784Y-143631138D01*
X105216198Y-143618833D01*
X105145595Y-143610980D01*
X105039805Y-143607764D01*
X105018106Y-143607692D01*
X104809874Y-143607692D01*
X104797634Y-143490581D01*
X104777535Y-143372152D01*
X104741217Y-143276713D01*
X104682355Y-143189452D01*
X104656116Y-143159050D01*
X104559357Y-143072572D01*
X104449694Y-143016932D01*
X104317769Y-142987591D01*
X104298247Y-142985447D01*
X104169307Y-142972692D01*
X104149769Y-142523308D01*
X103934846Y-142523308D01*
X103923822Y-142984148D01*
X103923822Y-142984148D01*
G37*
X103923822Y-142984148D02*
X103782795Y-142978420D01*
X103641769Y-142972692D01*
X103632000Y-142748000D01*
X103622230Y-142523308D01*
X103407307Y-142523308D01*
X103396283Y-142984148D01*
X103255257Y-142978420D01*
X103114230Y-142972692D01*
X103094692Y-142523308D01*
X102879769Y-142523308D01*
X102868745Y-142984148D01*
X102727719Y-142978420D01*
X102586692Y-142972692D01*
X102567154Y-142523308D01*
X102352230Y-142523308D01*
X102346719Y-142753728D01*
X102341207Y-142984148D01*
X102200180Y-142978420D01*
X102059154Y-142972692D01*
X102049384Y-142748000D01*
X102039615Y-142523308D01*
X101824692Y-142523308D01*
X101819187Y-142752884D01*
X101813683Y-142982461D01*
X101720091Y-142982461D01*
X101580839Y-143000638D01*
X101455743Y-143052068D01*
X101349453Y-143132102D01*
X101266618Y-143236092D01*
X101211888Y-143359387D01*
X101189910Y-143497340D01*
X101189692Y-143512860D01*
X101189692Y-143606452D01*
X100960115Y-143611957D01*
X100730538Y-143617461D01*
X100724527Y-143723074D01*
X100725295Y-143799302D01*
X100738521Y-143839942D01*
X100744066Y-143844890D01*
X100773266Y-143851580D01*
X100832216Y-143856986D01*
X100911592Y-143860455D01*
X100979654Y-143861393D01*
X101189692Y-143861692D01*
X101189692Y-144133991D01*
X100960115Y-144139495D01*
X100730538Y-144145000D01*
X100724527Y-144250612D01*
X100725295Y-144326840D01*
X100738521Y-144367480D01*
X100744066Y-144372428D01*
X100773266Y-144379119D01*
X100832216Y-144384525D01*
X100911592Y-144387993D01*
X100979654Y-144388931D01*
X101189692Y-144389231D01*
X101189692Y-144661529D01*
X100960115Y-144667034D01*
X100730538Y-144672538D01*
X100724754Y-144782370D01*
X100723134Y-144834586D01*
X100728566Y-144871070D01*
X100746843Y-144894655D01*
X100783757Y-144908172D01*
X100845103Y-144914452D01*
X100936673Y-144916327D01*
X100999192Y-144916502D01*
X101189692Y-144916769D01*
X101189692Y-145189067D01*
X100730538Y-145200077D01*
X100724754Y-145309909D01*
X100723134Y-145362124D01*
X100728566Y-145398609D01*
X100746843Y-145422194D01*
X100783757Y-145435710D01*
X100845103Y-145441990D01*
X100936673Y-145443865D01*
X100999192Y-145444041D01*
X101189692Y-145444308D01*
X101189692Y-145716606D01*
X100960115Y-145722111D01*
X100730538Y-145727615D01*
X100724754Y-145837447D01*
X100723134Y-145889663D01*
X100728566Y-145926147D01*
X100746843Y-145949732D01*
X100783757Y-145963249D01*
X100845103Y-145969529D01*
X100936673Y-145971404D01*
X100999192Y-145971579D01*
X101189692Y-145971846D01*
X101189883Y-146074423D01*
X101208457Y-146208358D01*
X101260843Y-146329062D01*
X101342813Y-146432249D01*
X101450139Y-146513631D01*
X101578591Y-146568919D01*
X101700361Y-146592116D01*
X101814923Y-146602504D01*
X101814923Y-146812321D01*
X101816350Y-146917354D01*
X101822819Y-146989196D01*
X101837609Y-147033694D01*
X101863998Y-147056695D01*
X101905265Y-147064046D01*
X101955133Y-147062309D01*
X102039615Y-147056231D01*
X102049384Y-146831538D01*
X102059154Y-146606846D01*
X102200807Y-146601105D01*
X102342461Y-146595365D01*
X102342461Y-146808752D01*
X102343835Y-146914613D01*
X102350099Y-146987251D01*
X102364470Y-147032480D01*
X102390165Y-147056118D01*
X102430400Y-147063982D01*
X102482671Y-147062309D01*
X102567154Y-147056231D01*
X102572658Y-146826654D01*
X102578163Y-146597077D01*
X102870000Y-146597077D01*
X102870000Y-146809608D01*
X102871386Y-146915271D01*
X102877698Y-146987718D01*
X102892168Y-147032773D01*
X102918027Y-147056258D01*
X102958506Y-147063999D01*
X103010210Y-147062309D01*
X103094692Y-147056231D01*
X103100197Y-146826654D01*
X103105701Y-146597077D01*
X103397538Y-146597077D01*
X103397538Y-146809608D01*
X103398924Y-146915271D01*
X103405237Y-146987718D01*
X103419707Y-147032773D01*
X103445566Y-147056258D01*
X103486045Y-147063999D01*
X103537748Y-147062309D01*
X103622230Y-147056231D01*
X103633240Y-146597077D01*
X103925077Y-146597077D01*
X103925077Y-146808092D01*
X103927445Y-146920985D01*
X103934444Y-146998558D01*
X103945912Y-147039199D01*
X103948523Y-147042554D01*
X103980845Y-147056382D01*
X104033761Y-147064378D01*
X104090549Y-147065661D01*
X104134487Y-147059351D01*
X104146513Y-147052974D01*
X104151738Y-147029280D01*
X104155964Y-146974964D01*
X104158715Y-146898479D01*
X104159538Y-146821338D01*
X104159538Y-146602728D01*
X104285556Y-146590960D01*
X104436495Y-146559978D01*
X104563672Y-146498403D01*
X104665487Y-146407827D01*
X104740337Y-146289842D01*
X104786624Y-146146039D01*
X104796665Y-146082648D01*
X104809688Y-145971846D01*
X105003667Y-145971846D01*
X105111642Y-145970173D01*
X105186517Y-145963348D01*
X105234192Y-145948662D01*
X105260569Y-145923404D01*
X105271548Y-145884867D01*
X105273230Y-145848066D01*
X105268031Y-145790692D01*
X105255043Y-145748679D01*
X105249784Y-145741292D01*
X105216186Y-145729012D01*
X105145356Y-145721170D01*
X105038907Y-145717929D01*
X105015323Y-145717846D01*
X104804307Y-145717846D01*
X104804307Y-145444308D01*
X105000977Y-145444308D01*
X105109554Y-145442674D01*
X105185004Y-145435990D01*
X105233204Y-145421585D01*
X105260032Y-145396787D01*
X105271364Y-145358923D01*
X105273230Y-145320528D01*
X105268031Y-145263153D01*
X105255043Y-145221140D01*
X105249784Y-145213754D01*
X105216186Y-145201473D01*
X105145356Y-145193632D01*
X105038907Y-145190390D01*
X105015323Y-145190308D01*
X104804307Y-145190308D01*
X104804307Y-144916769D01*
X105000977Y-144916769D01*
X105109554Y-144915135D01*
X105185004Y-144908452D01*
X105233204Y-144894047D01*
X105260032Y-144869249D01*
X105271364Y-144831385D01*
X105273231Y-144792989D01*
X105268031Y-144735615D01*
X105255043Y-144693602D01*
X105249784Y-144686215D01*
X105216186Y-144673935D01*
X105145356Y-144666093D01*
X105038907Y-144662852D01*
X105015323Y-144662769D01*
X104804307Y-144662769D01*
X104804307Y-144412884D01*
X104019392Y-144412884D01*
X104019019Y-144551634D01*
X104016917Y-144660723D01*
X104012920Y-144744847D01*
X104006857Y-144808699D01*
X103998561Y-144856977D01*
X103995636Y-144869031D01*
X103935929Y-145025320D01*
X103845237Y-145158738D01*
X103725137Y-145268020D01*
X103577207Y-145351899D01*
X103403022Y-145409108D01*
X103299133Y-145428391D01*
X103143538Y-145450395D01*
X103143538Y-145648598D01*
X103140850Y-145760980D01*
X103132803Y-145835171D01*
X103119426Y-145870910D01*
X103119282Y-145871056D01*
X103082003Y-145885695D01*
X103012675Y-145890565D01*
X102977628Y-145889617D01*
X102860230Y-145883923D01*
X102854706Y-145664115D01*
X102851845Y-145568752D01*
X102848076Y-145505792D01*
X102842040Y-145468567D01*
X102832379Y-145450406D01*
X102817732Y-145444638D01*
X102809921Y-145444308D01*
X102744624Y-145437952D01*
X102656687Y-145421213D01*
X102560000Y-145397581D01*
X102468455Y-145370546D01*
X102395942Y-145343598D01*
X102380847Y-145336496D01*
X102276363Y-145268434D01*
X102175416Y-145176216D01*
X102091975Y-145073346D01*
X102067213Y-145033288D01*
X102037095Y-144976459D01*
X102013260Y-144922320D01*
X101994984Y-144865396D01*
X101981543Y-144800211D01*
X101972212Y-144721288D01*
X101966267Y-144623151D01*
X101962985Y-144500325D01*
X101961640Y-144347334D01*
X101961461Y-144233763D01*
X101961461Y-143716834D01*
X102029846Y-143702735D01*
X102099536Y-143696921D01*
X102166615Y-143702738D01*
X102235000Y-143716841D01*
X102246437Y-144233767D01*
X102251084Y-144403910D01*
X102256889Y-144550747D01*
X102263634Y-144670597D01*
X102271101Y-144759781D01*
X102279071Y-144814620D01*
X102281411Y-144823468D01*
X102338037Y-144937774D01*
X102425517Y-145036523D01*
X102537007Y-145114443D01*
X102665662Y-145166262D01*
X102747647Y-145182558D01*
X102849987Y-145195279D01*
X102855109Y-144456013D01*
X102860230Y-143716747D01*
X102928615Y-143702691D01*
X102998302Y-143696917D01*
X103065384Y-143702764D01*
X103133769Y-143716894D01*
X103138891Y-144455784D01*
X103144012Y-145194673D01*
X103236583Y-145181307D01*
X103383700Y-145143336D01*
X103510084Y-145076480D01*
X103611370Y-144983734D01*
X103678832Y-144877692D01*
X103691161Y-144848746D01*
X103700933Y-144817358D01*
X103708559Y-144778464D01*
X103714451Y-144727000D01*
X103719023Y-144657902D01*
X103722687Y-144566105D01*
X103725854Y-144446547D01*
X103728938Y-144294163D01*
X103729692Y-144253235D01*
X103739461Y-143716702D01*
X103807846Y-143702668D01*
X103877535Y-143696909D01*
X103944615Y-143702761D01*
X104013000Y-143716886D01*
X104018206Y-144239777D01*
X104019392Y-144412884D01*
X104804307Y-144412884D01*
X104804307Y-144389231D01*
X105000977Y-144389231D01*
X105109554Y-144387597D01*
X105185004Y-144380913D01*
X105233204Y-144366509D01*
X105260032Y-144341710D01*
X105271364Y-144303846D01*
X105273230Y-144265451D01*
X105268031Y-144208076D01*
X105255043Y-144166063D01*
X105249784Y-144158677D01*
X105216186Y-144146396D01*
X105145356Y-144138555D01*
X105038907Y-144135313D01*
X105015323Y-144135231D01*
X104804307Y-144135231D01*
X104804307Y-143861692D01*
X105000977Y-143861692D01*
X105109554Y-143860058D01*
X105185004Y-143853375D01*
X105233204Y-143838970D01*
X105260032Y-143814172D01*
X105271364Y-143776308D01*
X105273230Y-143737912D01*
X105268031Y-143680538D01*
X105255043Y-143638525D01*
X105249784Y-143631138D01*
X105216198Y-143618833D01*
X105145595Y-143610980D01*
X105039805Y-143607764D01*
X105018106Y-143607692D01*
X104809874Y-143607692D01*
X104797634Y-143490581D01*
X104777535Y-143372152D01*
X104741217Y-143276713D01*
X104682355Y-143189452D01*
X104656116Y-143159050D01*
X104559357Y-143072572D01*
X104449694Y-143016932D01*
X104317769Y-142987591D01*
X104298247Y-142985447D01*
X104169307Y-142972692D01*
X104149769Y-142523308D01*
X103934846Y-142523308D01*
X103923822Y-142984148D01*
G36*
X98742074Y-144849363D02*
G01*
X98602834Y-144882912D01*
X98481285Y-144941682D01*
X98433209Y-144974755D01*
X98333765Y-145063507D01*
X98258123Y-145166069D01*
X98197587Y-145294428D01*
X98193568Y-145305014D01*
X98177201Y-145353919D01*
X98165718Y-145404241D01*
X98158282Y-145464254D01*
X98154061Y-145542235D01*
X98152217Y-145646458D01*
X98151915Y-145717846D01*
X98152350Y-145838407D01*
X98154672Y-145928540D01*
X98159786Y-145996884D01*
X98168595Y-146052075D01*
X98182003Y-146102752D01*
X98196730Y-146146072D01*
X98230053Y-146226572D01*
X98269685Y-146305805D01*
X98298626Y-146353757D01*
X98355254Y-146436062D01*
X98243588Y-146514051D01*
X98167484Y-146564108D01*
X98085752Y-146613178D01*
X98031678Y-146642552D01*
X97957569Y-146690156D01*
X97919023Y-146743304D01*
X97912530Y-146808170D01*
X97918746Y-146841308D01*
X97931206Y-146874087D01*
X97953041Y-146886646D01*
X97993622Y-146880565D01*
X98047044Y-146862923D01*
X98156357Y-146813815D01*
X98280785Y-146740760D01*
X98410283Y-146649706D01*
X98421028Y-146641463D01*
X98534287Y-146553973D01*
X98635951Y-146599640D01*
X98733306Y-146629115D01*
X98854547Y-146644602D01*
X98987088Y-146646145D01*
X99118342Y-146633787D01*
X99235724Y-146607573D01*
X99265154Y-146597468D01*
X99390672Y-146530609D01*
X99502568Y-146433850D01*
X99592273Y-146316040D01*
X99644886Y-146205349D01*
X99669994Y-146107689D01*
X99688653Y-145983753D01*
X99700154Y-145845921D01*
X99702986Y-145737385D01*
X99459217Y-145737385D01*
X99455309Y-145897076D01*
X99440864Y-146025683D01*
X99414310Y-146130158D01*
X99374078Y-146217449D01*
X99339011Y-146269360D01*
X99248875Y-146356228D01*
X99136783Y-146415482D01*
X99009621Y-146445870D01*
X98874276Y-146446141D01*
X98737636Y-146415045D01*
X98676066Y-146389780D01*
X98576545Y-146325607D01*
X98496754Y-146234648D01*
X98432171Y-146111645D01*
X98427992Y-146101424D01*
X98410800Y-146052507D01*
X98399178Y-146000682D01*
X98392129Y-145936915D01*
X98388653Y-145852173D01*
X98387753Y-145737422D01*
X98387753Y-145737385D01*
X98392139Y-145579639D01*
X98406558Y-145453117D01*
X98433114Y-145350778D01*
X98473912Y-145265580D01*
X98531057Y-145190483D01*
X98560228Y-145160465D01*
X98649352Y-145092121D01*
X98751369Y-145051294D01*
X98875359Y-145034733D01*
X98913461Y-145034000D01*
X99040774Y-145043615D01*
X99144421Y-145075237D01*
X99235501Y-145133027D01*
X99277111Y-145170400D01*
X99346533Y-145248573D01*
X99396953Y-145332384D01*
X99430824Y-145429464D01*
X99450593Y-145547441D01*
X99458713Y-145693943D01*
X99459217Y-145737385D01*
X99702986Y-145737385D01*
X99703791Y-145706569D01*
X99698858Y-145578074D01*
X99686279Y-145480790D01*
X99634652Y-145300315D01*
X99556831Y-145148774D01*
X99453445Y-145026686D01*
X99325128Y-144934573D01*
X99172511Y-144872953D01*
X98996225Y-144842348D01*
X98906699Y-144838827D01*
X98742074Y-144849363D01*
X98742074Y-144849363D01*
G37*
X98742074Y-144849363D02*
X98602834Y-144882912D01*
X98481285Y-144941682D01*
X98433209Y-144974755D01*
X98333765Y-145063507D01*
X98258123Y-145166069D01*
X98197587Y-145294428D01*
X98193568Y-145305014D01*
X98177201Y-145353919D01*
X98165718Y-145404241D01*
X98158282Y-145464254D01*
X98154061Y-145542235D01*
X98152217Y-145646458D01*
X98151915Y-145717846D01*
X98152350Y-145838407D01*
X98154672Y-145928540D01*
X98159786Y-145996884D01*
X98168595Y-146052075D01*
X98182003Y-146102752D01*
X98196730Y-146146072D01*
X98230053Y-146226572D01*
X98269685Y-146305805D01*
X98298626Y-146353757D01*
X98355254Y-146436062D01*
X98243588Y-146514051D01*
X98167484Y-146564108D01*
X98085752Y-146613178D01*
X98031678Y-146642552D01*
X97957569Y-146690156D01*
X97919023Y-146743304D01*
X97912530Y-146808170D01*
X97918746Y-146841308D01*
X97931206Y-146874087D01*
X97953041Y-146886646D01*
X97993622Y-146880565D01*
X98047044Y-146862923D01*
X98156357Y-146813815D01*
X98280785Y-146740760D01*
X98410283Y-146649706D01*
X98421028Y-146641463D01*
X98534287Y-146553973D01*
X98635951Y-146599640D01*
X98733306Y-146629115D01*
X98854547Y-146644602D01*
X98987088Y-146646145D01*
X99118342Y-146633787D01*
X99235724Y-146607573D01*
X99265154Y-146597468D01*
X99390672Y-146530609D01*
X99502568Y-146433850D01*
X99592273Y-146316040D01*
X99644886Y-146205349D01*
X99669994Y-146107689D01*
X99688653Y-145983753D01*
X99700154Y-145845921D01*
X99702986Y-145737385D01*
X99459217Y-145737385D01*
X99455309Y-145897076D01*
X99440864Y-146025683D01*
X99414310Y-146130158D01*
X99374078Y-146217449D01*
X99339011Y-146269360D01*
X99248875Y-146356228D01*
X99136783Y-146415482D01*
X99009621Y-146445870D01*
X98874276Y-146446141D01*
X98737636Y-146415045D01*
X98676066Y-146389780D01*
X98576545Y-146325607D01*
X98496754Y-146234648D01*
X98432171Y-146111645D01*
X98427992Y-146101424D01*
X98410800Y-146052507D01*
X98399178Y-146000682D01*
X98392129Y-145936915D01*
X98388653Y-145852173D01*
X98387753Y-145737422D01*
X98387753Y-145737385D01*
X98392139Y-145579639D01*
X98406558Y-145453117D01*
X98433114Y-145350778D01*
X98473912Y-145265580D01*
X98531057Y-145190483D01*
X98560228Y-145160465D01*
X98649352Y-145092121D01*
X98751369Y-145051294D01*
X98875359Y-145034733D01*
X98913461Y-145034000D01*
X99040774Y-145043615D01*
X99144421Y-145075237D01*
X99235501Y-145133027D01*
X99277111Y-145170400D01*
X99346533Y-145248573D01*
X99396953Y-145332384D01*
X99430824Y-145429464D01*
X99450593Y-145547441D01*
X99458713Y-145693943D01*
X99459217Y-145737385D01*
X99702986Y-145737385D01*
X99703791Y-145706569D01*
X99698858Y-145578074D01*
X99686279Y-145480790D01*
X99634652Y-145300315D01*
X99556831Y-145148774D01*
X99453445Y-145026686D01*
X99325128Y-144934573D01*
X99172511Y-144872953D01*
X98996225Y-144842348D01*
X98906699Y-144838827D01*
X98742074Y-144849363D01*
G36*
X85563452Y-145312405D02*
G01*
X85471440Y-145329331D01*
X85387601Y-145369756D01*
X85310305Y-145436828D01*
X85251469Y-145518489D01*
X85228302Y-145575384D01*
X85220642Y-145626890D01*
X85215138Y-145715188D01*
X85211854Y-145838048D01*
X85210857Y-145993240D01*
X85211770Y-146141291D01*
X85217000Y-146626385D01*
X85295154Y-146626385D01*
X85345414Y-146624138D01*
X85368785Y-146610338D01*
X85377441Y-146574391D01*
X85379371Y-146553115D01*
X85385564Y-146506005D01*
X85393318Y-146481045D01*
X85395171Y-146479846D01*
X85414750Y-146491035D01*
X85453710Y-146519521D01*
X85479213Y-146539561D01*
X85590287Y-146606487D01*
X85715192Y-146644275D01*
X85843208Y-146650933D01*
X85954399Y-146627890D01*
X86065364Y-146573989D01*
X86142257Y-146502184D01*
X86186961Y-146409599D01*
X86201357Y-146293358D01*
X86200785Y-146276230D01*
X85983271Y-146276230D01*
X85971462Y-146323795D01*
X85930427Y-146399424D01*
X85864710Y-146451551D01*
X85782616Y-146477620D01*
X85692451Y-146475075D01*
X85602520Y-146441361D01*
X85598000Y-146438704D01*
X85537082Y-146397274D01*
X85480266Y-146351248D01*
X85475884Y-146347198D01*
X85447105Y-146316261D01*
X85430916Y-146283421D01*
X85423778Y-146236403D01*
X85422154Y-146162926D01*
X85422154Y-146024779D01*
X85614633Y-146035385D01*
X85737967Y-146046263D01*
X85828928Y-146065007D01*
X85893862Y-146094197D01*
X85939114Y-146136413D01*
X85963494Y-146177205D01*
X85982852Y-146228882D01*
X85983271Y-146276230D01*
X86200785Y-146276230D01*
X86199995Y-146252606D01*
X86178713Y-146140270D01*
X86129543Y-146049246D01*
X86050944Y-145978520D01*
X85941374Y-145927074D01*
X85799290Y-145893893D01*
X85632192Y-145878335D01*
X85422154Y-145869134D01*
X85422263Y-145798375D01*
X85434756Y-145687758D01*
X85469645Y-145595215D01*
X85510678Y-145541435D01*
X85579335Y-145501765D01*
X85671548Y-145484276D01*
X85778568Y-145489164D01*
X85891644Y-145516627D01*
X85931831Y-145531945D01*
X86002336Y-145560389D01*
X86064257Y-145583278D01*
X86102361Y-145595148D01*
X86130227Y-145598630D01*
X86142186Y-145585523D01*
X86143112Y-145546585D01*
X86141438Y-145521057D01*
X86132471Y-145462687D01*
X86110021Y-145426378D01*
X86071901Y-145399567D01*
X85965033Y-145353659D01*
X85835379Y-145322743D01*
X85696873Y-145308448D01*
X85563452Y-145312405D01*
X85563452Y-145312405D01*
G37*
X85563452Y-145312405D02*
X85471440Y-145329331D01*
X85387601Y-145369756D01*
X85310305Y-145436828D01*
X85251469Y-145518489D01*
X85228302Y-145575384D01*
X85220642Y-145626890D01*
X85215138Y-145715188D01*
X85211854Y-145838048D01*
X85210857Y-145993240D01*
X85211770Y-146141291D01*
X85217000Y-146626385D01*
X85295154Y-146626385D01*
X85345414Y-146624138D01*
X85368785Y-146610338D01*
X85377441Y-146574391D01*
X85379371Y-146553115D01*
X85385564Y-146506005D01*
X85393318Y-146481045D01*
X85395171Y-146479846D01*
X85414750Y-146491035D01*
X85453710Y-146519521D01*
X85479213Y-146539561D01*
X85590287Y-146606487D01*
X85715192Y-146644275D01*
X85843208Y-146650933D01*
X85954399Y-146627890D01*
X86065364Y-146573989D01*
X86142257Y-146502184D01*
X86186961Y-146409599D01*
X86201357Y-146293358D01*
X86200785Y-146276230D01*
X85983271Y-146276230D01*
X85971462Y-146323795D01*
X85930427Y-146399424D01*
X85864710Y-146451551D01*
X85782616Y-146477620D01*
X85692451Y-146475075D01*
X85602520Y-146441361D01*
X85598000Y-146438704D01*
X85537082Y-146397274D01*
X85480266Y-146351248D01*
X85475884Y-146347198D01*
X85447105Y-146316261D01*
X85430916Y-146283421D01*
X85423778Y-146236403D01*
X85422154Y-146162926D01*
X85422154Y-146024779D01*
X85614633Y-146035385D01*
X85737967Y-146046263D01*
X85828928Y-146065007D01*
X85893862Y-146094197D01*
X85939114Y-146136413D01*
X85963494Y-146177205D01*
X85982852Y-146228882D01*
X85983271Y-146276230D01*
X86200785Y-146276230D01*
X86199995Y-146252606D01*
X86178713Y-146140270D01*
X86129543Y-146049246D01*
X86050944Y-145978520D01*
X85941374Y-145927074D01*
X85799290Y-145893893D01*
X85632192Y-145878335D01*
X85422154Y-145869134D01*
X85422263Y-145798375D01*
X85434756Y-145687758D01*
X85469645Y-145595215D01*
X85510678Y-145541435D01*
X85579335Y-145501765D01*
X85671548Y-145484276D01*
X85778568Y-145489164D01*
X85891644Y-145516627D01*
X85931831Y-145531945D01*
X86002336Y-145560389D01*
X86064257Y-145583278D01*
X86102361Y-145595148D01*
X86130227Y-145598630D01*
X86142186Y-145585523D01*
X86143112Y-145546585D01*
X86141438Y-145521057D01*
X86132471Y-145462687D01*
X86110021Y-145426378D01*
X86071901Y-145399567D01*
X85965033Y-145353659D01*
X85835379Y-145322743D01*
X85696873Y-145308448D01*
X85563452Y-145312405D01*
G36*
X83211050Y-145317898D02*
G01*
X83079055Y-145356087D01*
X82970455Y-145425193D01*
X82886286Y-145524301D01*
X82827584Y-145652496D01*
X82795385Y-145808862D01*
X82794678Y-145815538D01*
X82788507Y-145878368D01*
X82787330Y-145926836D01*
X82795460Y-145962884D01*
X82817210Y-145988449D01*
X82856891Y-146005471D01*
X82918816Y-146015890D01*
X83007297Y-146021644D01*
X83126646Y-146024673D01*
X83264167Y-146026675D01*
X83688471Y-146032657D01*
X83677457Y-146139374D01*
X83650354Y-146260160D01*
X83596574Y-146352796D01*
X83515605Y-146417693D01*
X83406939Y-146455263D01*
X83272923Y-146465963D01*
X83150491Y-146456148D01*
X83031266Y-146432796D01*
X83000823Y-146423982D01*
X82935091Y-146405188D01*
X82884108Y-146394451D01*
X82859169Y-146394052D01*
X82846253Y-146421176D01*
X82843547Y-146468161D01*
X82850131Y-146517411D01*
X82865087Y-146551329D01*
X82867500Y-146553614D01*
X82925214Y-146584190D01*
X83011715Y-146609887D01*
X83116885Y-146629490D01*
X83230603Y-146641786D01*
X83342754Y-146645560D01*
X83443217Y-146639599D01*
X83499434Y-146629432D01*
X83632732Y-146580188D01*
X83738773Y-146506415D01*
X83818810Y-146406322D01*
X83874092Y-146278118D01*
X83905873Y-146120011D01*
X83912904Y-146037478D01*
X83909669Y-145858874D01*
X83908796Y-145854615D01*
X83688376Y-145854615D01*
X83018923Y-145854615D01*
X83019244Y-145781346D01*
X83035726Y-145694574D01*
X83078575Y-145608674D01*
X83138980Y-145539153D01*
X83169177Y-145517556D01*
X83248950Y-145489296D01*
X83345561Y-145481545D01*
X83442474Y-145494489D01*
X83497371Y-145513886D01*
X83572897Y-145568985D01*
X83634002Y-145650085D01*
X83671942Y-145744522D01*
X83677706Y-145775064D01*
X83688376Y-145854615D01*
X83908796Y-145854615D01*
X83878163Y-145705234D01*
X83817585Y-145573731D01*
X83759422Y-145495562D01*
X83672270Y-145411143D01*
X83580431Y-145355619D01*
X83472607Y-145323715D01*
X83365403Y-145311541D01*
X83211050Y-145317898D01*
X83211050Y-145317898D01*
G37*
X83211050Y-145317898D02*
X83079055Y-145356087D01*
X82970455Y-145425193D01*
X82886286Y-145524301D01*
X82827584Y-145652496D01*
X82795385Y-145808862D01*
X82794678Y-145815538D01*
X82788507Y-145878368D01*
X82787330Y-145926836D01*
X82795460Y-145962884D01*
X82817210Y-145988449D01*
X82856891Y-146005471D01*
X82918816Y-146015890D01*
X83007297Y-146021644D01*
X83126646Y-146024673D01*
X83264167Y-146026675D01*
X83688471Y-146032657D01*
X83677457Y-146139374D01*
X83650354Y-146260160D01*
X83596574Y-146352796D01*
X83515605Y-146417693D01*
X83406939Y-146455263D01*
X83272923Y-146465963D01*
X83150491Y-146456148D01*
X83031266Y-146432796D01*
X83000823Y-146423982D01*
X82935091Y-146405188D01*
X82884108Y-146394451D01*
X82859169Y-146394052D01*
X82846253Y-146421176D01*
X82843547Y-146468161D01*
X82850131Y-146517411D01*
X82865087Y-146551329D01*
X82867500Y-146553614D01*
X82925214Y-146584190D01*
X83011715Y-146609887D01*
X83116885Y-146629490D01*
X83230603Y-146641786D01*
X83342754Y-146645560D01*
X83443217Y-146639599D01*
X83499434Y-146629432D01*
X83632732Y-146580188D01*
X83738773Y-146506415D01*
X83818810Y-146406322D01*
X83874092Y-146278118D01*
X83905873Y-146120011D01*
X83912904Y-146037478D01*
X83909669Y-145858874D01*
X83908796Y-145854615D01*
X83688376Y-145854615D01*
X83018923Y-145854615D01*
X83019244Y-145781346D01*
X83035726Y-145694574D01*
X83078575Y-145608674D01*
X83138980Y-145539153D01*
X83169177Y-145517556D01*
X83248950Y-145489296D01*
X83345561Y-145481545D01*
X83442474Y-145494489D01*
X83497371Y-145513886D01*
X83572897Y-145568985D01*
X83634002Y-145650085D01*
X83671942Y-145744522D01*
X83677706Y-145775064D01*
X83688376Y-145854615D01*
X83908796Y-145854615D01*
X83878163Y-145705234D01*
X83817585Y-145573731D01*
X83759422Y-145495562D01*
X83672270Y-145411143D01*
X83580431Y-145355619D01*
X83472607Y-145323715D01*
X83365403Y-145311541D01*
X83211050Y-145317898D01*
G36*
X95883296Y-144864581D02*
G01*
X95834007Y-144883616D01*
X95827780Y-144888857D01*
X95820290Y-144900063D01*
X95814106Y-144919622D01*
X95809105Y-144950990D01*
X95805167Y-144997625D01*
X95802170Y-145062984D01*
X95799994Y-145150522D01*
X95798518Y-145263698D01*
X95797621Y-145405969D01*
X95797181Y-145580790D01*
X95797077Y-145765997D01*
X95796994Y-145973318D01*
X95797050Y-146144925D01*
X95797695Y-146284179D01*
X95799384Y-146394441D01*
X95802569Y-146479075D01*
X95807703Y-146541441D01*
X95815239Y-146584900D01*
X95825630Y-146612814D01*
X95839328Y-146628546D01*
X95856787Y-146635455D01*
X95878460Y-146636905D01*
X95904798Y-146636256D01*
X95914307Y-146636154D01*
X95943185Y-146636700D01*
X95966901Y-146636011D01*
X95985966Y-146630597D01*
X96000888Y-146616969D01*
X96012176Y-146591637D01*
X96020339Y-146551111D01*
X96025886Y-146491902D01*
X96029327Y-146410519D01*
X96031169Y-146303474D01*
X96031923Y-146167275D01*
X96032098Y-145998434D01*
X96032169Y-145828102D01*
X96032800Y-145043769D01*
X96347910Y-145825308D01*
X96414837Y-145990435D01*
X96477889Y-146144338D01*
X96535461Y-146283224D01*
X96585949Y-146403298D01*
X96627751Y-146500768D01*
X96659263Y-146571838D01*
X96678881Y-146612715D01*
X96684318Y-146621201D01*
X96717181Y-146630966D01*
X96768691Y-146635513D01*
X96774000Y-146635555D01*
X96826349Y-146631695D01*
X96862144Y-146622290D01*
X96863980Y-146621201D01*
X96875364Y-146600454D01*
X96899087Y-146547012D01*
X96933597Y-146464704D01*
X96977343Y-146357359D01*
X97028773Y-146228808D01*
X97086337Y-146082880D01*
X97148484Y-145923404D01*
X97186365Y-145825308D01*
X97487154Y-145043769D01*
X97506692Y-146626385D01*
X97594717Y-146632144D01*
X97658114Y-146630480D01*
X97701174Y-146618071D01*
X97707063Y-146613583D01*
X97713469Y-146588022D01*
X97718970Y-146528393D01*
X97723568Y-146439694D01*
X97727265Y-146326921D01*
X97730064Y-146195072D01*
X97731968Y-146049146D01*
X97732979Y-145894140D01*
X97733100Y-145735052D01*
X97732333Y-145576880D01*
X97730682Y-145424621D01*
X97728148Y-145283273D01*
X97724734Y-145157834D01*
X97720443Y-145053302D01*
X97715278Y-144974674D01*
X97709240Y-144926948D01*
X97706182Y-144916769D01*
X97688130Y-144889599D01*
X97661273Y-144873920D01*
X97614779Y-144865767D01*
X97556665Y-144862021D01*
X97453960Y-144863082D01*
X97380489Y-144879929D01*
X97328393Y-144916055D01*
X97289812Y-144974952D01*
X97286451Y-144982106D01*
X97270397Y-145019659D01*
X97242073Y-145088612D01*
X97203477Y-145183986D01*
X97156610Y-145300805D01*
X97103471Y-145434090D01*
X97046061Y-145578863D01*
X97008305Y-145674473D01*
X96950882Y-145818755D01*
X96897596Y-145950007D01*
X96850185Y-146064157D01*
X96810384Y-146157134D01*
X96779927Y-146224863D01*
X96760551Y-146263272D01*
X96754341Y-146270396D01*
X96744197Y-146249397D01*
X96721055Y-146196337D01*
X96686649Y-146115352D01*
X96642713Y-146010574D01*
X96590980Y-145886138D01*
X96533183Y-145746179D01*
X96471056Y-145594829D01*
X96470891Y-145594426D01*
X96391225Y-145401306D01*
X96324361Y-145242671D01*
X96269346Y-145116427D01*
X96225224Y-145020484D01*
X96191043Y-144952749D01*
X96165850Y-144911132D01*
X96152442Y-144895926D01*
X96101751Y-144872564D01*
X96030865Y-144859353D01*
X95953481Y-144856593D01*
X95883296Y-144864581D01*
X95883296Y-144864581D01*
G37*
X95883296Y-144864581D02*
X95834007Y-144883616D01*
X95827780Y-144888857D01*
X95820290Y-144900063D01*
X95814106Y-144919622D01*
X95809105Y-144950990D01*
X95805167Y-144997625D01*
X95802170Y-145062984D01*
X95799994Y-145150522D01*
X95798518Y-145263698D01*
X95797621Y-145405969D01*
X95797181Y-145580790D01*
X95797077Y-145765997D01*
X95796994Y-145973318D01*
X95797050Y-146144925D01*
X95797695Y-146284179D01*
X95799384Y-146394441D01*
X95802569Y-146479075D01*
X95807703Y-146541441D01*
X95815239Y-146584900D01*
X95825630Y-146612814D01*
X95839328Y-146628546D01*
X95856787Y-146635455D01*
X95878460Y-146636905D01*
X95904798Y-146636256D01*
X95914307Y-146636154D01*
X95943185Y-146636700D01*
X95966901Y-146636011D01*
X95985966Y-146630597D01*
X96000888Y-146616969D01*
X96012176Y-146591637D01*
X96020339Y-146551111D01*
X96025886Y-146491902D01*
X96029327Y-146410519D01*
X96031169Y-146303474D01*
X96031923Y-146167275D01*
X96032098Y-145998434D01*
X96032169Y-145828102D01*
X96032800Y-145043769D01*
X96347910Y-145825308D01*
X96414837Y-145990435D01*
X96477889Y-146144338D01*
X96535461Y-146283224D01*
X96585949Y-146403298D01*
X96627751Y-146500768D01*
X96659263Y-146571838D01*
X96678881Y-146612715D01*
X96684318Y-146621201D01*
X96717181Y-146630966D01*
X96768691Y-146635513D01*
X96774000Y-146635555D01*
X96826349Y-146631695D01*
X96862144Y-146622290D01*
X96863980Y-146621201D01*
X96875364Y-146600454D01*
X96899087Y-146547012D01*
X96933597Y-146464704D01*
X96977343Y-146357359D01*
X97028773Y-146228808D01*
X97086337Y-146082880D01*
X97148484Y-145923404D01*
X97186365Y-145825308D01*
X97487154Y-145043769D01*
X97506692Y-146626385D01*
X97594717Y-146632144D01*
X97658114Y-146630480D01*
X97701174Y-146618071D01*
X97707063Y-146613583D01*
X97713469Y-146588022D01*
X97718970Y-146528393D01*
X97723568Y-146439694D01*
X97727265Y-146326921D01*
X97730064Y-146195072D01*
X97731968Y-146049146D01*
X97732979Y-145894140D01*
X97733100Y-145735052D01*
X97732333Y-145576880D01*
X97730682Y-145424621D01*
X97728148Y-145283273D01*
X97724734Y-145157834D01*
X97720443Y-145053302D01*
X97715278Y-144974674D01*
X97709240Y-144926948D01*
X97706182Y-144916769D01*
X97688130Y-144889599D01*
X97661273Y-144873920D01*
X97614779Y-144865767D01*
X97556665Y-144862021D01*
X97453960Y-144863082D01*
X97380489Y-144879929D01*
X97328393Y-144916055D01*
X97289812Y-144974952D01*
X97286451Y-144982106D01*
X97270397Y-145019659D01*
X97242073Y-145088612D01*
X97203477Y-145183986D01*
X97156610Y-145300805D01*
X97103471Y-145434090D01*
X97046061Y-145578863D01*
X97008305Y-145674473D01*
X96950882Y-145818755D01*
X96897596Y-145950007D01*
X96850185Y-146064157D01*
X96810384Y-146157134D01*
X96779927Y-146224863D01*
X96760551Y-146263272D01*
X96754341Y-146270396D01*
X96744197Y-146249397D01*
X96721055Y-146196337D01*
X96686649Y-146115352D01*
X96642713Y-146010574D01*
X96590980Y-145886138D01*
X96533183Y-145746179D01*
X96471056Y-145594829D01*
X96470891Y-145594426D01*
X96391225Y-145401306D01*
X96324361Y-145242671D01*
X96269346Y-145116427D01*
X96225224Y-145020484D01*
X96191043Y-144952749D01*
X96165850Y-144911132D01*
X96152442Y-144895926D01*
X96101751Y-144872564D01*
X96030865Y-144859353D01*
X95953481Y-144856593D01*
X95883296Y-144864581D01*
G36*
X95089196Y-145269346D02*
G01*
X95083923Y-145680539D01*
X94757063Y-145269346D01*
X94430202Y-144858154D01*
X94323485Y-144858154D01*
X94262496Y-144861065D01*
X94219115Y-144868555D01*
X94206124Y-144875376D01*
X94204616Y-144889944D01*
X94214555Y-144914707D01*
X94238197Y-144952709D01*
X94277797Y-145006993D01*
X94335609Y-145080603D01*
X94413888Y-145176581D01*
X94514891Y-145297971D01*
X94552570Y-145342907D01*
X94631803Y-145438128D01*
X94701721Y-145523794D01*
X94758636Y-145595253D01*
X94798859Y-145647848D01*
X94818704Y-145676927D01*
X94820154Y-145680636D01*
X94808778Y-145700626D01*
X94776683Y-145747441D01*
X94726913Y-145816887D01*
X94662516Y-145904769D01*
X94586536Y-146006892D01*
X94502020Y-146119063D01*
X94495985Y-146127021D01*
X94390522Y-146267718D01*
X94305033Y-146385320D01*
X94240628Y-146478209D01*
X94198413Y-146544768D01*
X94179497Y-146583378D01*
X94178645Y-146590369D01*
X94200737Y-146619795D01*
X94251517Y-146632709D01*
X94296359Y-146635463D01*
X94334768Y-146631825D01*
X94370958Y-146618150D01*
X94409147Y-146590793D01*
X94453553Y-146546111D01*
X94508390Y-146480460D01*
X94577876Y-146390196D01*
X94660791Y-146279011D01*
X94741169Y-146170568D01*
X94819608Y-146064739D01*
X94890990Y-145968428D01*
X94950194Y-145888544D01*
X94992103Y-145831993D01*
X94997057Y-145825308D01*
X95083923Y-145708077D01*
X95103461Y-146626385D01*
X95191486Y-146632144D01*
X95254883Y-146630480D01*
X95297944Y-146618071D01*
X95303832Y-146613583D01*
X95310079Y-146598219D01*
X95315251Y-146563891D01*
X95319428Y-146507809D01*
X95322688Y-146427186D01*
X95325110Y-146319234D01*
X95326774Y-146181167D01*
X95327759Y-146010195D01*
X95328142Y-145803531D01*
X95328154Y-145754613D01*
X95327883Y-145576863D01*
X95327111Y-145410612D01*
X95325893Y-145260062D01*
X95324289Y-145129416D01*
X95322355Y-145022874D01*
X95320149Y-144944641D01*
X95317729Y-144898917D01*
X95316294Y-144889059D01*
X95296530Y-144869486D01*
X95251485Y-144859951D01*
X95199452Y-144858154D01*
X95094469Y-144858154D01*
X95089196Y-145269346D01*
X95089196Y-145269346D01*
G37*
X95089196Y-145269346D02*
X95083923Y-145680539D01*
X94757063Y-145269346D01*
X94430202Y-144858154D01*
X94323485Y-144858154D01*
X94262496Y-144861065D01*
X94219115Y-144868555D01*
X94206124Y-144875376D01*
X94204616Y-144889944D01*
X94214555Y-144914707D01*
X94238197Y-144952709D01*
X94277797Y-145006993D01*
X94335609Y-145080603D01*
X94413888Y-145176581D01*
X94514891Y-145297971D01*
X94552570Y-145342907D01*
X94631803Y-145438128D01*
X94701721Y-145523794D01*
X94758636Y-145595253D01*
X94798859Y-145647848D01*
X94818704Y-145676927D01*
X94820154Y-145680636D01*
X94808778Y-145700626D01*
X94776683Y-145747441D01*
X94726913Y-145816887D01*
X94662516Y-145904769D01*
X94586536Y-146006892D01*
X94502020Y-146119063D01*
X94495985Y-146127021D01*
X94390522Y-146267718D01*
X94305033Y-146385320D01*
X94240628Y-146478209D01*
X94198413Y-146544768D01*
X94179497Y-146583378D01*
X94178645Y-146590369D01*
X94200737Y-146619795D01*
X94251517Y-146632709D01*
X94296359Y-146635463D01*
X94334768Y-146631825D01*
X94370958Y-146618150D01*
X94409147Y-146590793D01*
X94453553Y-146546111D01*
X94508390Y-146480460D01*
X94577876Y-146390196D01*
X94660791Y-146279011D01*
X94741169Y-146170568D01*
X94819608Y-146064739D01*
X94890990Y-145968428D01*
X94950194Y-145888544D01*
X94992103Y-145831993D01*
X94997057Y-145825308D01*
X95083923Y-145708077D01*
X95103461Y-146626385D01*
X95191486Y-146632144D01*
X95254883Y-146630480D01*
X95297944Y-146618071D01*
X95303832Y-146613583D01*
X95310079Y-146598219D01*
X95315251Y-146563891D01*
X95319428Y-146507809D01*
X95322688Y-146427186D01*
X95325110Y-146319234D01*
X95326774Y-146181167D01*
X95327759Y-146010195D01*
X95328142Y-145803531D01*
X95328154Y-145754613D01*
X95327883Y-145576863D01*
X95327111Y-145410612D01*
X95325893Y-145260062D01*
X95324289Y-145129416D01*
X95322355Y-145022874D01*
X95320149Y-144944641D01*
X95317729Y-144898917D01*
X95316294Y-144889059D01*
X95296530Y-144869486D01*
X95251485Y-144859951D01*
X95199452Y-144858154D01*
X95094469Y-144858154D01*
X95089196Y-145269346D01*
G36*
X92736838Y-144862651D02*
G01*
X92309461Y-144867923D01*
X92309461Y-145043769D01*
X92646500Y-145049115D01*
X92983538Y-145054461D01*
X92983538Y-145658263D01*
X92666038Y-145663631D01*
X92348538Y-145669000D01*
X92348538Y-145844846D01*
X92666038Y-145850215D01*
X92983538Y-145855583D01*
X92983538Y-146222422D01*
X92984492Y-146368205D01*
X92987459Y-146477636D01*
X92992602Y-146553397D01*
X93000081Y-146598171D01*
X93006984Y-146612708D01*
X93039306Y-146626536D01*
X93092222Y-146634532D01*
X93149010Y-146635815D01*
X93192948Y-146629505D01*
X93204974Y-146623128D01*
X93207700Y-146601460D01*
X93210233Y-146544753D01*
X93212511Y-146457043D01*
X93214474Y-146342369D01*
X93216062Y-146204768D01*
X93217214Y-146048276D01*
X93217869Y-145876933D01*
X93218000Y-145756059D01*
X93217811Y-145544979D01*
X93217179Y-145369788D01*
X93216005Y-145227299D01*
X93214194Y-145114325D01*
X93211645Y-145027681D01*
X93208262Y-144964178D01*
X93203947Y-144920632D01*
X93198603Y-144893854D01*
X93192130Y-144880659D01*
X93191107Y-144879697D01*
X93165271Y-144871569D01*
X93108931Y-144865881D01*
X93019957Y-144862555D01*
X92896214Y-144861510D01*
X92736838Y-144862651D01*
X92736838Y-144862651D01*
G37*
X92736838Y-144862651D02*
X92309461Y-144867923D01*
X92309461Y-145043769D01*
X92646500Y-145049115D01*
X92983538Y-145054461D01*
X92983538Y-145658263D01*
X92666038Y-145663631D01*
X92348538Y-145669000D01*
X92348538Y-145844846D01*
X92666038Y-145850215D01*
X92983538Y-145855583D01*
X92983538Y-146222422D01*
X92984492Y-146368205D01*
X92987459Y-146477636D01*
X92992602Y-146553397D01*
X93000081Y-146598171D01*
X93006984Y-146612708D01*
X93039306Y-146626536D01*
X93092222Y-146634532D01*
X93149010Y-146635815D01*
X93192948Y-146629505D01*
X93204974Y-146623128D01*
X93207700Y-146601460D01*
X93210233Y-146544753D01*
X93212511Y-146457043D01*
X93214474Y-146342369D01*
X93216062Y-146204768D01*
X93217214Y-146048276D01*
X93217869Y-145876933D01*
X93218000Y-145756059D01*
X93217811Y-145544979D01*
X93217179Y-145369788D01*
X93216005Y-145227299D01*
X93214194Y-145114325D01*
X93211645Y-145027681D01*
X93208262Y-144964178D01*
X93203947Y-144920632D01*
X93198603Y-144893854D01*
X93192130Y-144880659D01*
X93191107Y-144879697D01*
X93165271Y-144871569D01*
X93108931Y-144865881D01*
X93019957Y-144862555D01*
X92896214Y-144861510D01*
X92736838Y-144862651D01*
G36*
X91845423Y-145330940D02*
G01*
X91742846Y-145336846D01*
X91737686Y-145970523D01*
X91736523Y-146153437D01*
X91736387Y-146300621D01*
X91737381Y-146415410D01*
X91739603Y-146501138D01*
X91743154Y-146561142D01*
X91748135Y-146598756D01*
X91754646Y-146617316D01*
X91757224Y-146619877D01*
X91793043Y-146630633D01*
X91845772Y-146635329D01*
X91897964Y-146633648D01*
X91932174Y-146625269D01*
X91934974Y-146623128D01*
X91938103Y-146601138D01*
X91940962Y-146544757D01*
X91943458Y-146458670D01*
X91945498Y-146347563D01*
X91946989Y-146216122D01*
X91947837Y-146069032D01*
X91948000Y-145967569D01*
X91948000Y-145325035D01*
X91845423Y-145330940D01*
X91845423Y-145330940D01*
G37*
X91845423Y-145330940D02*
X91742846Y-145336846D01*
X91737686Y-145970523D01*
X91736523Y-146153437D01*
X91736387Y-146300621D01*
X91737381Y-146415410D01*
X91739603Y-146501138D01*
X91743154Y-146561142D01*
X91748135Y-146598756D01*
X91754646Y-146617316D01*
X91757224Y-146619877D01*
X91793043Y-146630633D01*
X91845772Y-146635329D01*
X91897964Y-146633648D01*
X91932174Y-146625269D01*
X91934974Y-146623128D01*
X91938103Y-146601138D01*
X91940962Y-146544757D01*
X91943458Y-146458670D01*
X91945498Y-146347563D01*
X91946989Y-146216122D01*
X91947837Y-146069032D01*
X91948000Y-145967569D01*
X91948000Y-145325035D01*
X91845423Y-145330940D01*
G36*
X90688343Y-145311993D02*
G01*
X90636717Y-145329116D01*
X90609668Y-145364547D01*
X90600263Y-145423926D01*
X90599846Y-145447169D01*
X90599846Y-145546349D01*
X90673115Y-145531079D01*
X90768047Y-145517966D01*
X90843192Y-145526442D01*
X90908559Y-145560612D01*
X90974155Y-145624578D01*
X91010445Y-145669378D01*
X91088307Y-145770302D01*
X91088307Y-146191368D01*
X91088313Y-146334213D01*
X91089216Y-146442700D01*
X91092345Y-146521546D01*
X91099030Y-146575469D01*
X91110600Y-146609185D01*
X91128384Y-146627411D01*
X91153712Y-146634864D01*
X91187912Y-146636260D01*
X91213649Y-146636154D01*
X91261362Y-146632492D01*
X91289656Y-146623630D01*
X91290205Y-146623128D01*
X91293334Y-146601138D01*
X91296193Y-146544757D01*
X91298689Y-146458669D01*
X91300728Y-146347562D01*
X91302219Y-146216119D01*
X91303068Y-146069026D01*
X91303230Y-145967519D01*
X91303230Y-145324936D01*
X91210423Y-145330891D01*
X91117615Y-145336846D01*
X91107846Y-145434538D01*
X91098077Y-145532231D01*
X91059760Y-145475635D01*
X90982399Y-145389975D01*
X90888824Y-145332425D01*
X90787685Y-145308028D01*
X90771476Y-145307538D01*
X90688343Y-145311993D01*
X90688343Y-145311993D01*
G37*
X90688343Y-145311993D02*
X90636717Y-145329116D01*
X90609668Y-145364547D01*
X90600263Y-145423926D01*
X90599846Y-145447169D01*
X90599846Y-145546349D01*
X90673115Y-145531079D01*
X90768047Y-145517966D01*
X90843192Y-145526442D01*
X90908559Y-145560612D01*
X90974155Y-145624578D01*
X91010445Y-145669378D01*
X91088307Y-145770302D01*
X91088307Y-146191368D01*
X91088313Y-146334213D01*
X91089216Y-146442700D01*
X91092345Y-146521546D01*
X91099030Y-146575469D01*
X91110600Y-146609185D01*
X91128384Y-146627411D01*
X91153712Y-146634864D01*
X91187912Y-146636260D01*
X91213649Y-146636154D01*
X91261362Y-146632492D01*
X91289656Y-146623630D01*
X91290205Y-146623128D01*
X91293334Y-146601138D01*
X91296193Y-146544757D01*
X91298689Y-146458669D01*
X91300728Y-146347562D01*
X91302219Y-146216119D01*
X91303068Y-146069026D01*
X91303230Y-145967519D01*
X91303230Y-145324936D01*
X91210423Y-145330891D01*
X91117615Y-145336846D01*
X91107846Y-145434538D01*
X91098077Y-145532231D01*
X91059760Y-145475635D01*
X90982399Y-145389975D01*
X90888824Y-145332425D01*
X90787685Y-145308028D01*
X90771476Y-145307538D01*
X90688343Y-145311993D01*
G36*
X89688740Y-145311661D02*
G01*
X89565370Y-145335072D01*
X89466375Y-145389017D01*
X89391710Y-145473519D01*
X89387438Y-145480505D01*
X89348336Y-145546010D01*
X89262879Y-145467239D01*
X89163364Y-145385942D01*
X89071425Y-145335724D01*
X88977450Y-145312568D01*
X88889234Y-145311136D01*
X88765996Y-145333833D01*
X88668037Y-145385582D01*
X88592819Y-145467991D01*
X88565328Y-145516288D01*
X88551270Y-145546113D01*
X88540386Y-145574998D01*
X88532272Y-145608223D01*
X88526522Y-145651064D01*
X88522728Y-145708800D01*
X88520486Y-145786708D01*
X88519388Y-145890066D01*
X88519029Y-146024153D01*
X88519000Y-146118385D01*
X88519000Y-146626385D01*
X88714384Y-146626385D01*
X88724621Y-146157461D01*
X88728716Y-145994416D01*
X88733718Y-145865594D01*
X88740606Y-145766144D01*
X88750358Y-145691212D01*
X88763955Y-145635946D01*
X88782374Y-145595493D01*
X88806595Y-145565001D01*
X88837597Y-145539616D01*
X88851113Y-145530461D01*
X88932111Y-145499043D01*
X89020341Y-145505369D01*
X89114500Y-145549046D01*
X89213287Y-145629683D01*
X89226891Y-145643364D01*
X89309551Y-145728323D01*
X89320077Y-146626385D01*
X89515461Y-146626385D01*
X89526117Y-146167231D01*
X89530662Y-146001550D01*
X89536333Y-145870175D01*
X89544025Y-145768336D01*
X89554633Y-145691262D01*
X89569051Y-145634185D01*
X89588175Y-145592333D01*
X89612898Y-145560936D01*
X89644117Y-145535225D01*
X89644745Y-145534784D01*
X89708278Y-145509839D01*
X89787984Y-145504586D01*
X89866112Y-145519319D01*
X89892547Y-145530664D01*
X89935393Y-145560107D01*
X89990042Y-145606655D01*
X90027967Y-145643364D01*
X90110628Y-145728323D01*
X90121154Y-146626385D01*
X90209804Y-146632170D01*
X90266015Y-146632827D01*
X90304736Y-146627753D01*
X90312381Y-146624029D01*
X90315727Y-146601816D01*
X90318784Y-146545221D01*
X90321453Y-146458937D01*
X90323634Y-146347658D01*
X90325227Y-146216079D01*
X90326134Y-146068894D01*
X90326307Y-145967519D01*
X90326307Y-145324936D01*
X90233500Y-145330891D01*
X90140692Y-145336846D01*
X90128664Y-145525356D01*
X90043189Y-145446568D01*
X89947373Y-145370898D01*
X89854090Y-145327111D01*
X89751565Y-145310725D01*
X89688740Y-145311661D01*
X89688740Y-145311661D01*
G37*
X89688740Y-145311661D02*
X89565370Y-145335072D01*
X89466375Y-145389017D01*
X89391710Y-145473519D01*
X89387438Y-145480505D01*
X89348336Y-145546010D01*
X89262879Y-145467239D01*
X89163364Y-145385942D01*
X89071425Y-145335724D01*
X88977450Y-145312568D01*
X88889234Y-145311136D01*
X88765996Y-145333833D01*
X88668037Y-145385582D01*
X88592819Y-145467991D01*
X88565328Y-145516288D01*
X88551270Y-145546113D01*
X88540386Y-145574998D01*
X88532272Y-145608223D01*
X88526522Y-145651064D01*
X88522728Y-145708800D01*
X88520486Y-145786708D01*
X88519388Y-145890066D01*
X88519029Y-146024153D01*
X88519000Y-146118385D01*
X88519000Y-146626385D01*
X88714384Y-146626385D01*
X88724621Y-146157461D01*
X88728716Y-145994416D01*
X88733718Y-145865594D01*
X88740606Y-145766144D01*
X88750358Y-145691212D01*
X88763955Y-145635946D01*
X88782374Y-145595493D01*
X88806595Y-145565001D01*
X88837597Y-145539616D01*
X88851113Y-145530461D01*
X88932111Y-145499043D01*
X89020341Y-145505369D01*
X89114500Y-145549046D01*
X89213287Y-145629683D01*
X89226891Y-145643364D01*
X89309551Y-145728323D01*
X89320077Y-146626385D01*
X89515461Y-146626385D01*
X89526117Y-146167231D01*
X89530662Y-146001550D01*
X89536333Y-145870175D01*
X89544025Y-145768336D01*
X89554633Y-145691262D01*
X89569051Y-145634185D01*
X89588175Y-145592333D01*
X89612898Y-145560936D01*
X89644117Y-145535225D01*
X89644745Y-145534784D01*
X89708278Y-145509839D01*
X89787984Y-145504586D01*
X89866112Y-145519319D01*
X89892547Y-145530664D01*
X89935393Y-145560107D01*
X89990042Y-145606655D01*
X90027967Y-145643364D01*
X90110628Y-145728323D01*
X90121154Y-146626385D01*
X90209804Y-146632170D01*
X90266015Y-146632827D01*
X90304736Y-146627753D01*
X90312381Y-146624029D01*
X90315727Y-146601816D01*
X90318784Y-146545221D01*
X90321453Y-146458937D01*
X90323634Y-146347658D01*
X90325227Y-146216079D01*
X90326134Y-146068894D01*
X90326307Y-145967519D01*
X90326307Y-145324936D01*
X90233500Y-145330891D01*
X90140692Y-145336846D01*
X90128664Y-145525356D01*
X90043189Y-145446568D01*
X89947373Y-145370898D01*
X89854090Y-145327111D01*
X89751565Y-145310725D01*
X89688740Y-145311661D01*
G36*
X87974446Y-145488269D02*
G01*
X87952791Y-145560791D01*
X87923202Y-145661046D01*
X87888560Y-145779219D01*
X87851743Y-145905491D01*
X87822574Y-146006038D01*
X87789870Y-146117174D01*
X87760289Y-146214174D01*
X87735677Y-146291256D01*
X87717885Y-146342641D01*
X87708760Y-146362548D01*
X87708529Y-146362615D01*
X87700826Y-146344531D01*
X87684573Y-146293513D01*
X87661176Y-146214418D01*
X87632038Y-146112099D01*
X87598564Y-145991413D01*
X87562159Y-145857215D01*
X87560151Y-145849731D01*
X87422634Y-145336846D01*
X87210376Y-145336846D01*
X87059912Y-145854615D01*
X87020512Y-145990227D01*
X86984781Y-146113273D01*
X86954140Y-146218852D01*
X86930012Y-146302061D01*
X86913818Y-146357997D01*
X86906982Y-146381758D01*
X86906873Y-146382154D01*
X86900983Y-146367242D01*
X86885953Y-146320027D01*
X86863379Y-146245782D01*
X86834854Y-146149778D01*
X86801974Y-146037285D01*
X86788690Y-145991385D01*
X86751443Y-145862641D01*
X86715130Y-145737670D01*
X86682119Y-145624578D01*
X86654777Y-145531477D01*
X86635472Y-145466474D01*
X86633209Y-145458961D01*
X86593337Y-145327077D01*
X86497360Y-145327077D01*
X86439537Y-145330398D01*
X86399692Y-145338853D01*
X86390431Y-145344797D01*
X86393458Y-145366803D01*
X86406752Y-145420698D01*
X86428690Y-145501145D01*
X86457649Y-145602811D01*
X86492009Y-145720358D01*
X86530145Y-145848451D01*
X86570437Y-145981755D01*
X86611261Y-146114934D01*
X86650995Y-146242652D01*
X86688017Y-146359574D01*
X86720704Y-146460364D01*
X86747435Y-146539687D01*
X86766587Y-146592206D01*
X86775650Y-146611731D01*
X86805927Y-146626337D01*
X86862025Y-146634937D01*
X86895965Y-146636154D01*
X86960577Y-146631612D01*
X87012277Y-146620039D01*
X87029204Y-146611731D01*
X87044833Y-146585139D01*
X87068736Y-146525137D01*
X87099401Y-146436143D01*
X87135316Y-146322580D01*
X87174969Y-146188867D01*
X87181116Y-146167451D01*
X87216579Y-146044442D01*
X87249180Y-145933352D01*
X87277179Y-145839952D01*
X87298837Y-145770009D01*
X87312413Y-145729294D01*
X87315435Y-145722023D01*
X87324368Y-145732497D01*
X87341587Y-145776582D01*
X87365737Y-145850017D01*
X87395461Y-145948544D01*
X87429402Y-146067904D01*
X87452246Y-146151534D01*
X87487368Y-146279216D01*
X87520451Y-146394263D01*
X87549829Y-146491293D01*
X87573839Y-146564924D01*
X87590814Y-146609775D01*
X87597488Y-146621086D01*
X87633177Y-146630556D01*
X87691591Y-146634855D01*
X87756734Y-146634072D01*
X87812610Y-146628295D01*
X87840519Y-146619750D01*
X87851456Y-146598326D01*
X87871819Y-146544825D01*
X87899916Y-146464633D01*
X87934051Y-146363134D01*
X87972530Y-146245712D01*
X88013659Y-146117753D01*
X88055745Y-145984641D01*
X88097093Y-145851761D01*
X88136009Y-145724497D01*
X88170798Y-145608234D01*
X88199767Y-145508357D01*
X88221221Y-145430251D01*
X88233467Y-145379300D01*
X88235692Y-145363720D01*
X88230206Y-145342340D01*
X88207676Y-145331260D01*
X88158999Y-145327342D01*
X88129413Y-145327077D01*
X88023134Y-145327077D01*
X87974446Y-145488269D01*
X87974446Y-145488269D01*
G37*
X87974446Y-145488269D02*
X87952791Y-145560791D01*
X87923202Y-145661046D01*
X87888560Y-145779219D01*
X87851743Y-145905491D01*
X87822574Y-146006038D01*
X87789870Y-146117174D01*
X87760289Y-146214174D01*
X87735677Y-146291256D01*
X87717885Y-146342641D01*
X87708760Y-146362548D01*
X87708529Y-146362615D01*
X87700826Y-146344531D01*
X87684573Y-146293513D01*
X87661176Y-146214418D01*
X87632038Y-146112099D01*
X87598564Y-145991413D01*
X87562159Y-145857215D01*
X87560151Y-145849731D01*
X87422634Y-145336846D01*
X87210376Y-145336846D01*
X87059912Y-145854615D01*
X87020512Y-145990227D01*
X86984781Y-146113273D01*
X86954140Y-146218852D01*
X86930012Y-146302061D01*
X86913818Y-146357997D01*
X86906982Y-146381758D01*
X86906873Y-146382154D01*
X86900983Y-146367242D01*
X86885953Y-146320027D01*
X86863379Y-146245782D01*
X86834854Y-146149778D01*
X86801974Y-146037285D01*
X86788690Y-145991385D01*
X86751443Y-145862641D01*
X86715130Y-145737670D01*
X86682119Y-145624578D01*
X86654777Y-145531477D01*
X86635472Y-145466474D01*
X86633209Y-145458961D01*
X86593337Y-145327077D01*
X86497360Y-145327077D01*
X86439537Y-145330398D01*
X86399692Y-145338853D01*
X86390431Y-145344797D01*
X86393458Y-145366803D01*
X86406752Y-145420698D01*
X86428690Y-145501145D01*
X86457649Y-145602811D01*
X86492009Y-145720358D01*
X86530145Y-145848451D01*
X86570437Y-145981755D01*
X86611261Y-146114934D01*
X86650995Y-146242652D01*
X86688017Y-146359574D01*
X86720704Y-146460364D01*
X86747435Y-146539687D01*
X86766587Y-146592206D01*
X86775650Y-146611731D01*
X86805927Y-146626337D01*
X86862025Y-146634937D01*
X86895965Y-146636154D01*
X86960577Y-146631612D01*
X87012277Y-146620039D01*
X87029204Y-146611731D01*
X87044833Y-146585139D01*
X87068736Y-146525137D01*
X87099401Y-146436143D01*
X87135316Y-146322580D01*
X87174969Y-146188867D01*
X87181116Y-146167451D01*
X87216579Y-146044442D01*
X87249180Y-145933352D01*
X87277179Y-145839952D01*
X87298837Y-145770009D01*
X87312413Y-145729294D01*
X87315435Y-145722023D01*
X87324368Y-145732497D01*
X87341587Y-145776582D01*
X87365737Y-145850017D01*
X87395461Y-145948544D01*
X87429402Y-146067904D01*
X87452246Y-146151534D01*
X87487368Y-146279216D01*
X87520451Y-146394263D01*
X87549829Y-146491293D01*
X87573839Y-146564924D01*
X87590814Y-146609775D01*
X87597488Y-146621086D01*
X87633177Y-146630556D01*
X87691591Y-146634855D01*
X87756734Y-146634072D01*
X87812610Y-146628295D01*
X87840519Y-146619750D01*
X87851456Y-146598326D01*
X87871819Y-146544825D01*
X87899916Y-146464633D01*
X87934051Y-146363134D01*
X87972530Y-146245712D01*
X88013659Y-146117753D01*
X88055745Y-145984641D01*
X88097093Y-145851761D01*
X88136009Y-145724497D01*
X88170798Y-145608234D01*
X88199767Y-145508357D01*
X88221221Y-145430251D01*
X88233467Y-145379300D01*
X88235692Y-145363720D01*
X88230206Y-145342340D01*
X88207676Y-145331260D01*
X88158999Y-145327342D01*
X88129413Y-145327077D01*
X88023134Y-145327077D01*
X87974446Y-145488269D01*
G36*
X84117961Y-145319853D02*
G01*
X84092200Y-145331493D01*
X84079009Y-145355645D01*
X84074369Y-145403001D01*
X84074000Y-145436817D01*
X84076303Y-145501487D01*
X84088881Y-145533592D01*
X84120233Y-145539604D01*
X84178862Y-145525994D01*
X84187795Y-145523447D01*
X84271960Y-145518742D01*
X84357062Y-145552754D01*
X84443309Y-145625602D01*
X84510516Y-145708077D01*
X84524410Y-145729663D01*
X84535084Y-145754456D01*
X84543124Y-145787962D01*
X84549116Y-145835684D01*
X84553645Y-145903129D01*
X84557296Y-145995802D01*
X84560654Y-146119207D01*
X84562461Y-146196538D01*
X84572230Y-146626385D01*
X84660881Y-146632170D01*
X84717092Y-146632827D01*
X84755813Y-146627753D01*
X84763458Y-146624029D01*
X84766804Y-146601816D01*
X84769861Y-146545221D01*
X84772529Y-146458937D01*
X84774710Y-146347658D01*
X84776304Y-146216079D01*
X84777211Y-146068894D01*
X84777384Y-145967519D01*
X84777384Y-145324936D01*
X84684577Y-145330891D01*
X84591769Y-145336846D01*
X84582000Y-145433632D01*
X84572230Y-145530418D01*
X84520285Y-145468447D01*
X84423201Y-145376423D01*
X84318335Y-145322379D01*
X84206295Y-145306539D01*
X84117961Y-145319853D01*
X84117961Y-145319853D01*
G37*
X84117961Y-145319853D02*
X84092200Y-145331493D01*
X84079009Y-145355645D01*
X84074369Y-145403001D01*
X84074000Y-145436817D01*
X84076303Y-145501487D01*
X84088881Y-145533592D01*
X84120233Y-145539604D01*
X84178862Y-145525994D01*
X84187795Y-145523447D01*
X84271960Y-145518742D01*
X84357062Y-145552754D01*
X84443309Y-145625602D01*
X84510516Y-145708077D01*
X84524410Y-145729663D01*
X84535084Y-145754456D01*
X84543124Y-145787962D01*
X84549116Y-145835684D01*
X84553645Y-145903129D01*
X84557296Y-145995802D01*
X84560654Y-146119207D01*
X84562461Y-146196538D01*
X84572230Y-146626385D01*
X84660881Y-146632170D01*
X84717092Y-146632827D01*
X84755813Y-146627753D01*
X84763458Y-146624029D01*
X84766804Y-146601816D01*
X84769861Y-146545221D01*
X84772529Y-146458937D01*
X84774710Y-146347658D01*
X84776304Y-146216079D01*
X84777211Y-146068894D01*
X84777384Y-145967519D01*
X84777384Y-145324936D01*
X84684577Y-145330891D01*
X84591769Y-145336846D01*
X84582000Y-145433632D01*
X84572230Y-145530418D01*
X84520285Y-145468447D01*
X84423201Y-145376423D01*
X84318335Y-145322379D01*
X84206295Y-145306539D01*
X84117961Y-145319853D01*
G36*
X91793476Y-144821966D02*
G01*
X91746016Y-144835769D01*
X91736984Y-144842523D01*
X91718805Y-144882982D01*
X91714433Y-144941789D01*
X91723214Y-145000989D01*
X91744241Y-145042374D01*
X91789581Y-145065073D01*
X91852549Y-145072288D01*
X91914894Y-145064017D01*
X91956373Y-145042374D01*
X91977876Y-145001987D01*
X91987072Y-144947250D01*
X91987077Y-144946077D01*
X91978237Y-144891300D01*
X91956920Y-144850338D01*
X91956373Y-144849780D01*
X91915642Y-144829533D01*
X91855681Y-144820074D01*
X91793476Y-144821966D01*
X91793476Y-144821966D01*
G37*
X91793476Y-144821966D02*
X91746016Y-144835769D01*
X91736984Y-144842523D01*
X91718805Y-144882982D01*
X91714433Y-144941789D01*
X91723214Y-145000989D01*
X91744241Y-145042374D01*
X91789581Y-145065073D01*
X91852549Y-145072288D01*
X91914894Y-145064017D01*
X91956373Y-145042374D01*
X91977876Y-145001987D01*
X91987072Y-144947250D01*
X91987077Y-144946077D01*
X91978237Y-144891300D01*
X91956920Y-144850338D01*
X91956373Y-144849780D01*
X91915642Y-144829533D01*
X91855681Y-144820074D01*
X91793476Y-144821966D01*
G36*
X89571200Y-143149927D02*
G01*
X89551575Y-143168752D01*
X89555813Y-143191837D01*
X89571616Y-143246488D01*
X89597188Y-143327549D01*
X89630734Y-143429862D01*
X89670458Y-143548273D01*
X89714567Y-143677624D01*
X89761264Y-143812758D01*
X89808755Y-143948520D01*
X89855245Y-144079754D01*
X89898937Y-144201302D01*
X89938038Y-144308008D01*
X89970752Y-144394717D01*
X89995283Y-144456270D01*
X90009838Y-144487514D01*
X90011466Y-144489749D01*
X90045994Y-144506399D01*
X90098450Y-144515588D01*
X90148005Y-144514835D01*
X90167953Y-144508405D01*
X90178557Y-144493969D01*
X90177846Y-144466365D01*
X90164317Y-144418746D01*
X90136467Y-144344265D01*
X90126348Y-144318785D01*
X90090234Y-144221097D01*
X90072972Y-144155090D01*
X90073996Y-144118538D01*
X90075011Y-144116538D01*
X90092335Y-144079882D01*
X90118869Y-144015232D01*
X90152443Y-143928657D01*
X90190890Y-143826226D01*
X90232040Y-143714010D01*
X90273723Y-143598076D01*
X90313771Y-143484495D01*
X90350015Y-143379336D01*
X90380285Y-143288667D01*
X90402414Y-143218559D01*
X90414231Y-143175080D01*
X90415399Y-143164075D01*
X90388578Y-143144512D01*
X90331349Y-143142465D01*
X90257923Y-143148538D01*
X90121154Y-143534147D01*
X90079884Y-143648962D01*
X90042452Y-143750190D01*
X90010945Y-143832421D01*
X89987450Y-143890244D01*
X89974055Y-143918250D01*
X89972277Y-143920032D01*
X89962670Y-143902483D01*
X89942963Y-143853389D01*
X89915214Y-143778339D01*
X89881481Y-143682926D01*
X89843823Y-143572740D01*
X89837520Y-143553961D01*
X89798809Y-143439919D01*
X89763153Y-143337842D01*
X89732768Y-143253834D01*
X89709865Y-143193999D01*
X89696659Y-143164439D01*
X89695813Y-143163192D01*
X89661828Y-143143755D01*
X89614348Y-143139563D01*
X89571200Y-143149927D01*
X89571200Y-143149927D01*
G37*
X89571200Y-143149927D02*
X89551575Y-143168752D01*
X89555813Y-143191837D01*
X89571616Y-143246488D01*
X89597188Y-143327549D01*
X89630734Y-143429862D01*
X89670458Y-143548273D01*
X89714567Y-143677624D01*
X89761264Y-143812758D01*
X89808755Y-143948520D01*
X89855245Y-144079754D01*
X89898937Y-144201302D01*
X89938038Y-144308008D01*
X89970752Y-144394717D01*
X89995283Y-144456270D01*
X90009838Y-144487514D01*
X90011466Y-144489749D01*
X90045994Y-144506399D01*
X90098450Y-144515588D01*
X90148005Y-144514835D01*
X90167953Y-144508405D01*
X90178557Y-144493969D01*
X90177846Y-144466365D01*
X90164317Y-144418746D01*
X90136467Y-144344265D01*
X90126348Y-144318785D01*
X90090234Y-144221097D01*
X90072972Y-144155090D01*
X90073996Y-144118538D01*
X90075011Y-144116538D01*
X90092335Y-144079882D01*
X90118869Y-144015232D01*
X90152443Y-143928657D01*
X90190890Y-143826226D01*
X90232040Y-143714010D01*
X90273723Y-143598076D01*
X90313771Y-143484495D01*
X90350015Y-143379336D01*
X90380285Y-143288667D01*
X90402414Y-143218559D01*
X90414231Y-143175080D01*
X90415399Y-143164075D01*
X90388578Y-143144512D01*
X90331349Y-143142465D01*
X90257923Y-143148538D01*
X90121154Y-143534147D01*
X90079884Y-143648962D01*
X90042452Y-143750190D01*
X90010945Y-143832421D01*
X89987450Y-143890244D01*
X89974055Y-143918250D01*
X89972277Y-143920032D01*
X89962670Y-143902483D01*
X89942963Y-143853389D01*
X89915214Y-143778339D01*
X89881481Y-143682926D01*
X89843823Y-143572740D01*
X89837520Y-143553961D01*
X89798809Y-143439919D01*
X89763153Y-143337842D01*
X89732768Y-143253834D01*
X89709865Y-143193999D01*
X89696659Y-143164439D01*
X89695813Y-143163192D01*
X89661828Y-143143755D01*
X89614348Y-143139563D01*
X89571200Y-143149927D01*
G36*
X97984037Y-143147745D02*
G01*
X97868285Y-143190322D01*
X97778658Y-143261948D01*
X97715143Y-143362637D01*
X97677727Y-143492403D01*
X97666398Y-143651261D01*
X97666400Y-143651369D01*
X97682943Y-143800384D01*
X97728394Y-143926482D01*
X97801252Y-144027400D01*
X97900018Y-144100870D01*
X97986956Y-144135681D01*
X98084481Y-144151443D01*
X98194848Y-144150900D01*
X98296943Y-144134644D01*
X98324275Y-144126269D01*
X98428234Y-144069812D01*
X98506778Y-143984021D01*
X98559430Y-143869650D01*
X98585713Y-143727451D01*
X98586835Y-143712310D01*
X98585727Y-143651026D01*
X98415200Y-143651026D01*
X98406416Y-143772201D01*
X98378244Y-143864727D01*
X98327870Y-143935344D01*
X98280456Y-143973649D01*
X98191092Y-144011448D01*
X98094742Y-144015394D01*
X98003287Y-143985475D01*
X97984446Y-143973972D01*
X97916354Y-143916406D01*
X97872264Y-143847643D01*
X97848592Y-143759245D01*
X97841754Y-143642775D01*
X97841776Y-143638049D01*
X97851967Y-143504823D01*
X97881761Y-143404155D01*
X97932843Y-143333877D01*
X98006894Y-143291823D01*
X98105599Y-143275825D01*
X98123289Y-143275538D01*
X98229449Y-143289893D01*
X98311142Y-143333452D01*
X98368944Y-143406959D01*
X98403435Y-143511159D01*
X98415192Y-143646795D01*
X98415200Y-143651026D01*
X98585727Y-143651026D01*
X98583886Y-143549271D01*
X98552810Y-143411359D01*
X98494590Y-143299809D01*
X98410210Y-143215853D01*
X98300654Y-143160726D01*
X98166905Y-143135662D01*
X98125926Y-143134203D01*
X97984037Y-143147745D01*
X97984037Y-143147745D01*
G37*
X97984037Y-143147745D02*
X97868285Y-143190322D01*
X97778658Y-143261948D01*
X97715143Y-143362637D01*
X97677727Y-143492403D01*
X97666398Y-143651261D01*
X97666400Y-143651369D01*
X97682943Y-143800384D01*
X97728394Y-143926482D01*
X97801252Y-144027400D01*
X97900018Y-144100870D01*
X97986956Y-144135681D01*
X98084481Y-144151443D01*
X98194848Y-144150900D01*
X98296943Y-144134644D01*
X98324275Y-144126269D01*
X98428234Y-144069812D01*
X98506778Y-143984021D01*
X98559430Y-143869650D01*
X98585713Y-143727451D01*
X98586835Y-143712310D01*
X98585727Y-143651026D01*
X98415200Y-143651026D01*
X98406416Y-143772201D01*
X98378244Y-143864727D01*
X98327870Y-143935344D01*
X98280456Y-143973649D01*
X98191092Y-144011448D01*
X98094742Y-144015394D01*
X98003287Y-143985475D01*
X97984446Y-143973972D01*
X97916354Y-143916406D01*
X97872264Y-143847643D01*
X97848592Y-143759245D01*
X97841754Y-143642775D01*
X97841776Y-143638049D01*
X97851967Y-143504823D01*
X97881761Y-143404155D01*
X97932843Y-143333877D01*
X98006894Y-143291823D01*
X98105599Y-143275825D01*
X98123289Y-143275538D01*
X98229449Y-143289893D01*
X98311142Y-143333452D01*
X98368944Y-143406959D01*
X98403435Y-143511159D01*
X98415192Y-143646795D01*
X98415200Y-143651026D01*
X98585727Y-143651026D01*
X98583886Y-143549271D01*
X98552810Y-143411359D01*
X98494590Y-143299809D01*
X98410210Y-143215853D01*
X98300654Y-143160726D01*
X98166905Y-143135662D01*
X98125926Y-143134203D01*
X97984037Y-143147745D01*
G36*
X95372013Y-143148295D02*
G01*
X95265116Y-143194951D01*
X95183702Y-143270168D01*
X95129922Y-143371808D01*
X95105928Y-143497732D01*
X95104870Y-143527416D01*
X95103461Y-143656538D01*
X95440500Y-143661884D01*
X95562421Y-143663959D01*
X95650699Y-143666250D01*
X95710761Y-143669542D01*
X95748037Y-143674625D01*
X95767954Y-143682284D01*
X95775943Y-143693307D01*
X95777430Y-143708480D01*
X95777429Y-143710730D01*
X95761354Y-143810757D01*
X95718252Y-143902842D01*
X95679631Y-143949822D01*
X95639120Y-143982740D01*
X95594835Y-144001640D01*
X95532346Y-144011567D01*
X95494978Y-144014418D01*
X95354855Y-144009538D01*
X95276914Y-143990899D01*
X95204781Y-143968236D01*
X95161579Y-143961836D01*
X95140095Y-143973105D01*
X95133118Y-144003448D01*
X95132769Y-144018997D01*
X95138775Y-144060971D01*
X95163749Y-144088493D01*
X95206038Y-144109454D01*
X95260637Y-144125060D01*
X95339217Y-144138588D01*
X95426684Y-144147567D01*
X95445384Y-144148675D01*
X95532654Y-144151540D01*
X95594836Y-144148248D01*
X95645704Y-144136757D01*
X95699031Y-144115028D01*
X95711098Y-144109325D01*
X95813294Y-144039934D01*
X95887865Y-143943156D01*
X95934541Y-143819507D01*
X95953053Y-143669508D01*
X95953384Y-143644347D01*
X95940173Y-143512230D01*
X95777012Y-143512230D01*
X95765625Y-143531745D01*
X95733096Y-143542764D01*
X95674328Y-143547715D01*
X95584222Y-143549027D01*
X95523538Y-143549077D01*
X95269538Y-143549077D01*
X95269611Y-143485577D01*
X95287253Y-143398940D01*
X95335364Y-143328877D01*
X95407039Y-143280541D01*
X95495376Y-143259087D01*
X95567077Y-143263484D01*
X95639391Y-143294397D01*
X95705280Y-143352931D01*
X95752732Y-143428032D01*
X95756757Y-143438003D01*
X95772357Y-143481792D01*
X95777012Y-143512230D01*
X95940173Y-143512230D01*
X95938378Y-143494282D01*
X95894857Y-143366737D01*
X95825066Y-143264261D01*
X95731251Y-143189402D01*
X95615655Y-143144708D01*
X95502241Y-143132339D01*
X95372013Y-143148295D01*
X95372013Y-143148295D01*
G37*
X95372013Y-143148295D02*
X95265116Y-143194951D01*
X95183702Y-143270168D01*
X95129922Y-143371808D01*
X95105928Y-143497732D01*
X95104870Y-143527416D01*
X95103461Y-143656538D01*
X95440500Y-143661884D01*
X95562421Y-143663959D01*
X95650699Y-143666250D01*
X95710761Y-143669542D01*
X95748037Y-143674625D01*
X95767954Y-143682284D01*
X95775943Y-143693307D01*
X95777430Y-143708480D01*
X95777429Y-143710730D01*
X95761354Y-143810757D01*
X95718252Y-143902842D01*
X95679631Y-143949822D01*
X95639120Y-143982740D01*
X95594835Y-144001640D01*
X95532346Y-144011567D01*
X95494978Y-144014418D01*
X95354855Y-144009538D01*
X95276914Y-143990899D01*
X95204781Y-143968236D01*
X95161579Y-143961836D01*
X95140095Y-143973105D01*
X95133118Y-144003448D01*
X95132769Y-144018997D01*
X95138775Y-144060971D01*
X95163749Y-144088493D01*
X95206038Y-144109454D01*
X95260637Y-144125060D01*
X95339217Y-144138588D01*
X95426684Y-144147567D01*
X95445384Y-144148675D01*
X95532654Y-144151540D01*
X95594836Y-144148248D01*
X95645704Y-144136757D01*
X95699031Y-144115028D01*
X95711098Y-144109325D01*
X95813294Y-144039934D01*
X95887865Y-143943156D01*
X95934541Y-143819507D01*
X95953053Y-143669508D01*
X95953384Y-143644347D01*
X95940173Y-143512230D01*
X95777012Y-143512230D01*
X95765625Y-143531745D01*
X95733096Y-143542764D01*
X95674328Y-143547715D01*
X95584222Y-143549027D01*
X95523538Y-143549077D01*
X95269538Y-143549077D01*
X95269611Y-143485577D01*
X95287253Y-143398940D01*
X95335364Y-143328877D01*
X95407039Y-143280541D01*
X95495376Y-143259087D01*
X95567077Y-143263484D01*
X95639391Y-143294397D01*
X95705280Y-143352931D01*
X95752732Y-143428032D01*
X95756757Y-143438003D01*
X95772357Y-143481792D01*
X95777012Y-143512230D01*
X95940173Y-143512230D01*
X95938378Y-143494282D01*
X95894857Y-143366737D01*
X95825066Y-143264261D01*
X95731251Y-143189402D01*
X95615655Y-143144708D01*
X95502241Y-143132339D01*
X95372013Y-143148295D01*
G36*
X93620421Y-143140261D02*
G01*
X93508555Y-143176550D01*
X93422342Y-143239806D01*
X93359821Y-143332212D01*
X93319033Y-143455950D01*
X93313828Y-143481828D01*
X93302380Y-143545234D01*
X93297998Y-143592065D01*
X93305382Y-143624932D01*
X93329233Y-143646447D01*
X93374251Y-143659222D01*
X93445137Y-143665868D01*
X93546590Y-143668996D01*
X93653850Y-143670736D01*
X93989664Y-143676077D01*
X93983285Y-143754231D01*
X93958418Y-143856534D01*
X93904661Y-143935352D01*
X93825477Y-143989114D01*
X93724329Y-144016247D01*
X93604681Y-144015181D01*
X93473533Y-143985495D01*
X93397131Y-143967157D01*
X93351952Y-143971860D01*
X93337471Y-143999862D01*
X93350508Y-144045758D01*
X93388013Y-144085537D01*
X93455142Y-144117395D01*
X93543004Y-144140025D01*
X93642710Y-144152118D01*
X93745370Y-144152369D01*
X93842094Y-144139468D01*
X93892077Y-144125408D01*
X93972552Y-144081029D01*
X94048452Y-144012057D01*
X94107806Y-143931145D01*
X94134597Y-143869050D01*
X94144841Y-143812161D01*
X94152358Y-143732348D01*
X94155688Y-143645744D01*
X94155737Y-143635619D01*
X94153614Y-143549077D01*
X93995423Y-143549077D01*
X93733711Y-143549077D01*
X93621257Y-143548102D01*
X93543476Y-143544905D01*
X93496010Y-143539080D01*
X93474497Y-143530219D01*
X93472109Y-143524654D01*
X93483888Y-143455280D01*
X93513132Y-143381331D01*
X93551511Y-143323007D01*
X93557973Y-143316447D01*
X93622771Y-143278471D01*
X93705571Y-143260473D01*
X93789365Y-143265066D01*
X93823830Y-143275596D01*
X93892777Y-143323171D01*
X93948314Y-143397887D01*
X93980337Y-143482187D01*
X93995423Y-143549077D01*
X94153614Y-143549077D01*
X94153560Y-143546914D01*
X94144757Y-143481518D01*
X94126144Y-143423815D01*
X94102115Y-143372829D01*
X94026257Y-143261778D01*
X93930269Y-143183858D01*
X93816351Y-143140131D01*
X93686705Y-143131660D01*
X93620421Y-143140261D01*
X93620421Y-143140261D01*
G37*
X93620421Y-143140261D02*
X93508555Y-143176550D01*
X93422342Y-143239806D01*
X93359821Y-143332212D01*
X93319033Y-143455950D01*
X93313828Y-143481828D01*
X93302380Y-143545234D01*
X93297998Y-143592065D01*
X93305382Y-143624932D01*
X93329233Y-143646447D01*
X93374251Y-143659222D01*
X93445137Y-143665868D01*
X93546590Y-143668996D01*
X93653850Y-143670736D01*
X93989664Y-143676077D01*
X93983285Y-143754231D01*
X93958418Y-143856534D01*
X93904661Y-143935352D01*
X93825477Y-143989114D01*
X93724329Y-144016247D01*
X93604681Y-144015181D01*
X93473533Y-143985495D01*
X93397131Y-143967157D01*
X93351952Y-143971860D01*
X93337471Y-143999862D01*
X93350508Y-144045758D01*
X93388013Y-144085537D01*
X93455142Y-144117395D01*
X93543004Y-144140025D01*
X93642710Y-144152118D01*
X93745370Y-144152369D01*
X93842094Y-144139468D01*
X93892077Y-144125408D01*
X93972552Y-144081029D01*
X94048452Y-144012057D01*
X94107806Y-143931145D01*
X94134597Y-143869050D01*
X94144841Y-143812161D01*
X94152358Y-143732348D01*
X94155688Y-143645744D01*
X94155737Y-143635619D01*
X94153614Y-143549077D01*
X93995423Y-143549077D01*
X93733711Y-143549077D01*
X93621257Y-143548102D01*
X93543476Y-143544905D01*
X93496010Y-143539080D01*
X93474497Y-143530219D01*
X93472109Y-143524654D01*
X93483888Y-143455280D01*
X93513132Y-143381331D01*
X93551511Y-143323007D01*
X93557973Y-143316447D01*
X93622771Y-143278471D01*
X93705571Y-143260473D01*
X93789365Y-143265066D01*
X93823830Y-143275596D01*
X93892777Y-143323171D01*
X93948314Y-143397887D01*
X93980337Y-143482187D01*
X93995423Y-143549077D01*
X94153614Y-143549077D01*
X94153560Y-143546914D01*
X94144757Y-143481518D01*
X94126144Y-143423815D01*
X94102115Y-143372829D01*
X94026257Y-143261778D01*
X93930269Y-143183858D01*
X93816351Y-143140131D01*
X93686705Y-143131660D01*
X93620421Y-143140261D01*
G36*
X92241077Y-144135231D02*
G01*
X92308282Y-144135231D01*
X92353015Y-144131962D01*
X92373230Y-144114344D01*
X92380953Y-144070657D01*
X92381551Y-144063814D01*
X92387615Y-143992397D01*
X92446230Y-144041527D01*
X92558171Y-144116063D01*
X92669828Y-144151594D01*
X92781627Y-144148184D01*
X92887657Y-144109303D01*
X92947640Y-144069571D01*
X92994063Y-144016237D01*
X93030680Y-143952825D01*
X93059518Y-143891543D01*
X93076740Y-143837106D01*
X93085269Y-143775173D01*
X93088032Y-143691402D01*
X93088148Y-143671021D01*
X93086139Y-143640991D01*
X92918221Y-143640991D01*
X92913077Y-143729542D01*
X92887708Y-143842105D01*
X92842122Y-143929020D01*
X92779901Y-143987153D01*
X92704627Y-144013368D01*
X92619882Y-144004532D01*
X92604832Y-143999333D01*
X92562090Y-143975494D01*
X92507326Y-143935305D01*
X92476560Y-143909137D01*
X92397384Y-143837607D01*
X92397384Y-143655863D01*
X92398651Y-143572277D01*
X92402043Y-143501291D01*
X92406948Y-143453604D01*
X92409625Y-143442222D01*
X92431295Y-143413179D01*
X92474051Y-143372343D01*
X92510127Y-143342931D01*
X92599952Y-143292084D01*
X92684392Y-143277296D01*
X92760374Y-143295616D01*
X92824822Y-143344096D01*
X92874662Y-143419785D01*
X92906820Y-143519733D01*
X92918221Y-143640991D01*
X93086139Y-143640991D01*
X93077214Y-143507610D01*
X93042627Y-143374002D01*
X92983466Y-143268215D01*
X92898808Y-143188266D01*
X92849911Y-143159032D01*
X92772412Y-143136435D01*
X92680412Y-143134798D01*
X92587293Y-143151858D01*
X92506438Y-143185356D01*
X92457069Y-143225404D01*
X92428595Y-143250669D01*
X92414530Y-143256000D01*
X92408468Y-143237608D01*
X92403348Y-143187011D01*
X92399584Y-143111078D01*
X92397592Y-143016677D01*
X92397384Y-142972692D01*
X92397384Y-142689385D01*
X92241077Y-142689385D01*
X92241077Y-144135231D01*
X92241077Y-144135231D01*
G37*
X92241077Y-144135231D02*
X92308282Y-144135231D01*
X92353015Y-144131962D01*
X92373230Y-144114344D01*
X92380953Y-144070657D01*
X92381551Y-144063814D01*
X92387615Y-143992397D01*
X92446230Y-144041527D01*
X92558171Y-144116063D01*
X92669828Y-144151594D01*
X92781627Y-144148184D01*
X92887657Y-144109303D01*
X92947640Y-144069571D01*
X92994063Y-144016237D01*
X93030680Y-143952825D01*
X93059518Y-143891543D01*
X93076740Y-143837106D01*
X93085269Y-143775173D01*
X93088032Y-143691402D01*
X93088148Y-143671021D01*
X93086139Y-143640991D01*
X92918221Y-143640991D01*
X92913077Y-143729542D01*
X92887708Y-143842105D01*
X92842122Y-143929020D01*
X92779901Y-143987153D01*
X92704627Y-144013368D01*
X92619882Y-144004532D01*
X92604832Y-143999333D01*
X92562090Y-143975494D01*
X92507326Y-143935305D01*
X92476560Y-143909137D01*
X92397384Y-143837607D01*
X92397384Y-143655863D01*
X92398651Y-143572277D01*
X92402043Y-143501291D01*
X92406948Y-143453604D01*
X92409625Y-143442222D01*
X92431295Y-143413179D01*
X92474051Y-143372343D01*
X92510127Y-143342931D01*
X92599952Y-143292084D01*
X92684392Y-143277296D01*
X92760374Y-143295616D01*
X92824822Y-143344096D01*
X92874662Y-143419785D01*
X92906820Y-143519733D01*
X92918221Y-143640991D01*
X93086139Y-143640991D01*
X93077214Y-143507610D01*
X93042627Y-143374002D01*
X92983466Y-143268215D01*
X92898808Y-143188266D01*
X92849911Y-143159032D01*
X92772412Y-143136435D01*
X92680412Y-143134798D01*
X92587293Y-143151858D01*
X92506438Y-143185356D01*
X92457069Y-143225404D01*
X92428595Y-143250669D01*
X92414530Y-143256000D01*
X92408468Y-143237608D01*
X92403348Y-143187011D01*
X92399584Y-143111078D01*
X92397592Y-143016677D01*
X92397384Y-142972692D01*
X92397384Y-142689385D01*
X92241077Y-142689385D01*
X92241077Y-144135231D01*
G36*
X91337423Y-142693146D02*
G01*
X91254384Y-142699154D01*
X91248975Y-142987845D01*
X91243565Y-143276536D01*
X91170821Y-143219051D01*
X91063946Y-143155928D01*
X90952251Y-143131346D01*
X90859064Y-143139789D01*
X90770987Y-143167238D01*
X90706783Y-143209223D01*
X90655155Y-143274972D01*
X90624766Y-143331191D01*
X90598372Y-143389687D01*
X90582171Y-143442385D01*
X90573776Y-143502331D01*
X90570799Y-143582568D01*
X90570590Y-143627231D01*
X90573601Y-143724285D01*
X90581701Y-143811659D01*
X90593568Y-143876359D01*
X90597081Y-143887791D01*
X90640251Y-143972340D01*
X90703417Y-144050895D01*
X90775133Y-144110460D01*
X90808952Y-144128372D01*
X90888091Y-144148100D01*
X90980422Y-144152248D01*
X91065058Y-144140468D01*
X91087724Y-144133031D01*
X91135641Y-144108125D01*
X91190569Y-144072000D01*
X91198766Y-144065885D01*
X91247012Y-144031092D01*
X91272388Y-144022074D01*
X91282180Y-144039750D01*
X91283692Y-144076615D01*
X91287504Y-144115997D01*
X91306840Y-144132149D01*
X91352077Y-144135231D01*
X91420461Y-144135231D01*
X91420461Y-143439512D01*
X91244615Y-143439512D01*
X91244615Y-143858219D01*
X91181115Y-143911738D01*
X91084493Y-143977501D01*
X90994259Y-144007618D01*
X90912790Y-144001718D01*
X90847484Y-143964037D01*
X90793467Y-143893563D01*
X90757413Y-143800326D01*
X90739199Y-143693626D01*
X90738705Y-143582764D01*
X90755809Y-143477038D01*
X90790388Y-143385750D01*
X90842321Y-143318198D01*
X90856079Y-143307435D01*
X90921017Y-143281711D01*
X90999359Y-143277469D01*
X91071287Y-143295615D01*
X91074938Y-143297421D01*
X91116062Y-143324692D01*
X91166429Y-143365943D01*
X91181115Y-143379408D01*
X91244615Y-143439512D01*
X91420461Y-143439512D01*
X91420461Y-142687138D01*
X91337423Y-142693146D01*
X91337423Y-142693146D01*
G37*
X91337423Y-142693146D02*
X91254384Y-142699154D01*
X91248975Y-142987845D01*
X91243565Y-143276536D01*
X91170821Y-143219051D01*
X91063946Y-143155928D01*
X90952251Y-143131346D01*
X90859064Y-143139789D01*
X90770987Y-143167238D01*
X90706783Y-143209223D01*
X90655155Y-143274972D01*
X90624766Y-143331191D01*
X90598372Y-143389687D01*
X90582171Y-143442385D01*
X90573776Y-143502331D01*
X90570799Y-143582568D01*
X90570590Y-143627231D01*
X90573601Y-143724285D01*
X90581701Y-143811659D01*
X90593568Y-143876359D01*
X90597081Y-143887791D01*
X90640251Y-143972340D01*
X90703417Y-144050895D01*
X90775133Y-144110460D01*
X90808952Y-144128372D01*
X90888091Y-144148100D01*
X90980422Y-144152248D01*
X91065058Y-144140468D01*
X91087724Y-144133031D01*
X91135641Y-144108125D01*
X91190569Y-144072000D01*
X91198766Y-144065885D01*
X91247012Y-144031092D01*
X91272388Y-144022074D01*
X91282180Y-144039750D01*
X91283692Y-144076615D01*
X91287504Y-144115997D01*
X91306840Y-144132149D01*
X91352077Y-144135231D01*
X91420461Y-144135231D01*
X91420461Y-143439512D01*
X91244615Y-143439512D01*
X91244615Y-143858219D01*
X91181115Y-143911738D01*
X91084493Y-143977501D01*
X90994259Y-144007618D01*
X90912790Y-144001718D01*
X90847484Y-143964037D01*
X90793467Y-143893563D01*
X90757413Y-143800326D01*
X90739199Y-143693626D01*
X90738705Y-143582764D01*
X90755809Y-143477038D01*
X90790388Y-143385750D01*
X90842321Y-143318198D01*
X90856079Y-143307435D01*
X90921017Y-143281711D01*
X90999359Y-143277469D01*
X91071287Y-143295615D01*
X91074938Y-143297421D01*
X91116062Y-143324692D01*
X91166429Y-143365943D01*
X91181115Y-143379408D01*
X91244615Y-143439512D01*
X91420461Y-143439512D01*
X91420461Y-142687138D01*
X91337423Y-142693146D01*
G36*
X99325927Y-142788883D02*
G01*
X99260117Y-142790708D01*
X99147042Y-142797257D01*
X99062682Y-142808118D01*
X98996765Y-142824973D01*
X98958843Y-142839983D01*
X98866714Y-142900626D01*
X98801641Y-142982475D01*
X98763186Y-143078970D01*
X98750908Y-143183550D01*
X98764371Y-143289656D01*
X98803134Y-143390726D01*
X98866758Y-143480200D01*
X98954805Y-143551517D01*
X99008253Y-143578485D01*
X99064108Y-143594860D01*
X99143563Y-143609679D01*
X99231160Y-143620169D01*
X99247599Y-143621455D01*
X99411692Y-143633035D01*
X99411692Y-144135231D01*
X99568000Y-144135231D01*
X99568000Y-143474979D01*
X99412821Y-143474979D01*
X99244678Y-143468066D01*
X99162857Y-143464045D01*
X99109260Y-143457711D01*
X99073056Y-143445382D01*
X99043416Y-143423378D01*
X99009652Y-143388171D01*
X98971747Y-143342883D01*
X98951677Y-143302590D01*
X98943889Y-143251320D01*
X98942769Y-143195718D01*
X98944820Y-143126238D01*
X98954489Y-143080713D01*
X98977051Y-143044090D01*
X99007224Y-143011791D01*
X99049868Y-142974574D01*
X99094207Y-142952340D01*
X99154958Y-142939116D01*
X99199794Y-142933617D01*
X99277503Y-142925177D01*
X99332295Y-142922846D01*
X99368301Y-142932018D01*
X99389654Y-142958087D01*
X99400486Y-143006445D01*
X99404930Y-143082487D01*
X99407118Y-143191606D01*
X99407372Y-143204540D01*
X99412821Y-143474979D01*
X99568000Y-143474979D01*
X99568000Y-142807360D01*
X99519002Y-142795062D01*
X99479477Y-142790670D01*
X99411572Y-142788551D01*
X99325927Y-142788883D01*
X99325927Y-142788883D01*
G37*
X99325927Y-142788883D02*
X99260117Y-142790708D01*
X99147042Y-142797257D01*
X99062682Y-142808118D01*
X98996765Y-142824973D01*
X98958843Y-142839983D01*
X98866714Y-142900626D01*
X98801641Y-142982475D01*
X98763186Y-143078970D01*
X98750908Y-143183550D01*
X98764371Y-143289656D01*
X98803134Y-143390726D01*
X98866758Y-143480200D01*
X98954805Y-143551517D01*
X99008253Y-143578485D01*
X99064108Y-143594860D01*
X99143563Y-143609679D01*
X99231160Y-143620169D01*
X99247599Y-143621455D01*
X99411692Y-143633035D01*
X99411692Y-144135231D01*
X99568000Y-144135231D01*
X99568000Y-143474979D01*
X99412821Y-143474979D01*
X99244678Y-143468066D01*
X99162857Y-143464045D01*
X99109260Y-143457711D01*
X99073056Y-143445382D01*
X99043416Y-143423378D01*
X99009652Y-143388171D01*
X98971747Y-143342883D01*
X98951677Y-143302590D01*
X98943889Y-143251320D01*
X98942769Y-143195718D01*
X98944820Y-143126238D01*
X98954489Y-143080713D01*
X98977051Y-143044090D01*
X99007224Y-143011791D01*
X99049868Y-142974574D01*
X99094207Y-142952340D01*
X99154958Y-142939116D01*
X99199794Y-142933617D01*
X99277503Y-142925177D01*
X99332295Y-142922846D01*
X99368301Y-142932018D01*
X99389654Y-142958087D01*
X99400486Y-143006445D01*
X99404930Y-143082487D01*
X99407118Y-143191606D01*
X99407372Y-143204540D01*
X99412821Y-143474979D01*
X99568000Y-143474979D01*
X99568000Y-142807360D01*
X99519002Y-142795062D01*
X99479477Y-142790670D01*
X99411572Y-142788551D01*
X99325927Y-142788883D01*
G36*
X97379030Y-143148701D02*
G01*
X97345962Y-143168910D01*
X97343295Y-143172961D01*
X97332250Y-143202007D01*
X97312586Y-143262049D01*
X97286353Y-143346491D01*
X97255602Y-143448739D01*
X97223350Y-143558846D01*
X97190616Y-143670391D01*
X97160799Y-143768928D01*
X97135832Y-143848313D01*
X97117646Y-143902402D01*
X97108174Y-143925052D01*
X97108163Y-143925064D01*
X97099255Y-143911793D01*
X97082500Y-143866184D01*
X97059643Y-143793782D01*
X97032430Y-143700130D01*
X97002607Y-143590773D01*
X97001051Y-143584885D01*
X96963720Y-143443317D01*
X96934707Y-143335064D01*
X96912012Y-143255753D01*
X96893637Y-143201008D01*
X96877585Y-143166455D01*
X96861857Y-143147719D01*
X96844455Y-143140424D01*
X96823382Y-143140197D01*
X96798992Y-143142472D01*
X96726224Y-143148538D01*
X96634637Y-143461154D01*
X96602073Y-143572890D01*
X96571733Y-143678070D01*
X96546070Y-143768103D01*
X96527542Y-143834397D01*
X96520876Y-143859184D01*
X96505940Y-143907886D01*
X96493368Y-143933919D01*
X96489366Y-143935263D01*
X96481350Y-143914511D01*
X96464315Y-143861901D01*
X96440014Y-143783139D01*
X96410200Y-143683931D01*
X96376626Y-143569983D01*
X96367087Y-143537233D01*
X96254144Y-143148538D01*
X96189203Y-143142231D01*
X96139656Y-143142744D01*
X96107721Y-143152566D01*
X96106682Y-143153502D01*
X96107045Y-143177034D01*
X96118728Y-143233787D01*
X96140713Y-143319906D01*
X96171986Y-143431532D01*
X96211529Y-143564810D01*
X96236167Y-143645075D01*
X96276136Y-143774241D01*
X96311975Y-143890714D01*
X96342137Y-143989415D01*
X96365075Y-144065262D01*
X96379241Y-144113174D01*
X96383230Y-144128125D01*
X96400895Y-144132083D01*
X96446589Y-144132952D01*
X96493910Y-144131321D01*
X96604590Y-144125461D01*
X96702632Y-143778965D01*
X96734104Y-143670312D01*
X96762586Y-143576802D01*
X96786245Y-143504074D01*
X96803248Y-143457763D01*
X96811760Y-143443504D01*
X96820174Y-143465089D01*
X96836695Y-143518195D01*
X96859493Y-143596552D01*
X96886740Y-143693891D01*
X96912870Y-143790001D01*
X97002895Y-144125461D01*
X97113140Y-144131321D01*
X97172808Y-144133162D01*
X97212841Y-144131849D01*
X97223384Y-144128876D01*
X97228893Y-144108708D01*
X97244398Y-144056279D01*
X97268364Y-143976663D01*
X97299257Y-143874935D01*
X97335542Y-143756170D01*
X97369272Y-143646290D01*
X97408571Y-143516635D01*
X97443058Y-143399191D01*
X97471302Y-143299138D01*
X97491872Y-143221655D01*
X97503337Y-143171923D01*
X97504888Y-143155389D01*
X97475752Y-143140064D01*
X97428046Y-143138460D01*
X97379030Y-143148701D01*
X97379030Y-143148701D01*
G37*
X97379030Y-143148701D02*
X97345962Y-143168910D01*
X97343295Y-143172961D01*
X97332250Y-143202007D01*
X97312586Y-143262049D01*
X97286353Y-143346491D01*
X97255602Y-143448739D01*
X97223350Y-143558846D01*
X97190616Y-143670391D01*
X97160799Y-143768928D01*
X97135832Y-143848313D01*
X97117646Y-143902402D01*
X97108174Y-143925052D01*
X97108163Y-143925064D01*
X97099255Y-143911793D01*
X97082500Y-143866184D01*
X97059643Y-143793782D01*
X97032430Y-143700130D01*
X97002607Y-143590773D01*
X97001051Y-143584885D01*
X96963720Y-143443317D01*
X96934707Y-143335064D01*
X96912012Y-143255753D01*
X96893637Y-143201008D01*
X96877585Y-143166455D01*
X96861857Y-143147719D01*
X96844455Y-143140424D01*
X96823382Y-143140197D01*
X96798992Y-143142472D01*
X96726224Y-143148538D01*
X96634637Y-143461154D01*
X96602073Y-143572890D01*
X96571733Y-143678070D01*
X96546070Y-143768103D01*
X96527542Y-143834397D01*
X96520876Y-143859184D01*
X96505940Y-143907886D01*
X96493368Y-143933919D01*
X96489366Y-143935263D01*
X96481350Y-143914511D01*
X96464315Y-143861901D01*
X96440014Y-143783139D01*
X96410200Y-143683931D01*
X96376626Y-143569983D01*
X96367087Y-143537233D01*
X96254144Y-143148538D01*
X96189203Y-143142231D01*
X96139656Y-143142744D01*
X96107721Y-143152566D01*
X96106682Y-143153502D01*
X96107045Y-143177034D01*
X96118728Y-143233787D01*
X96140713Y-143319906D01*
X96171986Y-143431532D01*
X96211529Y-143564810D01*
X96236167Y-143645075D01*
X96276136Y-143774241D01*
X96311975Y-143890714D01*
X96342137Y-143989415D01*
X96365075Y-144065262D01*
X96379241Y-144113174D01*
X96383230Y-144128125D01*
X96400895Y-144132083D01*
X96446589Y-144132952D01*
X96493910Y-144131321D01*
X96604590Y-144125461D01*
X96702632Y-143778965D01*
X96734104Y-143670312D01*
X96762586Y-143576802D01*
X96786245Y-143504074D01*
X96803248Y-143457763D01*
X96811760Y-143443504D01*
X96820174Y-143465089D01*
X96836695Y-143518195D01*
X96859493Y-143596552D01*
X96886740Y-143693891D01*
X96912870Y-143790001D01*
X97002895Y-144125461D01*
X97113140Y-144131321D01*
X97172808Y-144133162D01*
X97212841Y-144131849D01*
X97223384Y-144128876D01*
X97228893Y-144108708D01*
X97244398Y-144056279D01*
X97268364Y-143976663D01*
X97299257Y-143874935D01*
X97335542Y-143756170D01*
X97369272Y-143646290D01*
X97408571Y-143516635D01*
X97443058Y-143399191D01*
X97471302Y-143299138D01*
X97491872Y-143221655D01*
X97503337Y-143171923D01*
X97504888Y-143155389D01*
X97475752Y-143140064D01*
X97428046Y-143138460D01*
X97379030Y-143148701D01*
G36*
X94341128Y-143135645D02*
G01*
X94298686Y-143154537D01*
X94280242Y-143190180D01*
X94276538Y-143215811D01*
X94277924Y-143274801D01*
X94299677Y-143302123D01*
X94345932Y-143301650D01*
X94363343Y-143297207D01*
X94442689Y-143293477D01*
X94518621Y-143328205D01*
X94590059Y-143400844D01*
X94602997Y-143418830D01*
X94663846Y-143507271D01*
X94663846Y-144135231D01*
X94820825Y-144135231D01*
X94815604Y-143641885D01*
X94810384Y-143148538D01*
X94742000Y-143148538D01*
X94696821Y-143151771D01*
X94675298Y-143169139D01*
X94665209Y-143212151D01*
X94663846Y-143222128D01*
X94654077Y-143295717D01*
X94600050Y-143227686D01*
X94529435Y-143166342D01*
X94443295Y-143133231D01*
X94353861Y-143132701D01*
X94341128Y-143135645D01*
X94341128Y-143135645D01*
G37*
X94341128Y-143135645D02*
X94298686Y-143154537D01*
X94280242Y-143190180D01*
X94276538Y-143215811D01*
X94277924Y-143274801D01*
X94299677Y-143302123D01*
X94345932Y-143301650D01*
X94363343Y-143297207D01*
X94442689Y-143293477D01*
X94518621Y-143328205D01*
X94590059Y-143400844D01*
X94602997Y-143418830D01*
X94663846Y-143507271D01*
X94663846Y-144135231D01*
X94820825Y-144135231D01*
X94815604Y-143641885D01*
X94810384Y-143148538D01*
X94742000Y-143148538D01*
X94696821Y-143151771D01*
X94675298Y-143169139D01*
X94665209Y-143212151D01*
X94663846Y-143222128D01*
X94654077Y-143295717D01*
X94600050Y-143227686D01*
X94529435Y-143166342D01*
X94443295Y-143133231D01*
X94353861Y-143132701D01*
X94341128Y-143135645D01*
D12*
X167870000Y-136700000D02*
X168120000Y-136700000D01*
X168120000Y-136700000D02*
X168120000Y-142700000D01*
X168120000Y-142700000D02*
X167870000Y-142700000D01*
X164870000Y-142700000D02*
X164620000Y-142700000D01*
X164620000Y-142700000D02*
X164620000Y-136700000D01*
X164620000Y-136700000D02*
X164870000Y-136700000D01*
D13*
X133350000Y-130613920D02*
X133350000Y-145610080D01*
X133350000Y-145610080D02*
X113350040Y-145610080D01*
X113350040Y-145610080D02*
X113350040Y-130613920D01*
X113350040Y-130613920D02*
X133350000Y-130613920D01*
D14*
X155575000Y-85090000D02*
X153035000Y-85090000D01*
X170815000Y-82550000D02*
X153035000Y-82550000D01*
X153035000Y-82550000D02*
X153035000Y-115570000D01*
X153035000Y-115570000D02*
X170815000Y-115570000D01*
X170815000Y-115570000D02*
X170815000Y-82550000D01*
D12*
G36*
X167769635Y-90979030D02*
G01*
X167769635Y-91079030D01*
X168269635Y-91079030D01*
X168269635Y-90979030D01*
X167769635Y-90979030D01*
G37*
X167769635Y-90979030D02*
X167769635Y-91079030D01*
X168269635Y-91079030D01*
X168269635Y-90979030D01*
X167769635Y-90979030D01*
G36*
X167769635Y-90979030D02*
G01*
X167769635Y-91279030D01*
X167869635Y-91279030D01*
X167869635Y-90979030D01*
X167769635Y-90979030D01*
G37*
X167769635Y-90979030D02*
X167769635Y-91279030D01*
X167869635Y-91279030D01*
X167869635Y-90979030D01*
X167769635Y-90979030D01*
G36*
X167769635Y-91579030D02*
G01*
X167769635Y-91779030D01*
X167869635Y-91779030D01*
X167869635Y-91579030D01*
X167769635Y-91579030D01*
G37*
X167769635Y-91579030D02*
X167769635Y-91779030D01*
X167869635Y-91779030D01*
X167869635Y-91579030D01*
X167769635Y-91579030D01*
G36*
X168169635Y-90979030D02*
G01*
X168169635Y-91779030D01*
X168269635Y-91779030D01*
X168269635Y-90979030D01*
X168169635Y-90979030D01*
G37*
X168169635Y-90979030D02*
X168169635Y-91779030D01*
X168269635Y-91779030D01*
X168269635Y-90979030D01*
X168169635Y-90979030D01*
G36*
X167969635Y-91379030D02*
G01*
X167969635Y-91479030D01*
X168069635Y-91479030D01*
X168069635Y-91379030D01*
X167969635Y-91379030D01*
G37*
X167969635Y-91379030D02*
X167969635Y-91479030D01*
X168069635Y-91479030D01*
X168069635Y-91379030D01*
X167969635Y-91379030D01*
D14*
X155575000Y-85090000D02*
X155575000Y-87630000D01*
X155575000Y-87630000D02*
X153035000Y-87630000D01*
D13*
X86865000Y-58955000D02*
X86565000Y-58955000D01*
X86865000Y-59330000D02*
X86865000Y-58955000D01*
X86865000Y-65505000D02*
X86465000Y-65505000D01*
X86865000Y-65005000D02*
X86865000Y-65505000D01*
X83315000Y-58955000D02*
X83315000Y-59405000D01*
X83790000Y-58955000D02*
X83315000Y-58955000D01*
X83315000Y-65205000D02*
X83120000Y-65205000D01*
X83640000Y-65505000D02*
X83315000Y-65205000D01*
X84115000Y-65505000D02*
X83640000Y-65505000D01*
D15*
X107708000Y-61333748D02*
X107708000Y-61856252D01*
X106288000Y-61333748D02*
X106288000Y-61856252D01*
X111200000Y-61333748D02*
X111200000Y-61856252D01*
X109780000Y-61333748D02*
X109780000Y-61856252D01*
X115010000Y-61333748D02*
X115010000Y-61856252D01*
X113590000Y-61333748D02*
X113590000Y-61856252D01*
D12*
X168925000Y-119206000D02*
X168925000Y-120206000D01*
X167925000Y-119206000D02*
X168925000Y-119206000D01*
X168925000Y-133206000D02*
X167925000Y-133206000D01*
X168925000Y-132206000D02*
X168925000Y-133206000D01*
X154925000Y-133206000D02*
X154925000Y-132206000D01*
X155925000Y-133206000D02*
X154925000Y-133206000D01*
X154925000Y-119206000D02*
X155925000Y-119206000D01*
X154925000Y-120206000D02*
X154925000Y-119206000D01*
X149875000Y-119206000D02*
X149875000Y-120206000D01*
X148875000Y-119206000D02*
X149875000Y-119206000D01*
X149875000Y-133206000D02*
X148875000Y-133206000D01*
X149875000Y-132206000D02*
X149875000Y-133206000D01*
X135875000Y-133206000D02*
X135875000Y-132206000D01*
X136875000Y-133206000D02*
X135875000Y-133206000D01*
X135875000Y-119206000D02*
X136875000Y-119206000D01*
X135875000Y-120206000D02*
X135875000Y-119206000D01*
X130825000Y-119206000D02*
X130825000Y-120206000D01*
X129825000Y-119206000D02*
X130825000Y-119206000D01*
X130825000Y-133206000D02*
X129825000Y-133206000D01*
X130825000Y-132206000D02*
X130825000Y-133206000D01*
X116825000Y-133206000D02*
X116825000Y-132206000D01*
X117825000Y-133206000D02*
X116825000Y-133206000D01*
X116825000Y-119206000D02*
X117825000Y-119206000D01*
X116825000Y-120206000D02*
X116825000Y-119206000D01*
X111775000Y-119206000D02*
X111775000Y-120206000D01*
X110775000Y-119206000D02*
X111775000Y-119206000D01*
X111775000Y-133206000D02*
X110775000Y-133206000D01*
X111775000Y-132206000D02*
X111775000Y-133206000D01*
X97775000Y-133206000D02*
X97775000Y-132206000D01*
X98775000Y-133206000D02*
X97775000Y-133206000D01*
X97775000Y-119206000D02*
X98775000Y-119206000D01*
X97775000Y-120206000D02*
X97775000Y-119206000D01*
X92725000Y-119206000D02*
X92725000Y-120206000D01*
X91725000Y-119206000D02*
X92725000Y-119206000D01*
X92725000Y-133206000D02*
X91725000Y-133206000D01*
X92725000Y-132206000D02*
X92725000Y-133206000D01*
X78725000Y-133206000D02*
X78725000Y-132206000D01*
X79725000Y-133206000D02*
X78725000Y-133206000D01*
X78725000Y-119206000D02*
X79725000Y-119206000D01*
X78725000Y-120206000D02*
X78725000Y-119206000D01*
X149875000Y-100156000D02*
X149875000Y-101156000D01*
X148875000Y-100156000D02*
X149875000Y-100156000D01*
X149875000Y-114156000D02*
X148875000Y-114156000D01*
X149875000Y-113156000D02*
X149875000Y-114156000D01*
X135875000Y-114156000D02*
X135875000Y-113156000D01*
X136875000Y-114156000D02*
X135875000Y-114156000D01*
X135875000Y-100156000D02*
X136875000Y-100156000D01*
X135875000Y-101156000D02*
X135875000Y-100156000D01*
X130825000Y-100156000D02*
X130825000Y-101156000D01*
X129825000Y-100156000D02*
X130825000Y-100156000D01*
X130825000Y-114156000D02*
X129825000Y-114156000D01*
X130825000Y-113156000D02*
X130825000Y-114156000D01*
X116825000Y-114156000D02*
X116825000Y-113156000D01*
X117825000Y-114156000D02*
X116825000Y-114156000D01*
X116825000Y-100156000D02*
X117825000Y-100156000D01*
X116825000Y-101156000D02*
X116825000Y-100156000D01*
X111775000Y-100156000D02*
X111775000Y-101156000D01*
X110775000Y-100156000D02*
X111775000Y-100156000D01*
X111775000Y-114156000D02*
X110775000Y-114156000D01*
X111775000Y-113156000D02*
X111775000Y-114156000D01*
X97775000Y-114156000D02*
X97775000Y-113156000D01*
X98775000Y-114156000D02*
X97775000Y-114156000D01*
X97775000Y-100156000D02*
X98775000Y-100156000D01*
X97775000Y-101156000D02*
X97775000Y-100156000D01*
X92725000Y-100156000D02*
X92725000Y-101156000D01*
X91725000Y-100156000D02*
X92725000Y-100156000D01*
X92725000Y-114156000D02*
X91725000Y-114156000D01*
X92725000Y-113156000D02*
X92725000Y-114156000D01*
X78725000Y-114156000D02*
X78725000Y-113156000D01*
X79725000Y-114156000D02*
X78725000Y-114156000D01*
X78725000Y-100156000D02*
X79725000Y-100156000D01*
X78725000Y-101156000D02*
X78725000Y-100156000D01*
X135875000Y-95106200D02*
X135875000Y-94106200D01*
X136875000Y-95106200D02*
X135875000Y-95106200D01*
X135875000Y-81106200D02*
X136875000Y-81106200D01*
X135875000Y-82106200D02*
X135875000Y-81106200D01*
X149875000Y-81106200D02*
X149875000Y-82106200D01*
X148875000Y-81106200D02*
X149875000Y-81106200D01*
X149875000Y-95106200D02*
X148875000Y-95106200D01*
X149875000Y-94106200D02*
X149875000Y-95106200D01*
X116825000Y-95106200D02*
X116825000Y-94106200D01*
X117825000Y-95106200D02*
X116825000Y-95106200D01*
X116825000Y-81106200D02*
X117825000Y-81106200D01*
X116825000Y-82106200D02*
X116825000Y-81106200D01*
X130825000Y-81106200D02*
X130825000Y-82106200D01*
X129825000Y-81106200D02*
X130825000Y-81106200D01*
X130825000Y-95106200D02*
X129825000Y-95106200D01*
X130825000Y-94106200D02*
X130825000Y-95106200D01*
X97775000Y-95106200D02*
X97775000Y-94106200D01*
X98775000Y-95106200D02*
X97775000Y-95106200D01*
X97775000Y-81106200D02*
X98775000Y-81106200D01*
X97775000Y-82106200D02*
X97775000Y-81106200D01*
X111775000Y-81106200D02*
X111775000Y-82106200D01*
X110775000Y-81106200D02*
X111775000Y-81106200D01*
X111775000Y-95106200D02*
X110775000Y-95106200D01*
X111775000Y-94106200D02*
X111775000Y-95106200D01*
X78725000Y-95106200D02*
X78725000Y-94106200D01*
X79725000Y-95106200D02*
X78725000Y-95106200D01*
X78725000Y-81106200D02*
X79725000Y-81106200D01*
X78725000Y-82106200D02*
X78725000Y-81106200D01*
X92725000Y-81106200D02*
X92725000Y-82106200D01*
X91725000Y-81106200D02*
X92725000Y-81106200D01*
X92725000Y-95106200D02*
X91725000Y-95106200D01*
X92725000Y-94106200D02*
X92725000Y-95106200D01*
X154925000Y-76056200D02*
X154925000Y-75056200D01*
X155925000Y-76056200D02*
X154925000Y-76056200D01*
X154925000Y-62056200D02*
X155925000Y-62056200D01*
X154925000Y-63056200D02*
X154925000Y-62056200D01*
X168925000Y-62056200D02*
X168925000Y-63056200D01*
X167925000Y-62056200D02*
X168925000Y-62056200D01*
X168925000Y-76056200D02*
X167925000Y-76056200D01*
X168925000Y-75056200D02*
X168925000Y-76056200D01*
X135875000Y-76056200D02*
X135875000Y-75056200D01*
X136875000Y-76056200D02*
X135875000Y-76056200D01*
X135875000Y-62056200D02*
X136875000Y-62056200D01*
X135875000Y-63056200D02*
X135875000Y-62056200D01*
X149875000Y-62056200D02*
X149875000Y-63056200D01*
X148875000Y-62056200D02*
X149875000Y-62056200D01*
X149875000Y-76056200D02*
X148875000Y-76056200D01*
X149875000Y-75056200D02*
X149875000Y-76056200D01*
X116825000Y-76056200D02*
X116825000Y-75056200D01*
X117825000Y-76056200D02*
X116825000Y-76056200D01*
X116825000Y-62056200D02*
X117825000Y-62056200D01*
X116825000Y-63056200D02*
X116825000Y-62056200D01*
X130825000Y-62056200D02*
X130825000Y-63056200D01*
X129825000Y-62056200D02*
X130825000Y-62056200D01*
X130825000Y-76056200D02*
X129825000Y-76056200D01*
X130825000Y-75056200D02*
X130825000Y-76056200D01*
X97775000Y-76056200D02*
X97775000Y-75056200D01*
X98775000Y-76056200D02*
X97775000Y-76056200D01*
X97775000Y-62056200D02*
X98775000Y-62056200D01*
X97775000Y-63056200D02*
X97775000Y-62056200D01*
X111775000Y-62056200D02*
X111775000Y-63056200D01*
X110775000Y-62056200D02*
X111775000Y-62056200D01*
X111775000Y-76056200D02*
X110775000Y-76056200D01*
X111775000Y-75056200D02*
X111775000Y-76056200D01*
X78725000Y-76056200D02*
X78725000Y-75056200D01*
X79725000Y-76056200D02*
X78725000Y-76056200D01*
X78725000Y-62056200D02*
X79725000Y-62056200D01*
X78725000Y-63056200D02*
X78725000Y-62056200D01*
X92725000Y-62056200D02*
X92725000Y-63056200D01*
X91725000Y-62056200D02*
X92725000Y-62056200D01*
X92725000Y-76056200D02*
X91725000Y-76056200D01*
X92725000Y-75056200D02*
X92725000Y-76056200D01*
X164625000Y-131719000D02*
X164625000Y-130219000D01*
X159225000Y-131719000D02*
X164625000Y-131719000D01*
X159225000Y-130219000D02*
X159225000Y-131719000D01*
X164625000Y-130219000D02*
X159225000Y-130219000D01*
X162425000Y-131469000D02*
X161525000Y-130969000D01*
X162425000Y-130469000D02*
X162425000Y-131469000D01*
X161525000Y-130969000D02*
X162425000Y-130469000D01*
X161425000Y-130469000D02*
X161425000Y-131469000D01*
X145575000Y-131719000D02*
X145575000Y-130219000D01*
X140175000Y-131719000D02*
X145575000Y-131719000D01*
X140175000Y-130219000D02*
X140175000Y-131719000D01*
X145575000Y-130219000D02*
X140175000Y-130219000D01*
X143375000Y-131469000D02*
X142475000Y-130969000D01*
X143375000Y-130469000D02*
X143375000Y-131469000D01*
X142475000Y-130969000D02*
X143375000Y-130469000D01*
X142375000Y-130469000D02*
X142375000Y-131469000D01*
X126525000Y-117431000D02*
X126525000Y-115931000D01*
X121125000Y-117431000D02*
X126525000Y-117431000D01*
X121125000Y-115931000D02*
X121125000Y-117431000D01*
X126525000Y-115931000D02*
X121125000Y-115931000D01*
X124325000Y-117181000D02*
X123425000Y-116681000D01*
X124325000Y-116181000D02*
X124325000Y-117181000D01*
X123425000Y-116681000D02*
X124325000Y-116181000D01*
X123325000Y-116181000D02*
X123325000Y-117181000D01*
X107475000Y-131719000D02*
X107475000Y-130219000D01*
X102075000Y-131719000D02*
X107475000Y-131719000D01*
X102075000Y-130219000D02*
X102075000Y-131719000D01*
X107475000Y-130219000D02*
X102075000Y-130219000D01*
X105275000Y-131469000D02*
X104375000Y-130969000D01*
X105275000Y-130469000D02*
X105275000Y-131469000D01*
X104375000Y-130969000D02*
X105275000Y-130469000D01*
X104275000Y-130469000D02*
X104275000Y-131469000D01*
X88425000Y-131719000D02*
X88425000Y-130219000D01*
X83025000Y-131719000D02*
X88425000Y-131719000D01*
X83025000Y-130219000D02*
X83025000Y-131719000D01*
X88425000Y-130219000D02*
X83025000Y-130219000D01*
X86225000Y-131469000D02*
X85325000Y-130969000D01*
X86225000Y-130469000D02*
X86225000Y-131469000D01*
X85325000Y-130969000D02*
X86225000Y-130469000D01*
X85225000Y-130469000D02*
X85225000Y-131469000D01*
X145575000Y-112669000D02*
X145575000Y-111169000D01*
X140175000Y-112669000D02*
X145575000Y-112669000D01*
X140175000Y-111169000D02*
X140175000Y-112669000D01*
X145575000Y-111169000D02*
X140175000Y-111169000D01*
X143375000Y-112419000D02*
X142475000Y-111919000D01*
X143375000Y-111419000D02*
X143375000Y-112419000D01*
X142475000Y-111919000D02*
X143375000Y-111419000D01*
X142375000Y-111419000D02*
X142375000Y-112419000D01*
X126492000Y-112669000D02*
X126492000Y-111169000D01*
X121092000Y-112669000D02*
X126492000Y-112669000D01*
X121092000Y-111169000D02*
X121092000Y-112669000D01*
X126492000Y-111169000D02*
X121092000Y-111169000D01*
X124292000Y-112419000D02*
X123392000Y-111919000D01*
X124292000Y-111419000D02*
X124292000Y-112419000D01*
X123392000Y-111919000D02*
X124292000Y-111419000D01*
X123292000Y-111419000D02*
X123292000Y-112419000D01*
X107475000Y-112669000D02*
X107475000Y-111169000D01*
X102075000Y-112669000D02*
X107475000Y-112669000D01*
X102075000Y-111169000D02*
X102075000Y-112669000D01*
X107475000Y-111169000D02*
X102075000Y-111169000D01*
X105275000Y-112419000D02*
X104375000Y-111919000D01*
X105275000Y-111419000D02*
X105275000Y-112419000D01*
X104375000Y-111919000D02*
X105275000Y-111419000D01*
X104275000Y-111419000D02*
X104275000Y-112419000D01*
X88425000Y-112669000D02*
X88425000Y-111169000D01*
X83025000Y-112669000D02*
X88425000Y-112669000D01*
X83025000Y-111169000D02*
X83025000Y-112669000D01*
X88425000Y-111169000D02*
X83025000Y-111169000D01*
X86225000Y-112419000D02*
X85325000Y-111919000D01*
X86225000Y-111419000D02*
X86225000Y-112419000D01*
X85325000Y-111919000D02*
X86225000Y-111419000D01*
X85225000Y-111419000D02*
X85225000Y-112419000D01*
X145575000Y-84093800D02*
X145575000Y-82593800D01*
X140175000Y-84093800D02*
X145575000Y-84093800D01*
X140175000Y-82593800D02*
X140175000Y-84093800D01*
X145575000Y-82593800D02*
X140175000Y-82593800D01*
X143375000Y-83843800D02*
X142475000Y-83343800D01*
X143375000Y-82843800D02*
X143375000Y-83843800D01*
X142475000Y-83343800D02*
X143375000Y-82843800D01*
X142375000Y-82843800D02*
X142375000Y-83843800D01*
X126525000Y-84093800D02*
X126525000Y-82593800D01*
X121125000Y-84093800D02*
X126525000Y-84093800D01*
X121125000Y-82593800D02*
X121125000Y-84093800D01*
X126525000Y-82593800D02*
X121125000Y-82593800D01*
X124325000Y-83843800D02*
X123425000Y-83343800D01*
X124325000Y-82843800D02*
X124325000Y-83843800D01*
X123425000Y-83343800D02*
X124325000Y-82843800D01*
X123325000Y-82843800D02*
X123325000Y-83843800D01*
X107475000Y-84093800D02*
X107475000Y-82593800D01*
X102075000Y-84093800D02*
X107475000Y-84093800D01*
X102075000Y-82593800D02*
X102075000Y-84093800D01*
X107475000Y-82593800D02*
X102075000Y-82593800D01*
X105275000Y-83843800D02*
X104375000Y-83343800D01*
X105275000Y-82843800D02*
X105275000Y-83843800D01*
X104375000Y-83343800D02*
X105275000Y-82843800D01*
X104275000Y-82843800D02*
X104275000Y-83843800D01*
X88425000Y-84093800D02*
X88425000Y-82593800D01*
X83025000Y-84093800D02*
X88425000Y-84093800D01*
X83025000Y-82593800D02*
X83025000Y-84093800D01*
X88425000Y-82593800D02*
X83025000Y-82593800D01*
X86225000Y-83843800D02*
X85325000Y-83343800D01*
X86225000Y-82843800D02*
X86225000Y-83843800D01*
X85325000Y-83343800D02*
X86225000Y-82843800D01*
X85225000Y-82843800D02*
X85225000Y-83843800D01*
X164625000Y-79331200D02*
X164625000Y-77831200D01*
X159225000Y-79331200D02*
X164625000Y-79331200D01*
X159225000Y-77831200D02*
X159225000Y-79331200D01*
X164625000Y-77831200D02*
X159225000Y-77831200D01*
X162425000Y-79081200D02*
X161525000Y-78581200D01*
X162425000Y-78081200D02*
X162425000Y-79081200D01*
X161525000Y-78581200D02*
X162425000Y-78081200D01*
X161425000Y-78081200D02*
X161425000Y-79081200D01*
X145575000Y-79331200D02*
X145575000Y-77831200D01*
X140175000Y-79331200D02*
X145575000Y-79331200D01*
X140175000Y-77831200D02*
X140175000Y-79331200D01*
X145575000Y-77831200D02*
X140175000Y-77831200D01*
X143375000Y-79081200D02*
X142475000Y-78581200D01*
X143375000Y-78081200D02*
X143375000Y-79081200D01*
X142475000Y-78581200D02*
X143375000Y-78081200D01*
X142375000Y-78081200D02*
X142375000Y-79081200D01*
X126525000Y-79331200D02*
X126525000Y-77831200D01*
X121125000Y-79331200D02*
X126525000Y-79331200D01*
X121125000Y-77831200D02*
X121125000Y-79331200D01*
X126525000Y-77831200D02*
X121125000Y-77831200D01*
X124325000Y-79081200D02*
X123425000Y-78581200D01*
X124325000Y-78081200D02*
X124325000Y-79081200D01*
X123425000Y-78581200D02*
X124325000Y-78081200D01*
X123325000Y-78081200D02*
X123325000Y-79081200D01*
X107475000Y-79331200D02*
X107475000Y-77831200D01*
X102075000Y-79331200D02*
X107475000Y-79331200D01*
X102075000Y-77831200D02*
X102075000Y-79331200D01*
X107475000Y-77831200D02*
X102075000Y-77831200D01*
X105275000Y-79081200D02*
X104375000Y-78581200D01*
X105275000Y-78081200D02*
X105275000Y-79081200D01*
X104375000Y-78581200D02*
X105275000Y-78081200D01*
X104275000Y-78081200D02*
X104275000Y-79081200D01*
X88425000Y-79331200D02*
X88425000Y-77831200D01*
X83025000Y-79331200D02*
X88425000Y-79331200D01*
X83025000Y-77831200D02*
X83025000Y-79331200D01*
X88425000Y-77831200D02*
X83025000Y-77831200D01*
X86225000Y-79081200D02*
X85325000Y-78581200D01*
X86225000Y-78081200D02*
X86225000Y-79081200D01*
X85325000Y-78581200D02*
X86225000Y-78081200D01*
X85225000Y-78081200D02*
X85225000Y-79081200D01*
X166822380Y-138334904D02*
X166346190Y-138001571D01*
X166822380Y-137763476D02*
X165822380Y-137763476D01*
X165822380Y-138144428D01*
X165870000Y-138239666D01*
X165917619Y-138287285D01*
X166012857Y-138334904D01*
X166155714Y-138334904D01*
X166250952Y-138287285D01*
X166298571Y-138239666D01*
X166346190Y-138144428D01*
X166346190Y-137763476D01*
X166774761Y-139144428D02*
X166822380Y-139049190D01*
X166822380Y-138858714D01*
X166774761Y-138763476D01*
X166679523Y-138715857D01*
X166298571Y-138715857D01*
X166203333Y-138763476D01*
X166155714Y-138858714D01*
X166155714Y-139049190D01*
X166203333Y-139144428D01*
X166298571Y-139192047D01*
X166393809Y-139192047D01*
X166489047Y-138715857D01*
X166774761Y-139573000D02*
X166822380Y-139668238D01*
X166822380Y-139858714D01*
X166774761Y-139953952D01*
X166679523Y-140001571D01*
X166631904Y-140001571D01*
X166536666Y-139953952D01*
X166489047Y-139858714D01*
X166489047Y-139715857D01*
X166441428Y-139620619D01*
X166346190Y-139573000D01*
X166298571Y-139573000D01*
X166203333Y-139620619D01*
X166155714Y-139715857D01*
X166155714Y-139858714D01*
X166203333Y-139953952D01*
X166774761Y-140811095D02*
X166822380Y-140715857D01*
X166822380Y-140525380D01*
X166774761Y-140430142D01*
X166679523Y-140382523D01*
X166298571Y-140382523D01*
X166203333Y-140430142D01*
X166155714Y-140525380D01*
X166155714Y-140715857D01*
X166203333Y-140811095D01*
X166298571Y-140858714D01*
X166393809Y-140858714D01*
X166489047Y-140382523D01*
X166155714Y-141144428D02*
X166155714Y-141525380D01*
X165822380Y-141287285D02*
X166679523Y-141287285D01*
X166774761Y-141334904D01*
X166822380Y-141430142D01*
X166822380Y-141525380D01*
D16*
X120028571Y-136969142D02*
X121028571Y-136969142D01*
X120028571Y-136326285D02*
X120814285Y-136326285D01*
X120957142Y-136397714D01*
X121028571Y-136540571D01*
X121028571Y-136754857D01*
X120957142Y-136897714D01*
X120885714Y-136969142D01*
X120885714Y-138540571D02*
X120957142Y-138469142D01*
X121028571Y-138254857D01*
X121028571Y-138112000D01*
X120957142Y-137897714D01*
X120814285Y-137754857D01*
X120671428Y-137683428D01*
X120385714Y-137612000D01*
X120171428Y-137612000D01*
X119885714Y-137683428D01*
X119742857Y-137754857D01*
X119600000Y-137897714D01*
X119528571Y-138112000D01*
X119528571Y-138254857D01*
X119600000Y-138469142D01*
X119671428Y-138540571D01*
X121028571Y-139969142D02*
X121028571Y-139112000D01*
X121028571Y-139540571D02*
X119528571Y-139540571D01*
X119742857Y-139397714D01*
X119885714Y-139254857D01*
X119957142Y-139112000D01*
X117058285Y-133040571D02*
X117772571Y-133040571D01*
X116272571Y-132540571D02*
X117058285Y-133040571D01*
X116272571Y-133540571D01*
X116272571Y-134469142D02*
X117344000Y-134469142D01*
X117558285Y-134397714D01*
X117701142Y-134254857D01*
X117772571Y-134040571D01*
X117772571Y-133897714D01*
X117201142Y-135183428D02*
X117201142Y-136326285D01*
X117772571Y-137826285D02*
X117772571Y-136969142D01*
X117772571Y-137397714D02*
X116272571Y-137397714D01*
X116486857Y-137254857D01*
X116629714Y-137112000D01*
X116701142Y-136969142D01*
X116772571Y-139112000D02*
X117772571Y-139112000D01*
X116201142Y-138754857D02*
X117272571Y-138397714D01*
X117272571Y-139326285D01*
X116272571Y-140183428D02*
X116272571Y-140326285D01*
X116344000Y-140469142D01*
X116415428Y-140540571D01*
X116558285Y-140612000D01*
X116844000Y-140683428D01*
X117201142Y-140683428D01*
X117486857Y-140612000D01*
X117629714Y-140540571D01*
X117701142Y-140469142D01*
X117772571Y-140326285D01*
X117772571Y-140183428D01*
X117701142Y-140040571D01*
X117629714Y-139969142D01*
X117486857Y-139897714D01*
X117201142Y-139826285D01*
X116844000Y-139826285D01*
X116558285Y-139897714D01*
X116415428Y-139969142D01*
X116344000Y-140040571D01*
X116272571Y-140183428D01*
X117772571Y-142112000D02*
X117772571Y-141254857D01*
X117772571Y-141683428D02*
X116272571Y-141683428D01*
X116486857Y-141540571D01*
X116629714Y-141397714D01*
X116701142Y-141254857D01*
X116272571Y-143469142D02*
X116272571Y-142754857D01*
X116986857Y-142683428D01*
X116915428Y-142754857D01*
X116844000Y-142897714D01*
X116844000Y-143254857D01*
X116915428Y-143397714D01*
X116986857Y-143469142D01*
X117129714Y-143540571D01*
X117486857Y-143540571D01*
X117629714Y-143469142D01*
X117701142Y-143397714D01*
X117772571Y-143254857D01*
X117772571Y-142897714D01*
X117701142Y-142754857D01*
X117629714Y-142683428D01*
D12*
X167498333Y-91743809D02*
X167384047Y-91781904D01*
X167193571Y-91781904D01*
X167117380Y-91743809D01*
X167079285Y-91705714D01*
X167041190Y-91629523D01*
X167041190Y-91553333D01*
X167079285Y-91477142D01*
X167117380Y-91439047D01*
X167193571Y-91400952D01*
X167345952Y-91362857D01*
X167422142Y-91324761D01*
X167460238Y-91286666D01*
X167498333Y-91210476D01*
X167498333Y-91134285D01*
X167460238Y-91058095D01*
X167422142Y-91020000D01*
X167345952Y-90981904D01*
X167155476Y-90981904D01*
X167041190Y-91020000D01*
X166812619Y-90981904D02*
X166355476Y-90981904D01*
X166584047Y-91781904D02*
X166584047Y-90981904D01*
X160543604Y-85921904D02*
X160086461Y-85921904D01*
X160315032Y-86721904D02*
X160315032Y-85921904D01*
X159895985Y-85921904D02*
X159362651Y-86721904D01*
X159362651Y-85921904D02*
X159895985Y-86721904D01*
X158905508Y-85921904D02*
X158829318Y-85921904D01*
X158753128Y-85960000D01*
X158715032Y-85998095D01*
X158676937Y-86074285D01*
X158638842Y-86226666D01*
X158638842Y-86417142D01*
X158676937Y-86569523D01*
X158715032Y-86645714D01*
X158753128Y-86683809D01*
X158829318Y-86721904D01*
X158905508Y-86721904D01*
X158981699Y-86683809D01*
X159019794Y-86645714D01*
X159057889Y-86569523D01*
X159095985Y-86417142D01*
X159095985Y-86226666D01*
X159057889Y-86074285D01*
X159019794Y-85998095D01*
X158981699Y-85960000D01*
X158905508Y-85921904D01*
X157724556Y-85883809D02*
X158410270Y-86912380D01*
X157457889Y-86721904D02*
X157457889Y-85921904D01*
X157267413Y-85921904D01*
X157153128Y-85960000D01*
X157076937Y-86036190D01*
X157038842Y-86112380D01*
X157000747Y-86264761D01*
X157000747Y-86379047D01*
X157038842Y-86531428D01*
X157076937Y-86607619D01*
X157153128Y-86683809D01*
X157267413Y-86721904D01*
X157457889Y-86721904D01*
X156734080Y-85921904D02*
X156238842Y-85921904D01*
X156505508Y-86226666D01*
X156391223Y-86226666D01*
X156315032Y-86264761D01*
X156276937Y-86302857D01*
X156238842Y-86379047D01*
X156238842Y-86569523D01*
X156276937Y-86645714D01*
X156315032Y-86683809D01*
X156391223Y-86721904D01*
X156619794Y-86721904D01*
X156695985Y-86683809D01*
X156734080Y-86645714D01*
X167709809Y-111702857D02*
X167595523Y-111740952D01*
X167557428Y-111779047D01*
X167519333Y-111855238D01*
X167519333Y-111969523D01*
X167557428Y-112045714D01*
X167595523Y-112083809D01*
X167671714Y-112121904D01*
X167976476Y-112121904D01*
X167976476Y-111321904D01*
X167709809Y-111321904D01*
X167633619Y-111360000D01*
X167595523Y-111398095D01*
X167557428Y-111474285D01*
X167557428Y-111550476D01*
X167595523Y-111626666D01*
X167633619Y-111664761D01*
X167709809Y-111702857D01*
X167976476Y-111702857D01*
X167214571Y-111398095D02*
X167176476Y-111360000D01*
X167100285Y-111321904D01*
X166909809Y-111321904D01*
X166833619Y-111360000D01*
X166795523Y-111398095D01*
X166757428Y-111474285D01*
X166757428Y-111550476D01*
X166795523Y-111664761D01*
X167252666Y-112121904D01*
X166757428Y-112121904D01*
X167652666Y-104082857D02*
X167919333Y-104082857D01*
X167919333Y-104501904D02*
X167919333Y-103701904D01*
X167538380Y-103701904D01*
X167309809Y-103701904D02*
X166776476Y-103701904D01*
X167119333Y-104501904D01*
X167652666Y-101542857D02*
X167919333Y-101542857D01*
X167919333Y-101961904D02*
X167919333Y-101161904D01*
X167538380Y-101161904D01*
X166890761Y-101161904D02*
X167043142Y-101161904D01*
X167119333Y-101200000D01*
X167157428Y-101238095D01*
X167233619Y-101352380D01*
X167271714Y-101504761D01*
X167271714Y-101809523D01*
X167233619Y-101885714D01*
X167195523Y-101923809D01*
X167119333Y-101961904D01*
X166966952Y-101961904D01*
X166890761Y-101923809D01*
X166852666Y-101885714D01*
X166814571Y-101809523D01*
X166814571Y-101619047D01*
X166852666Y-101542857D01*
X166890761Y-101504761D01*
X166966952Y-101466666D01*
X167119333Y-101466666D01*
X167195523Y-101504761D01*
X167233619Y-101542857D01*
X167271714Y-101619047D01*
X167652666Y-99002857D02*
X167919333Y-99002857D01*
X167919333Y-99421904D02*
X167919333Y-98621904D01*
X167538380Y-98621904D01*
X166852666Y-98621904D02*
X167233619Y-98621904D01*
X167271714Y-99002857D01*
X167233619Y-98964761D01*
X167157428Y-98926666D01*
X166966952Y-98926666D01*
X166890761Y-98964761D01*
X166852666Y-99002857D01*
X166814571Y-99079047D01*
X166814571Y-99269523D01*
X166852666Y-99345714D01*
X166890761Y-99383809D01*
X166966952Y-99421904D01*
X167157428Y-99421904D01*
X167233619Y-99383809D01*
X167271714Y-99345714D01*
X167938380Y-86721904D02*
X168205047Y-86340952D01*
X168395523Y-86721904D02*
X168395523Y-85921904D01*
X168090761Y-85921904D01*
X168014571Y-85960000D01*
X167976476Y-85998095D01*
X167938380Y-86074285D01*
X167938380Y-86188571D01*
X167976476Y-86264761D01*
X168014571Y-86302857D01*
X168090761Y-86340952D01*
X168395523Y-86340952D01*
X167633619Y-86493333D02*
X167252666Y-86493333D01*
X167709809Y-86721904D02*
X167443142Y-85921904D01*
X167176476Y-86721904D01*
X166986000Y-85921904D02*
X166795523Y-86721904D01*
X166643142Y-86150476D01*
X166490761Y-86721904D01*
X166300285Y-85921904D01*
X167995523Y-88500000D02*
X168071714Y-88461904D01*
X168186000Y-88461904D01*
X168300285Y-88500000D01*
X168376476Y-88576190D01*
X168414571Y-88652380D01*
X168452666Y-88804761D01*
X168452666Y-88919047D01*
X168414571Y-89071428D01*
X168376476Y-89147619D01*
X168300285Y-89223809D01*
X168186000Y-89261904D01*
X168109809Y-89261904D01*
X167995523Y-89223809D01*
X167957428Y-89185714D01*
X167957428Y-88919047D01*
X168109809Y-88919047D01*
X167614571Y-89261904D02*
X167614571Y-88461904D01*
X167157428Y-89261904D01*
X167157428Y-88461904D01*
X166776476Y-89261904D02*
X166776476Y-88461904D01*
X166586000Y-88461904D01*
X166471714Y-88500000D01*
X166395523Y-88576190D01*
X166357428Y-88652380D01*
X166319333Y-88804761D01*
X166319333Y-88919047D01*
X166357428Y-89071428D01*
X166395523Y-89147619D01*
X166471714Y-89223809D01*
X166586000Y-89261904D01*
X166776476Y-89261904D01*
X168452666Y-93541904D02*
X168186000Y-94341904D01*
X167919333Y-93541904D01*
X167195523Y-94265714D02*
X167233619Y-94303809D01*
X167347904Y-94341904D01*
X167424095Y-94341904D01*
X167538380Y-94303809D01*
X167614571Y-94227619D01*
X167652666Y-94151428D01*
X167690761Y-93999047D01*
X167690761Y-93884761D01*
X167652666Y-93732380D01*
X167614571Y-93656190D01*
X167538380Y-93580000D01*
X167424095Y-93541904D01*
X167347904Y-93541904D01*
X167233619Y-93580000D01*
X167195523Y-93618095D01*
X166395523Y-94265714D02*
X166433619Y-94303809D01*
X166547904Y-94341904D01*
X166624095Y-94341904D01*
X166738380Y-94303809D01*
X166814571Y-94227619D01*
X166852666Y-94151428D01*
X166890761Y-93999047D01*
X166890761Y-93884761D01*
X166852666Y-93732380D01*
X166814571Y-93656190D01*
X166738380Y-93580000D01*
X166624095Y-93541904D01*
X166547904Y-93541904D01*
X166433619Y-93580000D01*
X166395523Y-93618095D01*
X167652666Y-96462857D02*
X167919333Y-96462857D01*
X167919333Y-96881904D02*
X167919333Y-96081904D01*
X167538380Y-96081904D01*
X166890761Y-96348571D02*
X166890761Y-96881904D01*
X167081238Y-96043809D02*
X167271714Y-96615238D01*
X166776476Y-96615238D01*
X167709809Y-106622857D02*
X167595523Y-106660952D01*
X167557428Y-106699047D01*
X167519333Y-106775238D01*
X167519333Y-106889523D01*
X167557428Y-106965714D01*
X167595523Y-107003809D01*
X167671714Y-107041904D01*
X167976476Y-107041904D01*
X167976476Y-106241904D01*
X167709809Y-106241904D01*
X167633619Y-106280000D01*
X167595523Y-106318095D01*
X167557428Y-106394285D01*
X167557428Y-106470476D01*
X167595523Y-106546666D01*
X167633619Y-106584761D01*
X167709809Y-106622857D01*
X167976476Y-106622857D01*
X166757428Y-107041904D02*
X167214571Y-107041904D01*
X166986000Y-107041904D02*
X166986000Y-106241904D01*
X167062190Y-106356190D01*
X167138380Y-106432380D01*
X167214571Y-106470476D01*
X167709809Y-109162857D02*
X167595523Y-109200952D01*
X167557428Y-109239047D01*
X167519333Y-109315238D01*
X167519333Y-109429523D01*
X167557428Y-109505714D01*
X167595523Y-109543809D01*
X167671714Y-109581904D01*
X167976476Y-109581904D01*
X167976476Y-108781904D01*
X167709809Y-108781904D01*
X167633619Y-108820000D01*
X167595523Y-108858095D01*
X167557428Y-108934285D01*
X167557428Y-109010476D01*
X167595523Y-109086666D01*
X167633619Y-109124761D01*
X167709809Y-109162857D01*
X167976476Y-109162857D01*
X167252666Y-108781904D02*
X166757428Y-108781904D01*
X167024095Y-109086666D01*
X166909809Y-109086666D01*
X166833619Y-109124761D01*
X166795523Y-109162857D01*
X166757428Y-109239047D01*
X166757428Y-109429523D01*
X166795523Y-109505714D01*
X166833619Y-109543809D01*
X166909809Y-109581904D01*
X167138380Y-109581904D01*
X167214571Y-109543809D01*
X167252666Y-109505714D01*
X167709809Y-114242857D02*
X167595523Y-114280952D01*
X167557428Y-114319047D01*
X167519333Y-114395238D01*
X167519333Y-114509523D01*
X167557428Y-114585714D01*
X167595523Y-114623809D01*
X167671714Y-114661904D01*
X167976476Y-114661904D01*
X167976476Y-113861904D01*
X167709809Y-113861904D01*
X167633619Y-113900000D01*
X167595523Y-113938095D01*
X167557428Y-114014285D01*
X167557428Y-114090476D01*
X167595523Y-114166666D01*
X167633619Y-114204761D01*
X167709809Y-114242857D01*
X167976476Y-114242857D01*
X166833619Y-113861904D02*
X166986000Y-113861904D01*
X167062190Y-113900000D01*
X167100285Y-113938095D01*
X167176476Y-114052380D01*
X167214571Y-114204761D01*
X167214571Y-114509523D01*
X167176476Y-114585714D01*
X167138380Y-114623809D01*
X167062190Y-114661904D01*
X166909809Y-114661904D01*
X166833619Y-114623809D01*
X166795523Y-114585714D01*
X166757428Y-114509523D01*
X166757428Y-114319047D01*
X166795523Y-114242857D01*
X166833619Y-114204761D01*
X166909809Y-114166666D01*
X167062190Y-114166666D01*
X167138380Y-114204761D01*
X167176476Y-114242857D01*
X167214571Y-114319047D01*
X156787809Y-114242857D02*
X156673523Y-114280952D01*
X156635428Y-114319047D01*
X156597333Y-114395238D01*
X156597333Y-114509523D01*
X156635428Y-114585714D01*
X156673523Y-114623809D01*
X156749714Y-114661904D01*
X157054476Y-114661904D01*
X157054476Y-113861904D01*
X156787809Y-113861904D01*
X156711619Y-113900000D01*
X156673523Y-113938095D01*
X156635428Y-114014285D01*
X156635428Y-114090476D01*
X156673523Y-114166666D01*
X156711619Y-114204761D01*
X156787809Y-114242857D01*
X157054476Y-114242857D01*
X155873523Y-113861904D02*
X156254476Y-113861904D01*
X156292571Y-114242857D01*
X156254476Y-114204761D01*
X156178285Y-114166666D01*
X155987809Y-114166666D01*
X155911619Y-114204761D01*
X155873523Y-114242857D01*
X155835428Y-114319047D01*
X155835428Y-114509523D01*
X155873523Y-114585714D01*
X155911619Y-114623809D01*
X155987809Y-114661904D01*
X156178285Y-114661904D01*
X156254476Y-114623809D01*
X156292571Y-114585714D01*
X156787809Y-111702857D02*
X156673523Y-111740952D01*
X156635428Y-111779047D01*
X156597333Y-111855238D01*
X156597333Y-111969523D01*
X156635428Y-112045714D01*
X156673523Y-112083809D01*
X156749714Y-112121904D01*
X157054476Y-112121904D01*
X157054476Y-111321904D01*
X156787809Y-111321904D01*
X156711619Y-111360000D01*
X156673523Y-111398095D01*
X156635428Y-111474285D01*
X156635428Y-111550476D01*
X156673523Y-111626666D01*
X156711619Y-111664761D01*
X156787809Y-111702857D01*
X157054476Y-111702857D01*
X155911619Y-111588571D02*
X155911619Y-112121904D01*
X156102095Y-111283809D02*
X156292571Y-111855238D01*
X155797333Y-111855238D01*
X157016380Y-109162857D02*
X156749714Y-109162857D01*
X156635428Y-109581904D02*
X157016380Y-109581904D01*
X157016380Y-108781904D01*
X156635428Y-108781904D01*
X155949714Y-108781904D02*
X156102095Y-108781904D01*
X156178285Y-108820000D01*
X156216380Y-108858095D01*
X156292571Y-108972380D01*
X156330666Y-109124761D01*
X156330666Y-109429523D01*
X156292571Y-109505714D01*
X156254476Y-109543809D01*
X156178285Y-109581904D01*
X156025904Y-109581904D01*
X155949714Y-109543809D01*
X155911619Y-109505714D01*
X155873523Y-109429523D01*
X155873523Y-109239047D01*
X155911619Y-109162857D01*
X155949714Y-109124761D01*
X156025904Y-109086666D01*
X156178285Y-109086666D01*
X156254476Y-109124761D01*
X156292571Y-109162857D01*
X156330666Y-109239047D01*
X157054476Y-107041904D02*
X157054476Y-106241904D01*
X156864000Y-106241904D01*
X156749714Y-106280000D01*
X156673523Y-106356190D01*
X156635428Y-106432380D01*
X156597333Y-106584761D01*
X156597333Y-106699047D01*
X156635428Y-106851428D01*
X156673523Y-106927619D01*
X156749714Y-107003809D01*
X156864000Y-107041904D01*
X157054476Y-107041904D01*
X156330666Y-106241904D02*
X155797333Y-106241904D01*
X156140190Y-107041904D01*
X156597333Y-104425714D02*
X156635428Y-104463809D01*
X156749714Y-104501904D01*
X156825904Y-104501904D01*
X156940190Y-104463809D01*
X157016380Y-104387619D01*
X157054476Y-104311428D01*
X157092571Y-104159047D01*
X157092571Y-104044761D01*
X157054476Y-103892380D01*
X157016380Y-103816190D01*
X156940190Y-103740000D01*
X156825904Y-103701904D01*
X156749714Y-103701904D01*
X156635428Y-103740000D01*
X156597333Y-103778095D01*
X155911619Y-103701904D02*
X156064000Y-103701904D01*
X156140190Y-103740000D01*
X156178285Y-103778095D01*
X156254476Y-103892380D01*
X156292571Y-104044761D01*
X156292571Y-104349523D01*
X156254476Y-104425714D01*
X156216380Y-104463809D01*
X156140190Y-104501904D01*
X155987809Y-104501904D01*
X155911619Y-104463809D01*
X155873523Y-104425714D01*
X155835428Y-104349523D01*
X155835428Y-104159047D01*
X155873523Y-104082857D01*
X155911619Y-104044761D01*
X155987809Y-104006666D01*
X156140190Y-104006666D01*
X156216380Y-104044761D01*
X156254476Y-104082857D01*
X156292571Y-104159047D01*
X157054476Y-101961904D02*
X157054476Y-101161904D01*
X156864000Y-101161904D01*
X156749714Y-101200000D01*
X156673523Y-101276190D01*
X156635428Y-101352380D01*
X156597333Y-101504761D01*
X156597333Y-101619047D01*
X156635428Y-101771428D01*
X156673523Y-101847619D01*
X156749714Y-101923809D01*
X156864000Y-101961904D01*
X157054476Y-101961904D01*
X155911619Y-101428571D02*
X155911619Y-101961904D01*
X156102095Y-101123809D02*
X156292571Y-101695238D01*
X155797333Y-101695238D01*
X157073523Y-91040000D02*
X157149714Y-91001904D01*
X157264000Y-91001904D01*
X157378285Y-91040000D01*
X157454476Y-91116190D01*
X157492571Y-91192380D01*
X157530666Y-91344761D01*
X157530666Y-91459047D01*
X157492571Y-91611428D01*
X157454476Y-91687619D01*
X157378285Y-91763809D01*
X157264000Y-91801904D01*
X157187809Y-91801904D01*
X157073523Y-91763809D01*
X157035428Y-91725714D01*
X157035428Y-91459047D01*
X157187809Y-91459047D01*
X156692571Y-91801904D02*
X156692571Y-91001904D01*
X156235428Y-91801904D01*
X156235428Y-91001904D01*
X155854476Y-91801904D02*
X155854476Y-91001904D01*
X155664000Y-91001904D01*
X155549714Y-91040000D01*
X155473523Y-91116190D01*
X155435428Y-91192380D01*
X155397333Y-91344761D01*
X155397333Y-91459047D01*
X155435428Y-91611428D01*
X155473523Y-91687619D01*
X155549714Y-91763809D01*
X155664000Y-91801904D01*
X155854476Y-91801904D01*
X157073523Y-93580000D02*
X157149714Y-93541904D01*
X157264000Y-93541904D01*
X157378285Y-93580000D01*
X157454476Y-93656190D01*
X157492571Y-93732380D01*
X157530666Y-93884761D01*
X157530666Y-93999047D01*
X157492571Y-94151428D01*
X157454476Y-94227619D01*
X157378285Y-94303809D01*
X157264000Y-94341904D01*
X157187809Y-94341904D01*
X157073523Y-94303809D01*
X157035428Y-94265714D01*
X157035428Y-93999047D01*
X157187809Y-93999047D01*
X156692571Y-94341904D02*
X156692571Y-93541904D01*
X156235428Y-94341904D01*
X156235428Y-93541904D01*
X155854476Y-94341904D02*
X155854476Y-93541904D01*
X155664000Y-93541904D01*
X155549714Y-93580000D01*
X155473523Y-93656190D01*
X155435428Y-93732380D01*
X155397333Y-93884761D01*
X155397333Y-93999047D01*
X155435428Y-94151428D01*
X155473523Y-94227619D01*
X155549714Y-94303809D01*
X155664000Y-94341904D01*
X155854476Y-94341904D01*
X157054476Y-96881904D02*
X157054476Y-96081904D01*
X156864000Y-96081904D01*
X156749714Y-96120000D01*
X156673523Y-96196190D01*
X156635428Y-96272380D01*
X156597333Y-96424761D01*
X156597333Y-96539047D01*
X156635428Y-96691428D01*
X156673523Y-96767619D01*
X156749714Y-96843809D01*
X156864000Y-96881904D01*
X157054476Y-96881904D01*
X155835428Y-96881904D02*
X156292571Y-96881904D01*
X156064000Y-96881904D02*
X156064000Y-96081904D01*
X156140190Y-96196190D01*
X156216380Y-96272380D01*
X156292571Y-96310476D01*
X157054476Y-99421904D02*
X157054476Y-98621904D01*
X156864000Y-98621904D01*
X156749714Y-98660000D01*
X156673523Y-98736190D01*
X156635428Y-98812380D01*
X156597333Y-98964761D01*
X156597333Y-99079047D01*
X156635428Y-99231428D01*
X156673523Y-99307619D01*
X156749714Y-99383809D01*
X156864000Y-99421904D01*
X157054476Y-99421904D01*
X156102095Y-98621904D02*
X156025904Y-98621904D01*
X155949714Y-98660000D01*
X155911619Y-98698095D01*
X155873523Y-98774285D01*
X155835428Y-98926666D01*
X155835428Y-99117142D01*
X155873523Y-99269523D01*
X155911619Y-99345714D01*
X155949714Y-99383809D01*
X156025904Y-99421904D01*
X156102095Y-99421904D01*
X156178285Y-99383809D01*
X156216380Y-99345714D01*
X156254476Y-99269523D01*
X156292571Y-99117142D01*
X156292571Y-98926666D01*
X156254476Y-98774285D01*
X156216380Y-98698095D01*
X156178285Y-98660000D01*
X156102095Y-98621904D01*
X157054476Y-89261904D02*
X157054476Y-88461904D01*
X156864000Y-88461904D01*
X156749714Y-88500000D01*
X156673523Y-88576190D01*
X156635428Y-88652380D01*
X156597333Y-88804761D01*
X156597333Y-88919047D01*
X156635428Y-89071428D01*
X156673523Y-89147619D01*
X156749714Y-89223809D01*
X156864000Y-89261904D01*
X157054476Y-89261904D01*
X156292571Y-88538095D02*
X156254476Y-88500000D01*
X156178285Y-88461904D01*
X155987809Y-88461904D01*
X155911619Y-88500000D01*
X155873523Y-88538095D01*
X155835428Y-88614285D01*
X155835428Y-88690476D01*
X155873523Y-88804761D01*
X156330666Y-89261904D01*
X155835428Y-89261904D01*
X125563095Y-65532380D02*
X125563095Y-66341904D01*
X125515476Y-66437142D01*
X125467857Y-66484761D01*
X125372619Y-66532380D01*
X125182142Y-66532380D01*
X125086904Y-66484761D01*
X125039285Y-66437142D01*
X124991666Y-66341904D01*
X124991666Y-65532380D01*
X124563095Y-66484761D02*
X124420238Y-66532380D01*
X124182142Y-66532380D01*
X124086904Y-66484761D01*
X124039285Y-66437142D01*
X123991666Y-66341904D01*
X123991666Y-66246666D01*
X124039285Y-66151428D01*
X124086904Y-66103809D01*
X124182142Y-66056190D01*
X124372619Y-66008571D01*
X124467857Y-65960952D01*
X124515476Y-65913333D01*
X124563095Y-65818095D01*
X124563095Y-65722857D01*
X124515476Y-65627619D01*
X124467857Y-65580000D01*
X124372619Y-65532380D01*
X124134523Y-65532380D01*
X123991666Y-65580000D01*
X123229761Y-66008571D02*
X123086904Y-66056190D01*
X123039285Y-66103809D01*
X122991666Y-66199047D01*
X122991666Y-66341904D01*
X123039285Y-66437142D01*
X123086904Y-66484761D01*
X123182142Y-66532380D01*
X123563095Y-66532380D01*
X123563095Y-65532380D01*
X123229761Y-65532380D01*
X123134523Y-65580000D01*
X123086904Y-65627619D01*
X123039285Y-65722857D01*
X123039285Y-65818095D01*
X123086904Y-65913333D01*
X123134523Y-65960952D01*
X123229761Y-66008571D01*
X123563095Y-66008571D01*
X122039285Y-66532380D02*
X122610714Y-66532380D01*
X122325000Y-66532380D02*
X122325000Y-65532380D01*
X122420238Y-65675238D01*
X122515476Y-65770476D01*
X122610714Y-65818095D01*
X84542380Y-59714142D02*
X85542380Y-60047476D01*
X84542380Y-60380809D01*
X85637619Y-60476047D02*
X85637619Y-61237952D01*
X85542380Y-62047476D02*
X85066190Y-61714142D01*
X85542380Y-61476047D02*
X84542380Y-61476047D01*
X84542380Y-61857000D01*
X84590000Y-61952238D01*
X84637619Y-61999857D01*
X84732857Y-62047476D01*
X84875714Y-62047476D01*
X84970952Y-61999857D01*
X85018571Y-61952238D01*
X85066190Y-61857000D01*
X85066190Y-61476047D01*
X85018571Y-62476047D02*
X85018571Y-62809380D01*
X85542380Y-62952238D02*
X85542380Y-62476047D01*
X84542380Y-62476047D01*
X84542380Y-62952238D01*
X84590000Y-63904619D02*
X84542380Y-63809380D01*
X84542380Y-63666523D01*
X84590000Y-63523666D01*
X84685238Y-63428428D01*
X84780476Y-63380809D01*
X84970952Y-63333190D01*
X85113809Y-63333190D01*
X85304285Y-63380809D01*
X85399523Y-63428428D01*
X85494761Y-63523666D01*
X85542380Y-63666523D01*
X85542380Y-63761761D01*
X85494761Y-63904619D01*
X85447142Y-63952238D01*
X85113809Y-63952238D01*
X85113809Y-63761761D01*
X85542380Y-64904619D02*
X85542380Y-64333190D01*
X85542380Y-64618904D02*
X84542380Y-64618904D01*
X84685238Y-64523666D01*
X84780476Y-64428428D01*
X84828095Y-64333190D01*
X111292166Y-71634880D02*
X111625500Y-71158690D01*
X111863595Y-71634880D02*
X111863595Y-70634880D01*
X111482642Y-70634880D01*
X111387404Y-70682500D01*
X111339785Y-70730119D01*
X111292166Y-70825357D01*
X111292166Y-70968214D01*
X111339785Y-71063452D01*
X111387404Y-71111071D01*
X111482642Y-71158690D01*
X111863595Y-71158690D01*
X110958833Y-70634880D02*
X110339785Y-70634880D01*
X110673119Y-71015833D01*
X110530261Y-71015833D01*
X110435023Y-71063452D01*
X110387404Y-71111071D01*
X110339785Y-71206309D01*
X110339785Y-71444404D01*
X110387404Y-71539642D01*
X110435023Y-71587261D01*
X110530261Y-71634880D01*
X110815976Y-71634880D01*
X110911214Y-71587261D01*
X110958833Y-71539642D01*
X109292380Y-61428333D02*
X108816190Y-61095000D01*
X109292380Y-60856904D02*
X108292380Y-60856904D01*
X108292380Y-61237857D01*
X108340000Y-61333095D01*
X108387619Y-61380714D01*
X108482857Y-61428333D01*
X108625714Y-61428333D01*
X108720952Y-61380714D01*
X108768571Y-61333095D01*
X108816190Y-61237857D01*
X108816190Y-60856904D01*
X108387619Y-61809285D02*
X108340000Y-61856904D01*
X108292380Y-61952142D01*
X108292380Y-62190238D01*
X108340000Y-62285476D01*
X108387619Y-62333095D01*
X108482857Y-62380714D01*
X108578095Y-62380714D01*
X108720952Y-62333095D01*
X109292380Y-61761666D01*
X109292380Y-62380714D01*
X113102380Y-61428333D02*
X112626190Y-61095000D01*
X113102380Y-60856904D02*
X112102380Y-60856904D01*
X112102380Y-61237857D01*
X112150000Y-61333095D01*
X112197619Y-61380714D01*
X112292857Y-61428333D01*
X112435714Y-61428333D01*
X112530952Y-61380714D01*
X112578571Y-61333095D01*
X112626190Y-61237857D01*
X112626190Y-60856904D01*
X113102380Y-62380714D02*
X113102380Y-61809285D01*
X113102380Y-62095000D02*
X112102380Y-62095000D01*
X112245238Y-61999761D01*
X112340476Y-61904523D01*
X112388095Y-61809285D01*
X163139285Y-134958380D02*
X163139285Y-133958380D01*
X162567857Y-134958380D02*
X162996428Y-134386952D01*
X162567857Y-133958380D02*
X163139285Y-134529809D01*
X162234523Y-133958380D02*
X161615476Y-133958380D01*
X161948809Y-134339333D01*
X161805952Y-134339333D01*
X161710714Y-134386952D01*
X161663095Y-134434571D01*
X161615476Y-134529809D01*
X161615476Y-134767904D01*
X161663095Y-134863142D01*
X161710714Y-134910761D01*
X161805952Y-134958380D01*
X162091666Y-134958380D01*
X162186904Y-134910761D01*
X162234523Y-134863142D01*
X160710714Y-133958380D02*
X161186904Y-133958380D01*
X161234523Y-134434571D01*
X161186904Y-134386952D01*
X161091666Y-134339333D01*
X160853571Y-134339333D01*
X160758333Y-134386952D01*
X160710714Y-134434571D01*
X160663095Y-134529809D01*
X160663095Y-134767904D01*
X160710714Y-134863142D01*
X160758333Y-134910761D01*
X160853571Y-134958380D01*
X161091666Y-134958380D01*
X161186904Y-134910761D01*
X161234523Y-134863142D01*
X144089285Y-134958380D02*
X144089285Y-133958380D01*
X143517857Y-134958380D02*
X143946428Y-134386952D01*
X143517857Y-133958380D02*
X144089285Y-134529809D01*
X143184523Y-133958380D02*
X142565476Y-133958380D01*
X142898809Y-134339333D01*
X142755952Y-134339333D01*
X142660714Y-134386952D01*
X142613095Y-134434571D01*
X142565476Y-134529809D01*
X142565476Y-134767904D01*
X142613095Y-134863142D01*
X142660714Y-134910761D01*
X142755952Y-134958380D01*
X143041666Y-134958380D01*
X143136904Y-134910761D01*
X143184523Y-134863142D01*
X141708333Y-134291714D02*
X141708333Y-134958380D01*
X141946428Y-133910761D02*
X142184523Y-134625047D01*
X141565476Y-134625047D01*
X125039285Y-134958380D02*
X125039285Y-133958380D01*
X124467857Y-134958380D02*
X124896428Y-134386952D01*
X124467857Y-133958380D02*
X125039285Y-134529809D01*
X124134523Y-133958380D02*
X123515476Y-133958380D01*
X123848809Y-134339333D01*
X123705952Y-134339333D01*
X123610714Y-134386952D01*
X123563095Y-134434571D01*
X123515476Y-134529809D01*
X123515476Y-134767904D01*
X123563095Y-134863142D01*
X123610714Y-134910761D01*
X123705952Y-134958380D01*
X123991666Y-134958380D01*
X124086904Y-134910761D01*
X124134523Y-134863142D01*
X123182142Y-133958380D02*
X122563095Y-133958380D01*
X122896428Y-134339333D01*
X122753571Y-134339333D01*
X122658333Y-134386952D01*
X122610714Y-134434571D01*
X122563095Y-134529809D01*
X122563095Y-134767904D01*
X122610714Y-134863142D01*
X122658333Y-134910761D01*
X122753571Y-134958380D01*
X123039285Y-134958380D01*
X123134523Y-134910761D01*
X123182142Y-134863142D01*
X105989285Y-134958380D02*
X105989285Y-133958380D01*
X105417857Y-134958380D02*
X105846428Y-134386952D01*
X105417857Y-133958380D02*
X105989285Y-134529809D01*
X105084523Y-133958380D02*
X104465476Y-133958380D01*
X104798809Y-134339333D01*
X104655952Y-134339333D01*
X104560714Y-134386952D01*
X104513095Y-134434571D01*
X104465476Y-134529809D01*
X104465476Y-134767904D01*
X104513095Y-134863142D01*
X104560714Y-134910761D01*
X104655952Y-134958380D01*
X104941666Y-134958380D01*
X105036904Y-134910761D01*
X105084523Y-134863142D01*
X104084523Y-134053619D02*
X104036904Y-134006000D01*
X103941666Y-133958380D01*
X103703571Y-133958380D01*
X103608333Y-134006000D01*
X103560714Y-134053619D01*
X103513095Y-134148857D01*
X103513095Y-134244095D01*
X103560714Y-134386952D01*
X104132142Y-134958380D01*
X103513095Y-134958380D01*
X86939285Y-134958380D02*
X86939285Y-133958380D01*
X86367857Y-134958380D02*
X86796428Y-134386952D01*
X86367857Y-133958380D02*
X86939285Y-134529809D01*
X86034523Y-133958380D02*
X85415476Y-133958380D01*
X85748809Y-134339333D01*
X85605952Y-134339333D01*
X85510714Y-134386952D01*
X85463095Y-134434571D01*
X85415476Y-134529809D01*
X85415476Y-134767904D01*
X85463095Y-134863142D01*
X85510714Y-134910761D01*
X85605952Y-134958380D01*
X85891666Y-134958380D01*
X85986904Y-134910761D01*
X86034523Y-134863142D01*
X84463095Y-134958380D02*
X85034523Y-134958380D01*
X84748809Y-134958380D02*
X84748809Y-133958380D01*
X84844047Y-134101238D01*
X84939285Y-134196476D01*
X85034523Y-134244095D01*
X144089285Y-115908380D02*
X144089285Y-114908380D01*
X143517857Y-115908380D02*
X143946428Y-115336952D01*
X143517857Y-114908380D02*
X144089285Y-115479809D01*
X143136904Y-115003619D02*
X143089285Y-114956000D01*
X142994047Y-114908380D01*
X142755952Y-114908380D01*
X142660714Y-114956000D01*
X142613095Y-115003619D01*
X142565476Y-115098857D01*
X142565476Y-115194095D01*
X142613095Y-115336952D01*
X143184523Y-115908380D01*
X142565476Y-115908380D01*
X141708333Y-115241714D02*
X141708333Y-115908380D01*
X141946428Y-114860761D02*
X142184523Y-115575047D01*
X141565476Y-115575047D01*
X125039285Y-115908380D02*
X125039285Y-114908380D01*
X124467857Y-115908380D02*
X124896428Y-115336952D01*
X124467857Y-114908380D02*
X125039285Y-115479809D01*
X124086904Y-115003619D02*
X124039285Y-114956000D01*
X123944047Y-114908380D01*
X123705952Y-114908380D01*
X123610714Y-114956000D01*
X123563095Y-115003619D01*
X123515476Y-115098857D01*
X123515476Y-115194095D01*
X123563095Y-115336952D01*
X124134523Y-115908380D01*
X123515476Y-115908380D01*
X123182142Y-114908380D02*
X122563095Y-114908380D01*
X122896428Y-115289333D01*
X122753571Y-115289333D01*
X122658333Y-115336952D01*
X122610714Y-115384571D01*
X122563095Y-115479809D01*
X122563095Y-115717904D01*
X122610714Y-115813142D01*
X122658333Y-115860761D01*
X122753571Y-115908380D01*
X123039285Y-115908380D01*
X123134523Y-115860761D01*
X123182142Y-115813142D01*
X105989285Y-115908380D02*
X105989285Y-114908380D01*
X105417857Y-115908380D02*
X105846428Y-115336952D01*
X105417857Y-114908380D02*
X105989285Y-115479809D01*
X105036904Y-115003619D02*
X104989285Y-114956000D01*
X104894047Y-114908380D01*
X104655952Y-114908380D01*
X104560714Y-114956000D01*
X104513095Y-115003619D01*
X104465476Y-115098857D01*
X104465476Y-115194095D01*
X104513095Y-115336952D01*
X105084523Y-115908380D01*
X104465476Y-115908380D01*
X104084523Y-115003619D02*
X104036904Y-114956000D01*
X103941666Y-114908380D01*
X103703571Y-114908380D01*
X103608333Y-114956000D01*
X103560714Y-115003619D01*
X103513095Y-115098857D01*
X103513095Y-115194095D01*
X103560714Y-115336952D01*
X104132142Y-115908380D01*
X103513095Y-115908380D01*
X86939285Y-115908380D02*
X86939285Y-114908380D01*
X86367857Y-115908380D02*
X86796428Y-115336952D01*
X86367857Y-114908380D02*
X86939285Y-115479809D01*
X85986904Y-115003619D02*
X85939285Y-114956000D01*
X85844047Y-114908380D01*
X85605952Y-114908380D01*
X85510714Y-114956000D01*
X85463095Y-115003619D01*
X85415476Y-115098857D01*
X85415476Y-115194095D01*
X85463095Y-115336952D01*
X86034523Y-115908380D01*
X85415476Y-115908380D01*
X84463095Y-115908380D02*
X85034523Y-115908380D01*
X84748809Y-115908380D02*
X84748809Y-114908380D01*
X84844047Y-115051238D01*
X84939285Y-115146476D01*
X85034523Y-115194095D01*
X144089285Y-80258580D02*
X144089285Y-79258580D01*
X143517857Y-80258580D02*
X143946428Y-79687152D01*
X143517857Y-79258580D02*
X144089285Y-79830009D01*
X142565476Y-80258580D02*
X143136904Y-80258580D01*
X142851190Y-80258580D02*
X142851190Y-79258580D01*
X142946428Y-79401438D01*
X143041666Y-79496676D01*
X143136904Y-79544295D01*
X141708333Y-79591914D02*
X141708333Y-80258580D01*
X141946428Y-79210961D02*
X142184523Y-79925247D01*
X141565476Y-79925247D01*
X125039285Y-80258580D02*
X125039285Y-79258580D01*
X124467857Y-80258580D02*
X124896428Y-79687152D01*
X124467857Y-79258580D02*
X125039285Y-79830009D01*
X123515476Y-80258580D02*
X124086904Y-80258580D01*
X123801190Y-80258580D02*
X123801190Y-79258580D01*
X123896428Y-79401438D01*
X123991666Y-79496676D01*
X124086904Y-79544295D01*
X123182142Y-79258580D02*
X122563095Y-79258580D01*
X122896428Y-79639533D01*
X122753571Y-79639533D01*
X122658333Y-79687152D01*
X122610714Y-79734771D01*
X122563095Y-79830009D01*
X122563095Y-80068104D01*
X122610714Y-80163342D01*
X122658333Y-80210961D01*
X122753571Y-80258580D01*
X123039285Y-80258580D01*
X123134523Y-80210961D01*
X123182142Y-80163342D01*
X105989285Y-80258580D02*
X105989285Y-79258580D01*
X105417857Y-80258580D02*
X105846428Y-79687152D01*
X105417857Y-79258580D02*
X105989285Y-79830009D01*
X104465476Y-80258580D02*
X105036904Y-80258580D01*
X104751190Y-80258580D02*
X104751190Y-79258580D01*
X104846428Y-79401438D01*
X104941666Y-79496676D01*
X105036904Y-79544295D01*
X104084523Y-79353819D02*
X104036904Y-79306200D01*
X103941666Y-79258580D01*
X103703571Y-79258580D01*
X103608333Y-79306200D01*
X103560714Y-79353819D01*
X103513095Y-79449057D01*
X103513095Y-79544295D01*
X103560714Y-79687152D01*
X104132142Y-80258580D01*
X103513095Y-80258580D01*
X86939285Y-80258580D02*
X86939285Y-79258580D01*
X86367857Y-80258580D02*
X86796428Y-79687152D01*
X86367857Y-79258580D02*
X86939285Y-79830009D01*
X85415476Y-80258580D02*
X85986904Y-80258580D01*
X85701190Y-80258580D02*
X85701190Y-79258580D01*
X85796428Y-79401438D01*
X85891666Y-79496676D01*
X85986904Y-79544295D01*
X84463095Y-80258580D02*
X85034523Y-80258580D01*
X84748809Y-80258580D02*
X84748809Y-79258580D01*
X84844047Y-79401438D01*
X84939285Y-79496676D01*
X85034523Y-79544295D01*
X162663095Y-61208580D02*
X162663095Y-60208580D01*
X162091666Y-61208580D02*
X162520238Y-60637152D01*
X162091666Y-60208580D02*
X162663095Y-60780009D01*
X161186904Y-60208580D02*
X161663095Y-60208580D01*
X161710714Y-60684771D01*
X161663095Y-60637152D01*
X161567857Y-60589533D01*
X161329761Y-60589533D01*
X161234523Y-60637152D01*
X161186904Y-60684771D01*
X161139285Y-60780009D01*
X161139285Y-61018104D01*
X161186904Y-61113342D01*
X161234523Y-61160961D01*
X161329761Y-61208580D01*
X161567857Y-61208580D01*
X161663095Y-61160961D01*
X161710714Y-61113342D01*
X143613095Y-61208580D02*
X143613095Y-60208580D01*
X143041666Y-61208580D02*
X143470238Y-60637152D01*
X143041666Y-60208580D02*
X143613095Y-60780009D01*
X142184523Y-60541914D02*
X142184523Y-61208580D01*
X142422619Y-60160961D02*
X142660714Y-60875247D01*
X142041666Y-60875247D01*
X124563095Y-61208580D02*
X124563095Y-60208580D01*
X123991666Y-61208580D02*
X124420238Y-60637152D01*
X123991666Y-60208580D02*
X124563095Y-60780009D01*
X123658333Y-60208580D02*
X123039285Y-60208580D01*
X123372619Y-60589533D01*
X123229761Y-60589533D01*
X123134523Y-60637152D01*
X123086904Y-60684771D01*
X123039285Y-60780009D01*
X123039285Y-61018104D01*
X123086904Y-61113342D01*
X123134523Y-61160961D01*
X123229761Y-61208580D01*
X123515476Y-61208580D01*
X123610714Y-61160961D01*
X123658333Y-61113342D01*
X105513095Y-61208580D02*
X105513095Y-60208580D01*
X104941666Y-61208580D02*
X105370238Y-60637152D01*
X104941666Y-60208580D02*
X105513095Y-60780009D01*
X104560714Y-60303819D02*
X104513095Y-60256200D01*
X104417857Y-60208580D01*
X104179761Y-60208580D01*
X104084523Y-60256200D01*
X104036904Y-60303819D01*
X103989285Y-60399057D01*
X103989285Y-60494295D01*
X104036904Y-60637152D01*
X104608333Y-61208580D01*
X103989285Y-61208580D01*
X86463095Y-61208580D02*
X86463095Y-60208580D01*
X85891666Y-61208580D02*
X86320238Y-60637152D01*
X85891666Y-60208580D02*
X86463095Y-60780009D01*
X84939285Y-61208580D02*
X85510714Y-61208580D01*
X85225000Y-61208580D02*
X85225000Y-60208580D01*
X85320238Y-60351438D01*
X85415476Y-60446676D01*
X85510714Y-60494295D01*
M02*
