M48
; DRILL file {KiCad (5.1.2)-2} date 2019/12/29 19:29:11
; FORMAT={-:-/ absolute / inch / decimal}
; #@! TF.CreationDate,2019-12-29T19:29:11+08:00
; #@! TF.GenerationSoftware,Kicad,Pcbnew,(5.1.2)-2
; #@! TF.FileFunction,NonPlated,1,2,NPTH
FMAT,2
INCH
T1C0.0256
T2C0.0670
T3C0.1181
T4C0.1570
%
G90
G05
T1
X4.7612Y-2.4461
X4.9888Y-2.4461
T2
X3.175Y-4.2187
X3.575Y-4.2187
X5.425Y-2.7187
X5.825Y-2.7187
X3.175Y-3.4687
X3.575Y-3.4687
X3.175Y-4.9687
X3.575Y-4.9687
X5.425Y-3.4687
X5.825Y-3.4687
X3.175Y-2.7187
X3.575Y-2.7187
X6.175Y-4.9687
X6.575Y-4.9687
X4.675Y-4.9687
X5.075Y-4.9687
X3.925Y-3.4687
X4.325Y-3.4687
X4.675Y-4.2187
X5.075Y-4.2187
X4.675Y-3.4687
X5.075Y-3.4687
X3.925Y-2.7187
X4.325Y-2.7187
X6.175Y-2.7187
X6.575Y-2.7187
X5.425Y-4.9687
X5.825Y-4.9687
X4.675Y-2.7187
X5.075Y-2.7187
X3.925Y-4.2187
X4.325Y-4.2187
X5.425Y-4.2187
X5.825Y-4.2187
X3.925Y-4.9687
X4.325Y-4.9687
T3
X4.025Y-2.9187
X4.275Y-2.8187
X6.275Y-2.9187
X6.525Y-2.8187
X5.475Y-4.8687
X5.725Y-4.7687
X4.775Y-2.9187
X5.025Y-2.8187
X3.975Y-4.1187
X4.225Y-4.0187
X5.475Y-4.1187
X5.725Y-4.0187
X3.975Y-4.8687
X4.225Y-4.7687
X3.225Y-4.1187
X3.475Y-4.0187
X5.525Y-2.9187
X5.775Y-2.8187
X3.275Y-3.6687
X3.525Y-3.5687
X3.225Y-4.8687
X3.475Y-4.7687
X5.525Y-3.6687
X5.775Y-3.5687
X3.275Y-2.9187
X3.525Y-2.8187
X6.225Y-4.8687
X6.475Y-4.7687
X4.725Y-4.8687
X4.975Y-4.7687
X4.025Y-3.6687
X4.275Y-3.5687
X4.725Y-4.1187
X4.975Y-4.0187
X4.775Y-3.6687
X5.025Y-3.5687
T4
X4.125Y-2.7187
X6.375Y-2.7187
X5.625Y-4.9687
X4.875Y-2.7187
X4.125Y-4.2187
X5.625Y-4.2187
X4.125Y-4.9687
X3.375Y-4.2187
X5.625Y-2.7187
X3.375Y-3.4687
X3.375Y-4.9687
X5.625Y-3.4687
X3.375Y-2.7187
X6.375Y-4.9687
X4.875Y-4.9687
X4.125Y-3.4687
X4.875Y-4.2187
X4.875Y-3.4687
T0
M30
