G04 #@! TF.GenerationSoftware,KiCad,Pcbnew,(5.1.2)-2*
G04 #@! TF.CreationDate,2019-12-29T19:31:18+08:00*
G04 #@! TF.ProjectId,redox-receiver,7265646f-782d-4726-9563-65697665722e,rev?*
G04 #@! TF.SameCoordinates,Original*
G04 #@! TF.FileFunction,Soldermask,Bot*
G04 #@! TF.FilePolarity,Negative*
%FSLAX46Y46*%
G04 Gerber Fmt 4.6, Leading zero omitted, Abs format (unit mm)*
G04 Created by KiCad (PCBNEW (5.1.2)-2) date 2019-12-29 19:31:18*
%MOMM*%
%LPD*%
G04 APERTURE LIST*
%ADD10C,2.000000*%
%ADD11R,0.698500X1.198880*%
%ADD12R,1.198880X0.698500*%
%ADD13C,1.752600*%
%ADD14R,1.752600X1.752600*%
%ADD15R,0.600000X2.450000*%
%ADD16R,0.300000X2.450000*%
%ADD17C,0.650000*%
%ADD18R,2.200000X3.800000*%
%ADD19R,2.200000X1.500000*%
%ADD20O,1.700000X1.700000*%
%ADD21R,1.700000X1.700000*%
%ADD22C,0.100000*%
%ADD23C,1.150000*%
%ADD24R,2.550000X2.500000*%
%ADD25C,1.701800*%
%ADD26C,3.987800*%
%ADD27C,3.000000*%
%ADD28R,1.300000X0.950000*%
G04 APERTURE END LIST*
D10*
X166370000Y-136450000D03*
X166370000Y-142950000D03*
D11*
X129900680Y-130613920D03*
X118902480Y-130613920D03*
D12*
X133350000Y-133164080D03*
X133350000Y-134263900D03*
X133350000Y-135363720D03*
X133350000Y-136463540D03*
X133350000Y-137563360D03*
X133350000Y-138660640D03*
X133350000Y-139760460D03*
X133350000Y-140860280D03*
X133350000Y-141960100D03*
X133350000Y-143059920D03*
X133350000Y-144159740D03*
D11*
X131000500Y-145610080D03*
X129900680Y-145610080D03*
X128800860Y-145610080D03*
X127701040Y-145610080D03*
X126601220Y-145610080D03*
X125501400Y-145610080D03*
X122201940Y-145610080D03*
X121102120Y-145610080D03*
X120002300Y-145610080D03*
X118902480Y-145610080D03*
X120002300Y-130613920D03*
X121102120Y-130613920D03*
X122201940Y-130613920D03*
X123301760Y-130613920D03*
X124401580Y-130613920D03*
X125501400Y-130613920D03*
X126601220Y-130613920D03*
X127701040Y-130613920D03*
X128800860Y-130613920D03*
D12*
X133350000Y-132064260D03*
D11*
X123301760Y-145610080D03*
X124401580Y-145610080D03*
X131000500Y-130613920D03*
D13*
X169545000Y-86360000D03*
X154305000Y-114300000D03*
X169545000Y-88900000D03*
X169545000Y-91440000D03*
X169545000Y-93980000D03*
X169545000Y-96520000D03*
X169545000Y-99060000D03*
X169545000Y-101600000D03*
X169545000Y-104140000D03*
X169545000Y-106680000D03*
X169545000Y-109220000D03*
X169545000Y-111760000D03*
X169545000Y-114300000D03*
X154305000Y-111760000D03*
X154305000Y-109220000D03*
X154305000Y-106680000D03*
X154305000Y-104140000D03*
X154305000Y-101600000D03*
X154305000Y-99060000D03*
X154305000Y-96520000D03*
X154305000Y-93980000D03*
X154305000Y-91440000D03*
X154305000Y-88900000D03*
D14*
X154305000Y-86360000D03*
D15*
X127050000Y-64075000D03*
X120600000Y-64075000D03*
X126275000Y-64075000D03*
X121375000Y-64075000D03*
D16*
X122075000Y-64075000D03*
X125575000Y-64075000D03*
X122575000Y-64075000D03*
X125075000Y-64075000D03*
X123075000Y-64075000D03*
X124575000Y-64075000D03*
X124075000Y-64075000D03*
X123575000Y-64075000D03*
D17*
X126715000Y-62130000D03*
X120935000Y-62130000D03*
D18*
X88240000Y-62230000D03*
D19*
X81940000Y-64530000D03*
X81940000Y-62230000D03*
X81940000Y-59930000D03*
D20*
X100330000Y-58420000D03*
X97790000Y-58420000D03*
D21*
X95250000Y-58420000D03*
D22*
G36*
X107472505Y-62046204D02*
G01*
X107496773Y-62049804D01*
X107520572Y-62055765D01*
X107543671Y-62064030D01*
X107565850Y-62074520D01*
X107586893Y-62087132D01*
X107606599Y-62101747D01*
X107624777Y-62118223D01*
X107641253Y-62136401D01*
X107655868Y-62156107D01*
X107668480Y-62177150D01*
X107678970Y-62199329D01*
X107687235Y-62222428D01*
X107693196Y-62246227D01*
X107696796Y-62270495D01*
X107698000Y-62294999D01*
X107698000Y-62945001D01*
X107696796Y-62969505D01*
X107693196Y-62993773D01*
X107687235Y-63017572D01*
X107678970Y-63040671D01*
X107668480Y-63062850D01*
X107655868Y-63083893D01*
X107641253Y-63103599D01*
X107624777Y-63121777D01*
X107606599Y-63138253D01*
X107586893Y-63152868D01*
X107565850Y-63165480D01*
X107543671Y-63175970D01*
X107520572Y-63184235D01*
X107496773Y-63190196D01*
X107472505Y-63193796D01*
X107448001Y-63195000D01*
X106547999Y-63195000D01*
X106523495Y-63193796D01*
X106499227Y-63190196D01*
X106475428Y-63184235D01*
X106452329Y-63175970D01*
X106430150Y-63165480D01*
X106409107Y-63152868D01*
X106389401Y-63138253D01*
X106371223Y-63121777D01*
X106354747Y-63103599D01*
X106340132Y-63083893D01*
X106327520Y-63062850D01*
X106317030Y-63040671D01*
X106308765Y-63017572D01*
X106302804Y-62993773D01*
X106299204Y-62969505D01*
X106298000Y-62945001D01*
X106298000Y-62294999D01*
X106299204Y-62270495D01*
X106302804Y-62246227D01*
X106308765Y-62222428D01*
X106317030Y-62199329D01*
X106327520Y-62177150D01*
X106340132Y-62156107D01*
X106354747Y-62136401D01*
X106371223Y-62118223D01*
X106389401Y-62101747D01*
X106409107Y-62087132D01*
X106430150Y-62074520D01*
X106452329Y-62064030D01*
X106475428Y-62055765D01*
X106499227Y-62049804D01*
X106523495Y-62046204D01*
X106547999Y-62045000D01*
X107448001Y-62045000D01*
X107472505Y-62046204D01*
X107472505Y-62046204D01*
G37*
D23*
X106998000Y-62620000D03*
D22*
G36*
X107472505Y-59996204D02*
G01*
X107496773Y-59999804D01*
X107520572Y-60005765D01*
X107543671Y-60014030D01*
X107565850Y-60024520D01*
X107586893Y-60037132D01*
X107606599Y-60051747D01*
X107624777Y-60068223D01*
X107641253Y-60086401D01*
X107655868Y-60106107D01*
X107668480Y-60127150D01*
X107678970Y-60149329D01*
X107687235Y-60172428D01*
X107693196Y-60196227D01*
X107696796Y-60220495D01*
X107698000Y-60244999D01*
X107698000Y-60895001D01*
X107696796Y-60919505D01*
X107693196Y-60943773D01*
X107687235Y-60967572D01*
X107678970Y-60990671D01*
X107668480Y-61012850D01*
X107655868Y-61033893D01*
X107641253Y-61053599D01*
X107624777Y-61071777D01*
X107606599Y-61088253D01*
X107586893Y-61102868D01*
X107565850Y-61115480D01*
X107543671Y-61125970D01*
X107520572Y-61134235D01*
X107496773Y-61140196D01*
X107472505Y-61143796D01*
X107448001Y-61145000D01*
X106547999Y-61145000D01*
X106523495Y-61143796D01*
X106499227Y-61140196D01*
X106475428Y-61134235D01*
X106452329Y-61125970D01*
X106430150Y-61115480D01*
X106409107Y-61102868D01*
X106389401Y-61088253D01*
X106371223Y-61071777D01*
X106354747Y-61053599D01*
X106340132Y-61033893D01*
X106327520Y-61012850D01*
X106317030Y-60990671D01*
X106308765Y-60967572D01*
X106302804Y-60943773D01*
X106299204Y-60919505D01*
X106298000Y-60895001D01*
X106298000Y-60244999D01*
X106299204Y-60220495D01*
X106302804Y-60196227D01*
X106308765Y-60172428D01*
X106317030Y-60149329D01*
X106327520Y-60127150D01*
X106340132Y-60106107D01*
X106354747Y-60086401D01*
X106371223Y-60068223D01*
X106389401Y-60051747D01*
X106409107Y-60037132D01*
X106430150Y-60024520D01*
X106452329Y-60014030D01*
X106475428Y-60005765D01*
X106499227Y-59999804D01*
X106523495Y-59996204D01*
X106547999Y-59995000D01*
X107448001Y-59995000D01*
X107472505Y-59996204D01*
X107472505Y-59996204D01*
G37*
D23*
X106998000Y-60570000D03*
D22*
G36*
X110964505Y-62046204D02*
G01*
X110988773Y-62049804D01*
X111012572Y-62055765D01*
X111035671Y-62064030D01*
X111057850Y-62074520D01*
X111078893Y-62087132D01*
X111098599Y-62101747D01*
X111116777Y-62118223D01*
X111133253Y-62136401D01*
X111147868Y-62156107D01*
X111160480Y-62177150D01*
X111170970Y-62199329D01*
X111179235Y-62222428D01*
X111185196Y-62246227D01*
X111188796Y-62270495D01*
X111190000Y-62294999D01*
X111190000Y-62945001D01*
X111188796Y-62969505D01*
X111185196Y-62993773D01*
X111179235Y-63017572D01*
X111170970Y-63040671D01*
X111160480Y-63062850D01*
X111147868Y-63083893D01*
X111133253Y-63103599D01*
X111116777Y-63121777D01*
X111098599Y-63138253D01*
X111078893Y-63152868D01*
X111057850Y-63165480D01*
X111035671Y-63175970D01*
X111012572Y-63184235D01*
X110988773Y-63190196D01*
X110964505Y-63193796D01*
X110940001Y-63195000D01*
X110039999Y-63195000D01*
X110015495Y-63193796D01*
X109991227Y-63190196D01*
X109967428Y-63184235D01*
X109944329Y-63175970D01*
X109922150Y-63165480D01*
X109901107Y-63152868D01*
X109881401Y-63138253D01*
X109863223Y-63121777D01*
X109846747Y-63103599D01*
X109832132Y-63083893D01*
X109819520Y-63062850D01*
X109809030Y-63040671D01*
X109800765Y-63017572D01*
X109794804Y-62993773D01*
X109791204Y-62969505D01*
X109790000Y-62945001D01*
X109790000Y-62294999D01*
X109791204Y-62270495D01*
X109794804Y-62246227D01*
X109800765Y-62222428D01*
X109809030Y-62199329D01*
X109819520Y-62177150D01*
X109832132Y-62156107D01*
X109846747Y-62136401D01*
X109863223Y-62118223D01*
X109881401Y-62101747D01*
X109901107Y-62087132D01*
X109922150Y-62074520D01*
X109944329Y-62064030D01*
X109967428Y-62055765D01*
X109991227Y-62049804D01*
X110015495Y-62046204D01*
X110039999Y-62045000D01*
X110940001Y-62045000D01*
X110964505Y-62046204D01*
X110964505Y-62046204D01*
G37*
D23*
X110490000Y-62620000D03*
D22*
G36*
X110964505Y-59996204D02*
G01*
X110988773Y-59999804D01*
X111012572Y-60005765D01*
X111035671Y-60014030D01*
X111057850Y-60024520D01*
X111078893Y-60037132D01*
X111098599Y-60051747D01*
X111116777Y-60068223D01*
X111133253Y-60086401D01*
X111147868Y-60106107D01*
X111160480Y-60127150D01*
X111170970Y-60149329D01*
X111179235Y-60172428D01*
X111185196Y-60196227D01*
X111188796Y-60220495D01*
X111190000Y-60244999D01*
X111190000Y-60895001D01*
X111188796Y-60919505D01*
X111185196Y-60943773D01*
X111179235Y-60967572D01*
X111170970Y-60990671D01*
X111160480Y-61012850D01*
X111147868Y-61033893D01*
X111133253Y-61053599D01*
X111116777Y-61071777D01*
X111098599Y-61088253D01*
X111078893Y-61102868D01*
X111057850Y-61115480D01*
X111035671Y-61125970D01*
X111012572Y-61134235D01*
X110988773Y-61140196D01*
X110964505Y-61143796D01*
X110940001Y-61145000D01*
X110039999Y-61145000D01*
X110015495Y-61143796D01*
X109991227Y-61140196D01*
X109967428Y-61134235D01*
X109944329Y-61125970D01*
X109922150Y-61115480D01*
X109901107Y-61102868D01*
X109881401Y-61088253D01*
X109863223Y-61071777D01*
X109846747Y-61053599D01*
X109832132Y-61033893D01*
X109819520Y-61012850D01*
X109809030Y-60990671D01*
X109800765Y-60967572D01*
X109794804Y-60943773D01*
X109791204Y-60919505D01*
X109790000Y-60895001D01*
X109790000Y-60244999D01*
X109791204Y-60220495D01*
X109794804Y-60196227D01*
X109800765Y-60172428D01*
X109809030Y-60149329D01*
X109819520Y-60127150D01*
X109832132Y-60106107D01*
X109846747Y-60086401D01*
X109863223Y-60068223D01*
X109881401Y-60051747D01*
X109901107Y-60037132D01*
X109922150Y-60024520D01*
X109944329Y-60014030D01*
X109967428Y-60005765D01*
X109991227Y-59999804D01*
X110015495Y-59996204D01*
X110039999Y-59995000D01*
X110940001Y-59995000D01*
X110964505Y-59996204D01*
X110964505Y-59996204D01*
G37*
D23*
X110490000Y-60570000D03*
D22*
G36*
X114774505Y-62046204D02*
G01*
X114798773Y-62049804D01*
X114822572Y-62055765D01*
X114845671Y-62064030D01*
X114867850Y-62074520D01*
X114888893Y-62087132D01*
X114908599Y-62101747D01*
X114926777Y-62118223D01*
X114943253Y-62136401D01*
X114957868Y-62156107D01*
X114970480Y-62177150D01*
X114980970Y-62199329D01*
X114989235Y-62222428D01*
X114995196Y-62246227D01*
X114998796Y-62270495D01*
X115000000Y-62294999D01*
X115000000Y-62945001D01*
X114998796Y-62969505D01*
X114995196Y-62993773D01*
X114989235Y-63017572D01*
X114980970Y-63040671D01*
X114970480Y-63062850D01*
X114957868Y-63083893D01*
X114943253Y-63103599D01*
X114926777Y-63121777D01*
X114908599Y-63138253D01*
X114888893Y-63152868D01*
X114867850Y-63165480D01*
X114845671Y-63175970D01*
X114822572Y-63184235D01*
X114798773Y-63190196D01*
X114774505Y-63193796D01*
X114750001Y-63195000D01*
X113849999Y-63195000D01*
X113825495Y-63193796D01*
X113801227Y-63190196D01*
X113777428Y-63184235D01*
X113754329Y-63175970D01*
X113732150Y-63165480D01*
X113711107Y-63152868D01*
X113691401Y-63138253D01*
X113673223Y-63121777D01*
X113656747Y-63103599D01*
X113642132Y-63083893D01*
X113629520Y-63062850D01*
X113619030Y-63040671D01*
X113610765Y-63017572D01*
X113604804Y-62993773D01*
X113601204Y-62969505D01*
X113600000Y-62945001D01*
X113600000Y-62294999D01*
X113601204Y-62270495D01*
X113604804Y-62246227D01*
X113610765Y-62222428D01*
X113619030Y-62199329D01*
X113629520Y-62177150D01*
X113642132Y-62156107D01*
X113656747Y-62136401D01*
X113673223Y-62118223D01*
X113691401Y-62101747D01*
X113711107Y-62087132D01*
X113732150Y-62074520D01*
X113754329Y-62064030D01*
X113777428Y-62055765D01*
X113801227Y-62049804D01*
X113825495Y-62046204D01*
X113849999Y-62045000D01*
X114750001Y-62045000D01*
X114774505Y-62046204D01*
X114774505Y-62046204D01*
G37*
D23*
X114300000Y-62620000D03*
D22*
G36*
X114774505Y-59996204D02*
G01*
X114798773Y-59999804D01*
X114822572Y-60005765D01*
X114845671Y-60014030D01*
X114867850Y-60024520D01*
X114888893Y-60037132D01*
X114908599Y-60051747D01*
X114926777Y-60068223D01*
X114943253Y-60086401D01*
X114957868Y-60106107D01*
X114970480Y-60127150D01*
X114980970Y-60149329D01*
X114989235Y-60172428D01*
X114995196Y-60196227D01*
X114998796Y-60220495D01*
X115000000Y-60244999D01*
X115000000Y-60895001D01*
X114998796Y-60919505D01*
X114995196Y-60943773D01*
X114989235Y-60967572D01*
X114980970Y-60990671D01*
X114970480Y-61012850D01*
X114957868Y-61033893D01*
X114943253Y-61053599D01*
X114926777Y-61071777D01*
X114908599Y-61088253D01*
X114888893Y-61102868D01*
X114867850Y-61115480D01*
X114845671Y-61125970D01*
X114822572Y-61134235D01*
X114798773Y-61140196D01*
X114774505Y-61143796D01*
X114750001Y-61145000D01*
X113849999Y-61145000D01*
X113825495Y-61143796D01*
X113801227Y-61140196D01*
X113777428Y-61134235D01*
X113754329Y-61125970D01*
X113732150Y-61115480D01*
X113711107Y-61102868D01*
X113691401Y-61088253D01*
X113673223Y-61071777D01*
X113656747Y-61053599D01*
X113642132Y-61033893D01*
X113629520Y-61012850D01*
X113619030Y-60990671D01*
X113610765Y-60967572D01*
X113604804Y-60943773D01*
X113601204Y-60919505D01*
X113600000Y-60895001D01*
X113600000Y-60244999D01*
X113601204Y-60220495D01*
X113604804Y-60196227D01*
X113610765Y-60172428D01*
X113619030Y-60149329D01*
X113629520Y-60127150D01*
X113642132Y-60106107D01*
X113656747Y-60086401D01*
X113673223Y-60068223D01*
X113691401Y-60051747D01*
X113711107Y-60037132D01*
X113732150Y-60024520D01*
X113754329Y-60014030D01*
X113777428Y-60005765D01*
X113801227Y-59999804D01*
X113825495Y-59996204D01*
X113849999Y-59995000D01*
X114750001Y-59995000D01*
X114774505Y-59996204D01*
X114774505Y-59996204D01*
G37*
D23*
X114300000Y-60570000D03*
D20*
X158750000Y-143510000D03*
X158750000Y-140970000D03*
X158750000Y-138430000D03*
D21*
X158750000Y-135890000D03*
D24*
X154365000Y-123666000D03*
D25*
X156845000Y-126206000D03*
X167005000Y-126206000D03*
D26*
X161925000Y-126206000D03*
D27*
X158115000Y-123666000D03*
X164465000Y-121126000D03*
D24*
X168215000Y-121126000D03*
X135315000Y-123666000D03*
D25*
X137795000Y-126206000D03*
X147955000Y-126206000D03*
D26*
X142875000Y-126206000D03*
D27*
X139065000Y-123666000D03*
X145415000Y-121126000D03*
D24*
X149165000Y-121126000D03*
X116265000Y-123666000D03*
D25*
X118745000Y-126206000D03*
X128905000Y-126206000D03*
D26*
X123825000Y-126206000D03*
D27*
X120015000Y-123666000D03*
X126365000Y-121126000D03*
D24*
X130115000Y-121126000D03*
X97215000Y-123666000D03*
D25*
X99695000Y-126206000D03*
X109855000Y-126206000D03*
D26*
X104775000Y-126206000D03*
D27*
X100965000Y-123666000D03*
X107315000Y-121126000D03*
D24*
X111065000Y-121126000D03*
X78165000Y-123666000D03*
D25*
X80645000Y-126206000D03*
X90805000Y-126206000D03*
D26*
X85725000Y-126206000D03*
D27*
X81915000Y-123666000D03*
X88265000Y-121126000D03*
D24*
X92015000Y-121126000D03*
X135315000Y-104616000D03*
D25*
X137795000Y-107156000D03*
X147955000Y-107156000D03*
D26*
X142875000Y-107156000D03*
D27*
X139065000Y-104616000D03*
X145415000Y-102076000D03*
D24*
X149165000Y-102076000D03*
X116265000Y-104616000D03*
D25*
X118745000Y-107156000D03*
X128905000Y-107156000D03*
D26*
X123825000Y-107156000D03*
D27*
X120015000Y-104616000D03*
X126365000Y-102076000D03*
D24*
X130115000Y-102076000D03*
X97215000Y-104616000D03*
D25*
X99695000Y-107156000D03*
X109855000Y-107156000D03*
D26*
X104775000Y-107156000D03*
D27*
X100965000Y-104616000D03*
X107315000Y-102076000D03*
D24*
X111065000Y-102076000D03*
X78165000Y-104616000D03*
D25*
X80645000Y-107156000D03*
X90805000Y-107156000D03*
D26*
X85725000Y-107156000D03*
D27*
X81915000Y-104616000D03*
X88265000Y-102076000D03*
D24*
X92015000Y-102076000D03*
X150435000Y-90646200D03*
D25*
X147955000Y-88106200D03*
X137795000Y-88106200D03*
D26*
X142875000Y-88106200D03*
D27*
X146685000Y-90646200D03*
X140335000Y-93186200D03*
D24*
X136585000Y-93186200D03*
X131385000Y-90646200D03*
D25*
X128905000Y-88106200D03*
X118745000Y-88106200D03*
D26*
X123825000Y-88106200D03*
D27*
X127635000Y-90646200D03*
X121285000Y-93186200D03*
D24*
X117535000Y-93186200D03*
X112335000Y-90646200D03*
D25*
X109855000Y-88106200D03*
X99695000Y-88106200D03*
D26*
X104775000Y-88106200D03*
D27*
X108585000Y-90646200D03*
X102235000Y-93186200D03*
D24*
X98485000Y-93186200D03*
X93285000Y-90646200D03*
D25*
X90805000Y-88106200D03*
X80645000Y-88106200D03*
D26*
X85725000Y-88106200D03*
D27*
X89535000Y-90646200D03*
X83185000Y-93186200D03*
D24*
X79435000Y-93186200D03*
X169485000Y-71596200D03*
D25*
X167005000Y-69056200D03*
X156845000Y-69056200D03*
D26*
X161925000Y-69056200D03*
D27*
X165735000Y-71596200D03*
X159385000Y-74136200D03*
D24*
X155635000Y-74136200D03*
X150435000Y-71596200D03*
D25*
X147955000Y-69056200D03*
X137795000Y-69056200D03*
D26*
X142875000Y-69056200D03*
D27*
X146685000Y-71596200D03*
X140335000Y-74136200D03*
D24*
X136585000Y-74136200D03*
X131385000Y-71596200D03*
D25*
X128905000Y-69056200D03*
X118745000Y-69056200D03*
D26*
X123825000Y-69056200D03*
D27*
X127635000Y-71596200D03*
X121285000Y-74136200D03*
D24*
X117535000Y-74136200D03*
X112335000Y-71596200D03*
D25*
X109855000Y-69056200D03*
X99695000Y-69056200D03*
D26*
X104775000Y-69056200D03*
D27*
X108585000Y-71596200D03*
X102235000Y-74136200D03*
D24*
X98485000Y-74136200D03*
X93285000Y-71596200D03*
D25*
X90805000Y-69056200D03*
X80645000Y-69056200D03*
D26*
X85725000Y-69056200D03*
D27*
X89535000Y-71596200D03*
X83185000Y-74136200D03*
D24*
X79435000Y-74136200D03*
D28*
X160150000Y-130969000D03*
X163700000Y-130969000D03*
X141100000Y-130969000D03*
X144650000Y-130969000D03*
X122050000Y-116681000D03*
X125600000Y-116681000D03*
X103000000Y-130969000D03*
X106550000Y-130969000D03*
X83950000Y-130969000D03*
X87500000Y-130969000D03*
X141100000Y-111919000D03*
X144650000Y-111919000D03*
X122017000Y-111919000D03*
X125567000Y-111919000D03*
X103000000Y-111919000D03*
X106550000Y-111919000D03*
X83950000Y-111919000D03*
X87500000Y-111919000D03*
X141100000Y-83343800D03*
X144650000Y-83343800D03*
X122050000Y-83343800D03*
X125600000Y-83343800D03*
X103000000Y-83343800D03*
X106550000Y-83343800D03*
X83950000Y-83343800D03*
X87500000Y-83343800D03*
X160150000Y-78581200D03*
X163700000Y-78581200D03*
X141100000Y-78581200D03*
X144650000Y-78581200D03*
X122050000Y-78581200D03*
X125600000Y-78581200D03*
X103000000Y-78581200D03*
X106550000Y-78581200D03*
X83950000Y-78581200D03*
X87500000Y-78581200D03*
D20*
X157480000Y-58420000D03*
X160020000Y-58420000D03*
X162560000Y-58420000D03*
D21*
X165100000Y-58420000D03*
M02*
